<?xml version="1.0" encoding="UTF-8" standalone="no"?>
<!-- Created with Inkscape (http://www.inkscape.org/) -->

<svg
   xmlns:dc="http://purl.org/dc/elements/1.1/"
   xmlns:cc="http://creativecommons.org/ns#"
   xmlns:rdf="http://www.w3.org/1999/02/22-rdf-syntax-ns#"
   xmlns:svg="http://www.w3.org/2000/svg"
   xmlns="http://www.w3.org/2000/svg"
   xmlns:sodipodi="http://sodipodi.sourceforge.net/DTD/sodipodi-0.dtd"
   xmlns:inkscape="http://www.inkscape.org/namespaces/inkscape"
   id="svg2"
   version="1.1"
   inkscape:version="0.91 r13725"
   xml:space="preserve"
   width="608"
   height="800"
   viewBox="0 0 608 800"
   sodipodi:docname="Logo Loir Cher.svg"><metadata
     id="metadata8"><rdf:RDF><cc:Work
         rdf:about=""><dc:format>image/svg+xml</dc:format><dc:type
           rdf:resource="http://purl.org/dc/dcmitype/StillImage" /><dc:title></dc:title></cc:Work></rdf:RDF></metadata><defs
     id="defs6" /><sodipodi:namedview
     pagecolor="#ffffff"
     bordercolor="#666666"
     borderopacity="1"
     objecttolerance="10"
     gridtolerance="10"
     guidetolerance="10"
     inkscape:pageopacity="0"
     inkscape:pageshadow="2"
     inkscape:window-width="1440"
     inkscape:window-height="790"
     id="namedview4"
     showgrid="false"
     inkscape:zoom="0.94015324"
     inkscape:cx="176.36653"
     inkscape:cy="72.20339"
     inkscape:window-x="0"
     inkscape:window-y="1"
     inkscape:window-maximized="1"
     inkscape:current-layer="g10" /><g
     id="g10"
     inkscape:groupmode="layer"
     inkscape:label="logo_loir-et-cher_quadri.eps.pdf"
     transform="matrix(1.25,0,0,-1.25,0,800)"><g
       id="g4275"
       transform="scale(2.2577785,2.2577743)"><path
         inkscape:connector-curvature="0"
         id="path12"
         style="fill:#0994dc;fill-opacity:1;fill-rule:nonzero;stroke:none"
         d="M 213.658,283.463 1.776,283.465 c -0.469,0 -0.922,-0.188 -1.254,-0.52 C 0.188,282.61 0,282.159 0,281.687 L 0,1.778 C 0,0.798 0.793,0 1.774,0 c 0,0 189.149,0.019 189.133,0.019 12.898,0 24.526,10.807 24.526,24.474 l 0,257.191 c 0,0.984 -0.794,1.779 -1.775,1.779" /><path
         inkscape:connector-curvature="0"
         id="path14"
         style="fill:#ffffff;fill-opacity:1;fill-rule:nonzero;stroke:none"
         d="m 210.292,278.424 -205.213,0 0,-158.753 205.213,19.373 0,139.38" /><g
         id="g4247"><g
           id="g4219"><path
             id="path4190"
             d="m 203.192,49.832 -9.392,0 c -0.026,-0.132 -0.046,-0.274 -0.058,-0.427 -0.014,-0.151 -0.021,-0.3 -0.021,-0.446 0,-0.146 0.007,-0.298 0.021,-0.457 0.012,-0.158 0.032,-0.304 0.058,-0.436 l 3.69,0 0,-12.506 c 0.315,-0.04 0.658,-0.06 1.026,-0.06 0.356,0 0.684,0.02 0.986,0.06 l 0,12.506 3.69,0 c 0.026,0.132 0.046,0.281 0.059,0.447 0.013,0.165 0.02,0.32 0.02,0.467 0,0.144 -0.007,0.29 -0.02,0.436 -0.013,0.145 -0.033,0.284 -0.059,0.416 z"
             style="fill:#ffffff;fill-opacity:1;fill-rule:nonzero;stroke:none"
             inkscape:connector-curvature="0" /><path
             id="path4188"
             d="m 188.041,49.912 c -0.172,0 -0.343,-0.007 -0.514,-0.02 -0.171,-0.013 -0.335,-0.032 -0.493,-0.06 l 0,-10.719 -6.175,10.719 c -0.146,0.028 -0.3,0.047 -0.464,0.06 -0.165,0.013 -0.319,0.02 -0.464,0.02 -0.144,0 -0.299,-0.007 -0.464,-0.02 -0.164,-0.013 -0.318,-0.032 -0.464,-0.06 l 0,-14.272 c 0.132,-0.027 0.28,-0.046 0.445,-0.06 0.164,-0.013 0.332,-0.019 0.503,-0.019 0.158,0 0.319,0.006 0.483,0.019 0.164,0.014 0.319,0.033 0.464,0.06 l 0,10.66 6.195,-10.66 c 0.145,-0.027 0.299,-0.046 0.464,-0.06 0.163,-0.013 0.318,-0.019 0.463,-0.019 0.145,0 0.299,0.006 0.464,0.019 0.164,0.014 0.318,0.033 0.464,0.06 l 0,14.272 c -0.146,0.028 -0.296,0.047 -0.454,0.06 -0.158,0.013 -0.31,0.02 -0.453,0.02 z"
             style="fill:#ffffff;fill-opacity:1;fill-rule:nonzero;stroke:none"
             inkscape:connector-curvature="0" /><path
             id="path4186"
             d="m 167.817,37.326 0,4.884 4.616,0 c 0.026,0.132 0.047,0.277 0.06,0.437 0.012,0.158 0.019,0.31 0.019,0.456 0,0.145 -0.007,0.295 -0.019,0.447 -0.013,0.151 -0.034,0.294 -0.06,0.427 l -4.616,0 0,4.089 5.781,0 c 0.026,0.132 0.042,0.278 0.049,0.436 0.007,0.159 0.01,0.311 0.01,0.457 0,0.318 -0.02,0.609 -0.059,0.873 l -7.794,0 0,-14.272 7.951,0 c 0.026,0.132 0.042,0.278 0.049,0.436 0.007,0.159 0.011,0.312 0.011,0.457 0,0.318 -0.021,0.609 -0.06,0.873 l -5.938,0 z"
             style="fill:#ffffff;fill-opacity:1;fill-rule:nonzero;stroke:none"
             inkscape:connector-curvature="0" /><path
             id="path4184"
             d="m 158.742,49.892 c -0.211,0.013 -0.403,0.02 -0.573,0.02 -0.184,0 -0.375,-0.007 -0.572,-0.02 -0.197,-0.013 -0.362,-0.032 -0.494,-0.06 l -3.688,-8.932 -3.67,8.932 c -0.145,0.028 -0.327,0.047 -0.543,0.06 -0.217,0.013 -0.417,0.02 -0.602,0.02 -0.184,0 -0.378,-0.007 -0.582,-0.02 -0.204,-0.013 -0.385,-0.032 -0.542,-0.06 L 146.844,35.56 c 0.145,-0.027 0.296,-0.046 0.453,-0.06 0.16,-0.013 0.324,-0.019 0.495,-0.019 0.144,0 0.295,0.006 0.453,0.019 0.158,0.014 0.309,0.033 0.454,0.06 l 0.454,11.156 3.353,-8.198 c 0.25,-0.04 0.5,-0.06 0.75,-0.06 0.277,0 0.546,0.02 0.809,0.06 l 3.473,8.138 0.454,-11.096 c 0.144,-0.027 0.299,-0.046 0.464,-0.06 0.164,-0.013 0.331,-0.019 0.502,-0.019 0.171,0 0.338,0.006 0.503,0.019 0.164,0.014 0.326,0.033 0.484,0.06 l -0.671,14.272 c -0.145,0.028 -0.322,0.047 -0.532,0.06 z"
             style="fill:#ffffff;fill-opacity:1;fill-rule:nonzero;stroke:none"
             inkscape:connector-curvature="0" /><path
             id="path4182"
             d="m 135.895,37.326 0,4.884 4.616,0 c 0.027,0.132 0.047,0.277 0.06,0.437 0.012,0.158 0.019,0.31 0.019,0.456 0,0.145 -0.007,0.295 -0.019,0.447 -0.013,0.151 -0.033,0.294 -0.06,0.427 l -4.616,0 0,4.089 5.78,0 c 0.027,0.132 0.042,0.278 0.049,0.436 0.007,0.159 0.011,0.311 0.011,0.457 0,0.318 -0.02,0.609 -0.06,0.873 l -7.793,0 0,-14.272 7.951,0 c 0.026,0.132 0.042,0.278 0.049,0.436 0.007,0.159 0.01,0.312 0.01,0.457 0,0.318 -0.019,0.609 -0.059,0.873 l -5.938,0 z"
             style="fill:#ffffff;fill-opacity:1;fill-rule:nonzero;stroke:none"
             inkscape:connector-curvature="0" /><path
             id="path4180"
             d="m 129.029,49.832 -9.392,0 c -0.026,-0.132 -0.046,-0.274 -0.058,-0.427 -0.014,-0.151 -0.021,-0.3 -0.021,-0.446 0,-0.146 0.007,-0.298 0.021,-0.457 0.012,-0.158 0.032,-0.304 0.058,-0.436 l 3.69,0 0,-12.506 c 0.315,-0.04 0.658,-0.06 1.026,-0.06 0.355,0 0.684,0.02 0.986,0.06 l 0,12.506 3.69,0 c 0.026,0.132 0.046,0.281 0.059,0.447 0.013,0.165 0.02,0.32 0.02,0.467 0,0.144 -0.007,0.29 -0.02,0.436 -0.013,0.145 -0.033,0.284 -0.059,0.416 z"
             style="fill:#ffffff;fill-opacity:1;fill-rule:nonzero;stroke:none"
             inkscape:connector-curvature="0" /><path
             id="path4178"
             d="m 112.535,41.694 c 0.316,0.158 0.641,0.36 0.977,0.605 0.335,0.245 0.634,0.533 0.898,0.863 0.262,0.331 0.479,0.708 0.65,1.132 0.171,0.424 0.257,0.894 0.257,1.409 0,0.861 -0.161,1.572 -0.484,2.134 -0.323,0.563 -0.74,1.01 -1.252,1.341 -0.513,0.33 -1.099,0.562 -1.756,0.694 -0.658,0.132 -1.322,0.198 -1.993,0.198 -0.303,0 -0.579,-0.006 -0.829,-0.019 -0.25,-0.014 -0.49,-0.029 -0.72,-0.05 -0.23,-0.019 -0.463,-0.043 -0.7,-0.069 -0.237,-0.027 -0.5,-0.053 -0.79,-0.079 l 0,-14.293 c 0.158,-0.027 0.33,-0.043 0.514,-0.05 0.183,-0.006 0.355,-0.01 0.513,-0.01 0.158,0 0.326,0.007 0.503,0.02 0.177,0.013 0.339,0.027 0.483,0.04 l 0,12.724 c 0.237,0.027 0.45,0.047 0.642,0.06 0.19,0.013 0.396,0.019 0.621,0.019 0.947,0 1.699,-0.231 2.259,-0.694 0.559,-0.464 0.839,-1.171 0.839,-2.124 0,-0.517 -0.113,-0.957 -0.335,-1.32 -0.225,-0.364 -0.504,-0.675 -0.84,-0.933 -0.335,-0.259 -0.7,-0.467 -1.095,-0.626 -0.394,-0.158 -0.769,-0.284 -1.124,-0.377 l -0.158,-0.04 0,-0.079 4.538,-6.61 c 0.355,-0.04 0.71,-0.06 1.065,-0.06 0.448,0 0.849,0.02 1.203,0.06 l -4.123,6.014 0.237,0.12 z"
             style="fill:#ffffff;fill-opacity:1;fill-rule:nonzero;stroke:none"
             inkscape:connector-curvature="0" /><path
             id="path4174"
             transform="matrix(0.8,0,0,-0.8,0,284)"
             d="m 120.39648,292.60938 c -0.2625,0 -0.51742,0.009 -0.76367,0.0254 -0.24625,0.0163 -0.4757,0.0412 -0.68945,0.0762 l -5.77148,17.83984 c 0.18125,0.0337 0.38226,0.0567 0.60351,0.0742 0.2225,0.0163 0.44648,0.0234 0.67773,0.0234 0.2125,0 0.42883,-0.007 0.64258,-0.0234 0.2125,-0.0175 0.42688,-0.0405 0.64063,-0.0742 l 1.20703,-4.11914 6.73242,0 1.23438,4.11914 c 0.1975,0.0337 0.4064,0.0567 0.6289,0.0742 0.22125,0.0163 0.44055,0.0234 0.6543,0.0234 0.23,0 0.46859,-0.007 0.71484,-0.0234 0.24625,-0.0175 0.46852,-0.0405 0.66602,-0.0742 l -5.7461,-17.83984 c -0.23124,-0.035 -0.46859,-0.0599 -0.71484,-0.0762 -0.24625,-0.0163 -0.48555,-0.0254 -0.7168,-0.0254 z m -0.0996,2.50781 2.71484,9.10547 -5.40234,0 2.6875,-9.10547 z"
             style="fill:#ffffff;fill-opacity:1;fill-rule:nonzero;stroke:none"
             inkscape:connector-curvature="0" /><path
             id="path4170"
             transform="matrix(0.8,0,0,-0.8,0,284)"
             d="m 103.08594,292.41211 c -0.34625,0 -0.70422,0.007 -1.07422,0.0234 -0.37,0.0175 -0.73938,0.0362 -1.10938,0.0625 -0.37,0.0238 -0.72429,0.0554 -1.060543,0.0879 -0.33625,0.0337 -0.629453,0.0652 -0.876953,0.0976 l 0,17.86719 c 0.1975,0.0337 0.408359,0.0538 0.630859,0.0625 0.22125,0.008 0.431407,0.0117 0.628907,0.0117 0.44375,0 0.86086,-0.0242 1.25586,-0.0742 l 0,-6.45117 c 0.27875,0.0337 0.53859,0.0538 0.77734,0.0625 0.2375,0.009 0.51563,0.0117 0.82813,0.0117 0.8375,0 1.65984,-0.0959 2.46484,-0.28711 0.80625,-0.18875 1.52445,-0.51602 2.1582,-0.97852 0.6325,-0.4625 1.14305,-1.0789 1.5293,-1.84765 0.38625,-0.77 0.58008,-1.73508 0.58008,-2.89258 0,-1.10875 -0.18242,-2.03133 -0.54492,-2.76758 -0.36125,-0.73625 -0.85055,-1.32594 -1.4668,-1.77344 -0.6175,-0.44625 -1.33203,-0.75961 -2.14453,-0.94336 -0.815,-0.18125 -1.67367,-0.27148 -2.57617,-0.27148 z m 0,2.18359 c 0.59125,0 1.14234,0.0588 1.65234,0.17383 0.50875,0.11625 0.94344,0.3125 1.30469,0.59375 0.3625,0.2825 0.64531,0.65469 0.85156,1.11719 0.205,0.465 0.30859,1.03414 0.30859,1.71289 0,0.7775 -0.11867,1.40969 -0.35742,1.89844 -0.2375,0.48875 -0.55617,0.87109 -0.95117,1.15234 -0.39375,0.2825 -0.84055,0.47648 -1.3418,0.58398 -0.5025,0.1075 -1.00757,0.16211 -1.51757,0.16211 -0.37875,0 -0.66579,-0.008 -0.86328,-0.0254 -0.19626,-0.0175 -0.42766,-0.0417 -0.69141,-0.0742 l 0,-7.2207 c 0.46,-0.05 0.99672,-0.0742 1.60547,-0.0742 z"
             style="fill:#ffffff;fill-opacity:1;fill-rule:nonzero;stroke:none"
             inkscape:connector-curvature="0" /><path
             id="path4168"
             d="m 67.986,37.326 0,4.884 4.617,0 c 0.026,0.132 0.046,0.277 0.059,0.437 0.013,0.158 0.02,0.31 0.02,0.456 0,0.145 -0.007,0.295 -0.02,0.447 -0.013,0.151 -0.033,0.294 -0.059,0.427 l -4.617,0 0,4.089 5.781,0 c 0.026,0.132 0.042,0.278 0.049,0.436 0.007,0.159 0.01,0.311 0.01,0.457 0,0.318 -0.019,0.609 -0.059,0.873 l -7.793,0 0,-14.272 7.951,0 c 0.026,0.132 0.042,0.278 0.049,0.436 0.006,0.159 0.01,0.312 0.01,0.457 0,0.318 -0.02,0.609 -0.059,0.873 l -5.939,0 z"
             style="fill:#ffffff;fill-opacity:1;fill-rule:nonzero;stroke:none"
             inkscape:connector-curvature="0" /><path
             id="path4166"
             d="m 69.071,50.944 c 0.184,0 0.368,0.006 0.553,0.02 0.184,0.013 0.362,0.033 0.532,0.06 l 2.602,2.143 c -0.184,0.027 -0.388,0.05 -0.611,0.07 -0.224,0.02 -0.461,0.03 -0.71,0.03 -0.237,0 -0.474,-0.01 -0.71,-0.03 -0.237,-0.02 -0.461,-0.043 -0.672,-0.07 l -2.01,-2.143 c 0.184,-0.027 0.355,-0.047 0.513,-0.06 0.158,-0.014 0.329,-0.02 0.513,-0.02 z"
             style="fill:#ffffff;fill-opacity:1;fill-rule:nonzero;stroke:none"
             inkscape:connector-curvature="0" /><path
             id="path4162"
             transform="matrix(0.8,0,0,-0.8,0,284)"
             d="m 66.314453,292.43555 c -0.75625,0 -1.530312,0.0316 -2.320312,0.0879 -0.78875,0.0575 -1.462735,0.12125 -2.021485,0.1875 l 0,17.83984 c 0.54375,0.0838 1.192969,0.15219 1.949219,0.21094 0.75625,0.0575 1.519219,0.0879 2.292969,0.0879 3.1075,0 5.445625,-0.75477 7.015625,-2.25977 1.57,-1.505 2.355469,-3.81187 2.355469,-6.92187 0,-2.97875 -0.767891,-5.26086 -2.306641,-6.84961 -1.5375,-1.5875 -3.858594,-2.38281 -6.964844,-2.38281 z m 0.171875,2.25976 c 0.9525,0 1.824531,0.12305 2.613281,0.37305 0.79,0.2475 1.467657,0.64867 2.035157,1.20117 0.56625,0.55625 1.007109,1.27024 1.318359,2.14649 0.3125,0.8775 0.46875,1.93453 0.46875,3.17578 0,1.35625 -0.15625,2.48672 -0.46875,3.38672 -0.31125,0.9025 -0.755078,1.61843 -1.330078,2.14843 -0.57625,0.52875 -1.261094,0.90641 -2.058594,1.12891 -0.79875,0.2225 -1.682344,0.33398 -2.652344,0.33398 -0.37875,0 -0.736015,-0.0121 -1.072265,-0.0371 -0.33875,-0.025 -0.621563,-0.0522 -0.851563,-0.0859 l 0,-13.67383 c 0.27875,-0.05 0.60461,-0.0772 0.97461,-0.0859 0.37,-0.007 0.710937,-0.0117 1.023437,-0.0117 z"
             style="fill:#ffffff;fill-opacity:1;fill-rule:nonzero;stroke:none"
             inkscape:connector-curvature="0" /><path
             id="path4160"
             d="m 31.073,37.326 0,4.884 4.616,0 c 0.026,0.132 0.046,0.277 0.059,0.437 0.013,0.158 0.02,0.31 0.02,0.456 0,0.145 -0.007,0.295 -0.02,0.447 -0.013,0.151 -0.033,0.294 -0.059,0.427 l -4.616,0 0,4.089 5.78,0 c 0.026,0.132 0.043,0.278 0.049,0.436 0.007,0.159 0.011,0.311 0.011,0.457 0,0.318 -0.02,0.609 -0.06,0.873 l -7.793,0 0,-14.272 7.951,0 c 0.026,0.132 0.042,0.278 0.049,0.436 0.007,0.159 0.01,0.312 0.01,0.457 0,0.318 -0.02,0.609 -0.059,0.873 l -5.938,0 z"
             style="fill:#ffffff;fill-opacity:1;fill-rule:nonzero;stroke:none"
             inkscape:connector-curvature="0" /><path
             id="path16"
             d="m 24.275,36.89 c 0.007,-0.159 0.011,-0.305 0.011,-0.437 0,-0.318 -0.02,-0.615 -0.06,-0.893 l -7.557,0 0,14.272 c 0.146,0.028 0.3,0.047 0.464,0.06 0.165,0.013 0.339,0.02 0.523,0.02 0.171,0 0.342,-0.007 0.513,-0.02 0.17,-0.013 0.336,-0.032 0.494,-0.06 l 0,-12.486 5.563,0 c 0.026,-0.146 0.043,-0.297 0.049,-0.456"
             style="fill:#ffffff;fill-opacity:1;fill-rule:nonzero;stroke:none"
             inkscape:connector-curvature="0" /></g><g
           id="g4235"><path
             id="path4212"
             d="m 133.963,58.841 c 0.687,0.09 1.392,0.233 2.096,0.428 0.662,0.179 1.29,0.421 1.866,0.717 -0.147,1.011 -0.307,1.746 -0.757,3.005 -0.267,0.753 -0.559,1.281 -0.87,1.84 -0.129,0.234 -0.258,0.47 -0.39,0.726 -0.487,-0.194 -0.926,-0.366 -1.316,-0.516 -0.435,-0.165 -0.851,-0.286 -1.235,-0.357 -0.37,-0.073 -0.76,-0.128 -1.157,-0.165 -0.392,-0.036 -0.818,-0.055 -1.265,-0.055 -2.397,0 -4.375,0.741 -5.879,2.204 -1.502,1.455 -2.481,3.703 -2.913,6.679 -0.304,2.091 -0.415,4.884 -0.282,7.115 0.115,1.927 0.493,4.621 1.209,6.405 0.678,1.691 1.681,3.083 2.984,4.141 1.309,1.061 3.004,1.6 5.037,1.6 0.688,0 1.441,-0.074 2.237,-0.219 0.75,-0.138 1.651,-0.427 2.681,-0.861 0.085,0.281 0.167,0.535 0.244,0.773 0.215,0.662 0.385,1.185 0.484,1.849 0.141,0.964 0.167,1.711 0.182,2.712 -1.21,0.614 -2.368,1.02 -3.442,1.208 -1.107,0.196 -2.376,0.295 -3.769,0.295 -2.654,0 -5.008,-0.654 -7,-1.944 -1.995,-1.294 -3.625,-3.09 -4.847,-5.338 -1.226,-2.257 -2.061,-4.933 -2.48,-7.957 -0.422,-3.028 -0.381,-6.316 0.12,-9.773 0.32,-2.204 0.884,-4.232 1.676,-6.027 0.792,-1.791 1.834,-3.353 3.099,-4.645 1.261,-1.292 2.768,-2.306 4.477,-3.015 1.71,-0.709 3.671,-1.067 5.829,-1.067 0.351,0 0.823,0.017 1.443,0.054 0.594,0.035 1.246,0.098 1.938,0.188 z"
             style="fill:#ffffff;fill-opacity:1;fill-rule:nonzero;stroke:none"
             inkscape:connector-curvature="0" /><path
             id="path4210"
             d="m 203.361,86.092 -0.075,0.485 c -0.016,0.107 -0.042,0.216 -0.08,0.326 -0.468,0.159 -1.017,0.239 -1.631,0.239 -0.829,0 -1.575,-0.151 -2.218,-0.446 -0.649,-0.298 -1.227,-0.697 -1.717,-1.183 -0.493,-0.486 -0.932,-1.048 -1.307,-1.668 -0.373,-0.62 -0.668,-1.254 -0.878,-1.882 l -0.289,-0.862 -0.017,0.913 c -0.009,0.456 -0.03,0.85 -0.064,1.173 -0.033,0.32 -0.074,0.642 -0.124,0.962 -0.118,0.776 -0.241,1.366 -0.362,1.755 -0.11,0.353 -0.216,0.666 -0.312,0.932 -0.525,0.101 -1.015,0.176 -1.46,0.225 -1.486,0.166 -2.91,0.074 -4.315,-0.207 0.063,-0.263 0.112,-0.51 0.147,-0.738 l 0.153,-0.997 c 0.147,-0.967 0.271,-2.342 0.365,-4.092 0.092,-1.74 0.139,-3.767 0.139,-6.026 l -0.123,-15.782 c 1.053,-0.197 2.118,-0.297 3.17,-0.297 1.026,0 2.123,0.101 3.263,0.299 l 0.093,10.71 c 0.011,1.576 0.076,3.033 0.195,4.33 0.119,1.31 0.383,2.445 0.787,3.371 0.407,0.941 1.012,1.683 1.799,2.202 0.784,0.52 1.852,0.782 3.175,0.782 0.35,0 0.649,-0.018 0.888,-0.055 0.18,-0.029 0.35,-0.058 0.51,-0.086 0.235,0.677 0.381,1.524 0.433,2.521 0.055,1.069 0.006,2.11 -0.145,3.096 z"
             style="fill:#ffffff;fill-opacity:1;fill-rule:nonzero;stroke:none"
             inkscape:connector-curvature="0" /><path
             id="path4206"
             transform="matrix(0.8,0,0,-0.8,0,284)"
             d="m 220.69531,245.66797 c -2.68,0 -5.03359,0.63703 -6.99609,1.89453 -1.96625,1.2575 -3.56094,2.93648 -4.74219,4.99023 -1.18625,2.05875 -1.99922,4.42922 -2.41797,7.04297 -0.41875,2.62125 -0.42086,5.31985 -0.006,8.02735 0.3275,2.12875 0.89711,4.0964 1.69336,5.84765 0.79,1.74375 1.84813,3.24258 3.14063,4.45508 1.29375,1.21125 2.85734,2.16367 4.65234,2.82617 1.79375,0.665 3.91242,1 6.29492,1 0.735,0 1.57907,-0.056 2.50782,-0.16601 0.92,-0.11 1.84726,-0.26946 2.75976,-0.47071 0.92125,-0.20375 1.8057,-0.45062 2.62695,-0.73437 0.78,-0.26875 1.46758,-0.57094 2.04883,-0.89844 l -0.0156,-0.15039 c -0.10625,-1.08625 -0.19086,-1.94476 -0.75586,-3.25976 -0.57,-1.32625 -1.05461,-1.88797 -1.72461,-2.66797 l -0.0742,-0.0859 c -1.20625,0.6025 -2.38148,1.09414 -3.49023,1.46289 -1.16625,0.3875 -2.56391,0.58398 -4.16016,0.58398 -2.01875,0 -3.66227,-0.55171 -4.88477,-1.63671 -1.245,-1.10125 -2.35898,-3.47329 -2.70898,-5.76954 l -0.0293,-0.19726 4.05469,-0.7793 c 1.8325,-0.31125 3.59523,-0.79515 5.24023,-1.4414 1.63625,-0.64125 3.07555,-1.4811 4.2793,-2.4961 1.195,-1.00625 2.1007,-2.24922 2.68945,-3.69922 0.5875,-1.44 0.73024,-3.17218 0.42774,-5.14843 -0.21625,-1.40375 -0.64063,-2.64993 -1.26563,-3.70118 -0.62375,-1.05125 -1.40953,-1.95328 -2.33203,-2.67578 -0.92,-0.7225 -1.97211,-1.26593 -3.13086,-1.61719 -1.1625,-0.35375 -2.40039,-0.53515 -3.68164,-0.53515 z m -0.40625,5.78125 c 0.88625,0 1.66641,0.25531 2.31641,0.75781 1.75375,1.35375 1.16555,4.39969 1.0918,4.74219 -0.1175,0.55 -0.49094,1.19664 -1.02344,1.77539 -0.49,0.535 -1.19711,1.02719 -2.09961,1.46094 -0.89,0.43125 -2.09281,0.78875 -3.57031,1.0625 l -3.22852,0.58007 -0.01,-0.23632 c -0.14125,-4.245 2.15032,-8.4336 3.72657,-9.33985 0.95125,-0.54875 1.84062,-0.80273 2.79687,-0.80273 z"
             style="fill:#ffffff;fill-opacity:1;fill-rule:nonzero;stroke:none"
             inkscape:connector-curvature="0" /><path
             id="path4204"
             d="m 160.87,80.426 c -0.384,2.5 -1.185,4.31 -2.38,5.379 -1.196,1.065 -2.74,1.605 -4.593,1.605 -1.482,0 -2.844,-0.417 -4.044,-1.241 -1.205,-0.826 -2.128,-1.868 -2.742,-3.096 l -0.304,-0.607 0.084,8.241 c 0.032,2.249 -0.074,3.238 -0.313,4.801 -0.118,0.768 -0.288,1.417 -0.505,1.931 -1.094,0.203 -2.097,0.305 -2.983,0.305 -0.504,0 -1.103,-0.027 -1.782,-0.081 -0.602,-0.047 -1.151,-0.116 -1.634,-0.207 0.064,-0.261 0.12,-0.502 0.168,-0.725 0.06,-0.287 0.12,-0.626 0.179,-1.009 0.298,-1.944 0.453,-3.893 0.462,-7.66 l -0.069,-28.84 c 0.559,-0.094 1.088,-0.158 1.573,-0.193 0.535,-0.035 1.069,-0.052 1.591,-0.052 0.486,0 1.032,0.017 1.621,0.052 0.53,0.035 1.069,0.099 1.602,0.192 l 0.093,10.71 c 0.011,2.411 0.175,4.383 0.487,5.86 0.315,1.485 0.703,2.653 1.156,3.476 0.462,0.834 0.97,1.391 1.513,1.657 0.533,0.261 1.04,0.394 1.505,0.394 0.795,0 1.455,-0.232 1.96,-0.688 0.506,-0.456 0.848,-1.252 1.019,-2.365 0.099,-0.65 0.142,-1.35 0.127,-2.08 l -0.038,-16.966 c 2.109,-0.396 4.214,-0.395 6.434,10e-4 l 0.041,17.562 c -0.01,0.658 -0.03,1.309 -0.06,1.935 -0.031,0.598 -0.086,1.173 -0.168,1.709 z"
             style="fill:#ffffff;fill-opacity:1;fill-rule:nonzero;stroke:none"
             inkscape:connector-curvature="0" /><path
             id="path4202"
             d="m 81.241,79.834 c 0.783,0.52 1.851,0.782 3.175,0.782 0.351,0 0.649,-0.018 0.887,-0.055 0.18,-0.029 0.35,-0.058 0.511,-0.086 0.235,0.678 0.38,1.525 0.433,2.521 0.054,1.069 0.005,2.111 -0.146,3.096 l -0.075,0.485 c -0.016,0.108 -0.043,0.218 -0.08,0.326 -0.468,0.159 -1.017,0.239 -1.631,0.239 -0.829,0 -1.574,-0.151 -2.217,-0.446 -0.65,-0.299 -1.228,-0.698 -1.718,-1.183 -0.494,-0.488 -0.934,-1.05 -1.306,-1.668 -0.373,-0.62 -0.669,-1.254 -0.879,-1.882 l -0.289,-0.862 -0.017,0.913 c -0.009,0.459 -0.03,0.852 -0.063,1.172 -0.034,0.321 -0.074,0.643 -0.124,0.963 -0.118,0.772 -0.241,1.363 -0.363,1.755 -0.11,0.353 -0.215,0.666 -0.312,0.932 -0.523,0.1 -1.013,0.176 -1.46,0.225 -1.486,0.167 -2.91,0.075 -4.315,-0.207 0.064,-0.27 0.112,-0.513 0.147,-0.739 l 0.153,-0.997 c 0.149,-0.97 0.269,-2.309 0.366,-4.091 0.092,-1.751 0.139,-3.779 0.138,-6.026 L 71.934,59.219 c 1.052,-0.197 2.117,-0.297 3.169,-0.297 1.026,0 2.124,0.101 3.264,0.299 l 0.093,10.71 c 0.011,1.579 0.076,3.036 0.194,4.33 0.119,1.31 0.384,2.445 0.787,3.371 0.408,0.941 1.013,1.683 1.8,2.202 z"
             style="fill:#ffffff;fill-opacity:1;fill-rule:nonzero;stroke:none"
             inkscape:connector-curvature="0" /><path
             id="path4200"
             d="m 56.066,84.465 c -0.028,-0.667 0.006,-1.389 0.102,-2.15 l 0.093,0 0.045,-0.129 c 0.02,-0.071 0.038,-0.141 0.053,-0.21 l 3.021,0 0,-0.164 -0.035,-22.592 c 1.108,-0.197 2.141,-0.298 3.074,-0.298 1.024,0 2.106,0.101 3.216,0.298 l 0.045,27.598 -9.316,0 c -0.166,-0.81 -0.266,-1.601 -0.298,-2.353 z"
             style="fill:#ffffff;fill-opacity:1;fill-rule:nonzero;stroke:none"
             inkscape:connector-curvature="0" /><path
             id="path4198"
             d="m 65.73,97.775 c -0.52,0.127 -1.075,0.216 -1.654,0.267 -0.616,0.054 -1.183,0.081 -1.686,0.081 -0.503,0 -1.07,-0.027 -1.686,-0.081 -0.577,-0.051 -1.125,-0.14 -1.634,-0.267 -0.174,-1.213 -0.263,-2.374 -0.263,-3.456 0,-1.042 0.097,-1.583 0.291,-2.658 l 0.023,-0.13 c 0.489,-0.095 1.033,-0.16 1.618,-0.193 0.625,-0.035 1.184,-0.053 1.662,-0.053 0.51,0 1.073,0.018 1.671,0.053 0.56,0.033 1.104,0.098 1.62,0.193 l 0.038,0.239 c 0.154,0.968 0.239,1.503 0.251,2.525 0.014,1.1 -0.07,2.271 -0.251,3.48 z"
             style="fill:#ffffff;fill-opacity:1;fill-rule:nonzero;stroke:none"
             inkscape:connector-curvature="0" /><path
             id="path4194"
             transform="matrix(0.8,0,0,-0.8,0,284)"
             d="m 54.410156,245.66797 c -2.83625,0 -5.242187,0.68094 -7.148437,2.02344 -1.91375,1.34875 -3.424141,3.1164 -4.494141,5.2539 -1.075,2.15375 -1.76664,4.6025 -2.05664,7.28125 -0.292501,2.68875 -0.234219,5.40352 0.175781,8.07227 0.63875,4.16625 2.104922,7.48664 4.357422,9.86914 2.245,2.3775 5.412968,3.58398 9.417968,3.58398 2.87625,0 5.315704,-0.65828 7.251953,-1.95703 1.937501,-1.30125 3.462657,-3.03414 4.535157,-5.15039 1.0775,-2.125 1.762812,-4.55039 2.039062,-7.21289 0.27625,-2.66875 0.203047,-5.41953 -0.220703,-8.17578 -0.6375,-4.1625 -2.10914,-7.5082 -4.36914,-9.93945 -2.253751,-2.42125 -5.444532,-3.64844 -9.488282,-3.64844 z m 0.257813,6.25391 c 3.06875,0 4.952812,2.14765 5.601562,6.3789 0.23,1.49875 0.331172,3.99344 0.326172,5.67969 -0.0038,1.69625 -0.20125,4.27734 -0.625,5.93359 -0.41375,1.6175 -1.068515,2.995 -1.947265,4.09375 -0.90125,1.1225 -2.147579,1.69141 -3.705079,1.69141 -2.91,0 -4.705234,-2.07633 -5.333984,-6.17383 -0.2175,-1.4225 -0.334062,-3.85953 -0.351563,-5.64453 -0.0175,-1.6925 0.150391,-4.2932 0.556641,-6.00195 0.38875,-1.6375 1.006641,-3.04571 1.837891,-4.18946 0.8525,-1.17125 2.078125,-1.76757 3.640625,-1.76757 z"
             style="fill:#ffffff;fill-opacity:1;fill-rule:nonzero;stroke:none"
             inkscape:connector-curvature="0" /><path
             id="path4192"
             d="m 32.156,60.849 c 0.04,0.553 0.064,1.123 0.071,1.688 -0.014,0.496 -0.033,1.027 -0.054,1.584 -0.012,0.314 -0.035,0.409 -0.072,0.568 -0.022,0.09 -0.048,0.198 -0.078,0.37 l -8.869,0 0.034,0.164 -10e-4,32.524 c -2.226,0.47 -4.334,0.456 -6.529,0 l -0.001,-38.501 15.356,0 c 0.057,0.557 0.105,1.09 0.143,1.603 z"
             style="fill:#ffffff;fill-opacity:1;fill-rule:nonzero;stroke:none"
             inkscape:connector-curvature="0" /><path
             inkscape:connector-curvature="0"
             id="path18"
             style="fill:#fab20b;fill-opacity:1;fill-rule:nonzero;stroke:none"
             d="m 97.334,63.06 c -3.477,0 -5.749,2.564 -5.749,5.758 0,2.758 1.715,4.452 3.152,5.517 2.968,-3.533 5.935,-7.017 7.836,-9.05 -1.206,-1.258 -3.013,-2.225 -5.239,-2.225 z m 0.788,25.502 c 2.179,0 3.153,-1.936 3.153,-3.678 0,-2.274 -1.53,-3.774 -4.173,-5.517 -1.391,1.646 -2.272,3.243 -2.272,5.227 0,2.081 1.159,3.968 3.292,3.968 z m 10.942,-23.228 c 2.205,2.588 4.36,9.111 4.98,12.241 -0.291,0.041 -1.053,0.127 -1.315,0.146 -0.433,0.028 -0.865,0.043 -1.286,0.043 -0.395,0 -0.835,-0.015 -1.313,-0.043 -0.405,-0.027 -0.816,-0.075 -1.225,-0.144 l -0.072,0 c -0.511,-3.436 -1.484,-6.533 -2.829,-8.662 -1.715,1.936 -4.126,4.839 -6.306,7.452 l 0.047,0.145 c 4.544,2.42 6.444,5.179 6.444,8.565 0,4.452 -3.384,7.308 -7.789,7.308 -5.749,0 -8.716,-4.308 -8.716,-8.372 0,-2.322 1.02,-4.694 2.503,-6.533 l 0,-0.145 c -3.57,-1.984 -6.027,-5.081 -6.027,-9.436 0,-4.743 3.431,-9.244 10.293,-9.244 3.57,0 6.491,1.163 8.809,3.243 0.97,-1.061 1.665,-1.881 2.449,-2.701 l 0,-0.015 c 2.194,-0.32 4.383,-0.319 6.692,10e-4 l -0.011,0.01 c -1.899,2.127 -3.567,4.11 -5.328,6.141" /></g></g><g
         id="g4154"><path
           d="m 80.442,230.38 c 0.479,1.846 3.335,4.481 2.164,4.506 -2.957,0.053 -5.717,-1.271 -7.386,-2.42 -0.272,-0.186 -0.793,-1.331 -0.647,-1.393 0.489,-0.207 5.634,-1.593 5.869,-0.693"
           style="fill:#0994dc;fill-opacity:1;fill-rule:nonzero;stroke:none"
           id="path20"
           inkscape:connector-curvature="0" /><path
           d="m 147.93,211.39 c -32.466,0 -66.404,-13.919 -79.063,-16.192 -0.729,-0.13 -1.415,-0.193 -2.059,-0.193 -7.497,0 -9.148,8.464 -1.143,15.971 8.901,8.353 19.167,11.288 23.202,13.612 4.986,2.877 6.789,5.427 7.46,7.52 0.071,0.187 0.002,0.25 -0.18,0.25 -0.378,0 -1.246,-0.268 -2.382,-0.268 -0.382,0 -0.796,0.03 -1.229,0.112 -1.531,0.166 -2.302,0.88 -2.302,0.88 0,0 2.12,1.98 3.56,3.672 0.627,0.734 0.989,1.337 1.198,1.785 0.27,0.58 0.119,0.894 -0.275,1.004 -3.428,0.669 -5.364,1.492 -9.824,1.492 -0.942,0 -1.998,-0.036 -3.204,-0.118 -6.436,-0.449 -11.432,-2.794 -13.016,-3.617 -0.345,-0.178 -0.648,-0.59 -1.029,-1.129 -4.502,-7.147 -14.575,-12.149 -21.394,-20.858 -2.798,0.813 -6.113,1.252 -9.021,1.252 -2.458,0 -4.626,-0.312 -5.954,-0.979 -1.641,-0.831 3.838,0.439 7.567,-2.289 1.771,-1.295 -3.255,-0.07 -8.261,-2.83 -1.847,-1.025 -1.954,-1.283 -1.324,-1.283 0.487,0 1.412,0.154 2.318,0.23 1.311,0.114 2.326,0.165 3.132,0.165 1.79,0 2.543,-0.244 3.203,-0.561 1.039,-0.492 -2.397,-1.661 -5.056,-4.561 -0.685,-0.755 -0.817,-1.034 -0.575,-1.034 0.256,0 0.932,0.318 1.818,0.723 2.674,1.225 4.945,1.494 6.297,1.494 0.231,0 0.433,-0.008 0.608,-0.02 -1.012,-3.087 -1.609,-6.554 -1.609,-10.528 0,-20.156 12.923,-32.322 12.923,-32.322 0,0 -2.524,-1.632 -5.163,-5.219 -1.272,-1.72 -2.054,-3.647 -1.543,-3.647 0.225,0 0.702,0.373 1.496,1.303 2.209,2.571 6.842,5.447 7.976,5.447 0.347,-0.002 0.368,-0.262 -0.091,-0.878 -3.006,-4.002 -2.942,-10.484 -2.19,-10.484 0.13,0 0.284,0.199 0.447,0.643 2.131,5.869 5.561,8.24 6.765,8.24 0.321,0 0.485,-0.169 0.417,-0.491 -1.22,-5.929 0.667,-11.409 1.499,-11.409 0.208,0 0.351,0.34 0.362,1.095 0.104,5.787 2.62,10.543 4.24,12.971 0.43,0.651 0.785,1.26 -0.307,1.962 -1.201,0.769 -24.061,11.005 -24.061,33.386 0,16.667 13.146,25.232 20.294,31.313 5.469,4.65 6.632,6.762 6.916,7.485 0.172,0.438 0.299,0.583 0.664,0.746 5.728,2.481 9.933,3.187 13.056,3.187 3.604,-0.002 5.762,-0.94 7.141,-1.175 1.422,-0.242 -4.548,-5.805 -4.548,-5.805 0.891,-2.745 3.812,-2.879 4.37,-2.879 0.06,0 0.095,0.002 0.095,0.002 -1.889,-5.015 -28.269,-9.944 -33.366,-22.598 -4.258,-10.591 2.652,-17.308 13.05,-17.308 2.028,0 4.193,0.256 6.43,0.787 18.162,4.329 42.484,16.356 70.342,16.356 24.83,0 30.649,-15.641 24.159,-22.954 -3.687,-4.162 -11.801,-7.385 -24.416,-7.385 -4.072,0 -8.615,0.337 -13.631,1.086 -10.638,1.588 -18.79,2.694 -25.426,2.694 -6.832,0 -12.057,-1.172 -16.729,-4.203 -7.481,-4.848 -9.009,-16.752 8.3,-21.745 2.794,-0.808 5.403,-1.16 7.809,-1.16 11.899,0 18.731,8.603 17.093,13.316 -1.567,4.495 -7.004,4.961 -9.189,4.961 -0.575,0 -0.927,-0.03 -0.927,-0.03 -0.24,-5.284 -3.037,-8.077 -13.309,-8.241 l -0.06,0 c -7.036,0 -13.725,7.486 -5.689,11.498 3.939,1.971 9.739,2.964 16.278,2.964 3.442,0 7.092,-0.275 10.786,-0.829 10.443,-1.569 22.56,-4.634 33.931,-4.634 6.495,0 12.745,1 18.298,3.848 20.645,10.579 6.825,36.404 -25.955,36.404"
           style="fill:#0994dc;fill-opacity:1;fill-rule:nonzero;stroke:none"
           id="path22"
           inkscape:connector-curvature="0" /></g><path
         inkscape:connector-curvature="0"
         id="path24"
         style="fill:#fab20b;fill-opacity:1;fill-rule:nonzero;stroke:none"
         d="m 153.517,258.059 c -4.504,-5.575 -7.02,-3.985 -11.08,-7.165 2.962,-0.164 3.838,0.44 4.935,0.22 0,0 -2.246,-1.863 -9.536,-2.791 -10.181,-1.302 -24.051,-5.995 -36.915,-11.547 0,0 -1.062,-0.424 -1.557,-0.39 -1.219,0.085 -0.986,0.459 -0.848,0.647 0.409,0.371 1.185,0.827 1.185,0.827 7.755,4.582 20.133,10.916 29.03,14.477 8.631,3.557 11.034,2.935 14.416,5.071 -0.872,-0.495 -2.403,-2.136 -5.418,-3.717 6.243,2.736 12.436,1.914 15.788,4.368" /><path
         inkscape:connector-curvature="0"
         id="path26"
         style="fill:#b8bbbc;fill-opacity:1;fill-rule:nonzero;stroke:none"
         d="m 93.081,190.866 c -0.134,0.003 -0.266,0.004 -0.399,0.004 l 0,1.46 c 0.132,0.043 0.266,0.088 0.399,0.132 l 0,-1.596 z m 95.1,20.633 c 0,0.293 0.237,0.528 0.529,0.528 0.291,0 0.528,-0.235 0.528,-0.528 l 0,-3.797 -1.057,0 0,3.797 z m 1.388,0.017 c 0,0.289 0.238,0.527 0.527,0.527 0.293,0 0.53,-0.238 0.53,-0.527 l 0,-3.8 -1.057,0 0,3.8 z m 1.389,0 c 0,0.289 0.237,0.527 0.531,0.527 0.288,0 0.525,-0.238 0.525,-0.527 l 0,-3.8 -1.056,0 0,3.8 z m -46.582,-29.364 c -2.434,0.154 -5.187,0.531 -7.994,0.612 -1.067,0.073 -5.273,0.128 -5.273,0.128 -3.5,0 -7.014,-0.36 -10.488,-0.697 -7.37,-0.114 -15.007,0.035 -23.084,-0.078 l 0,0.035 -1.623,-0.035 0.077,0.035 c -3.021,-0.222 -6.088,0.154 -9.334,0.5 -6.6,0.552 -12.76,0.439 -19.399,-0.61 0.072,0.454 0.777,0.223 1.106,0.454 0.779,0.101 1.568,0.183 2.358,0.261 l 0,2.482 1.31,0 0,-2.366 c 0.48,0.039 0.959,0.073 1.442,0.106 l 0,2.576 1.309,0 0,-2.501 c 0.132,0.008 0.265,0.011 0.398,0.017 l 0,2.484 1.309,0 0,-2.43 c 3.373,0.102 6.765,0.014 10.067,-0.246 l 0,1.956 1.309,0 0,-2.069 c 1.161,-0.107 2.312,-0.229 3.44,-0.379 l 0,2.528 1.311,0 0,-2.528 c 0.132,0.003 0.265,0.003 0.398,0.003 l 0,2.525 1.309,0 0,-2.516 c 0.625,0.003 1.251,0.005 1.881,0.008 l 0,2.508 1.309,0 0,-2.504 c 1.013,0.006 2.028,0.008 3.055,0.013 l 0,3.613 1.311,0 0,-3.61 0.397,0 0,3.61 1.309,0 0,-3.605 0.89,0 0,3.605 1.31,0 0,-3.601 c 0.133,0 0.265,0.001 0.401,0.001 l 0,3.6 1.304,0 0,-3.597 0.895,0 0,3.597 1.309,0 0,-3.593 0.399,0 0,3.593 1.309,0 0,-3.59 c 0.88,0.002 1.757,0.004 2.631,0.007 l 0,2.461 0.138,0 0,0.025 0.881,0 0,-0.025 0.291,0 0,-2.456 c 0.73,0.003 1.449,0.005 2.168,0.009 l 0,2.447 1.312,0 0,-2.441 c 0.134,0.002 0.262,0.002 0.395,0.003 l 0,2.438 1.313,0 0,-2.428 c 0.56,0.001 1.128,0.005 1.68,0.009 0.58,0.078 1.131,0.115 1.131,0.115 l 0,2.224 1.31,0 0,-2.07 c 3.281,0.307 6.653,0.374 9.899,0.284 l 0,2.506 1.311,0 0,-2.549 c 0.132,-0.007 0.267,-0.008 0.399,-0.015 l 0,2.564 1.312,0 0,-2.582 c 0,0 0.692,-0.087 1.44,-0.139 l 0,2.405 1.31,0 0,-2.511 c 1.423,-0.119 2.798,-0.255 4.071,-0.411 l -0.019,-0.165 z m -5.362,-1.386 1.31,0 0,-1.623 -1.31,0 0,1.623 z m -2.75,0.314 1.31,0 0,-1.677 -1.31,0 0,1.677 z m -1.711,0 1.31,0 0,-1.677 -1.31,0 0,1.677 z m -47.996,-0.992 1.31,0 0,-2.146 -1.31,0 0,2.146 z m -4.034,-1.232 1.31,0 0,-2.145 -1.31,0 0,2.145 z m -7.342,2.224 1.309,0 0,-1.677 -1.309,0 0,1.677 z m 0,-1.975 1.309,0 0,-1.678 -1.309,0 0,1.678 z m -1.706,1.975 1.309,0 0,-1.677 -1.309,0 0,1.677 z m 0,-1.975 1.309,0 0,-1.678 -1.309,0 0,1.678 z m -2.753,1.661 1.31,0 0,-1.623 -1.31,0 0,1.623 z m 0,-1.912 1.31,0 0,-1.623 -1.31,0 0,1.623 z m 0,-8.556 1.31,0 0,-1.786 -1.31,0 0,1.786 z m 0,2.107 1.31,0 0,-1.787 -1.31,0 0,1.787 z m 2.752,-2.083 1.308,0 0,-1.787 -1.308,0 0,1.787 z m 0,2.103 1.308,0 0,-1.787 -1.308,0 0,1.787 z m 1.707,-2.103 1.309,0 0,-1.787 -1.309,0 0,1.787 z m 0,2.103 1.309,0 0,-1.787 -1.309,0 0,1.787 z m 21.088,-2.494 1.313,0 0,-3.491 -1.313,0 0,3.491 z m 0,2.128 1.313,0 0,-1.709 -1.313,0 0,1.709 z m 2.743,-5.856 c 0.448,0.351 0.985,0.478 1.557,0.512 l 0,3.216 1.311,0 0,-3.237 c 0.13,-0.009 0.265,-0.013 0.397,-0.018 l 0,3.255 1.309,0 0,-3.489 -0.295,0 0,-0.016 c -0.565,-0.036 -1.155,0.003 -1.735,0.016 l -0.54,0 c -0.548,-0.013 -1.081,-0.076 -1.566,-0.281 -0.365,-0.261 -0.808,-0.525 -1.288,-0.637 -0.034,0.449 0.553,0.417 0.85,0.679 z m 1.557,5.856 1.309,0 0,-1.709 -1.309,0 0,1.709 z m 1.708,0 1.309,0 0,-1.709 -1.309,0 0,1.709 z m 2.199,-2.128 1.31,0 0,-3.491 -1.31,0 0,3.491 z m 0,2.128 1.31,0 0,-1.709 -1.31,0 0,1.709 z m 1.711,-2.128 1.306,0 0,-3.491 -1.306,0 0,3.491 z m 0,2.128 1.306,0 0,-1.709 -1.306,0 0,1.709 z m -23.664,15.761 1.31,0 0,-2.143 -1.31,0 0,2.143 z m 4.034,0.55 1.31,0 0,-2.143 -1.31,0 0,2.143 z m 4.749,-1.232 1.31,0 0,-1.788 -1.31,0 0,1.788 z m 1.709,0 1.309,0 0,-1.788 -1.309,0 0,1.788 z m 3.19,0 1.31,0 0,-1.788 -1.31,0 0,1.788 z m 5.675,1.12 0,-1.785 -1.311,0 c 0,1.602 1.311,1.785 1.311,1.785 z m 0.397,0 c 0,0 1.309,-0.183 1.309,-1.785 l -1.309,0 0,1.785 z m 3.509,0 0,-1.785 -1.31,0 c 0,1.602 1.31,1.785 1.31,1.785 z m 0.401,0 c 0,0 1.304,-0.183 1.304,-1.785 l -1.304,0 0,1.785 z m 3.508,0 0,-1.785 -1.309,0 c 0,1.602 1.309,1.785 1.309,1.785 z m 0.399,0 c 0,0 1.309,-0.183 1.309,-1.785 l -1.309,0 0,1.785 z m 3.94,-1.12 1.309,0 0,-1.788 -1.309,0 0,1.788 z m 3.478,0 1.312,0 0,-1.788 -1.312,0 0,1.788 z m 1.707,0 1.313,0 0,-1.788 -1.313,0 0,1.788 z m 4.124,1.232 1.309,0 0,-2.143 -1.309,0 0,2.143 z m 4.031,-0.55 1.309,0 0,-2.143 -1.309,0 0,2.143 z m 7.178,-0.045 1.31,0 0,-1.785 -1.31,0 0,1.785 z m 0,2.105 1.31,0 0,-1.787 -1.31,0 0,1.787 z m 1.71,-2.105 1.31,0 0,-1.785 -1.31,0 0,1.785 z m 0,2.105 1.31,0 0,-1.787 -1.31,0 0,1.787 z m 2.752,-2.418 1.31,0 0,-1.786 -1.31,0 0,1.786 z m 0,2.106 1.31,0 0,-1.789 -1.31,0 0,1.789 z m 42.428,-11.467 1.311,0 0,-1.488 -1.311,0 0,1.488 z m 1.705,0 1.312,0 0,-1.488 -1.312,0 0,1.488 z m 0,1.847 1.312,0 0,-1.486 -1.312,0 0,1.486 z m 9.598,-0.955 1.311,0 0,-1.788 -1.311,0 0,1.788 z m 1.711,0 1.308,0 0,-1.788 -1.308,0 0,1.788 z m 2.98,-0.244 1.311,0 0,-1.786 -1.311,0 0,1.786 z m 1.708,0 1.311,0 0,-1.786 -1.311,0 0,1.786 z m -90.758,-6.69 1.31,0 0,-1.709 -1.31,0 0,1.709 z m 1.708,0 1.31,0 0,-1.709 -1.31,0 0,1.709 z m 24.458,-1.737 1.31,0 0,-1.787 -1.31,0 0,1.787 z m 1.71,0 1.31,0 0,-1.787 -1.31,0 0,1.787 z m 2.752,-0.024 1.31,0 0,-1.786 -1.31,0 0,1.786 z m 42.428,-1.22 1.311,0 0,-1.487 -1.311,0 0,1.487 z m 0,1.851 1.311,0 0,-1.489 -1.311,0 0,1.489 z m 1.705,-1.851 1.312,0 0,-1.487 -1.312,0 0,1.487 z m 0,1.851 1.312,0 0,-1.489 -1.312,0 0,1.489 z m 9.598,-0.91 1.311,0 0,-1.788 -1.311,0 0,1.788 z m 1.711,0 1.308,0 0,-1.788 -1.308,0 0,1.788 z m 2.98,0 1.311,0 0,-1.788 -1.311,0 0,1.788 z m 1.708,0 1.311,0 0,-1.788 -1.311,0 0,1.788 z M 43.539,164.61 c -0.004,-0.007 -0.004,-0.017 -0.01,-0.021 -0.03,-0.056 -0.079,-0.101 -0.149,-0.101 l -6.012,0 c -0.096,0 -0.177,0.08 -0.177,0.179 0,0.097 0.081,0.179 0.177,0.179 l 6.012,0 c 0.06,0 0.105,-0.03 0.138,-0.073 l 0.027,0 c 0.009,-0.033 -0.005,-0.037 -0.002,-0.058 0.004,-0.019 0.019,-0.029 0.019,-0.048 0,-0.022 -0.016,-0.037 -0.023,-0.057 z m -4.394,3.194 1.309,0.712 0,-2.58 -1.309,-0.712 0,2.58 z m 2.382,1.036 1.31,0.708 0,-2.579 -1.31,-0.713 0,2.584 z m -10.717,1.764 1.309,0 0,-1.488 -1.309,0 0,1.488 z m 0,-1.849 1.309,0 0,-1.489 -1.309,0 0,1.489 z m -1.71,1.849 1.31,0 0,-1.488 -1.31,0 0,1.488 z m 0,-1.849 1.31,0 0,-1.489 -1.31,0 0,1.489 z m -4.998,1.283 1.312,0 0,-2.146 -1.312,0 0,2.146 z m 39.307,9.666 1.31,0 0,-1.499 -1.31,0 0,1.499 z m 0,-1.765 1.31,0 0,-1.5 -1.31,0 0,1.5 z m -1.707,1.765 1.308,0 0,-1.499 -1.308,0 0,1.499 z m 0,-1.765 1.308,0 0,-1.5 -1.308,0 0,1.5 z m -2.9,1.765 1.31,0 0,-1.499 -1.31,0 0,1.499 z m 0,-1.765 1.31,0 0,-1.5 -1.31,0 0,1.5 z m -1.708,1.765 1.312,0 0,-1.499 -1.312,0 0,1.499 z m 0,-1.765 1.312,0 0,-1.5 -1.312,0 0,1.5 z m -26.284,2.007 1.309,0 0,-1.488 -1.309,0 0,1.488 z m 0,-1.849 1.309,0 0,-1.487 -1.309,0 0,1.487 z m -1.71,1.849 1.31,0 0,-1.488 -1.31,0 0,1.488 z m 0,-1.849 1.31,0 0,-1.487 -1.31,0 0,1.487 z m -4.998,0.289 1.312,0 0,-2.145 -1.312,0 0,2.145 z m 39.307,7.347 1.31,0 0,-1.553 -1.31,0 0,1.553 z m -1.707,0 1.308,0 0,-1.553 -1.308,0 0,1.553 z m -2.9,0 1.31,0 0,-1.553 -1.31,0 0,1.553 z m -1.708,0 1.312,0 0,-1.553 -1.312,0 0,1.553 z m -2.896,0 1.31,0 0,-1.553 -1.31,0 0,1.553 z m -1.707,0 1.309,0 0,-1.553 -1.309,0 0,1.553 z m -2.901,0 1.311,0 0,-1.553 -1.311,0 0,1.553 z m -1.704,0 1.311,0 0,-1.553 -1.311,0 0,1.553 z m -17.076,0.59 1.309,0 0,-1.488 -1.309,0 0,1.488 z m -1.71,0 1.31,0 0,-1.488 -1.31,0 0,1.488 z m 19.67,3.495 1.132,0 0,-1.708 -1.132,0 0,1.708 z m -13.173,6.652 1.13,0 0,-1.708 -1.13,0 0,1.708 z m 0,-2.88 1.13,0 0,-1.71 -1.13,0 0,1.71 z m 0,-2.881 1.13,0 0,-1.71 -1.13,0 0,1.71 z m -4.787,0.155 1.309,0 0,-1.485 -1.309,0 0,1.485 z m -1.71,0 1.31,0 0,-1.485 -1.31,0 0,1.485 z m -1.996,9.424 -1.024,1.02 2.049,0 -1.025,-1.02 z m -0.94,-2.663 0.977,1.16 0.963,-1.116 -0.935,-1.221 -1.005,1.177 z m -0.083,-3.977 1.024,1.023 1.024,-1.023 -2.048,0 z m -0.223,14.054 -1.053,0 0,5.365 c 0,0.29 0.235,0.524 0.527,0.524 0.289,0 0.526,-0.234 0.526,-0.524 l 0,-5.365 z m -1.388,0 -1.054,0 0,5.29 c 0,0.289 0.236,0.522 0.528,0.522 0.292,0 0.526,-0.233 0.526,-0.522 l 0,-5.29 z m 1.72,5.365 c 0,0.29 0.237,0.524 0.527,0.524 0.293,0 0.529,-0.234 0.529,-0.524 l 0,-5.365 -1.056,0 0,5.365 z m -9.183,-14.566 0,1.447 1.446,0 -1.446,-1.447 z m -0.236,-7.668 1.509,0 0,-1.628 -1.509,0 0,1.628 z m 30.474,5.999 c 0,0.214 0.175,0.388 0.386,0.388 0.216,0 0.387,-0.174 0.387,-0.388 l 0,-1.836 -0.773,0 0,1.836 z m 71.974,1.801 1.313,0 0,-2.584 -1.313,0 0,2.584 z m 0,-3.995 1.313,0 0,-1.787 -1.313,0 0,1.787 z m -1.707,3.995 1.312,0 0,-2.584 -1.312,0 0,2.584 z m 0,-3.995 1.312,0 0,-1.787 -1.312,0 0,1.787 z m -5.924,17.223 c -0.362,0 -0.661,0.297 -0.661,0.662 l 1.324,0 c 0,-0.365 -0.295,-0.662 -0.663,-0.662 z m -3.093,-20.078 -1.971,0 0,3.41 c 0,0.543 0.442,0.984 0.985,0.984 0.545,0 0.986,-0.441 0.986,-0.984 l 0,-3.41 z m -2.238,20.73 -0.175,0.188 c -0.008,0.004 -0.013,0.011 -0.021,0.013 l 0,0.009 -0.069,0.078 0,2.838 c 0,0.26 0.21,0.472 0.47,0.472 0.26,0 0.473,-0.212 0.473,-0.472 l 0,-3.866 -0.445,0.486 c -0.106,0.025 -0.169,0.141 -0.233,0.254 z m -0.713,0.288 -0.942,-1.028 0,3.866 c 0,0.26 0.211,0.472 0.469,0.472 0.261,0 0.473,-0.212 0.473,-0.472 l 0,-2.838 z m -6.33,-3.73 c 0.364,0 0.663,-0.296 0.663,-0.66 0,-0.366 -0.299,-0.661 -0.663,-0.661 -0.366,0 -0.663,0.295 -0.663,0.661 0,0.364 0.297,0.66 0.663,0.66 z m -0.535,3.112 0,0.005 0.131,-0.005 1.067,0 c 0,-0.365 -0.299,-0.662 -0.663,-0.662 -0.137,0 -0.259,0.051 -0.365,0.124 -0.029,0.018 -0.065,0.029 -0.093,0.05 l -0.004,0.015 c -0.122,0.121 -0.201,0.287 -0.201,0.473 l 0.128,0 z m -12.206,-9.556 0,2.828 1.415,-1.415 -1.415,-1.413 z m -0.161,6.55 1.449,0 -1.449,-1.447 0,1.447 z m -1.198,-2.771 -0.302,0.301 c -0.035,0.033 -0.071,0.066 -0.105,0.105 l -1.041,1.041 1.448,0 0,-1.447 z m -3.347,8.293 c -0.365,0 -0.662,0.298 -0.662,0.662 l 1.323,0 c 0,-0.364 -0.298,-0.662 -0.661,-0.662 z m 0,-3.771 c -0.365,0 -0.662,0.296 -0.662,0.663 0,0.364 0.297,0.662 0.662,0.662 0.363,0 0.661,-0.298 0.661,-0.662 0,-0.367 -0.298,-0.663 -0.661,-0.663 z m -5.602,-8.501 1.312,0 0,-1.788 -1.312,0 0,1.788 z m -1.705,0 1.311,0 0,-1.788 -1.311,0 0,1.788 z m -6.037,-0.489 0,2.827 1.411,-1.413 -1.411,-1.414 z m 0.004,-4.072 -0.005,0.859 -0.034,0.683 1.489,-1.542 -1.45,0 m -0.096,11.426 c 0.002,0.003 0.005,0.003 0.007,0.005 l 0,0.134 1.451,0 -1.451,-1.446 0,0.563 c -0.061,0.211 0.019,0.509 -0.007,0.744 z m 10.926,2.517 -0.942,0 0,4.101 c 0,0.26 0.209,0.473 0.472,0.473 0.261,0 0.47,-0.213 0.47,-0.473 l 0,-4.101 z m -1.396,0 -0.941,0 0,4.076 c 0,0.26 0.211,0.473 0.47,0.473 0.261,0 0.471,-0.213 0.471,-0.473 l 0,-4.076 z m 52.076,1.815 c 0,-0.367 -0.298,-0.662 -0.658,-0.662 -0.169,0 -0.323,0.068 -0.44,0.172 -0.083,0.045 -0.153,0.119 -0.214,0.223 0,0.04 0.011,0.065 0.021,0.09 -0.015,0.058 -0.034,0.116 -0.034,0.177 l 1.325,0 z m 1.277,0 c 0.04,0.003 0.078,0.002 0.119,0 l 0.617,0 c 0,-0.367 -0.292,-0.662 -0.66,-0.662 -0.367,0 -0.661,0.295 -0.661,0.662 l 0.585,0 z m 0.417,2.438 -0.939,0.096 0,0.616 c 0,0.259 0.21,0.472 0.473,0.472 0.256,0 0.466,-0.213 0.466,-0.472 l 0,-0.712 z m 5.672,-20.445 1.315,0 0,-1.788 -1.315,0 0,1.788 z m 0,4.589 1.315,0 0,-2.582 -1.315,0 0,2.582 z m 0,2.222 1.315,0 0,-1.789 -1.315,0 0,1.789 z m 1.711,-6.811 1.31,0 0,-1.788 -1.31,0 0,1.788 z m 0,4.589 1.31,0 0,-2.582 -1.31,0 0,2.582 z m 0,2.222 1.31,0 0,-1.789 -1.31,0 0,1.789 z m 3.465,0.974 0,-2.826 -1.413,1.413 1.413,1.413 z m 0.085,-6.538 -1.45,0 1.45,1.449 0,-1.449 z m 8.518,-7.046 1.128,0 0,-1.708 -1.128,0 0,1.708 z m 9.196,0 1.128,0 0,-1.708 -1.128,0 0,1.708 z m 9.16,0 1.126,0 0,-1.708 -1.126,0 0,1.708 z m 23.307,0.663 1.311,0 0,-1.786 -1.311,0 0,1.786 z m 0,2.107 1.311,0 0,-1.788 -1.311,0 0,1.788 z m 1.711,-2.107 1.308,0 0,-1.786 -1.308,0 0,1.786 z m 0,2.107 1.308,0 0,-1.788 -1.308,0 0,1.788 z m 2.98,-2.107 1.311,0 0,-1.786 -1.311,0 0,1.786 z m 0,2.107 1.311,0 0,-1.788 -1.311,0 0,1.788 z m 1.708,-2.107 1.311,0 0,-1.786 -1.311,0 0,1.786 z m 0,2.107 1.311,0 0,-1.788 -1.311,0 0,1.788 z m -53.302,-7.091 1.31,0 0,-1.466 -1.31,0 0,1.466 z m 1.711,0 1.305,0 0,-1.466 -1.305,0 0,1.466 z m 2.873,0 1.306,0 0,-1.466 -1.306,0 0,1.466 z m 1.705,0 1.31,0 0,-1.466 -1.31,0 0,1.466 z m 2.873,0 1.311,0 0,-1.466 -1.311,0 0,1.466 z m 1.708,0 1.31,0 0,-1.466 -1.31,0 0,1.466 z m 2.875,0 1.309,0 0,-1.466 -1.309,0 0,1.466 z m 1.705,0 1.309,0 0,-1.466 -1.309,0 0,1.466 z m 2.874,0 1.307,0 0,-1.466 -1.307,0 0,1.466 z m 1.708,0 1.31,0 0,-1.466 -1.31,0 0,1.466 z m 26.871,0.711 1.311,0 0,-1.786 -1.311,0 0,1.786 z m 1.711,0 1.308,0 0,-1.786 -1.308,0 0,1.786 z m 2.98,-0.344 1.311,0 0,-1.786 -1.311,0 0,1.786 z m 1.708,0 1.311,0 0,-1.786 -1.311,0 0,1.786 z m -107.77,6.035 c -0.811,-0.267 -1.616,-0.529 -2.414,-0.788 0.958,-0.124 1.839,-0.193 2.414,-0.222 l 0,1.01 z m -23.28,5.157 c 0.143,0.02 0.282,0.033 0.427,0.06 1.618,0.289 3.624,0.788 5.939,1.424 l 0,1.576 1.31,0 0,-1.212 c 0.135,0.039 0.257,0.071 0.395,0.11 l 0,1.102 1.312,0 0,-0.726 c 1.883,0.545 3.923,1.152 6.136,1.811 3.417,1.018 7.22,2.147 11.287,3.293 -1.164,2.148 -2.394,4.115 -3.557,6.265 l 0.039,0.035 -0.153,0 c -0.884,-1.502 -1.659,-3.125 -2.726,-4.513 -0.072,1.09 -0.037,2.327 -0.037,3.385 -0.846,-0.037 -2.364,-0.037 -2.364,-0.037 l 0.059,-5.639 -0.528,0 c 0,0 -0.042,2.573 -0.042,4.244 l -2.363,-0.036 0.007,0.236 c 0.735,0 1.47,-0.012 2.319,0.027 0,0.114 0,0.34 -0.072,0.49 -0.263,0.715 -0.925,1.242 -1.662,1.315 0,0.478 0.01,0.824 0.01,1.239 -0.034,0.114 -0.156,0.342 -0.34,0.268 0,-0.57 -0.043,-1.014 -0.043,-1.507 -0.108,-0.116 -0.291,-0.039 -0.321,0.112 l 0,5.121 c 0.102,0.074 0.251,0 0.321,0.108 0.076,0.304 -0.317,0.23 -0.509,0.418 -0.193,0.188 -0.343,1.281 -1.722,1.281 -0.81,0 -1.217,-0.592 -1.217,-0.592 0,0 -0.013,1.378 -0.017,1.568 0,0.006 -0.003,0.013 -0.003,0.018 -1.138,-0.562 -2.323,-1.185 -3.534,-1.875 l 0,-4.616 c -0.035,-0.187 -0.41,-0.301 -0.257,-0.606 l 2.983,0.025 c 0.33,0 0.156,-0.206 0.182,-0.321 l -3.055,0 c -0.037,-0.492 -0.047,-0.805 -0.047,-1.274 -0.148,0.149 -0.175,0.292 -0.322,0.517 -0.457,-0.757 -0.716,-1.35 -0.97,-1.956 -0.194,-0.319 0.489,-0.075 0.639,-0.186 0,-0.264 -0.336,-0.068 -0.411,-0.186 -0.213,-0.713 -0.418,-1.605 -0.589,-2.145 l -0.07,0 c -0.115,0.535 -0.218,0.934 -0.404,1.574 l -0.065,0 c -0.191,-0.91 -0.395,-1.646 -0.64,-2.589 l -2.213,0 -0.11,0.111 0,4.981 0.186,0 c 0,0 -0.825,1.328 -1.05,1.328 -0.228,0 -1.076,-0.007 -1.309,-0.007 -0.234,0 -1.142,-1.321 -1.142,-1.321 l 0.288,0 c -0.027,-4.423 0.082,-9.052 0.025,-12.698 z m 123.965,-16.405 c 0,0 -2.025,0.108 -2.908,0 0,0 -2.277,-0.009 -4.818,-0.171 -0.416,-0.027 -0.834,-0.064 -1.25,-0.104 -0.119,-0.181 -0.249,-0.357 -0.375,-0.534 l 0,-1.357 -1.067,0 c -1.38,-1.586 -3.103,-3.024 -5.154,-4.27 l 3.81,0 c 0.375,0.022 0.766,0.027 1.145,0.048 l 0,1.988 1.313,0 0,-1.933 c 0.129,0.005 0.262,0.01 0.392,0.017 l 0,1.916 1.313,0 0,-1.862 c 2.743,0.086 5.516,0.099 8.285,0.031 l 0,2.351 1.312,0 0,-2.394 c 0.135,-0.004 0.265,-0.009 0.399,-0.013 l 0,2.407 1.309,0 0,-2.452 c 0.56,-0.024 1.117,-0.041 1.671,-0.073 l 0,2.281 1.312,0 0,-2.377 c 0.135,-0.009 0.265,-0.02 0.396,-0.029 l 0,2.406 1.312,0 0,-2.502 c 0.666,-0.053 1.35,-0.085 2.002,-0.146 l 0,6.357 c -1.614,0.11 -2.834,0.187 -4.526,0.3 0,0 -3.945,0.186 -5.873,0.115 z m -59.58,34.023 -0.504,1.371 c 0,0.017 0.002,0.024 0.002,0.04 l 0,0.689 c 0,0.259 0.21,0.472 0.473,0.472 0.259,0 0.472,-0.213 0.472,-0.472 l 0,-0.336 c 0.027,-1.265 0.039,-3.062 0.044,-3.997 0.101,0.011 0.201,0.022 0.302,0.034 l 0,4.299 c 0,0.259 0.21,0.472 0.47,0.472 0.262,0 0.474,-0.213 0.474,-0.472 l 0,-4.191 c 0.168,0.019 0.334,0.04 0.502,0.057 l 0,4.78 0.333,0.224 c 0.151,0.374 -0.365,0.191 -0.365,0.524 0.106,0.794 -0.797,1.863 -1.649,2.315 0,0.509 0.007,0.82 -0.016,1.299 l -0.215,0.147 0,3.69 -0.147,0.074 c -0.19,-0.109 -0.113,-0.228 -0.075,-0.373 l -0.038,-3.312 c -0.092,-0.106 -0.26,-0.271 -0.26,-0.271 0,0 -0.03,-0.943 0,-1.289 -0.59,-0.258 -1.11,-0.549 -1.475,-1.073 -0.477,-0.492 -0.038,-1.321 -0.778,-1.586 -0.032,-0.112 0,-0.18 0.038,-0.258 0.138,-0.052 0.253,-0.252 0.253,-0.252 l 0.026,-1.014 -0.936,0.097 c -0.518,-0.6 -0.984,-1.358 -1.354,-1.884 1.026,0.119 2.936,0.32 2.936,0.32 0,0 0.716,-0.099 1.487,-0.124 z M 44.981,169.011 c -0.635,1.016 -1.278,2.121 -1.909,3.325 -1.589,-0.014 -3.245,0.108 -4.853,0.16 -1.192,0.038 -4.344,-0.027 -4.784,0 -6.979,0.411 -13.241,0.229 -20.284,-0.164 l -0.066,-7.523 7.853,0 8.162,0.047 0,2.046 1.309,0 0,-2.039 0.4,0.002 0,2.037 1.31,0 0,-2.029 1.354,0.008 0.182,-0.146 c 0.042,-0.155 -0.108,-0.195 -0.182,-0.306 l -20.322,-0.037 c -0.025,-0.231 0.041,-0.878 -0.066,-1.071 l 6.484,0.038 14.368,0 0.039,0.452 c -0.021,0.042 -0.052,0.078 -0.052,0.128 l 0,3.093 c 0,1.155 1.039,1.681 2.004,1.681 0.6,0 0.924,-0.187 0.959,-0.207 0.143,-0.09 0.187,-0.276 0.1,-0.418 -0.087,-0.144 -0.275,-0.188 -0.416,-0.1 0,0 -0.218,0.118 -0.643,0.118 0,0 -0.033,-0.001 -0.08,-0.004 -0.222,-0.014 -0.854,-0.104 -1.155,-0.54 l -0.071,-3.769 10.374,0 c -0.003,0.013 -0.015,0.02 -0.015,0.034 l 0,5.184 z m 50.09,35.531 c 0.803,0.226 1.603,0.451 2.426,0.678 l 0.007,0.305 c 0,0 -2.25,0.08 -2.399,0.032 l -0.034,-1.015 z M 29.1,182.621 l 0,1.853 1.309,0 0,-1.915 c 0.099,-0.004 0.242,-0.011 0.4,-0.019 l 0,1.934 1.31,0 0,-2.01 1.323,-0.084 c 1.621,-0.228 3.321,0.152 5.196,0.116 0,0 0.167,-0.02 0.502,-0.094 -0.316,1.17 -0.606,2.372 -0.844,3.628 -0.18,0 -0.357,-0.001 -0.538,-0.001 l 0,0.079 -0.108,-0.11 c -2.953,0.294 -6.462,0.712 -9.594,0.863 0,0 -1.513,0.047 -2.28,0.051 -4.245,0.014 -8.338,-0.067 -12.625,-0.767 -0.066,-0.826 0,-1.958 0.041,-3.201 -0.066,-0.227 -0.407,-0.448 -0.367,-0.679 5.585,0.647 10.925,0.633 16.275,0.356 z m 116.242,-18.192 8.193,0.072 0,4.047 -1.579,0 c -0.1,0 -0.185,0.08 -0.185,0.18 0,0.097 0.085,0.178 0.185,0.178 l 1.571,0 0.008,0.001 0,0.327 c -2.722,0.08 -5.457,0.307 -8.193,0.635 l 0,-5.44 z m 56.494,17.206 c -0.48,0.068 -3.647,0.288 -4.746,0.326 -2.846,0.096 -5.984,0.191 -8.641,0.191 -1.429,0.032 -2.933,-0.05 -4.454,-0.167 -0.191,-0.38 -0.398,-0.753 -0.62,-1.122 6.356,0.409 12.935,0.26 19.246,-0.327 l 0.065,0.223 c -0.407,0.343 0,1.134 -0.85,0.876 z m -46.249,-12.447 c -0.453,0 -0.909,0.021 -1.363,0.03 -0.065,-0.637 -0.017,-1.371 -0.017,-2.176 l 0,-0.784 c -0.042,-0.634 0.02,-0.926 0.057,-1.718 l 7.604,0 0,4.008 -1.548,0 c -0.1,0 -0.182,0.08 -0.182,0.18 0,0.097 0.082,0.178 0.182,0.178 l 1.548,0 0,0.495 c 0,0.003 0.003,0.005 0.003,0.009 l -1.23,0 c -1.62,-0.143 -3.298,-0.222 -5.054,-0.222 z m 46.839,-3.891 0.032,6.737 c 0,0 -5.18,0.498 -8.211,0.593 -1.568,0.048 -9.259,0.338 -14.02,0.035 0,0 -3.171,-0.072 -3.543,-0.078 -0.804,-0.009 -1.972,-0.016 -3.38,-0.023 -3.235,-1.46 -6.815,-2.434 -10.802,-2.942 -0.007,-0.074 -0.029,-0.138 -0.029,-0.218 l 0,-4.861 8.13,0 0,3.973 c -0.041,0.016 -0.091,0.023 -0.134,0.035 l -1.607,0 c -0.1,0 -0.174,0.08 -0.174,0.18 0,0.097 0.074,0.178 0.174,0.178 l 1.54,0 c 0.067,0.009 0.136,0.014 0.201,0.029 l 0,0.466 c 0,0.003 0.002,0.005 0.002,0.009 l -1.743,0 c -0.1,0 -0.174,0.078 -0.174,0.179 0,0.1 0.074,0.179 0.174,0.179 l 0.472,0 c 0.208,0.016 0.425,0.009 0.64,0 l 0.408,0 c 0.101,0.006 0.193,0.03 0.283,0.055 0.272,1.733 2.118,2.229 3.143,2.229 0.967,0 1.465,-0.288 1.521,-0.323 0.138,-0.087 0.185,-0.273 0.096,-0.416 -0.084,-0.142 -0.269,-0.184 -0.417,-0.098 0,0 -0.402,0.232 -1.2,0.232 -0.455,0 -1.113,-0.112 -1.652,-0.427 -0.356,-0.348 -0.66,-0.761 -0.891,-1.247 -0.077,-1.769 0.058,-3.352 0.058,-5.157 l 5.585,0 c 0,0 0.072,-0.412 0.072,-0.521 l 25.446,0 0.032,0.714 c -8.438,0 -16.843,0.15 -25.147,0 -0.228,0.072 -0.183,0.261 -0.07,0.451 l 4.201,0.006 0,1.964 1.313,0 0,-1.962 0.392,0 0,1.962 1.313,0 0,-1.96 8.285,0.012 0,2.513 1.312,0 0,-2.511 0.399,0 0,2.511 1.309,0 0,-2.508 1.671,0.002 0,2.506 1.312,0 0,-2.502 0.396,0 0,2.502 1.312,0 0,-2.5 1.97,0.002 z m -19.249,8.659 c 0,0 -4.118,-0.036 -5.281,-0.048 -0.503,-0.005 -1.167,-0.008 -1.953,-0.011 -0.382,-0.22 -0.766,-0.439 -1.169,-0.645 -0.188,-0.097 -0.385,-0.178 -0.574,-0.27 l 5.213,-0.011 c 7.82,0.416 15.639,0.274 23.045,-0.482 l 0,0.934 c -6.558,0.492 -12.569,0.833 -19.281,0.533 z M 29.1,187.234 l 0,1.781 1.309,0 0,-1.855 c 0.134,-0.01 0.267,-0.026 0.4,-0.036 l 0,1.891 1.31,0 0,-2.01 c 1.408,-0.132 2.818,-0.286 4.236,-0.485 0.475,-0.008 1.376,-0.01 1.855,-0.015 -0.48,2.677 -0.765,5.54 -0.765,8.587 0,1.282 0.061,2.516 0.175,3.704 -0.426,0.038 -1.018,0.106 -1.229,0.106 l 0,2.526 c -0.414,-0.178 -0.761,-0.302 -1.09,-0.381 l -0.051,-2.186 -1.508,-0.187 0,-0.939 c 1.173,0.265 1.899,0.169 3.156,0.134 l 0.114,-0.117 c 0.037,-0.15 -0.047,-0.227 -0.151,-0.263 -1.326,0.15 -1.873,-0.059 -3.09,-0.092 -0.022,-0.077 0,-0.242 0,-0.242 0,0 -1.047,0.024 -1.435,-0.005 -0.085,0.563 -0.055,1.112 -0.075,1.865 -0.356,0.092 -1.008,0.055 -1.008,0.055 0,0 -0.006,0.118 -0.01,0.198 0.345,0.065 0.8,-0.028 1.018,0.008 l -0.036,0.489 c -0.516,0.074 -1.145,0.04 -1.619,0.04 l -2.884,4.968 -0.035,9.75 0.188,0.336 c -0.517,0.337 -0.266,0.94 -0.406,1.431 -0.336,0.828 -1.07,1.354 -1.845,1.655 0.188,2.069 -0.515,3.381 -0.183,5.003 l -0.109,0.267 -0.223,-0.04 0,-2.937 c -0.41,-0.828 -0.081,-1.655 -0.261,-2.449 -0.557,-0.145 -1.108,-0.521 -1.48,-0.974 -0.588,-0.565 -0.064,-1.54 -0.803,-1.956 -0.037,-0.224 0.185,-0.193 0.292,-0.265 l 0.075,-9.183 c -0.922,-1.767 -1.805,-3.384 -2.77,-5.08 l -0.295,0.229 c -1.084,0 -2.32,-0.039 -3.464,-0.039 0,-1.954 -0.051,-5.981 -0.051,-6.051 -0.527,0 -1.332,-0.004 -1.477,-0.004 -0.109,0 0,0.389 -0.095,0.389 l -0.254,0.004 c -0.134,0 -0.06,0.806 -0.152,0.806 l -0.698,0 0,-0.816 c -0.164,0 -0.426,-0.014 -0.701,-0.014 -0.102,0 -0.159,-0.055 -0.159,-0.187 0,-0.268 0.009,-0.542 0.009,-0.826 l 0.814,0 c 0,0 0.076,-0.004 0.076,-0.088 -0.004,-0.078 -0.013,-0.13 -0.096,-0.13 -0.424,0 -0.468,-0.004 -0.468,-0.198 l 0,-2.822 c -0.14,-1.391 0.341,-2.711 -0.433,-3.951 5.475,0.73 10.908,0.923 16.382,0.601 z m 99.307,27.023 0,-2.393 c 1.252,0.176 2.508,0.337 3.767,0.485 l 0,1.982 c 0,0 -1.259,0.149 -1.215,0.149 l -2.552,-0.223 z m -17.889,-5.682 -0.054,-0.072 c 0.776,0.178 1.546,0.358 2.33,0.53 l -0.013,4.134 -2.263,0.037 0,-4.629 z M 98.183,172.974 c 7.546,-0.041 15.387,-0.035 22.073,-0.003 1.853,0.009 3.719,0.068 5.591,0.137 -1.524,0.267 -3.016,0.516 -4.48,0.737 -3.575,0.535 -7.108,0.807 -10.497,0.807 -4.929,0 -9.305,-0.591 -12.687,-1.678 z m 87.297,14.006 c 6.138,0.125 12.012,-0.022 17.946,-0.501 0.074,0.604 -0.667,0.869 -0.968,1.165 -0.229,0.141 -1.072,0.07 -1.165,0.1 -0.085,0.031 -0.115,0.304 -0.035,0.344 0.316,0 0.824,-0.028 1.281,-0.028 l 0.097,5.161 -1.38,0 c 0,0 -0.242,-0.035 -0.242,0.233 0,0.121 0.1,0.173 0.294,0.173 l 1.525,0.007 -0.766,0.9 c -0.611,0 -1.554,0.022 -1.554,0.022 l -0.705,-0.466 c 0,0 -0.596,0.331 -0.871,0.558 -0.236,0.189 -0.462,0.391 -0.714,0.564 l -5.639,10.199 c -0.592,0.415 0.106,1.205 -0.447,1.43 -1.58,0.342 -2.913,0.305 -4.391,-0.151 0.277,-0.733 0,-1.458 -0.418,-2.177 -0.42,-0.721 -2.178,-3.941 -3.925,-6.851 -0.151,0 -0.317,-0.004 -0.491,-0.008 1.041,-1.743 1.783,-3.524 2.208,-5.283 0.444,-1.84 0.552,-3.646 0.36,-5.391 z m 16.946,-5.05 0.113,4.068 -0.113,0.11 c -5.113,0.29 -11.826,0.686 -16.98,0.545 -0.194,-1.458 -0.613,-2.867 -1.233,-4.215 2.69,0.15 5.813,0.16 8.532,0.084 l 0,1.58 1.312,0 0,-1.622 c 0.135,-0.007 0.263,-0.015 0.399,-0.02 l 0,1.642 1.309,0 0,-1.702 c 0.562,-0.03 1.117,-0.06 1.671,-0.095 l 0,1.459 1.312,0 0,-1.545 c 0.13,-0.007 0.265,-0.015 0.396,-0.026 l 0,1.571 1.312,0 0,-1.673 c 0.663,-0.052 1.33,-0.105 1.97,-0.161 z m -101.788,25.702 -0.146,0 -0.041,5.159 c -0.769,0.033 -1.55,0.033 -2.36,0 l 0.036,-7.401 c 3.86,1.054 7.937,2.1 12.168,3.075 l -2.277,2.178 0,2.148 -0.044,0.033 c -0.18,-0.11 -0.289,-0.415 -0.475,-0.338 -0.04,1.544 0.038,2.938 -0.069,4.446 l -3.289,0 c 0,0 -0.008,-3.876 -0.008,-4.327 -0.221,-0.225 -0.434,0.337 -0.653,0.219 l 0.034,-2.143 c -0.958,-1.088 -1.917,-1.956 -2.876,-3.049 z M 37.58,182.091 c -1.166,-0.11 -2.391,-0.086 -3.624,-0.086 -3.571,0.214 -6.83,0.389 -10.223,0.434 -1.369,0.015 -4.009,-0.059 -5.648,-0.157 -1.699,-0.141 -3.182,-0.111 -4.934,-0.427 l 0.041,-0.98 c 7.194,0.793 14.092,0.565 21.318,0.152 0.631,-0.022 1.881,0.202 2.457,0.232 0.952,0.051 1.748,-0.007 2.518,-0.123 -0.085,0.285 -0.157,0.586 -0.238,0.876 -0.209,0.034 -0.413,0.068 -0.609,0.105 0.042,0 -0.786,0 -1.058,-0.026 z m -3.459,-1.39 c -0.417,0.013 -1.23,0.058 -1.23,0.058 -6.316,0.417 -13.5,0.458 -19.74,-0.26 0,0 0.01,-0.567 0.012,-1.372 0.014,-1.939 0.029,-5.248 0.029,-5.248 1.091,0.093 2.176,0.146 3.26,0.206 l -0.074,0 0,2.143 1.307,0 0,-2.065 c 3.828,0.173 7.623,0.165 11.415,0.079 l 0,2.006 1.309,0 0,-2.04 c 0.134,-0.003 0.267,-0.008 0.4,-0.011 l 0,2.051 1.31,0 0,-2.084 c 0.204,-0.006 0.407,-0.01 0.611,-0.016 0.803,-0.025 2.976,-0.079 3.401,-0.048 l 2.879,0.156 c 0,0 1.034,-0.071 2.142,-0.156 l 0.956,-0.034 c 0.036,-0.001 0.07,0 0.104,-0.001 -0.956,2.008 -1.85,4.238 -2.602,6.676 -0.12,0.027 -0.224,0.049 -0.284,0.057 -1.838,0.256 -3.481,-0.156 -5.205,-0.097 z m 4.94,-6.793 c -0.75,0 -1.494,-0.038 -2.247,-0.083 -0.79,-0.05 -3.503,-0.072 -4.061,-0.037 -3.608,0.193 -7.478,0.267 -10.969,0.201 l -2.689,-0.11 c -2.031,0 -3.945,-0.117 -5.944,-0.304 0,-0.379 -0.016,-0.6 -0.016,-0.865 l 5.405,0.15 c 6.673,0.487 12.95,-0.231 19.659,0 1.545,-0.063 3.112,-0.09 4.675,-0.124 -0.16,0.309 -0.316,0.628 -0.473,0.949 -0.294,0.013 -0.584,0.022 -0.883,0.039 -0.407,-0.037 -2.093,0.184 -2.457,0.184 z m 6.754,18.528 c 1.692,0.028 3.396,0.023 5.071,0.064 -0.237,0.859 -0.767,1.557 -1.471,2.013 -0.232,0.211 -0.566,0.381 -0.96,0.481 -0.015,0.006 -0.044,0.018 -0.044,0.018 0,0 -0.035,1.107 -0.035,1.923 0,0.234 -0.066,0.422 -0.122,0.509 -0.268,0.43 -0.474,0.451 -0.474,0.451 0,0 0.023,0.741 -0.142,0.741 -0.164,0 -0.116,-0.714 -0.116,-0.714 0,0 -0.23,-0.147 -0.363,-0.268 -0.136,-0.123 -0.282,-0.449 -0.341,-0.767 0,-0.802 0.023,-1.6 0.023,-1.883 -0.395,-0.093 -0.733,-0.253 -0.974,-0.459 -0.203,-0.136 -0.385,-0.288 -0.587,-0.455 -0.041,0.114 -0.145,0.114 -0.189,0.182 0,0 0,0.149 -0.011,0.376 -0.02,0.634 -0.057,1.845 -0.057,1.845 -0.307,0 -0.599,0.006 -0.893,0.008 -0.007,-0.27 -0.018,-0.538 -0.018,-0.813 0,-1.13 0.066,-2.226 0.184,-3.293 0.503,0.015 1.011,0.032 1.519,0.041 z m 13.92,-23.897 0.038,0.334 c -0.17,0.08 -0.375,0.083 -0.593,0.071 0.186,-0.137 0.371,-0.272 0.555,-0.405 z m -14.012,-2.229 0.041,-0.037 c 0,-0.07 -0.186,-0.07 -0.041,-0.07 l 0.041,-0.042 c -0.112,-0.637 0.17,-1.794 0.17,-2.324 l 2.755,0.02 c -0.858,1.033 -1.889,2.388 -2.972,4.02 0.011,-0.545 0.042,-1.089 0.006,-1.567 z m 141.655,40.795 c 1.548,0.342 3.508,0.564 5.089,0 0.153,0.111 0.185,0.227 0.222,0.342 0.022,0.123 -0.049,0.155 -0.127,0.186 -0.003,0.002 0.002,0.006 -0.003,0.01 -0.016,0.007 -0.05,0.018 -0.087,0.03 -0.03,0.016 -0.057,0.038 -0.073,0.071 l 0,6.13 0.368,0.194 c 0.188,0.412 -0.333,0.378 -0.553,0.638 0.113,0.6 -0.332,1.359 -0.778,1.808 -0.217,0.151 -0.509,0.265 -0.731,0.3 -0.119,0.063 -0.194,0.135 -0.239,0.217 0,0.27 -0.029,0.867 -0.029,1.182 -0.043,0.067 -0.103,0.212 -0.103,0.212 0,0 -0.039,0.961 -0.039,1.7 0.262,0.112 0.591,0 0.852,0.112 -0.189,0.339 -0.553,0 -0.852,0.265 -0.074,0.376 0.184,1.053 -0.22,1.165 l -0.041,-1.165 c -0.22,-0.265 -0.81,0.115 -0.883,-0.3 0.368,-0.077 0.663,0.116 0.924,-0.189 l -0.041,-1.583 c -0.106,-0.071 0.041,-0.299 -0.145,-0.262 l 0.039,-1.09 c -0.152,-0.078 -0.331,-0.375 -0.482,-0.264 -0.885,-0.3 -1.47,-1.164 -1.512,-2.108 -0.102,-0.3 -0.593,-0.071 -0.556,-0.568 -0.037,-0.223 0.262,-0.148 0.368,-0.296 l 0.041,-5.981 c -0.041,-0.382 -0.632,-0.305 -0.409,-0.756 z m -74.384,8.172 c 0,0 -0.031,0.379 -0.135,0.379 -0.109,0 -0.136,-0.202 -0.136,-0.381 0,-0.18 -0.007,-0.356 -0.269,-0.356 -0.263,0 -1.449,0.01 -1.614,0.01 -0.169,0 -0.244,0.221 -0.244,0.399 0,0.176 -0.073,0.315 -0.188,0.322 -0.116,0.006 -0.116,-0.359 -0.116,-0.359 l -0.021,-1.788 2.72,0 0.003,1.774 z m -13.749,-2.23 1.429,-0.023 c -0.058,0.901 -1.307,1.108 -1.256,2.09 0.034,0.07 -0.029,0.286 -0.135,0.335 l 0,0.002 -0.002,-0.001 -0.001,0.001 0,-0.002 c -0.108,-0.045 -0.177,-0.259 -0.146,-0.33 0.021,-0.984 -1.234,-1.151 -1.321,-2.05 l 1.429,-0.022 0.003,0 z m 6.462,4.255 c 0.006,0 0.012,0 0.019,0 0.635,0.005 1.27,0.005 1.914,0.005 0.074,0.258 -0.218,0.224 -0.333,0.37 0,0.683 -0.255,1.543 -0.994,1.885 -0.072,-0.033 -0.09,0.107 -0.13,0.147 l -0.02,3.765 c -0.17,0.216 -0.243,0.402 -0.273,0.582 l -0.06,0 0,0.777 0.516,0 0,0.247 -0.51,0 -0.006,0.525 -0.247,0 0,-0.525 -0.529,0 0,-0.247 0.529,0 0,-0.777 -0.06,0 c -0.031,-0.18 -0.103,-0.366 -0.273,-0.582 l -0.02,-3.765 c -0.04,-0.04 -0.059,-0.18 -0.13,-0.147 -0.739,-0.342 -0.994,-1.202 -0.994,-1.885 -0.115,-0.146 -0.407,-0.112 -0.333,-0.37 0.644,0 1.279,0 1.914,-0.005 0.006,0 0.013,0 0.02,0 z m -18.271,-5.985 c -0.446,-0.295 -1.033,-0.786 -1.437,-1.316 l 2.467,0 c -0.331,0.452 -0.624,0.868 -1.03,1.316 z M 20.121,200.973 c 0,0.173 0.008,0.345 0.008,0.516 0,0.186 -0.026,0.289 -0.1,0.289 l -0.773,0 c -0.099,0 -0.092,-0.192 -0.092,-0.508 -0.245,0 -0.394,-0.007 -0.469,-0.007 0,0.125 -0.01,0.276 -0.01,0.426 0,0.098 -0.137,0.132 -0.369,0.132 -0.213,0 -0.557,0.031 -0.634,-0.056 -0.075,-0.082 -0.042,-0.293 -0.042,-0.516 l -0.43,0 c -0.081,0.163 0.023,0.572 -0.123,0.572 -0.132,0 -0.918,0.141 -0.918,-0.195 0,-0.15 0.007,-0.446 0.007,-0.679 l 3.945,0.026 z m 77.526,4.965 c -0.548,0.527 -0.919,1.056 -1.32,1.654 -0.522,-0.486 -1.073,-1.127 -1.591,-1.765 l 2.911,0 0,0.111 z m -4.566,-27.35 0,1.236 1.309,0 0,-0.689 c 2.098,0.802 4.369,1.352 6.878,1.683 -3.789,-0.048 -8.162,-0.106 -12.245,0.17 l 0,0.039 c -7.197,0.641 -14.569,0.712 -21.654,-0.268 l -0.111,0.116 0.261,0.152 c 8.003,1.054 16.117,0.75 24.12,0.075 4.286,-0.029 8.779,-0.025 12.549,-0.007 0.998,0.06 2.026,0.096 3.104,0.096 1.125,0 2.304,-0.04 3.508,-0.099 3.527,0.038 7.438,0.11 11.412,0.125 7.195,0.935 14.939,0.713 22.049,-0.229 l 0,-0.148 c -4.205,0.43 -8.926,0.764 -13.117,0.689 -0.168,-0.002 -1.137,-0.033 -1.982,-0.066 -1.386,-0.05 -3.36,-0.127 -4.111,-0.174 l -0.118,-0.072 c -1.983,-0.285 -6.741,-0.352 -10.261,-0.389 5.355,-0.461 11.413,-1.321 18.333,-2.356 0.524,-0.078 1.033,-0.135 1.548,-0.202 l 0,0.767 1.31,0 0,-0.939 c 0.133,-0.016 0.269,-0.037 0.401,-0.052 l 0,0.991 1.31,0 0,-1.126 c 0.479,-0.049 0.966,-0.106 1.44,-0.148 l 0,1.023 1.31,0 0,-1.135 c 2.077,-0.156 4.094,-0.242 6.026,-0.242 7.886,0 13.243,1.245 16.845,2.729 l -18.635,0.061 c 0,0.075 -0.033,0.224 0.037,0.3 6.046,0.066 12.737,0.068 19.573,0.058 0.637,0.295 1.194,0.595 1.707,0.894 l -19.287,-0.049 c -0.55,0.038 -1.44,-0.037 -2.03,0.078 -0.033,0.111 0,0.188 0.112,0.259 l 1.17,0 0,1.937 1.31,0 0,-1.934 0.401,0 0,1.934 1.305,0 0,-1.932 1.568,0.002 0,1.93 1.305,0 0,-1.929 0.4,0 0,1.929 1.31,0 0,-1.926 1.563,0.001 0,1.925 1.311,0 0,-1.924 0.397,0 0,1.924 1.31,0 0,-1.922 1.565,0.002 0,1.92 1.309,0 0,-1.92 0.396,0 0,1.92 1.309,0 0,-1.916 1.565,0.001 0,1.915 1.308,0 0,-1.915 0.4,0.003 0,1.912 1.31,0 0,-1.396 c 0.653,0.462 1.163,0.897 1.565,1.285 l 0,0.111 0.118,0 c 0.111,0.111 0.201,0.209 0.296,0.31 l -0.369,0 0,1.466 1.31,0 0,-0.193 c 0.124,0.21 0.251,0.419 0.356,0.638 -9.065,-0.013 -17.093,-0.112 -26.673,-0.049 -0.115,0.069 -0.148,0.15 -0.115,0.26 8.7,0.178 17.67,0.106 26.948,0.112 0.92,2.159 0.866,4.744 -0.234,7.19 -0.149,0.332 -0.324,0.653 -0.504,0.971 -0.365,-0.527 -0.735,-1.057 -1.131,-1.612 l -0.139,0.15 0.032,0.075 c -0.255,0.717 -0.798,1.323 -1.477,1.654 -0.289,0.138 -0.593,0.227 -0.921,0.263 -0.812,-0.076 -0.147,1.092 -0.585,1.321 -0.368,-0.229 -0.042,-0.717 -0.15,-1.17 -0.387,-0.082 -0.762,-0.219 -1.118,-0.414 -0.614,-0.344 -1.146,-0.855 -1.497,-1.504 -0.08,-0.341 -0.295,-0.828 -0.373,-1.166 0,0 -11.72,0.041 -15.306,-0.08 l -0.107,0.121 c -0.185,0.375 -0.037,0.784 -0.297,0.975 -0.148,-0.494 -0.148,-0.903 -0.445,-1.279 l 0.075,-0.079 c -0.629,-1.163 -1.259,-2.595 -2.027,-3.763 -0.152,0.376 -0.111,0.602 -0.111,1.023 0.15,0.262 0.554,0.297 0.627,0.56 -1.245,0.237 -4.278,0.646 -6.648,0.8 -1.768,0.1 -3.52,0.225 -5.272,0.273 -0.442,0.012 -2.493,0 -2.762,-0.006 -0.369,-0.004 -2.357,-0.093 -2.827,-0.119 -0.588,-0.031 -3.917,-0.261 -6.538,-0.608 0,0.076 -0.033,0.185 0.04,0.261 7.597,1.203 16.341,0.974 23.934,-0.229 l 0.034,0.947 c -0.259,0.141 -1.582,0.3 -1.582,0.3 -0.774,0.107 -1.514,0.178 -2.274,0.25 -0.54,0.05 -2.829,0.229 -3.387,0.258 -2.063,0.108 -4.02,0.31 -6.253,0.284 -0.665,0.031 -2.816,-0.076 -3.244,-0.101 -2.438,-0.135 -4.835,-0.385 -7.155,-0.765 -0.041,0.074 -0.146,0.108 -0.113,0.184 5.3,1.007 10.932,1.097 16.418,0.756 l 0,1.57 1.315,0 0,-1.665 c 0.131,-0.009 0.262,-0.018 0.396,-0.03 l 0,1.695 1.31,0 0,-1.785 -0.118,0 c 0.93,-0.084 1.859,-0.175 2.773,-0.276 l 0,1.353 c -0.362,0.17 -1.242,0.122 -1.242,0.122 0,0 -0.038,0.155 -0.024,0.319 0.758,0.064 1.144,-0.016 1.745,-0.066 l 0,2.219 c -0.556,0.232 -1.107,-0.036 -1.661,0.195 l 0.116,0.225 c 0.438,0.072 1.101,-0.114 1.579,-0.076 -0.034,0.337 -0.293,0.337 -0.513,0.491 l 0,7.552 c -7.805,-0.29 -15.29,-1.486 -22.447,-3.138 l 0,-1.42 -1.313,0 0,1.105 c -0.133,-0.032 -0.262,-0.067 -0.395,-0.099 l 0,-1.006 -1.312,0 0,0.678 c -2.42,-0.608 -4.787,-1.268 -7.129,-1.948 l 0,-5.23 c 0,-0.162 -0.133,-0.291 -0.293,-0.291 -0.163,0 -0.292,0.129 -0.292,0.291 l 0,5.056 c -1.848,-0.542 -3.665,-1.101 -5.465,-1.665 0.397,-0.126 0.694,-0.484 0.694,-0.924 l 0,-3.41 -1.97,0 0,3.41 c 0,0.227 0.088,0.426 0.216,0.592 -1.332,-0.421 -2.649,-0.846 -3.955,-1.27 l 0,-1.811 c 0,-0.163 -0.133,-0.292 -0.295,-0.292 -0.159,0 -0.29,0.129 -0.29,0.292 l 0,1.621 c -1.323,-0.431 -2.633,-0.863 -3.922,-1.29 -0.512,-0.17 -1.018,-0.338 -1.525,-0.506 l 1.104,0 0,-1.668 c 0.607,-0.005 1.21,-0.005 1.815,-0.007 l 0,1.597 1.309,0 0,-1.605 c 5.549,-0.023 11.087,-0.025 16.52,0 l 0,1.605 1.31,0 0,-1.595 c 0.725,0.003 1.445,0.008 2.168,0.013 l 0,1.66 1.312,0 0,-1.652 c 0.131,0 0.265,10e-4 0.395,10e-4 l 0,1.651 1.313,0 0,-1.778 0.023,-0.015 c 0.032,-0.076 -0.037,-0.152 -0.11,-0.19 l -3.654,0 c 0,0 -23.754,-0.118 -25.349,-0.046 -1.035,0.046 -2.144,0.208 -3.212,0.375 -0.589,-0.189 -1.172,-0.374 -1.753,-0.557 0.568,-0.069 1.025,-0.125 1.025,-0.125 2.019,-0.291 4.215,-0.497 4.795,-0.509 9.218,-0.163 19.404,0.037 28.148,0.037 l 0.11,-0.117 c 0,-0.071 0.032,-0.183 -0.037,-0.262 -9.442,-0.038 -18.367,-0.112 -27.958,-0.073 -1.059,-0.022 -2.05,0.106 -2.996,0.262 -0.721,0.122 -3.062,0.447 -3.859,0.543 -3.129,-0.975 -6.137,-1.844 -8.989,-2.525 -0.076,-0.017 -0.151,-0.027 -0.226,-0.044 l 0,-1.437 -1.309,0 0,1.179 c -0.133,-0.023 -0.266,-0.056 -0.399,-0.079 l 0,-1.1 -1.308,0 0,0.912 c -0.482,-0.062 -0.966,-0.133 -1.442,-0.171 l 0,-1.055 -1.31,0 0,0.982 c -0.296,-0.01 -0.594,-0.028 -0.887,-0.028 -5.902,0 -10.811,2.011 -13.649,5.55 -3.496,-0.015 -7.555,-0.04 -10.399,-0.082 -0.548,-0.007 -1.032,-0.014 -1.46,-0.02 0.238,-2.005 0.673,-3.899 1.268,-5.688 7.115,0.008 14.436,0.102 21.375,0.127 0.254,-0.116 0.139,-0.303 0,-0.45 -4.101,-0.147 -7.382,0.073 -11.587,0 l 0.04,-0.037 c -3.159,-0.019 -6.394,-0.041 -9.684,-0.057 0.545,-1.556 1.205,-3.034 1.965,-4.428 0.06,-10e-4 0.121,-10e-4 0.181,-10e-4 l 0,2.182 1.313,0 0,-2.19 0.392,0 0,2.19 1.311,0 0,-2.188 c 0.53,0.003 1.064,0.003 1.59,0.006 l 0,2.182 1.309,0 0,-2.175 c 0.132,0 0.265,0.003 0.398,0.004 l 0,2.171 1.309,0 0,-2.163 c 0.528,0.004 1.057,0.008 1.587,0.01 l 0,2.153 1.312,0 0,-2.143 c 0.131,0.002 0.265,0.002 0.396,0.003 l 0,2.14 1.309,0 0,-2.132 c 0.526,0.003 1.058,0.005 1.591,0.006 l 0,2.126 1.308,0 0,-2.123 c 0.135,0 0.263,10e-4 0.398,10e-4 l 0,2.122 1.311,0 0,-2.126 c 0.681,-0.003 1.359,-0.004 2.06,-0.01 0,-0.12 0,-0.188 -0.109,-0.266 l -7.373,0 c 0,0 -8.347,0 -11.449,-0.033 0.182,-0.327 0.366,-0.651 0.559,-0.969 6.254,-0.025 12.54,0.068 18.263,0.099 l 0.149,-0.153 c 0,-0.185 -0.219,-0.11 -0.298,-0.225 -3.687,0.04 -7.999,-0.073 -11.766,-0.033 -2.245,0.062 -4.214,-0.011 -6.12,-0.055 1.379,-2.217 2.989,-4.216 4.714,-6.006 1.247,0.008 2.494,0.011 3.745,0.021 l 0,2.027 1.312,0 0,-2.017 c 0.132,0 0.263,0.002 0.396,0.002 l 0,2.015 1.309,0 0,-2.006 c 0.528,0.005 1.062,0.005 1.591,0.008 l 0,1.998 1.308,0 0,-1.99 0.398,0 0,1.99 1.311,0 0,-1.985 c 0.665,0.004 1.317,0.01 1.987,0.01 0.113,-0.072 0.15,-0.144 0.113,-0.262 -3.69,-0.035 -8.075,-0.191 -11.839,-0.151 l -0.114,0.075 -0.034,-0.038 c -0.405,0.003 -0.795,0.001 -1.188,0 0.363,-0.37 0.73,-0.732 1.102,-1.084 4.009,0.017 8.015,0.054 11.96,0.07 0.15,-0.113 0.188,-0.19 0.073,-0.303 -3.125,-0.015 -7.553,-0.032 -11.734,-0.046 1.235,-1.146 2.504,-2.192 3.77,-3.144 0.333,-0.024 0.689,-0.068 0.994,0.028 -0.036,0.453 0.224,0.981 0.524,1.32 0.328,0.224 0.658,0.523 0.988,0.45 -0.293,-0.265 -0.439,-0.598 -0.627,-0.717 l 0.074,-0.031 c -0.219,-0.193 -0.256,-0.494 -0.365,-0.757 l -0.018,-1.432 c 2.186,-1.522 4.307,-2.759 6.153,-3.727 0.376,-0.2 0.627,-0.335 0.739,-0.409 0.073,-0.047 0.13,-0.101 0.198,-0.149 5.51,-0.026 10.762,0.033 16.033,0.061 -0.037,0.185 -0.072,0.368 -0.098,0.54 -0.04,0.271 -0.058,0.544 -0.078,0.816 l -9.622,0 c -2.106,-0.023 -4.251,-0.037 -6.484,-0.027 l -0.003,0.027 -1.554,0 c -0.1,0 -0.179,0.079 -0.179,0.176 0,0.103 0.079,0.181 0.179,0.181 l 5.053,0 0,2.509 1.31,0 0,-2.509 1.442,0 0,2.532 1.309,0 0,-2.528 c 0.132,0.002 0.266,0.004 0.398,0.005 l 0,2.523 1.309,0 0,-2.513 c 2.223,0.019 4.555,0.037 6.816,0.047 -0.077,2.553 0.746,5.108 2.295,7.303 -5.62,0.323 -11.524,0.279 -17.16,-0.226 -0.402,0.078 -0.816,-0.15 -1.141,0 0,0.112 -0.114,0.187 0.036,0.261 6.138,0.629 12.429,0.673 18.526,0.322 0.237,0.313 0.483,0.62 0.749,0.916 -6.524,0.333 -13,0.653 -19.275,-0.33 l -0.073,0.11 c 0,0.039 0.037,0.077 0.073,0.077 l -0.036,0.034 0.106,0.115 c 1.115,0.135 2.218,0.24 3.316,0.333 l 0,2.288 1.31,0 0,-2.196 c 0.481,0.033 0.964,0.067 1.442,0.093 l 0,2.285 1.309,0 0,-2.233 c 0.132,0.005 0.265,0.012 0.398,0.017 l 0,2.216 1.309,0 0,-2.179 c 3.35,0.07 6.68,-0.027 10.067,-0.23 l 0,1.941 1.309,0 0,-1.113 c 0.511,0.443 1.056,0.859 1.64,1.236 0.611,0.397 1.233,0.764 1.868,1.105 l 0,0.026 0.053,0 c 0.213,0.114 0.435,0.21 0.651,0.318 l -0.704,0 0,1.724 1.308,0 0,-1.429 c 0.131,0.061 0.267,0.112 0.399,0.171 z m 51.549,-14.46 c 0,-0.073 0.037,-0.137 0.079,-0.188 l 0,-0.056 c -6.171,-0.059 -12.471,-0.051 -18.774,-0.129 0.016,0.555 -0.03,1.097 -0.138,1.618 0.453,0.001 1.075,0.003 1.401,0.013 l 0.834,0 -0.032,-0.013 c 0.324,0.008 0.636,0.01 0.954,0.013 l 15.123,0 c 0.102,0 0.18,0.081 0.18,0.181 0,0.102 -0.078,0.181 -0.18,0.181 l -0.021,0 -0.011,0.038 c -1.298,-0.011 -2.529,-0.02 -3.721,-0.026 l 0,2.316 -1.31,0 0,-2.323 c -0.485,-10e-4 -0.969,-0.003 -1.44,-0.004 l 0,2.35 -1.312,0 0,-2.351 -0.399,0 0,2.351 -1.311,0 0,-2.351 -8.846,0 c -0.033,0.114 -0.061,0.229 -0.099,0.341 -1.972,5.659 -8.373,6.272 -11.03,6.272 -0.646,0 -1.06,-0.037 -1.104,-0.041 l -1.691,-0.154 -0.075,-1.698 c -0.034,-0.729 -0.112,-1.428 -0.304,-2.084 l 0,1.547 -1.309,0 0,-3.207 -0.399,0 0,3.207 -1.309,0 0,-3.263 -0.079,-0.128 c 0.028,-0.004 0.051,-0.005 0.079,-0.012 l 0,-0.086 0.626,0 c 0.292,-0.026 0.79,-0.028 1.2,-0.022 -1.435,-1.348 -4.26,-2.243 -9.9,-2.333 -3.639,0 -6.881,2.335 -7.373,4.424 -0.298,1.259 0.553,2.396 2.524,3.384 0.464,0.232 0.964,0.448 1.492,0.653 1.278,0.017 2.597,0.027 4.054,0.012 0,0 16.265,0.002 16.78,0.067 5.24,-0.019 6.627,0.011 9.676,0.192 1.068,-0.191 2.145,-0.387 3.249,-0.589 1.271,-0.232 2.555,-0.458 3.838,-0.684 l 0,-0.809 1.31,0 0,0.575 c 0.134,-0.023 0.266,-0.048 0.4,-0.072 l 0,-0.503 1.31,0 0,0.276 c 2.369,-0.398 4.75,-0.764 7.133,-1.064 -0.001,-0.005 -0.004,-0.01 -0.005,-0.016 -0.008,-0.017 -0.017,-0.029 -0.028,-0.045 -0.003,-0.069 0,-0.125 -0.003,-0.192 -0.012,-0.1 -0.039,-0.187 -0.039,-0.295 l 0,-5.273" /></g></g></svg>