<?xml version="1.0" encoding="UTF-8" standalone="no"?>
<!-- Created with Inkscape (http://www.inkscape.org/) -->

<svg
   xmlns:dc="http://purl.org/dc/elements/1.1/"
   xmlns:cc="http://creativecommons.org/ns#"
   xmlns:rdf="http://www.w3.org/1999/02/22-rdf-syntax-ns#"
   xmlns:svg="http://www.w3.org/2000/svg"
   xmlns="http://www.w3.org/2000/svg"
   xmlns:sodipodi="http://sodipodi.sourceforge.net/DTD/sodipodi-0.dtd"
   xmlns:inkscape="http://www.inkscape.org/namespaces/inkscape"
   id="svg2"
   version="1.1"
   inkscape:version="0.91 r13725"
   xml:space="preserve"
   width="800"
   height="566.20001"
   viewBox="0 0 800 566.20001"
   sodipodi:docname="Logo Morbihan.svg"><metadata
     id="metadata8"><rdf:RDF><cc:Work
         rdf:about=""><dc:format>image/svg+xml</dc:format><dc:type
           rdf:resource="http://purl.org/dc/dcmitype/StillImage" /><dc:title></dc:title></cc:Work></rdf:RDF></metadata><defs
     id="defs6" /><sodipodi:namedview
     pagecolor="#ffffff"
     bordercolor="#666666"
     borderopacity="1"
     objecttolerance="10"
     gridtolerance="10"
     guidetolerance="10"
     inkscape:pageopacity="0"
     inkscape:pageshadow="2"
     inkscape:window-width="1440"
     inkscape:window-height="790"
     id="namedview4"
     showgrid="false"
     inkscape:zoom="0.47096465"
     inkscape:cx="160.34981"
     inkscape:cy="354.33063"
     inkscape:window-x="0"
     inkscape:window-y="1"
     inkscape:window-maximized="1"
     inkscape:current-layer="g10" /><g
     id="g10"
     inkscape:groupmode="layer"
     inkscape:label="Logo Morbihan"
     transform="matrix(1.25,0,0,-1.25,0,566.19999)"><g
       id="g5536"
       transform="matrix(4.7979429,0,0,4.7979429,-666.42515,-1413.0901)"><path
         inkscape:connector-curvature="0"
         id="path332"
         style="fill:#005288;fill-opacity:1;fill-rule:nonzero;stroke:none"
         d="m 173.803,294.52 75.588,0 0,94.394 -75.588,0 0,-94.394 z" /><g
         id="g5521"><path
           d="m 190.1229,301.1164 -1.91,0 0,7.867 -0.027,0 c -1.042,-2.809 -2.125,-5.346 -3.196,-7.867 l -1.028,0 c -1.016,2.521 -2.046,5.058 -3.036,7.867 l -0.025,0 0,-7.867 -1.532,0 0,10.085 2.356,0 c 0.977,-2.478 2.546,-6.426 2.913,-7.724 l 0.028,0 c 0.445,1.355 2.152,5.246 3.236,7.724 l 2.221,0 0,-10.085 z"
           style="fill:#ffffff;fill-opacity:1;fill-rule:nonzero;stroke:none"
           id="path338"
           inkscape:connector-curvature="0" /><path
           d="m 192.3291,304.804 c 0,2.334 1.732,3.689 3.548,3.689 1.83,0 3.562,-1.355 3.562,-3.689 0,-2.234 -1.434,-3.861 -3.562,-3.861 -2.113,0 -3.548,1.627 -3.548,3.861 m 5.201,0 c 0,1.195 -0.394,2.621 -1.653,2.621 -1.232,0 -1.639,-1.426 -1.639,-2.621 0,-1.267 0.353,-2.796 1.639,-2.796 1.315,0 1.653,1.529 1.653,2.796"
           style="fill:#ffffff;fill-opacity:1;fill-rule:nonzero;stroke:none"
           id="path340"
           inkscape:connector-curvature="0" /><path
           d="m 203.2329,307.0513 0.026,0 0.366,0.563 c 0.216,0.303 0.609,0.879 1.165,0.879 0.405,0 0.839,-0.233 1.218,-0.649 l -0.676,-1.327 c -0.298,0.16 -0.487,0.245 -0.855,0.245 -0.622,0 -1.232,-0.531 -1.232,-2.089 l 0,-3.557 -1.8,0 0,7.205 1.788,0 0,-1.27 z"
           style="fill:#ffffff;fill-opacity:1;fill-rule:nonzero;stroke:none"
           id="path342"
           inkscape:connector-curvature="0" /><path
           d="m 207.4175,311.7057 1.803,0 0,-4.38 0.025,0 c 0.472,0.735 1.339,1.168 2.153,1.168 2.138,0 2.993,-2.034 2.993,-3.618 0,-2.062 -1.22,-3.933 -3.143,-3.933 -0.838,0 -1.531,0.433 -2.028,1.065 l 0,-0.891 -1.803,0 0,10.589 z m 1.803,-7.076 c 0,-1.309 0.485,-2.535 1.702,-2.535 1.154,0 1.56,1.499 1.56,2.766 0,1.24 -0.515,2.479 -1.529,2.479 -1.139,0 -1.733,-1.051 -1.733,-2.71"
           style="fill:#ffffff;fill-opacity:1;fill-rule:nonzero;stroke:none"
           id="path344"
           inkscape:connector-curvature="0" /><path
           d="m 216.2196,310.479 c 0,0.55 0.433,1.111 1.04,1.111 0.624,0 1.112,-0.546 1.112,-1.111 0,-0.619 -0.418,-1.209 -1.084,-1.209 -0.635,0 -1.068,0.59 -1.068,1.209 m 1.976,-9.363 -1.802,0 0,7.205 1.802,0 0,-7.205 z"
           style="fill:#ffffff;fill-opacity:1;fill-rule:nonzero;stroke:none"
           id="path346"
           inkscape:connector-curvature="0" /><path
           d="m 222.3663,307.4672 c 0.611,0.695 1.464,1.026 2.317,1.026 1.583,0 2.423,-0.925 2.423,-2.741 l 0,-4.636 -1.802,0 0,4.422 c 0,1.009 -0.418,1.673 -1.352,1.673 -0.88,0 -1.573,-0.621 -1.573,-1.804 l 0,-4.291 -1.8,0 0,10.59 1.787,0 0,-4.239 z"
           style="fill:#ffffff;fill-opacity:1;fill-rule:nonzero;stroke:none"
           id="path348"
           inkscape:connector-curvature="0" /><path
           d="m 232.8198,301.8076 c -0.499,-0.418 -1.11,-0.865 -1.731,-0.865 -1.056,0 -1.937,0.865 -1.937,2.193 0,1.365 0.932,2.144 2.506,2.617 l 1.597,0.507 c -0.095,0.662 -0.65,1.08 -1.229,1.08 -0.774,0 -1.315,-0.302 -1.791,-0.735 l -0.581,0.907 c 0.839,0.736 1.664,0.982 2.6,0.982 1.244,0 2.777,-0.433 2.777,-2.681 l 0,-2.938 c 0,-0.576 0.067,-1.256 0.283,-1.758 l -1.909,0 c -0.138,0.245 -0.177,0.661 -0.177,1.051 l -0.408,-0.36 z m -0.566,3.141 c -0.881,-0.29 -1.327,-0.835 -1.327,-1.658 0,-0.634 0.378,-1.064 0.812,-1.064 0.717,0 1.652,0.951 1.516,3.067 l -1.001,-0.345 z"
           style="fill:#ffffff;fill-opacity:1;fill-rule:nonzero;stroke:none"
           id="path350"
           inkscape:connector-curvature="0" /><path
           d="m 239.1063,307.4672 c 0.609,0.695 1.463,1.026 2.314,1.026 1.584,0 2.424,-0.925 2.424,-2.741 l 0,-4.636 -1.8,0 0,4.422 c 0,1.009 -0.419,1.673 -1.354,1.673 -0.879,0 -1.571,-0.621 -1.571,-1.804 l 0,-4.291 -1.801,0 0,7.205 1.788,0 0,-0.854 z"
           style="fill:#ffffff;fill-opacity:1;fill-rule:nonzero;stroke:none"
           id="path352"
           inkscape:connector-curvature="0" /></g><g
         id="g5531"><path
           d="m 270.0446,363.6151 c 0,0 -12.332,-18.137 -40.376,-39.159 0,0 27.385,6.926 42.62,29.376 l -2.244,9.783 z"
           style="fill:#b2bb1e;fill-opacity:1;fill-rule:nonzero;stroke:none"
           id="path354"
           inkscape:connector-curvature="0" /><path
           d="m 254.2461,370.0932 c 0,0 -2.083,-3.589 -9.403,-10.7 -3.548,-3.447 -8.613,-8.027 -15.809,-13.674 -3.02,-2.371 -6.4,-4.931 -10.212,-7.689 -6.923,-5.017 -25.317,-12.181 -25.792,1.194 -0.477,13.372 5.733,21.733 10.507,27.222 l -1.488,8.984 -0.901,-0.859 c 0,0 -14.527,-14.126 -26.628,-32.686 0.359,17.298 10.976,30.987 10.976,30.987 -25.217,-14.3 -46.598,-51.826 -46.598,-51.826 l 10.507,0 c 4.299,7.882 15.068,21.257 15.068,21.257 -1.916,-11.944 -0.961,-20.303 -0.961,-20.303 l 8.26,-0.691 c 0,0 7.166,13.614 12.425,17.915 0,0 -1.911,-19.821 14.566,-19.347 16.476,0.482 28.892,10.988 56.597,37.976 l -1.114,12.24 z"
           style="fill:#56a0d3;fill-opacity:1;fill-rule:nonzero;stroke:none"
           id="path356"
           inkscape:connector-curvature="0" /><path
           d="m 244.8433,359.3929 c -0.135,7.403 -6.17,13.363 -13.607,13.363 -7.519,0 -13.611,-6.097 -13.611,-13.615 0,-6.766 4.942,-12.369 11.409,-13.421 0.72,-0.119 1.453,-0.193 2.202,-0.193 7.521,0 13.617,6.097 13.617,13.614 0,0.083 -0.01,0.167 -0.01,0.252"
           style="fill:#f7921e;fill-opacity:1;fill-rule:nonzero;stroke:none"
           id="path358"
           inkscape:connector-curvature="0" /></g></g></g></svg>