<?xml version="1.0" encoding="UTF-8" standalone="no"?>
<svg
   xmlns:dc="http://purl.org/dc/elements/1.1/"
   xmlns:cc="http://creativecommons.org/ns#"
   xmlns:rdf="http://www.w3.org/1999/02/22-rdf-syntax-ns#"
   xmlns:svg="http://www.w3.org/2000/svg"
   xmlns="http://www.w3.org/2000/svg"
   viewBox="0 0 800 316.5"
   height="316.5"
   width="800"
   xml:space="preserve"
   version="1.1"
   id="svg2"><metadata
     id="metadata8"><rdf:RDF><cc:Work
         rdf:about=""><dc:format>image/svg+xml</dc:format><dc:type
           rdf:resource="http://purl.org/dc/dcmitype/StillImage" /><dc:title></dc:title></cc:Work></rdf:RDF></metadata><defs
     id="defs6" /><g
     transform="matrix(1.25,0,0,-1.25,0,316.50001)"
     id="g10"><g
       transform="scale(1,0.99998613)"
       id="g6489"><g
         id="g6413"
         transform="matrix(8.3632035,0,0,8.3632035,-4047.9235,-68.151749)"><path
           id="path6375"
           d="m 560.5416,38.4249 -70.449,0 0.184,-0.331 -1.08,-0.552 -0.237,0.429 0.783,0.454 -5.513,0 0,-5.511 36.603,0 0,-3.007 c 0,0 2.413,1.977 3.584,3.007 l 36.125,0 0,5.511 z"
           style="fill:#d74521;fill-opacity:1;fill-rule:nonzero;stroke:none" /><g
           id="g6384"><path
             style="fill:#ffffff;fill-opacity:1;fill-rule:nonzero;stroke:none"
             d="m 520.8756,37.2789 1.864,0 0,-0.297 0,-0.3 -1.223,0 0,-0.853 1.165,0 0,-0.297 0,-0.301 -1.165,0 0,-0.819 1.223,0 0,-0.297 0,-0.301 -1.864,0 0,3.465 z"
             id="path6373" /><path
             style="fill:#ffffff;fill-opacity:1;fill-rule:nonzero;stroke:none"
             d="m 606.61328,910.09375 0,4.33203 0.39844,0 0.68164,0 c 0.745,0 1.33031,-0.19734 1.75781,-0.58984 0.425,-0.39375 0.64258,-0.93164 0.64258,-1.61914 0,-0.6575 -0.22422,-1.17594 -0.66797,-1.55469 -0.4425,-0.3775 -1.05117,-0.56836 -1.82617,-0.56836 l -0.58789,0 -0.39844,0 z m 0.79883,0.74609 0.1875,0 c 0.53875,0 0.95305,0.1236 1.24805,0.3711 0.2925,0.24625 0.43945,0.59508 0.43945,1.04883 0,0.4525 -0.13727,0.80132 -0.41602,1.04882 -0.27625,0.24625 -0.67023,0.36914 -1.17773,0.36914 l -0.28125,0 0,-2.83789 z"
             transform="matrix(0.8,0,0,-0.8,0,765.354)"
             id="path6371" /><path
             style="fill:#ffffff;fill-opacity:1;fill-rule:nonzero;stroke:none"
             d="m 490.4246,36.9819 0,-0.3 -1.225,0 0,-0.853 1.168,0 0,-0.297 0,-0.301 -1.168,0 0,-0.819 1.225,0 0,-0.297 0,-0.301 -1.863,0 0,3.465 1.863,0 0,-0.297 z"
             id="path6369" /><path
             style="fill:#ffffff;fill-opacity:1;fill-rule:nonzero;stroke:none"
             d="m 613.80664,910.09375 0,4.33203 0.40039,0 0.40039,0 0,-1.64648 0.34766,0 c 0.53625,0 0.94289,-0.11782 1.21289,-0.35157 0.27375,-0.23375 0.4082,-0.58296 0.4082,-1.04296 0,-0.40875 -0.14258,-0.72813 -0.42383,-0.95313 -0.2825,-0.22375 -0.68226,-0.33789 -1.19726,-0.33789 l -0.74805,0 -0.40039,0 z m 0.80078,0.74609 0.34766,0 c 0.275,0 0.47758,0.0498 0.61133,0.15235 0.14,0.1 0.20703,0.24976 0.20703,0.44726 0,0.19625 -0.067,0.34586 -0.20703,0.44336 -0.13375,0.1 -0.33633,0.14844 -0.61133,0.14844 l -0.34766,0 0,-1.19141 z"
             transform="matrix(0.8,0,0,-0.8,0,765.354)"
             id="path6367" /><path
             style="fill:#ffffff;fill-opacity:1;fill-rule:nonzero;stroke:none"
             d="m 618.51758,910.09375 -1.8125,4.33203 0.44336,0 0.4414,0 0.41993,-1.11719 1.63671,0 0.42969,1.11719 0.44141,0 0.43554,0 -1.81445,-4.33203 -0.30859,0 -0.3125,0 z m 0.30469,1.08203 0.53515,1.38477 -1.0625,0 0.52735,-1.38477 z"
             transform="matrix(0.8,0,0,-0.8,0,765.354)"
             id="path6365" /><path
             style="fill:#ffffff;fill-opacity:1;fill-rule:nonzero;stroke:none"
             d="m 621.37305,910.09375 0,4.33203 0.40234,0 0.40039,0 0,-1.73242 1.18164,1.73242 0.47656,0 0.47266,0 -1.17383,-1.59766 c 0.28625,-0.0625 0.51977,-0.1689 0.69727,-0.3164 0.29,-0.2475 0.43164,-0.60453 0.43164,-1.08203 0,-0.42375 -0.14133,-0.74992 -0.42383,-0.98242 -0.28375,-0.235 -0.68156,-0.35352 -1.19531,-0.35352 l -0.86719,0 -0.40234,0 z m 0.80273,0.74609 0.4082,0 c 0.29,0 0.50821,0.0555 0.65821,0.16797 0.14375,0.1125 0.21875,0.27821 0.21875,0.50196 0,0.22125 -0.075,0.38679 -0.21875,0.49804 -0.15,0.11 -0.36821,0.16211 -0.65821,0.16211 l -0.4082,0 0,-1.33008 z"
             transform="matrix(0.8,0,0,-0.8,0,765.354)"
             id="path6363" /><path
             style="fill:#ffffff;fill-opacity:1;fill-rule:nonzero;stroke:none"
             d="m 501.4736,36.9819 0,-0.3 -0.644,0 0,-2.868 -0.321,0 -0.321,0 0,2.868 -0.644,0 0,0.296 0,0.301 1.93,0 0,-0.297 z"
             id="path6361" /><path
             style="fill:#ffffff;fill-opacity:1;fill-rule:nonzero;stroke:none"
             d="m 503.6316,36.9819 0,-0.3 -1.222,0 0,-0.853 1.166,0 0,-0.297 0,-0.301 -1.166,0 0,-0.819 1.222,0 0,-0.297 0,-0.301 -1.863,0 0,3.465 1.863,0 0,-0.297 z"
             id="path6359" /><path
             style="fill:#ffffff;fill-opacity:1;fill-rule:nonzero;stroke:none"
             d="m 507.8356,33.8139 -0.318,0 -0.32,0 0,2.627 -0.916,-2.627 -0.255,0 -0.256,0 -0.918,2.619 0,-2.619 -0.319,0 -0.322,0 0,3.465 0.447,0 0.449,0 0.92,-2.631 0.915,2.631 0.446,0 0.447,0 0,-3.465 z"
             id="path6357" /><path
             style="fill:#ffffff;fill-opacity:1;fill-rule:nonzero;stroke:none"
             d="m 510.2816,36.9819 0,-0.3 -1.225,0 0,-0.853 1.167,0 0,-0.297 0,-0.301 -1.167,0 0,-0.819 1.225,0 0,-0.297 0,-0.301 -1.865,0 0,3.465 1.865,0 0,-0.297 z"
             id="path6355" /><path
             style="fill:#ffffff;fill-opacity:1;fill-rule:nonzero;stroke:none"
             d="m 513.7126,33.8139 -0.353,0 -0.355,0 -1.47,2.553 0,-2.553 -0.32,0 -0.321,0 0,3.465 0.369,0 0.368,0 1.44,-2.532 0,2.532 0.321,0 0.321,0 0,-3.465 z"
             id="path6353" /><path
             style="fill:#ffffff;fill-opacity:1;fill-rule:nonzero;stroke:none"
             d="m 515.9916,36.9819 0,-0.3 -0.645,0 0,-2.868 -0.32,0 -0.321,0 0,2.868 -0.644,0 0,0.296 0,0.301 1.93,0 0,-0.297 z"
             id="path6351" /><path
             style="fill:#ffffff;fill-opacity:1;fill-rule:nonzero;stroke:none"
             d="m 647.00781,910.09375 0,4.33203 0.39844,0 0.68164,0 c 0.745,0 1.33156,-0.19734 1.75781,-0.58984 0.42625,-0.39375 0.64063,-0.93164 0.64063,-1.61914 0,-0.6575 -0.22352,-1.17594 -0.66602,-1.55469 -0.4425,-0.3775 -1.05117,-0.56836 -1.82617,-0.56836 l -0.58789,0 -0.39844,0 z m 0.79883,0.74609 0.1875,0 c 0.53625,0 0.95305,0.1236 1.24805,0.3711 0.29375,0.24625 0.43945,0.59508 0.43945,1.04883 0,0.4525 -0.13656,0.80132 -0.41406,1.04882 -0.2775,0.24625 -0.67164,0.36914 -1.18164,0.36914 l -0.2793,0 0,-2.83789 z"
             transform="matrix(0.8,0,0,-0.8,0,765.354)"
             id="path6349" /><path
             style="fill:#ffffff;fill-opacity:1;fill-rule:nonzero;stroke:none"
             d="m 528.2546,33.8139 -0.32,0 -0.32,0 0,2.627 -0.915,-2.627 -0.256,0 -0.256,0 -0.916,2.619 0,-2.619 -0.321,0 -0.32,0 0,3.465 0.445,0 0.448,0 0.922,-2.631 0.915,2.631 0.448,0 0.446,0 0,-3.465 z"
             id="path6347" /><path
             style="fill:#ffffff;fill-opacity:1;fill-rule:nonzero;stroke:none"
             d="m 662.54102,910.09375 -1.81446,4.33203 0.44532,0 0.43945,0 0.41992,-1.11719 1.63672,0 0.42969,1.11719 0.4414,0 0.43555,0 -1.8125,-4.33203 -0.31055,0 -0.31054,0 z m 0.30078,1.08203 0.004,0 0.53321,1.38477 -1.0625,0 0.52539,-1.38477 z"
             transform="matrix(0.8,0,0,-0.8,0,765.354)"
             id="path6345" /><path
             style="fill:#ffffff;fill-opacity:1;fill-rule:nonzero;stroke:none"
             d="m 532.9936,33.8139 -0.321,0 -0.32,0 0,3.465 0.32,0 0.321,0 0,-3.465 z"
             id="path6343" /><path
             style="fill:#ffffff;fill-opacity:1;fill-rule:nonzero;stroke:none"
             d="m 536.4716,33.8139 -0.352,0 -0.356,0 -1.47,2.553 0,-2.553 -0.32,0 -0.321,0 0,3.465 0.369,0 0.368,0 1.439,-2.532 0,2.532 0.321,0 0.322,0 0,-3.465 z"
             id="path6341" /><path
             style="fill:#ffffff;fill-opacity:1;fill-rule:nonzero;stroke:none"
             d="m 538.9426,36.9819 0,-0.3 -1.225,0 0,-0.853 1.168,0 0,-0.297 0,-0.301 -1.168,0 0,-0.819 1.225,0 0,-0.297 0,-0.301 -1.864,0 0,3.465 1.864,0 0,-0.297 z"
             id="path6339" /><path
             style="fill:#ffffff;fill-opacity:1;fill-rule:nonzero;stroke:none"
             d="m 540.8616,34.8889 -1.303,0 0,0.55 1.303,0 0,-0.55 z"
             id="path6337" /><path
             style="fill:#ffffff;fill-opacity:1;fill-rule:nonzero;stroke:none"
             d="m 543.3446,36.9819 0,-0.3 -1.225,0 0,-0.853 1.168,0 0,-0.297 0,-0.301 -1.168,0 0,-0.819 1.225,0 0,-0.297 0,-0.301 -1.864,0 0,3.465 1.864,0 0,-0.297 z"
             id="path6335" /><path
             style="fill:#ffffff;fill-opacity:1;fill-rule:nonzero;stroke:none"
             d="m 545.5876,36.9819 0,-0.3 -0.645,0 0,-2.868 -0.32,0 -0.32,0 0,2.868 -0.645,0 0,0.296 0,0.301 1.93,0 0,-0.297 z"
             id="path6333" /><path
             style="fill:#ffffff;fill-opacity:1;fill-rule:nonzero;stroke:none"
             d="m 547.2326,34.8889 -1.305,0 0,0.55 1.305,0 0,-0.55 z"
             id="path6331" /><path
             style="fill:#ffffff;fill-opacity:1;fill-rule:nonzero;stroke:none"
             d="m 549.6006,34.1149 0,-0.301 -1.701,0 0,3.465 0.32,0 0.32,0 0,-2.867 1.061,0 0,-0.297 z"
             id="path6329" /><path
             style="fill:#ffffff;fill-opacity:1;fill-rule:nonzero;stroke:none"
             d="m 689.48828,910.00977 c -0.6275,0 -1.16156,0.21804 -1.60156,0.65429 -0.44125,0.44 -0.66406,0.97071 -0.66406,1.59571 0,0.625 0.22281,1.15445 0.66406,1.5957 0.44,0.435 0.97406,0.6543 1.60156,0.6543 0.62875,0 1.16352,-0.2193 1.60352,-0.6543 0.43875,-0.44125 0.66211,-0.9707 0.66211,-1.5957 0,-0.625 -0.22336,-1.15571 -0.66211,-1.59571 -0.44,-0.43625 -0.97477,-0.65429 -1.60352,-0.65429 z m 0,0.74414 c 0.41,0 0.75266,0.14554 1.03516,0.43554 0.2825,0.29375 0.42578,0.65032 0.42578,1.07032 0,0.42 -0.14328,0.77711 -0.42578,1.06835 -0.2825,0.29125 -0.62516,0.4375 -1.03516,0.4375 -0.40875,10e-6 -0.75281,-0.14625 -1.03906,-0.4375 -0.28125,-0.29124 -0.42383,-0.64835 -0.42383,-1.06835 0,-0.42 0.14258,-0.77657 0.42383,-1.07032 0.28625,-0.29 0.63031,-0.43554 1.03906,-0.43554 z"
             transform="matrix(0.8,0,0,-0.8,0,765.354)"
             id="path6327" /><path
             style="fill:#ffffff;fill-opacity:1;fill-rule:nonzero;stroke:none"
             d="m 554.5326,33.8139 -0.32,0 -0.321,0 0,3.465 0.321,0 0.32,0 0,-3.465 z"
             id="path6325" /><path
             style="fill:#ffffff;fill-opacity:1;fill-rule:nonzero;stroke:none"
             d="m 693.95703,910.09375 0,4.33203 0.40039,0 0.40235,0 0,-1.73242 1.18554,1.73242 0.47461,0 0.4707,0 -1.17187,-1.59766 c 0.28875,-0.0625 0.52102,-0.1689 0.69727,-0.3164 0.2875,-0.2475 0.42968,-0.60453 0.42968,-1.08203 0,-0.42375 -0.13937,-0.74992 -0.42187,-0.98242 -0.2825,-0.235 -0.68156,-0.35352 -1.19531,-0.35352 l -0.8711,0 -0.40039,0 z m 0.80274,0.74609 0.41015,0 c 0.29,0 0.5068,0.0555 0.6543,0.16797 0.1475,0.1125 0.2207,0.27821 0.2207,0.50196 0,0.22125 -0.0732,0.38679 -0.2207,0.49804 -0.1475,0.11 -0.3643,0.16211 -0.6543,0.16211 l -0.41015,0 0,-1.33008 z"
             transform="matrix(0.8,0,0,-0.8,0,765.354)"
             id="path6323" /><path
             style="fill:#ffffff;fill-opacity:1;fill-rule:nonzero;stroke:none"
             d="m 559.7346,36.9819 0,-0.3 -1.224,0 0,-0.853 1.164,0 0,-0.297 0,-0.301 -1.164,0 0,-0.819 1.224,0 0,-0.297 0,-0.301 -1.866,0 0,3.465 1.866,0 0,-0.297 z"
             id="path1036" /></g></g><g
         id="g6481"
         transform="matrix(8.3632035,0,0,8.3632035,-4047.9235,-68.151749)"><path
           d="m 513.5729,15.9105 0,5.886 c 0,1.433 -0.267,2.521 -0.798,3.267 -0.533,0.744 -1.311,1.118 -2.33,1.118 -1.086,0 -1.897,-0.379 -2.442,-1.132 -0.542,-0.752 -0.813,-1.884 -0.813,-3.391 l 0,-8.244 -1.875,0 -1.888,0 0,15.66 1.75,0 1.751,0 0,-1.35 c 1.214,1.25 2.666,1.875 4.357,1.875 1.857,0 3.329,-0.627 4.419,-1.882 1.09,-1.254 1.632,-2.948 1.632,-5.079 l 0,-5.997 -3.763,-0.731 z"
           style="fill:#315d98;fill-opacity:1;fill-rule:nonzero;stroke:none"
           id="path972" /><path
           d="m 529.0365,15.3232 c -1.621,1.622 -2.433,3.594 -2.433,5.91 0,2.314 0.812,4.289 2.433,5.918 1.622,1.633 3.587,2.449 5.895,2.449 2.314,0 4.283,-0.816 5.906,-2.449 1.623,-1.629 2.434,-3.604 2.434,-5.918 0,-2.316 -0.811,-4.288 -2.434,-5.91 -1.623,-1.621 -3.592,-2.431 -5.906,-2.431 -2.308,0 -4.273,0.81 -5.895,2.431 m 9.148,2.406 c 0.874,0.939 1.31,2.106 1.31,3.504 0,1.396 -0.436,2.568 -1.31,3.514 -0.874,0.947 -1.958,1.42 -3.253,1.42 -1.288,0 -2.369,-0.473 -3.242,-1.42 -0.871,-0.946 -1.309,-2.118 -1.309,-3.514 0,-1.398 0.438,-2.565 1.309,-3.504 0.873,-0.937 1.954,-1.404 3.242,-1.404 1.295,0 2.379,0.467 3.253,1.404"
           style="fill:#315d98;fill-opacity:1;fill-rule:nonzero;stroke:none"
           id="path976" /><path
           d="m 555.8292,14.8074 c -1.185,-1.278 -2.647,-1.915 -4.384,-1.915 -1.856,0 -3.331,0.626 -4.425,1.881 -1.093,1.255 -1.64,2.953 -1.64,5.093 l 0,9.208 1.874,0 1.889,0 0,-8.366 c 0,-1.435 0.268,-2.527 0.8,-3.276 0.534,-0.749 1.315,-1.123 2.344,-1.123 1.094,0 1.915,0.379 2.459,1.13 0.548,0.754 0.822,1.886 0.822,3.391 l 0,8.244 1.874,0 1.89,0 0,-15.66 c 0,0 -2.71,-0.141 -3.503,1.393"
           style="fill:#315d98;fill-opacity:1;fill-rule:nonzero;stroke:none"
           id="path980" /><path
           d="m 497.1139,29.0747 0,-1.722 c -1.453,1.499 -3.223,2.247 -5.309,2.247 -2.161,0 -3.998,-0.816 -5.515,-2.448 -1.515,-1.629 -2.274,-3.604 -2.274,-5.919 0,-2.316 0.759,-4.287 2.274,-5.909 1.517,-1.622 3.35,-2.431 5.5,-2.431 1.68,0.006 3.178,0.345 4.451,1.098 -0.194,0.217 -0.733,0.867 -1.712,2.365 l 0.009,0 c -2.065,2.647 -2.996,6.882 -2.996,6.882 0.103,-3.25 0.965,-5.699 2.136,-7.308 -0.957,-0.045 -7.391,-0.036 -2.871,10.478 8.528,-5.068 5.51,-8.8 4.033,-10.05 l 0.013,0 c 0,0 1.937,-2.522 5.711,-2.916 l 0.009,-0.004 0,15.637 -3.459,0 z"
           style="fill:#315d98;fill-opacity:1;fill-rule:nonzero;stroke:none"
           id="path984" /><path
           d="m 513.5803,14.338 c 0,-2.057 0.502,-3.606 1.503,-4.645 0.882,-0.92 2.155,-1.434 3.819,-1.544 l 0.398,0 c 1.663,0.11 2.938,0.624 3.819,1.544 1.001,1.039 1.503,2.588 1.503,4.645 l 0,14.737 -1.889,0 -1.875,0 0,-14.737 c 0,-0.946 -0.112,-1.59 -0.339,-1.93 -0.225,-0.341 -0.63,-0.51 -1.219,-0.51 l -0.398,0 c -0.588,0 -0.995,0.169 -1.221,0.51 -0.224,0.34 -0.336,1.836 -0.336,2.783"
           style="fill:#315d98;fill-opacity:1;fill-rule:nonzero;stroke:none"
           id="path988" /><path
           d="m 491.1835,26.1851 0,0 c 8.052,-4.943 5.129,-8.578 3.671,-9.818 0.002,-0.005 0.002,-0.007 0.002,-0.007 0.014,0 3.978,2.705 1.74,6.164 -2.237,3.458 -5.254,4.032 -5.254,4.032 l -0.159,-0.371 z"
           style="fill:#1f314f;fill-opacity:1;fill-rule:nonzero;stroke:none"
           id="path992" /></g></g></g></svg>