<?xml version="1.0" encoding="UTF-8"?>
<!DOCTYPE svg PUBLIC "-//W3C//DTD SVG 1.1//EN" "http://www.w3.org/Graphics/SVG/1.1/DTD/svg11.dtd">
<svg version="1.2" width="100mm" height="25mm" viewBox="0 0 10000 2500" preserveAspectRatio="xMidYMid" fill-rule="evenodd" stroke-width="28.222" stroke-linejoin="round" xmlns="http://www.w3.org/2000/svg" xmlns:ooo="http://xml.openoffice.org/svg/export" xmlns:xlink="http://www.w3.org/1999/xlink" xmlns:presentation="http://sun.com/xmlns/staroffice/presentation" xmlns:smil="http://www.w3.org/2001/SMIL20/" xmlns:anim="urn:oasis:names:tc:opendocument:xmlns:animation:1.0" xml:space="preserve">
 <defs class="ClipPathGroup">
  <clipPath id="presentation_clip_path" clipPathUnits="userSpaceOnUse">
   <rect x="0" y="0" width="10000" height="2500"/>
  </clipPath>
  <clipPath id="presentation_clip_path_shrink" clipPathUnits="userSpaceOnUse">
   <rect x="10" y="2" width="9980" height="2495"/>
  </clipPath>
 </defs>
 <defs class="TextShapeIndex">
  <g ooo:slide="id1" ooo:id-list="id3 id4 id5 id6 id7 id8 id9 id10 id11 id12 id13 id14 id15 id16 id17 id18 id19 id20 id21 id22 id23 id24 id25 id26 id27 id28 id29 id30 id31 id32 id33 id34 id35"/>
 </defs>
 <defs class="EmbeddedBulletChars">
  <g id="bullet-char-template-57356" transform="scale(0.00048828125,-0.00048828125)">
   <path d="M 580,1141 L 1163,571 580,0 -4,571 580,1141 Z"/>
  </g>
  <g id="bullet-char-template-57354" transform="scale(0.00048828125,-0.00048828125)">
   <path d="M 8,1128 L 1137,1128 1137,0 8,0 8,1128 Z"/>
  </g>
  <g id="bullet-char-template-10146" transform="scale(0.00048828125,-0.00048828125)">
   <path d="M 174,0 L 602,739 174,1481 1456,739 174,0 Z M 1358,739 L 309,1346 659,739 1358,739 Z"/>
  </g>
  <g id="bullet-char-template-10132" transform="scale(0.00048828125,-0.00048828125)">
   <path d="M 2015,739 L 1276,0 717,0 1260,543 174,543 174,936 1260,936 717,1481 1274,1481 2015,739 Z"/>
  </g>
  <g id="bullet-char-template-10007" transform="scale(0.00048828125,-0.00048828125)">
   <path d="M 0,-2 C -7,14 -16,27 -25,37 L 356,567 C 262,823 215,952 215,954 215,979 228,992 255,992 264,992 276,990 289,987 310,991 331,999 354,1012 L 381,999 492,748 772,1049 836,1024 860,1049 C 881,1039 901,1025 922,1006 886,937 835,863 770,784 769,783 710,716 594,584 L 774,223 C 774,196 753,168 711,139 L 727,119 C 717,90 699,76 672,76 641,76 570,178 457,381 L 164,-76 C 142,-110 111,-127 72,-127 30,-127 9,-110 8,-76 1,-67 -2,-52 -2,-32 -2,-23 -1,-13 0,-2 Z"/>
  </g>
  <g id="bullet-char-template-10004" transform="scale(0.00048828125,-0.00048828125)">
   <path d="M 285,-33 C 182,-33 111,30 74,156 52,228 41,333 41,471 41,549 55,616 82,672 116,743 169,778 240,778 293,778 328,747 346,684 L 369,508 C 377,444 397,411 428,410 L 1163,1116 C 1174,1127 1196,1133 1229,1133 1271,1133 1292,1118 1292,1087 L 1292,965 C 1292,929 1282,901 1262,881 L 442,47 C 390,-6 338,-33 285,-33 Z"/>
  </g>
  <g id="bullet-char-template-9679" transform="scale(0.00048828125,-0.00048828125)">
   <path d="M 813,0 C 632,0 489,54 383,161 276,268 223,411 223,592 223,773 276,916 383,1023 489,1130 632,1184 813,1184 992,1184 1136,1130 1245,1023 1353,916 1407,772 1407,592 1407,412 1353,268 1245,161 1136,54 992,0 813,0 Z"/>
  </g>
  <g id="bullet-char-template-8226" transform="scale(0.00048828125,-0.00048828125)">
   <path d="M 346,457 C 273,457 209,483 155,535 101,586 74,649 74,723 74,796 101,859 155,911 209,963 273,989 346,989 419,989 480,963 531,910 582,859 608,796 608,723 608,648 583,586 532,535 482,483 420,457 346,457 Z"/>
  </g>
  <g id="bullet-char-template-8211" transform="scale(0.00048828125,-0.00048828125)">
   <path d="M -4,459 L 1135,459 1135,606 -4,606 -4,459 Z"/>
  </g>
  <g id="bullet-char-template-61548" transform="scale(0.00048828125,-0.00048828125)">
   <path d="M 173,740 C 173,903 231,1043 346,1159 462,1274 601,1332 765,1332 928,1332 1067,1274 1183,1159 1299,1043 1357,903 1357,740 1357,577 1299,437 1183,322 1067,206 928,148 765,148 601,148 462,206 346,322 231,437 173,577 173,740 Z"/>
  </g>
 </defs>
 <defs class="TextEmbeddedBitmaps"/>
 <g>
  <g id="id2" class="Master_Slide">
   <g id="bg-id2" class="Background"/>
   <g id="bo-id2" class="BackgroundObjects"/>
  </g>
 </g>
 <g class="SlideGroup">
  <g>
   <g id="container-id1">
    <g id="id1" class="Slide" clip-path="url(#presentation_clip_path)">
     <g class="Page">
      <g class="Group">
       <g class="com.sun.star.drawing.PolyPolygonShape">
        <g id="id3">
         <rect class="BoundingBox" stroke="none" fill="none" x="4515" y="958" width="146" height="59"/>
         <path fill="rgb(20,54,88)" stroke="none" d="M 4660,1015 L 4515,1015 4515,959 4660,959 4660,1015 Z"/>
        </g>
       </g>
       <g class="com.sun.star.drawing.PolyPolygonShape">
        <g id="id4">
         <rect class="BoundingBox" stroke="none" fill="none" x="6176" y="942" width="147" height="57"/>
         <path fill="rgb(20,54,88)" stroke="none" d="M 6321,998 L 6176,998 6176,943 6321,943 6321,998 Z"/>
        </g>
       </g>
       <g class="com.sun.star.drawing.PolyPolygonShape">
        <g id="id5">
         <rect class="BoundingBox" stroke="none" fill="none" x="1090" y="295" width="943" height="1003"/>
         <path fill="rgb(20,54,88)" stroke="none" d="M 1217,1297 L 1091,1297 2032,296 1217,1297 Z"/>
        </g>
       </g>
       <g class="com.sun.star.drawing.PolyPolygonShape">
        <g id="id6">
         <rect class="BoundingBox" stroke="none" fill="none" x="564" y="85" width="1128" height="1213"/>
         <path fill="rgb(20,54,88)" stroke="none" d="M 564,1297 L 1690,85 683,1297 564,1297 Z"/>
        </g>
       </g>
       <g class="com.sun.star.drawing.PolyPolygonShape">
        <g id="id7">
         <rect class="BoundingBox" stroke="none" fill="none" x="823" y="177" width="1049" height="1121"/>
         <path fill="rgb(20,54,88)" stroke="none" d="M 1870,177 L 947,1297 824,1297 1870,177 Z"/>
        </g>
       </g>
       <g class="com.sun.star.drawing.PolyPolygonShape">
        <g id="id8">
         <rect class="BoundingBox" stroke="none" fill="none" x="1257" y="975" width="476" height="323"/>
         <path fill="rgb(20,54,88)" stroke="none" d="M 1519,975 L 1257,1297 1732,1297 1519,975 Z"/>
        </g>
       </g>
       <g class="com.sun.star.drawing.PolyPolygonShape">
        <g id="id9">
         <rect class="BoundingBox" stroke="none" fill="none" x="990" y="796" width="461" height="502"/>
         <path fill="rgb(20,54,88)" stroke="none" d="M 1402,797 L 1450,869 1048,1297 990,1297 1402,797 Z"/>
        </g>
       </g>
       <g class="com.sun.star.drawing.PolyPolygonShape">
        <g id="id10">
         <rect class="BoundingBox" stroke="none" fill="none" x="723" y="621" width="616" height="677"/>
         <path fill="rgb(20,54,88)" stroke="none" d="M 1286,621 L 1338,701 782,1297 723,1297 1286,621 Z"/>
        </g>
       </g>
       <g class="com.sun.star.drawing.PolyPolygonShape">
        <g id="id11">
         <rect class="BoundingBox" stroke="none" fill="none" x="149" y="102" width="1082" height="1196"/>
         <path fill="rgb(20,54,88)" stroke="none" d="M 1229,535 L 522,1297 150,1297 943,102 1229,535 Z"/>
        </g>
       </g>
       <g class="com.sun.star.drawing.PolyPolygonShape">
        <g id="id12">
         <rect class="BoundingBox" stroke="none" fill="none" x="2443" y="1706" width="355" height="553"/>
         <path fill="rgb(20,54,88)" stroke="none" d="M 2528,2199 L 2796,2199 2786,2258 2443,2258 2542,1707 2616,1707 2528,2199 Z"/>
        </g>
       </g>
       <g class="com.sun.star.drawing.ClosedBezierShape">
        <g id="id13">
         <rect class="BoundingBox" stroke="none" fill="none" x="2869" y="1840" width="355" height="427"/>
         <path fill="rgb(20,54,88)" stroke="none" d="M 3078,1899 C 3052,1899 3029,1909 3009,1929 2986,1949 2972,1975 2962,2006 L 2962,2007 3147,2007 3149,2001 C 3154,1971 3151,1948 3140,1928 3129,1909 3108,1899 3078,1899 Z M 3024,2265 C 2965,2265 2922,2247 2897,2209 2870,2172 2863,2122 2874,2060 L 2877,2043 C 2888,1985 2913,1936 2954,1898 2994,1859 3039,1840 3088,1840 3142,1840 3180,1858 3202,1891 3223,1925 3228,1970 3218,2027 L 3210,2066 2950,2066 2948,2068 C 2941,2110 2945,2143 2957,2169 2971,2194 2998,2207 3034,2207 3059,2207 3082,2204 3102,2197 3122,2189 3141,2179 3156,2167 L 3176,2216 C 3160,2229 3139,2242 3113,2250 3087,2260 3058,2265 3024,2265 Z"/>
        </g>
       </g>
       <g class="com.sun.star.drawing.ClosedBezierShape">
        <g id="id14">
         <rect class="BoundingBox" stroke="none" fill="none" x="3459" y="1706" width="473" height="553"/>
         <path fill="rgb(20,54,88)" stroke="none" d="M 3622,1765 L 3545,2199 3644,2199 C 3694,2199 3737,2183 3772,2149 3807,2116 3830,2073 3839,2020 L 3853,1945 C 3861,1891 3855,1849 3831,1815 3809,1782 3771,1765 3720,1765 L 3622,1765 Z M 3460,2258 L 3559,1707 3732,1707 C 3802,1707 3856,1729 3892,1773 3927,1817 3938,1874 3926,1945 L 3913,2020 C 3901,2091 3869,2148 3817,2192 3766,2235 3704,2258 3634,2258 L 3460,2258 Z"/>
        </g>
       </g>
       <g class="com.sun.star.drawing.ClosedBezierShape">
        <g id="id15">
         <rect class="BoundingBox" stroke="none" fill="none" x="3983" y="1674" width="365" height="593"/>
         <path fill="rgb(20,54,88)" stroke="none" d="M 4260,1674 L 4346,1674 4346,1677 4228,1774 4171,1774 4260,1674 Z M 4192,1899 C 4165,1899 4142,1909 4122,1929 4101,1949 4087,1975 4077,2006 L 4077,2007 4262,2007 4263,2001 C 4268,1971 4266,1948 4254,1928 4243,1909 4223,1899 4192,1899 Z M 4137,2265 C 4079,2265 4037,2247 4011,2209 3985,2172 3977,2121 3989,2060 L 3991,2043 C 4001,1985 4028,1936 4068,1898 4108,1859 4152,1840 4202,1840 4257,1840 4295,1858 4316,1891 4338,1925 4343,1970 4333,2027 L 4325,2066 4064,2066 4063,2068 C 4056,2110 4059,2142 4072,2169 4086,2194 4111,2207 4147,2207 4173,2207 4195,2204 4217,2197 4237,2189 4256,2179 4271,2166 L 4291,2216 C 4275,2229 4253,2242 4228,2250 4200,2260 4171,2265 4137,2265 Z"/>
        </g>
       </g>
       <g class="com.sun.star.drawing.ClosedBezierShape">
        <g id="id16">
         <rect class="BoundingBox" stroke="none" fill="none" x="4345" y="1840" width="418" height="576"/>
         <path fill="rgb(20,54,88)" stroke="none" d="M 4681,2060 C 4690,2014 4688,1975 4675,1945 4662,1915 4639,1900 4602,1900 4581,1900 4562,1905 4544,1915 4528,1925 4513,1939 4501,1955 L 4466,2153 C 4472,2171 4482,2183 4495,2193 4509,2203 4526,2207 4548,2207 4583,2207 4612,2194 4636,2168 4659,2143 4673,2110 4680,2067 L 4681,2060 Z M 4754,2067 C 4744,2127 4722,2176 4686,2212 4652,2248 4610,2265 4560,2265 4535,2265 4514,2262 4496,2253 4479,2244 4465,2232 4455,2214 L 4419,2415 4345,2415 4446,1848 4503,1848 4505,1900 C 4521,1881 4540,1866 4563,1855 4584,1845 4608,1840 4636,1840 4686,1840 4722,1860 4742,1900 4763,1941 4767,1994 4756,2060 L 4754,2067 Z"/>
        </g>
       </g>
       <g class="com.sun.star.drawing.ClosedBezierShape">
        <g id="id17">
         <rect class="BoundingBox" stroke="none" fill="none" x="4813" y="1840" width="368" height="427"/>
         <path fill="rgb(20,54,88)" stroke="none" d="M 4946,2203 C 4974,2203 4999,2197 5023,2182 5047,2168 5065,2153 5075,2135 L 5086,2067 5003,2067 C 4972,2067 4946,2075 4926,2090 4906,2106 4894,2123 4890,2144 4887,2162 4890,2177 4899,2187 4909,2198 4924,2203 4946,2203 Z M 5061,2258 C 5060,2245 5060,2234 5061,2224 5061,2216 5062,2206 5064,2197 5046,2216 5026,2233 5001,2245 4977,2259 4950,2265 4924,2265 4882,2265 4852,2254 4833,2233 4815,2211 4809,2181 4817,2143 4823,2102 4844,2072 4880,2050 4915,2029 4959,2017 5014,2017 L 5095,2017 5103,1976 C 5106,1952 5103,1934 5091,1920 5079,1906 5060,1899 5033,1899 5008,1899 4988,1905 4970,1916 4953,1929 4943,1944 4940,1960 L 4870,1961 4870,1959 C 4873,1929 4892,1901 4925,1878 4959,1853 5001,1840 5047,1840 5094,1840 5128,1852 5152,1875 5176,1899 5184,1933 5176,1977 L 5142,2176 C 5139,2189 5137,2204 5135,2218 5135,2230 5135,2244 5137,2258 L 5061,2258 Z"/>
        </g>
       </g>
       <g class="com.sun.star.drawing.ClosedBezierShape">
        <g id="id18">
         <rect class="BoundingBox" stroke="none" fill="none" x="5232" y="1840" width="280" height="419"/>
         <path fill="rgb(20,54,88)" stroke="none" d="M 5487,1914 L 5451,1911 C 5431,1911 5413,1916 5398,1925 5383,1935 5370,1948 5360,1965 L 5307,2258 5233,2258 5306,1848 5373,1848 5370,1908 C 5385,1886 5402,1870 5421,1858 5441,1847 5461,1840 5482,1840 5489,1840 5494,1840 5499,1842 5504,1843 5508,1844 5510,1844 L 5487,1914 Z"/>
        </g>
       </g>
       <g class="com.sun.star.drawing.ClosedBezierShape">
        <g id="id19">
         <rect class="BoundingBox" stroke="none" fill="none" x="5530" y="1749" width="228" height="518"/>
         <path fill="rgb(20,54,88)" stroke="none" d="M 5696,1749 L 5679,1848 5757,1848 5747,1903 5670,1903 5625,2151 C 5621,2171 5622,2183 5628,2192 5635,2199 5645,2203 5657,2203 5662,2203 5669,2203 5674,2202 5679,2201 5684,2199 5688,2198 L 5689,2249 C 5683,2253 5674,2257 5661,2260 5650,2264 5639,2265 5628,2265 5598,2265 5576,2255 5562,2237 5547,2218 5543,2189 5550,2151 L 5594,1903 5530,1903 5539,1848 5605,1848 5622,1749 5696,1749 Z"/>
        </g>
       </g>
       <g class="com.sun.star.drawing.ClosedBezierShape">
        <g id="id20">
         <rect class="BoundingBox" stroke="none" fill="none" x="5774" y="1840" width="356" height="427"/>
         <path fill="rgb(20,54,88)" stroke="none" d="M 5984,1899 C 5957,1899 5935,1909 5914,1929 5893,1949 5878,1975 5869,2006 L 5869,2007 6053,2007 6054,2001 C 6059,1971 6057,1948 6045,1928 6034,1909 6014,1899 5984,1899 Z M 5930,2265 C 5872,2265 5829,2247 5802,2209 5776,2172 5768,2122 5780,2060 L 5782,2043 C 5792,1985 5820,1936 5860,1898 5901,1859 5945,1840 5994,1840 6048,1840 6086,1858 6107,1891 6127,1925 6134,1970 6123,2027 L 6116,2066 5856,2066 5855,2068 C 5848,2110 5851,2143 5864,2169 5878,2194 5903,2207 5940,2207 5965,2207 5987,2204 6008,2197 6028,2189 6047,2179 6062,2167 L 6082,2216 C 6066,2229 6044,2242 6019,2250 5992,2260 5964,2265 5930,2265 Z"/>
        </g>
       </g>
       <g class="com.sun.star.drawing.ClosedBezierShape">
        <g id="id21">
         <rect class="BoundingBox" stroke="none" fill="none" x="6163" y="1840" width="617" height="419"/>
         <path fill="rgb(20,54,88)" stroke="none" d="M 6305,1848 L 6300,1901 C 6316,1883 6336,1866 6359,1856 6380,1845 6406,1840 6432,1840 6460,1840 6481,1847 6499,1859 6516,1871 6528,1890 6533,1916 6549,1893 6570,1874 6593,1860 6617,1847 6642,1840 6670,1840 6712,1840 6742,1854 6761,1883 6780,1911 6783,1955 6773,2012 L 6730,2258 6656,2258 6700,2011 C 6707,1971 6705,1943 6694,1926 6684,1909 6665,1900 6637,1900 6612,1900 6591,1909 6572,1928 6553,1945 6539,1967 6531,1994 L 6531,1997 6485,2258 6411,2258 6455,2011 C 6461,1974 6458,1945 6448,1928 6437,1910 6418,1900 6392,1900 6369,1900 6350,1905 6334,1915 6317,1924 6303,1938 6293,1954 L 6238,2258 6164,2258 6237,1848 6305,1848 Z"/>
        </g>
       </g>
       <g class="com.sun.star.drawing.ClosedBezierShape">
        <g id="id22">
         <rect class="BoundingBox" stroke="none" fill="none" x="6848" y="1840" width="356" height="427"/>
         <path fill="rgb(20,54,88)" stroke="none" d="M 7058,1899 C 7031,1899 7009,1909 6989,1929 6968,1949 6953,1975 6943,2006 L 6945,2007 7127,2007 7128,2001 C 7133,1971 7131,1948 7120,1928 7108,1909 7088,1899 7058,1899 Z M 7005,2265 C 6946,2265 6904,2247 6878,2209 6850,2172 6843,2122 6854,2060 L 6856,2043 C 6869,1985 6894,1936 6934,1898 6975,1859 7020,1840 7068,1840 7122,1840 7160,1858 7181,1891 7203,1925 7208,1970 7198,2027 L 7191,2066 6931,2066 6929,2068 C 6922,2110 6926,2143 6940,2169 6952,2194 6977,2207 7015,2207 7040,2207 7063,2204 7083,2197 7103,2189 7121,2179 7136,2167 L 7157,2216 C 7140,2229 7118,2242 7093,2250 7068,2260 7038,2265 7005,2265 Z"/>
        </g>
       </g>
       <g class="com.sun.star.drawing.ClosedBezierShape">
        <g id="id23">
         <rect class="BoundingBox" stroke="none" fill="none" x="7239" y="1840" width="383" height="419"/>
         <path fill="rgb(20,54,88)" stroke="none" d="M 7378,1848 L 7371,1909 C 7389,1886 7409,1870 7432,1858 7455,1847 7479,1840 7505,1840 7550,1840 7582,1853 7601,1879 7621,1905 7626,1945 7616,1999 L 7569,2258 7495,2258 7541,2000 C 7548,1964 7545,1939 7534,1924 7523,1908 7501,1900 7472,1900 7450,1900 7429,1905 7412,1915 7394,1924 7379,1936 7366,1954 L 7312,2258 7239,2258 7311,1848 7378,1848 Z"/>
        </g>
       </g>
       <g class="com.sun.star.drawing.ClosedBezierShape">
        <g id="id24">
         <rect class="BoundingBox" stroke="none" fill="none" x="7702" y="1749" width="229" height="518"/>
         <path fill="rgb(20,54,88)" stroke="none" d="M 7869,1749 L 7851,1848 7929,1848 7921,1903 7841,1903 7797,2151 C 7795,2171 7796,2183 7802,2192 7808,2199 7819,2203 7831,2203 7836,2203 7840,2203 7846,2202 7851,2201 7856,2199 7860,2198 L 7861,2249 C 7855,2253 7846,2257 7835,2260 7824,2264 7812,2265 7802,2265 7772,2265 7749,2255 7735,2237 7720,2218 7717,2189 7724,2151 L 7768,1903 7703,1903 7713,1848 7777,1848 7795,1749 7869,1749 Z"/>
        </g>
       </g>
       <g class="com.sun.star.drawing.ClosedBezierShape">
        <g id="id25">
         <rect class="BoundingBox" stroke="none" fill="none" x="2379" y="390" width="677" height="908"/>
         <path fill="rgb(20,54,88)" stroke="none" d="M 2533,832 L 2731,832 C 2787,832 2829,817 2858,787 2887,757 2901,720 2901,673 2901,627 2887,589 2858,557 2829,528 2787,511 2731,511 L 2533,511 2533,832 Z M 2533,953 L 2533,1297 2379,1297 2379,390 2731,390 C 2831,390 2911,417 2967,468 3025,520 3054,587 3054,672 3054,757 3025,824 2967,877 2911,928 2831,953 2731,953 L 2533,953 Z"/>
        </g>
       </g>
       <g class="com.sun.star.drawing.ClosedBezierShape">
        <g id="id26">
         <rect class="BoundingBox" stroke="none" fill="none" x="3154" y="611" width="596" height="701"/>
         <path fill="rgb(20,54,88)" stroke="none" d="M 3406,1190 C 3445,1190 3479,1180 3509,1161 3540,1141 3560,1120 3571,1095 L 3571,995 3450,995 C 3404,995 3370,1006 3345,1029 3320,1050 3307,1076 3307,1105 3307,1131 3316,1151 3333,1166 3350,1181 3374,1190 3406,1190 Z M 3592,1297 C 3587,1281 3583,1263 3579,1247 3576,1231 3573,1216 3572,1200 3552,1231 3524,1257 3490,1278 3455,1299 3417,1310 3374,1310 3304,1310 3249,1292 3212,1256 3174,1219 3155,1171 3155,1107 3155,1042 3180,991 3233,955 3285,919 3358,902 3452,902 L 3571,902 3571,842 C 3571,807 3560,779 3539,759 3519,739 3489,730 3450,730 3414,730 3387,738 3367,754 3346,771 3335,792 3335,818 L 3189,818 3188,814 C 3185,762 3209,715 3259,673 3311,631 3377,611 3458,611 3538,611 3602,631 3651,672 3700,712 3724,768 3724,843 L 3724,1142 C 3724,1170 3727,1197 3731,1222 3734,1248 3739,1273 3748,1297 L 3592,1297 Z"/>
        </g>
       </g>
       <g class="com.sun.star.drawing.ClosedBezierShape">
        <g id="id27">
         <rect class="BoundingBox" stroke="none" fill="none" x="3857" y="611" width="560" height="701"/>
         <path fill="rgb(20,54,88)" stroke="none" d="M 4266,1113 C 4266,1090 4256,1071 4236,1056 4216,1041 4179,1027 4124,1015 4043,999 3983,975 3940,944 3898,912 3876,869 3876,817 3876,761 3901,712 3949,672 3996,631 4061,611 4139,611 4221,611 4286,631 4335,673 4384,715 4408,764 4407,823 L 4406,827 4260,827 C 4260,799 4248,776 4227,756 4204,736 4175,726 4139,726 4102,726 4075,733 4054,751 4035,767 4027,787 4027,811 4027,834 4035,852 4053,865 4071,879 4109,892 4164,903 4247,919 4310,944 4353,975 4394,1008 4416,1051 4416,1105 4416,1165 4391,1214 4340,1253 4290,1291 4223,1310 4141,1310 4053,1310 3983,1288 3932,1243 3879,1198 3855,1147 3858,1089 L 3859,1085 4003,1085 C 4004,1125 4018,1152 4044,1171 4072,1188 4105,1197 4143,1197 4182,1197 4212,1190 4233,1175 4255,1158 4266,1138 4266,1113 Z"/>
        </g>
       </g>
       <g class="com.sun.star.drawing.ClosedBezierShape">
        <g id="id28">
         <rect class="BoundingBox" stroke="none" fill="none" x="4754" y="325" width="595" height="987"/>
         <path fill="rgb(20,54,88)" stroke="none" d="M 4908,984 C 4908,1045 4919,1095 4945,1132 4969,1168 5006,1187 5059,1187 5091,1187 5118,1181 5141,1167 5162,1153 5181,1133 5195,1109 L 5195,814 C 5181,789 5162,771 5140,757 5117,743 5091,736 5060,736 5008,736 4970,757 4945,801 4921,844 4908,900 4908,970 L 4908,984 Z M 4754,970 C 4754,863 4777,777 4825,711 4872,645 4937,612 5021,612 5058,612 5091,620 5120,635 5149,648 5174,670 5195,697 L 5195,326 5348,326 5348,1297 5224,1297 5207,1212 C 5185,1244 5159,1268 5127,1286 5096,1302 5060,1310 5020,1310 4937,1310 4872,1281 4825,1221 4777,1160 4754,1081 4754,984 L 4754,970 Z"/>
        </g>
       </g>
       <g class="com.sun.star.drawing.ClosedBezierShape">
        <g id="id29">
         <rect class="BoundingBox" stroke="none" fill="none" x="5482" y="611" width="581" height="701"/>
         <path fill="rgb(20,54,88)" stroke="none" d="M 5783,733 C 5743,733 5712,747 5688,776 5664,804 5649,842 5642,887 L 5644,890 5911,890 5911,878 C 5911,836 5900,801 5880,773 5860,747 5827,733 5783,733 Z M 5800,1310 C 5700,1310 5622,1279 5567,1217 5510,1156 5482,1075 5482,976 L 5482,951 C 5482,853 5510,772 5567,707 5622,642 5694,610 5783,611 5875,611 5945,639 5991,696 6038,752 6062,826 6062,919 L 6062,1000 5640,1000 5639,1004 C 5641,1059 5655,1104 5683,1138 5710,1172 5752,1190 5807,1190 5850,1190 5887,1185 5917,1175 5947,1165 5975,1151 6001,1132 L 6052,1231 C 6025,1253 5991,1272 5948,1287 5906,1303 5856,1310 5800,1310 Z"/>
        </g>
       </g>
       <g class="com.sun.star.drawing.ClosedBezierShape">
        <g id="id30">
         <rect class="BoundingBox" stroke="none" fill="none" x="6421" y="377" width="701" height="935"/>
         <path fill="rgb(20,54,88)" stroke="none" d="M 7120,1000 L 7121,1004 C 7122,1095 7092,1168 7031,1224 6970,1282 6887,1310 6782,1310 6675,1310 6588,1274 6521,1202 6456,1131 6422,1040 6422,930 L 6422,757 C 6422,647 6455,556 6520,485 6586,413 6673,378 6777,378 6885,378 6970,405 7031,459 7093,514 7123,587 7121,682 L 7120,686 6972,686 C 6972,626 6956,579 6923,548 6889,515 6841,499 6777,499 6715,499 6666,524 6630,572 6592,621 6574,682 6574,756 L 6574,930 C 6574,1005 6593,1066 6631,1115 6667,1165 6718,1188 6782,1188 6844,1188 6892,1172 6924,1140 6956,1107 6972,1061 6972,1000 L 7120,1000 Z"/>
        </g>
       </g>
       <g class="com.sun.star.drawing.ClosedBezierShape">
        <g id="id31">
         <rect class="BoundingBox" stroke="none" fill="none" x="7222" y="611" width="596" height="701"/>
         <path fill="rgb(20,54,88)" stroke="none" d="M 7473,1190 C 7511,1190 7547,1180 7577,1161 7608,1141 7628,1120 7638,1095 L 7638,995 7516,995 C 7472,995 7438,1006 7413,1029 7388,1050 7375,1076 7375,1105 7375,1131 7384,1151 7400,1166 7417,1181 7442,1190 7473,1190 Z M 7660,1297 C 7655,1281 7650,1263 7647,1247 7644,1231 7641,1216 7640,1200 7618,1231 7592,1257 7557,1278 7523,1299 7485,1310 7442,1310 7371,1310 7317,1292 7280,1256 7242,1219 7223,1171 7223,1107 7223,1042 7248,991 7300,955 7353,919 7426,902 7519,902 L 7638,902 7638,842 C 7638,807 7628,779 7607,759 7587,739 7557,730 7516,730 7482,730 7455,738 7434,754 7413,771 7403,792 7403,818 L 7257,818 7256,814 C 7253,762 7277,715 7327,673 7379,631 7445,611 7526,611 7606,611 7669,631 7718,672 7767,712 7792,768 7792,843 L 7792,1142 C 7792,1170 7793,1197 7797,1222 7801,1248 7807,1273 7816,1297 L 7660,1297 Z"/>
        </g>
       </g>
       <g class="com.sun.star.drawing.PolyPolygonShape">
        <g id="id32">
         <rect class="BoundingBox" stroke="none" fill="none" x="7960" y="325" width="156" height="973"/>
         <path fill="rgb(20,54,88)" stroke="none" d="M 8115,1297 L 7961,1297 7961,326 8115,326 8115,1297 Z"/>
        </g>
       </g>
       <g class="com.sun.star.drawing.ClosedBezierShape">
        <g id="id33">
         <rect class="BoundingBox" stroke="none" fill="none" x="8255" y="611" width="595" height="701"/>
         <path fill="rgb(20,54,88)" stroke="none" d="M 8507,1190 C 8547,1190 8581,1180 8611,1161 8642,1141 8662,1120 8672,1095 L 8672,995 8552,995 C 8507,995 8472,1006 8447,1029 8422,1050 8409,1076 8409,1105 8409,1131 8418,1151 8434,1166 8452,1181 8476,1190 8507,1190 Z M 8695,1297 C 8689,1281 8685,1263 8681,1247 8677,1231 8675,1216 8674,1200 8654,1231 8626,1257 8592,1278 8557,1299 8519,1310 8476,1310 8405,1310 8350,1292 8312,1256 8274,1219 8256,1171 8256,1107 8256,1042 8282,991 8334,955 8387,919 8460,902 8554,902 L 8672,902 8672,842 C 8672,807 8662,779 8641,759 8621,739 8591,730 8552,730 8516,730 8489,738 8468,754 8448,771 8437,792 8437,818 L 8290,818 8288,814 C 8286,762 8310,715 8360,673 8413,631 8478,611 8560,611 8640,611 8704,631 8752,672 8801,712 8825,768 8825,843 L 8825,1142 C 8825,1170 8827,1197 8831,1222 8835,1248 8841,1273 8849,1297 L 8695,1297 Z"/>
        </g>
       </g>
       <g class="com.sun.star.drawing.PolyPolygonShape">
        <g id="id34">
         <rect class="BoundingBox" stroke="none" fill="none" x="8993" y="325" width="156" height="973"/>
         <path fill="rgb(20,54,88)" stroke="none" d="M 9147,1297 L 8994,1297 8994,625 9147,625 9147,1297 Z M 9147,460 L 8994,460 8994,326 9147,326 9147,460 Z"/>
        </g>
       </g>
       <g class="com.sun.star.drawing.ClosedBezierShape">
        <g id="id35">
         <rect class="BoundingBox" stroke="none" fill="none" x="9292" y="611" width="560" height="701"/>
         <path fill="rgb(20,54,88)" stroke="none" d="M 9700,1113 C 9700,1090 9690,1071 9670,1056 9650,1041 9613,1027 9558,1015 9477,999 9416,975 9373,944 9331,912 9310,869 9310,817 9310,761 9334,712 9382,672 9430,631 9495,611 9573,611 9655,611 9720,631 9770,673 9819,715 9843,764 9841,823 L 9840,827 9693,827 C 9693,799 9683,776 9660,756 9639,736 9610,726 9573,726 9537,726 9509,733 9489,751 9470,767 9460,787 9460,811 9460,834 9470,852 9487,865 9505,879 9543,892 9598,903 9681,919 9744,944 9787,975 9829,1008 9850,1051 9850,1105 9850,1165 9825,1214 9775,1253 9724,1291 9657,1310 9576,1310 9486,1310 9416,1288 9365,1243 9314,1198 9290,1147 9292,1089 L 9294,1085 9435,1085 C 9437,1125 9451,1152 9479,1171 9506,1188 9539,1197 9577,1197 9616,1197 9646,1190 9668,1175 9689,1158 9700,1138 9700,1113 Z"/>
        </g>
       </g>
      </g>
     </g>
    </g>
   </g>
  </g>
 </g>
</svg>