<?xml version="1.0" encoding="UTF-8" standalone="no"?>
<!-- Created with Inkscape (http://www.inkscape.org/) -->

<svg
   xmlns:dc="http://purl.org/dc/elements/1.1/"
   xmlns:cc="http://creativecommons.org/ns#"
   xmlns:rdf="http://www.w3.org/1999/02/22-rdf-syntax-ns#"
   xmlns:svg="http://www.w3.org/2000/svg"
   xmlns="http://www.w3.org/2000/svg"
   xmlns:sodipodi="http://sodipodi.sourceforge.net/DTD/sodipodi-0.dtd"
   xmlns:inkscape="http://www.inkscape.org/namespaces/inkscape"
   width="84.666664mm"
   height="90.046936mm"
   viewBox="0 0 299.99999 319.06395"
   id="svg4906"
   version="1.1"
   inkscape:version="0.91 r13725"
   sodipodi:docname="Seine-Maritime (76) logo 2018.svg">
  <defs
     id="defs4908">
    <clipPath
       clipPathUnits="userSpaceOnUse"
       id="clipPath524">
      <path
         d="m 6.827,6.827 566.929,0 0,850.394 -566.929,0 0,-850.394 z"
         id="path526"
         inkscape:connector-curvature="0" />
    </clipPath>
    <clipPath
       clipPathUnits="userSpaceOnUse"
       id="clipPath364">
      <path
         d="m 6.827,6.827 566.929,0 0,850.394 -566.929,0 0,-850.394 z"
         id="path366"
         inkscape:connector-curvature="0" />
    </clipPath>
    <clipPath
       clipPathUnits="userSpaceOnUse"
       id="clipPath372">
      <path
         d="m 355.031,369.267 151.547,0 0,-71.613 -151.547,0 0,71.613 z"
         id="path374"
         inkscape:connector-curvature="0" />
    </clipPath>
    <clipPath
       clipPathUnits="userSpaceOnUse"
       id="clipPath376">
      <path
         d="m 356.032,298.653 140.072,0 0,69.614 -140.072,0 0,-69.614 z"
         id="path378"
         inkscape:connector-curvature="0" />
    </clipPath>
    <clipPath
       clipPathUnits="userSpaceOnUse"
       id="clipPath460">
      <path
         d="m 6.827,6.827 566.929,0 0,850.394 -566.929,0 0,-850.394 z"
         id="path462"
         inkscape:connector-curvature="0" />
    </clipPath>
  </defs>
  <sodipodi:namedview
     id="base"
     pagecolor="#ffffff"
     bordercolor="#666666"
     borderopacity="1.0"
     inkscape:pageopacity="0.0"
     inkscape:pageshadow="2"
     inkscape:zoom="1.5696922"
     inkscape:cx="148.30189"
     inkscape:cy="160.76423"
     inkscape:document-units="px"
     inkscape:current-layer="layer1"
     showgrid="false"
     fit-margin-top="0"
     fit-margin-left="0"
     fit-margin-right="0"
     fit-margin-bottom="0"
     inkscape:window-width="1366"
     inkscape:window-height="705"
     inkscape:window-x="-8"
     inkscape:window-y="-8"
     inkscape:window-maximized="1" />
  <metadata
     id="metadata4911">
    <rdf:RDF>
      <cc:Work
         rdf:about="">
        <dc:format>image/svg+xml</dc:format>
        <dc:type
           rdf:resource="http://purl.org/dc/dcmitype/StillImage" />
        <dc:title></dc:title>
      </cc:Work>
    </rdf:RDF>
  </metadata>
  <g
     inkscape:label="Calque 1"
     inkscape:groupmode="layer"
     id="layer1"
     transform="translate(-279.84575,-553.67071)">
    <g
       transform="matrix(4.8793103,0,0,-4.8793103,1.7260409,1149.9478)"
       id="g360">
      <g
         id="g362"
         clip-path="url(#clipPath364)">
        <g
           id="g368">
          <g
             id="g370" />
          <g
             id="g380">
            <g
               clip-path="url(#clipPath372)"
               id="g382">
              <g
                 id="g384">
                <g
                   id="g386">
                  <g
                     clip-path="url(#clipPath376)"
                     id="g388">
                    <g
                       id="g390">
                      <g
                         transform="matrix(141.1344,0,0,70.963199,354.96935,297.57757)"
                         id="g392" />
                    </g>
                  </g>
                </g>
              </g>
            </g>
          </g>
        </g>
        <g
           id="g396"
           transform="translate(59.8118,68.1653)">
          <path
             d="m 0,0 c 1.323,-1.558 1.447,-2.067 1.447,-3.156 0,-1.241 -0.689,-2.164 -2.067,-2.164 -1.475,0 -2.192,0.992 -2.192,2.481 0,0.206 0.069,0.344 0.276,0.344 l 1.089,0 c 0.206,0 0.275,-0.069 0.275,-0.276 0,-0.413 0,-0.978 0.483,-0.978 0.482,0 0.482,0.441 0.482,0.951 0,0.524 -0.413,1.089 -1.144,1.943 -1.323,1.558 -1.461,2.068 -1.461,3.157 0,1.241 0.689,2.164 2.068,2.164 1.475,0 2.191,-0.993 2.191,-2.481 C 1.447,1.778 1.379,1.64 1.172,1.64 l -1.089,0 c -0.207,0 -0.276,0.069 -0.276,0.276 0,0.414 0,0.979 -0.482,0.979 -0.483,0 -0.483,-0.441 -0.483,-0.951 C -1.158,1.42 -0.73,0.855 0,0"
             style="fill:#2b2b2a;fill-opacity:1;fill-rule:nonzero;stroke:none"
             id="path398"
             inkscape:connector-curvature="0" />
        </g>
        <g
           id="g400"
           transform="translate(61.9486,63.1893)">
          <path
             d="m 0,0 0,9.097 c 0,0.207 0.069,0.276 0.276,0.276 l 2.977,0 c 0.207,0 0.276,-0.069 0.276,-0.276 l 0,-1.019 C 3.529,7.871 3.46,7.802 3.253,7.802 l -1.323,0 c -0.276,0 -0.276,0 -0.276,-0.276 l 0,-1.654 c 0,-0.276 0,-0.276 0.276,-0.276 l 1.323,0 c 0.207,0 0.276,-0.069 0.276,-0.276 l 0,-1.019 C 3.529,4.094 3.46,4.025 3.253,4.025 l -1.323,0 c -0.276,0 -0.276,0 -0.276,-0.276 l 0,-2.178 c 0,-0.275 0,-0.275 0.276,-0.275 l 1.323,0 c 0.207,0 0.276,-0.069 0.276,-0.276 l 0,-1.02 c 0,-0.207 -0.069,-0.276 -0.276,-0.276 l -2.977,0 C 0.138,-0.276 0,-0.276 0,0"
             style="fill:#2b2b2a;fill-opacity:1;fill-rule:nonzero;stroke:none"
             id="path402"
             inkscape:connector-curvature="0" />
        </g>
        <g
           id="g404"
           transform="translate(66.3734,63.1893)">
          <path
             d="m 0,0 0,9.097 c 0,0.207 0.069,0.276 0.276,0.276 l 1.103,0 c 0.206,0 0.275,-0.069 0.275,-0.276 L 1.654,0 c 0,-0.276 -0.138,-0.276 -0.275,-0.276 l -1.103,0 C 0.138,-0.276 0,-0.276 0,0"
             style="fill:#2b2b2a;fill-opacity:1;fill-rule:nonzero;stroke:none"
             id="path406"
             inkscape:connector-curvature="0" />
        </g>
        <g
           id="g408"
           transform="translate(72.0249,63.0791)">
          <path
             d="m 0,0 -1.337,3.915 c -0.028,0.096 -0.11,0.069 -0.11,0 l 0,-3.805 c 0,-0.207 -0.069,-0.275 -0.276,-0.275 l -1.103,0 c -0.207,0 -0.276,0.068 -0.276,0.275 l 0,9.098 c 0,0.206 0.069,0.275 0.276,0.275 l 0.965,0 c 0.152,0 0.221,-0.027 0.276,-0.179 l 1.337,-3.956 c 0.027,-0.082 0.11,-0.069 0.11,0 l 0,3.86 c 0,0.206 0.069,0.275 0.276,0.275 l 1.103,0 c 0.206,0 0.275,-0.069 0.275,-0.275 l 0,-9.098 c 0,-0.207 -0.069,-0.275 -0.275,-0.275 l -0.965,0 C 0.152,-0.165 0.055,-0.138 0,0"
             style="fill:#2b2b2a;fill-opacity:1;fill-rule:nonzero;stroke:none"
             id="path410"
             inkscape:connector-curvature="0" />
        </g>
        <g
           id="g412"
           transform="translate(74.437,63.1893)">
          <path
             d="m 0,0 0,9.097 c 0,0.207 0.069,0.276 0.276,0.276 l 2.977,0 c 0.207,0 0.276,-0.069 0.276,-0.276 l 0,-1.019 C 3.529,7.871 3.46,7.802 3.253,7.802 l -1.323,0 c -0.276,0 -0.276,0 -0.276,-0.276 l 0,-1.654 c 0,-0.276 0,-0.276 0.276,-0.276 l 1.323,0 c 0.207,0 0.276,-0.069 0.276,-0.276 l 0,-1.019 C 3.529,4.094 3.46,4.025 3.253,4.025 l -1.323,0 c -0.276,0 -0.276,0 -0.276,-0.276 l 0,-2.178 c 0,-0.275 0,-0.275 0.276,-0.275 l 1.323,0 c 0.207,0 0.276,-0.069 0.276,-0.276 l 0,-1.02 c 0,-0.207 -0.069,-0.276 -0.276,-0.276 l -2.977,0 C 0.138,-0.276 0,-0.276 0,0"
             style="fill:#2b2b2a;fill-opacity:1;fill-rule:nonzero;stroke:none"
             id="path414"
             inkscape:connector-curvature="0" />
        </g>
        <g
           id="g416"
           transform="translate(79.1378,67.3519)">
          <path
             d="m 0,0 1.411,0 c 0.207,0 0.276,-0.069 0.276,-0.276 l 0,-1.019 c 0,-0.207 -0.069,-0.276 -0.276,-0.276 l -1.411,0 c -0.207,0 -0.276,0.069 -0.276,0.276 l 0,1.019 C -0.276,-0.069 -0.207,0 0,0"
             style="fill:#2b2b2a;fill-opacity:1;fill-rule:nonzero;stroke:none"
             id="path418"
             inkscape:connector-curvature="0" />
        </g>
        <g
           id="g420"
           transform="translate(85.8835,62.9136)">
          <path
             d="m 0,0 c -0.165,0 -0.276,0.069 -0.276,0.276 l 0,3.804 c 0,0.069 -0.069,0.069 -0.082,0.014 L -0.799,2.826 C -0.855,2.633 -0.965,2.633 -1.144,2.633 l -0.538,0 c -0.137,0 -0.248,0 -0.303,0.193 L -2.426,4.094 C -2.44,4.149 -2.509,4.149 -2.509,4.08 l 0,-3.804 C -2.509,0.069 -2.578,0 -2.784,0 l -1.103,0 c -0.207,0 -0.276,0.069 -0.276,0.276 l 0,9.097 c 0,0.207 0.069,0.276 0.276,0.276 l 0.965,0 c 0.165,0 0.22,-0.042 0.262,-0.166 l 1.213,-3.611 c 0.013,-0.055 0.096,-0.055 0.11,0 l 1.213,3.639 c 0.041,0.11 0.11,0.138 0.262,0.138 l 0.965,0 c 0.206,0 0.275,-0.069 0.275,-0.276 l 0,-9.097 C 1.378,0.069 1.296,0 1.103,0 L 0,0 Z"
             style="fill:#2b2b2a;fill-opacity:1;fill-rule:nonzero;stroke:none"
             id="path422"
             inkscape:connector-curvature="0" />
        </g>
        <g
           id="g424"
           transform="translate(91.4109,62.9136)">
          <path
             d="m 0,0 c -0.179,0 -0.262,0 -0.303,0.207 l -0.166,1.089 c -0.055,0.275 -0.055,0.275 -0.303,0.275 l -0.524,0 c -0.248,0 -0.248,0 -0.303,-0.275 L -1.764,0.207 C -1.806,0 -1.888,0 -2.068,0 L -3.212,0 C -3.35,0 -3.487,0 -3.446,0.234 l 1.599,9.167 c 0.041,0.206 0.083,0.248 0.303,0.248 l 1.02,0 c 0.221,0 0.262,-0.042 0.303,-0.248 L 1.378,0.234 C 1.42,0 1.282,0 1.144,0 L 0,0 Z M -1.365,3.212 C -1.406,2.936 -1.406,2.936 -1.13,2.936 l 0.193,0 c 0.275,0 0.275,0 0.234,0.276 l -0.276,1.833 c -0.013,0.069 -0.096,0.069 -0.11,0 L -1.365,3.212 Z"
             style="fill:#2b2b2a;fill-opacity:1;fill-rule:nonzero;stroke:none"
             id="path426"
             inkscape:connector-curvature="0" />
        </g>
        <g
           id="g428"
           transform="translate(97.0625,67.0628)">
          <path
             d="M 0,0 0.689,-3.86 C 0.731,-4.08 0.607,-4.149 0.496,-4.149 l -1.116,0 c -0.179,0 -0.262,0 -0.304,0.207 l -0.592,3.39 -0.124,0 c -0.276,0 -0.276,0 -0.276,-0.275 l 0,-3.047 c 0,-0.206 -0.069,-0.275 -0.276,-0.275 l -1.102,0 c -0.207,0 -0.276,0.069 -0.276,0.275 l 0,9.098 c 0,0.207 0.069,0.275 0.276,0.275 l 1.654,0 c 1.378,0 2.343,-0.688 2.343,-2.756 l 0,-0.538 C 0.703,1.13 0.441,0.427 0,0 m -1.916,1.227 c 0,-0.276 0,-0.276 0.276,-0.276 0.689,0 0.689,0.703 0.689,1.406 l 0,0.234 c 0,0.703 0,1.406 -0.689,1.406 -0.276,0 -0.276,0 -0.276,-0.275 l 0,-2.495 z"
             style="fill:#2b2b2a;fill-opacity:1;fill-rule:nonzero;stroke:none"
             id="path430"
             inkscape:connector-curvature="0" />
        </g>
        <g
           id="g432"
           transform="translate(98.6616,63.1893)">
          <path
             d="m 0,0 0,9.097 c 0,0.207 0.069,0.276 0.276,0.276 l 1.103,0 c 0.206,0 0.275,-0.069 0.275,-0.276 L 1.654,0 c 0,-0.276 -0.138,-0.276 -0.275,-0.276 l -1.103,0 C 0.138,-0.276 0,-0.276 0,0"
             style="fill:#2b2b2a;fill-opacity:1;fill-rule:nonzero;stroke:none"
             id="path434"
             inkscape:connector-curvature="0" />
        </g>
        <g
           id="g436"
           transform="translate(101.3495,72.5622)">
          <path
             d="M 0,0 3.584,0 C 3.791,0 3.86,-0.069 3.86,-0.276 l 0,-0.951 c 0,-0.206 -0.069,-0.275 -0.276,-0.275 l -0.689,0 c -0.276,0 -0.276,0 -0.276,-0.276 l 0,-7.595 c 0,-0.276 -0.138,-0.276 -0.276,-0.276 l -1.102,0 c -0.138,0 -0.276,0 -0.276,0.276 l 0,7.595 c 0,0.276 0,0.276 -0.262,0.276 l -0.703,0 c -0.276,0 -0.276,0.137 -0.276,0.275 l 0,0.951 C -0.276,-0.138 -0.276,0 0,0"
             style="fill:#2b2b2a;fill-opacity:1;fill-rule:nonzero;stroke:none"
             id="path438"
             inkscape:connector-curvature="0" />
        </g>
        <g
           id="g440"
           transform="translate(105.9674,63.1893)">
          <path
             d="m 0,0 0,9.097 c 0,0.207 0.069,0.276 0.276,0.276 l 1.103,0 c 0.206,0 0.275,-0.069 0.275,-0.276 L 1.654,0 c 0,-0.276 -0.137,-0.276 -0.275,-0.276 l -1.103,0 C 0.138,-0.276 0,-0.276 0,0"
             style="fill:#2b2b2a;fill-opacity:1;fill-rule:nonzero;stroke:none"
             id="path442"
             inkscape:connector-curvature="0" />
        </g>
        <g
           id="g444"
           transform="translate(112.6803,62.9136)">
          <path
             d="m 0,0 c -0.165,0 -0.276,0.069 -0.276,0.276 l 0,3.804 c 0,0.069 -0.069,0.069 -0.082,0.014 L -0.799,2.826 C -0.855,2.633 -0.965,2.633 -1.144,2.633 l -0.538,0 c -0.138,0 -0.248,0 -0.303,0.193 L -2.426,4.094 C -2.44,4.149 -2.509,4.149 -2.509,4.08 l 0,-3.804 C -2.509,0.069 -2.578,0 -2.785,0 l -1.102,0 c -0.207,0 -0.276,0.069 -0.276,0.276 l 0,9.097 c 0,0.207 0.069,0.276 0.276,0.276 l 0.965,0 c 0.165,0 0.22,-0.042 0.262,-0.166 l 1.213,-3.611 c 0.013,-0.055 0.096,-0.055 0.11,0 l 1.213,3.639 c 0.041,0.11 0.11,0.138 0.262,0.138 l 0.965,0 c 0.206,0 0.275,-0.069 0.275,-0.276 l 0,-9.097 C 1.378,0.069 1.295,0 1.103,0 L 0,0 Z"
             style="fill:#2b2b2a;fill-opacity:1;fill-rule:nonzero;stroke:none"
             id="path446"
             inkscape:connector-curvature="0" />
        </g>
        <g
           id="g448"
           transform="translate(114.9549,63.1893)">
          <path
             d="m 0,0 0,9.097 c 0,0.207 0.069,0.276 0.276,0.276 l 2.977,0 c 0.207,0 0.276,-0.069 0.276,-0.276 l 0,-1.019 C 3.529,7.871 3.46,7.802 3.253,7.802 l -1.323,0 c -0.276,0 -0.276,0 -0.276,-0.276 l 0,-1.654 c 0,-0.276 0,-0.276 0.276,-0.276 l 1.323,0 c 0.207,0 0.276,-0.069 0.276,-0.276 l 0,-1.019 C 3.529,4.094 3.46,4.025 3.253,4.025 l -1.323,0 c -0.276,0 -0.276,0 -0.276,-0.276 l 0,-2.178 c 0,-0.275 0,-0.275 0.276,-0.275 l 1.323,0 c 0.207,0 0.276,-0.069 0.276,-0.276 l 0,-1.02 c 0,-0.207 -0.069,-0.276 -0.276,-0.276 l -2.977,0 C 0.138,-0.276 0,-0.276 0,0"
             style="fill:#2b2b2a;fill-opacity:1;fill-rule:nonzero;stroke:none"
             id="path450"
             inkscape:connector-curvature="0" />
        </g>
      </g>
    </g>
    <g
       id="g452"
       transform="matrix(4.8793103,0,0,-4.8793103,280.1834,863.82303)">
      <path
         d="m 0,0 -0.069,-0.268 1.113,0 L 1.118,0 0,0 Z"
         style="fill:#009db6;fill-opacity:1;fill-rule:nonzero;stroke:none"
         id="path454"
         inkscape:connector-curvature="0" />
    </g>
    <g
       transform="matrix(4.8793103,0,0,-4.8793103,1.7260409,1149.9478)"
       id="g456">
      <g
         id="g458"
         clip-path="url(#clipPath460)">
        <g
           id="g464"
           transform="translate(63.9406,57.6249)">
          <path
             d="m 0,0 c -0.029,-0.151 -0.132,-0.615 -0.176,-0.767 l -2.212,0 0,0.137 c 0.411,0.029 0.45,0.064 0.45,0.479 l 0,1.952 c 0,0.415 -0.035,0.44 -0.43,0.469 l 0,0.137 1.274,0 0,-0.137 C -1.479,2.241 -1.523,2.216 -1.523,1.801 l 0,-1.928 c 0,-0.264 0.024,-0.361 0.112,-0.41 0.098,-0.054 0.264,-0.064 0.469,-0.064 0.268,0 0.434,0.025 0.547,0.152 0.083,0.097 0.175,0.254 0.248,0.478 L 0,0 Z"
             style="fill:#009db6;fill-opacity:1;fill-rule:nonzero;stroke:none"
             id="path466"
             inkscape:connector-curvature="0" />
        </g>
        <g
           id="g468"
           transform="translate(67.5745,57.6297)">
          <path
             d="m 0,0 c -0.029,-0.161 -0.127,-0.62 -0.171,-0.771 l -2.353,0 0,0.136 c 0.444,0.034 0.483,0.073 0.483,0.469 l 0,1.943 c 0,0.439 -0.039,0.454 -0.42,0.488 l 0,0.137 2.178,0 c 0,-0.122 0.024,-0.454 0.039,-0.703 L -0.386,1.675 C -0.43,1.88 -0.478,1.987 -0.542,2.094 -0.61,2.197 -0.742,2.231 -1.094,2.231 l -0.371,0 c -0.151,0 -0.161,-0.01 -0.161,-0.156 l 0,-1.108 0.459,0 c 0.44,0 0.464,0.039 0.528,0.366 l 0.141,0 0,-0.938 -0.141,0 c -0.064,0.352 -0.098,0.381 -0.523,0.381 l -0.464,0 0,-0.923 c 0,-0.229 0.03,-0.331 0.117,-0.395 0.093,-0.059 0.264,-0.064 0.508,-0.064 0.371,0 0.508,0.04 0.615,0.166 0.083,0.098 0.176,0.264 0.239,0.459 L 0,0 Z"
             style="fill:#009db6;fill-opacity:1;fill-rule:nonzero;stroke:none"
             id="path470"
             inkscape:connector-curvature="0" />
        </g>
        <g
           id="g472"
           transform="translate(72.1764,60.0319)">
          <path
             d="m 0,0 c 0.62,0 1.079,-0.127 1.382,-0.415 0.239,-0.235 0.41,-0.591 0.41,-1.05 0,-0.585 -0.225,-1.02 -0.601,-1.303 -0.366,-0.284 -0.849,-0.406 -1.45,-0.406 l -1.157,0 0,0.132 c 0.42,0.029 0.459,0.059 0.459,0.474 l 0,1.958 c 0,0.419 -0.039,0.439 -0.415,0.468 L -1.372,0 0,0 Z m -0.537,-2.534 c 0,-0.371 0.161,-0.464 0.518,-0.464 0.912,0 1.333,0.684 1.333,1.465 0,0.503 -0.186,0.937 -0.577,1.167 -0.219,0.141 -0.502,0.2 -0.83,0.2 -0.205,0 -0.332,-0.025 -0.381,-0.059 -0.048,-0.034 -0.063,-0.087 -0.063,-0.278 l 0,-2.031 z"
             style="fill:#009db6;fill-opacity:1;fill-rule:nonzero;stroke:none"
             id="path474"
             inkscape:connector-curvature="0" />
        </g>
        <g
           id="g476"
           transform="translate(77.7154,57.6297)">
          <path
             d="m 0,0 c -0.029,-0.161 -0.127,-0.62 -0.171,-0.771 l -2.353,0 0,0.136 c 0.444,0.034 0.483,0.073 0.483,0.469 l 0,1.943 c 0,0.439 -0.039,0.454 -0.42,0.488 l 0,0.137 2.178,0 c 0,-0.122 0.024,-0.454 0.039,-0.703 L -0.386,1.675 C -0.43,1.88 -0.478,1.987 -0.542,2.094 -0.61,2.197 -0.742,2.231 -1.094,2.231 l -0.371,0 c -0.151,0 -0.161,-0.01 -0.161,-0.156 l 0,-1.108 0.459,0 c 0.44,0 0.464,0.039 0.528,0.366 l 0.141,0 0,-0.938 -0.141,0 c -0.064,0.352 -0.098,0.381 -0.523,0.381 l -0.464,0 0,-0.923 c 0,-0.229 0.03,-0.331 0.117,-0.395 0.093,-0.059 0.264,-0.064 0.508,-0.064 0.371,0 0.508,0.04 0.615,0.166 0.083,0.098 0.176,0.264 0.239,0.459 L 0,0 Z M -0.571,2.88 -1.474,2.568 -1.538,2.69 c 0.264,0.166 0.542,0.352 0.767,0.498 0.058,-0.01 0.195,-0.2 0.209,-0.268 L -0.571,2.88 Z"
             style="fill:#009db6;fill-opacity:1;fill-rule:nonzero;stroke:none"
             id="path478"
             inkscape:connector-curvature="0" />
        </g>
        <g
           id="g480"
           transform="translate(80.1583,60.0319)">
          <path
             d="m 0,0 c 0.347,0 0.625,-0.059 0.82,-0.205 0.191,-0.142 0.318,-0.366 0.318,-0.688 0,-0.63 -0.479,-0.938 -0.952,-1.001 -0.073,-0.005 -0.166,-0.005 -0.22,0 l -0.361,0.092 0,-0.766 c 0,-0.415 0.044,-0.44 0.483,-0.469 l 0,-0.137 -1.323,0 0,0.137 c 0.39,0.029 0.43,0.068 0.43,0.474 l 0,1.953 c 0,0.429 -0.04,0.449 -0.401,0.473 L -1.206,0 0,0 Z m -0.395,-1.641 c 0.063,-0.024 0.195,-0.058 0.356,-0.058 0.318,0 0.708,0.171 0.708,0.791 0,0.527 -0.337,0.752 -0.737,0.752 -0.137,0 -0.239,-0.025 -0.274,-0.059 -0.039,-0.034 -0.053,-0.093 -0.053,-0.229 l 0,-1.197 z"
             style="fill:#009db6;fill-opacity:1;fill-rule:nonzero;stroke:none"
             id="path482"
             inkscape:connector-curvature="0" />
        </g>
        <g
           id="g484"
           transform="translate(84.0559,56.8583)">
          <path
             d="M 0,0 0,0.137 C 0.308,0.176 0.352,0.215 0.288,0.405 0.224,0.596 0.127,0.859 0.019,1.157 l -1.039,0 C -1.098,0.937 -1.172,0.732 -1.235,0.527 -1.343,0.22 -1.299,0.171 -0.933,0.137 l 0,-0.137 -1.059,0 0,0.137 c 0.308,0.043 0.376,0.073 0.547,0.502 l 1.011,2.564 0.151,0.044 C 0.019,2.407 0.347,1.479 0.659,0.63 0.815,0.21 0.879,0.166 1.196,0.137 L 1.196,0 0,0 Z m -0.478,2.612 -0.01,0 C -0.644,2.192 -0.801,1.767 -0.947,1.367 l 0.898,0 -0.429,1.245 z"
             style="fill:#009db6;fill-opacity:1;fill-rule:nonzero;stroke:none"
             id="path486"
             inkscape:connector-curvature="0" />
        </g>
        <g
           id="g488"
           transform="translate(89.3067,56.8191)">
          <path
             d="m 0,0 c -0.059,0 -0.112,0 -0.171,0.005 -0.366,0.02 -0.571,0.127 -0.791,0.444 -0.171,0.239 -0.346,0.542 -0.493,0.781 -0.083,0.137 -0.166,0.196 -0.42,0.196 l -0.156,0 0,-0.776 c 0,-0.415 0.044,-0.445 0.434,-0.474 l 0,-0.137 -1.284,0 0,0.137 c 0.401,0.029 0.445,0.059 0.445,0.474 l 0,1.962 c 0,0.415 -0.04,0.43 -0.42,0.464 l 0,0.137 1.21,0 c 0.357,0 0.596,-0.044 0.782,-0.166 0.195,-0.127 0.322,-0.347 0.322,-0.64 0,-0.42 -0.259,-0.679 -0.62,-0.835 C -1.079,1.411 -0.874,1.084 -0.727,0.864 -0.552,0.61 -0.449,0.484 -0.332,0.356 -0.2,0.21 -0.088,0.156 0.019,0.127 L 0,0 Z m -1.797,1.587 c 0.249,0 0.41,0.039 0.532,0.136 0.191,0.147 0.269,0.342 0.269,0.606 0,0.527 -0.347,0.723 -0.718,0.723 -0.141,0 -0.224,-0.02 -0.263,-0.049 C -2.012,2.978 -2.031,2.92 -2.031,2.788 l 0,-1.201 0.234,0 z"
             style="fill:#009db6;fill-opacity:1;fill-rule:nonzero;stroke:none"
             id="path490"
             inkscape:connector-curvature="0" />
        </g>
        <g
           id="g492"
           transform="translate(92.7747,59.2749)">
          <path
             d="m 0,0 c -0.054,0.235 -0.098,0.356 -0.156,0.435 -0.079,0.117 -0.161,0.151 -0.527,0.151 l -0.347,0 0,-2.402 c 0,-0.386 0.039,-0.435 0.503,-0.464 l 0,-0.137 -1.402,0 0,0.137 c 0.445,0.029 0.484,0.078 0.484,0.464 l 0,2.402 -0.303,0 C -2.153,0.586 -2.251,0.547 -2.314,0.435 -2.373,0.352 -2.412,0.215 -2.471,0 l -0.141,0 c 0.024,0.293 0.049,0.61 0.059,0.879 l 0.097,0 c 0.068,-0.112 0.132,-0.122 0.269,-0.122 l 1.928,0 c 0.132,0 0.171,0.029 0.249,0.122 l 0.103,0 c 0,-0.225 0.024,-0.581 0.048,-0.864 L 0,0 Z"
             style="fill:#009db6;fill-opacity:1;fill-rule:nonzero;stroke:none"
             id="path494"
             inkscape:connector-curvature="0" />
        </g>
        <g
           id="g496"
           transform="translate(96.6093,57.6297)">
          <path
             d="m 0,0 c -0.029,-0.161 -0.127,-0.62 -0.171,-0.771 l -2.353,0 0,0.136 c 0.444,0.034 0.483,0.073 0.483,0.469 l 0,1.943 c 0,0.439 -0.039,0.454 -0.42,0.488 l 0,0.137 2.178,0 c 0,-0.122 0.024,-0.454 0.039,-0.703 L -0.386,1.675 C -0.43,1.88 -0.478,1.987 -0.542,2.094 -0.61,2.197 -0.742,2.231 -1.094,2.231 l -0.371,0 c -0.151,0 -0.161,-0.01 -0.161,-0.156 l 0,-1.108 0.459,0 c 0.44,0 0.464,0.039 0.528,0.366 l 0.141,0 0,-0.938 -0.141,0 c -0.064,0.352 -0.098,0.381 -0.523,0.381 l -0.464,0 0,-0.923 c 0,-0.229 0.03,-0.331 0.117,-0.395 0.093,-0.059 0.264,-0.064 0.508,-0.064 0.371,0 0.508,0.04 0.615,0.166 0.083,0.098 0.176,0.264 0.239,0.459 L 0,0 Z"
             style="fill:#009db6;fill-opacity:1;fill-rule:nonzero;stroke:none"
             id="path498"
             inkscape:connector-curvature="0" />
        </g>
        <g
           id="g500"
           transform="translate(100.5412,56.8583)">
          <path
             d="M 0,0 0,0.137 C 0.396,0.176 0.415,0.2 0.41,0.718 l -0.014,1.992 -0.02,0 -1.191,-2.676 -0.098,0 -1.093,2.607 -0.011,0 L -2.09,1.25 C -2.109,0.849 -2.109,0.635 -2.104,0.439 -2.094,0.205 -1.977,0.171 -1.655,0.137 l 0,-0.137 -1.138,0 0,0.137 c 0.284,0.034 0.381,0.087 0.415,0.293 0.025,0.171 0.054,0.385 0.093,0.893 l 0.068,1.016 c 0.044,0.634 0.02,0.654 -0.424,0.698 l 0,0.137 0.8,0 1.114,-2.442 1.127,2.442 0.83,0 0,-0.137 C 0.801,2.998 0.767,2.988 0.781,2.485 L 0.83,0.718 C 0.845,0.2 0.859,0.176 1.284,0.137 L 1.284,0 0,0 Z"
             style="fill:#009db6;fill-opacity:1;fill-rule:nonzero;stroke:none"
             id="path502"
             inkscape:connector-curvature="0" />
        </g>
        <g
           id="g504"
           transform="translate(105.5432,57.6297)">
          <path
             d="m 0,0 c -0.029,-0.161 -0.127,-0.62 -0.171,-0.771 l -2.353,0 0,0.136 c 0.444,0.034 0.483,0.073 0.483,0.469 l 0,1.943 c 0,0.439 -0.039,0.454 -0.42,0.488 l 0,0.137 2.178,0 c 0,-0.122 0.024,-0.454 0.039,-0.703 L -0.386,1.675 C -0.43,1.88 -0.478,1.987 -0.542,2.094 -0.61,2.197 -0.742,2.231 -1.094,2.231 l -0.371,0 c -0.151,0 -0.161,-0.01 -0.161,-0.156 l 0,-1.108 0.459,0 c 0.44,0 0.464,0.039 0.527,0.366 l 0.142,0 0,-0.938 -0.142,0 c -0.063,0.352 -0.097,0.381 -0.522,0.381 l -0.464,0 0,-0.923 c 0,-0.229 0.03,-0.331 0.117,-0.395 0.093,-0.059 0.264,-0.064 0.508,-0.064 0.371,0 0.508,0.04 0.615,0.166 0.083,0.098 0.176,0.264 0.239,0.459 L 0,0 Z"
             style="fill:#009db6;fill-opacity:1;fill-rule:nonzero;stroke:none"
             id="path506"
             inkscape:connector-curvature="0" />
        </g>
        <g
           id="g508"
           transform="translate(110.0662,59.895)">
          <path
             d="m 0,0 c -0.274,-0.015 -0.391,-0.078 -0.41,-0.293 -0.02,-0.146 -0.029,-0.366 -0.029,-0.82 l 0,-1.968 -0.152,0 -2.08,2.559 -0.01,0 0,-1.226 c 0,-0.449 0.015,-0.683 0.03,-0.825 0.024,-0.249 0.137,-0.308 0.469,-0.327 l 0,-0.137 -1.158,0 0,0.137 c 0.284,0.015 0.406,0.078 0.43,0.317 0.015,0.152 0.029,0.386 0.029,0.835 l 0,1.074 c 0,0.357 -0.01,0.376 -0.098,0.494 -0.097,0.121 -0.205,0.161 -0.434,0.18 l 0,0.137 0.723,0 2.036,-2.451 0.015,0 0,1.201 c 0,0.449 -0.02,0.674 -0.035,0.811 -0.024,0.219 -0.141,0.283 -0.478,0.302 l 0,0.137 L 0,0.137 0,0 Z"
             style="fill:#009db6;fill-opacity:1;fill-rule:nonzero;stroke:none"
             id="path510"
             inkscape:connector-curvature="0" />
        </g>
        <g
           id="g512"
           transform="translate(113.8374,59.2749)">
          <path
             d="m 0,0 c -0.053,0.235 -0.098,0.356 -0.156,0.435 -0.078,0.117 -0.161,0.151 -0.527,0.151 l -0.347,0 0,-2.402 c 0,-0.386 0.039,-0.435 0.503,-0.464 l 0,-0.137 -1.401,0 0,0.137 c 0.444,0.029 0.483,0.078 0.483,0.464 l 0,2.402 -0.303,0 C -2.153,0.586 -2.25,0.547 -2.314,0.435 -2.373,0.352 -2.412,0.215 -2.471,0 l -0.141,0 c 0.024,0.293 0.049,0.61 0.059,0.879 l 0.098,0 c 0.067,-0.112 0.131,-0.122 0.268,-0.122 l 1.929,0 c 0.131,0 0.17,0.029 0.248,0.122 l 0.103,0 c 0,-0.225 0.024,-0.581 0.049,-0.864 L 0,0 Z"
             style="fill:#009db6;fill-opacity:1;fill-rule:nonzero;stroke:none"
             id="path514"
             inkscape:connector-curvature="0" />
        </g>
      </g>
    </g>
    <g
       id="g516"
       transform="matrix(4.8793103,0,0,-4.8793103,574.3882,863.82303)">
      <path
         d="m 0,0 -0.068,-0.268 1.113,0 L 1.118,0 0,0 Z"
         style="fill:#009db6;fill-opacity:1;fill-rule:nonzero;stroke:none"
         id="path518"
         inkscape:connector-curvature="0" />
    </g>
    <g
       transform="matrix(4.8793103,0,0,-4.8793103,1.7260409,1149.9478)"
       id="g520">
      <g
         id="g522"
         clip-path="url(#clipPath524)">
        <g
           id="g528"
           transform="translate(109.2611,100.6862)">
          <path
             d="m 0,0 c 0,11.885 -9.635,21.519 -21.519,21.519 -5.101,0 -9.785,-1.778 -13.473,-4.744 l 11.328,0 c 0.675,0 0.901,-0.227 0.901,-0.904 l 0,-2.75 c 0,-0.272 -0.046,-0.588 -0.135,-0.993 l -5.722,-26.029 c -0.181,-0.857 -0.541,-0.903 -0.992,-0.903 l -3.74,0 c -0.451,0 -0.855,0.181 -0.675,0.903 l 5.767,24.991 c 0.089,0.406 -0.09,0.542 -0.36,0.542 l -8.902,0 c -0.675,0 -0.435,0.225 -0.435,0.901 l 0,1.348 C -41.125,10.134 -43.039,5.291 -43.039,0 c 0,-11.885 9.635,-21.519 21.52,-21.519 1.927,0 3.794,0.257 5.572,0.732 -0.004,0 -0.007,0 -0.011,0 -4.055,0 -7.029,2.257 -7.029,8.617 l 0,14.166 c 0,6.811 2.478,9.021 6.984,9.021 4.82,0 6.939,-3.249 6.939,-8.121 0,-0.676 -0.226,-1.127 -0.902,-1.127 l -3.559,0 c -0.676,0 -0.901,0.227 -0.901,0.903 0,1.758 0,3.202 -1.577,3.202 -1.578,0 -1.578,-1.444 -1.578,-3.202 l 0,-3.519 c 0.496,0.091 1.038,0.136 1.578,0.136 4.054,0 6.983,-2.346 6.983,-8.616 l 0,-2.843 c 0,-3.023 -0.662,-5.124 -1.795,-6.495 C -4.354,-14.952 0,-7.987 0,0"
             style="fill:#009db6;fill-opacity:1;fill-rule:nonzero;stroke:none"
             id="path530"
             inkscape:connector-curvature="0" />
        </g>
        <g
           id="g532"
           transform="translate(71.7388,112.3186)">
          <path
             d="m 0,0 8.902,0 c 0.27,0 0.45,-0.136 0.36,-0.542 L 3.495,-25.533 c -0.18,-0.723 0.224,-0.903 0.675,-0.903 l 3.74,0 c 0.451,0 0.811,0.045 0.992,0.903 l 5.722,26.028 c 0.089,0.406 0.136,0.722 0.136,0.993 l 0,2.751 c 0,0.677 -0.226,0.903 -0.902,0.903 l -11.328,0 C 1.451,4.275 0.458,3.306 -0.435,2.249 l 0,-1.348 C -0.435,0.225 -0.675,0 0,0"
             style="fill:#ffffff;fill-opacity:1;fill-rule:nonzero;stroke:none"
             id="path534"
             inkscape:connector-curvature="0" />
        </g>
        <g
           id="g536"
           transform="translate(100.2413,91.3587)">
          <path
             d="m 0,0 c 0,6.271 -2.929,8.617 -6.984,8.617 -0.54,0 -1.081,-0.046 -1.577,-0.137 l 0,3.519 c 0,1.759 0,3.203 1.577,3.203 1.578,0 1.578,-1.444 1.578,-3.203 0,-0.676 0.225,-0.902 0.901,-0.902 l 3.559,0 c 0.676,0 0.902,0.451 0.902,1.127 0,4.872 -2.119,8.12 -6.94,8.12 -4.505,0 -6.983,-2.21 -6.983,-9.021 l 0,-14.166 c 0,-6.36 2.974,-8.616 7.029,-8.616 0.004,0 0.007,0 0.011,0 1.817,0.486 3.538,1.205 5.132,2.121 C -0.662,-7.966 0,-5.865 0,-2.843 L 0,0 Z"
             style="fill:#ffffff;fill-opacity:1;fill-rule:nonzero;stroke:none"
             id="path538"
             inkscape:connector-curvature="0" />
        </g>
        <g
           id="g540"
           transform="translate(93.2577,95.0569)">
          <path
             d="m 0,0 c -1.306,0 -1.532,-0.721 -1.577,-2.481 l 0,-4.06 c 0,-2.255 0,-3.698 1.577,-3.698 1.577,0 1.577,1.443 1.577,3.698 l 0,2.843 C 1.577,-1.083 1.577,0 0,0"
             style="fill:#ffffff;fill-opacity:1;fill-rule:nonzero;stroke:none"
             id="path542"
             inkscape:connector-curvature="0" />
        </g>
        <g
           id="g544"
           transform="translate(94.8351,88.516)">
          <path
             d="m 0,0 c 0,-2.255 0,-3.698 -1.577,-3.698 -1.578,0 -1.578,1.443 -1.578,3.698 l 0,4.059 c 0.046,1.76 0.272,2.482 1.578,2.482 C 0,6.541 0,5.458 0,2.843 L 0,0 Z"
             style="fill:#009db6;fill-opacity:1;fill-rule:nonzero;stroke:none"
             id="path546"
             inkscape:connector-curvature="0" />
        </g>
      </g>
    </g>
  </g>
</svg>
