<?xml version="1.0" encoding="UTF-8" standalone="no"?>
<!-- Created with Inkscape (http://www.inkscape.org/) -->

<svg
   xmlns:dc="http://purl.org/dc/elements/1.1/"
   xmlns:cc="http://creativecommons.org/ns#"
   xmlns:rdf="http://www.w3.org/1999/02/22-rdf-syntax-ns#"
   xmlns:svg="http://www.w3.org/2000/svg"
   xmlns="http://www.w3.org/2000/svg"
   xmlns:sodipodi="http://sodipodi.sourceforge.net/DTD/sodipodi-0.dtd"
   xmlns:inkscape="http://www.inkscape.org/namespaces/inkscape"
   id="svg2"
   version="1.1"
   inkscape:version="0.91 r13725"
   xml:space="preserve"
   width="800"
   height="252.2"
   viewBox="0 0 799.99999 252.19999"
   sodipodi:docname="Logo Yvelines.svg"><metadata
     id="metadata8"><rdf:RDF><cc:Work
         rdf:about=""><dc:format>image/svg+xml</dc:format><dc:type
           rdf:resource="http://purl.org/dc/dcmitype/StillImage" /><dc:title></dc:title></cc:Work></rdf:RDF></metadata><defs
     id="defs6" /><sodipodi:namedview
     pagecolor="#ffffff"
     bordercolor="#666666"
     borderopacity="1"
     objecttolerance="10"
     gridtolerance="10"
     guidetolerance="10"
     inkscape:pageopacity="0"
     inkscape:pageshadow="2"
     inkscape:window-width="1440"
     inkscape:window-height="790"
     id="namedview4"
     showgrid="false"
     inkscape:zoom="0.64960648"
     inkscape:cx="521.66025"
     inkscape:cy="114.47084"
     inkscape:window-x="0"
     inkscape:window-y="1"
     inkscape:window-maximized="1"
     inkscape:current-layer="g10" /><g
     id="g10"
     inkscape:groupmode="layer"
     inkscape:label="Logo Yvelines"
     transform="matrix(1.25,0,0,-1.25,0,252.20008)"><g
       id="g9572"
       transform="matrix(5.4465767,0,0,5.4465767,-2069.3724,-453.4879)"><g
         id="g9547"><path
           d="m 436.663,100.7547 -2.289,3.908 2.21,0 1.069,-2.113 1.079,2.113 2.151,0 -2.227,-3.908 0,-2.293 -1.993,0 0,2.293 z"
           style="fill:#2b2523;fill-opacity:1;fill-rule:nonzero;stroke:none"
           id="path2190"
           inkscape:connector-curvature="0" /><path
           d="m 440.8661,103.0418 1.812,0 0.794,-2.752 0.777,2.752 1.732,0 -1.484,-4.58 -2.035,0 -1.596,4.58 z"
           style="fill:#2b2523;fill-opacity:1;fill-rule:nonzero;stroke:none"
           id="path2192"
           inkscape:connector-curvature="0" /><path
           d="m 449.6239,101.2654 c -0.035,0.57 -0.309,0.854 -0.827,0.854 -0.477,0 -0.771,-0.312 -0.797,-0.854 l 1.624,0 z m 1.646,-1.447 c -0.249,-0.996 -1.11,-1.523 -2.527,-1.523 -1.586,0 -2.56,0.96 -2.56,2.42 0,1.535 1.001,2.492 2.629,2.492 1.623,0 2.608,-1.014 2.608,-2.741 l 0,-0.118 -3.42,0 c 0.02,-0.586 0.32,-0.915 0.847,-0.915 0.353,0 0.594,0.138 0.681,0.385 l 1.742,0 z"
           style="fill:#2b2523;fill-opacity:1;fill-rule:nonzero;stroke:none"
           id="path2194"
           inkscape:connector-curvature="0" /><path
           d="m 452.384,98.462 1.837,0 0,6.201 -1.837,0 0,-6.201 z"
           style="fill:#2b2523;fill-opacity:1;fill-rule:nonzero;stroke:none"
           id="path2196"
           inkscape:connector-curvature="0" /><path
           d="m 455.414,103.042 1.836,0 0,-4.58 -1.836,0 0,4.58 z m 0,1.776 1.836,0 0,-1.312 -1.836,0 0,1.312 z"
           style="fill:#2b2523;fill-opacity:1;fill-rule:nonzero;stroke:none"
           id="path2198"
           inkscape:connector-curvature="0" /><path
           d="m 458.4003,103.0418 1.658,0 0,-0.67 c 0.424,0.531 0.939,0.793 1.602,0.793 0.56,0 1.004,-0.19 1.304,-0.558 0.352,-0.414 0.381,-0.973 0.381,-1.766 l 0,-2.379 -1.818,0 0,2.373 c 0,0.631 -0.123,0.914 -0.624,0.914 -0.456,0 -0.683,-0.304 -0.683,-0.922 l 0,-2.365 -1.82,0 0,4.58 z"
           style="fill:#2b2523;fill-opacity:1;fill-rule:nonzero;stroke:none"
           id="path2200"
           inkscape:connector-curvature="0" /><path
           d="m 467.6103,101.2654 c -0.035,0.57 -0.311,0.854 -0.829,0.854 -0.476,0 -0.767,-0.312 -0.792,-0.854 l 1.621,0 z m 1.645,-1.447 c -0.247,-0.996 -1.114,-1.523 -2.526,-1.523 -1.588,0 -2.565,0.96 -2.565,2.42 0,1.535 1.002,2.492 2.634,2.492 1.62,0 2.605,-1.014 2.605,-2.741 l 0,-0.118 -3.414,0 c 0.017,-0.586 0.316,-0.915 0.845,-0.915 0.353,0 0.595,0.138 0.68,0.385 l 1.741,0 z"
           style="fill:#2b2523;fill-opacity:1;fill-rule:nonzero;stroke:none"
           id="path2202"
           inkscape:connector-curvature="0" /><path
           d="m 471.8153,99.9012 c 0,-0.388 0.196,-0.576 0.594,-0.576 0.387,0 0.595,0.138 0.595,0.377 0,0.332 -0.258,0.362 -0.768,0.473 -1.418,0.306 -2.069,0.553 -2.069,1.521 0,0.973 0.765,1.512 2.252,1.512 1.371,0 2.121,-0.494 2.232,-1.444 l -1.64,0 c -0.023,0.272 -0.248,0.448 -0.575,0.448 -0.329,0 -0.497,-0.12 -0.497,-0.319 0,-0.327 0.304,-0.327 0.875,-0.453 1.366,-0.311 1.989,-0.563 1.989,-1.559 0,-1.041 -0.817,-1.585 -2.418,-1.585 -1.485,0 -2.263,0.536 -2.341,1.605 l 1.771,0 z"
           style="fill:#2b2523;fill-opacity:1;fill-rule:nonzero;stroke:none"
           id="path2204"
           inkscape:connector-curvature="0" /></g><g
         id="g9557"><path
           d="m 435.0058,94.5945 0.853,0 0,-5.415 3.09,0 0,-0.784 -3.943,0 0,6.199 z"
           style="fill:#2b2523;fill-opacity:1;fill-rule:nonzero;stroke:none"
           id="path2206"
           inkscape:connector-curvature="0" /><path
           d="m 442.6991,91.0574 c -0.008,0.854 -0.446,1.321 -1.215,1.321 -0.752,0 -1.194,-0.454 -1.26,-1.321 l 2.475,0 z m 0.733,-1.209 c -0.162,-0.998 -0.915,-1.599 -1.975,-1.599 -1.241,0 -2.029,0.884 -2.029,2.351 0,1.561 0.788,2.45 2.029,2.45 1.285,0 2.036,-0.815 2.036,-2.284 0,-0.112 0,-0.223 -0.009,-0.341 l -3.26,0 c 0.017,-0.956 0.498,-1.493 1.305,-1.493 0.618,0 1.033,0.33 1.154,0.916 l 0.749,0 z"
           style="fill:#2b2523;fill-opacity:1;fill-rule:nonzero;stroke:none"
           id="path2208"
           inkscape:connector-curvature="0" /><path
           d="m 447.8856,93.8826 0,-4.731 1.45,0 c 1.233,0 1.88,0.811 1.88,2.391 0,1.515 -0.674,2.34 -1.88,2.34 l -1.45,0 z m -0.845,0.712 2.363,0 c 1.733,0 2.674,-1.059 2.674,-3.01 0,-2.035 -1.015,-3.193 -2.708,-3.193 l -2.329,0 0,6.203 z"
           style="fill:#2b2523;fill-opacity:1;fill-rule:nonzero;stroke:none"
           id="path2210"
           inkscape:connector-curvature="0" /><path
           d="m 455.2597,94.9832 0.847,0 -1.197,-1.468 -0.511,0 0.861,1.468 z m 0.958,-3.926 c -0.007,0.855 -0.45,1.322 -1.214,1.322 -0.752,0 -1.191,-0.455 -1.26,-1.322 l 2.474,0 z m 0.734,-1.209 c -0.164,-0.998 -0.913,-1.598 -1.974,-1.598 -1.244,0 -2.03,0.883 -2.03,2.35 0,1.561 0.786,2.45 2.03,2.45 1.287,0 2.038,-0.815 2.038,-2.284 0,-0.112 0,-0.229 -0.011,-0.341 l -3.261,0 c 0.017,-0.956 0.498,-1.493 1.305,-1.493 0.618,0 1.033,0.33 1.153,0.916 l 0.75,0 z"
           style="fill:#2b2523;fill-opacity:1;fill-rule:nonzero;stroke:none"
           id="path2212"
           inkscape:connector-curvature="0" /><path
           d="m 460.0673,88.9265 c 0.836,0 1.337,0.623 1.337,1.784 0,1.038 -0.519,1.662 -1.346,1.662 -0.836,0 -1.324,-0.614 -1.324,-1.754 0,-1.129 0.446,-1.692 1.333,-1.692 m -2.055,3.978 0.743,0 0,-0.641 c 0.371,0.549 0.823,0.787 1.467,0.787 1.182,0 1.978,-0.905 1.978,-2.39 0,-1.503 -0.813,-2.406 -1.985,-2.406 -0.629,0 -1.106,0.223 -1.46,0.689 l 0,-2.354 -0.743,0 0,6.315 z"
           style="fill:#2b2523;fill-opacity:1;fill-rule:nonzero;stroke:none"
           id="path2214"
           inkscape:connector-curvature="0" /><path
           d="m 464.5204,90.3777 c -0.544,-0.088 -0.778,-0.303 -0.778,-0.76 0,-0.438 0.286,-0.698 0.812,-0.698 0.828,0 1.398,0.462 1.398,1.097 l 0,0.672 c -0.404,-0.217 -0.899,-0.222 -1.432,-0.311 m -0.096,-2.123 c -0.934,0 -1.466,0.517 -1.466,1.355 0,0.828 0.51,1.288 1.545,1.415 0.629,0.077 1.051,0.095 1.241,0.167 0.208,0.088 0.217,0.195 0.217,0.497 0,0.457 -0.337,0.69 -1.016,0.69 -0.709,0 -1.064,-0.294 -1.064,-0.839 l -0.717,0 0,0.039 c 0,0.903 0.673,1.472 1.805,1.472 1.208,0 1.76,-0.44 1.76,-1.395 l 0,-2.263 c 0,-0.311 0.026,-0.46 0.292,-0.46 l 0.199,0.029 0,-0.586 c -0.165,-0.044 -0.301,-0.069 -0.439,-0.069 -0.51,0 -0.759,0.224 -0.759,0.664 l 0,0.029 c -0.468,-0.491 -0.993,-0.745 -1.598,-0.745"
           style="fill:#2b2523;fill-opacity:1;fill-rule:nonzero;stroke:none"
           id="path2216"
           inkscape:connector-curvature="0" /><path
           d="m 468.0302,92.9041 0.733,0 0,-0.809 c 0.243,0.61 0.656,0.906 1.253,0.906 l 0.197,-0.011 0,-0.8 -0.182,0.011 c -0.809,0 -1.241,-0.452 -1.241,-1.297 l 0,-2.513 -0.76,0 0,4.513 z"
           style="fill:#2b2523;fill-opacity:1;fill-rule:nonzero;stroke:none"
           id="path2218"
           inkscape:connector-curvature="0" /><path
           d="m 472.3026,89.0232 c 0.087,0 0.214,0.006 0.407,0.024 l 0,-0.646 c -0.233,-0.044 -0.442,-0.069 -0.606,-0.069 -0.728,0 -0.966,0.248 -0.966,0.942 l 0,3.026 -0.672,0 0,0.604 0.672,0 0,1.264 0.758,0 0,-1.264 0.814,0 0,-0.604 -0.814,0 0,-2.767 c 0,-0.375 0.072,-0.51 0.407,-0.51"
           style="fill:#2b2523;fill-opacity:1;fill-rule:nonzero;stroke:none"
           id="path2220"
           inkscape:connector-curvature="0" /><path
           d="m 476.5995,91.0574 c -0.009,0.854 -0.447,1.321 -1.218,1.321 -0.753,0 -1.189,-0.454 -1.26,-1.321 l 2.478,0 z m 0.732,-1.209 c -0.163,-0.998 -0.914,-1.599 -1.973,-1.599 -1.246,0 -2.029,0.884 -2.029,2.351 0,1.561 0.783,2.45 2.029,2.45 1.285,0 2.034,-0.815 2.034,-2.284 0,-0.112 0,-0.223 -0.009,-0.341 l -3.262,0 c 0.02,-0.956 0.502,-1.493 1.307,-1.493 0.619,0 1.031,0.33 1.15,0.916 l 0.753,0 z"
           style="fill:#2b2523;fill-opacity:1;fill-rule:nonzero;stroke:none"
           id="path2222"
           inkscape:connector-curvature="0" /><path
           d="m 483.872,91.1746 c 0,0.799 -0.147,1.178 -0.826,1.178 -0.726,0 -1.158,-0.466 -1.158,-1.295 l 0,-2.662 -0.769,0 0,2.779 c 0,0.799 -0.144,1.178 -0.827,1.178 -0.719,0 -1.159,-0.476 -1.159,-1.295 l 0,-2.662 -0.759,0 0,4.508 0.728,0 0,-0.64 c 0.335,0.514 0.785,0.752 1.404,0.752 0.571,0 0.952,-0.225 1.235,-0.704 0.391,0.479 0.836,0.704 1.449,0.704 0.597,0 1.036,-0.225 1.259,-0.612 0.173,-0.308 0.184,-0.69 0.184,-1.174 l 0,-0.128 0,-2.706 -0.761,0 0,2.779 z"
           style="fill:#2b2523;fill-opacity:1;fill-rule:nonzero;stroke:none"
           id="path2224"
           inkscape:connector-curvature="0" /><path
           d="m 488.9462,91.0574 c -0.009,0.854 -0.448,1.321 -1.218,1.321 -0.746,0 -1.191,-0.454 -1.258,-1.321 l 2.476,0 z m 0.733,-1.209 c -0.165,-0.998 -0.913,-1.599 -1.976,-1.599 -1.243,0 -2.028,0.884 -2.028,2.351 0,1.561 0.785,2.45 2.028,2.45 1.286,0 2.036,-0.815 2.036,-2.284 0,-0.112 0,-0.223 -0.009,-0.341 l -3.26,0 c 0.014,-0.956 0.501,-1.493 1.301,-1.493 0.623,0 1.037,0.33 1.159,0.916 l 0.749,0 z"
           style="fill:#2b2523;fill-opacity:1;fill-rule:nonzero;stroke:none"
           id="path2226"
           inkscape:connector-curvature="0" /><path
           d="m 493.7245,91.1746 c 0,0.799 -0.183,1.166 -0.905,1.166 -0.837,0 -1.336,-0.487 -1.336,-1.378 l 0,-2.567 -0.759,0 0,4.508 0.723,0 0,-0.656 c 0.345,0.519 0.821,0.768 1.451,0.768 0.678,0 1.145,-0.203 1.393,-0.612 0.192,-0.292 0.2,-0.649 0.2,-1.085 l 0,-0.217 0,-2.706 -0.767,0 0,2.779 z"
           style="fill:#2b2523;fill-opacity:1;fill-rule:nonzero;stroke:none"
           id="path2228"
           inkscape:connector-curvature="0" /><path
           d="m 497.037,89.0232 c 0.087,0 0.214,0.006 0.408,0.024 l 0,-0.646 c -0.236,-0.044 -0.44,-0.069 -0.605,-0.069 -0.725,0 -0.967,0.248 -0.967,0.942 l 0,3.026 -0.672,0 0,0.604 0.672,0 0,1.264 0.759,0 0,-1.264 0.813,0 0,-0.604 -0.813,0 0,-2.767 c 0,-0.375 0.069,-0.51 0.405,-0.51"
           style="fill:#2b2523;fill-opacity:1;fill-rule:nonzero;stroke:none"
           id="path2230"
           inkscape:connector-curvature="0" /></g><path
         inkscape:connector-curvature="0"
         id="path2232"
         style="fill:#ffffff;fill-opacity:1;fill-rule:nonzero;stroke:none"
         d="m 416.956,101.7801 c 0,-10.225 -8.285,-18.519 -18.51,-18.519 -10.221,0 -18.506,8.294 -18.506,18.519 0,10.219 8.285,18.511 18.506,18.511 10.225,0 18.51,-8.292 18.51,-18.511" /><path
         inkscape:connector-curvature="0"
         id="path2234"
         style="fill:#2b2523;fill-opacity:1;fill-rule:nonzero;stroke:none"
         d="m 425.33,83.32 0.324,0 0,36.081 -0.324,0 0,-36.081 z" /><circle
         r="18.507601"
         cy="-101.7762"
         cx="398.44861"
         transform="scale(1,-1)"
         id="path9530"
         style="opacity:1;fill:#d60077;fill-opacity:1;stroke:none;stroke-width:0.01;stroke-linecap:round;stroke-linejoin:round;stroke-miterlimit:4;stroke-dasharray:none;stroke-opacity:1" /><path
         transform="matrix(0.8,0,0,-0.8,0,822.04704)"
         id="circle9532"
         d="m 507.00586,879.00586 c 0.0417,0.0175 0.0834,0.035 0.125,0.0527 a 23.134501,23.134501 0 0 0 -0.125,-0.0527 z m -3.69336,0.24023 -0.52344,1.47657 -7,17.75586 -5.88281,-12.59766 0.01,0 -0.60938,-1.47852 -7.97852,0 a 23.134501,23.134501 0 0 0 -1.30078,1.47852 l 3.28125,0 c 1.545,0 2.125,1.56055 2.125,1.56055 l 8.0293,17.125 c -1.48375,4.505 -4.87594,11.34375 -5.83594,11.34375 -0.71,0 -0.77281,-2.38282 -3.35156,-2.38282 -1.415,0 -2.63672,1.03094 -2.63672,2.77344 0,0.11311 0.0152,0.23518 0.0371,0.35156 a 23.134501,23.134501 0 0 0 2.91406,2.47071 l 0.13868,0.004 c 4.11875,0 8.6275,-5.70187 10.875,-11.89062 l 9.50781,-24.22656 c 0,0 0.68664,-2.07422 2.15039,-2.07422 l 3.35742,0 a 23.134501,23.134501 0 0 0 -3.09961,-1.68946 l -4.20703,0 z m 7.65039,1.90039 c 0.12028,0.0811 0.23876,0.16481 0.35742,0.24805 a 23.134501,23.134501 0 0 0 -0.35742,-0.24805 z m 1.9707,1.47461 c 0.0516,0.0433 0.0992,0.091 0.15039,0.13477 a 23.134501,23.134501 0 0 0 -0.15039,-0.13477 z m -30.93945,1.07618 a 23.134501,23.134501 0 0 0 -0.13672,0.13867 c 0.0463,-0.0455 0.0901,-0.0936 0.13672,-0.13867 z m 32.43945,0.31445 c 0.11876,0.11904 0.23737,0.23779 0.35352,0.35937 a 23.134501,23.134501 0 0 0 -0.35352,-0.35937 z m 1.61914,1.79687 c 0.10416,0.12874 0.20327,0.26159 0.30469,0.39258 a 23.134501,23.134501 0 0 0 -0.30469,-0.39258 z m -37.01757,1.37891 a 23.134501,23.134501 0 0 0 -0.0801,0.10742 c 0.0252,-0.0369 0.0546,-0.0706 0.0801,-0.10742 z m 33.77539,0.58008 c -0.48475,-0.0249 -0.96508,0.0655 -1.43946,0.27734 -0.63875,0.2775 -1.03757,0.82071 -1.20507,1.62696 -0.09,0.43998 -0.0757,0.7975 0.0293,1.09374 0.115,0.29126 0.26211,0.53305 0.44336,0.74805 0.18,0.19875 0.39633,0.3611 0.64258,0.46485 0.24625,0.11125 0.46344,0.19515 0.64844,0.2539 0.41125,0.17 0.57297,0.49203 0.48047,0.95703 -0.0987,0.48125 -0.3,0.96446 -0.59375,1.43946 -0.295,0.47375 -0.63282,0.91179 -1.00782,1.31054 -0.38,0.39875 -0.7525,0.7568 -1.125,1.06055 -0.37,0.305 -0.69101,0.53344 -0.94726,0.67969 l 1.42578,0.28711 c 0.33875,-0.1575 0.775,-0.43961 1.3125,-0.84961 0.535,-0.41375 1.09,-0.90727 1.65625,-1.47852 0.57,-0.5775 1.08305,-1.20711 1.5293,-1.88086 0.4475,-0.69625 0.74953,-1.38718 0.89453,-2.08593 0.0737,-0.37751 0.0978,-0.77118 0.0703,-1.16993 -0.035,-0.39875 -0.12898,-0.78367 -0.30273,-1.13867 -0.16125,-0.355 -0.40477,-0.67648 -0.72852,-0.95898 -0.32375,-0.27125 -0.75688,-0.46672 -1.29687,-0.57422 -0.16283,-0.0341 -0.32475,-0.0542 -0.48633,-0.0625 z m -35.03907,1.45703 a 23.134501,23.134501 0 0 0 -0.0645,0.12891 c 0.0228,-0.0422 0.0414,-0.0869 0.0645,-0.12891 z m 40.84961,0.52344 c 0.0306,0.0593 0.0617,0.11816 0.0918,0.17773 a 23.134501,23.134501 0 0 0 -0.0918,-0.17773 z m -41.79882,1.43554 a 23.134501,23.134501 0 0 0 -0.17188,0.42188 c 0.0574,-0.14059 0.11181,-0.28268 0.17188,-0.42188 z m -0.76954,2.06055 a 23.134501,23.134501 0 0 0 -0.1582,0.51172 c 0.0508,-0.17134 0.10355,-0.34207 0.1582,-0.51172 z m -0.57617,2.15039 a 23.134501,23.134501 0 0 0 -0.11718,0.53125 c 0.0346,-0.17889 0.0785,-0.35386 0.11718,-0.53125 z m 45.35352,0.88086 c 0.0194,0.10945 0.0349,0.2201 0.0527,0.33008 a 23.134501,23.134501 0 0 0 -0.0527,-0.33008 z m -45.72852,1.34766 a 23.134501,23.134501 0 0 0 -0.0664,0.51172 c 0.0163,-0.17237 0.0464,-0.34048 0.0664,-0.51172 z m 46.02539,0.99218 c 0.003,0.04 0.009,0.0791 0.0117,0.11915 a 23.134501,23.134501 0 0 0 -0.0117,-0.11915 z m -46.14648,3.23047 a 23.134501,23.134501 0 0 0 0.0176,0.24414 c -0.006,-0.0814 -0.0123,-0.16253 -0.0176,-0.24414 z m 0.27734,2.38477 a 23.134501,23.134501 0 0 0 0.0176,0.0918 c -0.005,-0.0307 -0.0124,-0.0611 -0.0176,-0.0918 z m 0.50781,2.27539 a 23.134501,23.134501 0 0 0 0.0117,0.0469 c -0.004,-0.0155 -0.007,-0.0313 -0.0117,-0.0469 z m 2.79883,6.2793 a 23.134501,23.134501 0 0 0 0.0625,0.0976 c -0.021,-0.0325 -0.0417,-0.0651 -0.0625,-0.0976 z m 1.33399,1.87695 a 23.134501,23.134501 0 0 0 0.0762,0.0957 c -0.0254,-0.0319 -0.0509,-0.0637 -0.0762,-0.0957 z m 35.88867,0.53906 c -0.03,0.0357 -0.0616,0.0699 -0.0918,0.10547 a 23.134501,23.134501 0 0 0 0.0918,-0.10547 z m -34.36523,1.20703 a 23.134501,23.134501 0 0 0 0.0723,0.0762 c -0.0244,-0.0251 -0.048,-0.051 -0.0723,-0.0762 z m 32.78906,0.49219 c -0.0277,0.027 -0.0562,0.0532 -0.084,0.0801 a 23.134501,23.134501 0 0 0 0.084,-0.0801 z m -1.74024,1.53516 c -0.0214,0.0171 -0.043,0.0338 -0.0644,0.0508 a 23.134501,23.134501 0 0 0 0.0644,-0.0508 z m -27.64258,0.86718 a 23.134501,23.134501 0 0 0 0.49024,0.32422 c -0.16338,-0.10823 -0.32979,-0.21202 -0.49024,-0.32422 z m 1.86524,1.16993 a 23.134501,23.134501 0 0 0 0.46094,0.25781 c -0.15533,-0.0834 -0.30776,-0.171 -0.46094,-0.25781 z m 4.51172,1.95898 a 23.134501,23.134501 0 0 0 0.0703,0.0215 c -0.0234,-0.007 -0.047,-0.0142 -0.0703,-0.0215 z m 2.13476,0.54883 a 23.134501,23.134501 0 0 0 0.25391,0.0508 c -0.0848,-0.0167 -0.16944,-0.0332 -0.25391,-0.0508 z m 2.33985,0.36523 a 23.134501,23.134501 0 0 0 0.10156,0.0137 c -0.0341,-0.003 -0.0675,-0.0102 -0.10156,-0.0137 z"
         style="opacity:1;fill:#ffffff;fill-opacity:1;stroke:none;stroke-width:0.01;stroke-linecap:round;stroke-linejoin:round;stroke-miterlimit:4;stroke-dasharray:none;stroke-opacity:1"
         inkscape:connector-curvature="0" /></g></g></svg>