<?xml version="1.0" encoding="UTF-8" standalone="no"?>
<svg
   xmlns:dc="http://purl.org/dc/elements/1.1/"
   xmlns:cc="http://creativecommons.org/ns#"
   xmlns:rdf="http://www.w3.org/1999/02/22-rdf-syntax-ns#"
   xmlns:svg="http://www.w3.org/2000/svg"
   xmlns="http://www.w3.org/2000/svg"
   viewBox="0 0 800 658"
   height="658"
   width="800"
   xml:space="preserve"
   version="1.1"
   id="svg2"><metadata
     id="metadata8"><rdf:RDF><cc:Work
         rdf:about=""><dc:format>image/svg+xml</dc:format><dc:type
           rdf:resource="http://purl.org/dc/dcmitype/StillImage" /><dc:title></dc:title></cc:Work></rdf:RDF></metadata><defs
     id="defs6" /><g
     transform="matrix(1.25,0,0,-1.25,0,658.00003)"
     id="g10"><g
       id="g5049"><path
         d="M 352.20296,381.14519 332.23761,233.59285 c -5.01615,-37.19709 -31.72985,-53.86947 -55.99863,-53.86947 -13.43354,0 -24.99955,4.80864 -32.55084,13.54179 -8.39934,9.71654 -11.62014,23.83573 -9.29251,40.89605 l 19.9834,147.53437 c 5.39507,39.9397 33.51618,54.1311 55.98059,54.1311 13.44255,0 24.99955,-4.7906 32.52377,-13.4967 8.45347,-9.7526 11.66525,-23.9891 9.31957,-41.1848 M 171.71182,135.65163 c 8.81434,-10.95252 18.4587,-20.07361 28.68046,-27.14674 18.39555,-11.881778 40.49007,-18.170008 63.91079,-18.170008 69.52238,0 134.57895,54.771648 148.09368,124.700018 5.33191,24.70183 10.56459,55.93547 15.55367,92.86191 l 1.27208,9.30153 c 3.56363,25.98295 7.2265,52.85905 8.99479,76.85715 l 0.10826,1.8765 31.26973,0 c 2.29155,0 4.38462,-0.9202 5.76496,-2.5261 1.28111,-1.4796 1.83144,-3.4283 1.55176,-5.4762 L 450.21635,213.65456 c -4.78158,-35.20327 -20.99385,-62.82817 -31.72083,-77.77738 l 107.02621,0 c 5.25974,0.11729 5.25974,2.20133 5.25072,4.63723 l -0.0271,1.21795 c -0.1624,10.21274 0.0812,20.70515 0.76685,31.12539 1.06458,16.63629 2.49906,32.39746 4.28538,46.84145 l 3.25686,26.17239 c 1.9217,15.6078 3.8343,30.41265 5.6838,43.99956 1.7863,13.20799 3.4915,25.64912 5.1154,37.36854 1.5878,11.6562 3.2659,23.0147 4.9169,33.7958 1.3352,8.5798 2.6795,17.4302 4.0688,26.5243 l 0.6406,4.132 0.4601,-0.5053 c 1.4525,2.9682 4.114,4.7636 7.3979,4.7636 l 50.3239,0 c 2.6073,0.1534 4.7184,2.084 5.1605,4.6913 l 1.4164,9.2204 c 2.1563,14.2996 5.0613,29.8623 8.5347,46.2279 2.039,9.5271 4.4749,19.0813 7.2265,28.4369 -0.027,1.1909 -0.4601,2.7156 -2.7968,3.2659 l -226.82733,0.2436 c -28.67144,31.1705 -64.88515,37.161 -84.69713,37.8647 -1.01045,0.018 -2.03894,0.036 -3.10352,0.036 -70.5238,0 -134.11883,-53.1748 -147.87715,-123.7166 l -0.37892,-1.6149 c -5.11539,-23.917 -10.18567,-54.4559 -15.40932,-93.24087 -3.02232,-22.27495 -5.58453,-48.28495 -7.3889,-75.25126 l -0.1263,-1.86752 -35.73555,0 -0.44207,0.25261 c -1.57883,0.83903 -2.52612,2.66145 -2.4359,4.57408 1.83143,24.00714 4.44777,48.4744 7.71368,72.82438 4.62821,34.05748 10.58263,67.95258 17.69185,100.68388 6.48671,32.1629 18.35044,58.1368 36.26784,79.2479 l -74.601689,0 -2.5622,-0.036 -32.48769,0 c -2.99525,-0.2345 -4.49288,-1.6961 -5.13343,-5.0432 -1.72317,-24.4041 -5.56648,-49.0789 -9.30153,-72.9507 -1.40741,-9.085 -2.87797,-18.4677 -4.16809,-27.661 -4.80865,-33.5161 -10.22176,-68.36756 -16.0589,-103.58886 l -0.0902,-0.42403 c -7.5242,-45.21751 -15.31908,-91.99581 -29.74502035,-136.49158 -0.31576,-1.26306 -0.57739,-3.14862 0.23457,-4.38462 L 3.3821307,135.7599 171.71182,135.65163 Z"
         style="fill:#2778c2;fill-opacity:1;fill-rule:nonzero;stroke:none"
         id="path192" /><g
         id="g4917"
         transform="matrix(9.0218507,0,0,9.0218507,-4161.9766,-6120.7194)"><path
           id="path194"
           style="fill:#000000;fill-opacity:1;fill-rule:nonzero;stroke:none"
           d="m 464.1852,678.5283 -2.823,0 1.257,6.547 1.132,0 -1.106,-5.738 1.69,0 -0.15,-0.809 z" /><path
           id="path196"
           style="fill:#000000;fill-opacity:1;fill-rule:nonzero;stroke:none"
           d="m 469.2027,684.266 -1.841,0 -0.38,-1.979 1.628,0 -0.15,-0.799 -1.628,0 -0.417,-2.151 1.841,0 -0.15,-0.809 -2.974,0 1.257,6.547 2.973,0 -0.159,-0.809 z" /><path
           id="path198"
           style="fill:#000000;fill-opacity:1;fill-rule:nonzero;stroke:none"
           d="m 476.592,682.8768 c 0,-0.266 -0.026,-0.552 -0.075,-0.856 -0.05,-0.305 -0.12,-0.606 -0.208,-0.904 -0.089,-0.298 -0.196,-0.585 -0.324,-0.861 -0.126,-0.276 -0.269,-0.519 -0.429,-0.728 -0.242,-0.317 -0.551,-0.579 -0.929,-0.785 -0.378,-0.207 -0.846,-0.31 -1.407,-0.31 -0.336,0 -0.649,0.035 -0.938,0.105 -0.289,0.07 -0.519,0.159 -0.69,0.267 l 1.159,5.994 c 0.242,0.121 0.5,0.213 0.775,0.276 0.274,0.064 0.591,0.095 0.951,0.095 0.365,0 0.681,-0.055 0.947,-0.166 0.265,-0.111 0.485,-0.267 0.659,-0.466 0.174,-0.2 0.302,-0.441 0.384,-0.723 0.083,-0.283 0.125,-0.595 0.125,-0.938 m -1.107,0.197 c 0,0.439 -0.087,0.768 -0.261,0.987 -0.174,0.22 -0.45,0.329 -0.827,0.329 -0.242,0 -0.454,-0.035 -0.637,-0.105 l -0.938,-4.919 c 0.136,-0.063 0.319,-0.095 0.548,-0.095 0.289,0 0.548,0.067 0.775,0.2 0.227,0.134 0.426,0.346 0.597,0.639 0.106,0.178 0.205,0.392 0.296,0.643 0.092,0.251 0.17,0.512 0.235,0.782 0.065,0.27 0.117,0.54 0.155,0.81 0.038,0.27 0.057,0.513 0.057,0.729" /><path
           id="path200"
           style="fill:#000000;fill-opacity:1;fill-rule:nonzero;stroke:none"
           d="m 481.0078,684.266 -1.841,0 -0.381,-1.979 1.629,0 -0.15,-0.799 -1.629,0 -0.416,-2.151 1.841,0 -0.15,-0.809 -2.974,0 1.256,6.538 2.974,0.009 -0.159,-0.809 z m -1.124,1.294 -0.629,0 0.867,1.342 c 0.095,0.063 0.203,0.109 0.324,0.138 0.121,0.029 0.234,0.043 0.34,0.043 0.118,0 0.217,-0.018 0.297,-0.052 0.079,-0.035 0.128,-0.088 0.146,-0.158 l -1.345,-1.313 z" /><path
           id="path202"
           style="fill:#000000;fill-opacity:1;fill-rule:nonzero;stroke:none"
           d="m 485.8036,683.6002 c 0,-0.286 -0.05,-0.571 -0.15,-0.856 -0.1,-0.286 -0.236,-0.536 -0.406,-0.752 -0.218,-0.279 -0.501,-0.499 -0.848,-0.662 -0.347,-0.161 -0.774,-0.242 -1.28,-0.242 -0.188,0 -0.37,0.01 -0.547,0.029 l -0.503,-2.589 -1.106,0 1.212,6.271 c 0.218,0.108 0.473,0.196 0.765,0.266 0.293,0.07 0.621,0.105 0.987,0.105 0.324,0 0.605,-0.04 0.841,-0.119 0.236,-0.079 0.43,-0.189 0.584,-0.328 0.153,-0.14 0.267,-0.305 0.34,-0.495 0.074,-0.19 0.111,-0.4 0.111,-0.628 m -1.08,0.025 c 0,0.271 -0.071,0.479 -0.215,0.624 -0.143,0.144 -0.377,0.217 -0.699,0.217 -0.117,0 -0.235,-0.013 -0.352,-0.038 -0.117,-0.025 -0.206,-0.05 -0.264,-0.076 l -0.487,-2.512 c 0.13,-0.019 0.274,-0.029 0.434,-0.029 0.317,0 0.58,0.057 0.788,0.17 0.208,0.114 0.373,0.274 0.497,0.482 0.093,0.157 0.166,0.343 0.219,0.557 0.053,0.214 0.079,0.416 0.079,0.605" /><path
           id="path204"
           style="fill:#000000;fill-opacity:1;fill-rule:nonzero;stroke:none"
           d="m 488.8655,678.5283 -0.141,1.684 -1.965,0 -0.805,-1.684 -1.071,0 3.274,6.547 1.08,0 0.752,-6.547 -1.124,0 z m -0.345,4.691 c -0.017,0.222 -0.027,0.409 -0.027,0.562 l 0,0.228 -0.017,0 c -0.101,-0.305 -0.204,-0.568 -0.31,-0.79 l -1.088,-2.303 1.619,0 -0.177,2.303 z" /><path
           id="path206"
           style="fill:#000000;fill-opacity:1;fill-rule:nonzero;stroke:none"
           d="m 495.6443,683.6192 c 0,-0.273 -0.048,-0.538 -0.146,-0.794 -0.097,-0.257 -0.231,-0.485 -0.402,-0.681 -0.195,-0.222 -0.424,-0.397 -0.686,-0.523 -0.263,-0.127 -0.536,-0.197 -0.819,-0.21 l 0,-0.019 1.266,-2.864 -1.213,0 -1.177,2.997 -0.018,0 -0.583,-2.997 -1.107,0 1.213,6.271 c 0.236,0.114 0.498,0.205 0.788,0.271 0.289,0.066 0.604,0.1 0.947,0.1 0.642,0 1.126,-0.139 1.45,-0.419 0.324,-0.279 0.487,-0.656 0.487,-1.132 m -1.106,-0.029 c 0,0.584 -0.318,0.876 -0.956,0.876 -0.124,0 -0.233,-0.01 -0.327,-0.029 -0.095,-0.019 -0.183,-0.047 -0.266,-0.085 l -0.487,-2.541 c 0.036,-0.013 0.092,-0.024 0.168,-0.033 0.078,-0.01 0.16,-0.015 0.249,-0.015 0.525,0 0.929,0.178 1.212,0.533 0.136,0.165 0.237,0.367 0.305,0.605 0.068,0.238 0.102,0.467 0.102,0.689" /><path
           id="path208"
           style="fill:#000000;fill-opacity:1;fill-rule:nonzero;stroke:none"
           d="m 499.7776,684.266 -1.124,0 -1.106,-5.738 -1.125,0 1.107,5.738 -1.124,0 0.16,0.809 3.371,0 -0.159,-0.809 z" /><path
           id="path210"
           style="fill:#000000;fill-opacity:1;fill-rule:nonzero;stroke:none"
           d="m 503.6795,684.266 -1.84,0 -0.381,-1.979 1.628,0 -0.15,-0.799 -1.628,0 -0.416,-2.151 1.84,0 -0.15,-0.809 -2.973,0 1.256,6.547 2.974,0 -0.16,-0.809 z" /><path
           id="path212"
           style="fill:#000000;fill-opacity:1;fill-rule:nonzero;stroke:none"
           d="m 509.609,678.5283 -1.035,0 0.451,4.367 c 0.024,0.204 0.059,0.467 0.106,0.79 l -0.017,0 c -0.113,-0.323 -0.216,-0.586 -0.311,-0.79 l -2.017,-4.367 -0.628,0 -0.319,4.377 c -0.012,0.203 -0.02,0.463 -0.027,0.78 l -0.018,0 c -0.058,-0.317 -0.118,-0.577 -0.176,-0.78 l -1.23,-4.377 -0.973,0 1.946,6.547 1.133,0 0.283,-4.254 c 0.012,-0.203 0.018,-0.374 0.018,-0.513 l 0,-0.2 0.018,0 c 0.088,0.272 0.179,0.51 0.274,0.713 l 1.964,4.254 1.133,0 -0.575,-6.547 z" /><path
           id="path214"
           style="fill:#000000;fill-opacity:1;fill-rule:nonzero;stroke:none"
           d="m 514.7505,684.266 -1.841,0 -0.38,-1.979 1.628,0 -0.15,-0.799 -1.628,0 -0.417,-2.151 1.841,0 -0.15,-0.809 -2.974,0 1.257,6.547 2.973,0 -0.159,-0.809 z" /><path
           id="path216"
           style="fill:#000000;fill-opacity:1;fill-rule:nonzero;stroke:none"
           d="m 519.1997,678.5283 -0.878,0 -1.498,4.225 c -0.042,0.12 -0.082,0.239 -0.12,0.357 -0.039,0.117 -0.067,0.209 -0.085,0.276 -0.017,0.066 -0.026,0.103 -0.026,0.109 l -0.018,0 c -0.035,-0.317 -0.074,-0.574 -0.115,-0.771 l -0.815,-4.196 -0.939,0 1.257,6.547 1.026,0 1.425,-3.978 c 0.065,-0.184 0.133,-0.406 0.204,-0.666 l 0.018,0 c 0.035,0.273 0.071,0.504 0.106,0.695 l 0.761,3.949 0.955,0 -1.258,-6.547 z" /><path
           id="path218"
           style="fill:#000000;fill-opacity:1;fill-rule:nonzero;stroke:none"
           d="m 524.5995,684.266 -1.123,0 -1.107,-5.738 -1.124,0 1.106,5.738 -1.123,0 0.159,0.809 3.371,0 -0.159,-0.809 z" /></g></g></g></svg>