<?xml version="1.0" encoding="UTF-8" standalone="no"?>
<!-- Generator: Adobe Illustrator 16.0.0, SVG Export Plug-In . SVG Version: 6.00 Build 0)  -->

<svg
   xmlns:dc="http://purl.org/dc/elements/1.1/"
   xmlns:cc="http://creativecommons.org/ns#"
   xmlns:rdf="http://www.w3.org/1999/02/22-rdf-syntax-ns#"
   xmlns:svg="http://www.w3.org/2000/svg"
   xmlns="http://www.w3.org/2000/svg"
   xmlns:xlink="http://www.w3.org/1999/xlink"
   xmlns:sodipodi="http://sodipodi.sourceforge.net/DTD/sodipodi-0.dtd"
   xmlns:inkscape="http://www.inkscape.org/namespaces/inkscape"
   version="1.1"
   id="Calque_1"
   x="0px"
   y="0px"
   width="600"
   height="591.5"
   viewBox="0 0 599.99999 591.49997"
   enable-background="new 0 0 841.89 595.28"
   xml:space="preserve"
   inkscape:version="0.91 r13725"
   sodipodi:docname="CollectiviteÌ_territoriale_de_Guyane_(logo).svg"><metadata
     id="metadata101"><rdf:RDF><cc:Work
         rdf:about=""><dc:format>image/svg+xml</dc:format><dc:type
           rdf:resource="http://purl.org/dc/dcmitype/StillImage" /><dc:title></dc:title></cc:Work></rdf:RDF></metadata><defs
     id="defs99"><defs
       id="defs5"><rect
         y="0"
         x="0"
         height="595.28003"
         width="841.89001"
         id="SVGID_1_" /></defs><clipPath
       id="SVGID_2_"><use
         height="100%"
         width="100%"
         y="0"
         x="0"
         style="overflow:visible"
         id="use9"
         overflow="visible"
         xlink:href="#SVGID_1_" /></clipPath></defs><sodipodi:namedview
     pagecolor="#ffffff"
     bordercolor="#666666"
     borderopacity="1"
     objecttolerance="10"
     gridtolerance="10"
     guidetolerance="10"
     inkscape:pageopacity="0"
     inkscape:pageshadow="2"
     inkscape:window-width="1440"
     inkscape:window-height="790"
     id="namedview97"
     showgrid="false"
     inkscape:zoom="0.47156115"
     inkscape:cx="420.94501"
     inkscape:cy="297.64001"
     inkscape:window-x="0"
     inkscape:window-y="1"
     inkscape:window-maximized="1"
     inkscape:current-layer="Calque_1" /><g
     id="g3605"
     transform="translate(0,-3.7800293)"><g
       id="g3525"><path
         style="fill:#f7323f"
         inkscape:connector-curvature="0"
         id="path11"
         d="m 612.099,45.672 c 0,0 -85.666,18.41 -123.727,57.314 -15.073,9.561 -180.754,82.667 -181.35,89.067 2.108,3.144 182.558,-85.149 182.558,-85.149 14.938,-3.622 85.705,-23.988 122.519,-61.232"
         clip-path="url(#SVGID_2_)"
         transform="matrix(1.173872,0,0,1.173872,-194.71602,-49.644365)" /><path
         style="fill:#0071ce"
         inkscape:connector-curvature="0"
         id="path13"
         d="m 665.965,67.715 c 0,0 -85.666,18.41 -123.728,57.314 -15.072,9.561 -162.451,76.04 -163.046,82.44 2.108,3.144 164.254,-78.522 164.254,-78.522 14.939,-3.622 85.705,-23.988 122.52,-61.232"
         clip-path="url(#SVGID_2_)"
         transform="matrix(1.173872,0,0,1.173872,-194.71602,-49.644365)" /><path
         style="fill:#232222"
         inkscape:connector-curvature="0"
         id="path15"
         d="m 666.454,159.889 c 0,0 -85.666,18.41 -123.728,57.314 -15.073,9.561 -73.488,30.103 -74.084,36.504 2.108,3.144 75.292,-32.586 75.292,-32.586 14.939,-3.621 85.706,-23.988 122.52,-61.232"
         clip-path="url(#SVGID_2_)"
         transform="matrix(1.173872,0,0,1.173872,-194.71602,-49.644365)" /><path
         style="fill:#ffd756"
         inkscape:connector-curvature="0"
         id="path17"
         d="m 677.004,107.977 c 0,0 -85.666,18.41 -123.727,57.314 -15.073,9.561 -152.178,67.915 -152.774,74.315 2.108,3.144 153.982,-70.397 153.982,-70.397 14.938,-3.622 85.705,-23.988 122.519,-61.232"
         clip-path="url(#SVGID_2_)"
         transform="matrix(1.173872,0,0,1.173872,-194.71602,-49.644365)" /></g><g
       id="g3531"><path
         style="fill:#00953a"
         inkscape:connector-curvature="0"
         id="path19"
         d="M 441.121,123.375 C 350.379,61.11 259.65,56.572 209.061,71.353 c 0,0 96.754,-24.846 217.692,58.575 4.744,-2.163 9.538,-4.349 14.368,-6.553"
         clip-path="url(#SVGID_2_)"
         transform="matrix(1.173872,0,0,1.173872,-194.71602,-49.644365)" /><path
         style="fill:#00953a"
         inkscape:connector-curvature="0"
         id="path25"
         d="m 528.579,231.017 c 33.288,47.958 46.496,88.194 46.496,88.194 0,0 -7.907,-42.344 -37.236,-92.335 l -9.26,4.141 z"
         clip-path="url(#SVGID_2_)"
         transform="matrix(1.173872,0,0,1.173872,-194.71602,-49.644365)" /><path
         style="fill:#00953a"
         inkscape:connector-curvature="0"
         id="path21"
         d="m 479.657,153.806 c -7.544,-6.962 -16.494,-14.534 -25.201,-21.017 -2.057,-1.531 -3.378,-2.449 -5.438,-3.92 -4.822,2.207 -9.609,4.396 -14.364,6.567 4.509,3.223 8.304,6.006 12.869,9.536 6.214,4.807 12.426,10.013 18.115,15.025 l 14.019,-6.191 z"
         clip-path="url(#SVGID_2_)"
         transform="matrix(1.173872,0,0,1.173872,-194.71602,-49.644365)" /><path
         style="fill:#00953a"
         inkscape:connector-curvature="0"
         id="path23"
         d="m 508.807,184.519 c -7.506,-8.694 -15.105,-17.052 -22.936,-24.786 l -13.616,6.273 c 8.159,7.589 16.353,15.817 24.34,24.303 l 12.212,-5.79 z"
         clip-path="url(#SVGID_2_)"
         transform="matrix(1.173872,0,0,1.173872,-194.71602,-49.644365)" /><path
         style="fill:#00953a"
         inkscape:connector-curvature="0"
         id="path27"
         d="m 533.65,219.858 c -5.789,-9.483 -12.413,-19.015 -20.071,-28.553 l -11.787,5.509 c 8.357,9.382 15.505,18.508 22.082,27.778 l 9.776,-4.734 z"
         clip-path="url(#SVGID_2_)"
         transform="matrix(1.173872,0,0,1.173872,-194.71602,-49.644365)" /><path
         style="fill:#00953a"
         inkscape:connector-curvature="0"
         id="path29"
         d="m 542.955,294.625 c -21.094,35.757 -42.826,71.154 -64.991,106.255 -17.099,27.077 -34.515,53.978 -52.846,80.241 -12.363,17.712 -24.944,37.084 -41.174,51.582 -2.081,1.857 -6.144,6.048 -8.326,3.287 -2.688,-3.398 -5.354,-6.806 -8.248,-10.034 -8.215,-9.167 -18.262,-16.241 -29.389,-21.444 -18.712,-8.75 -39.76,-11.821 -60.193,-13.038 -35.66,-2.125 -71.657,2.398 -106.738,8.4 l 0,12.402 c 32.504,-22.313 65.435,-47.687 81.099,-85.106 1.486,-3.55 -3.082,-9.725 -1.625,-13.207 -15.664,37.42 -46.97,63.597 -79.474,85.911 -1.184,0.812 0.956,12.238 0,12.402 43.307,-7.409 88.661,-12.871 132.383,-5.593 20.881,3.477 41.534,10.903 57.484,25.194 4.741,4.248 8.862,9.105 12.796,14.093 1.428,1.81 2.252,4.255 4.618,3.155 2.55,-1.185 4.75,-3.215 6.798,-5.095 16.499,-15.135 29.31,-35.152 42.004,-53.4 41.289,-59.35 79.094,-121.345 115.821,-183.604 1.834,-3.103 -1.783,-9.376 0.001,-12.401"
         clip-path="url(#SVGID_2_)"
         transform="matrix(1.173872,0,0,1.173872,-194.71602,-49.644365)" /><path
         style="fill:#00953a"
         inkscape:connector-curvature="0"
         id="path31"
         d="m 258.928,85.653 c -37.313,38.321 -65.313,96.05 -52.292,149.444 -0.946,-3.879 6.602,-4.329 5.646,-8.25 -7.024,-28.801 2.786,-64.225 18.78,-91.434 7.8,-13.269 17.096,-26.296 27.866,-37.357 2.111,-2.167 -2.02,-10.328 0,-12.403"
         clip-path="url(#SVGID_2_)"
         transform="matrix(1.173872,0,0,1.173872,-194.71602,-49.644365)" /></g><g
       id="g3571"><path
         style="fill:#232222"
         inkscape:connector-curvature="0"
         id="path89"
         d="m 345.012,408.769 c -2.242,6.851 -4.421,10.772 -11.146,10.772 -2.055,0 -3.425,-0.622 -3.425,-0.622 0,-0.062 -0.436,-1.058 -0.436,-2.304 0,-1.369 0.436,-2.429 0.498,-2.491 0,0 1.37,0.249 2.802,0.249 2.802,0 4.234,-0.747 6.103,-6.601 l 1.308,-3.799 c -0.623,-0.062 -1.308,-0.125 -1.993,-0.435 l -11.832,-31.883 c 0,0 1.184,-0.438 3.238,-0.438 2.117,0 3.238,0.438 3.238,0.438 l 7.099,18.929 c 1.557,4.297 2.18,7.287 2.18,7.287 l 0.249,0 c 0,0 0.622,-2.927 1.992,-7.225 l 6.166,-18.991 c 0,0 0.996,-0.438 3.051,-0.438 1.805,0 2.927,0.438 2.927,0.438 l -12.019,37.114 z"
         clip-path="url(#SVGID_2_)"
         transform="matrix(1.173872,0,0,1.173872,-194.71602,-49.644365)" /><path
         inkscape:connector-curvature="0"
         id="path33"
         d="m 191.821,248.35 c 4.018,0 7.979,0.918 11.251,2.698 l 0,3.444 c -2.928,-1.894 -6.831,-2.927 -10.734,-2.927 -8.783,0 -17.968,5.682 -17.968,17.91 -0.057,11.595 9.357,17.106 18.14,17.106 4.248,0 8.036,-1.033 10.964,-2.928 l 0,3.387 c -3.272,1.78 -7.29,2.755 -11.653,2.755 -10.046,0 -20.952,-6.831 -20.895,-20.32 0,-14.008 10.62,-21.125 20.895,-21.125"
         clip-path="url(#SVGID_2_)"
         transform="matrix(1.173872,0,0,1.173872,-194.71602,-49.644365)" /><path
         inkscape:connector-curvature="0"
         id="path35"
         d="m 221.843,260.978 c 7.52,0 14.523,5.109 14.523,14.409 0,9.299 -7.003,14.408 -14.523,14.408 -7.404,0 -14.465,-5.109 -14.465,-14.408 0,-9.3 7.061,-14.409 14.465,-14.409 m 0.058,3.1 c -6.143,0 -11.251,4.133 -11.251,11.309 0,7.175 5.108,11.308 11.251,11.308 6.084,0 11.193,-4.133 11.193,-11.308 0,-7.176 -5.109,-11.309 -11.193,-11.309"
         clip-path="url(#SVGID_2_)"
         transform="matrix(1.173872,0,0,1.173872,-194.71602,-49.644365)" /><rect
         id="rect37"
         height="41.904999"
         width="3.2720001"
         clip-path="url(#SVGID_2_)"
         y="247.258"
         x="243.60001"
         transform="matrix(1.173872,0,0,1.173872,-194.71602,-49.644365)" /><rect
         id="rect39"
         height="41.904999"
         width="3.2720001"
         clip-path="url(#SVGID_2_)"
         y="247.258"
         x="256.17099"
         transform="matrix(1.173872,0,0,1.173872,-194.71602,-49.644365)" /><path
         inkscape:connector-curvature="0"
         id="path41"
         d="m 280.281,260.978 c 10.447,0 14.006,8.668 12.571,15.901 l -22.905,0 c 0.402,7.003 6.2,9.931 12.342,9.931 3.33,0 6.659,-0.862 9.013,-2.239 l 0,3.214 c -2.469,1.321 -5.97,2.01 -9.472,2.01 -8.036,0 -15.154,-4.478 -15.154,-14.409 0,-9.471 6.945,-14.408 13.605,-14.408 m 0.229,2.985 c -5.396,0 -10.275,3.501 -10.563,10.046 l 20.035,0 c 0.459,-3.904 -1.722,-10.046 -9.472,-10.046"
         clip-path="url(#SVGID_2_)"
         transform="matrix(1.173872,0,0,1.173872,-194.71602,-49.644365)" /><path
         inkscape:connector-curvature="0"
         id="path43"
         d="m 313.001,260.979 c 2.928,0 5.97,0.631 8.324,2.239 l 0,3.157 c -2.124,-1.607 -5.11,-2.411 -7.922,-2.411 -5.913,0 -11.998,3.387 -11.998,11.538 0,7.749 5.741,11.309 11.654,11.309 3.042,0 6.142,-0.804 8.552,-2.239 l 0,3.272 c -2.64,1.32 -5.682,1.951 -9.012,1.951 -7.118,0 -14.466,-4.477 -14.466,-14.235 0,-10.162 7.693,-14.581 14.868,-14.581"
         clip-path="url(#SVGID_2_)"
         transform="matrix(1.173872,0,0,1.173872,-194.71602,-49.644365)" /><path
         inkscape:connector-curvature="0"
         id="path45"
         d="m 333.207,251.966 0,9.644 11.538,0 0,3.042 -11.538,0 0,15.958 c 0,4.363 2.066,6.085 6.372,6.085 2.239,0 4.305,-0.517 6.027,-1.263 l 0,2.985 c -1.836,0.804 -4.305,1.32 -6.888,1.32 -5.282,0 -8.725,-2.87 -8.725,-8.553 l 0,-16.532 -5.167,0 0,-3.042 5.167,0 0,-8.783 3.214,-0.861 z"
         clip-path="url(#SVGID_2_)"
         transform="matrix(1.173872,0,0,1.173872,-194.71602,-49.644365)" /><path
         inkscape:connector-curvature="0"
         id="path47"
         d="m 352.724,255.41 c -1.205,0 -2.239,-0.689 -2.239,-2.181 0,-1.378 1.034,-2.182 2.239,-2.182 1.149,0 2.182,0.804 2.182,2.182 0,1.492 -1.033,2.181 -2.182,2.181 m -1.607,6.199 3.272,0 0,27.554 -3.272,0 0,-27.554 z"
         clip-path="url(#SVGID_2_)"
         transform="matrix(1.173872,0,0,1.173872,-194.71602,-49.644365)" /><polygon
         id="polygon49"
         points="384.813,261.61 388.429,261.61 375.972,289.164 372.528,289.164 360.014,261.61 363.631,261.61 374.25,285.49 "
         clip-path="url(#SVGID_2_)"
         transform="matrix(1.173872,0,0,1.173872,-194.71602,-49.644365)" /><path
         inkscape:connector-curvature="0"
         id="path51"
         d="m 395.72,255.41 c -1.205,0 -2.239,-0.689 -2.239,-2.181 0,-1.378 1.034,-2.182 2.239,-2.182 1.149,0 2.182,0.804 2.182,2.182 0,1.492 -1.033,2.181 -2.182,2.181 m -1.607,6.199 3.272,0 0,27.554 -3.272,0 0,-27.554 z"
         clip-path="url(#SVGID_2_)"
         transform="matrix(1.173872,0,0,1.173872,-194.71602,-49.644365)" /><path
         inkscape:connector-curvature="0"
         id="path53"
         d="m 411.334,251.966 0,9.644 11.539,0 0,3.042 -11.539,0 0,15.958 c 0,4.363 2.066,6.085 6.372,6.085 2.239,0 4.306,-0.517 6.027,-1.263 l 0,2.985 c -1.836,0.804 -4.305,1.32 -6.888,1.32 -5.282,0 -8.725,-2.87 -8.725,-8.553 l 0,-16.532 -5.167,0 0,-3.042 5.167,0 0,-8.783 3.214,-0.861 z"
         clip-path="url(#SVGID_2_)"
         transform="matrix(1.173872,0,0,1.173872,-194.71602,-49.644365)" /><path
         inkscape:connector-curvature="0"
         id="path55"
         d="m 440.782,260.978 c 10.448,0 14.007,8.668 12.571,15.901 l -22.903,0 c 0.401,7.003 6.199,9.931 12.342,9.931 3.328,0 6.658,-0.862 9.012,-2.239 l 0,3.214 c -2.468,1.321 -5.97,2.009 -9.472,2.009 -8.036,0 -15.154,-4.477 -15.154,-14.408 0,-9.471 6.946,-14.408 13.604,-14.408 m 0.23,2.985 c -5.396,0 -10.274,3.501 -10.562,10.046 l 20.033,0 c 0.46,-3.904 -1.721,-10.046 -9.471,-10.046 m -3.329,-6.544 5.166,-8.151 4.076,0 -5.683,8.151 -3.559,0 z"
         clip-path="url(#SVGID_2_)"
         transform="matrix(1.173872,0,0,1.173872,-194.71602,-49.644365)" /><polygon
         id="polygon57"
         points="180.57,309.658 165.875,309.658 165.875,306.386 198.652,306.386 198.652,309.658 183.957,309.658 183.957,346.569 180.57,346.569 "
         clip-path="url(#SVGID_2_)"
         transform="matrix(1.173872,0,0,1.173872,-194.71602,-49.644365)" /><path
         inkscape:connector-curvature="0"
         id="path59"
         d="m 210.192,318.384 c 10.447,0 14.006,8.668 12.571,15.9 l -22.905,0 c 0.402,7.003 6.2,9.932 12.342,9.932 3.33,0 6.659,-0.862 9.013,-2.24 l 0,3.215 c -2.469,1.321 -5.97,2.01 -9.472,2.01 -8.036,0 -15.154,-4.478 -15.154,-14.408 0,-9.473 6.945,-14.409 13.605,-14.409 m 0.229,2.984 c -5.396,0 -10.275,3.502 -10.563,10.046 l 20.035,0 c 0.459,-3.902 -1.722,-10.046 -9.472,-10.046"
         clip-path="url(#SVGID_2_)"
         transform="matrix(1.173872,0,0,1.173872,-194.71602,-49.644365)" /><path
         inkscape:connector-curvature="0"
         id="path61"
         d="m 246.299,318.44 0,3.272 c -6.027,-0.459 -10.39,3.271 -11.825,8.037 l 0,16.818 -3.272,0 0,-27.554 2.928,0 0,6.372 c 2.008,-4.074 6.715,-7.232 12.169,-6.945"
         clip-path="url(#SVGID_2_)"
         transform="matrix(1.173872,0,0,1.173872,-194.71602,-49.644365)" /><path
         inkscape:connector-curvature="0"
         id="path63"
         d="m 267.882,318.44 0,3.272 c -6.027,-0.459 -10.39,3.271 -11.825,8.037 l 0,16.818 -3.272,0 0,-27.554 2.928,0 0,6.372 c 2.008,-4.074 6.715,-7.232 12.169,-6.945"
         clip-path="url(#SVGID_2_)"
         transform="matrix(1.173872,0,0,1.173872,-194.71602,-49.644365)" /><path
         inkscape:connector-curvature="0"
         id="path65"
         d="m 276.148,312.815 c -1.205,0 -2.238,-0.689 -2.238,-2.182 0,-1.378 1.033,-2.182 2.238,-2.182 1.149,0 2.182,0.804 2.182,2.182 0,1.493 -1.033,2.182 -2.182,2.182 m -1.606,6.201 3.272,0 0,27.554 -3.272,0 0,-27.554 z"
         clip-path="url(#SVGID_2_)"
         transform="matrix(1.173872,0,0,1.173872,-194.71602,-49.644365)" /><path
         inkscape:connector-curvature="0"
         id="path67"
         d="m 293.025,309.371 0,9.645 11.538,0 0,3.042 -11.538,0 0,15.959 c 0,4.361 2.066,6.084 6.372,6.084 2.238,0 4.305,-0.518 6.027,-1.264 l 0,2.985 c -1.836,0.804 -4.305,1.32 -6.888,1.32 -5.282,0 -8.725,-2.87 -8.725,-8.553 l 0,-16.532 -5.167,0 0,-3.042 5.167,0 0,-8.784 3.214,-0.86 z"
         clip-path="url(#SVGID_2_)"
         transform="matrix(1.173872,0,0,1.173872,-194.71602,-49.644365)" /><path
         inkscape:connector-curvature="0"
         id="path69"
         d="m 324.597,318.383 c 7.52,0 14.523,5.11 14.523,14.41 0,9.298 -7.003,14.407 -14.523,14.407 -7.405,0 -14.465,-5.109 -14.465,-14.407 0,-9.3 7.06,-14.41 14.465,-14.41 m 0.058,3.1 c -6.143,0 -11.251,4.133 -11.251,11.31 0,7.174 5.108,11.307 11.251,11.307 6.084,0 11.193,-4.133 11.193,-11.307 0,-7.177 -5.109,-11.31 -11.193,-11.31"
         clip-path="url(#SVGID_2_)"
         transform="matrix(1.173872,0,0,1.173872,-194.71602,-49.644365)" /><path
         inkscape:connector-curvature="0"
         id="path71"
         d="m 362.541,318.44 0,3.272 c -6.027,-0.459 -10.39,3.271 -11.825,8.037 l 0,16.818 -3.272,0 0,-27.554 2.928,0 0,6.372 c 2.008,-4.074 6.715,-7.232 12.169,-6.945"
         clip-path="url(#SVGID_2_)"
         transform="matrix(1.173872,0,0,1.173872,-194.71602,-49.644365)" /><path
         inkscape:connector-curvature="0"
         id="path73"
         d="m 370.807,312.815 c -1.205,0 -2.239,-0.689 -2.239,-2.182 0,-1.378 1.034,-2.182 2.239,-2.182 1.149,0 2.182,0.804 2.182,2.182 0,1.493 -1.033,2.182 -2.182,2.182 m -1.607,6.201 3.272,0 0,27.554 -3.272,0 0,-27.554 z"
         clip-path="url(#SVGID_2_)"
         transform="matrix(1.173872,0,0,1.173872,-194.71602,-49.644365)" /><path
         inkscape:connector-curvature="0"
         id="path75"
         d="m 406.972,343.986 c 0.746,0 1.435,-0.172 2.124,-0.403 l 0,2.641 c -0.919,0.346 -1.952,0.574 -2.985,0.574 -2.354,0 -4.478,-1.147 -4.765,-4.248 -2.755,2.985 -6.716,4.65 -11.308,4.65 -4.822,0 -9.587,-2.526 -9.587,-8.151 0,-6.831 6.315,-9.013 12.17,-9.013 2.927,0 6.027,0.459 8.668,1.205 l 0,-1.836 c 0,-4.822 -3.1,-8.037 -8.783,-8.037 -4.191,0 -7.577,0.976 -9.873,1.953 l 0,-3.215 c 2.123,-0.746 5.74,-1.724 10.218,-1.724 7.29,0 11.652,4.076 11.652,11.424 l 0,11.768 c -10e-4,1.837 1.147,2.412 2.469,2.412 m -16.304,0.401 c 4.133,0 8.151,-1.894 10.62,-5.396 l 0,-5.051 c -2.411,-0.632 -5.453,-1.148 -8.209,-1.148 -4.535,0 -9.299,1.492 -9.299,6.084 0,3.789 3.387,5.511 6.888,5.511"
         clip-path="url(#SVGID_2_)"
         transform="matrix(1.173872,0,0,1.173872,-194.71602,-49.644365)" /><rect
         id="rect77"
         height="41.903999"
         width="3.2720001"
         clip-path="url(#SVGID_2_)"
         y="304.664"
         x="415.41101"
         transform="matrix(1.173872,0,0,1.173872,-194.71602,-49.644365)" /><path
         inkscape:connector-curvature="0"
         id="path79"
         d="m 440.783,318.384 c 10.447,0 14.007,8.668 12.571,15.9 l -22.903,0 c 0.401,7.003 6.199,9.932 12.342,9.932 3.329,0 6.658,-0.862 9.012,-2.24 l 0,3.215 c -2.468,1.321 -5.97,2.01 -9.472,2.01 -8.036,0 -15.154,-4.478 -15.154,-14.408 0,-9.473 6.946,-14.409 13.604,-14.409 m 0.23,2.984 c -5.396,0 -10.274,3.502 -10.562,10.046 l 20.033,0 c 0.46,-3.902 -1.721,-10.046 -9.471,-10.046"
         clip-path="url(#SVGID_2_)"
         transform="matrix(1.173872,0,0,1.173872,-194.71602,-49.644365)" /><path
         inkscape:connector-curvature="0"
         id="path81"
         d="m 201.657,363.792 0,40.182 -2.927,0 0,-5.682 c -2.354,3.501 -6.257,6.313 -11.768,6.313 -7.807,0 -13.72,-5.913 -13.72,-14.409 0,-8.494 5.913,-14.407 13.72,-14.407 5.511,0 9.414,2.812 11.481,5.97 l 0,-17.967 3.214,0 z m -14.293,14.981 c -6.085,0 -10.85,4.307 -10.85,11.423 0,7.062 4.765,11.425 10.85,11.425 5.338,0 9.472,-3.56 11.079,-7.693 l 0,-7.462 c -1.607,-4.133 -5.741,-7.693 -11.079,-7.693"
         clip-path="url(#SVGID_2_)"
         transform="matrix(1.173872,0,0,1.173872,-194.71602,-49.644365)" /><path
         inkscape:connector-curvature="0"
         id="path83"
         d="m 222.324,375.789 c 10.447,0 14.006,8.668 12.571,15.9 l -22.905,0 c 0.402,7.003 6.2,9.932 12.342,9.932 3.33,0 6.659,-0.862 9.013,-2.239 l 0,3.214 c -2.469,1.321 -5.97,2.01 -9.472,2.01 -8.036,0 -15.154,-4.478 -15.154,-14.409 0,-9.471 6.945,-14.408 13.605,-14.408 m 0.229,2.984 c -5.396,0 -10.275,3.502 -10.563,10.046 l 20.035,0 c 0.459,-3.902 -1.722,-10.046 -9.472,-10.046"
         clip-path="url(#SVGID_2_)"
         transform="matrix(1.173872,0,0,1.173872,-194.71602,-49.644365)" /><path
         style="fill:#232222"
         inkscape:connector-curvature="0"
         id="path85"
         d="m 275.075,358.516 c 7.41,0 11.645,2.117 11.645,2.117 0,1.744 -0.686,3.55 -1.869,4.671 0,0 -4.172,-1.433 -9.091,-1.433 -7.597,0 -13.202,3.86 -13.202,17.748 0,13.886 5.605,17.498 13.202,17.498 2.864,0 5.106,-0.373 5.667,-0.498 l 0,-14.386 -9.03,0 c 0,0 -0.498,-0.934 -0.498,-2.553 0,-1.682 0.498,-2.615 0.498,-2.615 l 15.008,0 0,23.414 c 0,0 -4.608,2.117 -12.33,2.117 -12.392,0 -19.117,-7.847 -19.117,-23.041 0,-15.068 6.725,-23.039 19.117,-23.039"
         clip-path="url(#SVGID_2_)"
         transform="matrix(1.173872,0,0,1.173872,-194.71602,-49.644365)" /><path
         style="fill:#232222"
         inkscape:connector-curvature="0"
         id="path87"
         d="m 295.815,371.655 c 0,0 1.059,-0.437 3.113,-0.437 2.117,0 3.114,0.437 3.114,0.437 l 0,22.417 c 0,3.487 1.806,5.48 5.791,5.48 2.74,0 5.356,-1.433 7.037,-3.985 l 0,-23.912 c 0,0 1.121,-0.437 3.113,-0.437 2.18,0 3.114,0.437 3.114,0.437 l 0,31.884 c 0,0 -0.934,0.435 -3.114,0.435 -1.992,0 -3.113,-0.435 -3.113,-0.435 l 0,-2.865 c -2.242,2.553 -5.542,3.923 -9.403,3.923 -6.227,0 -9.652,-3.798 -9.652,-9.403 l 0,-23.539 z"
         clip-path="url(#SVGID_2_)"
         transform="matrix(1.173872,0,0,1.173872,-194.71602,-49.644365)" /><path
         style="fill:#232222"
         inkscape:connector-curvature="0"
         id="path91"
         d="m 373.659,370.597 c 9.029,0 11.894,4.047 11.894,12.08 l 0,20.862 c 0,0 -0.685,0.435 -2.429,0.435 -1.557,0 -2.491,-0.435 -2.491,-0.435 l -0.934,-3.986 c -1.619,3.3 -5.044,5.044 -9.776,5.044 -5.854,0 -9.653,-3.424 -9.653,-10.399 0,-6.788 4.173,-9.775 11.956,-9.775 2.803,0 5.48,0.186 7.1,0.373 l 0,-2.305 c 0,-4.233 -1.62,-6.663 -6.415,-6.663 -4.358,0 -8.344,1.558 -8.344,1.558 -0.062,-0.063 -0.809,-0.562 -1.432,-1.869 -0.56,-1.307 -0.374,-2.552 -0.374,-2.615 0,-0.002 4.671,-2.305 10.898,-2.305 m -0.623,18.058 c -4.172,0 -6.352,1.619 -6.352,5.542 0,4.048 2.056,5.604 5.418,5.604 4.919,0 7.224,-4.172 7.224,-8.593 l 0,-2.181 c -1.433,-0.123 -3.924,-0.372 -6.29,-0.372"
         clip-path="url(#SVGID_2_)"
         transform="matrix(1.173872,0,0,1.173872,-194.71602,-49.644365)" /><path
         style="fill:#232222"
         inkscape:connector-curvature="0"
         id="path93"
         d="m 419.68,403.538 c 0,0 -1.059,0.437 -3.113,0.437 -2.117,0 -3.114,-0.437 -3.114,-0.437 l 0,-22.418 c 0,-3.486 -1.806,-5.479 -5.791,-5.479 -2.74,0 -5.418,1.494 -7.037,3.984 l 0,23.912 c 0,0 -1.121,0.437 -3.113,0.437 -2.18,0 -3.114,-0.437 -3.114,-0.437 l 0,-31.883 c 0,0 0.934,-0.436 3.114,-0.436 1.992,0 3.113,0.436 3.113,0.436 l 0,2.864 c 2.242,-2.553 5.48,-3.922 9.403,-3.922 6.227,0 9.652,3.797 9.652,9.401 l 0,23.541 z"
         clip-path="url(#SVGID_2_)"
         transform="matrix(1.173872,0,0,1.173872,-194.71602,-49.644365)" /><path
         style="fill:#232222"
         inkscape:connector-curvature="0"
         id="path95"
         d="m 433.571,389.527 c 0.498,7.409 3.487,9.776 8.656,9.776 4.421,0 7.348,-1.807 7.348,-1.807 1.121,0.998 1.931,2.678 1.992,4.484 0,0 -3.549,2.615 -10.337,2.615 -9.59,0 -14.073,-5.916 -14.073,-17.187 0,-11.77 5.542,-16.813 13.824,-16.813 7.659,0 12.33,4.234 12.33,12.518 0,3.923 -0.686,6.413 -0.686,6.413 l -19.054,0 z m 7.41,-14.011 c -4.048,0 -6.912,2.679 -7.41,9.59 l 13.326,0 c 0.062,-0.498 0.187,-1.493 0.187,-2.802 0,-3.675 -1.494,-6.788 -6.103,-6.788"
         clip-path="url(#SVGID_2_)"
         transform="matrix(1.173872,0,0,1.173872,-194.71602,-49.644365)" /></g></g></svg>