<?xml version="1.0" encoding="UTF-8" standalone="no"?>
<svg
   xmlns:dc="http://purl.org/dc/elements/1.1/"
   xmlns:cc="http://creativecommons.org/ns#"
   xmlns:rdf="http://www.w3.org/1999/02/22-rdf-syntax-ns#"
   xmlns:svg="http://www.w3.org/2000/svg"
   xmlns="http://www.w3.org/2000/svg"
   viewBox="0 0 800 792.49996"
   height="792.5"
   width="800"
   xml:space="preserve"
   version="1.1"
   id="svg2"><metadata
     id="metadata8"><rdf:RDF><cc:Work
         rdf:about=""><dc:format>image/svg+xml</dc:format><dc:type
           rdf:resource="http://purl.org/dc/dcmitype/StillImage" /><dc:title></dc:title></cc:Work></rdf:RDF></metadata><defs
     id="defs6" /><g
     transform="matrix(1.25,0,0,-1.25,0,792.49995)"
     id="g10"><g
       transform="matrix(8.7364915,0,0,8.7364915,-4203.9761,-391.96972)"
       id="g5297"><g
         id="g5288"><path
           d="m 513.3803,95.5926 c 3.702,12.55 15.314,21.711 29.064,21.711 3.575,0 6.85,-0.573 10.035,-1.709 l -0.008,-0.019 -4.323,-12.685 -0.059,-0.179 c -1.796,0.661 -3.619,0.971 -5.645,0.971 -9.209,0 -16.675,-7.465 -16.675,-16.676 0,-7.534 4.723,-13.81 11.584,-15.875 l 0.071,-0.019 -4.36,-12.922 c -10.292,3.348 -18.159,11.996 -20.319,22.769 l -0.379,0 -8.507,0 c -2.371,-7.484 -5.132,-15.129 -7.287,-22.744 l -15.375,0 c 2.762,7.541 4.898,15.195 7.62,22.744 l -2.635,-0.01 c 1.583,4.888 3.117,9.523 4.535,14.504 l 2.63,-10e-4 7.429,21.965 15.275,0 c -2.381,-7.486 -6.104,-17.816 -7.436,-21.964 l 0.245,0 c 0.434,0 4.488,-10e-4 4.488,-10e-4 l 0.032,0.14 z"
           style="fill:#000000;fill-opacity:1;fill-rule:nonzero;stroke:none"
           id="path344" /><path
           d="m 542.9163,102.5987 c 1.7,0 3.337,-0.272 4.87,-0.773 l -0.981,-2.879 c -1.226,0.397 -2.532,0.612 -3.889,0.612 -6.974,0 -12.629,-5.656 -12.629,-12.63 0,-5.478 3.49,-10.142 8.367,-11.891 l -0.981,-2.878 c -6.075,2.158 -10.427,7.956 -10.427,14.769 0,8.653 7.017,15.67 15.67,15.67"
           style="fill:#0b72b5;fill-opacity:1;fill-rule:evenodd;stroke:none"
           id="path348" /><g
           id="g5282"><path
             id="path352"
             style="fill:#ffffff;fill-opacity:1;fill-rule:evenodd;stroke:none"
             d="m 509.4388,101.4573 -6.446,0 -1.628,-4.287 -6.731,-1.076 -5.15,-15.965 9.139,-12.148 10.816,33.476 z" /><path
             id="path356"
             style="fill:#000000;fill-opacity:1;fill-rule:evenodd;stroke:none"
             d="m 508.7641,100.9096 -5.436,-0.005 -1.6,-4.169 -6.715,-1.087 -4.99,-15.429 8.41,-11.179 10.331,31.869 z" /><path
             id="path360"
             style="fill:#ffffff;fill-opacity:1;fill-rule:evenodd;stroke:none"
             d="m 508.1255,100.4433 -4.457,0.001 -1.599,-4.136 -6.702,-1.082 -4.813,-14.922 7.704,-10.28 9.867,30.419 z" /><path
             id="path364"
             style="fill:#000000;fill-opacity:1;fill-rule:evenodd;stroke:none"
             d="m 507.4484,99.9428 -3.46,0 -1.56,-4.076 -6.683,-1.07 -1.085,-3.341 7.091,-9.101 5.697,17.588 z" /></g></g><g
         id="g5254"><path
           d="m 481.9985,54.7274 0,-2.347 0.534,0 c 0.2,0 0.344,0.011 0.433,0.034 0.116,0.029 0.212,0.078 0.289,0.147 0.076,0.07 0.139,0.184 0.187,0.342 0.048,0.159 0.073,0.375 0.073,0.649 0,0.274 -0.025,0.485 -0.073,0.631 -0.048,0.147 -0.116,0.261 -0.203,0.343 -0.087,0.083 -0.197,0.138 -0.331,0.167 -0.1,0.023 -0.296,0.034 -0.588,0.034 l -0.321,0 z m -0.715,0.6 1.307,0 c 0.295,0 0.52,-0.023 0.675,-0.068 0.207,-0.061 0.386,-0.17 0.534,-0.327 0.148,-0.156 0.261,-0.347 0.338,-0.574 0.078,-0.226 0.116,-0.505 0.116,-0.837 0,-0.292 -0.036,-0.543 -0.109,-0.754 -0.088,-0.258 -0.215,-0.467 -0.379,-0.626 -0.124,-0.121 -0.292,-0.215 -0.503,-0.283 -0.158,-0.05 -0.369,-0.075 -0.633,-0.075 l -1.346,0 0,3.544 z"
           style="fill:#000000;fill-opacity:1;fill-rule:nonzero;stroke:none"
           id="path368" /><path
           d="m 485.513,54.6647 0.334,0.723 0.761,0 -0.665,-0.723 -0.43,0 z m 0.868,-1.378 c -0.005,0.197 -0.056,0.346 -0.153,0.449 -0.096,0.102 -0.214,0.153 -0.352,0.153 -0.149,0 -0.271,-0.054 -0.368,-0.162 -0.097,-0.108 -0.144,-0.255 -0.142,-0.44 l 1.015,0 z m -0.039,-0.686 0.677,-0.114 c -0.087,-0.248 -0.225,-0.437 -0.412,-0.567 -0.188,-0.13 -0.423,-0.194 -0.705,-0.194 -0.446,0 -0.777,0.146 -0.991,0.437 -0.169,0.234 -0.254,0.529 -0.254,0.885 0,0.425 0.111,0.758 0.334,0.999 0.222,0.241 0.503,0.362 0.843,0.362 0.382,0 0.684,-0.126 0.904,-0.379 0.221,-0.252 0.327,-0.638 0.317,-1.159 l -1.702,0 c 0.005,-0.201 0.06,-0.358 0.165,-0.47 0.105,-0.112 0.235,-0.168 0.391,-0.168 0.107,0 0.196,0.029 0.269,0.087 0.072,0.058 0.127,0.152 0.164,0.281"
           style="fill:#000000;fill-opacity:1;fill-rule:nonzero;stroke:none"
           id="path372" /><path
           d="m 488.2614,53.1102 c 0,-0.288 0.057,-0.501 0.172,-0.639 0.114,-0.138 0.253,-0.207 0.418,-0.207 0.158,0 0.289,0.063 0.394,0.19 0.105,0.126 0.157,0.334 0.157,0.622 0,0.269 -0.054,0.469 -0.162,0.6 -0.108,0.13 -0.242,0.196 -0.401,0.196 -0.166,0 -0.304,-0.065 -0.414,-0.193 -0.109,-0.128 -0.164,-0.318 -0.164,-0.569 m -0.672,1.24 0.633,0 0,-0.377 c 0.083,0.129 0.194,0.234 0.334,0.314 0.14,0.081 0.296,0.121 0.466,0.121 0.299,0 0.551,-0.117 0.759,-0.35 0.208,-0.234 0.312,-0.56 0.312,-0.977 0,-0.429 -0.105,-0.762 -0.314,-0.999 -0.209,-0.238 -0.463,-0.357 -0.761,-0.357 -0.142,0 -0.271,0.028 -0.386,0.085 -0.115,0.056 -0.236,0.153 -0.364,0.29 l 0,-1.294 -0.679,0 0,3.544 z"
           style="fill:#000000;fill-opacity:1;fill-rule:nonzero;stroke:none"
           id="path376" /><path
           d="m 492.049,53.016 c -0.087,-0.029 -0.225,-0.064 -0.413,-0.104 -0.189,-0.04 -0.312,-0.08 -0.37,-0.118 -0.089,-0.063 -0.133,-0.143 -0.133,-0.24 0,-0.095 0.035,-0.177 0.106,-0.246 0.071,-0.069 0.161,-0.104 0.271,-0.104 0.122,0 0.239,0.04 0.35,0.121 0.083,0.061 0.137,0.136 0.162,0.225 0.018,0.058 0.027,0.168 0.027,0.331 l 0,0.135 z m -0.909,0.551 -0.616,0.111 c 0.069,0.248 0.188,0.432 0.358,0.551 0.169,0.12 0.42,0.179 0.754,0.179 0.303,0 0.528,-0.035 0.676,-0.107 0.149,-0.072 0.253,-0.163 0.314,-0.273 0.06,-0.111 0.09,-0.313 0.09,-0.608 l -0.007,-0.793 c 0,-0.226 0.011,-0.392 0.033,-0.499 0.021,-0.107 0.062,-0.222 0.122,-0.345 l -0.672,0 c -0.018,0.046 -0.04,0.112 -0.066,0.201 -0.011,0.04 -0.019,0.067 -0.024,0.08 -0.116,-0.113 -0.24,-0.198 -0.372,-0.254 -0.132,-0.057 -0.273,-0.085 -0.423,-0.085 -0.264,0 -0.473,0.072 -0.625,0.216 -0.152,0.143 -0.228,0.324 -0.228,0.543 0,0.145 0.034,0.275 0.104,0.388 0.069,0.114 0.166,0.201 0.291,0.261 0.125,0.061 0.305,0.114 0.54,0.159 0.318,0.059 0.538,0.115 0.66,0.166 l 0,0.068 c 0,0.131 -0.032,0.224 -0.097,0.279 -0.064,0.056 -0.186,0.084 -0.365,0.084 -0.121,0 -0.215,-0.024 -0.283,-0.072 -0.067,-0.047 -0.122,-0.131 -0.164,-0.25"
           style="fill:#000000;fill-opacity:1;fill-rule:nonzero;stroke:none"
           id="path380" /><path
           d="m 494.0359,51.7833 -0.679,0 0,2.567 0.631,0 0,-0.365 c 0.108,0.173 0.205,0.286 0.291,0.341 0.086,0.055 0.184,0.082 0.294,0.082 0.154,0 0.303,-0.043 0.447,-0.128 l -0.211,-0.592 c -0.114,0.074 -0.22,0.111 -0.319,0.111 -0.095,0 -0.175,-0.026 -0.241,-0.079 -0.066,-0.052 -0.118,-0.147 -0.156,-0.284 -0.038,-0.137 -0.057,-0.423 -0.057,-0.86 l 0,-0.793 z"
           style="fill:#000000;fill-opacity:1;fill-rule:nonzero;stroke:none"
           id="path384" /><path
           d="m 496.4894,54.3503 0,-0.541 -0.464,0 0,-1.035 c 0,-0.209 0.004,-0.332 0.013,-0.366 0.009,-0.035 0.029,-0.063 0.061,-0.086 0.031,-0.022 0.069,-0.034 0.114,-0.034 0.063,0 0.154,0.022 0.274,0.065 l 0.058,-0.526 c -0.158,-0.068 -0.337,-0.102 -0.537,-0.102 -0.122,0 -0.233,0.02 -0.331,0.062 -0.098,0.041 -0.171,0.094 -0.217,0.159 -0.045,0.065 -0.077,0.154 -0.095,0.265 -0.015,0.079 -0.022,0.238 -0.022,0.478 l 0,1.12 -0.312,0 0,0.541 0.312,0 0,0.51 0.682,0.397 0,-0.907 0.464,0 z"
           style="fill:#000000;fill-opacity:1;fill-rule:nonzero;stroke:none"
           id="path388" /><path
           d="m 498.486,53.2868 c -0.005,0.197 -0.056,0.346 -0.152,0.448 -0.097,0.103 -0.215,0.154 -0.353,0.154 -0.148,0 -0.271,-0.054 -0.368,-0.162 -0.096,-0.108 -0.144,-0.255 -0.142,-0.44 l 1.015,0 z m -0.039,-0.686 0.677,-0.114 c -0.087,-0.248 -0.224,-0.437 -0.412,-0.567 -0.188,-0.13 -0.423,-0.194 -0.705,-0.194 -0.446,0 -0.776,0.145 -0.991,0.437 -0.169,0.234 -0.253,0.529 -0.253,0.885 0,0.425 0.111,0.758 0.333,0.999 0.222,0.241 0.504,0.361 0.844,0.361 0.382,0 0.683,-0.126 0.904,-0.378 0.22,-0.252 0.326,-0.638 0.316,-1.159 l -1.701,0 c 0.005,-0.201 0.059,-0.358 0.164,-0.47 0.105,-0.112 0.235,-0.168 0.392,-0.168 0.106,0 0.195,0.029 0.268,0.087 0.072,0.058 0.127,0.152 0.164,0.281"
           style="fill:#000000;fill-opacity:1;fill-rule:nonzero;stroke:none"
           id="path392" /><path
           d="m 499.6631,54.3503 0.626,0 0,-0.35 c 0.224,0.272 0.491,0.408 0.8,0.408 0.164,0 0.307,-0.034 0.428,-0.102 0.121,-0.067 0.22,-0.169 0.297,-0.306 0.113,0.137 0.235,0.239 0.365,0.306 0.131,0.068 0.27,0.102 0.418,0.102 0.189,0 0.348,-0.038 0.479,-0.115 0.131,-0.076 0.228,-0.189 0.292,-0.337 0.047,-0.109 0.071,-0.287 0.071,-0.532 l 0,-1.641 -0.68,0 0,1.467 c 0,0.255 -0.023,0.419 -0.07,0.493 -0.063,0.097 -0.159,0.145 -0.29,0.145 -0.095,0 -0.184,-0.029 -0.268,-0.087 -0.084,-0.058 -0.144,-0.143 -0.181,-0.255 -0.037,-0.112 -0.056,-0.289 -0.056,-0.53 l 0,-1.233 -0.679,0 0,1.407 c 0,0.25 -0.012,0.411 -0.036,0.483 -0.025,0.073 -0.062,0.127 -0.113,0.162 -0.051,0.036 -0.119,0.053 -0.206,0.053 -0.105,0 -0.2,-0.028 -0.283,-0.084 -0.084,-0.057 -0.144,-0.138 -0.18,-0.244 -0.037,-0.107 -0.055,-0.283 -0.055,-0.53 l 0,-1.247 -0.679,0 0,2.567 z"
           style="fill:#000000;fill-opacity:1;fill-rule:nonzero;stroke:none"
           id="path396" /><path
           d="m 505.6408,53.2868 c -0.005,0.197 -0.056,0.346 -0.152,0.448 -0.097,0.103 -0.215,0.154 -0.353,0.154 -0.148,0 -0.271,-0.054 -0.368,-0.162 -0.096,-0.108 -0.144,-0.255 -0.142,-0.44 l 1.015,0 z m -0.039,-0.686 0.677,-0.114 c -0.087,-0.248 -0.224,-0.437 -0.412,-0.567 -0.188,-0.13 -0.423,-0.194 -0.705,-0.194 -0.446,0 -0.776,0.145 -0.991,0.437 -0.169,0.234 -0.254,0.529 -0.254,0.885 0,0.425 0.112,0.758 0.334,0.999 0.223,0.241 0.504,0.361 0.844,0.361 0.382,0 0.683,-0.126 0.904,-0.378 0.22,-0.252 0.326,-0.638 0.316,-1.159 l -1.701,0 c 0.005,-0.201 0.059,-0.358 0.164,-0.47 0.105,-0.112 0.235,-0.168 0.392,-0.168 0.106,0 0.195,0.029 0.268,0.087 0.072,0.058 0.127,0.152 0.164,0.281"
           style="fill:#000000;fill-opacity:1;fill-rule:nonzero;stroke:none"
           id="path400" /><path
           d="m 509.2037,51.7833 -0.679,0 0,1.31 c 0,0.277 -0.015,0.456 -0.044,0.538 -0.029,0.081 -0.076,0.145 -0.141,0.19 -0.065,0.045 -0.144,0.067 -0.236,0.067 -0.117,0 -0.223,-0.032 -0.316,-0.096 -0.094,-0.065 -0.158,-0.15 -0.193,-0.257 -0.034,-0.106 -0.052,-0.303 -0.052,-0.589 l 0,-1.163 -0.679,0 0,2.567 0.631,0 0,-0.377 c 0.224,0.29 0.506,0.435 0.846,0.435 0.15,0 0.287,-0.027 0.411,-0.081 0.124,-0.054 0.218,-0.123 0.282,-0.207 0.063,-0.083 0.108,-0.178 0.133,-0.285 0.025,-0.106 0.037,-0.259 0.037,-0.457 l 0,-1.595 z"
           style="fill:#000000;fill-opacity:1;fill-rule:nonzero;stroke:none"
           id="path404" /><path
           d="m 511.0698,54.3503 0,-0.541 -0.464,0 0,-1.035 c 0,-0.209 0.004,-0.332 0.013,-0.366 0.009,-0.035 0.029,-0.063 0.061,-0.086 0.031,-0.022 0.069,-0.034 0.114,-0.034 0.063,0 0.154,0.022 0.273,0.065 l 0.058,-0.526 c -0.158,-0.068 -0.336,-0.102 -0.536,-0.102 -0.123,0 -0.233,0.02 -0.331,0.062 -0.098,0.041 -0.171,0.094 -0.216,0.159 -0.046,0.065 -0.078,0.154 -0.096,0.265 -0.014,0.079 -0.022,0.238 -0.022,0.478 l 0,1.12 -0.311,0 0,0.541 0.311,0 0,0.51 0.682,0.397 0,-0.907 0.464,0 z"
           style="fill:#000000;fill-opacity:1;fill-rule:nonzero;stroke:none"
           id="path408" /><path
           d="m 513.4579,53.1224 c 0,-0.274 0.038,-0.472 0.113,-0.595 0.11,-0.177 0.263,-0.266 0.46,-0.266 0.156,0 0.289,0.067 0.399,0.2 0.109,0.133 0.164,0.331 0.164,0.596 0,0.295 -0.053,0.507 -0.16,0.637 -0.106,0.129 -0.242,0.194 -0.408,0.194 -0.161,0 -0.296,-0.064 -0.405,-0.192 -0.109,-0.128 -0.163,-0.319 -0.163,-0.574 m 1.813,-1.339 -0.631,0 0,0.377 c -0.105,-0.147 -0.228,-0.256 -0.371,-0.328 -0.143,-0.071 -0.286,-0.107 -0.431,-0.107 -0.295,0 -0.548,0.119 -0.758,0.356 -0.211,0.238 -0.316,0.57 -0.316,0.995 0,0.435 0.103,0.766 0.307,0.992 0.205,0.227 0.464,0.34 0.776,0.34 0.287,0 0.535,-0.119 0.745,-0.358 l 0,1.277 0.679,0 0,-3.544 z"
           style="fill:#000000;fill-opacity:1;fill-rule:nonzero;stroke:none"
           id="path412" /><path
           d="m 517.4654,53.2868 c -0.005,0.197 -0.055,0.346 -0.152,0.448 -0.097,0.103 -0.215,0.154 -0.353,0.154 -0.148,0 -0.271,-0.054 -0.367,-0.162 -0.097,-0.108 -0.145,-0.255 -0.143,-0.44 l 1.015,0 z m -0.039,-0.686 0.677,-0.114 c -0.087,-0.248 -0.224,-0.437 -0.412,-0.567 -0.188,-0.13 -0.423,-0.194 -0.705,-0.194 -0.446,0 -0.776,0.145 -0.991,0.437 -0.169,0.234 -0.253,0.529 -0.253,0.885 0,0.425 0.111,0.758 0.333,0.999 0.223,0.241 0.504,0.361 0.844,0.361 0.382,0 0.683,-0.126 0.904,-0.378 0.221,-0.252 0.326,-0.638 0.316,-1.159 l -1.701,0 c 0.005,-0.201 0.059,-0.358 0.164,-0.47 0.105,-0.112 0.235,-0.168 0.392,-0.168 0.106,0 0.195,0.029 0.268,0.087 0.073,0.058 0.127,0.152 0.164,0.281"
           style="fill:#000000;fill-opacity:1;fill-rule:nonzero;stroke:none"
           id="path416" /><path
           id="path418"
           style="fill:#000000;fill-opacity:1;fill-rule:nonzero;stroke:none"
           d="m 520.069,55.327 0.679,0 0,-3.544 -0.679,0 0,3.544 z" /><path
           d="m 522.8607,53.016 c -0.087,-0.029 -0.225,-0.064 -0.413,-0.104 -0.189,-0.04 -0.312,-0.08 -0.37,-0.118 -0.089,-0.063 -0.133,-0.143 -0.133,-0.24 0,-0.095 0.035,-0.177 0.106,-0.246 0.071,-0.069 0.161,-0.104 0.271,-0.104 0.122,0 0.239,0.04 0.35,0.121 0.083,0.061 0.137,0.136 0.162,0.225 0.018,0.058 0.027,0.168 0.027,0.331 l 0,0.135 z m -0.909,0.551 -0.616,0.111 c 0.069,0.248 0.188,0.432 0.357,0.551 0.17,0.12 0.421,0.179 0.755,0.179 0.302,0 0.528,-0.035 0.676,-0.107 0.149,-0.072 0.253,-0.163 0.313,-0.273 0.061,-0.111 0.091,-0.313 0.091,-0.608 l -0.007,-0.793 c 0,-0.226 0.011,-0.392 0.032,-0.499 0.022,-0.107 0.063,-0.222 0.123,-0.345 l -0.672,0 c -0.018,0.046 -0.04,0.112 -0.066,0.201 -0.011,0.04 -0.019,0.067 -0.024,0.08 -0.116,-0.113 -0.24,-0.198 -0.372,-0.254 -0.132,-0.057 -0.273,-0.085 -0.423,-0.085 -0.264,0 -0.473,0.072 -0.625,0.216 -0.152,0.143 -0.228,0.324 -0.228,0.543 0,0.145 0.034,0.275 0.103,0.388 0.07,0.114 0.167,0.201 0.292,0.261 0.125,0.061 0.305,0.114 0.54,0.159 0.317,0.059 0.537,0.115 0.66,0.166 l 0,0.068 c 0,0.131 -0.032,0.224 -0.097,0.279 -0.064,0.056 -0.186,0.084 -0.365,0.084 -0.121,0 -0.215,-0.024 -0.283,-0.072 -0.067,-0.047 -0.122,-0.131 -0.164,-0.25"
           style="fill:#000000;fill-opacity:1;fill-rule:nonzero;stroke:none"
           id="path422" /><path
           d="m 525.5799,51.7833 0,3.544 0.716,0 0,-1.395 1.401,0 0,1.395 0.716,0 0,-3.544 -0.716,0 0,1.549 -1.401,0 0,-1.549 -0.716,0 z"
           style="fill:#000000;fill-opacity:1;fill-rule:nonzero;stroke:none"
           id="path426" /><path
           d="m 530.5641,53.016 c -0.087,-0.029 -0.225,-0.064 -0.413,-0.104 -0.189,-0.04 -0.312,-0.08 -0.37,-0.118 -0.089,-0.063 -0.133,-0.143 -0.133,-0.24 0,-0.095 0.035,-0.177 0.106,-0.246 0.071,-0.069 0.162,-0.104 0.271,-0.104 0.123,0 0.239,0.04 0.35,0.121 0.083,0.061 0.137,0.136 0.162,0.225 0.018,0.058 0.027,0.168 0.027,0.331 l 0,0.135 z m -0.909,0.551 -0.616,0.111 c 0.069,0.248 0.188,0.432 0.358,0.551 0.169,0.12 0.42,0.179 0.754,0.179 0.303,0 0.528,-0.035 0.677,-0.107 0.148,-0.072 0.252,-0.163 0.312,-0.273 0.061,-0.111 0.091,-0.313 0.091,-0.608 l -0.007,-0.793 c 0,-0.226 0.011,-0.392 0.033,-0.499 0.021,-0.107 0.062,-0.222 0.122,-0.345 l -0.672,0 c -0.018,0.046 -0.04,0.112 -0.066,0.201 -0.011,0.04 -0.019,0.067 -0.024,0.08 -0.116,-0.113 -0.24,-0.198 -0.372,-0.254 -0.132,-0.057 -0.273,-0.085 -0.423,-0.085 -0.264,0 -0.472,0.072 -0.625,0.216 -0.152,0.143 -0.228,0.324 -0.228,0.543 0,0.145 0.034,0.275 0.104,0.388 0.069,0.114 0.166,0.201 0.291,0.261 0.125,0.061 0.305,0.114 0.54,0.159 0.318,0.059 0.538,0.115 0.66,0.166 l 0,0.068 c 0,0.131 -0.032,0.224 -0.097,0.279 -0.064,0.056 -0.186,0.084 -0.365,0.084 -0.121,0 -0.215,-0.024 -0.282,-0.072 -0.068,-0.047 -0.123,-0.131 -0.165,-0.25"
           style="fill:#000000;fill-opacity:1;fill-rule:nonzero;stroke:none"
           id="path430" /><path
           d="m 533.5904,51.7833 0,0.384 c -0.093,-0.137 -0.216,-0.245 -0.369,-0.324 -0.152,-0.079 -0.313,-0.118 -0.482,-0.118 -0.172,0 -0.327,0.038 -0.464,0.113 -0.137,0.076 -0.236,0.183 -0.297,0.32 -0.061,0.137 -0.092,0.326 -0.092,0.568 l 0,1.624 0.679,0 0,-1.18 c 0,-0.361 0.013,-0.582 0.038,-0.663 0.025,-0.081 0.07,-0.146 0.136,-0.193 0.066,-0.048 0.15,-0.072 0.252,-0.072 0.116,0 0.219,0.032 0.311,0.096 0.092,0.063 0.155,0.142 0.189,0.237 0.034,0.094 0.051,0.325 0.051,0.692 l 0,1.083 0.679,0 0,-2.567 -0.631,0 z"
           style="fill:#000000;fill-opacity:1;fill-rule:nonzero;stroke:none"
           id="path434" /><path
           d="m 536.1019,54.3503 0,-0.541 -0.464,0 0,-1.035 c 0,-0.209 0.004,-0.332 0.013,-0.366 0.009,-0.035 0.029,-0.063 0.061,-0.086 0.031,-0.022 0.069,-0.034 0.114,-0.034 0.063,0 0.154,0.022 0.274,0.065 l 0.057,-0.526 c -0.157,-0.068 -0.336,-0.102 -0.536,-0.102 -0.123,0 -0.233,0.02 -0.331,0.062 -0.098,0.041 -0.171,0.094 -0.216,0.159 -0.046,0.065 -0.078,0.154 -0.096,0.265 -0.015,0.079 -0.022,0.238 -0.022,0.478 l 0,1.12 -0.311,0 0,0.541 0.311,0 0,0.51 0.682,0.397 0,-0.907 0.464,0 z"
           style="fill:#000000;fill-opacity:1;fill-rule:nonzero;stroke:none"
           id="path438" /><path
           d="m 538.0985,53.2868 c -0.005,0.197 -0.056,0.346 -0.152,0.448 -0.097,0.103 -0.215,0.154 -0.353,0.154 -0.148,0 -0.271,-0.054 -0.368,-0.162 -0.096,-0.108 -0.144,-0.255 -0.142,-0.44 l 1.015,0 z m -0.039,-0.686 0.677,-0.114 c -0.087,-0.248 -0.224,-0.437 -0.412,-0.567 -0.188,-0.13 -0.423,-0.194 -0.705,-0.194 -0.446,0 -0.776,0.145 -0.991,0.437 -0.169,0.234 -0.254,0.529 -0.254,0.885 0,0.425 0.112,0.758 0.334,0.999 0.222,0.241 0.504,0.361 0.844,0.361 0.382,0 0.683,-0.126 0.904,-0.378 0.22,-0.252 0.326,-0.638 0.316,-1.159 l -1.701,0 c 0.005,-0.201 0.059,-0.358 0.164,-0.47 0.105,-0.112 0.235,-0.168 0.392,-0.168 0.106,0 0.195,0.029 0.268,0.087 0.072,0.058 0.127,0.152 0.164,0.281"
           style="fill:#000000;fill-opacity:1;fill-rule:nonzero;stroke:none"
           id="path442" /><path
           id="path444"
           style="fill:#000000;fill-opacity:1;fill-rule:nonzero;stroke:none"
           d="m 539.249,53.408 1.334,0 0,-0.679 -1.334,0 0,0.679 z" /><path
           d="m 543.2471,53.0861 0.694,-0.22 c -0.107,-0.387 -0.284,-0.674 -0.531,-0.862 -0.247,-0.187 -0.561,-0.281 -0.941,-0.281 -0.471,0 -0.858,0.16 -1.161,0.482 -0.303,0.321 -0.454,0.761 -0.454,1.318 0,0.59 0.152,1.048 0.457,1.375 0.304,0.326 0.705,0.489 1.201,0.489 0.434,0 0.786,-0.128 1.056,-0.384 0.161,-0.152 0.282,-0.369 0.363,-0.653 l -0.708,-0.169 c -0.042,0.184 -0.13,0.329 -0.262,0.435 -0.134,0.107 -0.295,0.16 -0.485,0.16 -0.263,0 -0.476,-0.095 -0.639,-0.283 -0.164,-0.189 -0.246,-0.494 -0.246,-0.916 0,-0.448 0.081,-0.767 0.242,-0.957 0.161,-0.191 0.37,-0.286 0.628,-0.286 0.19,0 0.354,0.061 0.491,0.182 0.137,0.121 0.235,0.311 0.295,0.57"
           style="fill:#000000;fill-opacity:1;fill-rule:nonzero;stroke:none"
           id="path448" /><path
           d="m 545.0889,53.0669 c 0,-0.255 0.06,-0.45 0.181,-0.585 0.121,-0.135 0.27,-0.203 0.447,-0.203 0.178,0 0.326,0.068 0.446,0.203 0.12,0.135 0.181,0.332 0.181,0.59 0,0.251 -0.061,0.444 -0.181,0.58 -0.12,0.135 -0.268,0.203 -0.446,0.203 -0.177,0 -0.326,-0.068 -0.447,-0.203 -0.121,-0.136 -0.181,-0.33 -0.181,-0.585 m -0.696,0.036 c 0,0.226 0.056,0.444 0.167,0.655 0.111,0.211 0.269,0.373 0.472,0.484 0.204,0.111 0.432,0.166 0.683,0.166 0.388,0 0.707,-0.126 0.955,-0.378 0.248,-0.252 0.372,-0.571 0.372,-0.956 0,-0.388 -0.125,-0.71 -0.376,-0.966 -0.25,-0.255 -0.566,-0.383 -0.946,-0.383 -0.235,0 -0.46,0.053 -0.673,0.16 -0.214,0.106 -0.376,0.262 -0.487,0.468 -0.111,0.205 -0.167,0.455 -0.167,0.75"
           style="fill:#000000;fill-opacity:1;fill-rule:nonzero;stroke:none"
           id="path452" /><path
           d="m 548.2239,51.7833 -0.679,0 0,2.567 0.631,0 0,-0.365 c 0.108,0.173 0.205,0.286 0.291,0.341 0.086,0.055 0.184,0.082 0.294,0.082 0.154,0 0.304,-0.043 0.447,-0.128 l -0.211,-0.592 c -0.114,0.074 -0.22,0.111 -0.318,0.111 -0.096,0 -0.176,-0.026 -0.242,-0.079 -0.066,-0.052 -0.118,-0.147 -0.156,-0.284 -0.038,-0.137 -0.057,-0.423 -0.057,-0.86 l 0,-0.793 z"
           style="fill:#000000;fill-opacity:1;fill-rule:nonzero;stroke:none"
           id="path456" /><path
           d="m 549.261,52.5158 0.682,0.104 c 0.029,-0.132 0.087,-0.232 0.176,-0.301 0.089,-0.068 0.213,-0.103 0.372,-0.103 0.176,0 0.308,0.032 0.397,0.097 0.059,0.045 0.089,0.105 0.089,0.181 0,0.052 -0.016,0.094 -0.048,0.128 -0.034,0.033 -0.11,0.062 -0.227,0.09 -0.548,0.121 -0.896,0.231 -1.042,0.331 -0.203,0.138 -0.305,0.331 -0.305,0.578 0,0.222 0.088,0.409 0.264,0.56 0.175,0.152 0.448,0.227 0.817,0.227 0.351,0 0.612,-0.057 0.783,-0.171 0.171,-0.114 0.288,-0.284 0.353,-0.508 l -0.641,-0.118 c -0.027,0.1 -0.079,0.176 -0.156,0.23 -0.076,0.053 -0.185,0.079 -0.327,0.079 -0.179,0 -0.307,-0.025 -0.385,-0.075 -0.051,-0.035 -0.077,-0.081 -0.077,-0.137 0,-0.049 0.023,-0.09 0.068,-0.124 0.061,-0.045 0.273,-0.108 0.634,-0.191 0.362,-0.082 0.615,-0.183 0.758,-0.302 0.142,-0.121 0.213,-0.289 0.213,-0.505 0,-0.235 -0.099,-0.438 -0.295,-0.607 -0.197,-0.169 -0.488,-0.253 -0.873,-0.253 -0.349,0 -0.626,0.07 -0.83,0.212 -0.204,0.142 -0.337,0.335 -0.4,0.578"
           style="fill:#000000;fill-opacity:1;fill-rule:nonzero;stroke:none"
           id="path460" /><path
           d="m 553.7786,53.2868 c -0.005,0.197 -0.055,0.346 -0.152,0.448 -0.097,0.103 -0.215,0.154 -0.353,0.154 -0.149,0 -0.271,-0.054 -0.367,-0.162 -0.097,-0.108 -0.145,-0.255 -0.143,-0.44 l 1.015,0 z m -0.039,-0.686 0.677,-0.114 c -0.087,-0.248 -0.224,-0.437 -0.412,-0.567 -0.188,-0.13 -0.423,-0.194 -0.705,-0.194 -0.446,0 -0.776,0.145 -0.991,0.437 -0.169,0.234 -0.253,0.529 -0.253,0.885 0,0.425 0.111,0.758 0.333,0.999 0.223,0.241 0.504,0.361 0.844,0.361 0.382,0 0.683,-0.126 0.904,-0.378 0.221,-0.252 0.326,-0.638 0.316,-1.159 l -1.701,0 c 0.005,-0.201 0.059,-0.358 0.164,-0.47 0.105,-0.112 0.235,-0.168 0.392,-0.168 0.106,0 0.195,0.029 0.268,0.087 0.072,0.058 0.127,0.152 0.164,0.281"
           style="fill:#000000;fill-opacity:1;fill-rule:nonzero;stroke:none"
           id="path464" /></g><g
         id="g5229"><path
           d="m 481.9985,48.7869 0,-2.347 0.534,0 c 0.2,0 0.344,0.011 0.433,0.034 0.116,0.029 0.212,0.078 0.289,0.147 0.076,0.069 0.139,0.183 0.187,0.342 0.048,0.159 0.073,0.375 0.073,0.649 0,0.274 -0.025,0.484 -0.073,0.631 -0.048,0.147 -0.116,0.261 -0.203,0.343 -0.087,0.082 -0.197,0.138 -0.331,0.167 -0.1,0.023 -0.296,0.034 -0.588,0.034 l -0.321,0 z m -0.715,0.599 1.307,0 c 0.295,0 0.52,-0.022 0.675,-0.067 0.207,-0.062 0.386,-0.17 0.534,-0.327 0.148,-0.156 0.261,-0.347 0.338,-0.574 0.078,-0.226 0.116,-0.505 0.116,-0.837 0,-0.292 -0.036,-0.543 -0.109,-0.754 -0.088,-0.258 -0.215,-0.467 -0.379,-0.627 -0.124,-0.12 -0.292,-0.215 -0.503,-0.282 -0.158,-0.05 -0.369,-0.075 -0.633,-0.075 l -1.346,0 0,3.543 z"
           style="fill:#0b72b5;fill-opacity:1;fill-rule:nonzero;stroke:none"
           id="path468" /><path
           id="path470"
           style="fill:#0b72b5;fill-opacity:1;fill-rule:nonzero;stroke:none"
           d="m 485.212,48.41 0.679,0 0,-2.567 -0.679,0 0,2.567 z m 0,0.976 0.679,0 0,-0.628 -0.679,0 0,0.628 z" /><path
           d="m 487.5964,47.1698 c 0,-0.289 0.057,-0.502 0.172,-0.639 0.114,-0.138 0.253,-0.207 0.418,-0.207 0.158,0 0.289,0.063 0.394,0.19 0.105,0.126 0.157,0.334 0.157,0.622 0,0.269 -0.054,0.469 -0.162,0.6 -0.108,0.13 -0.242,0.195 -0.401,0.195 -0.166,0 -0.304,-0.064 -0.414,-0.192 -0.109,-0.128 -0.164,-0.318 -0.164,-0.569 m -0.672,1.24 0.633,0 0,-0.377 c 0.083,0.129 0.194,0.233 0.334,0.314 0.14,0.081 0.296,0.121 0.466,0.121 0.299,0 0.552,-0.117 0.759,-0.351 0.208,-0.233 0.312,-0.559 0.312,-0.976 0,-0.429 -0.105,-0.762 -0.314,-1 -0.209,-0.237 -0.463,-0.356 -0.761,-0.356 -0.142,0 -0.271,0.028 -0.386,0.084 -0.115,0.057 -0.236,0.154 -0.364,0.291 l 0,-1.294 -0.679,0 0,3.544 z"
           style="fill:#0b72b5;fill-opacity:1;fill-rule:nonzero;stroke:none"
           id="path474" /><path
           d="m 491.7406,47.0755 c -0.087,-0.029 -0.225,-0.064 -0.413,-0.104 -0.189,-0.04 -0.312,-0.08 -0.37,-0.118 -0.089,-0.063 -0.133,-0.143 -0.133,-0.24 0,-0.095 0.035,-0.177 0.106,-0.246 0.071,-0.07 0.161,-0.104 0.271,-0.104 0.122,0 0.239,0.04 0.35,0.121 0.083,0.061 0.137,0.136 0.162,0.224 0.018,0.058 0.027,0.169 0.027,0.331 l 0,0.136 z m -0.909,0.551 -0.616,0.111 c 0.069,0.248 0.188,0.432 0.358,0.551 0.169,0.12 0.42,0.179 0.754,0.179 0.303,0 0.528,-0.036 0.676,-0.107 0.149,-0.072 0.253,-0.163 0.313,-0.273 0.061,-0.111 0.091,-0.314 0.091,-0.608 l -0.007,-0.793 c 0,-0.226 0.011,-0.392 0.033,-0.499 0.021,-0.108 0.062,-0.222 0.122,-0.345 l -0.672,0 c -0.018,0.045 -0.04,0.112 -0.066,0.201 -0.011,0.04 -0.019,0.067 -0.024,0.079 -0.116,-0.112 -0.24,-0.197 -0.372,-0.253 -0.132,-0.057 -0.273,-0.085 -0.423,-0.085 -0.264,0 -0.473,0.072 -0.625,0.215 -0.152,0.144 -0.228,0.325 -0.228,0.544 0,0.145 0.034,0.275 0.104,0.388 0.069,0.114 0.166,0.201 0.291,0.261 0.125,0.061 0.305,0.113 0.54,0.159 0.318,0.059 0.538,0.115 0.66,0.166 l 0,0.068 c 0,0.13 -0.032,0.223 -0.097,0.279 -0.064,0.056 -0.186,0.084 -0.365,0.084 -0.121,0 -0.215,-0.024 -0.283,-0.072 -0.067,-0.047 -0.122,-0.131 -0.164,-0.25"
           style="fill:#0b72b5;fill-opacity:1;fill-rule:nonzero;stroke:none"
           id="path478" /><path
           d="m 494.0839,45.8427 -0.679,0 0,2.567 0.631,0 0,-0.365 c 0.108,0.173 0.205,0.286 0.291,0.341 0.086,0.055 0.184,0.082 0.294,0.082 0.154,0 0.303,-0.043 0.447,-0.128 l -0.211,-0.592 c -0.114,0.074 -0.22,0.111 -0.319,0.111 -0.095,0 -0.175,-0.026 -0.241,-0.079 -0.066,-0.052 -0.118,-0.147 -0.156,-0.284 -0.038,-0.137 -0.057,-0.423 -0.057,-0.86 l 0,-0.793 z"
           style="fill:#0b72b5;fill-opacity:1;fill-rule:nonzero;stroke:none"
           id="path482" /><path
           d="m 496.8938,48.4097 0,-0.541 -0.464,0 0,-1.035 c 0,-0.209 0.004,-0.332 0.013,-0.366 0.009,-0.035 0.029,-0.063 0.061,-0.086 0.031,-0.022 0.069,-0.034 0.114,-0.034 0.063,0 0.154,0.022 0.274,0.066 l 0.058,-0.527 c -0.158,-0.068 -0.337,-0.102 -0.537,-0.102 -0.122,0 -0.233,0.02 -0.331,0.062 -0.098,0.041 -0.171,0.094 -0.217,0.159 -0.045,0.065 -0.077,0.154 -0.095,0.265 -0.014,0.079 -0.022,0.238 -0.022,0.479 l 0,1.119 -0.312,0 0,0.541 0.312,0 0,0.51 0.682,0.397 0,-0.907 0.464,0 z"
           style="fill:#0b72b5;fill-opacity:1;fill-rule:nonzero;stroke:none"
           id="path486" /><path
           id="path488"
           style="fill:#0b72b5;fill-opacity:1;fill-rule:nonzero;stroke:none"
           d="m 497.722,48.41 0.679,0 0,-2.567 -0.679,0 0,2.567 z m 0,0.976 0.679,0 0,-0.628 -0.679,0 0,0.628 z" /><path
           d="m 499.4026,48.4097 0.626,0 0,-0.35 c 0.224,0.272 0.491,0.408 0.8,0.408 0.164,0 0.307,-0.034 0.428,-0.102 0.121,-0.067 0.22,-0.169 0.297,-0.306 0.113,0.137 0.235,0.239 0.365,0.306 0.131,0.068 0.27,0.102 0.419,0.102 0.188,0 0.347,-0.038 0.478,-0.115 0.131,-0.076 0.228,-0.189 0.293,-0.337 0.046,-0.109 0.07,-0.287 0.07,-0.532 l 0,-1.641 -0.68,0 0,1.467 c 0,0.255 -0.023,0.419 -0.07,0.493 -0.063,0.097 -0.159,0.145 -0.29,0.145 -0.095,0 -0.184,-0.029 -0.268,-0.087 -0.084,-0.058 -0.144,-0.143 -0.181,-0.255 -0.037,-0.112 -0.056,-0.288 -0.056,-0.53 l 0,-1.233 -0.679,0 0,1.407 c 0,0.25 -0.012,0.411 -0.036,0.483 -0.025,0.073 -0.062,0.127 -0.113,0.162 -0.051,0.036 -0.119,0.053 -0.206,0.053 -0.105,0 -0.2,-0.028 -0.283,-0.084 -0.084,-0.056 -0.144,-0.138 -0.18,-0.244 -0.037,-0.107 -0.055,-0.283 -0.055,-0.53 l 0,-1.247 -0.679,0 0,2.567 z"
           style="fill:#0b72b5;fill-opacity:1;fill-rule:nonzero;stroke:none"
           id="path492" /><path
           d="m 505.7368,47.3462 c -0.005,0.197 -0.056,0.346 -0.152,0.448 -0.097,0.103 -0.215,0.154 -0.353,0.154 -0.148,0 -0.271,-0.054 -0.368,-0.162 -0.096,-0.108 -0.144,-0.255 -0.142,-0.44 l 1.015,0 z m -0.039,-0.686 0.677,-0.114 c -0.087,-0.248 -0.224,-0.437 -0.412,-0.567 -0.188,-0.13 -0.423,-0.194 -0.705,-0.194 -0.446,0 -0.776,0.145 -0.991,0.437 -0.169,0.234 -0.254,0.528 -0.254,0.885 0,0.425 0.112,0.758 0.334,0.999 0.222,0.241 0.504,0.362 0.844,0.362 0.382,0 0.683,-0.127 0.904,-0.379 0.22,-0.252 0.326,-0.638 0.316,-1.159 l -1.701,0 c 0.005,-0.201 0.059,-0.358 0.164,-0.47 0.105,-0.112 0.235,-0.168 0.391,-0.168 0.107,0 0.196,0.029 0.269,0.087 0.072,0.058 0.127,0.152 0.164,0.281"
           style="fill:#0b72b5;fill-opacity:1;fill-rule:nonzero;stroke:none"
           id="path496" /><path
           d="m 509.656,45.8427 -0.679,0 0,1.31 c 0,0.277 -0.015,0.457 -0.044,0.538 -0.029,0.081 -0.076,0.145 -0.141,0.19 -0.065,0.045 -0.144,0.067 -0.236,0.067 -0.118,0 -0.223,-0.032 -0.317,-0.096 -0.093,-0.065 -0.157,-0.15 -0.192,-0.257 -0.034,-0.106 -0.052,-0.303 -0.052,-0.589 l 0,-1.163 -0.679,0 0,2.567 0.631,0 0,-0.377 c 0.224,0.29 0.506,0.435 0.846,0.435 0.15,0 0.287,-0.027 0.411,-0.081 0.124,-0.054 0.218,-0.123 0.281,-0.207 0.064,-0.083 0.109,-0.178 0.133,-0.285 0.025,-0.106 0.038,-0.259 0.038,-0.457 l 0,-1.595 z"
           style="fill:#0b72b5;fill-opacity:1;fill-rule:nonzero;stroke:none"
           id="path500" /><path
           d="m 511.8783,48.4097 0,-0.541 -0.464,0 0,-1.035 c 0,-0.209 0.004,-0.332 0.013,-0.366 0.009,-0.035 0.029,-0.063 0.061,-0.086 0.031,-0.022 0.069,-0.034 0.115,-0.034 0.062,0 0.154,0.022 0.273,0.066 l 0.058,-0.527 c -0.158,-0.068 -0.337,-0.102 -0.537,-0.102 -0.122,0 -0.233,0.02 -0.331,0.062 -0.098,0.041 -0.17,0.094 -0.216,0.159 -0.046,0.065 -0.078,0.154 -0.096,0.265 -0.014,0.079 -0.022,0.238 -0.022,0.479 l 0,1.119 -0.311,0 0,0.541 0.311,0 0,0.51 0.682,0.397 0,-0.907 0.464,0 z"
           style="fill:#0b72b5;fill-opacity:1;fill-rule:nonzero;stroke:none"
           id="path504" /><path
           d="m 514.3958,45.8427 0,0.384 c -0.094,-0.137 -0.216,-0.245 -0.369,-0.324 -0.152,-0.079 -0.313,-0.118 -0.482,-0.118 -0.172,0 -0.327,0.038 -0.464,0.114 -0.137,0.075 -0.236,0.182 -0.297,0.319 -0.062,0.137 -0.092,0.326 -0.092,0.568 l 0,1.624 0.679,0 0,-1.179 c 0,-0.361 0.012,-0.583 0.037,-0.664 0.026,-0.081 0.071,-0.146 0.137,-0.193 0.066,-0.048 0.15,-0.072 0.251,-0.072 0.117,0 0.22,0.032 0.312,0.096 0.092,0.063 0.155,0.142 0.189,0.237 0.034,0.094 0.051,0.325 0.051,0.692 l 0,1.083 0.679,0 0,-2.567 -0.631,0 z"
           style="fill:#0b72b5;fill-opacity:1;fill-rule:nonzero;stroke:none"
           id="path508" /><path
           d="m 518.3598,47.1818 c 0,-0.274 0.038,-0.472 0.114,-0.595 0.109,-0.177 0.262,-0.266 0.459,-0.266 0.156,0 0.289,0.067 0.399,0.2 0.109,0.133 0.164,0.332 0.164,0.596 0,0.295 -0.053,0.507 -0.159,0.637 -0.107,0.13 -0.243,0.194 -0.409,0.194 -0.161,0 -0.296,-0.064 -0.405,-0.192 -0.109,-0.128 -0.163,-0.319 -0.163,-0.574 m 1.813,-1.339 -0.631,0 0,0.377 c -0.105,-0.147 -0.228,-0.256 -0.371,-0.328 -0.143,-0.071 -0.286,-0.107 -0.431,-0.107 -0.295,0 -0.548,0.119 -0.758,0.356 -0.211,0.238 -0.316,0.57 -0.316,0.995 0,0.435 0.103,0.766 0.307,0.992 0.205,0.227 0.463,0.34 0.776,0.34 0.287,0 0.535,-0.119 0.745,-0.358 l 0,1.277 0.679,0 0,-3.544 z"
           style="fill:#0b72b5;fill-opacity:1;fill-rule:nonzero;stroke:none"
           id="path512" /><path
           id="path514"
           style="fill:#0b72b5;fill-opacity:1;fill-rule:nonzero;stroke:none"
           d="m 521.199,48.41 0.679,0 0,-2.567 -0.679,0 0,2.567 z m 0,0.976 0.679,0 0,-0.628 -0.679,0 0,0.628 z" /><path
           d="m 526.3517,45.8427 0,0.384 c -0.093,-0.137 -0.216,-0.245 -0.369,-0.324 -0.152,-0.079 -0.313,-0.118 -0.482,-0.118 -0.172,0 -0.327,0.038 -0.464,0.114 -0.137,0.075 -0.236,0.182 -0.297,0.319 -0.061,0.137 -0.092,0.326 -0.092,0.568 l 0,1.624 0.679,0 0,-1.179 c 0,-0.361 0.013,-0.583 0.038,-0.664 0.025,-0.081 0.07,-0.146 0.136,-0.193 0.066,-0.048 0.15,-0.072 0.252,-0.072 0.116,0 0.22,0.032 0.311,0.096 0.092,0.063 0.155,0.142 0.189,0.237 0.034,0.094 0.051,0.325 0.051,0.692 l 0,1.083 0.679,0 0,-2.567 -0.631,0 z"
           style="fill:#0b72b5;fill-opacity:1;fill-rule:nonzero;stroke:none"
           id="path518" /><path
           d="m 532.0465,47.1455 0.694,-0.22 c -0.107,-0.387 -0.284,-0.674 -0.531,-0.862 -0.247,-0.187 -0.561,-0.281 -0.941,-0.281 -0.471,0 -0.858,0.16 -1.161,0.482 -0.303,0.322 -0.454,0.761 -0.454,1.319 0,0.589 0.152,1.048 0.457,1.374 0.304,0.326 0.705,0.489 1.201,0.489 0.434,0 0.786,-0.128 1.056,-0.384 0.162,-0.152 0.283,-0.369 0.363,-0.653 l -0.708,-0.169 c -0.042,0.184 -0.129,0.329 -0.262,0.435 -0.133,0.107 -0.295,0.16 -0.485,0.16 -0.263,0 -0.476,-0.095 -0.639,-0.283 -0.164,-0.189 -0.246,-0.494 -0.246,-0.916 0,-0.448 0.081,-0.767 0.242,-0.957 0.161,-0.191 0.37,-0.286 0.628,-0.286 0.191,0 0.354,0.061 0.491,0.182 0.137,0.121 0.235,0.311 0.295,0.57"
           style="fill:#0b72b5;fill-opacity:1;fill-rule:nonzero;stroke:none"
           id="path522" /><path
           id="path524"
           style="fill:#0b72b5;fill-opacity:1;fill-rule:nonzero;stroke:none"
           d="m 533.706,48.41 0.679,0 0,-2.567 -0.679,0 0,2.567 z m 0,0.976 0.679,0 0,-0.628 -0.679,0 0,0.628 z" /><path
           d="m 535.1982,46.5751 0.682,0.104 c 0.029,-0.132 0.088,-0.233 0.176,-0.301 0.089,-0.068 0.213,-0.103 0.372,-0.103 0.176,0 0.308,0.032 0.397,0.097 0.059,0.045 0.089,0.105 0.089,0.181 0,0.052 -0.016,0.094 -0.048,0.128 -0.034,0.033 -0.11,0.062 -0.227,0.09 -0.548,0.121 -0.895,0.231 -1.042,0.331 -0.203,0.138 -0.305,0.331 -0.305,0.578 0,0.222 0.088,0.409 0.264,0.56 0.175,0.152 0.448,0.228 0.817,0.228 0.351,0 0.612,-0.058 0.783,-0.172 0.171,-0.114 0.288,-0.284 0.353,-0.508 l -0.641,-0.118 c -0.027,0.1 -0.079,0.176 -0.156,0.23 -0.076,0.053 -0.185,0.079 -0.327,0.079 -0.179,0 -0.307,-0.025 -0.384,-0.075 -0.052,-0.035 -0.078,-0.081 -0.078,-0.137 0,-0.049 0.023,-0.09 0.068,-0.124 0.061,-0.045 0.273,-0.108 0.634,-0.191 0.362,-0.082 0.615,-0.183 0.758,-0.302 0.142,-0.121 0.213,-0.289 0.213,-0.505 0,-0.235 -0.098,-0.437 -0.295,-0.607 -0.197,-0.169 -0.488,-0.253 -0.873,-0.253 -0.349,0 -0.626,0.071 -0.83,0.212 -0.204,0.142 -0.337,0.335 -0.4,0.578"
           style="fill:#0b72b5;fill-opacity:1;fill-rule:nonzero;stroke:none"
           id="path528" /><path
           d="m 538.4964,48.4097 0.626,0 0,-0.35 c 0.224,0.272 0.491,0.408 0.8,0.408 0.165,0 0.307,-0.034 0.428,-0.102 0.121,-0.067 0.22,-0.169 0.297,-0.306 0.113,0.137 0.235,0.239 0.365,0.306 0.131,0.068 0.27,0.102 0.419,0.102 0.188,0 0.348,-0.038 0.478,-0.115 0.131,-0.076 0.228,-0.189 0.293,-0.337 0.046,-0.109 0.07,-0.287 0.07,-0.532 l 0,-1.641 -0.68,0 0,1.467 c 0,0.255 -0.023,0.419 -0.07,0.493 -0.062,0.097 -0.159,0.145 -0.29,0.145 -0.095,0 -0.184,-0.029 -0.268,-0.087 -0.084,-0.058 -0.144,-0.143 -0.181,-0.255 -0.037,-0.112 -0.056,-0.288 -0.056,-0.53 l 0,-1.233 -0.679,0 0,1.407 c 0,0.25 -0.012,0.411 -0.036,0.483 -0.024,0.073 -0.062,0.127 -0.113,0.162 -0.051,0.036 -0.119,0.053 -0.206,0.053 -0.105,0 -0.2,-0.028 -0.283,-0.084 -0.084,-0.056 -0.144,-0.138 -0.18,-0.244 -0.037,-0.107 -0.055,-0.283 -0.055,-0.53 l 0,-1.247 -0.679,0 0,2.567 z"
           style="fill:#0b72b5;fill-opacity:1;fill-rule:nonzero;stroke:none"
           id="path532" /><path
           d="m 543.8442,47.1263 c 0,-0.255 0.06,-0.45 0.181,-0.585 0.121,-0.135 0.27,-0.203 0.447,-0.203 0.178,0 0.326,0.068 0.446,0.203 0.121,0.135 0.181,0.332 0.181,0.59 0,0.251 -0.06,0.444 -0.181,0.58 -0.12,0.135 -0.268,0.203 -0.446,0.203 -0.177,0 -0.326,-0.068 -0.447,-0.203 -0.121,-0.136 -0.181,-0.33 -0.181,-0.585 m -0.696,0.036 c 0,0.226 0.056,0.444 0.167,0.655 0.111,0.211 0.268,0.372 0.472,0.484 0.204,0.111 0.432,0.167 0.683,0.167 0.388,0 0.707,-0.127 0.955,-0.379 0.248,-0.252 0.372,-0.571 0.372,-0.956 0,-0.388 -0.125,-0.71 -0.376,-0.966 -0.25,-0.255 -0.566,-0.383 -0.946,-0.383 -0.235,0 -0.46,0.054 -0.673,0.16 -0.214,0.106 -0.376,0.262 -0.487,0.468 -0.111,0.205 -0.167,0.455 -0.167,0.75"
           style="fill:#0b72b5;fill-opacity:1;fill-rule:nonzero;stroke:none"
           id="path536" /><path
           d="m 549.0205,45.8427 -0.679,0 0,1.31 c 0,0.277 -0.015,0.457 -0.044,0.538 -0.029,0.081 -0.076,0.145 -0.141,0.19 -0.065,0.045 -0.144,0.067 -0.236,0.067 -0.118,0 -0.223,-0.032 -0.316,-0.096 -0.094,-0.065 -0.158,-0.15 -0.193,-0.257 -0.034,-0.106 -0.052,-0.303 -0.052,-0.589 l 0,-1.163 -0.679,0 0,2.567 0.631,0 0,-0.377 c 0.224,0.29 0.506,0.435 0.846,0.435 0.15,0 0.287,-0.027 0.411,-0.081 0.124,-0.054 0.218,-0.123 0.282,-0.207 0.063,-0.083 0.108,-0.178 0.132,-0.285 0.025,-0.106 0.038,-0.259 0.038,-0.457 l 0,-1.595 z"
           style="fill:#0b72b5;fill-opacity:1;fill-rule:nonzero;stroke:none"
           id="path540" /><path
           d="m 551.243,48.4097 0,-0.541 -0.464,0 0,-1.035 c 0,-0.209 0.004,-0.332 0.013,-0.366 0.009,-0.035 0.029,-0.063 0.061,-0.086 0.031,-0.022 0.07,-0.034 0.114,-0.034 0.063,0 0.154,0.022 0.273,0.066 l 0.059,-0.527 c -0.158,-0.068 -0.337,-0.102 -0.537,-0.102 -0.123,0 -0.233,0.02 -0.331,0.062 -0.098,0.041 -0.17,0.094 -0.216,0.159 -0.046,0.065 -0.078,0.154 -0.096,0.265 -0.014,0.079 -0.022,0.238 -0.022,0.479 l 0,1.119 -0.311,0 0,0.541 0.311,0 0,0.51 0.682,0.397 0,-0.907 0.464,0 z"
           style="fill:#0b72b5;fill-opacity:1;fill-rule:nonzero;stroke:none"
           id="path544" /><path
           d="m 553.5961,47.3462 c -0.005,0.197 -0.055,0.346 -0.152,0.448 -0.097,0.103 -0.215,0.154 -0.353,0.154 -0.148,0 -0.271,-0.054 -0.367,-0.162 -0.097,-0.108 -0.145,-0.255 -0.143,-0.44 l 1.015,0 z m -0.039,-0.686 0.677,-0.114 c -0.087,-0.248 -0.224,-0.437 -0.412,-0.567 -0.188,-0.13 -0.423,-0.194 -0.705,-0.194 -0.446,0 -0.776,0.145 -0.991,0.437 -0.169,0.234 -0.253,0.528 -0.253,0.885 0,0.425 0.111,0.758 0.333,0.999 0.223,0.241 0.504,0.362 0.844,0.362 0.382,0 0.683,-0.127 0.904,-0.379 0.221,-0.252 0.326,-0.638 0.316,-1.159 l -1.701,0 c 0.005,-0.201 0.059,-0.358 0.164,-0.47 0.105,-0.112 0.235,-0.168 0.392,-0.168 0.106,0 0.195,0.029 0.268,0.087 0.073,0.058 0.127,0.152 0.164,0.281"
           style="fill:#0b72b5;fill-opacity:1;fill-rule:nonzero;stroke:none"
           id="path548" /></g></g></g></svg>