<?xml version="1.0" encoding="UTF-8" standalone="no"?>
<!-- Created with Inkscape (http://www.inkscape.org/) -->

<svg
   xmlns:dc="http://purl.org/dc/elements/1.1/"
   xmlns:cc="http://creativecommons.org/ns#"
   xmlns:rdf="http://www.w3.org/1999/02/22-rdf-syntax-ns#"
   xmlns:svg="http://www.w3.org/2000/svg"
   xmlns="http://www.w3.org/2000/svg"
   xmlns:sodipodi="http://sodipodi.sourceforge.net/DTD/sodipodi-0.dtd"
   xmlns:inkscape="http://www.inkscape.org/namespaces/inkscape"
   id="svg2"
   version="1.1"
   inkscape:version="0.91 r13725"
   xml:space="preserve"
   width="800"
   height="344"
   viewBox="0 0 800.00003 344"
   sodipodi:docname="Logo Département Isère.svg"><metadata
     id="metadata8"><rdf:RDF><cc:Work
         rdf:about=""><dc:format>image/svg+xml</dc:format><dc:type
           rdf:resource="http://purl.org/dc/dcmitype/StillImage" /><dc:title /></cc:Work></rdf:RDF></metadata><defs
     id="defs6" /><sodipodi:namedview
     pagecolor="#ffffff"
     bordercolor="#666666"
     borderopacity="1"
     objecttolerance="10"
     gridtolerance="10"
     guidetolerance="10"
     inkscape:pageopacity="0"
     inkscape:pageshadow="2"
     inkscape:window-width="1440"
     inkscape:window-height="790"
     id="namedview4"
     showgrid="false"
     inkscape:zoom="0.53283588"
     inkscape:cx="-27.508613"
     inkscape:cy="-2.1482434"
     inkscape:window-x="0"
     inkscape:window-y="1"
     inkscape:window-maximized="1"
     inkscape:current-layer="g10" /><g
     id="g10"
     inkscape:groupmode="layer"
     inkscape:label="depliant-ens-4volets-isere-2018"
     transform="matrix(1.25,0,0,-1.25,0,344.00002)"><g
       id="g38146"><path
         inkscape:connector-curvature="0"
         id="path2944"
         style="fill:#ffd200;fill-opacity:1;fill-rule:nonzero;stroke:none"
         d="M 0,248.97805 0,54.855947 640,55.025265 640,250.23852 C 484.11535,229.1021 445.21003,231.97108 320.30101,230.5507 241.8037,230.5507 169.35477,228.93278 0,248.97805" /><g
         transform="matrix(9.4065081,0,0,9.4065081,-1959.813,-78.679783)"
         id="g38105"><path
           d="m 217.6262,35.2194 c 0,-1.256 -1.146,-2.265 -2.571,-2.265 -1.393,0 -2.54,1.009 -2.54,2.265 0,1.255 1.177,2.265 2.602,2.265 1.394,0 2.509,-1.01 2.509,-2.265 m -1.094,-3.973 0,-14.298 -4.15,0 0,13.725 4.15,0.573 z"
           style="fill:#0067b1;fill-opacity:1;fill-rule:nonzero;stroke:none"
           id="path2946"
           inkscape:connector-curvature="0" /><path
           d="m 228.5604,27.417 c -1.402,0.71 -2.419,1.01 -3.463,1.01 -1.072,0 -1.786,-0.546 -1.786,-1.365 0,-0.709 0.467,-1.091 1.758,-1.418 l 1.705,-0.437 c 1.731,-0.437 2.308,-0.955 2.802,-1.583 0.523,-0.655 0.77,-1.446 0.77,-2.373 0,-2.893 -2.419,-4.858 -6.018,-4.858 -1.732,0 -3.628,0.546 -5.689,1.61 l 1.319,2.675 c 1.127,-0.683 3.078,-1.583 4.672,-1.583 1.044,0 1.868,0.682 1.868,1.583 0,0.954 -0.686,1.446 -2.17,1.718 l -1.649,0.301 c -0.935,0.163 -2.089,0.818 -2.584,1.418 -0.494,0.601 -0.797,1.611 -0.797,2.511 0,2.729 2.172,4.556 5.442,4.556 2.253,0 3.737,-0.681 5.029,-1.309 l -1.209,-2.456 z"
           style="fill:#0067b1;fill-opacity:1;fill-rule:nonzero;stroke:none"
           id="path2948"
           inkscape:connector-curvature="0" /><path
           inkscape:connector-curvature="0"
           style="fill:#0067b1;fill-opacity:1;fill-rule:nonzero;stroke:none"
           d="m 294.1582,838.8457 -2.46484,3.54688 9.52148,3.41211 1.74024,-2.52344 -8.79688,-4.43555 z m 4.75977,8.11914 c -2.88875,0 -4.55485,0.74907 -6.33985,2.35157 -1.91374,1.705 -2.7207,3.78632 -2.7207,6.92382 0,5.4925 3.5357,9.03907 9.7832,9.03907 3.06,0 5.19368,-0.78563 7.70118,-2.42188 l -2.21094,-2.72851 c -1.7425,1.16 -3.06844,1.74023 -5.02344,1.74023 -2.9325,0 -4.58984,-1.53547 -4.58984,-4.23047 l 0,-0.13476 12.07812,0 0,-1.0586 c 0,-3.64875 -0.89117,-6.00312 -2.88867,-7.64062 -1.4025,-1.15875 -3.28156,-1.83985 -5.78906,-1.83985 z m 0.4043,3.13672 c 2.12,0 3.55765,1.43992 3.78515,3.82617 l -7.57226,0 c 0.2275,-2.42375 1.62961,-3.82617 3.78711,-3.82617 z"
           transform="matrix(0.8,0,0,-0.8,0,708.661)"
           id="path2950" /><path
           d="m 252.1223,31.2048 c 0.371,-0.573 0.589,-1.201 0.65,-1.992 0.589,0.709 1.58,1.473 2.354,1.774 0.341,0.136 0.898,0.218 1.363,0.218 0.619,0 0.898,-0.055 1.548,-0.3 l -1.146,-3.22 c -0.402,0.191 -0.742,0.273 -1.207,0.273 -0.93,0 -1.766,-0.382 -2.54,-1.173 l 0,-9.878 -4.15,0 0,9.332 c 0,1.883 -0.248,3.301 -0.589,4.093 l 3.717,0.873 z"
           style="fill:#0067b1;fill-opacity:1;fill-rule:nonzero;stroke:none"
           id="path2952"
           inkscape:connector-curvature="0" /><path
           inkscape:connector-curvature="0"
           style="fill:#0067b1;fill-opacity:1;fill-rule:nonzero;stroke:none"
           d="m 332.01367,846.96484 c -2.89,0 -4.55679,0.74907 -6.34179,2.35157 -1.91251,1.705 -2.72071,3.78632 -2.72071,6.92382 0,5.4925 3.53766,9.03907 9.78516,9.03907 3.05875,0 5.19172,-0.78563 7.69922,-2.42188 l -2.20899,-2.72851 c -1.7425,1.16 -3.06843,1.74023 -5.02344,1.74023 -2.93249,0 -4.58984,-1.53547 -4.58984,-4.23047 l 0,-0.13476 12.07813,0 0,-1.0586 c 0,-3.64875 -0.89313,-6.00312 -2.89063,-7.64062 -1.40125,-1.15875 -3.28086,-1.83985 -5.78711,-1.83985 z m 0.40235,3.13672 c 2.12,0 3.55961,1.43992 3.7871,3.82617 l -7.57226,0 c 0.2275,-2.42375 1.62766,-3.82617 3.78516,-3.82617 z"
           transform="matrix(0.8,0,0,-0.8,0,708.661)"
           id="path2956" /></g><path
         inkscape:connector-curvature="0"
         id="path2964"
         style="fill:#0067b1;fill-opacity:1;fill-rule:nonzero;stroke:none"
         d="m 0.12887,57.454966 0,-57.454952328125 639.8589,0 0,57.454952328125" /><g
         transform="matrix(9.4065081,0,0,9.4065081,-1959.813,-78.679783)"
         id="g38112"><path
           d="m 215.8365,9.8509 -3.223,0 0,3.168 1.519,0 0,-2.495 1.989,0 -0.285,-0.673 z"
           style="fill:#ffffff;fill-opacity:1;fill-rule:nonzero;stroke:none"
           id="path2966"
           inkscape:connector-curvature="0" /><path
           d="m 216.3069,9.8509 0,3.168 3.399,0 -0.109,-0.668 -1.787,0 0,-0.532 1.46,0 0,-0.645 -1.46,0 0,-0.646 2.006,0 0,-0.677 -3.509,0 z"
           style="fill:#ffffff;fill-opacity:1;fill-rule:nonzero;stroke:none"
           id="path2968"
           inkscape:connector-curvature="0" /><path
           d="m 225.5992,10.2327 c -0.369,-0.241 -0.839,-0.382 -1.628,-0.382 l -2.124,0 0,3.169 2.065,0 c 0.403,0 0.923,-0.019 1.393,-0.196 0.663,-0.25 0.957,-0.686 0.957,-1.332 0,-0.491 -0.134,-0.918 -0.663,-1.259 m -1.788,2.118 -0.461,0 0,-1.822 0.503,0 c 0.42,0 0.756,0.113 0.756,0.99 0,0.737 -0.345,0.832 -0.798,0.832"
           style="fill:#ffffff;fill-opacity:1;fill-rule:nonzero;stroke:none"
           id="path2974"
           inkscape:connector-curvature="0" /><path
           d="m 226.7411,9.8509 0,3.168 3.4,0 -0.11,-0.668 -1.787,0 0,-0.532 1.46,0 0,-0.645 -1.46,0 0,-0.646 2.006,0 0,-0.677 -3.509,0 z m 3.081,3.664 -1.939,-0.437 -0.462,0.401 1.83,0.55 0.571,-0.514 z"
           style="fill:#ffffff;fill-opacity:1;fill-rule:nonzero;stroke:none"
           id="path2980"
           inkscape:connector-curvature="0" /><path
           d="m 232.9277,10.9783 -0.47,0 0,-1.127 -1.503,0 0,3.168 1.906,0 c 1.486,0 2.359,-0.264 2.359,-0.986 0,-0.469 -0.378,-1.055 -2.292,-1.055 m -0.47,1.373 0,-0.728 0.436,0 c 0.471,0 0.689,0.069 0.689,0.414 0,0.264 -0.244,0.314 -0.605,0.314 l -0.52,0 z"
           style="fill:#ffffff;fill-opacity:1;fill-rule:nonzero;stroke:none"
           id="path2986"
           inkscape:connector-curvature="0" /><path
           d="m 237.8884,9.8509 -0.302,0.609 -1.385,0 -0.319,-0.609 -1.578,0 1.88,3.168 1.561,0 1.771,-3.168 -1.628,0 z m -0.856,1.814 c -0.059,0.141 -0.101,0.327 -0.109,0.445 -0.017,-0.118 -0.059,-0.291 -0.16,-0.504 l -0.235,-0.519 0.756,0 -0.252,0.578 z"
           style="fill:#ffffff;fill-opacity:1;fill-rule:nonzero;stroke:none"
           id="path2988"
           inkscape:connector-curvature="0" /><path
           d="m 242.472,9.8509 -0.613,0.886 c -0.226,0.328 -0.361,0.369 -0.688,0.369 l 0,-1.255 -1.503,0 0,3.168 2.015,0 c 1.721,0 2.275,-0.377 2.275,-0.904 0,-0.546 -0.529,-0.823 -1.217,-0.887 0.201,-0.032 0.444,-0.177 0.587,-0.341 0.193,-0.213 0.688,-0.8 0.881,-1.036 l -1.737,0 z m -1.301,2.5 0,-0.645 0.428,0 c 0.512,0 0.688,0.131 0.688,0.345 0,0.227 -0.226,0.3 -0.696,0.3 l -0.42,0 z"
           style="fill:#ffffff;fill-opacity:1;fill-rule:nonzero;stroke:none"
           id="path2990"
           inkscape:connector-curvature="0" /><path
           d="m 248.2222,12.3466 -1.36,0 0,-2.496 -1.519,0 0,2.496 -1.36,0 0,0.673 4.415,0 -0.176,-0.673 z"
           style="fill:#ffffff;fill-opacity:1;fill-rule:nonzero;stroke:none"
           id="path2996"
           inkscape:connector-curvature="0" /><path
           d="m 248.6171,9.8509 0,3.168 3.399,0 -0.109,-0.668 -1.788,0 0,-0.532 1.461,0 0,-0.645 -1.461,0 0,-0.646 2.007,0 0,-0.677 -3.509,0 z"
           style="fill:#ffffff;fill-opacity:1;fill-rule:nonzero;stroke:none"
           id="path2998"
           inkscape:connector-curvature="0" /><path
           d="m 257.3975,9.8509 -0.143,1.277 c -0.025,0.2 -0.042,0.364 -0.042,0.637 l -0.008,0 c -0.067,-0.268 -0.109,-0.427 -0.202,-0.596 l -0.713,-1.318 -1.276,0 -0.621,1.282 c -0.084,0.177 -0.151,0.354 -0.193,0.636 l -0.009,0 c 0,-0.282 0,-0.454 -0.025,-0.654 l -0.117,-1.264 -1.511,0 0.571,3.168 1.838,0 0.571,-1.254 c 0.084,-0.178 0.142,-0.346 0.193,-0.6 l 0.008,0 c 0.051,0.241 0.118,0.395 0.227,0.645 l 0.596,1.209 1.779,0 0.537,-3.168 -1.46,0 z"
           style="fill:#ffffff;fill-opacity:1;fill-rule:nonzero;stroke:none"
           id="path3004"
           inkscape:connector-curvature="0" /><path
           d="m 259.6226,9.8509 0,3.168 3.4,0 -0.11,-0.668 -1.788,0 0,-0.532 1.461,0 0,-0.645 -1.461,0 0,-0.646 2.007,0 0,-0.677 -3.509,0 z"
           style="fill:#ffffff;fill-opacity:1;fill-rule:nonzero;stroke:none"
           id="path3010"
           inkscape:connector-curvature="0" /><path
           d="m 266.5226,9.8509 -1.032,1.1 c -0.151,0.164 -0.328,0.391 -0.453,0.595 0.033,-0.122 0.083,-0.413 0.083,-0.804 l 0,-0.891 -1.427,0 0,3.168 1.444,0 1.066,-1.086 c 0.168,-0.168 0.344,-0.391 0.487,-0.605 -0.042,0.187 -0.051,0.501 -0.051,0.709 l 0,0.982 1.427,0 0,-3.168 -1.544,0 z"
           style="fill:#ffffff;fill-opacity:1;fill-rule:nonzero;stroke:none"
           id="path3016"
           inkscape:connector-curvature="0" /><path
           d="m 272.6421,12.3466 -1.36,0 0,-2.496 -1.519,0 0,2.496 -1.36,0 0,0.673 4.415,0 -0.176,-0.673 z"
           style="fill:#ffffff;fill-opacity:1;fill-rule:nonzero;stroke:none"
           id="path3022"
           inkscape:connector-curvature="0" /></g></g></g></svg>