<?xml version="1.0" encoding="UTF-8" standalone="no"?>
<!-- Created with Inkscape (http://www.inkscape.org/) -->

<svg
   xmlns:dc="http://purl.org/dc/elements/1.1/"
   xmlns:cc="http://creativecommons.org/ns#"
   xmlns:rdf="http://www.w3.org/1999/02/22-rdf-syntax-ns#"
   xmlns:svg="http://www.w3.org/2000/svg"
   xmlns="http://www.w3.org/2000/svg"
   xmlns:sodipodi="http://sodipodi.sourceforge.net/DTD/sodipodi-0.dtd"
   xmlns:inkscape="http://www.inkscape.org/namespaces/inkscape"
   id="svg2"
   version="1.1"
   inkscape:version="0.91 r13725"
   xml:space="preserve"
   width="800"
   height="670"
   viewBox="0 0 800 670"
   sodipodi:docname="Logo Corse Sud 2015R.svg"><metadata
     id="metadata8"><rdf:RDF><cc:Work
         rdf:about=""><dc:format>image/svg+xml</dc:format><dc:type
           rdf:resource="http://purl.org/dc/dcmitype/StillImage" /><dc:title></dc:title></cc:Work></rdf:RDF></metadata><defs
     id="defs6"><clipPath
       clipPathUnits="userSpaceOnUse"
       id="clipPath86"><path
         d="m 0.06,1728.29 854.601,0 0,-1728.23 -854.601,0 0,1728.23 z"
         id="path88"
         inkscape:connector-curvature="0" /></clipPath></defs><sodipodi:namedview
     pagecolor="#ffffff"
     bordercolor="#666666"
     borderopacity="1"
     objecttolerance="10"
     gridtolerance="10"
     guidetolerance="10"
     inkscape:pageopacity="0"
     inkscape:pageshadow="2"
     inkscape:window-width="1440"
     inkscape:window-height="790"
     id="namedview4"
     showgrid="false"
     inkscape:zoom="0.73473261"
     inkscape:cx="534.375"
     inkscape:cy="331.62803"
     inkscape:window-x="0"
     inkscape:window-y="1"
     inkscape:window-maximized="1"
     inkscape:current-layer="g10" /><g
     id="g10"
     inkscape:groupmode="layer"
     inkscape:label="Dept2ALogos.eps"
     transform="matrix(1.25,0,0,-1.25,0,670)"><g
       id="g4464"
       transform="matrix(1.81286,0,0,1.8131385,-457.47857,-0.10878831)"><path
         inkscape:connector-curvature="0"
         id="path76"
         style="fill:#0b747c;fill-opacity:1;fill-rule:nonzero;stroke:none"
         d="m 266.683,92.45 32.241,18.97 1.51,-2.56 -29.541,-17.38 6.775,-11.52 -2.701,-1.59 -8.284,14.08" /><path
         inkscape:connector-curvature="0"
         id="path78"
         style="fill:#0b747c;fill-opacity:1;fill-rule:nonzero;stroke:none"
         d="m 306.904,71.55 c -0.063,1.65 -0.788,3.27 -2.177,4.85 -1.676,1.92 -3.826,2.94 -6.449,3.05 -2.624,0.12 -4.951,-0.71 -6.983,-2.49 -1.672,-1.46 -2.691,-3 -3.06,-4.63 l 18.669,-0.78 z m -19.07,-2.25 c -0.086,-2.03 0.652,-3.93 2.216,-5.72 1.686,-1.93 3.838,-2.96 6.455,-3.08 0.34,-0.01 0.802,0 1.386,0.03 l 1.134,-3.02 c -1.162,-0.15 -2.095,-0.21 -2.797,-0.18 -3.515,0.15 -6.397,1.51 -8.649,4.09 -2.242,2.56 -3.201,5.59 -2.876,9.08 0.325,3.49 1.844,6.42 4.556,8.79 2.7,2.36 5.802,3.47 9.304,3.32 3.502,-0.14 6.375,-1.5 8.617,-4.06 1.922,-2.2 2.915,-4.74 2.978,-7.61 10e-4,-0.48 -0.023,-0.98 -0.071,-1.49 -0.028,-0.2 -0.079,-0.55 -0.149,-1.07 l -2.619,0.11 -19.485,0.81" /><path
         inkscape:connector-curvature="0"
         id="path80"
         style="fill:#0b747c;fill-opacity:1;fill-rule:nonzero;stroke:none"
         d="M 339.655,62.05 324.367,35.09 c 4.119,-2.33 8.017,-2.94 11.694,-1.81 4.103,1.25 7.246,3.8 9.428,7.65 2.175,3.83 2.748,7.84 1.721,12.01 -0.918,3.74 -3.436,6.77 -7.555,9.11 z m 1.557,2.75 -0.325,0.18 c 5.07,-2.87 8.165,-6.59 9.286,-11.13 1.236,-5.02 0.551,-9.82 -2.053,-14.41 -2.613,-4.61 -6.384,-7.66 -11.311,-9.16 -4.48,-1.38 -9.256,-0.63 -14.326,2.25 l 0.326,-0.19 -0.024,-0.04 -2.59,1.47 18.452,32.54 2.59,-1.47 -0.025,-0.04" /><g
         id="g82"><g
           clip-path="url(#clipPath86)"
           id="g84"><path
             inkscape:connector-curvature="0"
             id="path90"
             style="fill:#0b747c;fill-opacity:1;fill-rule:nonzero;stroke:none"
             d="m 376.723,43.98 -7.973,-2.97 -2.959,0.98 5.858,3.67 5.074,-1.68 z m -4.808,-11.25 c -0.892,1.39 -2.339,2.41 -4.342,3.08 -2.418,0.8 -4.786,0.58 -7.103,-0.65 -2.319,-1.24 -3.902,-3.14 -4.749,-5.7 -0.698,-2.11 -0.791,-3.96 -0.28,-5.55 l 16.474,8.82 z M 356.634,21.1 c 0.955,-1.79 2.56,-3.05 4.816,-3.8 2.433,-0.8 4.806,-0.59 7.122,0.63 0.301,0.16 0.693,0.41 1.179,0.73 l 2.515,-2.03 c -0.929,-0.71 -1.703,-1.24 -2.323,-1.57 -3.1,-1.66 -6.275,-1.95 -9.525,-0.88 -3.234,1.07 -5.598,3.2 -7.092,6.37 -1.493,3.17 -1.674,6.46 -0.542,9.88 1.126,3.41 3.235,5.94 6.325,7.59 3.091,1.66 6.253,1.95 9.488,0.88 2.774,-0.92 4.918,-2.6 6.43,-5.04 0.244,-0.41 0.476,-0.85 0.699,-1.32 0.072,-0.18 0.21,-0.51 0.412,-1 l -2.311,-1.23 -17.193,-9.21" /><path
             inkscape:connector-curvature="0"
             id="path92"
             style="fill:#0b747c;fill-opacity:1;fill-rule:nonzero;stroke:none"
             d="m 386.455,22.7 -0.633,-4.12 c 0.065,-1.84 0.648,-3.55 1.748,-5.14 1.503,-2.16 3.52,-3.43 6.054,-3.82 2.533,-0.39 4.839,0.22 6.92,1.82 2.08,1.6 3.325,3.74 3.734,6.4 0.41,2.67 -0.137,5.08 -1.638,7.24 -1.503,2.17 -3.52,3.44 -6.054,3.83 -2.533,0.39 -4.84,-0.22 -6.921,-1.83 -1.525,-1.18 -2.596,-2.64 -3.21,-4.38 z m -1.59,9.26 2.942,-0.45 -0.303,-1.98 c 3.015,2.23 6.206,3.09 9.573,2.57 3.383,-0.51 6.071,-2.21 8.066,-5.08 1.994,-2.87 2.717,-6.08 2.17,-9.64 -0.544,-3.55 -2.199,-6.39 -4.962,-8.54 -2.766,-2.15 -5.839,-2.96 -9.222,-2.44 -3.367,0.52 -6.151,2.31 -8.352,5.38 L 382.968,0 l -2.943,0.45 4.84,31.51" /></g></g><path
         inkscape:connector-curvature="0"
         id="path94"
         style="fill:#0b747c;fill-opacity:1;fill-rule:nonzero;stroke:none"
         d="m 436.716,15.12 -0.037,3.92 c -0.345,1.86 -1.205,3.5 -2.577,4.92 -1.831,1.89 -4.027,2.82 -6.59,2.8 -2.564,-0.03 -4.742,-1 -6.536,-2.93 -1.796,-1.92 -2.681,-4.23 -2.656,-6.93 0.026,-2.7 0.953,-4.99 2.784,-6.86 1.83,-1.88 4.026,-2.8 6.589,-2.78 2.562,0.03 4.742,0.99 6.537,2.9 1.346,1.46 2.174,3.12 2.486,4.96 z m 3.073,-10.38 -2.976,-0.03 -0.033,3.43 c -2.615,-2.74 -5.634,-4.13 -9.056,-4.16 -3.407,-0.03 -6.329,1.21 -8.767,3.73 -2.438,2.52 -3.674,5.57 -3.707,9.16 -0.034,3.6 1.145,6.69 3.535,9.25 2.391,2.56 5.289,3.86 8.696,3.89 3.423,0.03 6.467,-1.29 9.132,-3.98 l -0.018,2.04 2.976,0.03 0.218,-23.36" /><path
         inkscape:connector-curvature="0"
         id="path96"
         style="fill:#0b747c;fill-opacity:1;fill-rule:nonzero;stroke:none"
         d="m 445.925,28.95 2.958,0.34 0.332,-2.84 c 1.889,2.41 3.961,3.8 6.214,4.18 l 0.385,-3.31 c -1.404,-0.23 -2.629,-1.05 -3.675,-2.47 -1.53,-2 -2.176,-4.27 -1.942,-6.8 l 1.397,-11.97 -2.957,-0.34 -2.712,23.21" /><path
         inkscape:connector-curvature="0"
         id="path98"
         style="fill:#0b747c;fill-opacity:1;fill-rule:nonzero;stroke:none"
         d="m 462.244,31.25 -1.757,9.34 2.926,0.55 1.757,-9.34 4.238,0.8 0.575,-3.06 -4.238,-0.79 3.745,-19.91 -2.926,-0.55 -3.745,19.91 -4.239,-0.8 -0.574,3.05 4.238,0.8" /><path
         inkscape:connector-curvature="0"
         id="path100"
         style="fill:#0b747c;fill-opacity:1;fill-rule:nonzero;stroke:none"
         d="m 490.376,35.44 c -1.524,0.63 -3.297,0.64 -5.319,0.04 -2.441,-0.73 -4.258,-2.26 -5.453,-4.6 -1.194,-2.34 -1.405,-4.8 -0.633,-7.39 0.634,-2.13 1.617,-3.7 2.945,-4.71 l 8.46,16.66 z m -5.872,-18.28 c 1.808,-0.92 3.85,-1.04 6.125,-0.36 2.456,0.73 4.282,2.26 5.478,4.59 0.155,0.31 0.338,0.73 0.551,1.27 l 3.223,-0.22 c -0.352,-1.12 -0.688,-1.99 -1.006,-2.61 -1.592,-3.14 -4.028,-5.2 -7.308,-6.18 -3.264,-0.97 -6.417,-0.58 -9.457,1.16 -3.04,1.75 -5.075,4.35 -6.104,7.8 -1.026,3.43 -0.744,6.71 0.843,9.84 1.587,3.13 4.012,5.18 7.277,6.15 2.8,0.83 5.52,0.68 8.157,-0.45 0.434,-0.2 0.877,-0.43 1.33,-0.69 0.162,-0.1 0.465,-0.3 0.907,-0.57 l -1.186,-2.34 -8.83,-17.39" /><path
         inkscape:connector-curvature="0"
         id="path102"
         style="fill:#0b747c;fill-opacity:1;fill-rule:nonzero;stroke:none"
         d="m 501.146,41.88 2.652,1.35 -0.101,0.2 c 0.304,0.99 1.271,1.9 2.9,2.73 1.671,0.85 3.416,0.95 5.234,0.31 l 0.674,-0.24 0.224,0.7 c 0.549,1.85 1.659,3.2 3.33,4.05 1.685,0.86 3.429,0.96 5.234,0.31 1.732,-0.61 3.056,-1.75 3.97,-3.4 l 8.066,-15.83 -2.653,-1.36 -8.3,16.3 c -0.335,0.58 -0.98,1.04 -1.935,1.36 -1.025,0.37 -2.013,0.31 -2.96,-0.18 -0.932,-0.47 -1.557,-1.23 -1.875,-2.28 -0.317,-1.05 -0.206,-2.1 0.332,-3.15 l 7.909,-15.53 -2.632,-1.34 -8.301,16.29 -0.02,-0.01 c -0.334,0.59 -0.972,1.05 -1.914,1.38 -1.041,0.36 -2.027,0.3 -2.96,-0.17 -0.947,-0.49 -1.569,-1.25 -1.864,-2.29 -0.293,-0.9 -0.254,-1.8 0.117,-2.7 l 8.133,-15.97 -2.652,-1.35 -10.608,20.82" /><path
         inkscape:connector-curvature="0"
         id="path104"
         style="fill:#0b747c;fill-opacity:1;fill-rule:nonzero;stroke:none"
         d="m 544.996,65.79 c -1.648,0.01 -3.297,-0.65 -4.945,-1.96 -1.99,-1.59 -3.102,-3.7 -3.332,-6.31 -0.232,-2.62 0.494,-4.98 2.177,-7.09 1.386,-1.73 2.885,-2.82 4.497,-3.26 l 1.603,18.62 z m 1.403,-19.16 c 2.021,-0.17 3.959,0.48 5.816,1.96 2.002,1.6 3.121,3.71 3.357,6.32 0.03,0.34 0.041,0.8 0.034,1.38 l 3.072,1 c 0.093,-1.17 0.108,-2.1 0.049,-2.8 -0.303,-3.51 -1.791,-6.32 -4.465,-8.46 -2.662,-2.13 -5.729,-2.95 -9.202,-2.47 -3.473,0.48 -6.332,2.13 -8.581,4.94 -2.237,2.8 -3.206,5.95 -2.905,9.44 0.301,3.5 1.782,6.31 4.446,8.43 2.282,1.82 4.86,2.7 7.732,2.64 0.475,-0.02 0.972,-0.07 1.488,-0.14 0.19,-0.04 0.543,-0.1 1.059,-0.2 l -1.9,-22.04" /><path
         inkscape:connector-curvature="0"
         id="path106"
         style="fill:#0b747c;fill-opacity:1;fill-rule:nonzero;stroke:none"
         d="m 559.582,76.38 13.936,-10.98 -1.843,-2.34 -18.355,14.46 1.843,2.34 0.523,-0.41 c -0.266,1.84 0.37,3.73 1.908,5.69 1.635,2.07 3.658,3.22 6.07,3.43 2.412,0.22 4.674,-0.47 6.782,-2.07 l 12.153,-9.58 -1.828,-2.32 -11.998,9.46 c -1.369,1.08 -2.911,1.52 -4.625,1.34 -1.713,-0.18 -3.078,-0.91 -4.093,-2.2 -1.016,-1.29 -1.418,-2.79 -1.206,-4.48 0.135,-0.95 0.38,-1.73 0.733,-2.34" /><path
         inkscape:connector-curvature="0"
         id="path108"
         style="fill:#0b747c;fill-opacity:1;fill-rule:nonzero;stroke:none"
         d="m 570.074,101.85 -8.484,4.27 1.341,2.66 8.483,-4.27 1.94,3.85 2.777,-1.4 -1.941,-3.85 18.091,-9.12 -1.34,-2.66 -18.09,9.12 -1.941,-3.85 -2.777,1.4 1.941,3.85" /></g><g
       id="g4452"
       transform="matrix(1.81286,0,0,1.8131385,-457.47857,-0.10878831)"><path
         inkscape:connector-curvature="0"
         id="path110"
         style="fill:#0b747c;fill-opacity:1;fill-rule:nonzero;stroke:none"
         d="m 278.006,151.89 c -0.419,0.11 0.325,-0.99 0.084,-1.15 -7.635,-4.47 -21,2.17 -24.381,20.72 0.05,0.29 0.431,1.04 0.802,1.28 4.908,-14.39 11.537,-23.44 23.495,-20.85 z m -24.178,13.71 c 2.77,-9.69 12.409,-20.95 23.443,-16.93 13.221,4.81 9.684,22.31 9.684,22.31 0,0 -3.451,2.95 -5.181,4.19 1.477,-5.71 4.571,-13.9 -0.242,-18.27 -2.443,-2.24 -6.123,-2.65 -9.525,-1.61 -3.5,1.04 -6.296,3.13 -8.845,5.92 -7.842,8.66 -7.603,22.08 -7.603,22.08 l 4.331,1.99 -5.178,6.16 c 0,0 -4.66,-12.7 -0.884,-25.84" /><path
         inkscape:connector-curvature="0"
         id="path112"
         style="fill:#0b747c;fill-opacity:1;fill-rule:nonzero;stroke:none"
         d="m 300.318,214.18 c -0.092,-0.29 -0.944,-0.64 -1.234,-0.55 -0.944,6.33 -9.675,17.26 -20.544,11.23 0,0 -0.203,0.92 -0.125,1.21 7.434,5.75 18.311,1.65 21.903,-11.89 z m -3.037,-2.86 c 1.011,-3.04 1.006,-6.38 0.006,-8.56 -1.007,-2.21 -3.839,-4.25 -6.707,-4.18 -8.611,0.23 -14.316,7.98 -15.275,15.71 -0.284,2.32 0.984,6.09 2.833,7.35 7.277,4.96 16.868,-3.39 19.143,-10.32 z m -1.766,-14.84 c -6.406,-6.9 -19.995,-3.62 -22.136,12.29 -0.058,0.32 0.47,0.03 0.599,0.3 0.719,-3.09 3.046,-7.41 5.339,-9.72 4.164,-3.83 10.788,-6.16 15.907,-2.29 0,0 0.379,-0.3 0.291,-0.58 z m -7.446,33.34 c -5.371,1.01 -9.69,-1.1 -12.578,-5.02 -3.395,-5.67 -4.255,-11.88 -3.039,-18.39 1.267,-6.78 6.101,-13.37 13.403,-14.64 4.746,-0.83 10.362,1.75 12.425,5.68 4.866,9.39 4.797,20.59 -3.181,28.61 -1.796,1.81 -4.506,3.28 -7.03,3.76" /><path
         inkscape:connector-curvature="0"
         id="path114"
         style="fill:#0b747c;fill-opacity:1;fill-rule:nonzero;stroke:none"
         d="m 335.254,239.39 c -4.914,-1.89 -17.687,2.13 -17.687,2.13 l 1.952,1.78 c 0,0 10.872,-2.61 16.952,-2.56 0.319,-0.01 -0.932,-1.24 -1.217,-1.35 z m -10.268,22.12 c 2.441,-2.17 3.243,-5.91 1.462,-8.63 -0.222,-0.2 -0.467,4.14 -2.842,6.39 -1.458,1.39 -3.785,2.42 -5.814,2.83 -0.962,0.18 3.977,2.31 7.194,-0.59 z m -11.91,-33.52 -1.939,-1.78 -8.756,20.54 1.827,1.67 8.868,-20.43 z m 9.114,18.05 c 7.421,6.39 7.09,10.84 6.102,13.06 -3.413,7.7 -11.11,5.77 -15.731,1.53 -4.985,-4.61 -15.797,-14.46 -15.797,-14.46 l 4.451,-0.59 8.701,-20.37 -1.054,-5.63 8.408,7.68 c 0,0 -10.455,23.65 -10.234,23.83 2.936,2.53 6.774,6.89 9.22,7.33 1.405,0.25 3.854,0.14 5.293,-1.8 1.462,-1.97 1.276,-3.22 0.999,-4.97 -0.54,-3.13 -3.735,-5.26 -9.792,-10.86 9.027,-1.5 22.622,-8.1 30.64,2.8 -7.528,-0.98 -14.229,0.82 -21.206,2.45" /><path
         inkscape:connector-curvature="0"
         id="path116"
         style="fill:#0b747c;fill-opacity:1;fill-rule:nonzero;stroke:none"
         d="m 364.748,263.45 c 0,0 -1.105,2.24 -4.122,2.25 0.666,0 -4.863,0.1 -11.826,0.38 -7.804,0.3 -5.637,6.41 -4.675,6.46 0.04,-2.37 0.838,-4.15 5.747,-4.31 1.506,-0.04 3.949,-0.32 8.008,-0.31 9.754,-0.01 6.868,-4.47 6.868,-4.47 z m 1.217,7.28 c -3.007,0.97 -6.715,0.68 -14.939,1.2 -2.084,0.14 -2.944,1.74 -2.509,2.98 0.484,1.34 1.933,2.53 3.002,3.28 3.65,2.62 11.166,3.29 11.166,3.29 l 1.92,-1.38 c 0,0 0.994,3.72 1.513,6.02 -6.275,-1.62 -11.775,-2.69 -18.118,-6.79 -3.431,-2.2 -6.514,-5.94 -6.38,-9.62 0.117,-3.01 2.402,-4.88 5.14,-5.09 4.809,-0.41 9.153,-0.57 14.319,-0.55 3.923,0.01 3.026,-5.18 0.959,-6.85 -7.331,-5.88 -14.913,-4.81 -14.913,-4.81 l -2.365,2.6 -1.701,-6.18 c 0,0 8.319,-1.43 18.734,4.52 4.556,2.6 10.261,6.27 8.68,12.7 -0.381,1.54 -0.836,3.47 -4.508,4.68" /><path
         inkscape:connector-curvature="0"
         id="path118"
         style="fill:#0b747c;fill-opacity:1;fill-rule:nonzero;stroke:none"
         d="m 384.683,265.42 -2.434,-0.5 3.28,22.3 2.52,0.52 -3.366,-22.32 z m 20.673,25.87 2.531,-1.72 2.806,6.11 -30.227,-6.2 3.486,-2.58 -3.503,-22.34 -3.07,-4.06 29.615,6.07 2.248,6.48 -5.155,-3.64 -15.485,-3.18 1.686,9.57 c 0,0 4.788,1 9.289,1.9 7.25,1.47 7.742,5.15 7.742,5.15 l -16.608,-3.41 1.475,9.15 13.17,2.7" /><path
         inkscape:connector-curvature="0"
         id="path120"
         style="fill:#0b747c;fill-opacity:1;fill-rule:nonzero;stroke:none"
         d="m 467.751,272.94 c -2.688,-2.82 -5.553,-4.45 -9.091,-5.01 -0.293,-0.06 -0.439,0.82 -0.737,0.9 4.993,1.63 9.199,4.61 10.538,10.27 1.102,4.74 -0.609,9.63 -5.211,12.06 0,0 -0.262,0.33 -0.02,0.63 0.325,0.14 4.997,-1.18 6.993,-5.75 1.882,-4.28 0.027,-10.47 -2.472,-13.1 z m -14.07,-3.33 c -3.821,0.11 -10.355,0.6 -10.355,0.6 l 8.585,20.39 c 0,0 1.54,-0.06 6.152,-0.35 8.521,-0.53 7.333,-9.9 7.22,-10.64 -1.139,-6.01 -6.828,-10.17 -11.602,-10 z m -16.52,0.95 8.685,20.39 2.22,-0.13 -8.519,-20.4 -2.386,0.14 z m 22.961,23.01 c -8.692,0.53 -18.736,1.07 -18.736,1.07 l 2.618,-3.53 -8.51,-20.41 -4.998,-2.97 c 0,0 13.408,-0.82 23.405,-1.34 5.526,-0.27 13.581,1.7 17.224,9.18 2.998,6.14 1.559,17.27 -11.003,18" /><path
         inkscape:connector-curvature="0"
         id="path122"
         style="fill:#0b747c;fill-opacity:1;fill-rule:nonzero;stroke:none"
         d="m 498.862,264.61 c -4.21,-4.9 -5.951,-4.21 -7.427,-4.5 -0.289,0.11 -0.422,0.04 -0.296,0.34 3.538,1.78 4.403,3.47 6.368,5.76 4.276,5 8.65,10.96 8.65,10.96 l 2.241,-0.83 c 0,0 -4.882,-6.34 -9.536,-11.73 z m -20.546,0.62 c 0.018,-0.33 -0.226,-0.08 -0.648,0.07 -2.148,4.15 0.409,8.65 2.967,11.71 2.878,3.46 6.33,7.3 6.33,7.3 l 1.925,-0.71 c 0,0 -5.266,-6.18 -8.161,-10.08 -2.237,-3 -2.575,-6.06 -2.413,-8.29 z m 24.899,16.72 1.462,-4.23 c 0,0 -6.159,-7.46 -10.591,-12.98 -2.645,-3.29 -6.943,-5.13 -10.052,-3.36 -4.608,2.63 -2.305,7.36 -0.741,9.49 4.587,6.16 9.207,11.38 9.207,11.38 l 4.696,1.94 -13.737,5.11 1.843,-4.37 c 0,0 -7.464,-8.1 -8.734,-11.07 -2.13,-4.97 -1.118,-9.68 1.495,-12.19 5.971,-5.74 16.781,-6.58 22.718,-0.28 4.009,4.65 11.275,13.59 11.275,13.59 l 4.6,1.96 -13.441,5.01" /><path
         inkscape:connector-curvature="0"
         id="path124"
         style="fill:#0b747c;fill-opacity:1;fill-rule:nonzero;stroke:none"
         d="m 572.779,202.27 c -6.341,-1.29 -7.183,0.4 -8.525,1.07 -0.162,0.26 -0.304,0.29 -0.032,0.46 3.901,-0.77 5.698,0.02 8.664,0.63 6.444,1.33 13.56,3.21 13.56,3.21 l 1.2,-1.92 c 0,0 -7.914,-2.03 -14.867,-3.45 z m -15.758,13.16 c -0.186,-0.28 -0.228,0.06 -0.458,0.43 0.843,4.6 5.582,6.65 9.466,7.5 4.409,0.98 9.4,2.04 9.4,2.04 l 1.2,-1.93 c 0,0 -7.941,-1.66 -12.62,-2.98 -3.62,-1 -5.763,-3.2 -6.988,-5.06 z m 29.915,-2.03 -1.426,-4.24 c 0,0 -9.426,-2.14 -16.323,-3.78 -4.108,-0.98 -8.636,0.2 -9.998,3.49 -2.046,4.91 2.687,7.24 5.23,7.95 7.39,2.06 14.252,3.37 14.252,3.37 l 4.892,-1.34 -7.735,12.46 -1.319,-4.41 c 0,0 -10.76,-2 -13.577,-3.57 -4.737,-2.65 -6.808,-6.98 -6.303,-10.56 1.219,-8.2 9.241,-15.48 17.787,-14.14 6.028,1.22 17.254,3.83 17.254,3.83 l 4.845,-1.26 -7.579,12.2" /><path
         inkscape:connector-curvature="0"
         id="path126"
         style="fill:#0b747c;fill-opacity:1;fill-rule:nonzero;stroke:none"
         d="m 544.2,233.28 c 0,0 1.623,2.01 0.419,4.78 0.266,-0.6 -1.898,4.36 -4.414,10.86 -2.842,7.25 3.66,7.76 4.108,6.89 -2.162,-0.97 -3.481,-2.42 -1.664,-6.97 0.552,-1.41 1.289,-3.77 2.898,-7.48 3.891,-8.94 -1.347,-8.08 -1.347,-8.08 z m 7.302,1.84 c -0.316,3.15 -2.205,6.38 -4.996,14.13 -0.715,1.98 0.519,3.11 1.814,3.19 1.411,0.1 3.201,-0.85 4.329,-1.53 3.853,-2.3 7.256,-8.53 7.256,-8.53 l -0.499,-2.3 c 0,0 3.804,0.58 6.113,1 -3.984,5.12 -7.154,9.71 -13.437,13.89 -3.399,2.27 -8.055,3.6 -11.365,2.02 -2.719,-1.3 -3.531,-4.14 -2.635,-6.75 1.545,-4.57 3.135,-8.62 5.228,-13.36 1.562,-3.59 -3.404,-4.67 -5.742,-3.45 -8.342,4.39 -10.324,11.62 -10.324,11.62 l 1.236,3.18 -6.349,-0.9 c 0,0 2.011,-8.19 11.636,-15.35 4.204,-3.15 10.077,-6.95 15.338,-2.94 1.261,0.95 2.776,2.24 2.397,6.08" /><path
         inkscape:connector-curvature="0"
         id="path128"
         style="fill:#0b747c;fill-opacity:1;fill-rule:nonzero;stroke:none"
         d="m 585.877,151.13 c -3.688,1.77 -6.273,3.81 -7.85,7.03 -0.148,0.29 0.582,0.62 0.596,0.94 3.072,-4.32 7.39,-7.27 13.636,-6.89 5.223,0.32 9.83,3.38 11.065,8.53 0,0 0.268,0.34 0.666,0.21 0.227,-0.28 0.162,-5.15 -4.019,-8.41 -3.94,-3.06 -10.66,-3.04 -14.094,-1.41 z m -7.634,12.48 c -0.919,3.71 -2.282,10.13 -2.282,10.13 l 23.607,-2.28 c 0,0 0.373,-1.48 1.356,-6.02 1.811,-8.33 -8.224,-9.94 -9.031,-10.03 -6.579,-0.7 -12.468,3.58 -13.65,8.2 z m -3.628,16.07 23.628,-2.35 0.469,-2.11 -23.581,2.2 -0.516,2.26 z m 30.346,-15.24 c -1.922,8.5 -4.142,18.34 -4.142,18.34 l -2.945,-3.56 -23.579,2.19 -4.455,3.91 c 0,0 2.861,-12.99 5.161,-22.86 1.249,-5.39 5.54,-12.56 14.353,-13.85 7.199,-1.07 18.346,3.56 15.607,15.83" /></g><g
       id="g4481"
       transform="matrix(1.81286,0,0,1.8131385,-457.47857,-0.10878831)"><path
         id="path74"
         d="m 429.267,230.88 c -51.425,0 -93.131,-36.76 -93.131,-82.1 0,-23.48 11.185,-44.65 29.142,-59.6 0,0 6.099,3.06 15.789,3.06 9.56,0 12.771,-5.98 23.818,-6.08 13.588,-0.17 13.588,5.93 25.588,6.08 9.011,0.1 18.033,-6.69 25.59,-6.08 7.746,0.58 15.314,6.86 24.255,6.08 7.596,-0.67 13.222,-2.84 13.222,-2.84 17.766,14.92 28.819,36.05 28.819,59.38 0,45.34 -41.678,82.1 -93.092,82.1"
         style="fill:#d3561e;fill-opacity:1;fill-rule:nonzero;stroke:none"
         inkscape:connector-curvature="0" /><path
         id="path4450"
         d="m 411.888,128.11 c -11.047,-6.19 -22.675,-15.01 -30.419,-24.29 4.443,19.65 13.884,61.36 13.884,61.36 l -9.25,27.94 23.403,0 0,-15.4 15.469,0 0,15.4 19.375,0 0,-15.4 15.54,0 0,15.4 c 0,0 13.048,0 19.245,0 -2.532,-36.3 -39.412,-49.37 -67.247,-65.01 z"
         style="fill:#fab945;fill-opacity:1;fill-rule:nonzero;stroke:none"
         inkscape:connector-curvature="0" /></g></g></svg>