<?xml version="1.0" encoding="UTF-8" standalone="no"?>
<svg
   xmlns:dc="http://purl.org/dc/elements/1.1/"
   xmlns:cc="http://creativecommons.org/ns#"
   xmlns:rdf="http://www.w3.org/1999/02/22-rdf-syntax-ns#"
   xmlns:svg="http://www.w3.org/2000/svg"
   xmlns="http://www.w3.org/2000/svg"
   viewBox="0 0 800 161.21"
   height="161.21001"
   width="800"
   xml:space="preserve"
   version="1.1"
   id="svg2"><metadata
     id="metadata8"><rdf:RDF><cc:Work
         rdf:about=""><dc:format>image/svg+xml</dc:format><dc:type
           rdf:resource="http://purl.org/dc/dcmitype/StillImage" /><dc:title></dc:title></cc:Work></rdf:RDF></metadata><defs
     id="defs6" /><g
     transform="matrix(1.25,0,0,-1.25,0,161.20995)"
     id="g10"><g
       transform="matrix(3.0777739,0,0,3.0777739,-60.028594,-195.06596)"
       id="g5178"><g
         id="g5139"><path
           id="path76"
           style="fill:#0f80cc;fill-opacity:1;fill-rule:nonzero;stroke:none"
           d="m 80.0764,81.3016 -2.425,0 c -0.29,0 -0.527,0.264 -0.527,0.556 l 0,8.677 c 0,2.293 -0.397,2.878 -2.162,2.878 -0.9,0 -1.954,-0.321 -3.065,-0.902 l 0,-10.653 c 0,-0.292 -0.233,-0.556 -0.522,-0.556 l -2.429,0 c -0.292,0 -0.528,0.264 -0.528,0.556 l 0,18.992 c 0,0.287 0.236,0.523 0.528,0.523 l 2.429,0 c 0.289,0 0.522,-0.236 0.522,-0.523 l 0,-5.462 c 1.006,0.605 2.115,0.974 3.987,0.974 3.64,0 4.718,-2.586 4.718,-5.827 l 0,-8.677 c 0,-0.292 -0.234,-0.556 -0.526,-0.556" /><path
           id="path78"
           style="fill:#0f80cc;fill-opacity:1;fill-rule:nonzero;stroke:none"
           d="m 93.3007,81.3016 -2.238,0 c -0.293,0 -0.533,0.232 -0.533,0.526 l 0,0.421 c -1.21,-0.739 -2.453,-1.161 -3.72,-1.161 -2.187,0 -4.559,0.848 -4.559,4.406 l 0,0.103 c 0,3.013 1.844,4.568 6.435,4.568 l 1.664,0 0,1.161 c 0,1.714 -0.77,2.134 -2.324,2.134 -1.688,0 -3.426,-0.105 -4.302,-0.209 l -0.13,0 c -0.26,0 -0.472,0.076 -0.472,0.446 l 0,1.691 c 0,0.29 0.155,0.475 0.5,0.554 1.054,0.216 2.582,0.42 4.404,0.42 3.746,0 5.804,-1.663 5.804,-5.036 l 0,-9.498 c 0,-0.294 -0.239,-0.526 -0.529,-0.526 m -2.951,6.541 -1.664,0 c -2.398,0 -2.93,-0.765 -2.93,-2.246 l 0,-0.103 c 0,-1.292 0.582,-1.635 1.901,-1.635 0.95,0 1.923,0.316 2.693,0.738 l 0,3.246 z" /><path
           id="path80"
           style="fill:#0f80cc;fill-opacity:1;fill-rule:nonzero;stroke:none"
           d="m 107.7775,81.3016 -2.431,0 c -0.287,0 -0.527,0.232 -0.527,0.526 l 0,0.607 c -1.373,-0.901 -2.453,-1.317 -4.14,-1.317 -1.323,0 -2.484,0.342 -3.245,1.107 -0.979,0.975 -1.322,2.613 -1.322,4.8 l 0,8.601 c 0,0.291 0.236,0.553 0.527,0.553 l 2.425,0 c 0.292,0 0.531,-0.262 0.531,-0.553 l 0,-8.601 c 0,-1.318 0.103,-2.082 0.604,-2.532 0.374,-0.318 0.821,-0.476 1.637,-0.476 0.977,0 2.245,0.659 2.983,1.061 l 0,10.548 c 0,0.291 0.24,0.553 0.527,0.553 l 2.431,0 c 0.284,0 0.524,-0.262 0.524,-0.553 l 0,-13.798 c 0,-0.294 -0.24,-0.526 -0.524,-0.526" /><path
           id="path82"
           style="fill:#0f80cc;fill-opacity:1;fill-rule:nonzero;stroke:none"
           d="m 118.1006,81.2737 c -0.534,-0.104 -1.872,-0.186 -2.45,-0.186 -2.773,0 -3.748,1.387 -3.748,4.198 l 0,8.281 -1.668,0.37 c -0.295,0.054 -0.532,0.238 -0.532,0.529 l 0,1.183 c 0,0.293 0.237,0.53 0.532,0.53 l 1.668,0 0,2.163 c 0,0.289 0.239,0.474 0.527,0.527 l 2.454,0.419 0.103,0 c 0.243,0 0.426,-0.128 0.426,-0.392 l 0,-2.717 2.585,0 c 0.287,0 0.526,-0.237 0.526,-0.53 l 0,-1.556 c 0,-0.284 -0.239,-0.526 -0.526,-0.526 l -2.585,0 0,-8.281 c 0,-1.321 0.082,-1.481 1.029,-1.481 l 1.608,0 c 0.342,0 0.552,-0.133 0.552,-0.39 l 0,-1.662 c 0,-0.268 -0.158,-0.412 -0.501,-0.479" /><path
           id="path84"
           style="fill:#0f80cc;fill-opacity:1;fill-rule:nonzero;stroke:none"
           d="m 124.5727,81.0873 c -1.035,0 -2.413,0.133 -3.89,0.531 -0.316,0.08 -0.499,0.29 -0.499,0.606 l 0,1.58 c 0,0.212 0.183,0.425 0.445,0.425 l 0.108,0 c 4.768,-0.789 6.092,-0.416 6.092,0.975 0,0.956 -1.4,1.392 -2.923,2.081 -2.756,1.248 -4.063,2.205 -4.063,4.694 0,2.604 1.786,4.382 5.171,4.382 1.611,0 2.978,-0.233 4.323,-0.524 0.318,-0.084 0.48,-0.291 0.48,-0.61 l 0,-1.531 c 0,-0.314 -0.162,-0.502 -0.423,-0.502 l -0.108,0 c -4.04,0.521 -5.967,0.566 -5.967,-1.079 0,-1.077 1.061,-1.373 3.125,-2.274 2.982,-1.302 3.923,-2.599 3.923,-4.266 0,-2.292 -1.042,-4.488 -5.794,-4.488" /><path
           id="path86"
           style="fill:#0f80cc;fill-opacity:1;fill-rule:nonzero;stroke:none"
           d="m 173.6492,81.0873 c -1.029,0 -2.407,0.133 -3.889,0.531 -0.313,0.08 -0.495,0.29 -0.495,0.606 l 0,1.58 c 0,0.212 0.182,0.425 0.445,0.425 l 0.103,0 c 4.774,-0.789 6.099,-0.416 6.099,0.975 0,0.956 -1.399,1.392 -2.924,2.081 -2.752,1.248 -4.07,2.205 -4.07,4.694 0,2.604 1.796,4.382 5.178,4.382 1.612,0 2.983,-0.233 4.327,-0.524 0.316,-0.084 0.476,-0.291 0.476,-0.61 l 0,-1.531 c 0,-0.314 -0.16,-0.502 -0.423,-0.502 l -0.106,0 c -4.042,0.521 -5.97,0.566 -5.97,-1.079 0,-1.077 1.063,-1.373 3.128,-2.274 2.982,-1.302 3.92,-2.599 3.92,-4.266 0,-2.292 -1.042,-4.488 -5.799,-4.488" /><path
           id="path88"
           style="fill:#0f80cc;fill-opacity:1;fill-rule:nonzero;stroke:none"
           d="m 134.0167,88.1034 -2.678,0 c -0.289,0 -0.525,0.189 -0.525,0.475 l 0,1.662 c 0,0.294 0.236,0.506 0.525,0.506 l 2.678,0 c 0.296,0 0.502,-0.212 0.502,-0.506 l 0,-1.662 c 0,-0.286 -0.206,-0.475 -0.502,-0.475" /><path
           id="path90"
           style="fill:#0f80cc;fill-opacity:1;fill-rule:nonzero;stroke:none"
           d="m 147.6532,81.7758 c -1.639,-0.425 -3.615,-0.688 -5.304,-0.688 -4.242,0 -6.305,2.511 -6.305,6.622 l 0,2.033 c 0,4.112 2.063,6.618 6.305,6.618 0.632,0 1.554,-0.054 2.534,-0.183 l 0,4.672 c 0,0.286 0.238,0.522 0.525,0.522 l 2.426,0 c 0.292,0 0.529,-0.236 0.529,-0.522 l 0,-18.361 c 0,-0.395 -0.108,-0.553 -0.71,-0.713 m -2.77,11.551 c -0.74,0.104 -1.902,0.183 -2.534,0.183 -2.266,0 -2.824,-1.606 -2.824,-3.767 l 0,-2.033 c 0,-2.159 0.558,-3.771 2.824,-3.771 0.951,0 2.03,0.077 2.534,0.183 l 0,9.205 z" /><path
           id="path92"
           style="fill:#0f80cc;fill-opacity:1;fill-rule:nonzero;stroke:none"
           d="m 162.1946,87.5254 -8.601,0 0,-0.076 c 0,-1.534 0.635,-3.351 3.166,-3.351 1.929,0 3.746,0.153 4.855,0.262 l 0.077,0 c 0.266,0 0.478,-0.131 0.478,-0.395 l 0,-1.741 c 0,-0.42 -0.081,-0.606 -0.555,-0.691 -1.717,-0.313 -2.74,-0.446 -5.119,-0.446 -2.636,0 -6.383,1.426 -6.383,6.622 l 0,1.954 c 0,4.113 2.295,6.698 6.332,6.698 4.061,0 6.279,-2.766 6.279,-6.698 l 0,-1.474 c 0,-0.425 -0.161,-0.664 -0.529,-0.664 m -2.982,2.586 c 0,2.058 -1.134,3.243 -2.768,3.243 -1.636,0 -2.828,-1.161 -2.828,-3.243 l 0,-0.108 5.596,0 0,0.108 z" /><path
           id="path94"
           style="fill:#0f80cc;fill-opacity:1;fill-rule:nonzero;stroke:none"
           d="m 167.5147,88.1034 -2.679,0 c -0.291,0 -0.529,0.189 -0.529,0.475 l 0,1.662 c 0,0.294 0.238,0.506 0.529,0.506 l 2.679,0 c 0.29,0 0.502,-0.212 0.502,-0.506 l 0,-1.662 c 0,-0.286 -0.212,-0.475 -0.502,-0.475" /><path
           id="path96"
           style="fill:#0f80cc;fill-opacity:1;fill-rule:nonzero;stroke:none"
           d="m 192.7849,87.5254 -8.595,0 0,-0.076 c 0,-1.534 0.629,-3.351 3.162,-3.351 1.929,0 3.749,0.153 4.853,0.262 l 0.081,0 c 0.265,0 0.473,-0.131 0.473,-0.395 l 0,-1.741 c 0,-0.42 -0.08,-0.606 -0.554,-0.691 -1.716,-0.313 -2.741,-0.446 -5.119,-0.446 -2.634,0 -6.38,1.426 -6.38,6.622 l 0,1.954 c 0,4.113 2.294,6.698 6.335,6.698 4.06,0 6.272,-2.766 6.272,-6.698 l 0,-1.474 c 0,-0.425 -0.158,-0.664 -0.528,-0.664 m -2.98,2.586 c 0,2.058 -1.135,3.243 -2.764,3.243 -1.639,0 -2.829,-1.161 -2.829,-3.243 l 0,-0.108 5.593,0 0,0.108 z" /><path
           id="path98"
           style="fill:#0f80cc;fill-opacity:1;fill-rule:nonzero;stroke:none"
           d="m 198.1808,98.1599 -2.564,0 c -0.288,0 -0.552,0.235 -0.552,0.526 l 0,2.318 c 0,0.288 0.264,0.528 0.552,0.528 l 2.564,0 c 0.287,0 0.522,-0.24 0.522,-0.528 l 0,-2.318 c 0,-0.291 -0.235,-0.526 -0.522,-0.526 m -0.081,-16.858 -2.431,0 c -0.285,0 -0.528,0.264 -0.528,0.555 l 0,13.791 c 0,0.294 0.243,0.53 0.528,0.53 l 2.431,0 c 0.289,0 0.524,-0.236 0.524,-0.53 l 0,-13.791 c 0,-0.291 -0.235,-0.555 -0.524,-0.555" /><path
           id="path100"
           style="fill:#0f80cc;fill-opacity:1;fill-rule:nonzero;stroke:none"
           d="m 212.562,81.3016 -2.427,0 c -0.29,0 -0.531,0.264 -0.531,0.556 l 0,8.597 c 0,2.295 -0.207,2.958 -2.238,2.958 -0.899,0 -1.876,-0.373 -2.98,-0.953 l 0,-10.602 c 0,-0.292 -0.238,-0.556 -0.533,-0.556 l -2.423,0 c -0.291,0 -0.526,0.264 -0.526,0.556 l 0,13.791 c 0,0.293 0.235,0.53 0.526,0.53 l 2.295,0 c 0.29,0 0.526,-0.237 0.526,-0.53 l 0,-0.553 c 1.532,0.98 2.535,1.266 4.271,1.266 3.8,0 4.567,-2.553 4.567,-5.907 l 0,-8.597 c 0,-0.292 -0.237,-0.556 -0.527,-0.556" /><path
           id="path102"
           style="fill:#0f80cc;fill-opacity:1;fill-rule:nonzero;stroke:none"
           d="m 226.9244,87.5254 -8.606,0 0,-0.076 c 0,-1.534 0.635,-3.351 3.165,-3.351 1.929,0 3.747,0.153 4.856,0.262 l 0.082,0 c 0.261,0 0.473,-0.131 0.473,-0.395 l 0,-1.741 c 0,-0.42 -0.084,-0.606 -0.555,-0.691 -1.715,-0.313 -2.743,-0.446 -5.118,-0.446 -2.637,0 -6.384,1.426 -6.384,6.622 l 0,1.954 c 0,4.113 2.294,6.698 6.333,6.698 4.06,0 6.276,-2.766 6.276,-6.698 l 0,-1.474 c 0,-0.425 -0.159,-0.664 -0.522,-0.664 m -2.985,2.586 c 0,2.058 -1.132,3.243 -2.769,3.243 -1.637,0 -2.824,-1.161 -2.824,-3.243 l 0,-0.108 5.593,0 0,0.108 z" /></g><g
         id="g5155"><path
           id="path104"
           style="fill:#0f80cc;fill-opacity:1;fill-rule:nonzero;stroke:none"
           d="m 72.8975,67.1155 c -0.335,-0.08 -1.31,-0.156 -1.905,-0.156 -1.456,0 -2.588,0.391 -2.588,2.296 l 0,5.891 c 0,0.124 0.102,0.228 0.226,0.228 l 1.108,0 c 0.122,0 0.223,-0.104 0.223,-0.228 l 0,-5.891 c 0,-0.74 0.225,-0.962 0.876,-0.962 l 2.06,0 c 0.122,0 0.225,-0.102 0.225,-0.227 l 0,-0.716 c 0,-0.156 -0.057,-0.2 -0.225,-0.235" /><path
           id="path106"
           style="fill:#0f80cc;fill-opacity:1;fill-rule:nonzero;stroke:none"
           d="m 80.0775,67.1155 c -0.358,-0.056 -0.796,-0.156 -2.128,-0.156 -1.458,0 -2.588,0.391 -2.588,2.296 l 0,3.911 c 0,1.903 1.13,2.295 2.588,2.295 1.332,0 1.77,-0.1 2.128,-0.156 0.169,-0.022 0.223,-0.078 0.223,-0.236 l 0,-0.717 c 0,-0.122 -0.101,-0.224 -0.223,-0.224 l -2.285,0 c -0.649,0 -0.885,-0.222 -0.885,-0.962 l 0,-1.21 3.036,0 c 0.124,0 0.223,-0.101 0.223,-0.225 l 0,-0.807 c 0,-0.124 -0.099,-0.222 -0.223,-0.222 l -3.036,0 0,-1.447 c 0,-0.74 0.236,-0.962 0.885,-0.962 l 2.285,0 c 0.122,0 0.223,-0.102 0.223,-0.227 l 0,-0.716 c 0,-0.156 -0.054,-0.212 -0.223,-0.235" /><path
           id="path108"
           style="fill:#0f80cc;fill-opacity:1;fill-rule:nonzero;stroke:none"
           d="m 89.916,66.9593 c -0.796,0 -1.872,0.076 -2.206,0.133 -0.191,0.034 -0.294,0.125 -0.294,0.348 l 0,7.54 c 0,0.225 0.103,0.315 0.294,0.35 0.334,0.053 1.41,0.131 2.206,0.131 2.242,0 3.518,-1.209 3.518,-3.427 l 0,-1.647 c 0,-2.218 -1.276,-3.428 -3.518,-3.428 m 1.972,5.075 c 0,1.68 -0.852,2.118 -1.972,2.118 -0.415,0 -0.706,-0.024 -0.942,-0.034 l 0,-5.814 c 0.236,-0.011 0.527,-0.034 0.942,-0.034 1.12,0 1.972,0.436 1.972,2.117 l 0,1.647 z" /><path
           id="path110"
           style="fill:#0f80cc;fill-opacity:1;fill-rule:nonzero;stroke:none"
           d="m 101.0063,67.1155 c -0.358,-0.056 -0.794,-0.156 -2.129,-0.156 -1.454,0 -2.586,0.391 -2.586,2.296 l 0,3.911 c 0,1.903 1.132,2.295 2.586,2.295 1.335,0 1.771,-0.1 2.129,-0.156 0.17,-0.022 0.226,-0.078 0.226,-0.236 l 0,-0.717 c 0,-0.122 -0.101,-0.224 -0.226,-0.224 l -2.286,0 c -0.649,0 -0.883,-0.222 -0.883,-0.962 l 0,-1.21 3.035,0 c 0.125,0 0.226,-0.101 0.226,-0.225 l 0,-0.807 c 0,-0.124 -0.101,-0.222 -0.226,-0.222 l -3.035,0 0,-1.447 c 0,-0.74 0.234,-0.962 0.883,-0.962 l 2.286,0 c 0.125,0 0.226,-0.102 0.226,-0.227 l 0,-0.716 c 0,-0.156 -0.056,-0.212 -0.226,-0.235 m -0.514,10.362 -1.322,-1.388 c -0.09,-0.101 -0.134,-0.146 -0.267,-0.146 l -0.967,0 -0.099,0.079 0.045,0.112 1.063,1.343 c 0.102,0.125 0.145,0.17 0.291,0.17 l 1.178,0 0.121,-0.079 -0.043,-0.091 z" /><path
           id="path112"
           style="fill:#0f80cc;fill-opacity:1;fill-rule:nonzero;stroke:none"
           d="m 106.6984,70.1527 c -0.291,0 -0.74,0.031 -0.997,0.046 l 0,-2.927 c 0,-0.122 -0.09,-0.223 -0.212,-0.223 l -1.119,0 c -0.123,0 -0.225,0.101 -0.225,0.223 l 0,7.709 c 0,0.224 0.134,0.302 0.358,0.337 0.581,0.088 1.379,0.144 2.195,0.144 1.725,0 3.227,-0.605 3.227,-2.588 l 0,-0.1 c 0,-1.984 -1.502,-2.621 -3.227,-2.621 m 1.68,2.721 c 0,0.941 -0.558,1.301 -1.68,1.301 -0.234,0 -0.794,-0.022 -0.997,-0.046 l 0,-2.665 c 0.181,-0.012 0.806,-0.032 0.997,-0.032 1.211,0 1.68,0.446 1.68,1.342 l 0,0.1 z" /><path
           id="path114"
           style="fill:#0f80cc;fill-opacity:1;fill-rule:nonzero;stroke:none"
           d="m 117.9237,67.0486 -1.189,0 -0.213,0.191 -0.516,2.128 -2.575,0 -0.515,-2.128 -0.213,-0.191 -1.187,0 c -0.114,0 -0.204,0.078 -0.204,0.191 l 0.013,0.056 1.836,7.022 c 0.27,1.044 1.078,1.144 1.557,1.144 0.482,0 1.288,-0.1 1.56,-1.144 l 1.836,-7.022 0.012,-0.056 c 0,-0.113 -0.093,-0.191 -0.202,-0.191 m -3.026,6.923 c -0.033,0.134 -0.065,0.181 -0.18,0.181 -0.112,0 -0.145,-0.047 -0.178,-0.181 l -0.806,-3.327 1.971,0 -0.807,3.327 z" /><path
           id="path116"
           style="fill:#0f80cc;fill-opacity:1;fill-rule:nonzero;stroke:none"
           d="m 126.4946,67.0486 -1.366,0 c -0.124,0 -0.169,0.113 -0.225,0.223 l -1.614,2.993 -0.155,0 c -0.293,0 -0.741,0.033 -0.997,0.045 l 0,-3.038 c 0,-0.121 -0.092,-0.223 -0.214,-0.223 l -1.119,0 c -0.123,0 -0.226,0.102 -0.226,0.223 l 0,7.709 c 0,0.224 0.136,0.302 0.358,0.337 0.585,0.088 1.379,0.144 2.198,0.144 1.723,0 3.226,-0.615 3.226,-2.531 l 0,-0.101 c 0,-1.188 -0.593,-1.928 -1.515,-2.284 l 1.761,-3.274 0.021,-0.088 -0.133,-0.135 z m -1.683,5.882 c 0,0.839 -0.558,1.198 -1.677,1.198 -0.235,0 -0.795,-0.023 -0.997,-0.045 l 0,-2.521 c 0.178,-0.01 0.805,-0.032 0.997,-0.032 1.151,0 1.677,0.314 1.677,1.299 l 0,0.101 z" /><path
           id="path118"
           style="fill:#0f80cc;fill-opacity:1;fill-rule:nonzero;stroke:none"
           d="m 134.0323,74.0746 -1.961,0 0,-6.803 c 0,-0.122 -0.1,-0.223 -0.223,-0.223 l -1.111,0 c -0.122,0 -0.224,0.101 -0.224,0.223 l 0,6.803 -1.959,0 c -0.124,0 -0.225,0.078 -0.225,0.2 l 0,0.886 c 0,0.122 0.101,0.214 0.225,0.214 l 5.478,0 c 0.122,0 0.224,-0.092 0.224,-0.214 l 0,-0.886 c 0,-0.122 -0.102,-0.2 -0.224,-0.2" /><path
           id="path120"
           style="fill:#0f80cc;fill-opacity:1;fill-rule:nonzero;stroke:none"
           d="m 141.2107,67.1155 c -0.358,-0.056 -0.794,-0.156 -2.127,-0.156 -1.457,0 -2.588,0.391 -2.588,2.296 l 0,3.911 c 0,1.903 1.131,2.295 2.588,2.295 1.333,0 1.769,-0.1 2.127,-0.156 0.171,-0.022 0.225,-0.078 0.225,-0.236 l 0,-0.717 c 0,-0.122 -0.102,-0.224 -0.225,-0.224 l -2.283,0 c -0.651,0 -0.884,-0.222 -0.884,-0.962 l 0,-1.21 3.034,0 c 0.125,0 0.225,-0.101 0.225,-0.225 l 0,-0.807 c 0,-0.124 -0.1,-0.222 -0.225,-0.222 l -3.034,0 0,-1.447 c 0,-0.74 0.233,-0.962 0.884,-0.962 l 2.283,0 c 0.123,0 0.225,-0.102 0.225,-0.227 l 0,-0.716 c 0,-0.156 -0.054,-0.212 -0.225,-0.235" /><path
           id="path122"
           style="fill:#0f80cc;fill-opacity:1;fill-rule:nonzero;stroke:none"
           d="m 151.3515,67.0486 -1.13,0 c -0.101,0 -0.181,0.113 -0.181,0.223 l 0,5.211 -0.034,0.111 -0.054,-0.067 -1.076,-2.14 c -0.068,-0.122 -0.212,-0.188 -0.358,-0.188 l -1.131,0 c -0.148,0 -0.293,0.066 -0.36,0.188 l -1.087,2.14 -0.055,0.067 -0.035,-0.111 0,-5.211 c 0,-0.11 -0.078,-0.223 -0.178,-0.223 l -1.132,0 c -0.101,0 -0.19,0.058 -0.19,0.168 l 0,7.707 c 0,0.247 0.202,0.451 0.445,0.451 l 0.922,0 c 0.178,0 0.335,-0.113 0.413,-0.271 l 1.693,-3.429 0.123,-0.156 0.122,0.156 1.694,3.429 c 0.077,0.158 0.232,0.271 0.412,0.271 l 0.921,0 c 0.244,0 0.447,-0.204 0.447,-0.451 l 0,-7.707 c 0,-0.11 -0.089,-0.168 -0.191,-0.168" /><path
           id="path124"
           style="fill:#0f80cc;fill-opacity:1;fill-rule:nonzero;stroke:none"
           d="m 159.3405,67.1155 c -0.358,-0.056 -0.796,-0.156 -2.129,-0.156 -1.455,0 -2.588,0.391 -2.588,2.296 l 0,3.911 c 0,1.903 1.133,2.295 2.588,2.295 1.333,0 1.771,-0.1 2.129,-0.156 0.167,-0.022 0.225,-0.078 0.225,-0.236 l 0,-0.717 c 0,-0.122 -0.102,-0.224 -0.225,-0.224 l -2.287,0 c -0.648,0 -0.883,-0.222 -0.883,-0.962 l 0,-1.21 3.036,0 c 0.122,0 0.223,-0.101 0.223,-0.225 l 0,-0.807 c 0,-0.124 -0.101,-0.222 -0.223,-0.222 l -3.036,0 0,-1.447 c 0,-0.74 0.235,-0.962 0.883,-0.962 l 2.287,0 c 0.123,0 0.225,-0.102 0.225,-0.227 l 0,-0.716 c 0,-0.156 -0.058,-0.212 -0.225,-0.235" /><path
           id="path126"
           style="fill:#0f80cc;fill-opacity:1;fill-rule:nonzero;stroke:none"
           d="m 168.3269,67.0486 -1.131,0 c -0.27,0 -0.506,0 -0.685,0.404 l -2.489,5.456 -0.098,0.089 -0.059,-0.089 0,-5.637 c 0,-0.121 -0.089,-0.223 -0.21,-0.223 l -0.955,0 c -0.12,0 -0.222,0.102 -0.222,0.223 l 0,7.652 c 0,0.247 0.202,0.451 0.446,0.451 l 1.211,0 c 0.235,0 0.359,-0.069 0.493,-0.36 l 2.612,-5.759 0.09,-0.088 0.056,0.099 0,5.894 c 0,0.122 0.087,0.214 0.211,0.214 l 0.965,0 c 0.124,0 0.211,-0.092 0.211,-0.214 l 0,-7.662 c 0,-0.249 -0.201,-0.45 -0.446,-0.45" /><path
           id="path128"
           style="fill:#0f80cc;fill-opacity:1;fill-rule:nonzero;stroke:none"
           d="m 176.6718,74.0746 -1.959,0 0,-6.803 c 0,-0.122 -0.103,-0.223 -0.226,-0.223 l -1.108,0 c -0.122,0 -0.225,0.101 -0.225,0.223 l 0,6.803 -1.96,0 c -0.123,0 -0.224,0.078 -0.224,0.2 l 0,0.886 c 0,0.122 0.101,0.214 0.224,0.214 l 5.478,0 c 0.123,0 0.224,-0.092 0.224,-0.214 l 0,-0.886 c 0,-0.122 -0.101,-0.2 -0.224,-0.2" /></g><g
         id="g5174"><path
           id="path5172"
           d="m 51.8249,95.6929 c -5.511,5.507 -10.026,9.589 -11.363,9.589 -1.344,0 -5.859,-4.082 -11.368,-9.589 -5.508,-5.514 -9.59,-10.023 -9.59,-11.368 0,-1.342 4.082,-5.854 9.59,-11.362 5.51,-5.506 10.024,-9.584 11.368,-9.584 1.337,0 5.846,4.078 11.363,9.584 5.507,5.508 9.586,10.02 9.586,11.362 0,1.345 -4.079,5.854 -9.586,11.368"
           style="fill:#69b628;fill-opacity:1;fill-rule:nonzero;stroke:none" /><path
           id="path130"
           d="m 41.0669,78.6289 c 0.4,-0.404 0.651,-0.958 0.651,-1.573 l -0.005,-5.24 c 0,-0.235 -0.098,-0.543 -0.308,-0.737 -0.288,-0.298 -0.636,-0.494 -1.163,-0.219 -1,0.525 -3.631,2.921 -6.151,5.438 -2.747,2.72 -5.41,5.646 -5.809,6.585 -0.466,0.945 -0.652,1.697 -0.148,2.768 0.325,0.771 2.471,3.139 4.729,5.41 2.026,2.036 4.209,3.997 5.258,4.757 0.875,0.637 2.248,0.623 3.067,-0.229 0.718,-0.736 0.907,-1.827 0.453,-2.69 -0.615,-1.184 -6.673,-7.102 -6.673,-8.35 0,-1.321 4.892,-4.697 6.099,-5.92"
           style="fill:#ffffff;fill-opacity:1;fill-rule:nonzero;stroke:none" /></g></g></g></svg>