<svg xmlns="http://www.w3.org/2000/svg" viewBox="0 0 87.95 109.02"><defs><style>.cls-1{fill:#64a543;}.cls-2{fill:#7bb054;}.cls-3{fill:#fbe91a;}.cls-4{fill:#cf6628;}.cls-5{fill:#235b9f;}.cls-6{fill:#179edd;}.cls-7{fill:#d16d2c;}.cls-8{fill:#235ba0;}.cls-9{fill:#66a644;}.cls-10{fill:#209fdd;}.cls-11{fill:#2ba1de;}</style></defs><title>logo_dep34</title><g id="Calque_2" data-name="Calque 2"><g id="Pictos"><path class="cls-1" d="M0,108.53V0H87.89V93a.14.14,0,0,0,.06.13v.12l-.09,0-2.21,1c-5.57,2.3-11.25,4.27-17,6q-8.26,2.52-16.7,4.36c-2.56.56-5.13,1.08-7.71,1.54q-2.62.48-5.27.87c-1.31.2-2.62.39-3.94.56s-2.55.33-3.83.46l-3.18.32c-1.43.14-2.86.25-4.3.35l-2.35.14c-1.24.07-2.49.13-3.73.16l-.12,0-2.25,0a.59.59,0,0,0-.17,0h-5a.25.25,0,0,0-.11,0c-.55,0-1.1,0-1.65,0a6.77,6.77,0,0,0-.78,0l-3.1-.13c-.8,0-1.6-.1-2.4-.16ZM4.7,50.1V95.19a1.92,1.92,0,0,1,0,.24c0,.13.06.17.18.19l1,.14c1.41.2,2.81.37,4.22.52,1.17.12,2.34.23,3.52.32,1.43.12,2.87.21,4.3.29,1.12.06,2.23.1,3.35.14,2.27.06,4.54.11,6.82.07S32.71,97,35,96.9c1.51-.08,3-.17,4.52-.28,2.12-.15,4.25-.34,6.37-.57,1.63-.17,3.25-.36,4.88-.57q3-.41,6-.88,4-.63,7.92-1.42,5.23-1,10.4-2.34c2.62-.67,5.23-1.38,7.81-2.2.37-.12.37-.12.37-.5V5.08c0-.44,0-.44-.42-.44H5.1c-.46,0-.4-.06-.4.4Z"/><path class="cls-2" d="M88,93.08a.14.14,0,0,1-.06-.13V0H88Z"/><path class="cls-3" d="M74.51,33c.14-1.06.29-2.11.43-3.17.09-.65.19-1.31.27-2,0-.23,0-.23-.21-.24H64c-.24,0-.25,0-.28.25-.17,1.18-.33,2.37-.5,3.55l-.57,4.09c-.15,1-.3,2.09-.44,3.13,0,.28-.09.25-.28.25H59.38c-.25,0-.26,0-.22-.26.1-.8.22-1.59.33-2.39L60,32.55c.19-1.36.39-2.73.58-4.09l.09-.69c0-.11,0-.17-.15-.17H49.42c-.24,0-.24,0-.28.26-.08.62-.17,1.25-.26,1.88a1,1,0,0,1,0,.17l-.22-.11a9.11,9.11,0,0,0-6.53-1.13,9.22,9.22,0,0,0-7.22,11.16,9.24,9.24,0,0,0,10.21,7.09c.48-.06.94-.19,1.41-.28-.12,1.06-.27,2.11-.44,3.16a3.28,3.28,0,0,0-1.1.3,12.4,12.4,0,0,0-2.59,1.26c-.68.47-1.35,1-2,1.43A9.88,9.88,0,0,0,38.84,54l-.33.31c-.16.14-.17.14-.36,0a1.4,1.4,0,0,1-.31-.33l-1-1.39a.78.78,0,0,0-.3-.27.93.93,0,0,0-1.12.12.81.81,0,0,1-.68.18.74.74,0,0,1-.39-.16c-.09-.07,0-.19,0-.28a.71.71,0,0,0-.6-.56l-.66,0a.39.39,0,0,0-.45.22c-.05.11-.13.12-.25.1a1.51,1.51,0,0,1-.69-.35c-.13-.09-.26-.2-.43-.16a.38.38,0,0,1-.39-.16l-.67-.71a.5.5,0,0,0-.28-.16,2.89,2.89,0,0,0-1.37,0,.45.45,0,0,1-.6-.44,1.7,1.7,0,0,1,0-.39,6,6,0,0,0-.05-1.27c0-.27-.12-.33-.39-.35a2.83,2.83,0,0,0-.86.15,5.08,5.08,0,0,1-1.28.3.66.66,0,0,1-.52-.18c-.19-.17-.39-.32-.59-.48s-.33-.2-.57,0c-.08.07-.17.16-.29.1a4.19,4.19,0,0,1-.69-.38c-.15-.12-.15-.18-.06-.36a.72.72,0,0,0,.13-.37c0-.43-.06-.87-.1-1.31a.46.46,0,0,0-.29-.43l-.21-.12a.39.39,0,0,1-.28-.41.38.38,0,0,0-.06-.23.29.29,0,0,0-.45-.11,4.47,4.47,0,0,0-.41.35.4.4,0,0,0-.09.54,2.77,2.77,0,0,0,.2.34,3,3,0,0,1,.5,1.37.57.57,0,0,1-.42.68,2.89,2.89,0,0,0-.61.18,1.3,1.3,0,0,1-.88.11,1.25,1.25,0,0,0-.9.26.3.3,0,0,0-.09.46l.11.15c.16.23.16.25-.08.42a2.52,2.52,0,0,0-.51.47c-.56.72-.49.42-.52,1.37a.65.65,0,0,1-.32.58.9.9,0,0,0-.28.27c-.12.21-.35.16-.53.21s-.24-.07-.32-.17a2.82,2.82,0,0,0-1-.83.83.83,0,0,1-.16-.09.59.59,0,0,0-.52-.08c-.22.06-.28,0-.33-.22a.34.34,0,0,1,.06-.26.88.88,0,0,0,0-.86,1.06,1.06,0,0,1-.13-.55.61.61,0,0,0-.17-.52c-.1-.11-.19-.24-.28-.35s-.41-.2-.52.07c0,.07,0,.17-.13.2a.57.57,0,0,0-.38.58.37.37,0,0,1-.19.29c-.2.12-.37.29-.57.39s-.46-.05-.7-.07h0a.51.51,0,0,0-.65.33.35.35,0,0,1-.05.08c-.06.1-.12.1-.22,0a1.07,1.07,0,0,1-.62-1.14c0-.05,0-.1,0-.15a.25.25,0,0,0-.12-.23.78.78,0,0,1-.32-.49L9,47.24a.37.37,0,0,0-.3-.26c-.4-.07-.79-.14-1.19-.19a.39.39,0,0,1-.36-.58,6.48,6.48,0,0,1,.46-.81A.49.49,0,0,0,7.64,45a1.51,1.51,0,0,1,0-.94,1.58,1.58,0,0,1,.43-.64c.13-.14.31,0,.46-.07h.06c.38.06.56-.19.69-.47s.08-.61-.36-.71a.56.56,0,0,1-.35-.26l.48-.32a.81.81,0,0,1,.6-.22c.18,0,.29-.11.31-.3s0-.12.06-.17c.23.12.4,0,.57-.17s.6-.6.9-.89a.51.51,0,0,0,.19-.3c0-.25.06-.25.3-.22l.18,0a.37.37,0,0,0,.44-.22.42.42,0,0,0,0-.53,2.11,2.11,0,0,1-.26-.4A1.2,1.2,0,0,1,12.33,37a1,1,0,0,0,.09-.55.33.33,0,0,1,0-.24c.11,0,.21,0,.32,0a.23.23,0,0,0,.27-.12c.11-.15,0-.26-.07-.37-.4-.43-.8-.87-1.22-1.29A6.83,6.83,0,0,1,10.6,33a.29.29,0,0,1,0-.35c.16-.22.3-.43.44-.66a.82.82,0,0,0-.27-1c-.25-.13-.29-.25-.11-.43a1.85,1.85,0,0,0,.48-1c0-.21.1-.41.16-.62.12-.47.25-.94.37-1.42l.05,0c0,.15.11.3.25.32a1.49,1.49,0,0,0,.81,0,.91.91,0,0,1,.82,0,9,9,0,0,0,1.14.39.71.71,0,0,1,.37.24,3.9,3.9,0,0,1,.83,1.2.63.63,0,0,0,.91.28,3.77,3.77,0,0,0,.54-.34.87.87,0,0,1,.76-.19.45.45,0,0,0,.47-.19c.16-.19.33-.36.49-.54a.29.29,0,0,1,.34-.11.7.7,0,0,0,.76-.14,1.19,1.19,0,0,1,.81-.25c.79,0,.63.11,1.15-.51a.46.46,0,0,1,.55-.17l.09,0a.87.87,0,0,0,1.06-.33.58.58,0,0,0,.17-.37,9.75,9.75,0,0,0,0-1.08.35.35,0,0,1,.17-.33l.22-.16a.23.23,0,0,1,.25,0,.51.51,0,0,0,.49,0,3.23,3.23,0,0,0,.54-.37,3.06,3.06,0,0,1,1-.47.54.54,0,0,1,.18,0,3,3,0,0,1,.87.25.42.42,0,0,1,.27.22.67.67,0,0,0,.36.3,1,1,0,0,0,.92,0,.61.61,0,0,1,.57,0c.34.17.52.05.55-.32a.59.59,0,0,1,.16-.4.31.31,0,0,0,0-.48l-.25-.21a.33.33,0,0,1-.15-.39.7.7,0,0,0,0-.58.28.28,0,0,1,0-.29.45.45,0,0,0,0-.46.55.55,0,0,1,0-.38c0-.13.06-.23.22-.24a.37.37,0,0,0,.33-.27c.07-.15.14-.29.22-.43a.41.41,0,0,0-.07-.5l-.42-.47c-.06-.07-.14-.14-.12-.24.05-.26-.11-.46-.19-.68s-.21-.31-.18-.47.24-.25.37-.37.27-.31.11-.59a.71.71,0,0,1-.06-.55c0-.14.12-.31.25-.32a1.47,1.47,0,0,1,.83,0,3.56,3.56,0,0,1,1.49.89.6.6,0,0,0,.36.19l.77.18a.35.35,0,0,0,.34-.06.33.33,0,0,1,.33,0,5.62,5.62,0,0,0,1.73.2,3.8,3.8,0,0,0,1.11-.36.35.35,0,0,0,.11-.1,1.09,1.09,0,0,1,.9-.58.28.28,0,0,0,.26-.25c.08-.48.16-.95-.33-1.28l-.09-.08a.62.62,0,0,1-.15-.29c-.1-.31.08-.54.18-.79s.11-.2.23-.22a.81.81,0,0,0,.64-.62c0-.09.07-.18.11-.28a.4.4,0,0,1,.63-.24.47.47,0,0,0,.4.05.89.89,0,0,1,.56,0,2.32,2.32,0,0,0,1.45,0l.09,0c.39-.07.45-.13.43-.51a.43.43,0,0,1,.18-.42c.07,0,.13-.12.2-.18s.1-.11.18-.07.24,0,.33-.1a.25.25,0,0,1,.35,0,1.79,1.79,0,0,0,.78.19.34.34,0,0,0,.31-.08.43.43,0,0,1,.43-.08l.32.07a.93.93,0,0,1,.7.75,1.56,1.56,0,0,1-.07,1.06.41.41,0,0,1-.26.27.28.28,0,0,0-.12.47c.09.1.17.2.26.29s.41.26.66.06a1.54,1.54,0,0,1,.73-.34.69.69,0,0,0,.42-.27c.17-.24.37-.45.53-.69a.58.58,0,0,1,.61-.3.42.42,0,0,0,.34-.09c.33-.23.28-.16.56,0l.08.06a.34.34,0,0,1,.17.35c0,.22,0,.45,0,.67a.88.88,0,0,0,.6,1c.14.07.3.12.43.2a.67.67,0,0,0,.72,0c.13-.08.22,0,.31.08s.19.23.3.33.29.24.46.13a4,4,0,0,1,.81-.3.33.33,0,0,0,.12-.58,1,1,0,0,0-.17-.12l-.57-.4a.21.21,0,0,1-.11-.27,1.33,1.33,0,0,1,.4-.66c.1-.07.18-.16.28-.23a.86.86,0,0,0,.36-.6.33.33,0,0,1,0-.14c.25-.36.51-.7.76-1.06.09-.12.2-.06.3,0s.11.1.11.18,0,.34,0,.51a.28.28,0,0,0,.42.23.49.49,0,0,0,.31-.47c0-.23,0-.23.24-.22l.36,0a.44.44,0,0,0,.37-.07.62.62,0,0,0,.3-.39c.07-.33.28-.63.14-1-.05-.11.09-.28.21-.33.3-.12.33-.19.25-.49,0-.05,0-.1-.05-.14a.27.27,0,0,1,.11-.34,1.71,1.71,0,0,1,.81-.31.8.8,0,0,0,.54-.28c.05-.07.12-.11.17-.18A.47.47,0,0,1,60.42,8l1.74.15c.24,0,.26,0,.24.27a1.44,1.44,0,0,0,.25.88.83.83,0,0,1,.07.13.42.42,0,0,0,.47.26l.63,0a.2.2,0,0,1,.24.17c0,.22.11.43.16.64a.27.27,0,0,1,0,.18,6.19,6.19,0,0,1-.45.89c-.15.18-.28.39-.42.59-.41.57-.37.43-.16,1.09a.69.69,0,0,0,.53.51,1,1,0,0,1,.65.45.27.27,0,0,0,.32.11,2.57,2.57,0,0,1,.62-.08.66.66,0,0,0,.27-.12l.3-.25a.59.59,0,0,1,.38-.16c.31,0,.61,0,.91-.06a1.14,1.14,0,0,0,.94-.37s.05,0,.07-.06.15,0,.15.09a1.1,1.1,0,0,1,0,.18,1.66,1.66,0,0,0,.17,1,.86.86,0,0,0,.3.33,1.57,1.57,0,0,0,1,.25c.22,0,.29,0,.3.25s.12.32.34.35.26,0,.35.06,0,.24,0,.37a.58.58,0,0,1-.2.59,1.29,1.29,0,0,0-.39,1,.36.36,0,0,0,.2.37l.39.16a.49.49,0,0,0,.51,0c.27-.17.54-.31.81-.48a.29.29,0,0,1,.33,0l.76.43a.7.7,0,0,1,.16.13,3.65,3.65,0,0,0,.58.53.76.76,0,0,1,.39.83.26.26,0,0,0,.19.33.93.93,0,0,1,.48.39.33.33,0,0,0,.39.15l.38-.1a.28.28,0,0,1,.38.2c0,.15.09.31.13.46a.4.4,0,0,0,.23.3.92.92,0,0,1,.49.5.69.69,0,0,0,.69.34.87.87,0,0,0,.26-.08.39.39,0,0,1,.6.27l.09.25a2.22,2.22,0,0,0,.6,1.13.32.32,0,0,1,.1.18,3.18,3.18,0,0,1,.07.75.7.7,0,0,0,.12.46c.37.62.73,1.25,1.11,1.86a.88.88,0,0,1,0,1c-.11.21-.23.42-.33.64a4.89,4.89,0,0,1-1.27,1.77l0,.05a.39.39,0,0,0-.14.38c0,.27,0,.28-.29.24a2.88,2.88,0,0,0-1.37,0,.63.63,0,0,1-.62-.12.82.82,0,0,0-.83-.06c-.22.07-.24.17-.12.37a.19.19,0,0,0,.2.09.38.38,0,0,1,.31.16l.57.58c.36.35.32.24.15.71-.09.24-.09.25-.34.24Z"/><path class="cls-4" d="M46.49,46.64c-.47.09-.93.22-1.41.28a9.24,9.24,0,0,1-10.21-7.09,9.22,9.22,0,0,1,7.22-11.16,9.11,9.11,0,0,1,6.53,1.13l.22.11.83.6.2.18a9.28,9.28,0,0,1-.78,14.71,11.24,11.24,0,0,1-1.63.9Z"/><path class="cls-5" d="M47.46,46.3a11.24,11.24,0,0,0,1.63-.9,9.28,9.28,0,0,0,.78-14.71l-.2-.18c.09-.57.17-1.14.25-1.7,0-.3,0-.3.33-.3h9.2c.2,0,.21,0,.18.21-.12.9-.25,1.79-.38,2.69-.17,1.22-.34,2.45-.52,3.67-.19,1.38-.38,2.75-.58,4.12l-.06.53a.34.34,0,0,0,.24,0h4.41c.15,0,.21,0,.23-.19.07-.54.15-1.07.23-1.61.21-1.53.43-3.07.64-4.6l.57-4.09c0-.19.06-.38.08-.57s.07-.23.23-.2h9.17c.32,0,.33,0,.29.28-.2,1.38-.4,2.75-.58,4.12,0,.18-.1.25-.25.28a6.84,6.84,0,0,0-1.65.56c-1,.4-1.85.94-2.77,1.4a8.59,8.59,0,0,0-1.62,1l-.38.29a10.53,10.53,0,0,0-2.3,2.12c-.41.5-.84,1-1.25,1.47a1.73,1.73,0,0,1-.6.44c-.83.41-1.65.82-2.49,1.22a.52.52,0,0,0-.35.56c0,.15.08.34,0,.47s-.29.13-.44.18-.23.08-.33.13a2.32,2.32,0,0,1-1.29.22,1.54,1.54,0,0,0-1.21.44,21.68,21.68,0,0,0-2.53,2.45c-.73.81-1.46,1.61-2.13,2.47-.39.5-.72,1-1.08,1.56a2.37,2.37,0,0,1-.22.33.49.49,0,0,1-.5.19c-.77-.17-1.55-.32-2.33-.47a.58.58,0,0,1-.41-.22.6.6,0,0,0-.21-.21c-.28-.1-.23-.31-.2-.51.13-.93.27-1.85.4-2.78C47.45,46.46,47.45,46.38,47.46,46.3Z"/><path class="cls-5" d="M15.91,78.94l.84-6c-.08-.09-.17-.06-.24-.06H14.1c-.25,0-.25,0-.28.24-.26,1.87-.53,3.74-.79,5.62,0,.25,0,.25-.27.25H8.08l-.2,0c.06-.45.11-.88.17-1.32.2-1.38.39-2.76.59-4.15l.57-4.09.57-4.06c.16-1.11.32-2.23.47-3.34,0-.17.09-.21.25-.21h4.67c.23,0,.24,0,.21.25q-.41,2.81-.79,5.61c0,.24,0,.25.21.25h2.39c.27,0,.27,0,.31-.29L18.28,62c0-.24,0-.24.28-.24h4.62c.26,0,.26,0,.23.28-.31,2.14-.6,4.28-.91,6.42L21.42,76.2l-.36,2.54c0,.15-.06.23-.23.22H16.06Z"/><path class="cls-6" d="M73.51,33.55c-.15,1.09-.31,2.12-.44,3.15a10.79,10.79,0,0,1-.76,2.5,17.72,17.72,0,0,1-2.67,4.88,14.93,14.93,0,0,1-5,4,30.81,30.81,0,0,1-5.16,2,3.36,3.36,0,0,1-1,.14c-.57,0-1.15,0-1.72,0-.24,0-.28,0-.28.25s-.18.51-.53.6A45.3,45.3,0,0,0,51,52.74a19.17,19.17,0,0,0-4.58,2.59l-.12.09h-.07l.74-5.27c.14,0,.2.11.26.18a.87.87,0,0,0,.56.32l2.39.47a.85.85,0,0,0,.89-.36,1.88,1.88,0,0,0,.12-.18,27.44,27.44,0,0,1,3.33-4.2A25,25,0,0,1,56.8,44.1a3.87,3.87,0,0,1,.61-.38.42.42,0,0,1,.29,0,2.81,2.81,0,0,0,1.59-.25c.25-.11.53-.19.79-.29s.27-.16.27-.41a1.45,1.45,0,0,0,0-.36c0-.17,0-.25.19-.32l2.52-1.23a1.62,1.62,0,0,0,.57-.44c.21-.26.45-.51.68-.77.46-.55.92-1.11,1.42-1.63a3.08,3.08,0,0,1,.53-.49l2-1.56c.12-.09.27-.13.4-.21.37-.2.75-.39,1.11-.6a28.1,28.1,0,0,1,2.77-1.32A5,5,0,0,1,73.51,33.55Z"/><path class="cls-7" d="M74.51,33l2,.09c.25,0,.25,0,.34-.24.17-.47.21-.36-.15-.71l-.57-.58a.38.38,0,0,0-.31-.16.19.19,0,0,1-.2-.09c-.12-.2-.1-.3.12-.37a.82.82,0,0,1,.83.06.63.63,0,0,0,.62.12,2.88,2.88,0,0,1,1.37,0c.25,0,.33,0,.29-.24a.39.39,0,0,1,.14-.38l0-.05a4.89,4.89,0,0,0,1.27-1.77c.1-.22.22-.43.33-.64a.88.88,0,0,0,0-1c-.38-.61-.74-1.24-1.11-1.86a.7.7,0,0,1-.12-.46,3.18,3.18,0,0,0-.07-.75.32.32,0,0,0-.1-.18,2.22,2.22,0,0,1-.6-1.13l-.09-.25a.39.39,0,0,0-.6-.27.87.87,0,0,1-.26.08.69.69,0,0,1-.69-.34.92.92,0,0,0-.49-.5.4.4,0,0,1-.23-.3c0-.15-.08-.31-.13-.46a.28.28,0,0,0-.38-.2l-.38.1a.33.33,0,0,1-.39-.15.93.93,0,0,0-.48-.39.26.26,0,0,1-.19-.33.76.76,0,0,0-.39-.83,3.65,3.65,0,0,1-.58-.53.7.7,0,0,0-.16-.13l-.76-.43a.29.29,0,0,0-.33,0c-.27.17-.54.31-.81.48a.49.49,0,0,1-.51,0l-.39-.16a.36.36,0,0,1-.2-.37,1.29,1.29,0,0,1,.39-1,.58.58,0,0,0,.2-.59c0-.13.08-.28,0-.37s-.23,0-.35-.06-.33-.12-.34-.35-.08-.26-.3-.25a1.57,1.57,0,0,1-1-.25.86.86,0,0,1-.3-.33,1.66,1.66,0,0,1-.17-1,1.1,1.1,0,0,0,0-.18q0-.18-.15-.09s0,0-.07.06a1.14,1.14,0,0,1-.94.37c-.3,0-.6,0-.91.06a.59.59,0,0,0-.38.16l-.3.25a.66.66,0,0,1-.27.12,2.57,2.57,0,0,0-.62.08.27.27,0,0,1-.32-.11,1,1,0,0,0-.65-.45.69.69,0,0,1-.53-.51c-.21-.66-.25-.52.16-1.09.14-.2.27-.41.42-.59a6.19,6.19,0,0,0,.45-.89.27.27,0,0,0,0-.18c0-.21-.11-.42-.16-.64a.2.2,0,0,0-.24-.17l-.63,0a.42.42,0,0,1-.47-.26.83.83,0,0,0-.07-.13,1.44,1.44,0,0,1-.25-.88c0-.25,0-.25-.24-.27L60.42,8a.47.47,0,0,0-.46.16c-.05.07-.12.11-.17.18a.8.8,0,0,1-.54.28,1.71,1.71,0,0,0-.81.31.27.27,0,0,0-.11.34s0,.09.05.14c.08.3,0,.37-.25.49-.12.05-.26.22-.21.33.14.36-.07.66-.14,1a.62.62,0,0,1-.3.39.44.44,0,0,1-.37.07l-.36,0c-.23,0-.25,0-.24.22a.49.49,0,0,1-.31.47.28.28,0,0,1-.42-.23c0-.17,0-.34,0-.51s0-.17-.11-.18-.21-.08-.3,0c-.25.36-.51.7-.76,1.06a.33.33,0,0,0,0,.14.86.86,0,0,1-.36.6c-.1.07-.18.16-.28.23a1.33,1.33,0,0,0-.4.66.21.21,0,0,0,.11.27l.57.4a1,1,0,0,1,.17.12.33.33,0,0,1-.12.58,4,4,0,0,0-.81.3c-.17.11-.33,0-.46-.13s-.2-.22-.3-.33-.18-.16-.31-.08a.67.67,0,0,1-.72,0c-.13-.08-.29-.13-.43-.2a.88.88,0,0,1-.6-1c0-.22,0-.45,0-.67a.34.34,0,0,0-.17-.35l-.08-.06c-.28-.2-.23-.27-.56,0a.42.42,0,0,1-.34.09.58.58,0,0,0-.61.3c-.16.24-.36.45-.53.69a.69.69,0,0,1-.42.27,1.54,1.54,0,0,0-.73.34c-.25.2-.43.17-.66-.06s-.17-.19-.26-.29a.28.28,0,0,1,.12-.47.41.41,0,0,0,.26-.27,1.56,1.56,0,0,0,.07-1.06.93.93,0,0,0-.7-.75l-.32-.07a.43.43,0,0,0-.43.08.34.34,0,0,1-.31.08,1.79,1.79,0,0,1-.78-.19.25.25,0,0,0-.35,0c-.09.07-.19.16-.33.1s-.13,0-.18.07-.13.13-.2.18a.43.43,0,0,0-.18.42c0,.38,0,.44-.43.51l-.09,0a2.32,2.32,0,0,1-1.45,0,.89.89,0,0,0-.56,0,.47.47,0,0,1-.4-.05.4.4,0,0,0-.63.24c0,.1-.08.19-.11.28a.81.81,0,0,1-.64.62c-.12,0-.18.11-.23.22s-.28.48-.18.79a.62.62,0,0,0,.15.29l.09.08c.49.33.41.8.33,1.28a.28.28,0,0,1-.26.25,1.09,1.09,0,0,0-.9.58.35.35,0,0,1-.11.1,3.8,3.8,0,0,1-1.11.36,5.62,5.62,0,0,1-1.73-.2.33.33,0,0,0-.33,0,.35.35,0,0,1-.34.06l-.77-.18a.6.6,0,0,1-.36-.19,3.56,3.56,0,0,0-1.49-.89,1.47,1.47,0,0,0-.83,0c-.13,0-.22.18-.25.32a.71.71,0,0,0,.06.55c.16.28.13.38-.11.59s-.35.19-.37.37.12.31.18.47.24.42.19.68c0,.1.06.17.12.24l.42.47a.41.41,0,0,1,.07.5c-.08.14-.15.28-.22.43a.37.37,0,0,1-.33.27c-.16,0-.2.11-.22.24a.55.55,0,0,0,0,.38.45.45,0,0,1,0,.46.28.28,0,0,0,0,.29.7.7,0,0,1,0,.58.33.33,0,0,0,.15.39l.25.21a.31.31,0,0,1,0,.48.59.59,0,0,0-.16.4c0,.37-.21.49-.55.32a.61.61,0,0,0-.57,0,1,1,0,0,1-.92,0,.67.67,0,0,1-.36-.3.42.42,0,0,0-.27-.22,3,3,0,0,0-.87-.25.54.54,0,0,0-.18,0,3.06,3.06,0,0,0-1,.47,3.23,3.23,0,0,1-.54.37.51.51,0,0,1-.49,0,.23.23,0,0,0-.25,0l-.22.16a.35.35,0,0,0-.17.33,9.75,9.75,0,0,1,0,1.08.58.58,0,0,1-.17.37.87.87,0,0,1-1.06.33l-.09,0a.46.46,0,0,0-.55.17c-.52.62-.36.52-1.15.51a1.19,1.19,0,0,0-.81.25.7.7,0,0,1-.76.14.29.29,0,0,0-.34.11c-.16.18-.33.35-.49.54a.45.45,0,0,1-.47.19.87.87,0,0,0-.76.19,3.77,3.77,0,0,1-.54.34.63.63,0,0,1-.91-.28,3.9,3.9,0,0,0-.83-1.2.71.71,0,0,0-.37-.24,9,9,0,0,1-1.14-.39.91.91,0,0,0-.82,0,1.49,1.49,0,0,1-.81,0c-.14,0-.2-.17-.25-.32l-.05,0c-.12.48-.25.95-.37,1.42-.06.21-.12.41-.16.62a1.85,1.85,0,0,1-.48,1c-.18.18-.14.3.11.43A.82.82,0,0,1,11,32c-.14.23-.28.44-.44.66a.29.29,0,0,0,0,.35,6.83,6.83,0,0,0,1.13,1.48c.42.42.82.86,1.22,1.29.11.11.18.22.07.37a.23.23,0,0,1-.27.12c-.11,0-.21-.09-.32,0a.33.33,0,0,0,0,.24,1,1,0,0,1-.09.55,1.2,1.2,0,0,0,.07,1.15,2.11,2.11,0,0,0,.26.4.42.42,0,0,1,0,.53.37.37,0,0,1-.44.22l-.18,0c-.24,0-.25,0-.3.22a.51.51,0,0,1-.19.3c-.3.29-.61.59-.9.89s-.34.29-.57.17c-.09,0-.05.12-.06.17s-.13.32-.31.3a.81.81,0,0,0-.6.22l-.48.32a.56.56,0,0,0,.35.26c.44.1.55.31.36.71s-.31.53-.69.47H8.56c-.15,0-.33-.07-.46.07a1.58,1.58,0,0,0-.43.64,1.51,1.51,0,0,0,0,.94.49.49,0,0,1-.06.41,6.48,6.48,0,0,0-.46.81.39.39,0,0,0,.36.58c.4.05.79.12,1.19.19a.37.37,0,0,1,.3.26l.24.56a.78.78,0,0,0,.32.49.25.25,0,0,1,.12.23s0,.1,0,.15a1.07,1.07,0,0,0,.62,1.14c.1.07.16.07.22,0a.35.35,0,0,0,.05-.08.51.51,0,0,1,.65-.33h0c.24,0,.5.18.7.07s.37-.27.57-.39a.37.37,0,0,0,.19-.29.57.57,0,0,1,.38-.58c.09,0,.1-.13.13-.2.11-.27.33-.3.52-.07s.18.24.28.35a.61.61,0,0,1,.17.52,1.06,1.06,0,0,0,.13.55.88.88,0,0,1,0,.86.34.34,0,0,0-.06.26c0,.23.11.28.33.22a.59.59,0,0,1,.52.08.83.83,0,0,0,.16.09,2.82,2.82,0,0,1,1,.83c.08.1.16.22.32.17s.41,0,.53-.21a.9.9,0,0,1,.28-.27.65.65,0,0,0,.32-.58c0-.95,0-.65.52-1.37a2.52,2.52,0,0,1,.51-.47c.24-.17.24-.19.08-.42l-.11-.15a.3.3,0,0,1,.09-.46,1.25,1.25,0,0,1,.9-.26,1.3,1.3,0,0,0,.88-.11,2.89,2.89,0,0,1,.61-.18.57.57,0,0,0,.42-.68,3,3,0,0,0-.5-1.37,2.77,2.77,0,0,1-.2-.34.4.4,0,0,1,.09-.54,4.47,4.47,0,0,1,.41-.35.29.29,0,0,1,.45.11.38.38,0,0,1,.06.23.39.39,0,0,0,.28.41l.21.12a.46.46,0,0,1,.29.43c0,.44.07.88.1,1.31a.72.72,0,0,1-.13.37c-.09.18-.09.24.06.36a4.19,4.19,0,0,0,.69.38c.12.06.21,0,.29-.1.24-.2.33-.2.57,0s.4.31.59.48a.66.66,0,0,0,.52.18,5.08,5.08,0,0,0,1.28-.3,2.83,2.83,0,0,1,.86-.15c.27,0,.37.08.39.35A6,6,0,0,1,28,49.54a1.7,1.7,0,0,0,0,.39.45.45,0,0,0,.6.44,2.89,2.89,0,0,1,1.37,0,.5.5,0,0,1,.28.16l.67.71a.38.38,0,0,0,.39.16c.17,0,.3.07.43.16a1.51,1.51,0,0,0,.69.35c.12,0,.2,0,.25-.1a.39.39,0,0,1,.45-.22l.66,0a.71.71,0,0,1,.6.56c0,.09,0,.21,0,.28a.74.74,0,0,0,.39.16.81.81,0,0,0,.68-.18.93.93,0,0,1,1.12-.12.78.78,0,0,1,.3.27l1,1.39a1.4,1.4,0,0,0,.31.33c.19.13.2.13.36,0l.33-.31a9.88,9.88,0,0,1,1.47-1.2c.7-.46,1.37-1,2-1.43A12.4,12.4,0,0,1,45,50.1a3.28,3.28,0,0,1,1.1-.3V50c0,.24,0,.24-.27.28a1.33,1.33,0,0,0-.34.1c-.73.27-1.44.57-2.15.89a.63.63,0,0,0-.24.16.9.9,0,0,1-.19.15c-1,.59-1.92,1.32-2.88,2a13.54,13.54,0,0,0-1.26,1.13l-.15.14a.29.29,0,0,1-.39,0,2.24,2.24,0,0,1-.65-.58c-.29-.46-.61-.9-.92-1.34a.56.56,0,0,0-.92-.14,1.22,1.22,0,0,1-1.27.16l-.25-.11a.36.36,0,0,1-.24-.37c0-.36,0-.39-.39-.43l-.24,0c-.18,0-.35,0-.44.2s-.21.15-.36.13a1.89,1.89,0,0,1-1-.39.45.45,0,0,0-.41-.12.42.42,0,0,1-.4-.16l-.7-.75a.62.62,0,0,0-.36-.18,2.76,2.76,0,0,0-1.34.13c-.34.08-.37.07-.5-.27a.25.25,0,0,0,0-.07,1.07,1.07,0,0,1-.22-1,8.7,8.7,0,0,0,0-1c0-.09-.07-.1-.15-.1a1.21,1.21,0,0,0-.38.06l-1,.28a3.12,3.12,0,0,1-.86.11.67.67,0,0,1-.43-.2,5.93,5.93,0,0,1-.56-.46.21.21,0,0,0-.33,0,1,1,0,0,1-.13.09.35.35,0,0,1-.4,0l-.74-.4a1.24,1.24,0,0,1-.35-.37.33.33,0,0,1,0-.4,1,1,0,0,0,.09-.92.57.57,0,0,1,0-.29A.49.49,0,0,0,22,45.2a1.86,1.86,0,0,0-.19-.11.45.45,0,0,1-.29-.42.1.1,0,0,0-.05-.1c-.28.16-.28.16-.13.41a.22.22,0,0,0,0,.08,3.49,3.49,0,0,1,.6,1.71c0,.28-.14.49-.23.73s-.23.18-.37.22a3.48,3.48,0,0,0-.94.32.47.47,0,0,1-.21,0h-.66a.63.63,0,0,0-.5.17,1.6,1.6,0,0,0,.21.32.33.33,0,0,1-.05.48.86.86,0,0,1-.2.18,3.62,3.62,0,0,0-.81.8.54.54,0,0,0-.14.38,1.93,1.93,0,0,1-.13.92.3.3,0,0,0,0,.08c-.08.24-.4.25-.48.48s-.31.27-.52.32l-.45.1a.36.36,0,0,1-.37-.14c-.15-.18-.31-.34-.46-.52a3.36,3.36,0,0,0-.86-.54c-.08,0-.17,0-.26,0a.51.51,0,0,1-.64-.35.76.76,0,0,1,0-.72.56.56,0,0,0,0-.49,2.4,2.4,0,0,1-.2-.88c0-.12-.12-.19-.18-.28s-.08,0-.12,0A.66.66,0,0,0,13,49c0,.14-.13.22-.24.29s-.42.22-.53.46a.32.32,0,0,1-.35.12l-.65-.13c-.28-.05-.28-.06-.43.2a.81.81,0,0,1-.32.34c-.19.1-.31.11-.42-.06a2.17,2.17,0,0,0-.54-.55.68.68,0,0,1-.26-.55c0-.08,0-.16,0-.24a.56.56,0,0,0-.2-.48.53.53,0,0,1-.19-.33,0,0,0,0,1,0,0c-.23-.7-.23-.7-1-.82a1.68,1.68,0,0,0-.59,0c-.25,0-.78-.57-.75-.8a1.18,1.18,0,0,1,.07-.2,6.06,6.06,0,0,1,.48-.87.54.54,0,0,0,.07-.43,1.8,1.8,0,0,1,.4-1.57c0-.06.11-.11.16-.18a.49.49,0,0,1,.57-.23,1.23,1.23,0,0,0,.33,0A.37.37,0,0,0,9,42.66c0-.06,0-.1-.07-.11-.26,0-.42-.22-.61-.36A2.65,2.65,0,0,0,8,42a.24.24,0,0,1-.11-.32c0-.17.15-.18.27-.17a1,1,0,0,0,.64-.22c.22-.14.41-.37.71-.36.06,0,.05-.07.06-.12.08-.28.21-.37.5-.3a.27.27,0,0,0,.27-.09c.27-.27.54-.54.82-.8a.29.29,0,0,0,.09-.37c-.1-.27.06-.45.35-.4l.53.09c.06,0,.12,0,.15-.05s0-.1,0-.14,0,0,0,0a2.28,2.28,0,0,1-.43-1.23.49.49,0,0,1,0-.32,1.47,1.47,0,0,0,.16-.94c0-.31,0-.31.28-.48,0-.1-.12-.16-.18-.23-.23-.25-.45-.5-.69-.73a7.48,7.48,0,0,1-1.2-1.58.56.56,0,0,1,0-.64c.14-.21.28-.42.41-.63a.33.33,0,0,0-.11-.5c-.23-.13-.3-.37-.42-.57a.26.26,0,0,1,0-.24.31.31,0,0,1,.07-.09,2.27,2.27,0,0,0,.62-1.28c.16-.66.34-1.32.51-2,0-.06,0-.12.05-.17a.29.29,0,0,1,.47-.14.43.43,0,0,1,.17.24c.12.36.28.43.65.32a3.9,3.9,0,0,0,.48-.17.34.34,0,0,1,.41.09.51.51,0,0,0,.26.14l1.06.35a1,1,0,0,1,.51.34l.36.41a1.84,1.84,0,0,1,.47.73.36.36,0,0,0,.13.23.26.26,0,0,0,.33,0c.23-.16.48-.29.71-.46a.69.69,0,0,1,.6-.12.38.38,0,0,0,.43-.17c.16-.18.34-.35.5-.53a.41.41,0,0,1,.48-.14.61.61,0,0,0,.67-.12,1.13,1.13,0,0,1,.93-.25.82.82,0,0,0,.89-.4.64.64,0,0,1,.85-.29,1.55,1.55,0,0,0,.21,0c.29.12.47,0,.64-.24a.35.35,0,0,0,.06-.26c0-.36,0-.72,0-1.08a.45.45,0,0,1,.22-.4l.44-.32a.32.32,0,0,1,.37-.06.45.45,0,0,0,.59-.13,2.43,2.43,0,0,1,.87-.52l0,0a1.46,1.46,0,0,1,1.39,0l.36.14a.61.61,0,0,1,.39.31.61.61,0,0,0,.7.25l.15-.05a.71.71,0,0,1,.8,0c.1-.19,0-.41.21-.54s0-.08,0-.11-.1-.1-.16-.14a.52.52,0,0,1-.23-.67.54.54,0,0,0-.06-.46.42.42,0,0,1,0-.43.38.38,0,0,0,0-.37,1.15,1.15,0,0,1,.1-.87c0-.12.18-.14.3-.16a.79.79,0,0,0,.37-.54.42.42,0,0,0-.08-.12l-.3-.34a.75.75,0,0,1-.27-.67c0-.08,0-.15-.07-.23s-.18-.38-.26-.57a.46.46,0,0,1,.11-.58l.13-.11c.17-.13.38-.25.16-.5a1.29,1.29,0,0,1,.32-1.17.37.37,0,0,1,.27-.11,1.22,1.22,0,0,0,.27,0,1.65,1.65,0,0,1,1.15.21,3.31,3.31,0,0,1,1.18.77.43.43,0,0,0,.28.15,3.57,3.57,0,0,1,.47.11.35.35,0,0,0,.39-.06.31.31,0,0,1,.31,0c.09,0,.18,0,.27.06a4.12,4.12,0,0,0,1.64.15,1.31,1.31,0,0,0,1-.52.93.93,0,0,1,.7-.42c.18,0,.21-.11.24-.28a.6.6,0,0,0-.25-.62,1.21,1.21,0,0,1-.41-1,.45.45,0,0,1,.07-.23,3.29,3.29,0,0,0,.17-.39.68.68,0,0,1,.51-.47.41.41,0,0,0,.33-.3A1.07,1.07,0,0,0,39,13c0-.35.32-.52.55-.73a.31.31,0,0,1,.41,0,.65.65,0,0,0,.68.11.37.37,0,0,1,.23,0,3.58,3.58,0,0,1,.35.09,2.2,2.2,0,0,0,1.22,0,.16.16,0,0,0,.15-.21.61.61,0,0,1,.28-.62c.11-.08.21-.19.32-.28s.2-.2.36-.13.16,0,.22-.08a.41.41,0,0,1,.55,0,1,1,0,0,0,.47.19.53.53,0,0,0,.48-.11.34.34,0,0,1,.31-.07l.29.07c.85.2.56,0,1.1.67a.74.74,0,0,1,.2.52.77.77,0,0,0,0,.15A2.19,2.19,0,0,1,47,13.88a.38.38,0,0,1-.11.14c-.06.06-.1.1,0,.17s.13.11.2,0a1.78,1.78,0,0,1,.87-.4.32.32,0,0,0,.2-.16c.19-.24.4-.46.56-.71a.78.78,0,0,1,.76-.39.73.73,0,0,0,.44-.15c.26-.18.35-.17.59,0l.41.31a.59.59,0,0,1,.23.53c0,.29,0,.58-.07.87a.5.5,0,0,0,.31.51,3.27,3.27,0,0,1,.33.14.7.7,0,0,0,.76,0,.34.34,0,0,1,.43.09c.16.16.27.43.47.45a2,2,0,0,0,.62-.19l0,0c0-.09-.07-.11-.12-.14l-.32-.23c-.53-.34-.48-.35-.3-.93a1.15,1.15,0,0,1,.44-.66c.14-.1.25-.23.38-.34a.32.32,0,0,0,.13-.23.8.8,0,0,1,.2-.46c.24-.34.49-.67.72-1a.4.4,0,0,1,.46-.19c.22,0,.47,0,.61.25a.07.07,0,0,0,.08,0,1.51,1.51,0,0,1,.76,0c.35,0,.37,0,.47-.3a1.19,1.19,0,0,0,.07-.7.8.8,0,0,1,.34-.73c.09-.08.1-.13.07-.22l-.06-.21A.3.3,0,0,1,58,8.77a2.1,2.1,0,0,1,1-.5.85.85,0,0,0,.57-.3c.39-.41.4-.4,1-.35l1.8.16c.32,0,.41.11.4.44a1.39,1.39,0,0,0,.21.91c.08.11.14.18.28.17h.64a.43.43,0,0,1,.48.32c.09.31.16.62.24.93a.45.45,0,0,1,0,.26,6,6,0,0,1-.85,1.45,1,1,0,0,1-.09.13c-.29.25-.18.53-.06.81a.33.33,0,0,0,.21.16,1.3,1.3,0,0,1,.76.45s0,.06.07,0c.27-.06.58.08.8-.16a1.46,1.46,0,0,1,1.12-.42c.28,0,.56,0,.84-.06a.43.43,0,0,0,.32-.14l.36-.31a.31.31,0,0,1,.34,0,.66.66,0,0,1,.31.6,1.67,1.67,0,0,0,0,.86.87.87,0,0,0,.8.54c.19,0,.4,0,.6,0s.33.11.33.36,0,.23.23.25l.39,0a.28.28,0,0,1,.2.47.43.43,0,0,0-.08.34A.83.83,0,0,1,71,17a.86.86,0,0,0-.31.6c0,.11,0,.18.12.24a.5.5,0,0,0,.54,0c.23-.17.49-.3.74-.46a.38.38,0,0,1,.44,0l1,.57c.15.08.22.24.34.34s.44.39.67.57a.52.52,0,0,1,.24.62c-.05.16,0,.27.17.31s.2.16.28.27a.24.24,0,0,0,.33.11,1.17,1.17,0,0,1,.2-.06.64.64,0,0,1,.81.47l.09.29c0,.16.08.31.28.34a.35.35,0,0,1,.2.18l.22.32c.16.23.24.25.5.14l.22-.1a.34.34,0,0,1,.24,0c.26.14.56.24.64.58,0,.15.1.29.14.44a1.84,1.84,0,0,0,.49.88.56.56,0,0,1,.19.39,4.79,4.79,0,0,1,.09.84A.52.52,0,0,0,80,25l1.11,1.87a1.13,1.13,0,0,1,0,1.07c-.27.61-.61,1.2-.92,1.8A.83.83,0,0,1,80,30c-.19.19-.36.38-.55.56a.44.44,0,0,0-.17.45.5.5,0,0,1,0,.21.32.32,0,0,1-.33.29,1.65,1.65,0,0,1-.32,0,4.26,4.26,0,0,0-1.84.12,1.42,1.42,0,0,0,.36.41.57.57,0,0,1,.17.77,3,3,0,0,0-.16.42c-.1.24-.18.3-.43.29l-2.11-.09c-.2,0-.24,0-.18-.22Z"/><path class="cls-8" d="M32.05,75.41a.45.45,0,0,1,0,.28c-.11.85-.24,1.7-.35,2.54,0,.16-.11.2-.22.24a9.28,9.28,0,0,1-1.56.36,13.92,13.92,0,0,1-2.5.12,5.18,5.18,0,0,1-1.24-.2,3.18,3.18,0,0,1-2.32-2.6,7.19,7.19,0,0,1-.08-2.22,20,20,0,0,1,.44-2.77A6.87,6.87,0,0,1,25,69.27a4.72,4.72,0,0,1,2.57-2.12.44.44,0,0,0,.33-.34c.08-.29.18-.58.27-.86,0-.11.07-.17.2-.17h3.23l.09,0-.56,1a.53.53,0,0,0,.25.1A3.24,3.24,0,0,1,34,69.72a8.16,8.16,0,0,1-.16,3.44,2.64,2.64,0,0,1-.31.71,1,1,0,0,1-.91.5H27.16c-.35,0-.37-.08-.37.36a1.1,1.1,0,0,0,1.09,1.22A9.92,9.92,0,0,0,30,75.85a10.57,10.57,0,0,0,1.91-.44A.19.19,0,0,1,32.05,75.41Zm-4.82-4a1.06,1.06,0,0,0,.35,0H30c.28,0,.56,0,.85,0,.11,0,.18,0,.2-.16a1.21,1.21,0,0,0-.89-1.46,2.85,2.85,0,0,0-1.8.11A1.72,1.72,0,0,0,27.23,71.45Z"/><path class="cls-8" d="M44.55,70.33c.05-.36.09-.68.13-1,.08-.56.17-1.13.24-1.7a.37.37,0,0,1,.33-.38,11.83,11.83,0,0,1,2.57-.45,6.4,6.4,0,0,1,2.64.34,2.93,2.93,0,0,1,1.94,2.48,7.66,7.66,0,0,1-.09,2.19c-.19,1.37-.39,2.75-.58,4.12-.1.7-.21,1.41-.3,2.12a.3.3,0,0,1-.21.25,6.94,6.94,0,0,1-1.77.48A18.53,18.53,0,0,1,46,79a5.35,5.35,0,0,1-2.19-.5,2.55,2.55,0,0,1-1.5-2.11A4.9,4.9,0,0,1,42.54,74a4.09,4.09,0,0,1,2.18-2.31,8.07,8.07,0,0,1,2.54-.7,15.57,15.57,0,0,1,1.81-.13c.25,0,.27,0,.25-.28a.77.77,0,0,0-.47-.62,1.9,1.9,0,0,0-.78-.18,8.47,8.47,0,0,0-2.13.21C45.49,70.09,45.05,70.21,44.55,70.33ZM47.21,76a11.5,11.5,0,0,0,1.17-.08c.23,0,.24,0,.27-.25l.21-1.58c0-.18,0-.2-.18-.19s-.62,0-.93,0a5.38,5.38,0,0,0-1.48.28,1.71,1.71,0,0,0-.62.37.73.73,0,0,0,.28,1.27.76.76,0,0,0,.2.06A3.94,3.94,0,0,0,47.21,76Z"/><path class="cls-8" d="M56.72,66.77H58c.25,0,.25,0,.22.26-.12.89-.25,1.79-.38,2.68l-.51,3.67-.15,1.11,0,.18a1.1,1.1,0,0,0,1,1.26,8.58,8.58,0,0,0,2-.06c.13,0,.16-.09.17-.2.09-.6.17-1.19.25-1.79.2-1.38.39-2.77.58-4.15.13-.91.26-1.81.38-2.72,0-.23,0-.24.28-.24h2.65c.22,0,.23,0,.2.22L64,71.86l-.69,5c-.05.4-.12.8-.16,1.2a.32.32,0,0,1-.22.28,6.83,6.83,0,0,1-1.77.48,18.42,18.42,0,0,1-3.4.18,5.56,5.56,0,0,1-1.57-.27A3,3,0,0,1,54,75.89a10.18,10.18,0,0,1,.14-2.13c.18-1.24.35-2.49.52-3.73.14-1,.29-2,.43-3.07,0-.14.07-.19.21-.19C55.79,66.78,56.26,66.77,56.72,66.77Z"/><path class="cls-8" d="M77.38,63.08l-.51,3.65a.62.62,0,0,0,.35,0h2.62c.23,0,.24,0,.21.23-.12.86-.25,1.71-.36,2.57,0,.17-.09.21-.24.21-.87,0-1.73,0-2.6,0h-.21c-.15,0-.21,0-.23.2-.07.54-.15,1.08-.23,1.61-.13,1-.27,1.89-.4,2.84a2.25,2.25,0,0,0,0,.93.77.77,0,0,0,.7.6,2.83,2.83,0,0,0,1-.1c.36-.09.7-.22,1.08-.35a7.8,7.8,0,0,1-.1.89c-.09.67-.2,1.33-.28,2a.3.3,0,0,1-.23.28,5.3,5.3,0,0,1-2.37.26,4.33,4.33,0,0,1-1.23-.29,2.72,2.72,0,0,1-1.67-2.07,5.76,5.76,0,0,1,0-2.07c.2-1.47.42-3,.62-4.42a2.33,2.33,0,0,0,0-.3H71.71c.05-.38.09-.72.14-1,.07-.56.15-1.12.23-1.68,0-.28,0-.28.34-.28H73.5c.24,0,.24,0,.27-.25.12-.84.24-1.67.35-2.51a.24.24,0,0,1,.21-.24Z"/><path class="cls-6" d="M71,51.24a2.82,2.82,0,0,1-.08.92c-.14,1.08-.3,2.15-.45,3.22-.18,1.24-.35,2.49-.53,3.73,0,.29-.07.58-.12.86s0,.22-.26.22H60.27c-.19,0-.2,0-.17-.2.19-1.38.39-2.75.57-4.12,0-.2.14-.23.29-.27,1.28-.36,2.56-.72,3.81-1.16A22.1,22.1,0,0,0,70,51.93l.76-.54c.07,0,.13-.13.23-.14Z"/><path class="cls-9" d="M12.25,23.34a10.93,10.93,0,0,1,.59-1.66,21.46,21.46,0,0,1,4.42-6.58A24,24,0,0,1,29.65,8.23,20.56,20.56,0,0,1,34.9,7.8a13,13,0,0,1,1.82.2.94.94,0,0,1-.38.16c-1.67.52-3.34,1.05-5,1.67a44.49,44.49,0,0,0-14.3,8.74C15.54,20,14.1,21.44,12.7,23l-.4.44Z"/><path class="cls-6" d="M60.86,54.73a1.64,1.64,0,0,1,.06-.58c.15-1.18.32-2.35.48-3.52a.42.42,0,0,1,.33-.4,23.11,23.11,0,0,0,4-1.79,15.65,15.65,0,0,0,6.43-6.92c0-.11.11-.21.17-.32s0,0,.07-.05l-.09.69-.51,3.64c-.2,1.44-.41,2.88-.6,4.32a.46.46,0,0,1-.19.29,16.51,16.51,0,0,1-3.73,2.43,32.87,32.87,0,0,1-5.08,1.86l-1.16.33A.32.32,0,0,1,60.86,54.73Z"/><path class="cls-8" d="M70.51,63.08c-.05.38-.09.7-.14,1l-.84,6c-.29,2.07-.59,4.14-.88,6.21l-.33,2.36c0,.07,0,.14,0,.21a.11.11,0,0,1-.12.1H65.35a.25.25,0,0,1-.19,0c.06-.42.11-.86.18-1.29.19-1.39.38-2.77.58-4.15s.43-3,.64-4.51l.57-4.09c0-.27.08-.54.11-.81s0-.25.28-.3l2.21-.5Z"/><path class="cls-6" d="M56.38,51.86c-.05.38-.09.74-.14,1.1-.14.94-.27,1.88-.4,2.83-.07.48-.06.48-.53.65a22.4,22.4,0,0,0-4.84,2.37,15,15,0,0,0-1.62,1.26.45.45,0,0,1-.32.12H45.75c-.24,0-.23,0-.2-.23.13-1,.27-1.91.39-2.87a.88.88,0,0,1,.32-.61,18,18,0,0,1,4.92-2.94,43.56,43.56,0,0,1,5.07-1.67Z"/><path class="cls-8" d="M34.87,79c.06-.41.11-.8.16-1.19.22-1.54.43-3.08.65-4.63s.43-3,.64-4.53c0-.31.1-.62.13-.93a.31.31,0,0,1,.24-.3,8.67,8.67,0,0,1,1.81-.43,24.27,24.27,0,0,1,2.56-.17,8,8,0,0,1,1.29.08c.23,0,.23,0,.2.27-.08.63-.18,1.25-.26,1.88,0,.27-.08.54-.11.81s-.07.17-.2.13a6.18,6.18,0,0,0-2.46-.09c-.25,0-.25,0-.29.29C39,72.08,38.68,74,38.41,76c-.13.91-.26,1.83-.38,2.74,0,.25,0,.25-.28.25H34.87Z"/><path class="cls-10" d="M53.59,85V82.71c0-.27,0-.27.27-.36A4.68,4.68,0,0,1,55,82.17c.32,0,.65,0,1,0a1,1,0,0,1,.5.09,1,1,0,0,0,.82,0,3.3,3.3,0,0,1,1.56-.07,1.52,1.52,0,0,1,1.34,1.35,2.85,2.85,0,0,1,.06.66v3c0,.32,0,.32-.3.32s-.53,0-.79,0-.3,0-.3-.32c0-1,0-2,0-2.92a1.71,1.71,0,0,0,0-.39c-.07-.33-.21-.45-.54-.45h-.18c-.47.06-.49.08-.49.56v3.29c0,.22,0,.22-.22.22h-1c-.16,0-.23-.06-.21-.21V84.32a2.55,2.55,0,0,0,0-.39.48.48,0,0,0-.52-.44,4.36,4.36,0,0,0-.51,0c-.15,0-.19.08-.18.22A1.47,1.47,0,0,1,55,84v3.32c0,.3,0,.3-.32.3s-.52,0-.78,0-.29,0-.29-.27Z"/><path class="cls-10" d="M7.86,84.18V81c0-.12.06-.16.17-.16h0c.87,0,1.75,0,2.62,0a2.35,2.35,0,0,1,2.17,1.72,5.3,5.3,0,0,1,.23,1.81,5.38,5.38,0,0,1-.21,1.43,2.37,2.37,0,0,1-2.17,1.76c-.89.08-1.77,0-2.66,0-.17,0-.18,0-.18-.26Zm1.39,0c0,.6,0,1.21,0,1.81,0,.23,0,.24.23.24s.5,0,.75,0a1.25,1.25,0,0,0,1.3-1,3.8,3.8,0,0,0,.14-1.16,2.94,2.94,0,0,0-.21-1.18,1.2,1.2,0,0,0-1.15-.78H9.51c-.25,0-.25,0-.26.25Z"/><path class="cls-10" d="M22.23,89.64a.74.74,0,0,1,0-.33V82.79c0-.34,0-.35.32-.44A5.62,5.62,0,0,1,25,82.23a1.62,1.62,0,0,1,1.32,1.18c0,.12.06.24.08.36a8.13,8.13,0,0,1,0,2.31,1.72,1.72,0,0,1-1.59,1.46,4.13,4.13,0,0,1-.93,0c-.25,0-.25,0-.26.22v1.3c0,.3,0,.3-.3.37l-.82.19A.39.39,0,0,1,22.23,89.64Zm1.36-4.8V86c0,.11,0,.21.15.22a4.68,4.68,0,0,0,.75,0,.57.57,0,0,0,.47-.37,1,1,0,0,0,.09-.41V84.29a1,1,0,0,0-.06-.35.6.6,0,0,0-.56-.44,2.92,2.92,0,0,0-.66,0c-.14,0-.18.07-.18.21C23.6,84.1,23.59,84.47,23.59,84.84Z"/><path class="cls-10" d="M19.25,86a4.56,4.56,0,0,1-.08.78s0,.1,0,.15c-.07.53,0,.48-.57.58a4.35,4.35,0,0,1-1.44,0,1.73,1.73,0,0,1-1.46-1.16,4.78,4.78,0,0,1-.19-1.84,3.58,3.58,0,0,1,.15-1,1.74,1.74,0,0,1,1-1.11.41.41,0,0,0,.3-.39c0-.27.05-.27.32-.28h1.23c0,.19-.12.31-.1.46s.09,0,.14.07a1.82,1.82,0,0,1,1.34,1.44,3.79,3.79,0,0,1,.08,1.26.59.59,0,0,1-.05.23.41.41,0,0,1-.48.36h-2a1.47,1.47,0,0,0-.21,0c-.1,0-.25-.06-.3.07A.38.38,0,0,0,17,86a.6.6,0,0,0,.52.26,4.74,4.74,0,0,0,1.4-.15Zm-1.54-1.75h.66c.14,0,.17-.07.15-.19a.62.62,0,0,0-.42-.5,1.28,1.28,0,0,0-.82,0,.61.61,0,0,0-.38.47c0,.13,0,.19.15.19Z"/><path class="cls-10" d="M66.43,86c-.06.45-.12.86-.17,1.27a.19.19,0,0,1-.18.17,4.35,4.35,0,0,1-2,.06,1.68,1.68,0,0,1-1.2-1.08,1.8,1.8,0,0,1-.15-.55,6.26,6.26,0,0,1,0-2,1.85,1.85,0,0,1,1.76-1.69,2.93,2.93,0,0,1,1.25.08,1.73,1.73,0,0,1,1.12,1A3.46,3.46,0,0,1,67.05,85c0,.39-.2.51-.6.51H64.28c-.25,0-.29.06-.21.29a.58.58,0,0,0,.55.39,4.48,4.48,0,0,0,1.32-.11Zm-1.57-1.75h.66c.14,0,.17-.07.15-.19a.62.62,0,0,0-.42-.5,1.22,1.22,0,0,0-.82,0,.61.61,0,0,0-.38.47c0,.13,0,.19.15.19Z"/><path class="cls-10" d="M50.67,86c-.06.46-.12.88-.18,1.29,0,.1-.07.14-.16.16a4.2,4.2,0,0,1-2.14,0,1.65,1.65,0,0,1-1-.87,2.4,2.4,0,0,1-.21-.69,6.35,6.35,0,0,1,0-2,1.87,1.87,0,0,1,1.81-1.68,3.1,3.1,0,0,1,1,0,1.77,1.77,0,0,1,1.45,1.29A3.8,3.8,0,0,1,51.3,85a.57.57,0,0,1,0,.18c-.09.31-.2.4-.51.4H48.47c-.18,0-.21,0-.17.22a.56.56,0,0,0,.56.46,4.69,4.69,0,0,0,1.29-.1ZM49.1,84.23h.66c.14,0,.18-.07.15-.19a.59.59,0,0,0-.39-.49,1.17,1.17,0,0,0-.88,0,.56.56,0,0,0-.35.45c0,.13,0,.19.15.19Z"/><path class="cls-10" d="M29.57,83.73c.06-.46.12-.87.18-1.29,0-.1.09-.13.17-.15a3.86,3.86,0,0,1,1.91,0,1.63,1.63,0,0,1,1.25,1.43,4.89,4.89,0,0,1,0,.54c0,.91,0,1.81,0,2.72,0,.31,0,.32-.31.41a6.35,6.35,0,0,1-2.12.21,3.44,3.44,0,0,1-.63-.1,1.5,1.5,0,0,1-1.19-1.36A1.64,1.64,0,0,1,30,84.21,4.59,4.59,0,0,1,31.34,84h.27c.08,0,.09-.06.08-.13a.39.39,0,0,0-.29-.28,1.82,1.82,0,0,0-.77,0A10.06,10.06,0,0,0,29.57,83.73Zm1.51,2.5c.74,0,.62,0,.63-.6,0,0,0-.08,0-.12s0-.22-.21-.21a3.57,3.57,0,0,0-.86.12.7.7,0,0,0-.27.14.33.33,0,0,0,0,.54.53.53,0,0,0,.28.1Z"/><path class="cls-10" d="M69.35,85V82.74c0-.31,0-.32.29-.39a6,6,0,0,1,2.46-.14,1.65,1.65,0,0,1,1.49,1.66c0,.27,0,.55,0,.82v2.74c0,.1,0,.14-.15.14H72.36c-.15,0-.16-.09-.16-.2,0-.35,0-.7,0-1.05,0-.7,0-1.39,0-2.08,0-.53-.22-.75-.75-.75a3.75,3.75,0,0,0-.48,0c-.22,0-.23,0-.23.26v3.59c0,.15,0,.21-.21.21h-1c-.21,0-.22,0-.22-.22Z"/><path class="cls-10" d="M78.08,80.52a1,1,0,0,1,0,.4V82c0,.13,0,.18.18.17h1c.25,0,.26,0,.26.25v.87c0,.21,0,.22-.23.22s-.66,0-1,0c-.15,0-.22,0-.21.2v1.93a1,1,0,0,0,0,.24.43.43,0,0,0,.48.36,1.13,1.13,0,0,0,.36-.06l.39-.12a6.83,6.83,0,0,1-.09.92s0,.08,0,.12c0,.46,0,.42-.49.48a2.29,2.29,0,0,1-1.15-.18,1.41,1.41,0,0,1-.75-.82,2.3,2.3,0,0,1-.16-.86c0-.65,0-1.3,0-2,0-.25,0-.25-.25-.26-.46,0-.46,0-.46-.46,0-.22,0-.44,0-.66s0-.23.21-.22h.3c.15,0,.22,0,.21-.2s0-.58,0-.87,0-.26.21-.3C77.31,80.71,77.69,80.61,78.08,80.52Z"/><path class="cls-10" d="M44.3,86.05a4.12,4.12,0,0,1-.08.81,1.13,1.13,0,0,1,0,.18c-.06.56,0,.46-.54.52a2,2,0,0,1-1.09-.18,1.48,1.48,0,0,1-.84-1.07,2.84,2.84,0,0,1-.08-.72V83.75c0-.25,0-.25-.24-.26s-.33.06-.44,0,0-.31,0-.46,0-.41,0-.61,0-.22.24-.23h.27c.16,0,.22,0,.21-.2s0-.59,0-.88,0-.24.24-.29L43,80.52a5.55,5.55,0,0,1,0,.8v.61c0,.21,0,.22.22.22h1c.25,0,.25,0,.25.26s0,.58,0,.87,0,.22-.21.21h-1c-.25,0-.26,0-.26.24V85.6c0,.52.26.7.77.59C44,86.16,44.11,86.1,44.3,86.05Z"/><path class="cls-11" d="M35.52,85V82.71c0-.27,0-.29.26-.35a6.19,6.19,0,0,1,2.57-.14c.13,0,.16.08.13.21-.09.32-.16.64-.23,1,0,.14-.1.18-.23.15a2.48,2.48,0,0,0-.9,0c-.16,0-.2.08-.2.23v3.56c0,.26,0,.26-.27.26h-.81c-.32,0-.32,0-.32-.31Z"/><path class="cls-6" d="M55.63,57.2c-.08.64-.16,1.21-.24,1.79,0,.33-.11.67-.14,1,0,.16-.09.2-.24.19H50.08l0-.07A19.61,19.61,0,0,1,55.63,57.2Z"/><path class="cls-6" d="M71,51.25s0,0,0,0h0s0,0,0,0Z"/></g></g></svg>