<?xml version="1.0" encoding="UTF-8" standalone="no"?>
<!-- Created with Inkscape (http://www.inkscape.org/) -->

<svg
   xmlns:dc="http://purl.org/dc/elements/1.1/"
   xmlns:cc="http://creativecommons.org/ns#"
   xmlns:rdf="http://www.w3.org/1999/02/22-rdf-syntax-ns#"
   xmlns:svg="http://www.w3.org/2000/svg"
   xmlns="http://www.w3.org/2000/svg"
   xmlns:sodipodi="http://sodipodi.sourceforge.net/DTD/sodipodi-0.dtd"
   xmlns:inkscape="http://www.inkscape.org/namespaces/inkscape"
   width="500"
   height="314.83359"
   id="svg18733"
   version="1.1"
   inkscape:version="0.48.2 r9819"
   sodipodi:docname="Nouveau document 3">
  <defs
     id="defs18735">
    <clipPath
       clipPathUnits="userSpaceOnUse"
       id="clipPath15584">
      <path
         inkscape:connector-curvature="0"
         d="m 460.63,16.569 109.006,0 0,68.47 -109.006,0 0,-68.47 z"
         id="path15586" />
    </clipPath>
  </defs>
  <sodipodi:namedview
     id="base"
     pagecolor="#ffffff"
     bordercolor="#666666"
     borderopacity="1.0"
     inkscape:pageopacity="0.0"
     inkscape:pageshadow="2"
     inkscape:zoom="1.3571942"
     inkscape:cx="272.85714"
     inkscape:cy="155.71429"
     inkscape:document-units="px"
     inkscape:current-layer="layer1"
     showgrid="false"
     fit-margin-top="0"
     fit-margin-left="0"
     fit-margin-right="0"
     fit-margin-bottom="0"
     inkscape:window-width="1366"
     inkscape:window-height="706"
     inkscape:window-x="-8"
     inkscape:window-y="-8"
     inkscape:window-maximized="1" />
  <metadata
     id="metadata18738">
    <rdf:RDF>
      <cc:Work
         rdf:about="">
        <dc:format>image/svg+xml</dc:format>
        <dc:type
           rdf:resource="http://purl.org/dc/dcmitype/StillImage" />
        <dc:title></dc:title>
      </cc:Work>
    </rdf:RDF>
  </metadata>
  <g
     inkscape:label="Calque 1"
     inkscape:groupmode="layer"
     id="layer1"
     transform="translate(-237.75181,-577.4652)">
    <g
       transform="matrix(4.5981245,0,0,-4.5981245,-1880.2832,968.48511)"
       id="g15580">
      <g
         id="g15582"
         clip-path="url(#clipPath15584)">
        <g
           id="g15588"
           transform="translate(481.5689,18.8173)">
          <path
             inkscape:connector-curvature="0"
             d="m 0,0 c -0.093,-0.096 -0.207,-0.144 -0.341,-0.144 l -3.865,0 c -0.134,0 -0.248,0.048 -0.341,0.144 -0.093,0.096 -0.14,0.213 -0.14,0.351 l 0,7.476 c 0,0.138 0.049,0.259 0.146,0.362 0.096,0.104 0.216,0.156 0.357,0.156 0.141,0 0.261,-0.052 0.358,-0.156 0.096,-0.103 0.145,-0.224 0.145,-0.362 l 0,-6.982 3.34,0 C -0.207,0.845 -0.093,0.797 0,0.702 0.093,0.606 0.14,0.489 0.14,0.351 0.14,0.213 0.093,0.096 0,0"
             style="fill:#000000;fill-opacity:1;fill-rule:nonzero;stroke:none"
             id="path15590" />
        </g>
        <g
           id="g15592"
           transform="translate(485.7303,22.2621)">
          <path
             inkscape:connector-curvature="0"
             d="M 0,0 C 0,0.974 -0.406,1.461 -1.218,1.461 -2.052,1.461 -2.469,0.974 -2.469,0 l 0,-0.195 2.469,0 L 0,0 z m 0.95,-0.598 c 0,-0.261 -0.123,-0.391 -0.369,-0.391 l -3.05,0 0,-0.311 c 0,-0.997 0.421,-1.495 1.262,-1.495 0.537,0 1.002,0.107 1.397,0.322 0.052,0.031 0.108,0.046 0.168,0.046 0.111,0 0.204,-0.046 0.279,-0.138 0.074,-0.092 0.112,-0.196 0.112,-0.31 0,-0.161 -0.075,-0.284 -0.224,-0.368 -0.507,-0.277 -1.095,-0.415 -1.765,-0.415 -0.752,0 -1.318,0.242 -1.698,0.725 -0.335,0.422 -0.503,0.993 -0.503,1.714 l 0,1.07 c 0,0.72 0.171,1.291 0.514,1.713 0.387,0.483 0.95,0.725 1.687,0.725 0.767,0 1.337,-0.242 1.709,-0.725 0.32,-0.406 0.481,-0.97 0.481,-1.69 l 0,-0.472 z"
             style="fill:#000000;fill-opacity:1;fill-rule:nonzero;stroke:none"
             id="path15594" />
        </g>
        <g
           id="g15596"
           transform="translate(498.9354,23.9185)">
          <path
             inkscape:connector-curvature="0"
             d="m 0,0 c 0,1.434 -0.641,2.151 -1.922,2.151 l -1.62,0 0,-6.43 1.62,0 C -0.641,-4.279 0,-3.562 0,-2.128 L 0,0 z m -1.866,-5.245 -2.178,0 c -0.142,0 -0.261,0.05 -0.358,0.149 -0.097,0.1 -0.145,0.223 -0.145,0.368 l 0,7.35 c 0,0.138 0.048,0.259 0.145,0.363 0.097,0.103 0.216,0.155 0.358,0.155 l 2.178,0 c 1.914,0 2.871,-1.043 2.871,-3.129 l 0,-2.15 c 0,-2.071 -0.957,-3.106 -2.871,-3.106"
             style="fill:#000000;fill-opacity:1;fill-rule:nonzero;stroke:none"
             id="path15598" />
        </g>
        <g
           id="g15600"
           transform="translate(503.2812,25.7358)">
          <path
             inkscape:connector-curvature="0"
             d="m 0,0 c -0.089,-0.146 -0.201,-0.219 -0.335,-0.219 -0.105,0 -0.196,0.039 -0.274,0.115 -0.078,0.077 -0.117,0.165 -0.117,0.265 0,0.069 0.015,0.13 0.044,0.184 l 0.838,1.587 c 0.09,0.169 0.216,0.253 0.38,0.253 0.067,0 0.138,-0.019 0.213,-0.057 C 0.897,2.043 0.972,1.917 0.972,1.748 0.972,1.671 0.953,1.602 0.916,1.541 L 0,0 z m 1.329,-3.474 c 0,0.974 -0.406,1.461 -1.217,1.461 -0.835,0 -1.252,-0.487 -1.252,-1.461 l 0,-0.195 2.469,0 0,0.195 z m 0.95,-0.598 c 0,-0.261 -0.123,-0.391 -0.369,-0.391 l -3.05,0 0,-0.31 c 0,-0.997 0.421,-1.496 1.263,-1.496 0.536,0 1.001,0.108 1.396,0.322 0.052,0.031 0.108,0.046 0.168,0.046 0.112,0 0.205,-0.046 0.279,-0.138 0.075,-0.092 0.112,-0.195 0.112,-0.31 0,-0.161 -0.075,-0.284 -0.223,-0.368 -0.507,-0.276 -1.095,-0.414 -1.766,-0.414 -0.752,0 -1.318,0.241 -1.698,0.724 -0.335,0.422 -0.502,0.993 -0.502,1.714 l 0,1.07 c 0,0.721 0.171,1.292 0.513,1.714 0.388,0.483 0.95,0.724 1.687,0.724 0.767,0 1.337,-0.241 1.71,-0.724 0.32,-0.407 0.48,-0.97 0.48,-1.691 l 0,-0.472 z"
             style="fill:#000000;fill-opacity:1;fill-rule:nonzero;stroke:none"
             id="path15602" />
        </g>
        <g
           id="g15604"
           transform="translate(510.2187,22.285)">
          <path
             inkscape:connector-curvature="0"
             d="M 0,0 C 0,0.928 -0.41,1.392 -1.229,1.392 -1.624,1.392 -2,1.231 -2.357,0.909 l 0,-3.186 c 0.335,-0.353 0.722,-0.529 1.162,-0.529 0.797,0 1.195,0.517 1.195,1.552 L 0,0 z m -1.028,-3.681 c -0.506,0 -0.95,0.15 -1.329,0.449 l 0,-1.978 c 0,-0.146 -0.049,-0.267 -0.146,-0.363 -0.096,-0.095 -0.212,-0.143 -0.346,-0.143 -0.134,0 -0.248,0.048 -0.341,0.143 -0.093,0.096 -0.139,0.217 -0.139,0.363 l 0,5.981 c 0,0.368 -0.105,0.609 -0.313,0.724 -0.127,0.069 -0.19,0.181 -0.19,0.334 0,0.291 0.16,0.437 0.481,0.437 0.215,0 0.413,-0.081 0.592,-0.242 0.074,-0.069 0.145,-0.157 0.212,-0.264 0.454,0.337 0.942,0.506 1.463,0.506 1.378,0 2.067,-0.775 2.067,-2.323 l 0,-1.047 c 0,-1.718 -0.67,-2.577 -2.011,-2.577"
             style="fill:#000000;fill-opacity:1;fill-rule:nonzero;stroke:none"
             id="path15606" />
        </g>
        <g
           id="g15608"
           transform="translate(515.4359,21.2729)">
          <path
             inkscape:connector-curvature="0"
             d="m 0,0 -1.173,0 c -0.79,0 -1.184,-0.299 -1.184,-0.897 l 0,-0.092 c 0,-0.598 0.383,-0.897 1.15,-0.897 0.805,0 1.207,0.402 1.207,1.207 L 0,0 z m 0.994,-2.669 c -0.231,0 -0.424,0.081 -0.581,0.242 -0.089,0.069 -0.163,0.184 -0.223,0.345 -0.35,-0.391 -0.872,-0.587 -1.564,-0.587 -0.663,0 -1.162,0.162 -1.497,0.484 -0.306,0.299 -0.458,0.701 -0.458,1.208 l 0,0.092 c 0,0.505 0.163,0.904 0.491,1.196 0.373,0.314 0.894,0.471 1.564,0.471 l 1.274,0 0,0.276 c 0,0.491 -0.075,0.836 -0.223,1.035 -0.172,0.231 -0.481,0.346 -0.928,0.346 -0.417,0 -0.797,-0.097 -1.139,-0.288 -0.082,-0.046 -0.16,-0.069 -0.235,-0.069 -0.119,0 -0.218,0.044 -0.296,0.132 -0.078,0.088 -0.117,0.19 -0.117,0.305 0,0.146 0.067,0.264 0.201,0.356 0.417,0.269 0.964,0.403 1.642,0.403 0.76,0 1.303,-0.195 1.631,-0.587 0.291,-0.36 0.436,-0.935 0.436,-1.725 l 0,-2.139 c 0,-0.361 0.104,-0.602 0.313,-0.725 0.126,-0.084 0.19,-0.195 0.19,-0.333 0,-0.292 -0.16,-0.438 -0.481,-0.438"
             style="fill:#000000;fill-opacity:1;fill-rule:nonzero;stroke:none"
             id="path15610" />
        </g>
        <g
           id="g15612"
           transform="translate(520.9324,23.5158)">
          <path
             inkscape:connector-curvature="0"
             d="m 0,0 c -0.06,0.008 -0.123,0.017 -0.19,0.029 -0.067,0.011 -0.132,0.021 -0.195,0.029 -0.064,0.007 -0.118,0.011 -0.162,0.011 -0.686,0 -1.099,-0.349 -1.241,-1.046 l 0,-3.428 c 0,-0.146 -0.048,-0.267 -0.145,-0.363 -0.097,-0.095 -0.212,-0.143 -0.346,-0.143 -0.134,0 -0.25,0.05 -0.346,0.149 -0.097,0.1 -0.146,0.219 -0.146,0.357 l 0,3.876 c 0,0.36 -0.115,0.602 -0.346,0.725 -0.127,0.069 -0.19,0.18 -0.19,0.333 0,0.291 0.16,0.437 0.481,0.437 0.081,0 0.134,-0.004 0.156,-0.011 0.365,-0.1 0.614,-0.338 0.748,-0.713 0.365,0.529 0.879,0.793 1.542,0.793 0.306,0 0.555,-0.046 0.749,-0.138 C 0.525,0.813 0.603,0.679 0.603,0.494 0.603,0.357 0.559,0.238 0.469,0.138 0.38,0.038 0.272,-0.011 0.145,-0.011 0.108,-0.011 0.06,-0.008 0,0"
             style="fill:#000000;fill-opacity:1;fill-rule:nonzero;stroke:none"
             id="path15614" />
        </g>
        <g
           id="g15616"
           transform="translate(524.9823,18.8115)">
          <path
             inkscape:connector-curvature="0"
             d="m 0,0 c -0.086,-0.092 -0.192,-0.138 -0.318,-0.138 l -0.336,0 c -0.73,0 -1.247,0.226 -1.553,0.679 -0.26,0.398 -0.39,1 -0.39,1.805 l 0,2.462 -0.325,0 c -0.119,0 -0.219,0.042 -0.301,0.126 -0.082,0.085 -0.123,0.184 -0.123,0.299 0,0.123 0.041,0.226 0.123,0.311 0.082,0.084 0.182,0.126 0.301,0.126 l 0.325,0 0,1.185 c 0,0.138 0.048,0.257 0.145,0.357 0.096,0.099 0.212,0.149 0.346,0.149 0.134,0 0.248,-0.05 0.341,-0.149 0.093,-0.1 0.139,-0.219 0.139,-0.357 l 0,-1.185 1.04,0 c 0.118,0 0.219,-0.042 0.301,-0.126 0.082,-0.085 0.123,-0.188 0.123,-0.311 0,-0.115 -0.041,-0.214 -0.123,-0.299 C -0.367,4.85 -0.468,4.808 -0.586,4.808 l -1.04,0 0,-2.45 c 0,-0.598 0.071,-1.008 0.213,-1.231 0.141,-0.23 0.432,-0.345 0.871,-0.345 l 0.224,0 C -0.192,0.782 -0.086,0.738 0,0.65 0.085,0.562 0.128,0.452 0.128,0.322 0.128,0.199 0.085,0.092 0,0"
             style="fill:#000000;fill-opacity:1;fill-rule:nonzero;stroke:none"
             id="path15618" />
        </g>
        <g
           id="g15620"
           transform="translate(529.1549,22.2621)">
          <path
             inkscape:connector-curvature="0"
             d="M 0,0 C 0,0.974 -0.406,1.461 -1.218,1.461 -2.052,1.461 -2.469,0.974 -2.469,0 l 0,-0.195 2.469,0 L 0,0 z m 0.949,-0.598 c 0,-0.261 -0.122,-0.391 -0.368,-0.391 l -3.05,0 0,-0.311 c 0,-0.997 0.421,-1.495 1.262,-1.495 0.537,0 1.002,0.107 1.397,0.322 0.052,0.031 0.108,0.046 0.168,0.046 0.111,0 0.204,-0.046 0.279,-0.138 0.074,-0.092 0.111,-0.196 0.111,-0.31 0,-0.161 -0.074,-0.284 -0.223,-0.368 -0.507,-0.277 -1.095,-0.415 -1.765,-0.415 -0.752,0 -1.318,0.242 -1.698,0.725 -0.335,0.422 -0.503,0.993 -0.503,1.714 l 0,1.07 c 0,0.72 0.171,1.291 0.514,1.713 0.387,0.483 0.95,0.725 1.687,0.725 0.767,0 1.337,-0.242 1.709,-0.725 0.32,-0.406 0.48,-0.97 0.48,-1.69 l 0,-0.472 z"
             style="fill:#000000;fill-opacity:1;fill-rule:nonzero;stroke:none"
             id="path15622" />
        </g>
        <g
           id="g15624"
           transform="translate(538.8742,18.7482)">
          <path
             inkscape:connector-curvature="0"
             d="m 0,0 c -0.097,-0.096 -0.212,-0.144 -0.346,-0.144 -0.134,0 -0.25,0.048 -0.347,0.144 -0.096,0.096 -0.145,0.217 -0.145,0.362 l 0,3.244 c 0,0.828 -0.343,1.242 -1.028,1.242 -0.611,0 -1.043,-0.245 -1.296,-0.736 0.008,-0.084 0.013,-0.159 0.017,-0.224 0.004,-0.065 0.006,-0.125 0.006,-0.179 l 0,-3.347 C -3.139,0.217 -3.188,0.096 -3.284,0 -3.381,-0.096 -3.497,-0.144 -3.631,-0.144 -3.765,-0.144 -3.88,-0.096 -3.977,0 -4.074,0.096 -4.122,0.217 -4.122,0.362 l 0,3.244 c 0,0.828 -0.343,1.242 -1.028,1.242 -0.596,0 -1.021,-0.222 -1.274,-0.667 l 0,-3.819 c 0,-0.145 -0.048,-0.266 -0.145,-0.362 -0.097,-0.096 -0.212,-0.144 -0.346,-0.144 -0.134,0 -0.25,0.05 -0.347,0.15 -0.097,0.099 -0.145,0.218 -0.145,0.356 l 0,3.877 c 0,0.36 -0.116,0.601 -0.346,0.724 -0.127,0.069 -0.19,0.18 -0.19,0.334 0,0.291 0.16,0.437 0.48,0.437 0.209,0 0.41,-0.081 0.603,-0.242 0.105,-0.107 0.183,-0.218 0.235,-0.333 0.417,0.429 0.979,0.644 1.687,0.644 0.722,0 1.225,-0.253 1.508,-0.759 0.41,0.506 0.998,0.759 1.765,0.759 1.207,0 1.81,-0.698 1.81,-2.094 l 0,-3.347 C 0.145,0.217 0.097,0.096 0,0"
             style="fill:#000000;fill-opacity:1;fill-rule:nonzero;stroke:none"
             id="path15626" />
        </g>
        <g
           id="g15628"
           transform="translate(543.7339,22.2621)">
          <path
             inkscape:connector-curvature="0"
             d="M 0,0 C 0,0.974 -0.406,1.461 -1.218,1.461 -2.052,1.461 -2.469,0.974 -2.469,0 l 0,-0.195 2.469,0 L 0,0 z m 0.95,-0.598 c 0,-0.261 -0.123,-0.391 -0.369,-0.391 l -3.05,0 0,-0.311 c 0,-0.997 0.421,-1.495 1.262,-1.495 0.537,0 1.002,0.107 1.397,0.322 0.052,0.031 0.108,0.046 0.168,0.046 0.111,0 0.204,-0.046 0.279,-0.138 0.074,-0.092 0.112,-0.196 0.112,-0.31 0,-0.161 -0.075,-0.284 -0.224,-0.368 -0.507,-0.277 -1.095,-0.415 -1.765,-0.415 -0.752,0 -1.318,0.242 -1.698,0.725 -0.335,0.422 -0.503,0.993 -0.503,1.714 l 0,1.07 c 0,0.72 0.171,1.291 0.514,1.713 0.387,0.483 0.949,0.725 1.687,0.725 0.767,0 1.337,-0.242 1.709,-0.725 0.32,-0.406 0.481,-0.97 0.481,-1.69 l 0,-0.472 z"
             style="fill:#000000;fill-opacity:1;fill-rule:nonzero;stroke:none"
             id="path15630" />
        </g>
        <g
           id="g15632"
           transform="translate(550.275,18.7482)">
          <path
             inkscape:connector-curvature="0"
             d="m 0,0 c -0.093,-0.096 -0.211,-0.144 -0.352,-0.144 -0.134,0 -0.248,0.048 -0.341,0.144 -0.093,0.096 -0.139,0.217 -0.139,0.362 l 0,3.244 c 0,0.406 -0.071,0.705 -0.213,0.897 -0.171,0.23 -0.454,0.345 -0.849,0.345 -0.633,0 -1.083,-0.241 -1.351,-0.725 l 0,-3.761 c 0,-0.145 -0.049,-0.266 -0.146,-0.362 -0.097,-0.096 -0.212,-0.144 -0.346,-0.144 -0.134,0 -0.25,0.05 -0.346,0.15 -0.097,0.099 -0.146,0.218 -0.146,0.356 l 0,3.877 c 0,0.36 -0.115,0.601 -0.346,0.724 -0.127,0.069 -0.19,0.18 -0.19,0.334 0,0.291 0.16,0.437 0.481,0.437 0.208,0 0.409,-0.081 0.603,-0.242 0.112,-0.115 0.193,-0.241 0.246,-0.379 0.409,0.46 0.99,0.69 1.743,0.69 1.221,0 1.832,-0.702 1.832,-2.105 l 0,-3.336 C 0.14,0.217 0.093,0.096 0,0"
             style="fill:#000000;fill-opacity:1;fill-rule:nonzero;stroke:none"
             id="path15634" />
        </g>
        <g
           id="g15636"
           transform="translate(554.6095,18.8115)">
          <path
             inkscape:connector-curvature="0"
             d="m 0,0 c -0.086,-0.092 -0.192,-0.138 -0.318,-0.138 l -0.336,0 c -0.73,0 -1.247,0.226 -1.553,0.679 -0.26,0.398 -0.39,1 -0.39,1.805 l 0,2.462 -0.325,0 c -0.119,0 -0.219,0.042 -0.301,0.126 -0.082,0.085 -0.123,0.184 -0.123,0.299 0,0.123 0.041,0.226 0.123,0.311 0.082,0.084 0.182,0.126 0.301,0.126 l 0.325,0 0,1.185 c 0,0.138 0.048,0.257 0.145,0.357 0.096,0.099 0.212,0.149 0.346,0.149 0.134,0 0.248,-0.05 0.341,-0.149 0.093,-0.1 0.139,-0.219 0.139,-0.357 l 0,-1.185 1.039,0 c 0.12,0 0.22,-0.042 0.302,-0.126 0.082,-0.085 0.123,-0.188 0.123,-0.311 0,-0.115 -0.041,-0.214 -0.123,-0.299 C -0.367,4.85 -0.467,4.808 -0.587,4.808 l -1.039,0 0,-2.45 c 0,-0.598 0.071,-1.008 0.213,-1.231 0.141,-0.23 0.432,-0.345 0.871,-0.345 l 0.224,0 C -0.192,0.782 -0.086,0.738 0,0.65 0.085,0.562 0.128,0.452 0.128,0.322 0.128,0.199 0.085,0.092 0,0"
             style="fill:#000000;fill-opacity:1;fill-rule:nonzero;stroke:none"
             id="path15638" />
        </g>
        <g
           id="g15640"
           transform="translate(476.9782,29.8892)">
          <path
             inkscape:connector-curvature="0"
             d="m 0,0 c -0.204,-0.204 -0.447,-0.306 -0.729,-0.306 l -5.032,0 c -0.282,0 -0.523,0.102 -0.721,0.306 -0.199,0.204 -0.298,0.457 -0.298,0.759 l 0,9.732 c 0,0.312 0.102,0.576 0.306,0.791 0.203,0.215 0.457,0.323 0.76,0.323 0.303,0 0.559,-0.108 0.768,-0.323 0.209,-0.215 0.314,-0.479 0.314,-0.791 l 0,-8.683 3.903,0 C -0.447,1.808 -0.204,1.706 0,1.501 0.204,1.297 0.306,1.049 0.306,0.759 0.306,0.457 0.204,0.204 0,0"
             style="fill:#000000;fill-opacity:1;fill-rule:nonzero;stroke:none"
             id="path15642" />
        </g>
        <g
           id="g15644"
           transform="translate(482.1279,38.0238)">
          <path
             inkscape:connector-curvature="0"
             d="M 0,0 C -0.241,-0.667 -0.468,-1.331 -0.682,-1.993 -0.896,-2.655 -1.108,-3.33 -1.317,-4.019 l 2.65,0 C 0.925,-2.652 0.481,-1.313 0,0 M 4.366,-7.804 C 4.319,-7.97 4.24,-8.11 4.131,-8.223 4.021,-8.336 3.893,-8.425 3.747,-8.49 3.6,-8.554 3.449,-8.586 3.292,-8.586 c -0.23,0 -0.442,0.067 -0.635,0.201 -0.193,0.135 -0.327,0.358 -0.399,0.67 -0.063,0.291 -0.129,0.581 -0.197,0.872 -0.068,0.29 -0.138,0.575 -0.211,0.855 l -3.684,0 c -0.074,-0.28 -0.144,-0.565 -0.212,-0.855 -0.068,-0.291 -0.133,-0.581 -0.196,-0.872 -0.073,-0.301 -0.204,-0.522 -0.392,-0.662 -0.188,-0.139 -0.392,-0.209 -0.611,-0.209 -0.157,0 -0.308,0.032 -0.455,0.096 -0.146,0.065 -0.272,0.154 -0.376,0.267 -0.105,0.113 -0.18,0.253 -0.227,0.419 -0.047,0.167 -0.045,0.358 0.008,0.574 0.376,1.699 0.809,3.332 1.301,4.898 0.491,1.566 1.034,3.117 1.63,4.656 0.199,0.484 0.421,0.799 0.667,0.945 0.245,0.145 0.488,0.217 0.728,0.217 0.241,0 0.489,-0.072 0.745,-0.217 C 1.032,3.123 1.254,2.808 1.442,2.324 2.048,0.785 2.594,-0.766 3.08,-2.332 3.566,-3.898 3.998,-5.531 4.374,-7.23 4.415,-7.446 4.413,-7.637 4.366,-7.804"
             style="fill:#000000;fill-opacity:1;fill-rule:nonzero;stroke:none"
             id="path15646" />
        </g>
        <g
           id="g15648"
           transform="translate(503.2443,30.4704)">
          <path
             inkscape:connector-curvature="0"
             d="m 0,0 c 0,-0.28 -0.097,-0.522 -0.29,-0.726 -0.194,-0.204 -0.426,-0.307 -0.698,-0.307 -0.282,0 -0.52,0.103 -0.713,0.307 -0.193,0.204 -0.29,0.446 -0.29,0.726 l 0,6.133 -2.132,-4.567 C -4.228,1.35 -4.363,1.186 -4.531,1.073 -4.698,0.96 -4.886,0.904 -5.095,0.904 c -0.199,0 -0.384,0.054 -0.557,0.161 -0.172,0.108 -0.311,0.269 -0.415,0.484 l -2.132,4.584 0,-6.149 c 0,-0.28 -0.097,-0.52 -0.29,-0.718 -0.194,-0.199 -0.426,-0.299 -0.698,-0.299 -0.272,0 -0.504,0.1 -0.697,0.299 -0.194,0.198 -0.29,0.438 -0.29,0.718 l 0,10.007 c 0,0.301 0.099,0.548 0.298,0.742 0.198,0.194 0.439,0.291 0.721,0.291 0.271,0 0.486,-0.052 0.642,-0.154 0.157,-0.102 0.293,-0.272 0.408,-0.508 l 3.026,-6.343 3.057,6.407 c 0.115,0.248 0.261,0.409 0.439,0.485 0.177,0.075 0.365,0.113 0.564,0.113 0.293,0 0.535,-0.103 0.729,-0.307 C -0.097,10.512 0,10.27 0,9.991 L 0,0 z"
             style="fill:#000000;fill-opacity:1;fill-rule:nonzero;stroke:none"
             id="path15650" />
        </g>
        <g
           id="g15652"
           transform="translate(509.1229,38.0238)">
          <path
             inkscape:connector-curvature="0"
             d="M 0,0 C -0.241,-0.667 -0.468,-1.331 -0.682,-1.993 -0.896,-2.655 -1.108,-3.33 -1.317,-4.019 l 2.649,0 C 0.925,-2.652 0.481,-1.313 0,0 M 4.366,-7.804 C 4.319,-7.97 4.24,-8.11 4.131,-8.223 4.021,-8.336 3.893,-8.425 3.747,-8.49 3.6,-8.554 3.449,-8.586 3.292,-8.586 c -0.23,0 -0.442,0.067 -0.635,0.201 -0.193,0.135 -0.327,0.358 -0.4,0.67 -0.062,0.291 -0.128,0.581 -0.196,0.872 -0.068,0.29 -0.138,0.575 -0.211,0.855 l -3.684,0 c -0.074,-0.28 -0.144,-0.565 -0.212,-0.855 -0.068,-0.291 -0.133,-0.581 -0.196,-0.872 -0.073,-0.301 -0.204,-0.522 -0.392,-0.662 -0.188,-0.139 -0.392,-0.209 -0.611,-0.209 -0.157,0 -0.308,0.032 -0.455,0.096 -0.146,0.065 -0.272,0.154 -0.376,0.267 -0.105,0.113 -0.18,0.253 -0.227,0.419 -0.047,0.167 -0.045,0.358 0.007,0.574 0.377,1.699 0.81,3.332 1.302,4.898 0.491,1.566 1.034,3.117 1.63,4.656 0.199,0.484 0.421,0.799 0.666,0.945 0.246,0.145 0.489,0.217 0.729,0.217 0.241,0 0.489,-0.072 0.745,-0.217 C 1.032,3.123 1.254,2.808 1.442,2.324 2.048,0.785 2.594,-0.766 3.08,-2.332 3.566,-3.898 3.998,-5.531 4.374,-7.23 4.415,-7.446 4.413,-7.637 4.366,-7.804"
             style="fill:#000000;fill-opacity:1;fill-rule:nonzero;stroke:none"
             id="path15654" />
        </g>
        <g
           id="g15656"
           transform="translate(521.9776,39.9767)">
          <path
             inkscape:connector-curvature="0"
             d="M 0,0 C -0.397,-0.925 -0.839,-1.891 -1.325,-2.897 -1.811,-3.903 -2.346,-4.96 -2.931,-6.068 l 0,-3.357 c 0,-0.313 -0.105,-0.576 -0.314,-0.791 -0.209,-0.216 -0.465,-0.323 -0.768,-0.323 -0.303,0 -0.559,0.107 -0.768,0.323 -0.209,0.215 -0.314,0.478 -0.314,0.791 l 0,3.34 c -1.16,2.195 -2.132,4.213 -2.916,6.053 -0.073,0.151 -0.109,0.312 -0.109,0.484 0,0.151 0.031,0.29 0.094,0.42 0.062,0.129 0.146,0.242 0.25,0.338 0.105,0.097 0.225,0.173 0.361,0.227 0.136,0.053 0.272,0.08 0.408,0.08 0.188,0 0.365,-0.054 0.533,-0.161 0.167,-0.108 0.297,-0.274 0.392,-0.501 0.303,-0.677 0.627,-1.385 0.971,-2.122 0.345,-0.737 0.722,-1.509 1.129,-2.316 0.408,0.807 0.787,1.582 1.137,2.324 0.35,0.743 0.671,1.453 0.964,2.131 0.094,0.225 0.222,0.39 0.384,0.492 0.162,0.102 0.332,0.153 0.509,0.153 0.272,0 0.523,-0.099 0.753,-0.298 C -0.005,1.019 0.11,0.769 0.11,0.468 0.11,0.317 0.073,0.162 0,0"
             style="fill:#000000;fill-opacity:1;fill-rule:nonzero;stroke:none"
             id="path15658" />
        </g>
        <g
           id="g15660"
           transform="translate(530.302,29.8892)">
          <path
             inkscape:connector-curvature="0"
             d="m 0,0 c -0.199,-0.204 -0.439,-0.306 -0.721,-0.306 l -5.095,0 c -0.282,0 -0.523,0.102 -0.721,0.306 -0.199,0.204 -0.298,0.457 -0.298,0.759 l 0,9.635 c 0,0.291 0.099,0.541 0.298,0.751 0.198,0.21 0.439,0.315 0.721,0.315 l 4.891,0 c 0.282,0 0.522,-0.105 0.721,-0.315 0.199,-0.21 0.298,-0.46 0.298,-0.751 0,-0.29 -0.099,-0.54 -0.298,-0.75 -0.199,-0.21 -0.439,-0.315 -0.721,-0.315 l -3.762,0 0,-2.728 3.401,0 c 0.272,0 0.507,-0.102 0.706,-0.306 0.198,-0.205 0.298,-0.447 0.298,-0.727 0,-0.28 -0.1,-0.519 -0.298,-0.718 C -0.779,4.651 -1.014,4.552 -1.286,4.552 l -3.401,0 0,-2.744 3.966,0 C -0.439,1.808 -0.199,1.706 0,1.501 0.198,1.297 0.298,1.049 0.298,0.759 0.298,0.457 0.198,0.204 0,0"
             style="fill:#000000;fill-opacity:1;fill-rule:nonzero;stroke:none"
             id="path15662" />
        </g>
        <g
           id="g15664"
           transform="translate(540.3269,29.7359)">
          <path
             inkscape:connector-curvature="0"
             d="m 0,0 c -0.193,-0.199 -0.447,-0.298 -0.76,-0.298 -0.481,0 -0.831,0.182 -1.051,0.548 l -4.029,6.892 0,-6.424 c 0,-0.28 -0.096,-0.519 -0.29,-0.718 -0.193,-0.199 -0.425,-0.298 -0.697,-0.298 -0.272,0 -0.505,0.099 -0.698,0.298 -0.193,0.199 -0.29,0.438 -0.29,0.718 l 0,10.007 c 0,0.28 0.091,0.522 0.275,0.726 0.182,0.205 0.441,0.307 0.776,0.307 0.459,0 0.809,-0.194 1.05,-0.581 l 4.013,-6.876 0,6.424 c 0,0.28 0.097,0.522 0.29,0.726 0.193,0.205 0.426,0.307 0.698,0.307 0.271,0 0.506,-0.102 0.705,-0.307 0.199,-0.204 0.298,-0.446 0.298,-0.726 l 0,-10.007 C 0.29,0.438 0.193,0.199 0,0"
             style="fill:#000000;fill-opacity:1;fill-rule:nonzero;stroke:none"
             id="path15666" />
        </g>
        <g
           id="g15668"
           transform="translate(551.0183,29.7359)">
          <path
             inkscape:connector-curvature="0"
             d="m 0,0 c -0.193,-0.199 -0.447,-0.298 -0.76,-0.298 -0.481,0 -0.831,0.182 -1.051,0.548 l -4.028,6.892 0,-6.424 c 0,-0.28 -0.097,-0.519 -0.291,-0.718 -0.193,-0.199 -0.425,-0.298 -0.697,-0.298 -0.272,0 -0.505,0.099 -0.698,0.298 -0.193,0.199 -0.29,0.438 -0.29,0.718 l 0,10.007 c 0,0.28 0.092,0.522 0.275,0.726 0.182,0.205 0.441,0.307 0.776,0.307 0.459,0 0.809,-0.194 1.05,-0.581 l 4.013,-6.876 0,6.424 c 0,0.28 0.097,0.522 0.29,0.726 0.193,0.205 0.426,0.307 0.698,0.307 0.271,0 0.506,-0.102 0.705,-0.307 0.199,-0.204 0.298,-0.446 0.298,-0.726 l 0,-10.007 C 0.29,0.438 0.193,0.199 0,0"
             style="fill:#000000;fill-opacity:1;fill-rule:nonzero;stroke:none"
             id="path15670" />
        </g>
        <g
           id="g15672"
           transform="translate(560.73,29.8892)">
          <path
             inkscape:connector-curvature="0"
             d="m 0,0 c -0.199,-0.204 -0.439,-0.306 -0.721,-0.306 l -5.095,0 c -0.282,0 -0.523,0.102 -0.721,0.306 -0.199,0.204 -0.298,0.457 -0.298,0.759 l 0,9.635 c 0,0.291 0.099,0.541 0.298,0.751 0.198,0.21 0.439,0.315 0.721,0.315 l 4.891,0 c 0.282,0 0.523,-0.105 0.721,-0.315 0.199,-0.21 0.298,-0.46 0.298,-0.751 0,-0.29 -0.099,-0.54 -0.298,-0.75 -0.198,-0.21 -0.439,-0.315 -0.721,-0.315 l -3.762,0 0,-2.728 3.402,0 c 0.271,0 0.506,-0.102 0.705,-0.306 0.198,-0.205 0.298,-0.447 0.298,-0.727 0,-0.28 -0.1,-0.519 -0.298,-0.718 C -0.779,4.651 -1.014,4.552 -1.285,4.552 l -3.402,0 0,-2.744 3.966,0 C -0.439,1.808 -0.199,1.706 0,1.501 0.198,1.297 0.298,1.049 0.298,0.759 0.298,0.457 0.198,0.204 0,0"
             style="fill:#000000;fill-opacity:1;fill-rule:nonzero;stroke:none"
             id="path15674" />
        </g>
        <g
           id="g15676"
           transform="translate(553.7678,60.1124)">
          <path
             inkscape:connector-curvature="0"
             d="m 0,0 c -1.659,-0.53 -2.823,-0.902 -3.988,-1.274 0.017,-0.135 0.034,-0.271 0.052,-0.406 3.01,-0.291 6.021,-0.583 9.032,-0.874 0.043,0.149 0.086,0.299 0.128,0.448 C 1.558,0.228 -2.109,2.562 -5.782,4.9 -4.82,6.388 -3.99,7.675 -3.159,8.962 -6.394,7.683 -8.96,5.653 -11.874,4.518 l -7.545,-4.381 c -6.066,-3.475 -8.537,-5.525 -11.95,-6.578 -0.415,2.317 -0.514,7.096 -0.931,8.937 -1.264,5.587 -5.958,8.974 -13.362,10.384 -6.377,1.215 -12.826,2.232 -19.244,3.335 -8.78,1.509 -16.729,4.158 -23.462,8.712 0.435,-0.401 0.852,-0.814 1.308,-1.202 7.74,-6.589 17.934,-10.133 29.216,-12.319 2.304,-0.448 4.643,-0.804 6.944,-1.26 8.86,-1.76 13.422,-6.298 15.361,-12.517 0.48,-1.538 0.843,-3.106 1.367,-4.633 0.061,-0.007 0.12,-0.014 0.178,-0.02 -0.036,-0.005 -0.072,-0.011 -0.109,-0.016 5.55,-1.019 10.368,1.856 15.03,4.684 2.634,1.597 5.371,3.235 8.285,4.103 C -7.285,2.79 -3.584,2.811 0,0"
             style="fill:#e30613;fill-opacity:1;fill-rule:evenodd;stroke:none"
             id="path15678" />
        </g>
        <g
           id="g15680"
           transform="translate(483.6272,70.4344)">
          <path
             inkscape:connector-curvature="0"
             d="m 0,0 c -4.493,1.024 -9.101,1.905 -13.349,3.331 -3.51,1.178 -6.568,3.06 -9.648,4.543 2.857,-4.089 7.219,-7.51 13.486,-9.252 4.526,-1.257 9.365,-1.95 14.107,-2.766 4.015,-0.691 8.157,-1.027 12.121,-1.833 3.835,-0.782 7.514,-1.965 11.367,-3 -2.459,2.159 -5.498,3.828 -9.031,4.725 C 12.787,-2.66 6.34,-1.444 0,0"
             style="fill:#e30613;fill-opacity:1;fill-rule:evenodd;stroke:none"
             id="path15682" />
        </g>
        <g
           id="g15684"
           transform="translate(482.5116,62.6879)">
          <path
             inkscape:connector-curvature="0"
             d="m 0,0 c -4.197,0.637 -8.214,1.89 -11.977,2.788 3.585,-5.543 10.638,-7.24 19.085,-7.048 2.783,0.064 5.57,0.274 8.346,0.208 3.753,-0.09 7.497,-0.379 11.02,-0.571 -2.426,1.509 -5.765,2.33 -9.247,2.753 C 11.5,-1.175 5.673,-0.862 0,0"
             style="fill:#e30613;fill-opacity:1;fill-rule:evenodd;stroke:none"
             id="path15686" />
        </g>
        <g
           id="g15688"
           transform="translate(568.1152,52.5726)">
          <path
             inkscape:connector-curvature="0"
             d="M 0,0 C -1.894,1.019 -3.749,2.11 -5.603,3.204 L -6.445,2.796 c 2.175,-1.524 4.455,-3.366 6.544,-4.574 -1.135,-2.415 -3.181,-2.27 -5.097,-1.436 -3.594,1.564 -7.177,1.353 -10.903,0.804 -4.737,-0.699 -7.365,1.171 -9.193,5.764 0.161,-1.453 -0.196,-1.671 0.424,-2.93 2.762,-5.613 7.435,-5.456 7.435,-5.456 4.428,0.724 8.3,1.488 12.397,-0.947 1.051,-0.624 3.225,-0.329 4.325,0.394 0.77,0.506 1.021,1.802 1.359,2.966 C 1.468,-1.068 1.521,-0.819 0,0"
             style="fill:#e30613;fill-opacity:1;fill-rule:nonzero;stroke:none"
             id="path15690" />
        </g>
      </g>
    </g>
  </g>
</svg>
