<?xml version="1.0" encoding="UTF-8" standalone="no"?>
<!-- Created with Inkscape (http://www.inkscape.org/) -->

<svg
   xmlns:dc="http://purl.org/dc/elements/1.1/"
   xmlns:cc="http://creativecommons.org/ns#"
   xmlns:rdf="http://www.w3.org/1999/02/22-rdf-syntax-ns#"
   xmlns:svg="http://www.w3.org/2000/svg"
   xmlns="http://www.w3.org/2000/svg"
   xmlns:sodipodi="http://sodipodi.sourceforge.net/DTD/sodipodi-0.dtd"
   xmlns:inkscape="http://www.inkscape.org/namespaces/inkscape"
   id="svg2"
   version="1.1"
   inkscape:version="0.91 r13725"
   xml:space="preserve"
   width="800"
   height="234"
   viewBox="0 0 800 234"
   sodipodi:docname="Logo Gironde 2018.svg"><metadata
     id="metadata8"><rdf:RDF><cc:Work
         rdf:about=""><dc:format>image/svg+xml</dc:format><dc:type
           rdf:resource="http://purl.org/dc/dcmitype/StillImage" /><dc:title></dc:title></cc:Work></rdf:RDF></metadata><defs
     id="defs6" /><sodipodi:namedview
     pagecolor="#ffffff"
     bordercolor="#666666"
     borderopacity="1"
     objecttolerance="10"
     gridtolerance="10"
     guidetolerance="10"
     inkscape:pageopacity="0"
     inkscape:pageshadow="2"
     inkscape:window-width="1440"
     inkscape:window-height="790"
     id="namedview4"
     showgrid="false"
     inkscape:zoom="0.34166667"
     inkscape:cx="1024.3902"
     inkscape:cy="675"
     inkscape:window-x="0"
     inkscape:window-y="1"
     inkscape:window-maximized="1"
     inkscape:current-layer="g10" /><g
     id="g10"
     inkscape:groupmode="layer"
     inkscape:label="Logo Gironde"
     transform="matrix(1.25,0,0,-1.25,0,234)"><g
       id="g4273"
       transform="matrix(0.68571482,0,0,0.68571482,-338.28602,-329.14277)"><g
         id="g4249"><path
           d="m 765.1057,644.6791 c 0,35.521 24.964,61.158 59.984,61.158 27.813,0 48.59,-16.085 53.952,-39.711 l -20.441,-5.192 c -4.357,16.085 -16.588,25.803 -33.511,25.803 -22.452,0 -38.205,-16.924 -38.205,-42.058 0,-25.131 15.753,-41.888 38.205,-41.888 20.774,0 33.511,11.059 33.843,26.475 l -32,0 0,17.423 53.281,0 0,-12.9 c 0,-30.662 -20.944,-50.265 -55.124,-50.265 -35.02,0 -59.984,25.634 -59.984,61.155"
           style="fill:#ed1c24;fill-opacity:1;fill-rule:nonzero;stroke:none"
           id="path26"
           inkscape:connector-curvature="0" /><path
           d="m 894.433,711.199 22.115,0 0,-21.28 -22.115,0 0,21.28 z m 0.839,-36.36 20.774,0 0,-88.802 -20.774,0 0,88.802 z"
           style="fill:#ed1c24;fill-opacity:1;fill-rule:nonzero;stroke:none"
           id="path28"
           inkscape:connector-curvature="0" /><path
           d="m 934.6368,674.8387 19.772,0 0,-8.543 0.333,0 c 6.035,6.367 14.577,10.221 24.968,10.221 5.026,0 9.382,-0.839 14.241,-2.347 l -4.522,-18.934 c -4.693,1.341 -7.878,1.844 -12.568,1.844 -12.903,0 -21.446,-8.713 -21.446,-26.306 l 0,-44.737 -20.778,0 0,88.802 z"
           style="fill:#ed1c24;fill-opacity:1;fill-rule:nonzero;stroke:none"
           id="path30"
           inkscape:connector-curvature="0" /><path
           d="m 995.7806,630.4379 c 0,26.472 20.7784,46.913 49.4304,46.913 28.819,0 49.426,-20.441 49.426,-46.913 0,-26.642 -20.607,-46.914 -49.426,-46.914 -28.652,0 -49.4304,20.272 -49.4304,46.914 m 78.0784,0 c 0,16.754 -11.558,28.652 -28.648,28.652 -17.09,0 -28.652,-11.898 -28.652,-28.652 0,-16.754 11.562,-28.652 28.652,-28.652 17.09,0 28.648,11.898 28.648,28.652"
           style="fill:#ed1c24;fill-opacity:1;fill-rule:nonzero;stroke:none"
           id="path32"
           inkscape:connector-curvature="0" /><path
           d="m 1109.696,674.8387 20.105,0 0,-9.216 0.337,0 c 7.205,7.542 18.597,11.729 30.662,11.729 25.3,0 42.39,-16.086 42.39,-39.542 l 0,-51.773 -20.777,0 0,48.591 c 0,15.08 -9.552,24.126 -24.965,24.126 -16.085,0 -26.975,-9.884 -26.975,-24.296 l 0,-48.421 -20.777,0 0,88.802 z"
           style="fill:#ed1c24;fill-opacity:1;fill-rule:nonzero;stroke:none"
           id="path34"
           inkscape:connector-curvature="0" /><path
           d="m 1217.58,630.4379 c 0,26.808 19.939,46.913 47.083,46.913 12.398,0 23.457,-3.854 30.663,-10.889 l 0.336,0 0,41.888 20.774,0 0,-122.313 -19.603,0 0,9.382 -0.336,0 c -6.869,-7.708 -17.925,-11.895 -30.995,-11.895 -28.15,0 -47.922,19.437 -47.922,46.914 m 78.082,-5.698 0,11.729 c 0,12.567 -12.737,22.621 -28.319,22.621 -17.423,0 -28.985,-11.562 -28.985,-28.652 0,-17.426 11.392,-28.652 29.154,-28.652 15.749,0 28.15,10.221 28.15,22.954"
           style="fill:#ed1c24;fill-opacity:1;fill-rule:nonzero;stroke:none"
           id="path36"
           inkscape:connector-curvature="0" /><path
           d="m 1331.498,630.1014 c 0,27.813 19.939,47.25 47.752,47.25 28.819,0 47.416,-20.608 47.416,-47.416 l 0,-6.201 -74.56,0 c 0.672,-13.904 11.898,-22.954 28.149,-22.954 12.065,0 20.778,4.859 28.989,15.08 l 13.905,-12.397 c -9.885,-12.734 -23.793,-19.939 -42.727,-19.939 -30.327,0 -48.924,18.431 -48.924,46.577 m 74.727,8.714 c -1.172,12.4 -12.061,21.28 -26.639,21.28 -15.249,0 -25.803,-8.88 -27.144,-21.28 l 53.783,0 z"
           style="fill:#ed1c24;fill-opacity:1;fill-rule:nonzero;stroke:none"
           id="path38"
           inkscape:connector-curvature="0" /></g><g
         id="g4258"><path
           d="m 780.8192,526.5444 0,32.219 6.215,0 0,-26.465 13.303,0 0,-5.754 -19.518,0 z"
           style="fill:#000000;fill-opacity:1;fill-rule:nonzero;stroke:none"
           id="path40"
           inkscape:connector-curvature="0" /><path
           d="m 824.9618,526.5444 0,32.219 20.392,0 0,-5.75 -14.178,0 0,-7.227 12.89,0 0,-5.525 -12.89,0 0,-7.963 14.178,0 0,-5.754 -20.392,0 z"
           style="fill:#000000;fill-opacity:1;fill-rule:nonzero;stroke:none"
           id="path42"
           inkscape:connector-curvature="0" /><path
           d="m 903.5815,526.5444 0,32.219 10.77,0 c 1.84,0 3.574,-0.321 5.202,-0.966 1.624,-0.644 3.1,-1.596 4.42,-2.852 1.316,-1.26 2.368,-2.938 3.15,-5.04 0.786,-2.102 1.175,-4.505 1.175,-7.205 0,-2.945 -0.4,-5.507 -1.196,-7.687 -0.8,-2.18 -1.887,-3.858 -3.267,-5.04 -1.384,-1.182 -2.877,-2.049 -4.491,-2.601 -1.61,-0.552 -3.366,-0.828 -5.27,-0.828 l -10.493,0 z m 6.215,5.754 4.278,0 c 1.105,0 2.071,0.131 2.902,0.39 0.829,0.261 1.61,0.743 2.347,1.451 0.736,0.704 1.302,1.773 1.702,3.199 0.4,1.426 0.598,3.214 0.598,5.362 0,3.592 -0.665,6.207 -2.003,7.849 -1.334,1.642 -3.09,2.464 -5.269,2.464 l -4.555,0 0,-20.715 z"
           style="fill:#000000;fill-opacity:1;fill-rule:nonzero;stroke:none"
           id="path44"
           inkscape:connector-curvature="0" /><path
           d="m 953.8466,526.5444 0,32.219 20.392,0 0,-5.75 -14.177,0 0,-7.227 12.885,0 0,-5.525 -12.885,0 0,-7.963 14.177,0 0,-5.754 -20.392,0 z m 6.997,35.214 3.727,5.754 6.352,0 -5.064,-5.754 -5.015,0 z"
           style="fill:#000000;fill-opacity:1;fill-rule:nonzero;stroke:none"
           id="path46"
           inkscape:connector-curvature="0" /><path
           d="m 1000.704,526.5444 0,32.219 13.073,0 c 3.281,0 5.953,-0.927 8.009,-2.782 2.053,-1.857 3.083,-4.352 3.083,-7.481 0,-3.129 -0.991,-5.617 -2.969,-7.457 -1.979,-1.84 -4.686,-2.76 -8.123,-2.76 l -6.858,0 0,-11.739 -6.215,0 z m 6.215,17.49 6.766,0 c 1.38,0 2.513,0.407 3.405,1.221 0.888,0.814 1.334,1.893 1.334,3.245 0,1.564 -0.453,2.708 -1.359,3.429 -0.902,0.722 -2.031,1.084 -3.38,1.084 l -6.766,0 0,-8.979 z"
           style="fill:#000000;fill-opacity:1;fill-rule:nonzero;stroke:none"
           id="path48"
           inkscape:connector-curvature="0" /><path
           d="m 1065.422,526.5444 -1.841,5.294 -12.29,0 -1.841,-5.294 -6.168,0 11.643,32.219 5.295,0 11.6,-32.219 -6.398,0 z m -8.009,23.014 -4.374,-12.567 8.791,0 -4.325,12.567 -0.092,0 z"
           style="fill:#000000;fill-opacity:1;fill-rule:nonzero;stroke:none"
           id="path50"
           inkscape:connector-curvature="0" /><path
           d="m 1095.985,526.5444 0,32.219 13.07,0 c 3.316,0 5.991,-0.927 8.034,-2.782 2.038,-1.857 3.061,-4.352 3.061,-7.481 0,-2.332 -0.606,-4.311 -1.819,-5.938 -1.214,-1.625 -2.878,-2.778 -4.994,-3.451 l 6.859,-12.567 -6.721,0 -6.491,11.969 -4.788,0 0,-11.969 -6.211,0 z m 6.211,17.352 6.353,0 c 3.528,0 5.294,1.536 5.294,4.604 0,3.1 -1.766,4.65 -5.294,4.65 l -6.353,0 0,-9.254 z"
           style="fill:#000000;fill-opacity:1;fill-rule:nonzero;stroke:none"
           id="path52"
           inkscape:connector-curvature="0" /><path
           d="m 1151.725,526.5444 0,26.469 -9.435,0 0,5.75 25.088,0 0,-5.75 -9.438,0 0,-26.469 -6.215,0 z"
           style="fill:#000000;fill-opacity:1;fill-rule:nonzero;stroke:none"
           id="path54"
           inkscape:connector-curvature="0" /><path
           d="m 1191.773,526.5444 0,32.219 20.389,0 0,-5.75 -14.178,0 0,-7.227 12.889,0 0,-5.525 -12.889,0 0,-7.963 14.178,0 0,-5.754 -20.389,0 z"
           style="fill:#000000;fill-opacity:1;fill-rule:nonzero;stroke:none"
           id="path56"
           inkscape:connector-curvature="0" /><path
           d="m 1238.63,526.5444 0,32.219 6.395,0 9.347,-20.894 0.092,0 9.343,20.894 6.445,0 0,-32.219 -6.077,0 0,19.794 -0.092,0 -9.159,-19.794 -1.012,0 -9.163,19.794 -0.092,0 0,-19.794 -6.027,0 z"
           style="fill:#000000;fill-opacity:1;fill-rule:nonzero;stroke:none"
           id="path58"
           inkscape:connector-curvature="0" /><path
           d="m 1297.87,526.5444 0,32.219 20.389,0 0,-5.75 -14.178,0 0,-7.227 12.889,0 0,-5.525 -12.889,0 0,-7.963 14.178,0 0,-5.754 -20.389,0 z"
           style="fill:#000000;fill-opacity:1;fill-rule:nonzero;stroke:none"
           id="path60"
           inkscape:connector-curvature="0" /><path
           d="m 1344.727,526.5444 0,32.219 6.211,0 11.785,-21.124 0.092,0 0,21.124 6.261,0 0,-32.219 -6.123,0 -11.923,21.128 -0.092,0 0,-21.128 -6.211,0 z"
           style="fill:#000000;fill-opacity:1;fill-rule:nonzero;stroke:none"
           id="path62"
           inkscape:connector-curvature="0" /><path
           d="m 1402.906,526.5444 0,26.469 -9.435,0 0,5.75 25.088,0 0,-5.75 -9.439,0 0,-26.469 -6.214,0 z"
           style="fill:#000000;fill-opacity:1;fill-rule:nonzero;stroke:none"
           id="path64"
           inkscape:connector-curvature="0" /></g><g
         id="g4245"><path
           d="m 611.1926,752.1805 -39.291,-22.688 0,-71.838 81.465,-63.742 -81.465,-63.742 0,-27.49 39.291,-22.681 117.858,68.035 0,136.098 -117.858,68.048 z"
           style="fill:#000000;fill-opacity:1;fill-rule:nonzero;stroke:none"
           id="path66"
           inkscape:connector-curvature="0" /><path
           d="m 493.3334,548.0431 32.937,-19.026 84.907,64.897 -117.844,90.219 0,-136.09 z"
           style="fill:#ed1c24;fill-opacity:1;fill-rule:nonzero;stroke:none"
           id="path68"
           inkscape:connector-curvature="0" /></g></g></g></svg>