<?xml version="1.0" encoding="UTF-8" standalone="no"?>
<svg
   xmlns:dc="http://purl.org/dc/elements/1.1/"
   xmlns:cc="http://creativecommons.org/ns#"
   xmlns:rdf="http://www.w3.org/1999/02/22-rdf-syntax-ns#"
   xmlns:svg="http://www.w3.org/2000/svg"
   xmlns="http://www.w3.org/2000/svg"
   xmlns:sodipodi="http://sodipodi.sourceforge.net/DTD/sodipodi-0.dtd"
   xmlns:inkscape="http://www.inkscape.org/namespaces/inkscape"
   viewBox="0 0 700.00001 457.00001"
   height="457"
   width="700"
   xml:space="preserve"
   version="1.1"
   id="svg2"
   inkscape:version="0.91 r13725"
   sodipodi:docname="Logo DeÌpartement Essonne.svg"><sodipodi:namedview
     pagecolor="#ffffff"
     bordercolor="#666666"
     borderopacity="1"
     objecttolerance="10"
     gridtolerance="10"
     guidetolerance="10"
     inkscape:pageopacity="0"
     inkscape:pageshadow="2"
     inkscape:window-width="1440"
     inkscape:window-height="790"
     id="namedview36"
     showgrid="false"
     inkscape:zoom="0.5125"
     inkscape:cx="68.292683"
     inkscape:cy="163.605"
     inkscape:window-x="0"
     inkscape:window-y="1"
     inkscape:window-maximized="1"
     inkscape:current-layer="svg2" /><metadata
     id="metadata8"><rdf:RDF><cc:Work
         rdf:about=""><dc:format>image/svg+xml</dc:format><dc:type
           rdf:resource="http://purl.org/dc/dcmitype/StillImage" /><dc:title></dc:title></cc:Work></rdf:RDF></metadata><defs
     id="defs6" /><g
     id="g4651"
     transform="matrix(1,0,0,0.99980695,0,129.85319)"><path
       inkscape:connector-curvature="0"
       id="path4383"
       style="fill:#00a9d4;fill-opacity:1;fill-rule:nonzero;stroke:none"
       d="m 700,252.45033 -698.7131461,0 0,-310.50402 L 700,-129.79002 l 0,382.24035" /><g
       id="g4566"><path
         d="m 551.5,61.572053 c -6.07689,6.502502 -11.27284,17.107668 -11.27872,33.815363 0,0.420559 0,0.839649 0.006,1.282266 27.16365,-8.108276 39.18801,-24.088079 39.08359,-33.974176 -0.0926,-5.190825 -2.88255,-8.711176 -9.03592,-9.624349 l -0.35443,-0.09411 c -0.29267,-0.126462 -0.86771,-0.252924 -1.65012,-0.252924 -0.0191,0 -0.0294,0 -0.0456,0 -3.58995,0 -10.69927,2.371899 -16.72469,8.847932 z m 95.22719,73.709727 c -1.74424,-0.97641 -5.93865,-1.39697 -11.50668,-1.37638 -7.42846,0 -17.39826,0.59849 -28.45785,0.59849 -25.55325,-0.0103 -57.13191,-3.11155 -77.35243,-24.58951 -4.25617,0.99699 -8.47411,1.49401 -12.50086,1.49401 -13.7539,0 -25.59001,-5.69373 -29.2182,-16.272428 -0.3515,-0.786712 -0.48974,-0.733774 -1.14273,-0.802887 -0.44268,-0.01029 -1.0339,0.141167 -1.47952,0.310273 -0.27207,0.104405 -0.47209,0.21028 -0.58974,0.261747 -4.56355,4.167366 -8.35352,8.175915 -11.00518,11.146305 -2.68107,3.01303 -4.17823,4.93202 -4.18411,4.94378 l -0.36914,0.47203 -0.59563,0.0427 c -0.48092,0.047 -0.95889,0.0618 -1.40892,0.0618 -4.90182,0 -7.4564,-2.71894 -7.47405,-5.20553 0,-0.3838 0.0603,-0.76613 0.20884,-1.12199 l 0.0235,-0.047 0.0397,-0.0588 c 4.57531,-8.647948 9.91686,-18.513458 10.71397,-19.983947 0.0132,-0.08823 0.0132,-0.161753 0.0132,-0.24116 0,-0.261747 -0.0809,-0.388209 -0.12207,-0.429383 0,-0.03235 -0.006,-0.03235 -0.0191,-0.03235 0,0.01176 0,-0.0088 -0.0426,0.03235 -0.0544,0.03088 -0.16471,0.136756 -0.29119,0.345565 l -0.0897,0.147049 -0.125,0.136756 c -20.322,20.61331 -34.6024,23.96162 -34.83918,24.01897 l -0.14119,0.0309 -0.16472,0 c -2.97815,-0.0162 -5.63715,-1.50579 -7.59464,-3.25861 -1.93837,-1.80429 -3.31788,-3.68357 -3.40465,-5.65697 0,-16.184199 2.34869,-29.90092 2.62224,-31.391996 -0.0294,-0.461733 -0.15295,-0.713187 -0.22649,-0.798475 -0.0912,-0.09264 -0.0735,-0.06176 -0.11765,-0.08235 -0.0574,-0.01029 -0.46033,0.07352 -0.92065,0.817591 l -0.12648,0.199987 -0.18678,0.147049 c -25.1591,19.908949 -39.31155,33.905064 -45.21196,41.016354 -1.96043,2.32925 -3.01197,4.03502 -3.14139,4.50116 l -0.50592,0.68231 c -2.73254,1.89987 -4.64297,3.08656 -6.51516,3.16008 -0.60886,0.0147 -1.35744,-0.19999 -1.85895,-0.77789 -0.49268,-0.56467 -0.62651,-1.24697 -0.62651,-1.87781 0.0338,-1.63666 0.80005,-3.62035 2.2928,-6.57015 9.04181,-24.879202 23.49281,-46.420394 30.46976,-57.891678 2.32516,-3.762981 3.81938,-6.637787 3.90174,-7.473025 l 0.006,-0.08382 0.0294,-0.08529 c 0.93536,-3.136553 1.44716,-6.192229 1.44716,-9.036154 -0.0279,-6.212816 -2.33252,-11.471284 -8.2594,-15.438663 -5.97688,-3.965909 -15.78344,-6.506914 -30.60212,-6.49662 -0.26178,0 -0.52356,0 -0.78388,0 -4.315,1.570482 -7.31668,2.22632 -9.37418,2.22632 -0.78387,0 -1.44716,-0.09117 -2.08838,-0.38968 -0.63092,-0.245571 -1.29714,-1.048458 -1.26185,-1.888107 0,-0.157343 0.0177,-0.294098 0.0441,-0.441147 l 0.025,-0.05294 0.003,-0.04706 c 1.09272,-3.7835682 1.59275,-6.1760537 2.28986,-7.9553452 0.62357,-1.789585 1.90454,-3.1336119 3.71643,-3.62622567 1.18832,-0.36762222 2.58254,-0.55143334 4.57091,-0.78671156 1.70453,-0.0999932 3.37523,-0.16763573 5.01211,-0.16763573 25.59295,0 41.4514,12.60356016 47.17239,25.54533316 l 0.11177,0.445558 c 0.20737,2.933625 0.30002,5.426104 0.30002,7.562725 -0.0177,8.57442 -1.38833,11.16101 -1.98102,11.963897 -20.55289,31.864024 -26.15328,44.611692 -27.49896,48.162923 27.28865,-28.536307 43.95746,-38.628273 44.07217,-38.690033 l 0.1809,-0.122051 0.21325,-0.04117 c 0.36473,-0.08382 0.71622,-0.126462 1.05007,-0.126462 2.3634,0.01176 3.62525,1.905754 4.1047,3.264486 0.53974,1.432256 0.60298,2.713052 0.6118,2.792458 l 0.0103,0.198516 -0.0441,0.204398 c -2.68695,10.909557 -4.52385,20.355978 -4.51208,26.879067 -0.0132,3.290954 0.47944,5.814313 1.37804,7.325975 0.91624,1.495488 1.98837,2.167501 4.0694,2.208675 1.56481,0 3.68407,-0.502907 6.32985,-1.677828 11.55374,-10.291952 20.58966,-18.126717 27.46514,-23.442534 6.9593,-5.305524 11.45814,-8.171507 14.97309,-8.274441 1.00301,0 2.02073,0.323507 2.75755,1.038165 0.72946,0.702894 1.12213,1.648418 1.31332,2.692465 l 0.0162,0.424972 c -0.66034,5.215824 -3.07521,10.159607 -4.57826,12.840309 2.24722,0.158812 3.76938,0.608782 4.993,1.433726 1.60011,1.11169 2.29133,2.529241 3.40758,4.051197 l 0.0426,0.05735 0.0206,0.03676 c 2.9708,5.027602 5.36655,8.762644 8.405,11.146306 3.0458,2.392486 6.83871,3.6674 13.14944,3.68358 3.18846,0 7.01225,-0.34116 11.61551,-1.04993 2.14721,-38.254773 25.65913,-55.394791 43.16623,-55.405085 8.96091,-0.05294 16.63351,4.707035 18.21597,13.44468 0.26031,1.542543 0.39414,3.043912 0.39414,4.529106 -0.004,10.447824 -6.24749,19.085475 -14.01273,25.7762 -7.78584,6.7069 -17.20267,11.571279 -24.08697,14.499019 -3.23993,1.36462 -5.83423,2.29397 -7.57258,2.80275 4.05175,7.54508 14.79367,12.45799 28.91965,15.28132 14.95692,3.01157 33.48468,3.78357 51.10943,3.78357 8.51235,0 16.82616,-0.18381 24.42963,-0.35144 l 0.49415,0.0838 c 2.41488,0.80877 3.60467,2.88069 3.54143,4.71733 -0.0162,1.53813 -0.59122,2.94392 -1.31627,4.04091 -0.79123,1.03963 -1.47216,1.9881 -3.00903,2.12485 0,0 -0.0118,0 -0.0162,0 -0.30591,0 -0.65299,-0.0735 -0.90889,-0.2191"
         style="fill:#ffffff;fill-opacity:1;fill-rule:nonzero;stroke:none"
         id="path4385"
         inkscape:connector-curvature="0" /><path
         d="m 306.10652,-20.595926 0,0 z m 14.08921,119.268414 c 4.91799,0.04853 10.27424,-3.965909 14.28334,-9.371426 4.02675,-5.35258 6.65046,-12.018306 6.63281,-16.351837 0,-1.019048 -0.14265,-1.883696 -0.38385,-2.571885 -2.51488,-4.84379 -4.64002,-8.490603 -5.76657,-10.380181 -15.16723,14.394616 -22.54127,23.299897 -22.39714,29.739168 0.009,2.760107 1.20008,5.305524 3.89144,8.170036 1.25009,0.530847 2.49282,0.766125 3.73997,0.766125 z M 255.41035,120.0681 c 0.38533,0.0573 1.30598,-0.57349 1.62659,-0.96023 0.0294,-0.0221 0.0544,-0.0515 0.0706,-0.0632 3.82085,-7.25245 5.89453,-12.56239 6.83136,-16.2989 -5.92835,9.09939 -8.68737,14.1314 -9.21241,15.90481 -0.0544,0.1941 -0.0853,0.29851 -0.0985,0.35733 0.0368,0.15293 0.0441,0.28969 0.0441,0.46761 0,0.0573 0,0.13676 0,0.20293 0.37355,0.36762 0.54268,0.37351 0.73828,0.38968 z m -11.84052,11.91831 -0.1456,-0.21028 -0.0588,-0.23086 c -0.19266,-0.77348 -0.35738,-1.84841 -0.35738,-3.27625 0.0103,-6.34369 3.23994,-19.45751 22.06918,-42.169212 0.0191,-0.07352 0.05,-0.188223 0.0809,-0.335272 0.1206,-0.504377 0.30002,-1.396964 0.51768,-2.896863 0.42503,-3.013032 1.01331,-8.465605 1.61335,-18.141421 3.66202,-35.443194 9.53154,-55.4624303 16.25995,-67.6263145 6.65487,-12.0918305 14.31129,-16.3268385 20.82792,-19.7942515 0.38826,-0.322037 1.31773,-0.894057 2.7443,-0.888175 3.8135,0.09999 9.89481,3.401241 20.26023,20.8397688 l 0.30443,0.4970253 -0.16324,0.5617267 c -0.49121,1.74252937 -1.03684,3.1806675 -1.68688,4.2879457 -0.64858,1.0440471 -1.44863,2.0410386 -2.90021,2.108681 -0.82064,0 -1.5251,-0.4352647 -2.01337,-0.9543473 -0.4515,-0.4984957 -0.80741,-1.0969847 -1.14861,-1.8425225 -0.0691,-0.072054 -0.18089,-0.1735177 -0.31767,-0.3190961 -0.37208,-0.3529174 -1.02654,-0.93964245 -2.09132,-1.81605383 C 315.21013,-1.9618906 311.3731,-4.8631652 304.6844,-9.386389 l -0.0824,-0.048526 -0.0809,-0.083818 c -0.0485,-0.026469 -10e-4,-0.026469 -0.13677,-0.036762 -0.48239,-0.1411669 -2.78402,1.2278583 -5.26066,4.5658681 -2.52518,3.2953656 -5.49009,8.3538474 -8.49177,15.2180889 -5.98865,13.665254 -12.09789,34.46679 -15.37753,62.74135 0.0162,0.04264 0.0368,0.07941 0.0441,0.126462 0.0368,0.104405 0.0779,0.188223 0.1103,0.235279 0.0162,-0.0044 0.0368,-0.0044 0.0603,-0.01471 2.77666,-2.882159 11.05518,-10.600755 20.83821,-17.847324 9.96687,-7.325976 21.30442,-14.200511 30.36828,-14.725476 2.07514,-1.26462 4.40619,-2.220438 6.79312,-2.235143 3.28846,-0.075 6.42986,2.188087 7.77113,6.962765 l 0.11765,0.430853 -0.15295,0.419089 c -0.004,0.03235 -0.0177,0.105876 -0.0324,0.204398 -0.0427,0.195575 -0.0838,0.561727 -0.0838,1.055811 0,2.161619 0.82065,7.209808 6.67253,15.648943 l 0.12942,0.20881 c 2.70754,5.909895 4.03263,11.509516 4.03263,16.656228 0.0206,17.160605 -14.73191,28.558373 -37.93646,29.398023 l -0.40591,-0.0735 -0.37502,-0.13675 c -7.72848,-4.82762 -12.30233,-9.855226 -12.28909,-17.148851 0.0603,-9.089092 6.66223,-20.811829 20.37936,-40.626667 l 0.60298,-0.798476 c -1.606,-0.105875 -7.14756,2.545417 -15.24665,8.778819 -8.11379,6.155467 -19.1175,15.748936 -32.94346,29.418601 -0.53533,3.474765 -4.4959,25.404174 -17.62475,43.504424 l -0.81623,0.92934 c -1.40598,1.41461 -3.46642,2.76305 -5.80923,2.84246 -2.10014,-0.0309 -3.93998,-1.42196 -5.88864,-4.19678"
         style="fill:#ffffff;fill-opacity:1;fill-rule:nonzero;stroke:none"
         id="path4387"
         inkscape:connector-curvature="0" /><path
         d="m 235.30749,39.447077 c -0.66622,-0.970523 -1.32215,-6.590731 4.60326,-18.711971 1.62217,0.96464 0.65887,7.567135 -4.60326,18.711971 z M 246.36855,4.7038356 c -0.66328,-1.852816 -1.91778,-3.4644718 -3.91792,-3.4968226 -1.38833,0.016175 -2.58694,0.7720067 -3.7282,1.9528093 l -0.0294,0.036762 -0.0103,0 C 219.15637,25.068636 217.88864,53.947568 217.86216,62.117604 c 0,0.588196 0.0103,1.092573 0.0191,1.458725 -50.63733,34.309447 -101.95118,62.253151 -137.809552,62.201681 -5.660687,0 -10.919875,-0.68819 -15.743739,-2.13074 -2.519292,-1.52637 -3.395823,-3.22772 -3.432591,-5.52021 -0.117655,-5.38935 6.353382,-14.11229 15.686382,-22.760231 9.272702,-8.689119 21.210294,-17.548815 31.72279,-24.333651 24.52082,-10.809563 39.40714,-19.201644 48.24305,-25.729144 8.81237,-6.537794 11.79346,-11.209537 11.84935,-15.081334 0.0103,-2.571885 -1.4854,-4.387939 -2.91932,-5.405517 -1.39127,-0.986698 -2.66783,-1.421963 -3.43259,-1.574894 l -0.78976,-0.261747 c -9.1624,-2.488067 -22.15889,-3.264485 -33.24054,-3.264485 -5.24301,0 -10.0507,0.169106 -13.8039,0.441146 -3.40024,0.251454 -5.81364,0.519083 -7.22403,0.907292 -1.70159,-0.402914 -2.84432,-0.923467 -3.48995,-1.420492 -0.6824,-0.557315 -0.8177,-0.935231 -0.83976,-1.449902 -0.17796,-1.489605 2.69724,-4.973194 7.74465,-8.3906099 14.90986,-10.51105465 47.15915,-23.1263791 57.9599,-23.0425611 0.2309,0 0.43827,0.01618 0.61769,0.02059 l 0.38532,0.02647 0.33238,-0.183811 c 2.80902,-1.536661 3.99145,-2.601295 4.11646,-4.282064 -0.10295,-1.616067 -1.29715,-2.035157 -1.37804,-2.10427 l -0.41473,-0.194104 -0.43532,0.105875 C 139.8744,-13.139077 117.68022,-3.7088314 103.21598,5.3802605 88.764978,14.532583 81.936563,23.084947 81.157097,29.058073 l -0.05,0.466145 0.242664,0.404384 c 2.185445,3.626226 4.504724,4.670273 6.109247,4.649686 0.48974,0 0.87506,-0.07352 1.139785,-0.173518 l 54.271407,0.557316 c 1.15302,0.235278 2.2531,0.666131 2.9605,1.210212 0.75593,0.594078 1.05743,1.145511 1.07507,1.836641 0.0294,0.945524 -0.84123,2.823338 -4.02969,5.211412 C 78.561329,73.29479 63.444105,95.571227 55.930348,103.97948 l -0.09412,0.12058 -0.07795,0.12499 c -4.038516,7.26275 -6.422505,12.69915 -6.446036,17.25472 -0.06177,4.06737 2.21486,7.3098 6.359265,9.30967 4.142934,2.05721 10.256593,3.03361 18.717474,4.06149 44.244239,-2.02487 78.177479,-17.53852 102.162969,-32.56839 12.06113,-7.545081 21.61326,-14.981343 28.68581,-20.501558 3.53995,-2.755696 6.45486,-5.032013 8.71972,-6.58632 1.18685,-0.839649 2.23104,-1.448432 3.01786,-1.826347 -1.90308,10.972788 -3.58996,24.286594 -11.51992,34.997635 -8.41676,11.3507 -23.89283,20.15599 -55.145,20.18834 -3.29582,0 -6.75488,-0.11175 -10.39778,-0.31027 l -0.56621,2.63953 c 9.25064,3.55858 18.68364,5.53051 27.86222,5.53051 l 0.13531,0 c 30.51093,0.0103 57.60987,-22.33379 64.33093,-78.946142 11.42285,-16.687108 15.73932,-34.340327 15.75403,-45.196947 -0.0103,-3.0924377 -0.34267,-5.6422654 -1.06037,-7.5671354"
         style="fill:#ffffff;fill-opacity:1;fill-rule:nonzero;stroke:none"
         id="path4389"
         inkscape:connector-curvature="0" /></g><g
       id="g4633"><path
         d="m 346.11223,306.99224 -2.68401,-1.55872 c 1.13096,-1.77782 1.7163,-3.61152 1.75601,-5.50551 l 0,-3.33654 4.54002,0 0,3.05862 c 0,1.18668 -0.32944,2.46748 -0.98684,3.84827 -0.65887,1.38226 -1.53246,2.54688 -2.62518,3.49388"
         style="fill:#00a9d4;fill-opacity:1;fill-rule:nonzero;stroke:none"
         id="path4403"
         inkscape:connector-curvature="0" /><path
         d="m 0,310.30084 58.174622,0 0,4.21001 -58.174622,0 0,-4.21001 z"
         style="fill:#00a9d4;fill-opacity:1;fill-rule:nonzero;stroke:none"
         id="path4379"
         inkscape:connector-curvature="0" /><path
         d="m 641.63125,310.30084 58.25845,0 0,4.21001 -58.25845,0 0,-4.21001 z"
         style="fill:#00a9d4;fill-opacity:1;fill-rule:nonzero;stroke:none"
         id="path4381"
         inkscape:connector-curvature="0" /><path
         d="m 112.72693,302.96457 -8.80355,0 0,23.93809 -5.920997,0 0,-23.93809 -8.684426,0 0,-4.79232 23.408973,0 0,4.79232"
         style="fill:#00a9d4;fill-opacity:1;fill-rule:nonzero;stroke:none"
         id="path4391"
         inkscape:connector-curvature="0" /><path
         d="m 147.01019,314.41233 -11.36843,0 0,7.73771 13.34063,0 0,4.75262 -19.26163,0 0,-28.73041 19.22339,0 0,4.79232 -13.30239,0 0,6.85101 11.36843,0 0,4.59675"
         style="fill:#00a9d4;fill-opacity:1;fill-rule:nonzero;stroke:none"
         id="path4393"
         inkscape:connector-curvature="0" /><path
         d="m 172.00016,311.58899 4.7768,0 c 1.48687,0 2.63695,-0.37792 3.45465,-1.13228 0.81624,-0.75877 1.22362,-1.79841 1.22362,-3.1292 0,-1.35285 -0.38532,-2.41895 -1.15596,-3.19831 -0.76918,-0.77201 -1.95014,-1.16463 -3.54143,-1.16463 l -4.75768,0 0,8.62442 z m 4.71797,4.79526 -4.71797,0 0,10.51841 -5.921,0 0,-28.73041 10.67868,0 c 3.39289,0 6.01366,0.75583 7.85349,2.26749 1.84277,1.5146 2.76343,3.65122 2.76343,6.41427 0,1.96164 -0.42356,3.59535 -1.27215,4.90702 -0.84712,1.3058 -2.13544,2.34838 -3.85909,3.12479 l 6.21808,11.74333 0,0.27351 -6.35486,0 -5.38861,-10.51841"
         style="fill:#00a9d4;fill-opacity:1;fill-rule:nonzero;stroke:none"
         id="path4395"
         inkscape:connector-curvature="0" /><path
         d="m 211.4176,311.58899 4.7768,0 c 1.48687,0 2.63695,-0.37792 3.45465,-1.13228 0.81476,-0.75877 1.22362,-1.79841 1.22362,-3.1292 0,-1.35285 -0.38532,-2.41895 -1.15597,-3.19831 -0.76917,-0.77201 -1.95013,-1.16463 -3.54142,-1.16463 l -4.75768,0 0,8.62442 z m 4.71797,4.79526 -4.71797,0 0,10.51841 -5.91953,0 0,-28.73041 10.67721,0 c 3.39435,0 6.01218,0.75583 7.85349,2.26749 1.84277,1.5146 2.76342,3.65122 2.76342,6.41427 0,1.96164 -0.42355,3.59535 -1.27361,4.90702 -0.84712,1.3058 -2.13397,2.34838 -3.85762,3.12479 l 6.21807,11.74333 0,0.27351 -6.35485,0 -5.38861,-10.51841"
         style="fill:#00a9d4;fill-opacity:1;fill-rule:nonzero;stroke:none"
         id="path4397"
         inkscape:connector-curvature="0" /><path
         d="m 262.202,314.41233 -11.36843,0 0,7.73771 13.3421,0 0,4.75262 -19.2631,0 0,-28.73041 19.22339,0 0,4.79232 -13.30239,0 0,6.85101 11.36843,0 0,4.59675"
         style="fill:#00a9d4;fill-opacity:1;fill-rule:nonzero;stroke:none"
         id="path4399"
         inkscape:connector-curvature="0" /><path
         d="m 310.87891,302.96457 0,19.18547 2.86196,0 c 2.31487,0 4.08558,-0.75877 5.30772,-2.27191 1.22509,-1.51313 1.84866,-3.67475 1.87513,-6.49073 l 0,-1.52049 c 0,-2.92039 -0.60592,-5.13348 -1.81336,-6.64073 -1.21185,-1.50578 -2.98109,-2.26161 -5.31066,-2.26161 l -2.92079,0 z m -5.921,23.93809 0,-28.73041 8.84179,0 c 2.52664,0 4.78709,0.57055 6.77841,1.70576 1.99425,1.13963 3.55024,2.7557 4.66944,4.85703 1.11772,2.09692 1.67659,4.48205 1.67659,7.15246 l 0,1.32197 c 0,2.66893 -0.55004,5.04524 -1.64718,7.12451 -1.10007,2.07928 -2.64871,3.68799 -4.64885,4.83497 -1.99867,1.14257 -4.25765,1.72342 -6.76959,1.73371 l -8.90061,0"
         style="fill:#00a9d4;fill-opacity:1;fill-rule:nonzero;stroke:none"
         id="path4401"
         inkscape:connector-curvature="0" /><path
         d="m 372.8185,316.18868 7.18285,0 -3.61055,-10.75516 -3.5723,10.75516 z m 8.78296,4.79673 -10.38161,0 -1.97366,5.91725 -6.29456,0 10.69486,-28.73041 5.48568,0 10.75957,28.73041 -6.2975,0 -1.99278,-5.91725"
         style="fill:#00a9d4;fill-opacity:1;fill-rule:nonzero;stroke:none"
         id="path4405"
         inkscape:connector-curvature="0" /><path
         d="m 415.29203,319.77814 6.51368,-21.60589 6.59458,0 -10.00658,28.73041 -6.17837,0 -9.96686,-28.73041 6.57398,0 6.46957,21.60589"
         style="fill:#00a9d4;fill-opacity:1;fill-rule:nonzero;stroke:none"
         id="path4407"
         inkscape:connector-curvature="0" /><path
         d="m 462.01438,314.41233 -11.36843,0 0,7.73771 13.33916,0 0,4.75262 -19.26016,0 0,-28.73041 19.22192,0 0,4.79232 -13.30092,0 0,6.85101 11.36843,0 0,4.59675"
         style="fill:#00a9d4;fill-opacity:1;fill-rule:nonzero;stroke:none"
         id="path4409"
         inkscape:connector-curvature="0" /><path
         d="m 504.44968,326.90266 -5.921,0 -11.52727,-18.90314 0,18.90314 -5.91953,0 0,-28.73041 5.91953,0 11.54786,18.94283 0,-18.94283 5.90041,0 0,28.73041"
         style="fill:#00a9d4;fill-opacity:1;fill-rule:nonzero;stroke:none"
         id="path4411"
         inkscape:connector-curvature="0" /><path
         d="m 523.61866,298.17225 5.91952,0 0,28.73041 -5.91952,0 0,-28.73041 z"
         style="fill:#00a9d4;fill-opacity:1;fill-rule:nonzero;stroke:none"
         id="path4413"
         inkscape:connector-curvature="0" /><path
         d="m 554.56492,311.58899 4.77827,0 c 1.4854,0 2.63548,-0.37792 3.45612,-1.13228 0.81477,-0.75877 1.22068,-1.79841 1.22068,-3.1292 0,-1.35285 -0.38532,-2.41895 -1.15302,-3.19831 -0.77065,-0.77201 -1.95161,-1.16463 -3.5429,-1.16463 l -4.75915,0 0,8.62442 z m 4.71797,4.79526 -4.71797,0 0,10.51841 -5.91806,0 0,-28.73041 10.67721,0 c 3.39289,0 6.01365,0.75583 7.85349,2.26749 1.8413,1.5146 2.76343,3.65122 2.76343,6.41427 0,1.96164 -0.42356,3.59535 -1.27362,4.90702 -0.84712,1.3058 -2.1325,2.34838 -3.85762,3.12479 l 6.21955,11.74333 0,0.27351 -6.3578,0 -5.38861,-10.51841"
         style="fill:#00a9d4;fill-opacity:1;fill-rule:nonzero;stroke:none"
         id="path4423"
         inkscape:connector-curvature="0" /><path
         d="m 602.96386,319.36493 c 0,-1.11757 -0.39561,-1.97486 -1.18243,-2.57482 -0.78976,-0.59702 -2.21045,-1.2308 -4.26647,-1.89399 -2.05015,-0.66613 -3.67526,-1.3205 -4.87093,-1.96605 -3.2664,-1.76164 -4.89593,-4.13648 -4.89593,-7.1201 0,-1.55284 0.43827,-2.93657 1.31333,-4.15561 0.87212,-1.21756 2.12956,-2.1675 3.76791,-2.85127 1.63688,-0.68378 3.47818,-1.02493 5.51656,-1.02493 2.05308,0 3.88115,0.37056 5.48567,1.11463 1.60746,0.74259 2.85461,1.78958 3.73997,3.14684 0.89123,1.35579 1.33244,2.89539 1.33244,4.61881 l -5.91953,0 c 0,-1.31903 -0.4162,-2.33955 -1.24273,-3.07038 -0.82947,-0.72937 -1.99279,-1.09552 -3.49289,-1.09552 -1.44863,0 -2.57518,0.30586 -3.37523,0.91759 -0.80447,0.61319 -1.2045,1.41755 -1.2045,2.41748 0,0.9367 0.47062,1.71606 1.41039,2.34984 0.94124,0.63084 2.32516,1.22198 4.15617,1.77341 3.36494,1.01464 5.821,2.27191 7.36081,3.77034 1.53834,1.49989 2.30751,3.36889 2.30751,5.6055 0,2.48366 -0.93977,4.43646 -2.81931,5.8496 -1.88543,1.41609 -4.41649,2.12192 -7.60053,2.12192 -2.21045,0 -4.22235,-0.40585 -6.04012,-1.21315 -1.81484,-0.80877 -3.2017,-1.91605 -4.1547,-3.32625 -0.95154,-1.40726 -1.42951,-3.03656 -1.42951,-4.89232 l 5.94011,0 c 0,3.16891 1.89425,4.75704 5.68422,4.75704 1.40745,0 2.50753,-0.28822 3.29729,-0.86318 0.78682,-0.56761 1.18243,-1.36903 1.18243,-2.39543"
         style="fill:#00a9d4;fill-opacity:1;fill-rule:nonzero;stroke:none"
         id="path4425"
         inkscape:connector-curvature="0" /></g><g
       id="g4551"><path
         d="m 156.18289,203.30513 15.61284,0 0,4.81732 -21.58826,0 0,-34.38444 5.97542,0 0,29.56712"
         style="fill:#ffffff;fill-opacity:1;fill-rule:nonzero;stroke:none"
         id="path4427"
         inkscape:connector-curvature="0" /><path
         d="m 197.29897,192.77201 -14.12451,0 0,10.53312 16.50997,0 0,4.81732 -22.48538,0 0,-34.38444 22.31919,0 0,4.81732 -16.34378,0 0,9.49347 14.12451,0 0,4.72321"
         style="fill:#ffffff;fill-opacity:1;fill-rule:nonzero;stroke:none"
         id="path4429"
         inkscape:connector-curvature="0" /><path
         d="m 224.2126,178.55533 0,24.7498 3.89733,0 c 3.13257,0 5.53715,-0.97935 7.21521,-2.9351 1.67659,-1.95869 2.52959,-4.76733 2.56194,-8.42737 l 0,-1.9087 c 0,-3.72327 -0.81035,-6.57014 -2.43252,-8.53177 -1.62217,-1.96458 -3.97528,-2.94686 -7.06078,-2.94686 l -4.18118,0 z m -5.97541,29.56712 0,-34.38444 10.15659,0 c 3.03697,0 5.73422,0.67642 8.08879,2.03221 2.35311,1.35285 4.17529,3.27331 5.46803,5.76138 1.28979,2.48806 1.93543,5.33787 1.93543,8.54795 l 0,1.72341 c 0,3.2586 -0.64858,6.12459 -1.94867,8.59648 -1.30009,2.47189 -3.15022,4.37617 -5.54891,5.71432 -2.40311,1.33961 -5.1533,2.00869 -8.25499,2.00869 l -9.89627,0"
         style="fill:#ffffff;fill-opacity:1;fill-rule:nonzero;stroke:none"
         id="path4431"
         inkscape:connector-curvature="0" /><path
         d="m 263.6521,164.36217 6.54016,0 -6.54016,7.15687 -4.60767,-0.0132 4.60767,-7.14363 z m 7.10785,28.40984 -14.12451,0 0,10.53312 16.50997,0 0,4.81732 -22.48538,0 0,-34.38444 22.31919,0 0,4.81732 -16.34378,0 0,9.49347 14.12451,0 0,4.72321"
         style="fill:#ffffff;fill-opacity:1;fill-rule:nonzero;stroke:none"
         id="path4433"
         inkscape:connector-curvature="0" /><path
         d="m 284.80798,190.55158 7.17844,0 c 2.12662,0 3.74879,-0.49997 4.86651,-1.4999 1.11773,-0.99994 1.67806,-2.44249 1.67806,-4.33353 0,-1.85576 -0.56916,-3.34096 -1.70159,-4.4497 -1.1339,-1.11169 -2.69136,-1.68077 -4.67679,-1.71312 l -7.34463,0 0,11.99625 z m 0,4.81585 0,12.75502 -5.97541,0 0,-34.38444 13.15385,0 c 3.84291,0 6.89313,0.99993 9.15211,3.00126 2.26045,2.00428 3.38994,4.64969 3.38994,7.94358 0,3.37478 -1.10596,5.9996 -3.31935,7.873 -2.21045,1.87487 -5.30919,2.81158 -9.29182,2.81158 l -7.10932,0"
         style="fill:#ffffff;fill-opacity:1;fill-rule:nonzero;stroke:none"
         id="path4435"
         inkscape:connector-curvature="0" /><path
         d="m 313.97177,195.29684 9.96687,0 -4.98417,-14.2608 -4.9827,14.2608 z m 11.64492,4.81732 -13.32151,0 -2.78843,8.00829 -6.21072,0 12.98913,-34.38444 5.36214,0 13.01267,34.38444 -6.23426,0 -2.80902,-8.00829"
         style="fill:#ffffff;fill-opacity:1;fill-rule:nonzero;stroke:none"
         id="path4437"
         inkscape:connector-curvature="0" /><path
         d="m 345.35483,190.07955 6.1416,0 c 2.01484,0 3.58995,-0.50732 4.72091,-1.52343 1.13391,-1.01464 1.70159,-2.40278 1.70159,-4.16883 0,-1.84106 -0.52209,-3.26449 -1.56922,-4.27324 -1.04861,-1.00582 -2.61048,-1.52637 -4.68856,-1.55872 l -6.30632,0 0,11.52422 z m 6.66075,4.81879 -6.66075,0 0,13.22411 -5.97542,0 0,-34.38444 12.09349,0 c 3.96645,0 7.02696,0.88964 9.18593,2.6704 2.1575,1.78077 3.23699,4.35706 3.23699,7.72889 0,2.30132 -0.55592,4.22619 -1.66777,5.77902 -1.11037,1.55284 -2.65606,2.74541 -4.63855,3.57917 l 7.72406,14.3211 0,0.30586 -6.40338,0 -6.8946,-13.22411"
         style="fill:#ffffff;fill-opacity:1;fill-rule:nonzero;stroke:none"
         id="path4439"
         inkscape:connector-curvature="0" /><path
         d="m 394.05085,178.55533 -10.7228,0 0,29.56712 -5.92983,0 0,-29.56712 -10.62573,0 0,-4.81732 27.27836,0 0,4.81732"
         style="fill:#ffffff;fill-opacity:1;fill-rule:nonzero;stroke:none"
         id="path4441"
         inkscape:connector-curvature="0" /><path
         d="m 419.48055,192.77201 -14.12451,0 0,10.53312 16.50997,0 0,4.81732 -22.48391,0 0,-34.38444 22.3192,0 0,4.81732 -16.34526,0 0,9.49347 14.12451,0 0,4.72321"
         style="fill:#ffffff;fill-opacity:1;fill-rule:nonzero;stroke:none"
         id="path4443"
         inkscape:connector-curvature="0" /><path
         d="m 435.30224,173.73801 9.91686,26.35557 9.89628,-26.35557 7.72406,0 0,34.38444 -5.95041,0 0,-11.33747 0.58828,-15.16074 -10.15365,26.49821 -4.27677,0 -10.13158,-26.47321 0.59122,15.13574 0,11.33747 -5.95336,0 0,-34.38444 7.74907,0"
         style="fill:#ffffff;fill-opacity:1;fill-rule:nonzero;stroke:none"
         id="path4445"
         inkscape:connector-curvature="0" /><path
         d="m 490.82374,192.77201 -14.12451,0 0,10.53312 16.50996,0 0,4.81732 -22.48538,0 0,-34.38444 22.31626,0 0,4.81732 -16.34084,0 0,9.49347 14.12451,0 0,4.72321"
         style="fill:#ffffff;fill-opacity:1;fill-rule:nonzero;stroke:none"
         id="path4447"
         inkscape:connector-curvature="0" /><path
         d="m 526.17324,208.12245 -5.97541,0 -15.32753,-24.39394 0,24.39394 -5.97395,0 0,-34.38444 5.97395,0 15.37312,24.48805 0,-24.48805 5.92982,0 0,34.38444"
         style="fill:#ffffff;fill-opacity:1;fill-rule:nonzero;stroke:none"
         id="path4449"
         inkscape:connector-curvature="0" /><path
         d="m 558.21958,178.55533 -10.7228,0 0,29.56712 -5.92982,0 0,-29.56712 -10.62574,0 0,-4.81732 27.27836,0 0,4.81732"
         style="fill:#ffffff;fill-opacity:1;fill-rule:nonzero;stroke:none"
         id="path4451"
         inkscape:connector-curvature="0" /></g></g></svg>