<?xml version="1.0" encoding="UTF-8" standalone="no"?>
<!-- Created with Inkscape (http://www.inkscape.org/) -->

<svg
   xmlns:dc="http://purl.org/dc/elements/1.1/"
   xmlns:cc="http://creativecommons.org/ns#"
   xmlns:rdf="http://www.w3.org/1999/02/22-rdf-syntax-ns#"
   xmlns:svg="http://www.w3.org/2000/svg"
   xmlns="http://www.w3.org/2000/svg"
   xmlns:sodipodi="http://sodipodi.sourceforge.net/DTD/sodipodi-0.dtd"
   xmlns:inkscape="http://www.inkscape.org/namespaces/inkscape"
   id="svg2"
   version="1.1"
   inkscape:version="0.91 r13725"
   xml:space="preserve"
   width="800"
   height="248"
   viewBox="0 0 800 248"
   sodipodi:docname="Logo Seine Marne.svg"><metadata
     id="metadata8"><rdf:RDF><cc:Work
         rdf:about=""><dc:format>image/svg+xml</dc:format><dc:type
           rdf:resource="http://purl.org/dc/dcmitype/StillImage" /><dc:title></dc:title></cc:Work></rdf:RDF></metadata><defs
     id="defs6" /><sodipodi:namedview
     pagecolor="#ffffff"
     bordercolor="#666666"
     borderopacity="1"
     objecttolerance="10"
     gridtolerance="10"
     guidetolerance="10"
     inkscape:pageopacity="0"
     inkscape:pageshadow="2"
     inkscape:window-width="1440"
     inkscape:window-height="790"
     id="namedview4"
     showgrid="false"
     inkscape:zoom="0.5328359"
     inkscape:cx="178.96734"
     inkscape:cy="67.563017"
     inkscape:window-x="0"
     inkscape:window-y="1"
     inkscape:window-maximized="1"
     inkscape:current-layer="g10" /><g
     id="g10"
     inkscape:groupmode="layer"
     inkscape:label="CG77-N96-BD 1"
     transform="matrix(1.25,0,0,-1.25,0,248.00002)"><g
       id="g4163"
       transform="scale(1,0.99996302)"><path
         id="path286"
         d="m 48.24581,198.40001 -4.561811,0 -29.17437,0 c -7.9811289,0 -14.5096594037,-6.52709 -14.5096594037,-14.50646 l 0,-169.394411 c 0,-7.9793729 6.5285305037,-14.50646694 14.5096594037,-14.50646694 l 29.17437,0 4.561811,0 549.32688,0 42.34568,163.71583794 0.0816,34.6915 -591.75416,0 z"
         style="fill:#0078bb;fill-opacity:1;fill-rule:nonzero;stroke:none"
         inkscape:connector-curvature="0" /><g
         style="fill:#ffffff"
         id="g4608"><path
           style="fill:#ffffff;fill-opacity:1;fill-rule:nonzero;stroke:none"
           d="m 612.27004,156.21051 -34.04629,-131.137479 -15.97857,0 34.7073,132.565279 -70.37756,0 0,15.01232 85.69512,0 0,-16.44012 z"
           id="path4583"
           inkscape:connector-curvature="0" /><path
           style="fill:#ffffff;fill-opacity:1;fill-rule:nonzero;stroke:none"
           d="m 533.26666,25.073031 27.84418,109.279869 -34.53592,0 0,15.02864 49.5597,0 0,-16.4238 -27.22397,-107.884709 -15.64399,0 z"
           id="path4581"
           inkscape:connector-curvature="0" /></g><g
         style="fill:#ffffff"
         id="g4612"><path
           style="fill:#ffffff;fill-opacity:1;fill-rule:nonzero;stroke:none"
           d="m 119.84961,157.00781 0,57.21289 10.62891,0 c 12.04717,0 19.34179,-6.64987 19.34179,-28.60742 0,-21.94735 -7.29462,-28.60547 -19.34179,-28.60547 l -10.62891,0 z m 6.19336,5.22657 3.32422,0 c 9.03793,0 14.27148,3.80543 14.27148,23.38671 0,19.57109 -5.23354,23.375 -14.27148,23.375 l -3.32422,0 0,-46.76171 z"
           transform="matrix(0.8,0,0,-0.8,0,198.40002)"
           id="path4545"
           inkscape:connector-curvature="0" /><path
           style="fill:#ffffff;fill-opacity:1;fill-rule:nonzero;stroke:none"
           d="m 263.66016,157.00781 0,57.21289 6.18164,0 0,-26.78125 8.08008,-0.3164 9.20117,27.09765 6.49804,0 -9.66992,-28.37109 c 6.34491,-2.21309 9.18945,-7.59833 9.18945,-14.02344 0,-9.43369 -6.49656,-14.81836 -15.6875,-14.81836 l -13.79296,0 z m 6.17578,5.22266 5.39648,0 c 8.87471,0 11.73047,3.49915 11.73047,9.91406 0,6.41491 -2.85576,9.90235 -11.73047,9.90235 l -5.39648,0 0,-19.81641 z"
           transform="matrix(0.8,0,0,-0.8,0,198.40002)"
           id="path4555"
           inkscape:connector-curvature="0" /><path
           style="fill:#ffffff;fill-opacity:1;fill-rule:nonzero;stroke:none"
           d="m 193.88672,157.00781 0,57.21289 6.18164,0 0,-25.83203 7.29492,0 c 9.20115,0 15.21875,-6.18003 15.21875,-15.69531 0,-9.50508 -6.0176,-15.68555 -15.21875,-15.68555 l -13.47656,0 z m 6.1875,5.22657 6.49805,0 c 6.1817,-10e-6 9.82421,3.32583 9.82421,10.46484 0,7.12881 -3.64251,10.45312 -9.82421,10.45312 l -6.49805,0 0,-20.91796 z"
           transform="matrix(0.8,0,0,-0.8,0,198.40002)"
           id="path4551"
           inkscape:connector-curvature="0" /><path
           style="fill:#ffffff;fill-opacity:1;fill-rule:nonzero;stroke:none"
           d="m 412.90504,68.608749 -9.38476,0 0,-41.585749 -4.94536,0 0,41.585749 -9.38477,0 0,4.185499 23.71489,0 0,-4.185499 z"
           id="path4573"
           inkscape:connector-curvature="0" /><path
           style="fill:#ffffff;fill-opacity:1;fill-rule:nonzero;stroke:none"
           d="m 385.19143,27.023 -5.32075,0 -14.20772,39.815274 -0.13057,0 0,-39.815274 -4.94536,0 0,45.771248 7.73631,0 11.80032,-33.728759 0.12241,0 0,33.728759 4.94536,0 0,-45.771248 z"
           id="path4571"
           inkscape:connector-curvature="0" /><path
           style="fill:#ffffff;fill-opacity:1;fill-rule:nonzero;stroke:none"
           d="m 354.75216,27.023 -21.68289,0 0,45.771248 20.92394,0 0,-4.185499 -15.97857,0 0,-15.591596 11.79215,0 0,-4.185499 -11.79215,0 0,-17.631313 16.73752,0 0,-4.177341 z"
           id="path4567"
           inkscape:connector-curvature="0" /><path
           style="fill:#ffffff;fill-opacity:1;fill-rule:nonzero;stroke:none"
           d="m 325.33296,27.023 -4.56181,0 0,41.969215 -0.13057,0 -9.51533,-41.969215 -3.23162,0 -9.51534,41.969215 -0.12241,0 0,-41.969215 -4.56997,0 0,45.771248 7.86688,0 7.98929,-34.618076 0.13057,0 7.8016,34.618076 7.85871,0 0,-45.771248 z"
           id="path4563"
           inkscape:connector-curvature="0" /><path
           style="fill:#ffffff;fill-opacity:1;fill-rule:nonzero;stroke:none"
           d="m 287.8592,27.023 -21.69104,0 0,45.771248 20.9321,0 0,-4.185499 -15.98674,0 0,-15.591596 11.80032,0 0,-4.185499 -11.80032,0 0,-17.631313 16.74568,0 0,-4.177341 z"
           id="path4561"
           inkscape:connector-curvature="0" /><path
           style="fill:#ffffff;fill-opacity:1;fill-rule:nonzero;stroke:none"
           d="m 261.47578,68.608749 -9.38477,0 0,-41.585749 -4.94536,0 0,41.585749 -9.38476,0 0,4.185499 23.71489,0 0,-4.185499 z"
           id="path4559"
           inkscape:connector-curvature="0" /><path
           style="fill:#ffffff;fill-opacity:1;fill-rule:nonzero;stroke:none"
           d="m 236.54688,157.00781 -12.59766,57.21289 6.18164,0 3.40625,-16.95898 14.58789,0 3.40625,16.95898 6.18164,0 -12.60742,-57.21289 -8.55859,0 z m 4.20312,4.27735 0.16406,0 6.33399,30.74804 -12.8418,0 6.34375,-30.74804 z"
           transform="matrix(0.8,0,0,-0.8,0,198.40002)"
           id="path4553"
           inkscape:connector-curvature="0" /><path
           style="fill:#ffffff;fill-opacity:1;fill-rule:nonzero;stroke:none"
           d="m 175.57617,143.05469 -7.76172,10.93359 3.95703,0 9.9961,-10.93359 -6.19141,0 z m -16.08594,13.95312 0,57.21289 27.11329,0 0,-5.2207 -20.93164,0 0,-22.03906 14.74023,0 0,-5.23242 -14.74023,0 0,-19.49024 19.97265,0 0,-5.23047 -26.1543,0 z"
           transform="matrix(0.8,0,0,-0.8,0,198.40002)"
           id="path4547"
           inkscape:connector-curvature="0" /><path
           style="fill:#ffffff;fill-opacity:1;fill-rule:nonzero;stroke:none"
           d="m 75.339211,27.023 -21.691042,0 0,45.771248 20.932101,0 0,-4.185499 -15.978579,0 0,-15.591596 11.792158,0 0,-4.185499 -11.792158,0 0,-17.631313 16.73752,0 0,-4.177341 z"
           id="path4543"
           inkscape:connector-curvature="0" /><path
           style="fill:#ffffff;fill-opacity:1;fill-rule:nonzero;stroke:none"
           d="m 48.768092,27.023 -19.781447,0 0,45.771248 4.945362,0 0,-41.593907 14.836085,0 0,-4.177341 z"
           id="path4541"
           inkscape:connector-curvature="0" /></g><g
         style="fill:#ffffff"
         id="g4595"><path
           style="fill:#ffffff;fill-opacity:1;fill-rule:nonzero;stroke:none"
           d="m 307.36133,54.664062 c -6.96716,0 -10.51758,4.824691 -10.51758,11.392579 0,4.222212 2.07207,9.454181 3.81641,13.339843 -3.35607,3.6103 -6.36719,8.638116 -6.36719,13.666016 0,6.700475 4.56148,11.32031 11.58984,11.32031 4.16194,0 6.84302,-1.13199 9.51563,-3.68164 2.55021,2.34568 5.83488,3.62039 9.38476,3.68164 l 0,-7.363279 c -1.67293,-0.275362 -3.34404,-1.142918 -4.61914,-2.285156 1.74435,-4.150825 3.62012,-8.240263 4.5586,-12.65625 l -6.84375,-1.814453 c -0.66305,3.079975 -1.80672,6.027209 -2.94922,8.974609 -2.34619,-3.008587 -4.35441,-6.364084 -6.02735,-9.841797 3.7539,-4.161025 8.3125,-8.648418 8.3125,-14.675781 0,-6.027362 -3.75341,-10.056641 -9.85351,-10.056641 z m -0.40625,4.824219 c 1.94836,0 3.01758,1.479347 3.01758,5.232422 0,3.345138 -2.07943,6.302347 -4.01758,8.841797 -1.1425,-2.814813 -2.28516,-6.230572 -2.28516,-9.310547 0,-3.018775 1.2144,-4.763672 3.28516,-4.763672 z m -2.94727,26.533203 c 1.74434,3.5593 4.09085,6.701916 6.63086,9.720704 -1.2649,1.070849 -2.20273,1.40625 -3.81445,1.40625 -2.87664,0 -4.89649,-2.345344 -4.89649,-5.160157 0,-2.549637 0.67237,-3.814897 2.08008,-5.966797 z"
           transform="matrix(0.8,0,0,-0.8,0,198.40002)"
           id="path4557"
           inkscape:connector-curvature="0" /><path
           style="fill:#ffffff;fill-opacity:1;fill-rule:nonzero;stroke:none"
           d="m 513.65659,96.650777 -36.43736,0 0,76.008013 34.96028,0 0,-11.37346 -21.90322,0 0,-19.58129 16.85177,0 0,-11.3653 -16.85177,0 0,-22.32266 23.3803,0 0,-11.365303 z"
           id="path4579"
           inkscape:connector-curvature="0" /><path
           style="fill:#ffffff;fill-opacity:1;fill-rule:nonzero;stroke:none"
           d="m 467.7447,96.650777 -11.36781,0 -16.63959,47.476453 -0.21218,0 0,-47.476453 -11.79215,0 0,76.008013 12.11042,0 15.89697,-43.47861 0.21218,0 0,43.47861 11.79216,0 0,-76.008013 z"
           id="path4577"
           inkscape:connector-curvature="0" /><path
           style="fill:#ffffff;fill-opacity:1;fill-rule:nonzero;stroke:none"
           d="m 472.80859,32.175781 0,95.011719 16.32032,0 0,-38.949219 c 2.89702,0 6.31421,-0.133275 8.42578,-0.398437 l 11.57812,39.347656 16.58789,0 -13.82226,-43.029297 c 5.52884,-2.49865 11.45508,-8.688225 11.45508,-23.945312 0,-20.274788 -9.34425,-28.03711 -27.64454,-28.03711 l -22.90039,0 z m 16.31836,13.425781 5.79493,0 c 8.81351,0 12.10742,3.285044 12.10742,14.605469 0,11.320425 -3.29391,14.603516 -12.10742,14.603516 l -5.79493,0 0,-29.208985 z"
           transform="matrix(0.8,0,0,-0.8,0,198.40002)"
           id="path4575"
           inkscape:connector-curvature="0" /><path
           style="fill:#ffffff;fill-opacity:1;fill-rule:nonzero;stroke:none"
           d="m 325.8226,96.650777 -11.37596,0 0,59.372083 -0.21218,0 -11.79216,-59.372083 -6.31635,0 -11.79216,59.372083 -0.21217,0 0,-59.372083 -11.36781,0 0,76.008013 17.16188,0 9.26235,-44.42504 0.21218,0 9.26235,44.42504 17.17003,0 0,-76.008013 z"
           id="path4565"
           inkscape:connector-curvature="0" /><path
           style="fill:#ffffff;fill-opacity:1;fill-rule:nonzero;stroke:none"
           d="m 152.90631,145.90586 0,-47.47645 -11.80031,0 0,76.00801 12.11042,0 15.90513,-43.47861 0.20402,0 0,43.47861 11.80032,0 0,-76.00801 -11.37597,0 -16.63959,47.47645 -0.20402,0 z"
           id="path4549"
           inkscape:connector-curvature="0" /><path
           style="fill:#ffffff;fill-opacity:1;fill-rule:nonzero;stroke:none"
           d="m 25.714219,156.53686 c 0,12.10776 7.369079,18.95305 20.213963,18.95305 10.641504,0 16.957857,-7.68565 18.116672,-18.42272 l -12.42869,-1.37069 c -0.522283,6.5271 -3.998725,8.41995 -6.944725,8.41995 -4.219062,0 -6.52853,-2.73322 -6.52853,-7.47352 0,-12.94812 26.530316,-19.15702 26.530316,-39.7908 0,-12.53202 -8.421805,-19.475214 -20.638317,-19.475214 -12.110424,0 -19.055149,9.684574 -19.585592,21.049874 l 12.42869,1.79496 c 0.522283,-7.68566 3.574371,-11.47953 7.793433,-11.47953 4.521008,0 7.581256,2.42318 7.581256,6.95135 0,15.05311 -26.538476,19.05096 -26.538476,40.84329"
           id="path4539"
           inkscape:connector-curvature="0" /><path
           style="fill:#ffffff;fill-opacity:1;fill-rule:nonzero;stroke:none"
           d="m 71.405772,174.43742 34.960278,0 0,-11.37346 -21.903217,0 0,-19.58128 16.851767,0 0,-11.36531 -16.851767,0 0,-22.32266 23.380297,0 0,-11.3653 -36.437358,0 0,76.00801 z"
           id="path4537"
           inkscape:connector-curvature="0" /><path
           style="fill:#ffffff;fill-opacity:1;fill-rule:nonzero;stroke:none"
           d="m 116.78722,174.43742 13.05706,0 0,-76.00801 -13.05706,0 0,76.00801 z"
           id="path4535"
           inkscape:connector-curvature="0" /><path
           style="fill:#ffffff;fill-opacity:1;fill-rule:nonzero;stroke:none"
           d="m 190.60042,174.43742 34.95212,0 0,-11.37346 -21.89506,0 0,-19.58128 16.84361,0 0,-11.36531 -16.84361,0 0,-22.32266 23.37214,0 0,-11.3653 -36.4292,0 0,76.00801 z"
           id="path4531"
           inkscape:connector-curvature="0" /><path
           style="fill:#ffffff;fill-opacity:1;fill-rule:nonzero;stroke:none"
           d="m 429.51562,32.175781 -17.51367,95.011719 15.80078,0 2.89649,-21.05078 17.89258,0 2.90625,21.05078 15.79101,0 -17.51367,-95.011719 -20.25977,0 z m 9.99805,18.953125 0.26367,0 6.44727,40.794922 -13.1582,0 6.44726,-40.794922 z"
           transform="matrix(0.8,0,0,-0.8,0,198.40002)"
           id="path4569"
           inkscape:connector-curvature="0" /></g></g></g></svg>