<?xml version="1.0" encoding="UTF-8" standalone="no"?>
<!-- Created with Inkscape (http://www.inkscape.org/) -->

<svg
   xmlns:dc="http://purl.org/dc/elements/1.1/"
   xmlns:cc="http://creativecommons.org/ns#"
   xmlns:rdf="http://www.w3.org/1999/02/22-rdf-syntax-ns#"
   xmlns:svg="http://www.w3.org/2000/svg"
   xmlns="http://www.w3.org/2000/svg"
   xmlns:sodipodi="http://sodipodi.sourceforge.net/DTD/sodipodi-0.dtd"
   xmlns:inkscape="http://www.inkscape.org/namespaces/inkscape"
   id="svg2"
   version="1.1"
   inkscape:version="0.48.2 r9819"
   width="531.49625"
   height="238.97875"
   xml:space="preserve"
   sodipodi:docname="LOGO_TDB_2015_QUADRI.ai"><metadata
     id="metadata8"><rdf:RDF><cc:Work
         rdf:about=""><dc:format>image/svg+xml</dc:format><dc:type
           rdf:resource="http://purl.org/dc/dcmitype/StillImage" /><dc:title></dc:title></cc:Work></rdf:RDF></metadata><defs
     id="defs6"><clipPath
       clipPathUnits="userSpaceOnUse"
       id="clipPath16"><path
         d="m 0,191.183 425.197,0 L 425.197,0 0,0 0,191.183 z"
         id="path18" /></clipPath></defs><sodipodi:namedview
     pagecolor="#ffffff"
     bordercolor="#666666"
     borderopacity="1"
     objecttolerance="10"
     gridtolerance="10"
     guidetolerance="10"
     inkscape:pageopacity="0"
     inkscape:pageshadow="2"
     inkscape:window-width="1366"
     inkscape:window-height="706"
     id="namedview4"
     showgrid="false"
     inkscape:zoom="1.585955"
     inkscape:cx="270.06423"
     inkscape:cy="234.80015"
     inkscape:window-x="-8"
     inkscape:window-y="-8"
     inkscape:window-maximized="1"
     inkscape:current-layer="g10" /><g
     id="g10"
     inkscape:groupmode="layer"
     inkscape:label="LOGO_TDB_2015_QUADRI"
     transform="matrix(1.25,0,0,-1.25,0,238.97875)"><g
       id="g12"><g
         id="g14"
         clip-path="url(#clipPath16)"><g
           id="g20"
           transform="translate(86.9502,179.1357)"><path
             d="m 0,0 c -1.276,5.854 -9.708,12.414 -20.863,12.031 -31.038,-1.085 -49.155,-31.142 -66.087,-39.455 13.539,-2.945 36.594,9.606 58.382,16.968 12.162,4.123 20.472,5.303 28.339,4.103 C 0.314,-5.208 0.634,-2.943 0,0"
             style="fill:#c72845;fill-opacity:1;fill-rule:nonzero;stroke:none"
             id="path22" /></g><g
           id="g24"
           transform="translate(61.9985,141.2349)"><path
             d="m 0,0 c -16.9,-30.058 -1.266,-44.069 22.14,-62.836 28.006,-22.454 65.223,-39.544 72.669,-78.398 10.335,14.421 22.008,34.489 8.05,50.17 C 91.873,-78.727 72.916,-72.34 58.465,-65.287 14.369,-43.757 -8.645,-36.039 0.626,-3.712 1.216,-1.671 1.768,-0.875 0,0"
             style="fill:#c72845;fill-opacity:1;fill-rule:nonzero;stroke:none"
             id="path26" /></g><g
           id="g28"
           transform="translate(1.7681,105.6797)"><path
             d="m 0,0 c 0.232,-21.705 28.687,-46.79 32.967,-60.531 9.619,9.321 17.345,20.525 0.441,41.422 C 25.161,-8.925 20.111,0.062 20.72,10.437 21.8,28.63 35.171,37.55 45.812,41.565 c 0.624,0.324 0.846,1.066 0.536,2.291 C 20.068,41.033 -0.25,23.376 0,0"
             style="fill:#c72845;fill-opacity:1;fill-rule:nonzero;stroke:none"
             id="path30" /></g><g
           id="g32"
           transform="translate(92.5752,53.0898)"><path
             d="m 0,0 c -9.461,20.184 -52.293,35.237 -48.743,60.811 0.161,1.124 0.344,1.555 -1.034,2.173 C -66.104,32.443 -11.014,9.81 -25.675,-32.146 -1.647,-27.68 6.421,-13.708 0,0"
             style="fill:#c72845;fill-opacity:1;fill-rule:nonzero;stroke:none"
             id="path34" /></g><g
           id="g36"
           transform="translate(108.2788,148.5259)"><path
             d="M 0,0 C 1.411,-2.428 -2.345,-4.347 2.114,-8.228 -2.755,-9.062 -10.263,-4.112 -19.766,-5.79 -12.836,-1.575 -2.712,4.647 0,0"
             style="fill:#a7976a;fill-opacity:1;fill-rule:nonzero;stroke:none"
             id="path38" /></g><g
           id="g40"
           transform="translate(161.7129,138.6821)"><path
             d="m 0,0 c -1.59,2.513 -9.01,6.096 -28.282,11.763 -8.628,2.532 -4.489,4.231 -9.194,7.882 -5.619,4.352 -22.218,7.194 -40.135,4.93 -1.783,-0.262 -1.844,-0.686 -2.433,-2.553 15.372,1.227 26.522,-0.808 32.469,-3.671 6.791,-3.26 3.227,-7.95 7.04,-9.412 6.915,-2.66 22.825,-6.224 30.17,-12.711 3.499,-3.1 2.796,-7.594 2.726,-8.893 0.901,-0.384 2.374,-0.452 4.451,3.226 C -0.034,-3.879 0.41,-0.646 0,0"
             style="fill:#a7976a;fill-opacity:1;fill-rule:nonzero;stroke:none"
             id="path42" /></g><g
           id="g44"
           transform="translate(241.0806,99.231)"><path
             d="m 0,0 -1.298,-7.785 c 1.214,-0.629 2.511,-0.838 3.433,-0.838 2.845,0 3.849,5.568 3.849,8.079 0,1.34 -0.25,2.972 -1.966,2.972 C 3.097,2.428 1.674,1.549 0,0 m -2.219,-13.771 -1.34,-8.245 -6.404,-0.586 4.019,24.151 c 0.502,3.055 0.586,5.483 0.586,5.483 l 6.027,0 c 0,0 0,-1.926 -0.125,-2.636 0,0 2.805,3.013 5.776,3.013 4.646,0 6.195,-2.972 6.195,-7.116 0,-5.901 -2.931,-14.022 -9.962,-14.022 -2.302,0 -4.605,1.716 -4.605,1.716 0,0 -0.042,-1.088 -0.167,-1.758"
             style="fill:#a7976a;fill-opacity:1;fill-rule:nonzero;stroke:none"
             id="path46" /></g><g
           id="g48"
           transform="translate(266.894,101.9097)"><path
             d="m 0,0 c -3.182,0 -4.479,-5.733 -4.479,-8.454 0,-1.423 0.418,-2.805 1.757,-2.805 1.131,0 2.847,1.257 4.27,2.972 0.377,2.637 0.796,5.022 1.34,7.534 C 1.883,-0.293 1.172,0 0,0 m 1.214,-15.906 c 0,0.963 0.083,2.177 0.209,3.098 -1.884,-2.302 -3.851,-3.6 -5.902,-3.6 -4.646,0 -6.32,3.349 -6.32,7.619 0,6.194 3.432,13.519 10.422,13.519 1.297,0 3.265,-0.711 4.311,-1.465 0.252,0.586 0.628,1.089 0.628,1.089 l 5.651,0 C 9.794,2.889 9.376,1.424 9.124,-0.083 l -1.338,-7.45 c -0.504,-2.72 -0.629,-5.61 -0.755,-8.373 l -5.817,0 z"
             style="fill:#a7976a;fill-opacity:1;fill-rule:nonzero;stroke:none"
             id="path50" /></g><g
           id="g52"
           transform="translate(293.269,101.2817)"><path
             d="m 0,0 c 0,0 -1.174,0.293 -2.722,0.293 -0.712,0 -2.261,-0.795 -3.351,-1.716 l -2.511,-13.855 -6.278,0 2.762,15.027 c 0.502,2.805 0.628,5.232 0.628,5.232 l 6.027,0 c 0,0 -0.042,-1.632 -0.208,-2.469 0,0 2.847,2.72 4.855,2.72 1.676,0 2.221,-0.377 2.221,-0.377 L 0,0 z"
             style="fill:#a7976a;fill-opacity:1;fill-rule:nonzero;stroke:none"
             id="path54" /></g><g
           id="g56"
           transform="translate(296.0142,89.6455)"><path
             d="m 0,0 c 0,0.67 0.084,1.341 0.209,2.011 l 1.801,9.835 -2.901,0 0.753,4.102 3.278,0.586 1.924,4.981 5.149,0 -1.088,-4.897 5.231,0 -0.877,-4.772 -5.234,0 -1.674,-9.124 c 0,0 -0.042,-0.209 -0.042,-0.376 0,-0.461 0.21,-1.005 1.005,-1.005 1.381,0 4.311,1.088 4.311,1.088 l -0.67,-4.982 c 0,0 -3.39,-1.591 -6.696,-1.591 C 0.963,-4.144 0,-2.26 0,0"
             style="fill:#a7976a;fill-opacity:1;fill-rule:nonzero;stroke:none"
             id="path58" /></g><g
           id="g60"
           transform="translate(355.9683,99.3149)"><path
             d="m 0,0 c 0.042,0.293 0.084,0.586 0.084,0.795 0,1.047 -0.586,1.172 -1.423,1.172 -1.884,0 -3.641,-1.674 -3.641,-1.674 l -2.469,-13.604 -6.447,0 L -11.427,0 c 0.042,0.293 0.084,0.586 0.084,0.795 0,1.047 -0.586,1.172 -1.422,1.172 -1.799,0 -3.851,-1.8 -3.851,-1.8 l -2.428,-13.478 -6.278,0 2.72,15.027 c 0.502,2.805 0.67,5.232 0.67,5.232 l 5.986,0 c 0,0 0,-1.381 -0.21,-2.553 0,0 3.349,2.93 5.985,2.93 2.805,0 4.438,-1.089 4.898,-2.971 1.464,1.171 3.976,2.971 6.529,2.971 4.06,0 5.4,-1.968 5.4,-4.772 0,-0.669 -0.084,-1.381 -0.21,-2.134 l -2.469,-13.73 -6.446,0 L 0,0 z"
             style="fill:#a7976a;fill-opacity:1;fill-rule:nonzero;stroke:none"
             id="path62" /></g><g
           id="g64"
           transform="translate(400.1851,99.189)"><path
             d="m 0,0 c 0.041,0.293 0.082,0.545 0.082,0.754 0,1.214 -0.794,1.339 -1.716,1.339 -1.966,0 -4.101,-2.176 -4.101,-2.176 l -2.344,-13.102 -6.278,0 2.72,15.027 c 0.502,2.804 0.67,5.232 0.67,5.232 l 5.986,0 c 0,0 -0.042,-1.674 -0.252,-2.804 0,0 3.223,3.181 6.279,3.181 3.934,0 5.524,-1.842 5.524,-4.855 0,-0.628 -0.083,-1.34 -0.209,-2.051 l -2.469,-13.73 -6.32,0 L 0,0 z"
             style="fill:#a7976a;fill-opacity:1;fill-rule:nonzero;stroke:none"
             id="path66" /></g><g
           id="g68"
           transform="translate(410.8374,89.6455)"><path
             d="m 0,0 c 0,0.67 0.084,1.341 0.21,2.011 l 1.8,9.835 -3.558,0 0.753,4.102 3.935,0.586 1.924,4.981 5.15,0 -1.089,-4.897 5.232,0 -0.879,-4.772 -5.232,0 -1.674,-9.124 c 0,0 -0.042,-0.209 -0.042,-0.376 0,-0.461 0.209,-1.005 1.004,-1.005 1.382,0 4.312,1.088 4.312,1.088 l -0.67,-4.982 c 0,0 -3.391,-1.591 -6.697,-1.591 C 0.963,-4.144 0,-2.26 0,0"
             style="fill:#a7976a;fill-opacity:1;fill-rule:nonzero;stroke:none"
             id="path70" /></g><g
           id="g72"
           transform="translate(151.8789,123.2339)"><path
             d="m 0,0 c -10.569,-0.959 -21.363,-16.321 -21.363,-29.429 0,-6.76 4.22,-8.381 12.488,-8.381 2.646,0 7.181,0.438 9.578,0.928 l 1.504,6.067 c -2.285,-0.502 -6.681,-0.975 -8.808,-0.975 -4.81,0 -7.047,1.317 -7.047,5.524 0,7.466 7.595,22.739 13.181,24.377 L 0,0 z"
             style="fill:#a7976a;fill-opacity:1;fill-rule:nonzero;stroke:none"
             id="path74" /></g><g
           id="g76"
           transform="translate(200.7832,94.1084)"><path
             d="m 0,0 c 1.725,1.723 3.725,5.739 3.725,9.417 0,4.569 -1.875,7.172 -6.825,7.172 -1.114,0 -2.515,-0.163 -3.409,-0.294 L -10.083,-3.069 C -4.935,-3.069 -2.338,-2.339 0,0 M -1.864,22.004 C 5.984,22.004 10.75,18.665 10.75,10.453 10.75,5.117 8.206,0.049 4.993,-3.164 0.175,-7.982 -6.313,-8.62 -12.662,-8.62 c -1.378,0 -4.022,0.117 -5.297,0.283 0.94,3.723 4.298,21.444 4.901,26.009 0.173,1.306 0.331,2.312 0.262,3.303 3.405,0.529 7.807,1.029 10.932,1.029"
             style="fill:#a7976a;fill-opacity:1;fill-rule:nonzero;stroke:none"
             id="path78" /></g><g
           id="g80"
           transform="translate(163.0547,97.1812)"><path
             d="M 0,0 C 2.432,0.251 5.992,1.406 5.992,3.352 5.992,4.331 5.326,5.011 4.239,5.011 2.096,5.011 0.551,2.67 0,0 m -0.042,-11.678 c -5.266,0 -6.906,3.63 -6.906,7.618 0,5.735 3.431,13.519 11.928,13.519 3.113,0 7.242,-1.698 7.242,-5.273 0,-4.569 -6.396,-6.974 -12.599,-7.576 -0.062,-0.323 -0.084,-0.711 -0.084,-1.046 0,-1.393 0.779,-2.429 2.511,-2.429 2.365,0 5.386,1.211 8.079,2.721 L 9.292,-9.167 c -2.742,-1.627 -6.144,-2.511 -9.334,-2.511"
             style="fill:#a7976a;fill-opacity:1;fill-rule:nonzero;stroke:none"
             id="path82" /></g><g
           id="g84"
           transform="translate(219.5659,97.1812)"><path
             d="M 0,0 C 2.433,0.251 5.993,1.406 5.993,3.352 5.993,4.331 5.326,5.011 4.24,5.011 2.096,5.011 0.552,2.67 0,0 m -0.041,-11.678 c -5.267,0 -6.907,3.63 -6.907,7.618 0,5.735 3.432,13.519 11.929,13.519 3.113,0 7.241,-1.698 7.241,-5.273 0,-4.569 -6.395,-6.974 -12.598,-7.576 -0.062,-0.323 -0.084,-0.711 -0.084,-1.046 0,-1.393 0.779,-2.429 2.511,-2.429 2.364,0 5.386,1.211 8.079,2.721 L 9.293,-9.167 c -2.742,-1.627 -6.145,-2.511 -9.334,-2.511 m 4.979,23.941 -2.554,3.432 8.625,7.2 2.846,-3.852 -8.917,-6.78 z"
             style="fill:#a7976a;fill-opacity:1;fill-rule:nonzero;stroke:none"
             id="path86" /></g><g
           id="g88"
           transform="translate(317.2241,97.1812)"><path
             d="M 0,0 C 2.432,0.251 5.992,1.406 5.992,3.352 5.992,4.331 5.326,5.011 4.24,5.011 2.096,5.011 0.551,2.67 0,0 m -0.042,-11.678 c -5.266,0 -6.906,3.63 -6.906,7.618 0,5.735 3.432,13.519 11.929,13.519 3.113,0 7.241,-1.698 7.241,-5.273 0,-4.569 -6.396,-6.974 -12.599,-7.576 -0.061,-0.323 -0.083,-0.711 -0.083,-1.046 0,-1.393 0.778,-2.429 2.511,-2.429 2.364,0 5.385,1.211 8.079,2.721 L 9.293,-9.167 c -2.743,-1.627 -6.145,-2.511 -9.335,-2.511"
             style="fill:#a7976a;fill-opacity:1;fill-rule:nonzero;stroke:none"
             id="path90" /></g><g
           id="g92"
           transform="translate(372.395,97.1812)"><path
             d="M 0,0 C 2.432,0.251 5.992,1.406 5.992,3.352 5.992,4.331 5.326,5.011 4.239,5.011 2.096,5.011 0.551,2.67 0,0 m -0.042,-11.678 c -5.266,0 -6.906,3.63 -6.906,7.618 0,5.735 3.431,13.519 11.928,13.519 3.113,0 7.242,-1.698 7.242,-5.273 0,-4.569 -6.396,-6.974 -12.599,-7.576 -0.062,-0.323 -0.084,-0.711 -0.084,-1.046 0,-1.393 0.779,-2.429 2.512,-2.429 2.364,0 5.385,1.211 8.078,2.721 L 9.292,-9.167 c -2.742,-1.627 -6.144,-2.511 -9.334,-2.511"
             style="fill:#a7976a;fill-opacity:1;fill-rule:nonzero;stroke:none"
             id="path94" /></g><g
           id="g96"
           transform="translate(186.3516,143.0957)"><path
             d="m 0,0 -5.648,0 -3.057,-16.687 -4.105,0 3.056,16.687 -5.71,0 0.679,3.688 15.896,0 L 0,0 z"
             style="fill:#c72845;fill-opacity:1;fill-rule:nonzero;stroke:none"
             id="path98" /></g><g
           id="g100"
           transform="translate(208.2959,138.2212)"><path
             d="m 0,0 c 0,0 -0.957,0.219 -1.883,0.219 -0.586,0 -1.605,-0.5 -2.778,-1.5 l -1.945,-10.531 -4.013,0 2.099,11.343 c 0.371,1.906 0.433,3.719 0.433,3.719 l 3.889,0 c 0,0 -0.031,-1.125 -0.155,-1.844 0.309,0.281 2.285,2.063 3.705,2.063 1.08,0 1.574,-0.219 1.574,-0.219 L 0,0 z"
             style="fill:#c72845;fill-opacity:1;fill-rule:nonzero;stroke:none"
             id="path102" /></g><g
           id="g104"
           transform="translate(218.8315,138.2212)"><path
             d="m 0,0 c 0,0 -0.957,0.219 -1.883,0.219 -0.586,0 -1.604,-0.5 -2.778,-1.5 l -1.944,-10.531 -4.013,0 2.098,11.343 c 0.371,1.906 0.433,3.719 0.433,3.719 l 3.89,0 c 0,0 -0.032,-1.125 -0.156,-1.844 0.31,0.281 2.286,2.063 3.706,2.063 1.08,0 1.574,-0.219 1.574,-0.219 L 0,0 z"
             style="fill:#c72845;fill-opacity:1;fill-rule:nonzero;stroke:none"
             id="path106" /></g><g
           id="g108"
           transform="translate(223.8667,144.1895)"><path
             d="m 0,0 c -1.204,0 -1.976,0.75 -1.976,1.937 0,1.594 1.266,2.907 2.839,2.907 1.142,0 2.006,-0.75 2.006,-1.969 C 2.869,1.156 1.512,0 0,0 m 1.048,-5.937 -2.159,-11.843 -4.014,0 2.778,15.062 3.642,0 c 0,0 -0.03,-1.938 -0.247,-3.219"
             style="fill:#c72845;fill-opacity:1;fill-rule:nonzero;stroke:none"
             id="path110" /></g><g
           id="g112"
           transform="translate(238.1128,138.3774)"><path
             d="M 0,0 -3.951,0 -5.34,-7.437 C -5.371,-7.594 -5.401,-7.843 -5.401,-8 c 0,-0.437 0.184,-0.812 0.833,-0.812 1.049,0 3.179,0.906 3.179,0.906 l -0.432,-3.25 c 0,0 -2.346,-1.156 -4.66,-1.156 -2.409,0 -3.087,1.219 -3.087,2.812 0,0.5 0.061,1.032 0.153,1.563 L -7.933,0 l -2.685,0 0.463,2.625 2.932,0.437 1.42,3.688 3.24,0 -0.833,-3.656 3.952,0 L 0,0 z"
             style="fill:#c72845;fill-opacity:1;fill-rule:nonzero;stroke:none"
             id="path114" /></g><g
           id="g116"
           transform="translate(247.2993,138.6899)"><path
             d="m 0,0 c -3.057,0 -3.982,-4.031 -3.982,-6.594 0,-1.718 0.617,-2.968 2.408,-2.968 3.055,0 4.012,3.968 4.012,6.531 C 2.438,-1.281 1.852,0 0,0 m -2.161,-12.687 c -3.797,0 -6.081,2.375 -6.081,6.125 0,5.062 3.519,9.655 8.828,9.655 3.766,0 6.051,-2.437 6.051,-6.187 0,-5.281 -3.458,-9.593 -8.798,-9.593"
             style="fill:#c72845;fill-opacity:1;fill-rule:nonzero;stroke:none"
             id="path118" /></g><g
           id="g120"
           transform="translate(260.7007,144.1895)"><path
             d="m 0,0 c -1.204,0 -1.976,0.75 -1.976,1.937 0,1.594 1.266,2.907 2.84,2.907 1.143,0 2.007,-0.75 2.007,-1.969 C 2.871,1.156 1.513,0 0,0 m 1.05,-5.937 -2.161,-11.843 -4.013,0 2.778,15.062 3.642,0 c 0,0 -0.03,-1.938 -0.246,-3.219"
             style="fill:#c72845;fill-opacity:1;fill-rule:nonzero;stroke:none"
             id="path122" /></g><g
           id="g124"
           transform="translate(274.6938,138.2212)"><path
             d="m 0,0 c 0,0 -0.957,0.219 -1.883,0.219 -0.587,0 -1.605,-0.5 -2.778,-1.5 l -1.944,-10.531 -4.014,0 2.099,11.343 c 0.371,1.906 0.433,3.719 0.433,3.719 l 3.889,0 c 0,0 -0.031,-1.125 -0.155,-1.844 0.309,0.281 2.285,2.063 3.705,2.063 1.08,0 1.574,-0.219 1.574,-0.219 L 0,0 z"
             style="fill:#c72845;fill-opacity:1;fill-rule:nonzero;stroke:none"
             id="path126" /></g><g
           id="g128"
           transform="translate(303.9038,138.5337)"><path
             d="m 0,0 c -2.654,0 -3.612,-4.312 -3.612,-6.562 0,-1.25 0.309,-2.469 1.482,-2.469 0.987,0 2.5,1.125 3.796,2.906 l 0.958,5.438 C 1.76,-0.219 0.987,0 0,0 M 5.772,-5.5 C 5.247,-8.531 5.093,-12.125 5.093,-12.125 l -3.797,0 c 0,0 0,1.75 0.154,2.75 -0.339,-0.5 -2.129,-3.093 -4.784,-3.093 -3.457,0 -4.383,2.843 -4.383,5.468 0,4.531 2.5,10.25 7.593,10.25 1.451,0 2.964,-0.75 3.364,-1 0,0 0.094,1.093 0.217,1.812 L 4.383,9.093 8.55,9.968 5.772,-5.5 z"
             style="fill:#c72845;fill-opacity:1;fill-rule:nonzero;stroke:none"
             id="path130" /></g><g
           id="g132"
           transform="translate(344.4165,143.752)"><path
             d="M 0,0 C -1.481,0 -2.531,-0.25 -2.531,-0.25 L -3.55,-5.531 c 0,0 1.42,0.031 1.636,0.031 0.68,0.032 1.235,0.063 1.76,0.219 1.481,0.406 2.377,1.813 2.377,3.375 C 2.223,-0.812 1.698,0 0,0 m 0.401,-8.531 c -0.308,0.125 -0.925,0.219 -1.667,0.219 -1.388,0 -2.747,-0.094 -2.747,-0.094 l -1.049,-5.468 1.235,0 c 1.017,0 2.561,0 3.303,0.219 1.42,0.468 2.191,1.78 2.191,3.312 0,0.968 -0.494,1.531 -1.266,1.812 m 2.162,2.313 c 2.284,-0.438 3.117,-2.469 3.117,-4.188 0,-3.312 -2.346,-5.812 -5.248,-6.499 -1.543,-0.344 -3.457,-0.438 -5.123,-0.438 l -5.033,0 3.674,20.031 c 0,0 3.704,0.562 6.667,0.562 4.106,0 5.741,-1.531 5.741,-4.062 0,-2.438 -1.388,-4.563 -3.795,-5.406"
             style="fill:#c72845;fill-opacity:1;fill-rule:nonzero;stroke:none"
             id="path134" /></g><g
           id="g136"
           transform="translate(371.6323,130.7837)"><path
             d="m 0,0 c -0.062,-0.344 -0.093,-0.718 -0.093,-1.093 0,-0.688 0.217,-1.782 0.834,-2.969 l -3.766,-0.625 c 0,0 -1.049,1.375 -1.049,3.406 0,0.531 0.031,1.125 0.154,1.781 L -1.019,16.843 3.118,17.718 0,0 z"
             style="fill:#c72845;fill-opacity:1;fill-rule:nonzero;stroke:none"
             id="path138" /></g><g
           id="g140"
           transform="translate(387.7866,145.377)"><path
             d="m 0,0 c 0,0 -1.266,0.437 -2.284,0.437 -1.543,0 -2.253,-0.906 -2.47,-2.875 l -0.154,-1.468 3.55,0 L -1.883,-7 -5.278,-7 -7.192,-18.312 c -0.34,-1.906 -1.142,-3.937 -3.242,-5.405 -0.802,-0.563 -4.042,-1.782 -4.042,-1.782 l -10e-4,3.5 c 2.562,1.438 3.056,2.532 3.365,4.344 L -9.261,-7 l -2.963,0 0.463,2.657 2.994,0.405 0.279,1.625 c 0.123,0.782 0.277,1.501 0.586,2.219 0.833,2.031 2.655,3.625 5.834,3.625 1.512,0 2.777,-0.469 2.777,-0.469 L 0,0 z"
             style="fill:#c72845;fill-opacity:1;fill-rule:nonzero;stroke:none"
             id="path142" /></g><g
           id="g144"
           transform="translate(394.0229,138.6899)"><path
             d="m 0,0 c -3.056,0 -3.982,-4.031 -3.982,-6.594 0,-1.718 0.618,-2.968 2.408,-2.968 3.055,0 4.012,3.968 4.012,6.531 C 2.438,-1.281 1.853,0 0,0 m -2.161,-12.687 c -3.797,0 -6.08,2.375 -6.08,6.125 0,5.062 3.518,9.655 8.828,9.655 3.766,0 6.05,-2.437 6.05,-6.187 0,-5.281 -3.457,-9.593 -8.798,-9.593"
             style="fill:#c72845;fill-opacity:1;fill-rule:nonzero;stroke:none"
             id="path146" /></g><g
           id="g148"
           transform="translate(412.8481,138.2212)"><path
             d="m 0,0 c 0,0 -0.957,0.219 -1.883,0.219 -0.587,0 -1.522,-0.5 -2.696,-1.5 l -1.944,-10.531 -4.013,0 2.098,11.343 c 0.372,1.906 0.433,3.719 0.433,3.719 l 3.889,0 c 0,0 -0.03,-1.125 -0.155,-1.844 0.309,0.281 2.203,2.063 3.623,2.063 1.08,0 1.574,-0.219 1.574,-0.219 L 0,0 z"
             style="fill:#c72845;fill-opacity:1;fill-rule:nonzero;stroke:none"
             id="path150" /></g><g
           id="g152"
           transform="translate(424.6411,138.3774)"><path
             d="M 0,0 -3.95,0 -5.34,-7.437 C -5.371,-7.594 -5.402,-7.843 -5.402,-8 c 0,-0.437 0.185,-0.812 0.834,-0.812 1.049,0 3.178,0.906 3.178,0.906 l -0.431,-3.25 c 0,0 -2.346,-1.156 -4.661,-1.156 -2.408,0 -3.087,1.219 -3.087,2.812 0,0.5 0.062,1.032 0.155,1.563 L -7.933,0 l -2.521,0 0.463,2.625 2.768,0.437 1.419,3.688 3.242,0 -0.834,-3.656 3.952,0 L 0,0 z"
             style="fill:#c72845;fill-opacity:1;fill-rule:nonzero;stroke:none"
             id="path154" /></g><g
           id="g156"
           transform="translate(187.5981,134.501)"><path
             d="M 0,0 C 2.264,0.276 5.123,1.359 5.123,2.936 5.123,3.718 4.646,4.312 3.519,4.312 1.604,4.312 0.434,2.217 0,0 m 0.372,-8.432 c -3.564,0 -4.875,2.329 -4.875,5.434 0,4.403 2.526,10.276 8.572,10.276 2.45,0 5.093,-1.381 5.093,-3.747 0,-3.614 -4.59,-5.294 -9.441,-5.779 -0.034,-0.252 -0.062,-0.597 -0.062,-0.907 0,-1.229 0.608,-2.125 2.038,-2.125 1.753,0 3.942,0.922 5.829,2.063 L 6.975,-6.56 C 4.825,-7.849 2.446,-8.432 0.372,-8.432"
             style="fill:#c72845;fill-opacity:1;fill-rule:nonzero;stroke:none"
             id="path158" /></g><g
           id="g160"
           transform="translate(278.7524,134.501)"><path
             d="M 0,0 C 2.264,0.276 5.123,1.359 5.123,2.936 5.123,3.718 4.646,4.312 3.519,4.312 1.604,4.312 0.434,2.217 0,0 m 0.371,-8.432 c -3.563,0 -4.874,2.329 -4.874,5.434 0,4.403 2.526,10.276 8.571,10.276 2.452,0 5.093,-1.381 5.093,-3.747 0,-3.614 -4.589,-5.294 -9.44,-5.779 -0.034,-0.252 -0.063,-0.597 -0.063,-0.907 0,-1.229 0.609,-2.125 2.039,-2.125 1.753,0 3.942,0.922 5.829,2.063 L 6.975,-6.56 C 4.824,-7.849 2.445,-8.432 0.371,-8.432"
             style="fill:#c72845;fill-opacity:1;fill-rule:nonzero;stroke:none"
             id="path162" /></g><g
           id="g164"
           transform="translate(317.2905,134.501)"><path
             d="M 0,0 C 2.264,0.276 5.123,1.359 5.123,2.936 5.123,3.718 4.646,4.312 3.519,4.312 1.604,4.312 0.434,2.217 0,0 m 0.371,-8.432 c -3.563,0 -4.874,2.329 -4.874,5.434 0,4.403 2.526,10.276 8.571,10.276 2.451,0 5.093,-1.381 5.093,-3.747 0,-3.614 -4.589,-5.294 -9.44,-5.779 -0.034,-0.252 -0.063,-0.597 -0.063,-0.907 0,-1.229 0.609,-2.125 2.039,-2.125 1.753,0 3.942,0.922 5.829,2.063 L 6.975,-6.56 C 4.824,-7.849 2.445,-8.432 0.371,-8.432"
             style="fill:#c72845;fill-opacity:1;fill-rule:nonzero;stroke:none"
             id="path166" /></g><g
           id="g168"
           transform="translate(356.8511,134.501)"><path
             d="M 0,0 C 2.264,0.276 5.123,1.359 5.123,2.936 5.123,3.718 4.646,4.312 3.519,4.312 1.604,4.312 0.435,2.217 0,0 m 0.372,-8.432 c -3.564,0 -4.875,2.329 -4.875,5.434 0,4.403 2.526,10.276 8.572,10.276 2.451,0 5.093,-1.381 5.093,-3.747 0,-3.614 -4.59,-5.294 -9.441,-5.779 -0.033,-0.252 -0.062,-0.597 -0.062,-0.907 0,-1.229 0.608,-2.125 2.038,-2.125 1.753,0 3.943,0.922 5.829,2.063 L 6.975,-6.56 C 4.825,-7.849 2.446,-8.432 0.372,-8.432"
             style="fill:#c72845;fill-opacity:1;fill-rule:nonzero;stroke:none"
             id="path170" /></g></g></g></g></svg>