<svg xmlns="http://www.w3.org/2000/svg" viewBox="0 0 330.55 157.54"><defs><style>.cls-1{fill:#fefefe;}.cls-2{fill:#fff;}.cls-3{fill:#a3daf8;}.cls-4{fill:#293384;}.cls-5{fill:#009975;}</style></defs><title>Fichier 1</title><g id="Calque_2" data-name="Calque 2"><g id="logo_orne" data-name="logo orne"><path class="cls-1" d="M15,79a63.59,63.59,0,0,0,63.59,63.59v-24.1A39.49,39.49,0,0,1,39.1,79Z"></path><path class="cls-2" d="M93.59,157.54h-15A78.68,78.68,0,0,1,0,79V64H54.1V79a24.52,24.52,0,0,0,24.49,24.49h15Z"></path><path class="cls-3" d="M.15,31.34V50.46A50.46,50.46,0,0,0,50.61,0H31.49A31.34,31.34,0,0,1,.15,31.34Z"></path><polygon class="cls-4" points="118.08 99.64 121.77 99.64 121.77 112.96 128.6 112.96 128.6 116.37 118.08 116.37 118.08 99.64"></polygon><polygon class="cls-4" points="131.01 99.64 142.38 99.64 142.38 103.04 134.7 103.04 134.7 106.16 141.95 106.16 141.95 109.56 134.7 109.56 134.7 112.96 142.8 112.96 142.8 116.37 131.01 116.37 131.01 99.64"></polygon><path class="cls-4" d="M153.22,99.63h5.53a15.8,15.8,0,0,1,3.82.45,8.7,8.7,0,0,1,3.15,1.46,7.13,7.13,0,0,1,2.14,2.61,8.72,8.72,0,0,1,.79,3.9,7.68,7.68,0,0,1-2.83,6.18,9.18,9.18,0,0,1-3,1.59,11.79,11.79,0,0,1-3.57.55h-6ZM156.91,113h1.91a9.92,9.92,0,0,0,2.38-.26,5.09,5.09,0,0,0,1.9-.86,4,4,0,0,0,1.26-1.58,5.61,5.61,0,0,0,.47-2.4,4.66,4.66,0,0,0-.47-2.14,4.13,4.13,0,0,0-1.24-1.5,5.57,5.57,0,0,0-1.83-.89,8.42,8.42,0,0,0-2.21-.29h-2.17V113Z"></path><path class="cls-4" d="M171.54,99.63H182.9V103h-7.68v3.12h7.26v3.4h-7.26V113h8.11v3.4H171.54V99.63ZM177.16,95H182l-4.09,3.41h-3.12Z"></path><path class="cls-4" d="M186.52,99.63h6.21a12.08,12.08,0,0,1,2.46.24,5.54,5.54,0,0,1,2,.82,4,4,0,0,1,1.37,1.56,5.29,5.29,0,0,1,.51,2.47,5.75,5.75,0,0,1-.47,2.45,4.09,4.09,0,0,1-1.3,1.59,5.44,5.44,0,0,1-2,.84,11.94,11.94,0,0,1-2.46.24h-2.69v6.53h-3.69V99.63Zm3.69,7.1h2.45a5,5,0,0,0,1-.1,2.52,2.52,0,0,0,.83-.32,1.73,1.73,0,0,0,.59-.61,2,2,0,0,0,.22-1,1.7,1.7,0,0,0-.29-1,2,2,0,0,0-.76-.6,3.07,3.07,0,0,0-1-.28c-.37,0-.74,0-1.08,0h-1.89Z"></path><path class="cls-4" d="M205.4,99.63h3l7.28,16.74h-4.16l-1.44-3.55h-6.5l-1.4,3.55h-4.06Zm1.42,4.87-2,5.2h4.08Z"></path><path class="cls-4" d="M217.64,99.63h6.48a11.81,11.81,0,0,1,2.42.25,5.84,5.84,0,0,1,2,.83,4.24,4.24,0,0,1,1.37,1.56,5.26,5.26,0,0,1,.51,2.45,4.94,4.94,0,0,1-.92,3,4.17,4.17,0,0,1-2.7,1.57l4.26,7.07h-4.42l-3.5-6.69h-1.82v6.69h-3.69V99.63Zm3.69,6.93h2.17c.33,0,.68,0,1.05,0a3.12,3.12,0,0,0,1-.21,1.57,1.57,0,0,0,1-1.62,1.78,1.78,0,0,0-.26-1,1.67,1.67,0,0,0-.66-.58,2.67,2.67,0,0,0-.92-.27,7.23,7.23,0,0,0-1-.08h-2.41v3.81Z"></path><polygon class="cls-4" points="236 102.9 231.23 102.9 231.23 99.63 244.46 99.63 244.46 102.9 239.69 102.9 239.69 116.37 236 116.37 236 102.9"></polygon><polygon class="cls-4" points="246.71 99.64 258.08 99.64 258.08 103.04 250.4 103.04 250.4 106.16 257.65 106.16 257.65 109.56 250.4 109.56 250.4 112.96 258.5 112.96 258.5 116.37 246.71 116.37 246.71 99.64"></polygon><polygon class="cls-4" points="261.69 99.64 267.27 99.64 271.12 110.55 271.17 110.55 275.05 99.64 280.6 99.64 280.6 116.37 276.91 116.37 276.91 103.53 276.86 103.53 272.47 116.37 269.66 116.37 265.42 103.53 265.38 103.53 265.38 116.37 261.69 116.37 261.69 99.64"></polygon><polygon class="cls-4" points="284.38 99.64 295.75 99.64 295.75 103.04 288.06 103.04 288.06 106.16 295.32 106.16 295.32 109.56 288.06 109.56 288.06 112.96 296.17 112.96 296.17 116.37 284.38 116.37 284.38 99.64"></polygon><polygon class="cls-4" points="299.36 99.64 304.37 99.64 311.48 111.26 311.53 111.26 311.53 99.64 315.21 99.64 315.21 116.37 310.39 116.37 303.09 104.46 303.05 104.46 303.05 116.37 299.36 116.37 299.36 99.64"></polygon><polygon class="cls-4" points="322.09 102.9 317.32 102.9 317.32 99.63 330.55 99.63 330.55 102.9 325.78 102.9 325.78 116.37 322.09 116.37 322.09 102.9"></polygon><path class="cls-4" d="M158.83,40.34h11.9l-.87,6.19H170a17.79,17.79,0,0,1,5.24-5.36,12.58,12.58,0,0,1,6.82-1.79c.69,0,1.37,0,2.06.08a10.87,10.87,0,0,1,1.91.32l-1.51,10.87a19,19,0,0,0-2.46-.59,14.7,14.7,0,0,0-2.54-.2,13.89,13.89,0,0,0-5.56,1,8.42,8.42,0,0,0-3.41,2.66,12.66,12.66,0,0,0-1.94,4.08,38.41,38.41,0,0,0-1.07,5.24L165.34,78.9h-11.9Z"></path><path class="cls-4" d="M192.55,40.34H204l-.72,5.23h.16a12.1,12.1,0,0,1,1.9-2.22,15.15,15.15,0,0,1,2.7-2,15.74,15.74,0,0,1,3.41-1.43,14.41,14.41,0,0,1,4-.56,15.4,15.4,0,0,1,7.14,1.39,8.49,8.49,0,0,1,3.81,3.85,13.79,13.79,0,0,1,1.27,5.79,44.17,44.17,0,0,1-.47,7.22L224.29,78.9h-11.9L215,60c.15-1.11.29-2.26.39-3.45a9.3,9.3,0,0,0-.24-3.29,4.67,4.67,0,0,0-1.5-2.46,5.12,5.12,0,0,0-3.41-1,8,8,0,0,0-3.85.83,7,7,0,0,0-2.5,2.22,10.23,10.23,0,0,0-1.43,3.14,25.91,25.91,0,0,0-.72,3.65l-2.69,19.2h-11.9Z"></path><path class="cls-4" d="M269.8,71.28a22.77,22.77,0,0,1-8,5.64,23.56,23.56,0,0,1-9.32,2,22.69,22.69,0,0,1-8.17-1.43,16.39,16.39,0,0,1-6.23-4.09A16.09,16.09,0,0,1,234.45,67a19.21,19.21,0,0,1-.52-8.34,22.47,22.47,0,0,1,2.82-8.33,23.6,23.6,0,0,1,12.81-10.47,26.08,26.08,0,0,1,8.57-1.43,17.64,17.64,0,0,1,7.3,1.43A12.81,12.81,0,0,1,270.59,44a15.86,15.86,0,0,1,2.74,6.38,25,25,0,0,1,.12,8.33l-.56,3.73H245.28a8,8,0,0,0,2.34,5.44,7.72,7.72,0,0,0,5.59,2,9.68,9.68,0,0,0,5.12-1.31,16.88,16.88,0,0,0,4-3.37Zm-7.7-17a6.23,6.23,0,0,0-1.27-5.16,6.1,6.1,0,0,0-5-2.14,9.42,9.42,0,0,0-3.57.64,10.05,10.05,0,0,0-2.77,1.62,9.27,9.27,0,0,0-2,2.3,9.08,9.08,0,0,0-1.11,2.74Z"></path><path class="cls-5" d="M78.59,15.36a63.43,63.43,0,0,0-23.45,4.49A58.73,58.73,0,0,1,19.66,55.1a63.55,63.55,0,0,0,58.93,87.44v-24.1A39.49,39.49,0,1,1,118.08,79h24.11A63.59,63.59,0,0,0,78.59,15.36Z"></path></g></g></svg>
