<?xml version="1.0" encoding="UTF-8" standalone="no"?>
<!-- Created with Inkscape (http://www.inkscape.org/) -->

<svg
   xmlns:dc="http://purl.org/dc/elements/1.1/"
   xmlns:cc="http://creativecommons.org/ns#"
   xmlns:rdf="http://www.w3.org/1999/02/22-rdf-syntax-ns#"
   xmlns:svg="http://www.w3.org/2000/svg"
   xmlns="http://www.w3.org/2000/svg"
   xmlns:sodipodi="http://sodipodi.sourceforge.net/DTD/sodipodi-0.dtd"
   xmlns:inkscape="http://www.inkscape.org/namespaces/inkscape"
   id="svg2"
   version="1.1"
   inkscape:version="0.91 r13725"
   xml:space="preserve"
   width="800"
   height="900"
   viewBox="0 0 800 899.99996"
   sodipodi:docname="Logo Haute Vienne.svg"><metadata
     id="metadata8"><rdf:RDF><cc:Work
         rdf:about=""><dc:format>image/svg+xml</dc:format><dc:type
           rdf:resource="http://purl.org/dc/dcmitype/StillImage" /><dc:title></dc:title></cc:Work></rdf:RDF></metadata><defs
     id="defs6" /><sodipodi:namedview
     pagecolor="#ffffff"
     bordercolor="#666666"
     borderopacity="1"
     objecttolerance="10"
     gridtolerance="10"
     guidetolerance="10"
     inkscape:pageopacity="0"
     inkscape:pageshadow="2"
     inkscape:window-width="1440"
     inkscape:window-height="790"
     id="namedview4"
     showgrid="false"
     inkscape:zoom="0.31714774"
     inkscape:cx="743.32556"
     inkscape:cy="-39.990913"
     inkscape:window-x="0"
     inkscape:window-y="1"
     inkscape:window-maximized="1"
     inkscape:current-layer="g10" /><g
     id="g10"
     inkscape:groupmode="layer"
     inkscape:label="Logo Haute Vienne"
     transform="matrix(1.25,0,0,-1.25,0,899.99995)"><g
       id="g4765"><path
         inkscape:connector-curvature="0"
         id="path166"
         style="fill:#288643;fill-opacity:1;fill-rule:nonzero;stroke:none"
         d="m 292.21617,480.62002 c -0.15042,-0.18258 -0.2901,-0.39739 -0.462,-0.57997 0.29009,0.24703 0.48348,0.47257 0.462,0.57997 M 425.93786,334.01748 c 7.41346,9.03243 15.94431,16.63643 25.07684,23.46715 L 299.82302,623.01244 212.69871,485.63566 c -4.29766,-25.36816 -8.06885,-50.83296 -11.25987,-76.39443 8.42342,12.53371 14.90214,23.82157 24.3355,35.73235 1.67609,2.09433 7.7143,4.72566 9.62676,5.86411 7.82174,4.60751 15.67572,9.16131 23.51895,13.70439 0.65539,0.3759 4.05054,2.12654 8.45564,4.42492 8.35895,4.82231 19.09236,10.16015 27.47279,14.97172 7.30602,-42.21938 13.29052,-87.47822 22.08997,-129.42911 7.76802,-36.99969 15.84763,-77.65101 35.64909,-110.45132 4.61999,-7.63622 10.32513,-15.7987 18.01794,-20.78212 0.8273,1.28882 -0.71985,2.07284 0.086,3.36166 12.98967,20.82508 23.90573,42.5738 33.18868,65.2784 6.00598,14.69248 11.88303,29.68567 22.05774,42.10125 m 42.90139,-7.8188 c -0.87028,-2.09433 -1.74056,-4.1779 -2.63232,-6.25075 -11.01275,-25.52925 -24.26029,-51.07998 -41.44019,-73.03277 -8.98211,-11.49192 -18.9097,-19.49331 -30.05138,-26.76437 -0.70912,-0.45108 -2.15958,-1.33177 -4.1365,-2.50244 l 128.0058,21.1795 -49.74541,87.37083 z m -232.84722,64.91324 c -24.05615,-46.75171 -41.45093,-99.34604 -48.14454,-152.47738 -0.11818,-0.9881 -11.79707,-6.37964 -11.72186,-6.34742 -7.811,-4.61824 -15.66497,-9.16131 -23.5082,-13.70438 -7.87547,-4.52159 -15.74018,-9.05391 -23.64788,-13.50032 0.30084,0.1611 -2.83645,-1.44992 -5.65142,-2.94279 -1.41823,-0.82699 -4.53403,-3.43683 -5.95226,-4.25309 1.11739,52.18622 5.67291,106.31638 11.79708,157.74004 L 0.92081,153.17546 285.9846,200.34603 c -6.55393,9.92387 -11.24913,21.57689 -14.81618,30.81339 -19.5651,50.86517 -26.60252,105.87603 -35.17635,159.9525" /><path
         inkscape:connector-curvature="0"
         id="path170"
         style="fill:#f7e019;fill-opacity:1;fill-rule:nonzero;stroke:none"
         d="M 459.14695,363.28858 279.08574,624.70294 212.77285,497.64739 c -5.46878,-30.59857 -10.18546,-61.33678 -14.03186,-92.20386 8.42341,12.53371 17.3518,24.79892 26.78516,36.69897 1.66535,2.10506 7.70356,4.72564 9.61602,5.87484 7.83248,4.59676 15.67571,9.16131 23.52969,13.70438 0.64464,0.36516 4.05054,2.1158 8.4449,4.41419 8.35895,4.83304 16.72864,9.6661 25.09833,14.47767 7.30602,-42.21938 13.55912,-84.65358 22.34783,-126.61519 7.77877,-36.98895 15.84762,-77.64028 35.64909,-110.44059 4.61999,-7.63622 10.32513,-15.79871 18.01794,-20.78212 0.8273,1.28881 1.66534,2.56689 2.46041,3.8557 12.98968,20.83583 23.91648,42.57381 33.18868,65.28915 6.00598,14.69248 11.88303,29.68567 22.05774,42.09051 9.59453,11.6745 20.99407,20.98617 33.21017,29.27754 m -166.93186,117.325 c -0.15042,-0.18258 -0.29009,-0.38665 -0.45125,-0.56923 0.29009,0.24703 0.47274,0.46183 0.45125,0.56923 M 474.79043,340.57324 c -2.91166,-6.84145 -5.62993,-13.77956 -8.58458,-20.62102 -11.01275,-25.52924 -24.26029,-51.07997 -41.44018,-73.0435 -5.38282,-6.88442 -11.13094,-12.51224 -17.25511,-17.49565 l 122.38662,31.18929 -55.10675,79.97088 z m -240.89458,50.07041 c -24.05616,-46.75172 -40.6881,-96.99396 -47.38171,-150.13604 -0.11818,-0.97735 -9.69122,-5.90707 -9.62675,-5.87484 -7.811,-4.61825 -15.66497,-9.16132 -23.51895,-13.70439 -7.86472,-4.53232 -15.72943,-9.05392 -23.62638,-13.50032 0.29009,0.16111 -2.8472,-1.44992 -5.67291,-2.95353 -1.40749,-0.81625 -2.82572,-1.6325 -4.24394,-2.43801 0.96697,45.01181 3.96459,89.72291 8.69201,134.1655 L 21.44103,131.05511 287.07939,198.72857 c -7.12337,10.25681 -12.16238,22.68312 -15.91209,32.43514 -19.5651,50.85444 -28.69762,105.41421 -37.27145,159.47994" /><path
         inkscape:connector-curvature="0"
         id="path174"
         style="fill:#4bb6eb;fill-opacity:1;fill-rule:nonzero;stroke:none"
         d="m 567.6919,422.94991 c -18.1791,-3.25426 -34.73587,-10.4179 -50.70167,-18.98852 -8.60607,-4.48937 -43.17,-24.99224 -54.634,-31.75852 -17.34106,-10.54678 -33.85482,-22.12463 -46.95194,-38.08443 -10.17471,-12.41558 -16.0625,-27.39803 -22.05774,-42.09051 -9.28294,-22.7046 -20.20975,-44.45332 -33.19942,-65.28914 -0.79507,-1.28882 -1.62237,-2.57763 -2.46041,-3.86645 -7.70356,4.98342 -13.38721,13.15665 -18.0072,20.79287 -19.80147,32.8003 -27.87032,73.44088 -35.64909,110.44058 -8.8102,41.96161 -15.04181,84.38507 -22.35857,126.62593 0.0215,-0.12888 -0.16117,-0.33294 -0.45126,-0.59071 0.15042,0.19332 0.30084,0.39738 0.45126,0.59071 -8.38044,-4.83305 -16.72864,-9.6661 -25.08759,-14.48841 -4.4051,-2.28765 -7.80026,-4.03828 -8.4449,-4.42493 -7.87547,-4.54307 -15.69721,-9.08613 -23.52969,-13.70439 -1.92321,-1.14919 -7.93993,-3.75904 -9.62676,-5.87484 -9.43337,-11.90004 -18.35101,-24.15451 -26.77442,-36.67748 13.25828,106.29489 36.46564,211.04322 67.1187,314.43829 -0.22563,-0.75181 -10.02429,-5.45598 -9.9061,-5.39153 -7.9077,-4.46789 -15.78316,-8.968 -23.63713,-13.51107 -7.85398,-4.54307 -15.69721,-9.08614 -23.5082,-13.70438 -0.32233,-0.18258 -9.26146,-4.59678 -9.63751,-5.86411 -46.37175,-156.46196 -75.8537,-315.98486 -79.34554,-479.39568 1.41822,0.81624 2.82571,1.63249 4.25468,2.45948 2.81497,1.49288 5.94151,3.1039 5.65142,2.9428 7.89695,4.43566 15.77241,8.96799 23.63713,13.50031 7.85398,4.53233 15.6972,9.08614 23.5082,13.70439 -0.0537,-0.043 9.50857,4.88675 9.6375,5.87484 6.68287,53.13134 23.32555,103.37359 47.38171,150.13604 8.57383,-54.07647 17.70635,-108.6255 37.27145,-159.47994 7.2523,-18.80594 19.15682,-47.65388 41.94516,-51.4344 4.32989,-0.69811 8.72425,0.043 12.83926,1.40696 2.41744,0.77329 4.71668,1.96544 6.95147,3.12536 0.81655,0.42961 55.91255,32.09146 61.80035,35.88273 11.14168,7.28179 21.08002,15.27244 30.06213,26.76436 17.16915,21.96353 30.41669,47.51426 41.44018,73.0435 7.5424,17.48491 13.55912,35.62496 25.18429,50.98332 3.02985,4.00606 6.44649,7.68993 10.00281,11.20194 26.79591,6.91663 55.19274,7.12069 82.47204,11.12676 2.6431,0.38664 7.94,4.29604 9.8847,5.40228 7.9184,4.44641 15.7831,8.95725 23.6478,13.50032 7.8433,4.53233 15.6972,9.08614 23.519,13.70438 1.3537,0.79477 7.5101,5.56338 9.616,5.86411 -24.0239,-3.52276 -48.3917,-4.58604 -72.3081,-8.89282" /><path
         inkscape:connector-curvature="0"
         id="path178"
         style="fill:#288643;fill-opacity:1;fill-rule:nonzero;stroke:none"
         d="m 248.12862,366.60621 18.15761,-33.00438 108.23657,59.51097 -18.15761,33.01511 -108.23657,-59.5217 z" /></g><g
       id="g4835"><g
         id="g4727"><path
           d="m 43.57827,72.333549 12.86075,0 0,-71.0136282 -12.86075,0 0,31.4685312 -30.71752,0 0,-31.4685312 -12.86075,0 0,71.0136282 12.86075,0 0,-28.375379 30.71752,0 0,28.375379 z"
           style="fill:#000000;fill-opacity:1;fill-rule:nonzero;stroke:none"
           id="path182"
           inkscape:connector-curvature="0" /><path
           d="m 90.51731,56.249155 c 4.08278,0 7.52091,-0.515525 10.31439,-1.535836 2.78273,-1.031051 5.00677,-2.459486 6.68286,-4.306785 1.66534,-1.847299 2.85794,-4.081243 3.56706,-6.712571 0.71985,-2.631328 1.07441,-5.520418 1.07441,-8.656531 l 0,-32.488842 C 110.25432,2.1512053 107.37489,1.6464201 103.52848,1.066454 99.68207,0.48648807 95.35218,0.19650507 90.51731,0.19650507 c -3.19101,0 -6.12416,0.31146293 -8.77797,0.92364983 -2.64306,0.6229268 -4.91007,1.6002765 -6.77956,2.9750108 -1.86948,1.3639943 -3.34143,3.1361132 -4.38361,5.3270967 -1.06367,2.1802426 -1.59013,4.8867516 -1.59013,8.0873056 0,3.082412 0.59093,5.670779 1.78353,7.786581 1.1926,2.115803 2.80422,3.844961 4.84561,5.176734 2.05213,1.331775 4.41584,2.298386 7.09114,2.867612 2.68603,0.579966 5.49026,0.880689 8.42341,0.880689 1.35376,0 2.79348,-0.09666 4.28692,-0.257763 1.49343,-0.171842 3.09431,-0.461825 4.80263,-0.880689 l 0,2.051361 c 0,1.439176 -0.18265,2.80317 -0.51572,4.102723 -0.34381,1.299554 -0.93474,2.448746 -1.78353,3.426097 -0.85953,0.99883 -1.97692,1.772118 -3.37366,2.309124 -1.386,0.547745 -3.13729,0.826988 -5.25389,0.826988 -2.8472,0 -5.47952,-0.204061 -7.85397,-0.612186 -2.3852,-0.418864 -4.31915,-0.89143 -5.82333,-1.439175 L 74.08951,53.78967 c 1.5579,0.547746 3.8464,1.095491 6.84402,1.632497 2.98688,0.547745 6.18863,0.826988 9.58378,0.826988 m 1.0207,-46.214707 c 3.81417,0 6.70435,0.204063 8.68127,0.622927 l 0,13.725865 c -0.67688,0.204062 -1.67609,0.408124 -2.96538,0.612186 -1.2893,0.204063 -2.71827,0.300723 -4.28692,0.300723 -1.35376,0 -2.73976,-0.09666 -4.12575,-0.300723 -1.39674,-0.204062 -2.65381,-0.579966 -3.78194,-1.127712 -1.12814,-0.547745 -2.03065,-1.310293 -2.70753,-2.309124 -0.67688,-0.988091 -1.02069,-2.233943 -1.02069,-3.737559 0,-2.942791 0.92399,-4.972672 2.76124,-6.100384 1.83725,-1.127712 4.31915,-1.686199 7.4457,-1.686199"
           style="fill:#000000;fill-opacity:1;fill-rule:nonzero;stroke:none"
           id="path186"
           inkscape:connector-curvature="0" /><path
           d="m 171.0329,2.9642317 c -2.3852,-0.6121859 -5.47952,-1.2458527 -9.28295,-1.9009994 -3.81417,-0.64440679 -7.99364,-0.96661069 -12.55991,-0.96661069 -4.28691,0 -7.86472,0.6121869 -10.76564,1.84729959 -2.87943,1.2243729 -5.20016,2.932051 -6.94072,5.1230345 -1.71906,2.1802425 -2.96538,4.7900893 -3.71747,7.8402823 -0.74135,3.039452 -1.11739,6.368887 -1.11739,9.988305 l 0,30.018616 12.34502,0 0,-28.074655 c 0,-5.73522 0.83805,-9.837944 2.49265,-12.29743 1.67608,-2.459485 4.577,-3.694599 8.73499,-3.694599 1.49344,0 3.07283,0.07518 4.73817,0.214802 1.67609,0.139622 2.91167,0.300724 3.72822,0.504785 l 0,43.347097 12.34503,0 0,-51.9499273 z"
           style="fill:#000000;fill-opacity:1;fill-rule:nonzero;stroke:none"
           id="path190"
           inkscape:connector-curvature="0" /><path
           d="m 186.13273,69.05674 12.34503,2.051362 0,-16.19609 18.99565,0 0,-10.34273 -18.99565,0 0,-21.823909 c 0,-4.306785 0.68762,-7.389198 2.04138,-9.225757 1.37526,-1.8473 3.6745,-2.76021 6.95147,-2.76021 2.23478,0 4.23319,0.236283 5.963,0.719587 1.72981,0.472566 3.11581,0.92365 4.1365,1.321035 l 2.04139,-9.8379434 c -1.42897,-0.6121869 -3.29846,-1.2351138 -5.61919,-1.8902606 -2.30999,-0.64440672 -5.02826,-0.97734958 -8.15481,-0.97734958 -3.81418,0 -6.99444,0.51552523 -9.55155,1.53583568 -2.54636,1.0310505 -4.57701,2.5131864 -6.07045,4.4678867 -1.50418,1.9439604 -2.54636,4.2960452 -3.15878,7.0669952 -0.61241,2.770949 -0.92399,5.917802 -0.92399,9.472779 l 0,46.418769 z"
           style="fill:#000000;fill-opacity:1;fill-rule:nonzero;stroke:none"
           id="path194"
           inkscape:connector-curvature="0" /><path
           d="m 225.5326,27.859815 c 0,4.714909 0.68762,8.849852 2.08436,12.40483 1.39674,3.544237 3.24474,6.508509 5.56547,8.860594 2.32074,2.362825 4.9638,4.134943 7.96142,5.337836 2.98687,1.181412 6.04896,1.782858 9.1755,1.782858 7.349,0 13.08638,-2.287644 17.21213,-6.862932 4.10427,-4.575288 6.16714,-11.406 6.16714,-20.492136 0,-0.687367 -0.0215,-1.449915 -0.0537,-2.309124 -0.043,-0.848469 -0.086,-1.621757 -0.15042,-2.298384 l -35.20857,0 c 0.34381,-4.306785 1.84799,-7.636221 4.54477,-9.999046 2.67529,-2.352084 6.57542,-3.533497 11.67889,-3.533497 2.99762,0 5.73738,0.268503 8.21928,0.816248 2.48189,0.547747 4.42659,1.127713 5.8663,1.750639 l 1.62237,-10.1494069 c -0.67688,-0.3436839 -1.61162,-0.6981077 -2.80422,-1.0740114 -1.19261,-0.3759037 -2.54637,-0.7195875 -4.07204,-1.0310504 -1.53641,-0.30072297 -3.19101,-0.55848609 -4.95305,-0.76254839 -1.77279,-0.2040623 -3.56706,-0.3007229725 -5.40431,-0.3007229725 -4.69519,0 -8.77797,0.6981076125 -12.24833,2.0943217625 -3.4811,1.3962152 -6.3283,3.3509156 -8.57383,5.842622 -2.24553,2.4917063 -3.91087,5.4237563 -5.00677,8.8068933 -1.08516,3.383135 -1.62237,7.088474 -1.62237,11.116017 m 35.81025,5.531158 c 0,1.718418 -0.22563,3.340175 -0.70911,4.876011 -0.48349,1.535837 -1.17112,2.86761 -2.09511,3.995322 -0.91326,1.127712 -2.04139,2.008401 -3.36292,2.663548 -1.32153,0.644407 -2.91167,0.977351 -4.73817,0.977351 -1.9232,0 -3.5778,-0.365164 -5.00678,-1.084751 -1.42897,-0.708848 -2.63231,-1.653979 -3.63152,-2.813911 -0.97772,-1.159932 -1.74055,-2.491706 -2.2885,-3.995322 -0.54795,-1.503616 -0.91325,-3.039452 -1.12814,-4.618248 l 22.96025,0 z"
           style="fill:#000000;fill-opacity:1;fill-rule:nonzero;stroke:none"
           id="path198"
           inkscape:connector-curvature="0" /><path
           inkscape:connector-curvature="0"
           id="path200"
           style="fill:#000000;fill-opacity:1;fill-rule:nonzero;stroke:none"
           d="m 281.24639,36.266101 27.4513,0 0,-11.37378 -27.4513,0 0,11.37378 z" /><path
           d="M 338.70933,1.3231426 C 333.60585,12.3962 328.68503,23.974041 323.95761,36.056669 c -4.73817,12.093367 -9.13253,24.186735 -13.22605,36.280102 l 14.19302,0 c 1.63311,-4.77935 3.3092,-9.666102 5.00677,-14.660254 1.70832,-4.983413 3.4059,-9.880904 5.11422,-14.703215 1.70832,-4.811571 3.41664,-9.472781 5.12496,-13.983628 1.69758,-4.500107 3.37366,-8.64579 5.00677,-12.394091 1.56865,3.748301 3.2125,7.872503 4.91008,12.351131 1.70832,4.467887 3.43813,9.129096 5.16794,13.972887 1.74055,4.865272 3.47036,9.773503 5.16793,14.756916 1.70832,4.994152 3.34143,9.880904 4.91008,14.660254 l 13.774,0 C 374.94934,60.243404 370.51201,48.150036 365.80607,36.056669 361.08939,23.974041 356.16857,12.3962 351.04361,1.3231426 l -12.33428,0 z"
           style="fill:#000000;fill-opacity:1;fill-rule:nonzero;stroke:none"
           id="path204"
           inkscape:connector-curvature="0" /><path
           d="m 401.36169,70.595799 c 0,-2.330605 -0.75209,-4.167164 -2.24553,-5.531159 -1.50418,-1.374734 -3.26622,-2.051361 -5.31835,-2.051361 -2.10586,0 -3.91088,0.676627 -5.39357,2.051361 -1.50418,1.363995 -2.25627,3.200554 -2.25627,5.531159 0,2.384305 0.75209,4.263825 2.25627,5.638559 1.48269,1.363997 3.28771,2.040623 5.39357,2.040623 2.05213,0 3.81417,-0.676626 5.31835,-2.040623 1.49344,-1.374734 2.24553,-3.254254 2.24553,-5.638559 m -1.33228,-69.27373 -12.33428,0 0,53.593165 12.33428,0 0,-53.593165 z"
           style="fill:#000000;fill-opacity:1;fill-rule:nonzero;stroke:none"
           id="path208"
           inkscape:connector-curvature="0" /><path
           d="m 412.78702,27.859815 c 0,4.714909 0.68762,8.849852 2.0951,12.40483 1.386,3.544237 3.23399,6.508509 5.55473,8.860594 2.32074,2.362825 4.9638,4.134943 7.96142,5.337836 2.98687,1.181412 6.0597,1.782858 9.18624,1.782858 7.33826,0 13.07563,-2.287644 17.20139,-6.862932 4.10426,-4.575288 6.16714,-11.406 6.16714,-20.492136 0,-0.687367 -0.0215,-1.449915 -0.0537,-2.309124 -0.043,-0.848469 -0.0859,-1.621757 -0.16116,-2.298384 l -35.19784,0 c 0.34381,-4.306785 1.85874,-7.636221 4.54478,-9.999046 2.67529,-2.352084 6.57542,-3.533497 11.67889,-3.533497 2.99762,0 5.73737,0.268503 8.21927,0.816248 2.4819,0.547747 4.42659,1.127713 5.86631,1.750639 l 1.62237,-10.1494069 c -0.67689,-0.3436839 -1.61163,-0.6981077 -2.80423,-1.0740114 -1.1926,-0.3759037 -2.54636,-0.7195875 -4.07203,-1.0310504 -1.53641,-0.30072297 -3.19101,-0.55848609 -4.95305,-0.76254839 -1.77279,-0.2040623 -3.56706,-0.3007229725 -5.40431,-0.3007229725 -4.69519,0 -8.77797,0.6981076125 -12.24833,2.0943217625 -3.48111,1.3962152 -6.32831,3.3509156 -8.57383,5.842622 -2.24553,2.4917063 -3.91087,5.4237563 -5.00678,8.8068933 -1.08516,3.383135 -1.62236,7.088474 -1.62236,11.116017 m 35.81025,5.531158 c 0,1.718418 -0.22563,3.340175 -0.70912,4.876011 -0.48348,1.535837 -1.17111,2.86761 -2.09511,3.995322 -0.91325,1.127712 -2.04138,2.008401 -3.36291,2.663548 -1.32154,0.644407 -2.91167,0.977351 -4.73817,0.977351 -1.92321,0 -3.57781,-0.365164 -5.00678,-1.084751 -1.42897,-0.708848 -2.63232,-1.653979 -3.63152,-2.813911 -0.97772,-1.159932 -1.74055,-2.491706 -2.28851,-3.995322 -0.54795,-1.503616 -0.92399,-3.039452 -1.12813,-4.618248 l 22.96025,0 z"
           style="fill:#000000;fill-opacity:1;fill-rule:nonzero;stroke:none"
           id="path212"
           inkscape:connector-curvature="0" /><path
           d="m 474.01363,53.177483 c 2.3852,0.676627 5.46877,1.331774 9.28294,1.943961 3.81418,0.612186 8.02588,0.923649 12.65661,0.923649 4.35138,0 7.99365,-0.601446 10.9268,-1.793599 2.91167,-1.202892 5.25389,-2.86761 6.97296,-5.015633 1.74055,-2.158762 2.96538,-4.74713 3.68524,-7.797321 0.70911,-3.039453 1.06367,-6.368887 1.06367,-9.988306 l 0,-30.1260168 -12.33428,0 0,28.1820568 c 0,2.86761 -0.1934,5.305616 -0.56944,7.324757 -0.37605,2.008401 -0.97772,3.651638 -1.83725,4.918972 -0.84879,1.267333 -2.00916,2.190982 -3.47036,2.760208 -1.46121,0.590707 -3.24474,0.88069 -5.36133,0.88069 -1.55791,0 -3.20176,-0.107401 -4.88859,-0.311464 -1.70832,-0.204061 -2.96539,-0.375903 -3.78194,-0.515525 l 0,-43.2396948 -12.34503,0 0,51.8532658 z"
           style="fill:#000000;fill-opacity:1;fill-rule:nonzero;stroke:none"
           id="path216"
           inkscape:connector-curvature="0" /><path
           d="m 533.70383,53.177483 c 2.3852,0.676627 5.47947,1.331774 9.28297,1.943961 3.8141,0.612186 8.0366,0.923649 12.6673,0.923649 4.3514,0 7.9829,-0.601446 10.9161,-1.793599 2.9224,-1.202892 5.2539,-2.86761 6.9944,-5.015633 1.7298,-2.158762 2.9439,-4.74713 3.6638,-7.797321 0.7198,-3.039453 1.0744,-6.368887 1.0744,-9.988306 l 0,-30.1260168 -12.345,0 0,28.1820568 c 0,2.86761 -0.1934,5.305616 -0.5587,7.324757 -0.3761,2.008401 -0.9885,3.651638 -1.8373,4.918972 -0.8595,1.267333 -2.0199,2.190982 -3.4811,2.760208 -1.4504,0.590707 -3.2447,0.88069 -5.3506,0.88069 -1.5686,0 -3.2017,-0.107401 -4.8993,-0.311464 -1.7083,-0.204061 -2.9546,-0.375903 -3.7819,-0.515525 l 0,-43.2396948 -12.34507,0 0,51.8532658 z"
           style="fill:#000000;fill-opacity:1;fill-rule:nonzero;stroke:none"
           id="path220"
           inkscape:connector-curvature="0" /><path
           d="m 590.4437,27.859815 c 0,4.714909 0.6984,8.849852 2.0951,12.40483 1.386,3.544237 3.2447,6.508509 5.5655,8.860594 2.31,2.362825 4.953,4.134943 7.9506,5.337836 2.9977,1.181412 6.0597,1.782858 9.1863,1.782858 7.349,0 13.0756,-2.287644 17.1906,-6.862932 4.1258,-4.575288 6.1887,-11.406 6.1887,-20.492136 0,-0.687367 -0.022,-1.449915 -0.064,-2.309124 -0.032,-0.848469 -0.086,-1.621757 -0.1504,-2.298384 l -35.1979,0 c 0.3331,-4.306785 1.848,-7.636221 4.5448,-9.999046 2.686,-2.352084 6.5754,-3.533497 11.6789,-3.533497 2.9976,0 5.7266,0.268503 8.2193,0.816248 2.4711,0.547747 4.4266,1.127713 5.8555,1.750639 l 1.6439,-10.1494069 c -0.6876,-0.3436839 -1.6224,-0.6981077 -2.815,-1.0740114 -1.1926,-0.3759037 -2.5463,-0.7195875 -4.072,-1.0310504 -1.5364,-0.30072297 -3.191,-0.55848609 -4.9638,-0.76254839 -1.762,-0.2040623 -3.5671,-0.3007229725 -5.4043,-0.3007229725 -4.6952,0 -8.778,0.6981076125 -12.2376,2.0943217625 -3.4811,1.3962152 -6.339,3.3509156 -8.5738,5.842622 -2.2563,2.4917063 -3.9109,5.4237563 -5.0068,8.8068933 -1.0959,3.383135 -1.6331,7.088474 -1.6331,11.116017 m 35.821,5.531158 c 0,1.718418 -0.2471,3.340175 -0.7091,4.876011 -0.4835,1.535837 -1.1819,2.86761 -2.0951,3.995322 -0.924,1.127712 -2.0414,2.008401 -3.3737,2.663548 -1.3323,0.644407 -2.9117,0.977351 -4.7382,0.977351 -1.9124,0 -3.5778,-0.365164 -5.0068,-1.084751 -1.4289,-0.708848 -2.643,-1.653979 -3.6207,-2.813911 -0.9885,-1.159932 -1.7406,-2.491706 -2.2885,-3.995322 -0.548,-1.503616 -0.924,-3.039452 -1.1282,-4.618248 l 22.9603,0 z"
           style="fill:#000000;fill-opacity:1;fill-rule:nonzero;stroke:none"
           id="path224"
           inkscape:connector-curvature="0" /></g><g
         id="g4803"><path
           d="m 295.74562,114.37894 c 0,-3.13611 -0.40828,-6.03594 -1.23558,-8.69949 -0.8273,-2.66355 -2.03064,-4.94045 -3.63152,-6.86293 -1.59014,-1.911742 -3.55631,-3.404621 -5.86631,-4.467891 -2.32073,-1.06327 -4.95305,-1.600268 -7.93992,-1.600268 -2.39595,0 -4.51255,0.322199 -6.3498,0.95586 -1.83725,0.644408 -3.20175,1.256598 -4.10426,1.83656 l 0,-16.593473 -7.43495,0 0,54.989382 c 1.76204,0.41886 3.95384,0.89142 6.58616,1.38548 2.63232,0.50478 5.68366,0.76254 9.14327,0.76254 3.19101,0 6.07045,-0.50478 8.62755,-1.51436 2.54637,-1.00957 4.73817,-2.45949 6.55394,-4.31752 1.79427,-1.85804 3.19101,-4.12421 4.17947,-6.81997 0.97772,-2.68503 1.47195,-5.703 1.47195,-9.05392 m -7.73579,0 c 0,4.84379 -1.1926,8.57061 -3.58855,11.16972 -2.40668,2.60985 -5.58695,3.92014 -9.58378,3.92014 -2.24552,0 -3.98608,-0.0859 -5.2324,-0.24702 -1.25706,-0.1611 -2.24553,-0.34368 -2.98687,-0.55849 l 0,-26.18439 c 0.90251,-0.74107 2.20255,-1.46066 3.90012,-2.14802 1.70832,-0.687371 3.56706,-1.031052 5.59771,-1.031052 2.12734,0 3.95384,0.375899 5.46877,1.159922 1.51492,0.76255 2.7505,1.82582 3.70673,3.17908 0.95623,1.36399 1.64386,2.96427 2.08437,4.80083 0.41902,1.82582 0.6339,3.81274 0.6339,5.93928"
           style="fill:#000000;fill-opacity:1;fill-rule:nonzero;stroke:none"
           id="path236"
           inkscape:connector-curvature="0" /><path
           d="m 194.36275,154.36116 7.4242,1.27807 0,-60.73533 c -1.69757,-0.483308 -3.87863,-0.95587 -6.54318,-1.439179 -2.66455,-0.472562 -5.72664,-0.719589 -9.18625,-0.719589 -3.19101,0 -6.0597,0.515526 -8.61681,1.525097 -2.55711,1.00957 -4.73817,2.448749 -6.55393,4.306791 -1.80502,1.85803 -3.20176,4.13493 -4.19022,6.8307 -0.98846,2.68503 -1.47195,5.70301 -1.47195,9.05392 0,3.17907 0.40828,6.11112 1.23558,8.77467 0.81655,2.66355 2.03064,4.9512 3.63152,6.86294 1.60088,1.91173 3.55632,3.40461 5.86631,4.46788 2.30999,1.06327 4.96379,1.60028 7.95067,1.60028 2.39594,0 4.51254,-0.3222 6.34979,-0.95587 1.83725,-0.64441 3.20176,-1.25659 4.10427,-1.83656 l 0,20.98618 z m 0,-27.93503 c -0.90251,0.74106 -2.20255,1.46065 -3.91087,2.15876 -1.69758,0.68737 -3.55632,1.03105 -5.58696,1.03105 -2.12734,0 -3.95385,-0.37591 -5.46877,-1.1492 -1.51493,-0.77327 -2.76125,-1.83656 -3.71748,-3.18981 -0.95623,-1.36399 -1.6546,-2.96426 -2.07362,-4.8223 -0.41902,-1.87953 -0.63391,-3.86645 -0.63391,-5.99299 0,-4.84379 1.1926,-8.58135 3.58855,-11.21268 2.39595,-2.64206 5.58696,-3.952361 9.58378,-3.952361 2.0199,0 3.70673,0.08597 5.07124,0.279245 1.35376,0.182582 2.40669,0.386644 3.14804,0.601446 l 0,26.24884 z"
           style="fill:#000000;fill-opacity:1;fill-rule:nonzero;stroke:none"
           id="path228"
           inkscape:connector-curvature="0" /><path
           d="m 212.24746,114.37894 c 0,3.67312 0.53721,6.87368 1.59013,9.61241 1.07442,2.74946 2.47116,5.01563 4.2332,6.81996 1.76204,1.81508 3.77119,3.17908 6.07044,4.08125 2.27776,0.90217 4.63073,1.35325 7.02668,1.35325 5.58695,0 9.86313,-1.75063 12.85,-5.23043 2.98687,-3.4798 4.46957,-8.78541 4.46957,-15.91685 l 0,-1.23512 c 0,-0.51552 -0.0215,-0.97734 -0.086,-1.39621 l -28.41827,0 c 0.32232,-4.31752 1.56864,-7.59326 3.76045,-9.81646 2.18106,-2.23394 5.58696,-3.350912 10.21768,-3.350912 2.61083,0 4.80264,0.225535 6.58617,0.676625 1.78353,0.440347 3.12655,0.880687 4.02905,1.310287 l 1.03144,-6.218521 c -0.90251,-0.483309 -2.4819,-0.988089 -4.73817,-1.525097 -2.26701,-0.526262 -4.83486,-0.794761 -7.70355,-0.794761 -3.62078,0 -6.75807,0.547744 -9.37965,1.632496 -2.64306,1.095488 -4.81337,2.599103 -6.52169,4.510845 -1.69758,1.911738 -2.95465,4.199378 -3.78194,6.830708 -0.8273,2.63133 -1.23558,5.52042 -1.23558,8.65653 m 28.49348,4.07051 c 0.0645,3.35091 -0.77358,6.10038 -2.51413,8.25915 -1.72981,2.14802 -4.10426,3.23277 -7.13411,3.23277 -1.70832,0 -3.2125,-0.33294 -4.51255,-0.99883 -1.31078,-0.66589 -2.41743,-1.5251 -3.31994,-2.59911 -0.90251,-1.06327 -1.60088,-2.28765 -2.1166,-3.66238 -0.49423,-1.38547 -0.83804,-2.79243 -0.98846,-4.2316 l 20.58579,0 z m -0.0752,32.4781 -11.25986,-10.93344 -3.74971,3.35092 10.21768,12.28668 4.79189,-4.70416 z"
           style="fill:#000000;fill-opacity:1;fill-rule:nonzero;stroke:none"
           id="path232"
           inkscape:connector-curvature="0" /><path
           d="m 319.62127,136.24259 c 2.98687,0 5.49026,-0.38664 7.55314,-1.14919 2.03064,-0.77329 3.69598,-1.86878 4.94231,-3.27573 1.24632,-1.40696 2.13808,-3.08242 2.67529,-5.02638 0.52646,-1.94396 0.79507,-4.09198 0.79507,-6.42258 l 0,-25.948118 c -0.63391,-0.09666 -1.53642,-0.247027 -2.66455,-0.429608 -1.14963,-0.182582 -2.43893,-0.354417 -3.87864,-0.526263 -1.43972,-0.161099 -2.99762,-0.300727 -4.67371,-0.440344 -1.67608,-0.118146 -3.33068,-0.193317 -4.99603,-0.193317 -2.33148,0 -4.48031,0.236281 -6.45723,0.719579 -1.96618,0.472572 -3.6745,1.235116 -5.11422,2.266168 -1.42897,1.052535 -2.54636,2.405786 -3.35217,4.1242 -0.79507,1.696943 -1.20335,3.737563 -1.20335,6.143353 0,2.2769 0.47275,4.25308 1.40749,5.89631 0.92399,1.65398 2.1918,2.98576 3.78194,3.98458 1.61162,1.02032 3.47036,1.76138 5.5977,2.24469 2.12734,0.47256 4.36213,0.71959 6.70435,0.71959 0.74135,0 1.52567,-0.043 2.30999,-0.11815 0.80581,-0.0859 1.5579,-0.19331 2.28851,-0.3222 0.70911,-0.13961 1.33227,-0.24702 1.86948,-0.36516 0.53721,-0.1074 0.90251,-0.18258 1.11739,-0.23628 l 0,2.07284 c 0,1.22437 -0.13967,2.43801 -0.39753,3.63016 -0.26861,1.2029 -0.74135,2.26617 -1.42898,3.20055 -0.70911,0.93439 -1.64385,1.67545 -2.8472,2.23394 -1.20334,0.55849 -2.7505,0.83773 -4.66296,0.83773 -2.44966,0 -4.59849,-0.17184 -6.425,-0.52626 -1.83725,-0.33295 -3.2125,-0.69811 -4.12575,-1.07401 l -0.85953,6.14334 c 0.95623,0.42961 2.54636,0.83773 4.78114,1.24585 2.23479,0.39738 4.66296,0.59071 7.26305,0.59071 m 0.6339,-37.182272 c 1.76204,0 3.31995,0.04298 4.67371,0.1074 1.36451,0.08597 2.49264,0.236281 3.39515,0.440344 l 0,12.372608 c -0.52646,0.26851 -1.39674,0.49406 -2.58934,0.68737 -1.20334,0.18258 -2.65381,0.27925 -4.35138,0.27925 -1.12814,0 -2.30999,-0.086 -3.55631,-0.24703 -1.25707,-0.1611 -2.39595,-0.49404 -3.43813,-0.99882 -1.04218,-0.50479 -1.89097,-1.2029 -2.60009,-2.07284 -0.68762,-0.86996 -1.03143,-2.02989 -1.03143,-3.46906 0,-2.66355 0.85953,-4.51086 2.5571,-5.55264 1.70832,-1.031056 4.01831,-1.546582 6.94072,-1.546582"
           style="fill:#000000;fill-opacity:1;fill-rule:nonzero;stroke:none"
           id="path240"
           inkscape:connector-curvature="0" /><path
           d="m 363.20921,136.08901 c 0.64465,0 1.36451,-0.043 2.19181,-0.12888 0.8273,-0.0752 1.64385,-0.18258 2.43892,-0.31146 0.80581,-0.13963 1.52567,-0.26851 2.19181,-0.40813 0.67688,-0.12888 1.16036,-0.24703 1.48269,-0.34368 l -1.27856,-6.4763 c -0.58018,0.21481 -1.5579,0.47257 -2.9224,0.76256 -1.34302,0.28998 -3.09432,0.44034 -5.22166,0.44034 -1.37525,0 -2.7505,-0.15036 -4.10427,-0.44034 -1.3645,-0.28999 -2.24552,-0.49405 -2.68603,-0.60145 l 0,-34.87315 -7.41347,0 0,39.74916 c 1.76204,0.63367 3.94311,1.23511 6.54319,1.78286 2.61083,0.55849 5.53324,0.84847 8.77797,0.84847"
           style="fill:#000000;fill-opacity:1;fill-rule:nonzero;stroke:none"
           id="path244"
           inkscape:connector-curvature="0" /><path
           d="m 385.64837,135.20617 15.72943,0 0,-6.22927 -15.72943,0 0,-19.14962 c 0,-2.07284 0.16116,-3.79125 0.48348,-5.14452 0.32233,-1.35325 0.78433,-2.41652 1.42898,-3.20054 0.6339,-0.76256 1.43971,-1.3103 2.39594,-1.632499 0.95623,-0.311462 2.07362,-0.472572 3.35218,-0.472572 2.23478,0 4.02905,0.247027 5.39356,0.751821 1.35376,0.50478 2.2885,0.86994 2.82571,1.08474 l 1.43972,-6.143342 c -0.75209,-0.375899 -2.05214,-0.848471 -3.91087,-1.406951 -1.85874,-0.547744 -3.98608,-0.826989 -6.38203,-0.826989 -2.82571,0 -5.15719,0.354416 -6.99444,1.074006 -1.83725,0.719589 -3.3092,1.793606 -4.42659,3.232775 -1.11739,1.439179 -1.91246,3.200551 -2.35297,5.305611 -0.462,2.10506 -0.67688,4.53233 -0.67688,7.30328 l 0,37.03191 7.42421,1.26733 0,-12.84517 z"
           style="fill:#000000;fill-opacity:1;fill-rule:nonzero;stroke:none"
           id="path248"
           inkscape:connector-curvature="0" /><path
           d="m 407.67602,114.37894 c 0,3.67312 0.53721,6.87368 1.60088,9.61241 1.06367,2.74946 2.47116,5.01563 4.2332,6.81996 1.75129,1.81508 3.77119,3.17908 6.07044,4.08125 2.27776,0.90217 4.61999,1.35325 7.02668,1.35325 5.57621,0 9.86313,-1.75063 12.85,-5.23043 2.97613,-3.4798 4.46957,-8.78541 4.46957,-15.91685 l 0,-1.23512 c 0,-0.51552 -0.0215,-0.97734 -0.0752,-1.39621 l -28.42902,0 c 0.32232,-4.31752 1.57939,-7.59326 3.76045,-9.81646 2.18106,-2.23394 5.57621,-3.350912 10.20694,-3.350912 2.61083,0 4.81338,0.225535 6.59691,0.676625 1.78353,0.451077 3.12655,0.880687 4.02905,1.310287 l 1.03144,-6.218521 c -0.90251,-0.483309 -2.4819,-0.988089 -4.73817,-1.525097 -2.27776,-0.526262 -4.83486,-0.794761 -7.70355,-0.794761 -3.62078,0 -6.75807,0.547744 -9.39039,1.632496 -2.63232,1.095488 -4.80263,2.599103 -6.50021,4.510845 -1.70832,1.911738 -2.97613,4.199378 -3.80343,6.830708 -0.8273,2.63133 -1.23558,5.52042 -1.23558,8.65653 m 28.50423,4.07051 c 0.0537,3.35091 -0.78432,6.10038 -2.51413,8.25915 -1.74055,2.14802 -4.10426,3.23277 -7.14486,3.23277 -1.70832,0 -3.2125,-0.33294 -4.51254,-0.99883 -1.30004,-0.66589 -2.40669,-1.5251 -3.3092,-2.59911 -0.91325,-1.06327 -1.61162,-2.28765 -2.1166,-3.66238 -0.50497,-1.38547 -0.83804,-2.79243 -0.9992,-4.2316 l 20.59653,0 z"
           style="fill:#000000;fill-opacity:1;fill-rule:nonzero;stroke:none"
           id="path252"
           inkscape:connector-curvature="0" /><path
           d="m 454.62581,134.01402 c 1.70832,0.41886 3.95385,0.88069 6.73658,1.35325 2.79348,0.48331 6.03821,0.71959 9.71271,0.71959 2.65381,0 4.88859,-0.36516 6.70435,-1.08475 1.80502,-0.71959 3.31995,-1.76138 4.54478,-3.14686 0.37604,0.25776 0.95623,0.63367 1.76204,1.11698 0.79507,0.4833 1.77278,0.94513 2.9439,1.39621 1.17111,0.45109 2.47115,0.84847 3.92161,1.20289 1.43972,0.34368 2.97613,0.51553 4.61999,0.51553 3.20175,0 5.80184,-0.46183 7.83248,-1.39621 2.00916,-0.93439 3.61003,-2.24469 4.74891,-3.95237 1.13888,-1.70768 1.92321,-3.72682 2.32074,-6.06816 0.38679,-2.34135 0.59093,-4.89749 0.59093,-7.6577 l 0,-23.306049 -7.42421,0 0,21.705769 c 0,2.45949 -0.11818,4.55381 -0.3653,6.30445 -0.22563,1.76138 -0.68763,3.22203 -1.35376,4.3927 -0.6554,1.17068 -1.56865,2.02989 -2.71827,2.58837 -1.13888,0.56922 -2.62157,0.83773 -4.41585,0.83773 -2.51413,0 -4.56626,-0.32221 -6.19937,-0.98809 -1.62237,-0.67663 -2.72902,-1.26733 -3.3092,-1.80434 0.42977,-1.37473 0.75209,-2.89983 0.96697,-4.54307 0.20414,-1.65398 0.31158,-3.38313 0.31158,-5.18747 l 0,-23.306049 -7.4242,0 0,21.705769 c 0,2.45949 -0.12893,4.55381 -0.39754,6.30445 -0.2686,1.76138 -0.7306,3.22203 -1.40748,4.3927 -0.66614,1.17068 -1.56865,2.02989 -2.69678,2.58837 -1.14963,0.56922 -2.60009,0.83773 -4.36213,0.83773 -0.74134,0 -1.54716,-0.0215 -2.39594,-0.0645 -0.84879,-0.0645 -1.66535,-0.12888 -2.43893,-0.20407 -0.76283,-0.0859 -1.47194,-0.18258 -2.10585,-0.28998 -0.64465,-0.1074 -1.07441,-0.18258 -1.2893,-0.22554 l 0,-35.044989 -7.41346,0 0,40.307649 z"
           style="fill:#000000;fill-opacity:1;fill-rule:nonzero;stroke:none"
           id="path256"
           inkscape:connector-curvature="0" /><path
           d="m 521.04185,114.37894 c 0,3.67312 0.5372,6.87368 1.59013,9.61241 1.07442,2.74946 2.4819,5.01563 4.24394,6.81996 1.7513,1.81508 3.78194,3.17908 6.0597,4.08125 2.2885,0.90217 4.63073,1.35325 7.02668,1.35325 5.587,0 9.8739,-1.75063 12.85,-5.23043 2.9869,-3.4798 4.4803,-8.78541 4.4803,-15.91685 l 0,-1.23512 c 0,-0.51552 -0.032,-0.97734 -0.075,-1.39621 l -28.42902,0 c 0.31158,-4.31752 1.56864,-7.59326 3.74971,-9.81646 2.18106,-2.23394 5.58691,-3.350912 10.21771,-3.350912 2.6108,0 4.8026,0.225535 6.5969,0.676625 1.7835,0.451077 3.1158,0.880687 4.029,1.310287 l 1.0315,-6.218521 c -0.9133,-0.483309 -2.4927,-0.988089 -4.7489,-1.525097 -2.2671,-0.526262 -4.8242,-0.794761 -7.6928,-0.794761 -3.6316,0 -6.75812,0.547744 -9.39044,1.632496 -2.63231,1.095488 -4.80263,2.599103 -6.50021,4.510845 -1.70832,1.911738 -2.97613,4.199378 -3.80343,6.830708 -0.8273,2.63133 -1.23557,5.52042 -1.23557,8.65653 m 28.49345,4.07051 c 0.065,3.35091 -0.7735,6.10038 -2.5034,8.25915 -1.7405,2.14802 -4.1042,3.23277 -7.1448,3.23277 -1.7083,0 -3.21252,-0.33294 -4.51256,-0.99883 -1.30004,-0.66589 -2.40669,-1.5251 -3.3092,-2.59911 -0.91325,-1.06327 -1.61162,-2.28765 -2.11659,-3.66238 -0.50498,-1.38547 -0.84879,-2.79243 -0.99921,-4.2316 l 20.58576,0 z"
           style="fill:#000000;fill-opacity:1;fill-rule:nonzero;stroke:none"
           id="path260"
           inkscape:connector-curvature="0" /><path
           d="m 567.9916,134.01402 c 1.7084,0.41886 3.9646,0.88069 6.7796,1.35325 2.8257,0.48331 6.0704,0.71959 9.7342,0.71959 3.3092,0 6.0489,-0.46183 8.23,-1.39621 2.1811,-0.93439 3.9216,-2.23395 5.2324,-3.90941 1.3108,-1.67546 2.2241,-3.68385 2.7505,-6.0252 0.5372,-2.34134 0.8058,-4.92971 0.8058,-7.74362 l 0,-23.306049 -7.4349,0 0,21.705769 c 0,2.55615 -0.1719,4.73639 -0.5157,6.55147 -0.3439,1.80434 -0.9133,3.26499 -1.7191,4.38196 -0.7843,1.11698 -1.8587,1.93323 -3.191,2.43802 -1.3323,0.50478 -2.9762,0.7518 -4.9423,0.7518 -0.8058,0 -1.6331,-0.0215 -2.4819,-0.0645 -0.8488,-0.0645 -1.6654,-0.12888 -2.4282,-0.20407 -0.7736,-0.0859 -1.472,-0.18258 -2.0844,-0.28998 -0.6016,-0.1074 -1.0529,-0.18258 -1.3215,-0.22554 l 0,-35.044989 -7.4135,0 0,40.307649 z"
           style="fill:#000000;fill-opacity:1;fill-rule:nonzero;stroke:none"
           id="path264"
           inkscape:connector-curvature="0" /><path
           d="m 620.754,135.20617 15.7402,0 0,-6.22927 -15.7402,0 0,-19.14962 c 0,-2.07284 0.1504,-3.79125 0.4835,-5.14452 0.3223,-1.35325 0.7951,-2.41652 1.429,-3.20054 0.6446,-0.76256 1.4397,-1.3103 2.3959,-1.632499 0.9562,-0.311462 2.0844,-0.472572 3.3522,-0.472572 2.2348,0 4.0398,0.247027 5.3935,0.751821 1.3538,0.50478 2.2993,0.86994 2.8365,1.08474 l 1.4397,-6.143342 c -0.7521,-0.375899 -2.0521,-0.848471 -3.9109,-1.406951 -1.8694,-0.547744 -3.9968,-0.826989 -6.3927,-0.826989 -2.815,0 -5.1465,0.354416 -6.9837,1.074006 -1.8373,0.719589 -3.32,1.793606 -4.4266,3.232775 -1.1174,1.439179 -1.9017,3.200551 -2.3637,5.305611 -0.4513,2.10506 -0.6769,4.53233 -0.6769,7.30328 l 0,37.03191 7.4242,1.26733 0,-12.84517 z"
           style="fill:#000000;fill-opacity:1;fill-rule:nonzero;stroke:none"
           id="path268"
           inkscape:connector-curvature="0" /></g></g></g></svg>