<?xml version="1.0" encoding="UTF-8" standalone="no"?>
<svg
   xmlns:dc="http://purl.org/dc/elements/1.1/"
   xmlns:cc="http://creativecommons.org/ns#"
   xmlns:rdf="http://www.w3.org/1999/02/22-rdf-syntax-ns#"
   xmlns:svg="http://www.w3.org/2000/svg"
   xmlns="http://www.w3.org/2000/svg"
   xmlns:sodipodi="http://sodipodi.sourceforge.net/DTD/sodipodi-0.dtd"
   xmlns:inkscape="http://www.inkscape.org/namespaces/inkscape"
   inkscape:version="1.0beta1 (32d4812, 2019-09-19)"
   sodipodi:docname="Logo DeÌpartement Tarn.svg"
   id="svg93"
   version="1.1"
   height="700"
   width="700"
   viewBox="0 0 525 525"
   style="isolation:isolate">
  <metadata
     id="metadata97">
    <rdf:RDF>
      <cc:Work
         rdf:about="">
        <dc:format>image/svg+xml</dc:format>
        <dc:type
           rdf:resource="http://purl.org/dc/dcmitype/StillImage" />
        <dc:title></dc:title>
      </cc:Work>
    </rdf:RDF>
  </metadata>
  <sodipodi:namedview
     units="px"
     inkscape:current-layer="svg93"
     inkscape:window-maximized="0"
     inkscape:window-y="23"
     inkscape:window-x="0"
     inkscape:cy="230.69027"
     inkscape:cx="304.41432"
     inkscape:zoom="0.49497475"
     showgrid="false"
     id="namedview95"
     inkscape:window-height="788"
     inkscape:window-width="1440"
     inkscape:pageshadow="2"
     inkscape:pageopacity="0"
     guidetolerance="10"
     gridtolerance="10"
     objecttolerance="10"
     borderopacity="1"
     inkscape:document-rotation="0"
     bordercolor="#666666"
     pagecolor="#ffffff" />
  <defs
     id="defs13" />
  <g
     transform="matrix(6.555218,0,0,6.5553383,-1165.4685,-838.04304)"
     id="g513">
    <path
       id="path444"
       style="opacity:1;fill:#de6b35;fill-opacity:1;stroke-width:1.33333;stop-opacity:1"
       d="m 240.78516,170.45508 c -2.05867,0 -3.72852,1.66789 -3.72852,3.72656 v 99.33008 c 0,2.05733 1.66985,3.72656 3.72852,3.72656 h 99.33007 c 2.05867,0 3.72657,-1.66923 3.72657,-3.72656 v -99.33008 c 0,-2.05867 -1.6679,-3.72656 -3.72657,-3.72656 z"
       inkscape:connector-curvature="0"
       sodipodi:nodetypes="sccssccss"
       transform="scale(0.75)" />
    <g
       id="g402">
      <path
         d="m 185.03121,186.85474 h 0.969 v 3.565 h 1.932 v 0.847 h -2.901 z"
         fill="rgb(254,254,254)"
         id="path61"
         inkscape:connector-curvature="0"
         style="opacity:1;stop-opacity:1" />
      <path
         d="m 189.42421,186.85474 h 2.724 v 0.847 h -1.755 v 0.865 h 1.511 v 0.805 h -1.511 v 1.048 h 1.822 v 0.847 h -2.791 z"
         fill="rgb(254,254,254)"
         id="path63"
         inkscape:connector-curvature="0"
         style="opacity:1;stop-opacity:1" />
      <path
         d="m 197.54621,190.41974 c 0.628,0 1.03,-0.11 1.304,-0.348 0.262,-0.225 0.427,-0.579 0.427,-1.017 0,-0.463 -0.183,-0.853 -0.512,-1.085 -0.311,-0.219 -0.731,-0.268 -1.225,-0.268 h -0.262 v 2.718 z m -1.237,-3.565 h 1.237 c 0.786,0 1.396,0.128 1.853,0.445 0.542,0.378 0.847,0.999 0.847,1.755 0,0.695 -0.262,1.286 -0.732,1.669 -0.451,0.366 -1.084,0.543 -2.011,0.543 h -1.194 z"
         fill="rgb(254,254,254)"
         id="path65"
         inkscape:connector-curvature="0"
         style="opacity:1;stop-opacity:1" />
      <path
         d="m 203.37021,186.42174 h -0.634 l 0.512,-0.999 h 0.829 z m -1.523,0.433 h 2.723 v 0.847 h -1.755 v 0.865 h 1.512 v 0.806 h -1.512 v 1.048 h 1.823 v 0.846 h -2.791 z"
         fill="rgb(254,254,254)"
         id="path67"
         inkscape:connector-curvature="0"
         style="opacity:1;stop-opacity:1" />
      <path
         d="m 207.59921,188.90274 c 0.384,0 0.603,-0.018 0.768,-0.11 0.176,-0.097 0.274,-0.261 0.274,-0.481 0,-0.249 -0.11,-0.427 -0.311,-0.518 -0.177,-0.079 -0.414,-0.091 -0.756,-0.091 h -0.329 v 1.2 z m -1.323,-2.047 h 1.311 c 0.524,0 0.962,0.048 1.31,0.231 0.384,0.201 0.712,0.579 0.712,1.176 0,0.543 -0.261,0.933 -0.633,1.152 -0.341,0.201 -0.78,0.274 -1.426,0.274 h -0.305 v 1.579 h -0.969 z"
         fill="rgb(254,254,254)"
         id="path69"
         inkscape:connector-curvature="0"
         style="opacity:1;stop-opacity:1" />
      <path
         d="m 212.16921,189.57874 h 1.188 l -0.183,-0.494 c -0.128,-0.347 -0.286,-0.786 -0.402,-1.121 h -0.012 c -0.116,0.335 -0.274,0.774 -0.414,1.146 z m 0.14,-2.724 h 0.938 l 1.792,4.412 h -1.036 l -0.353,-0.926 h -1.78 l -0.359,0.926 h -0.994 z"
         fill="rgb(254,254,254)"
         id="path71"
         inkscape:connector-curvature="0"
         style="opacity:1;stop-opacity:1" />
      <path
         d="m 217.92621,188.79874 c 0.262,0 0.463,-0.03 0.609,-0.104 0.165,-0.085 0.25,-0.231 0.25,-0.444 0,-0.208 -0.073,-0.342 -0.25,-0.433 -0.152,-0.079 -0.39,-0.116 -0.725,-0.116 h -0.371 v 1.097 z m -1.456,-1.944 h 1.383 c 0.524,0 1.018,0.073 1.371,0.293 0.323,0.201 0.53,0.53 0.53,1.035 0,0.567 -0.311,1.03 -0.895,1.219 l 1.243,1.865 h -1.116 l -1.115,-1.743 h -0.432 v 1.743 h -0.969 z"
         fill="rgb(254,254,254)"
         id="path73"
         inkscape:connector-curvature="0"
         style="opacity:1;stop-opacity:1" />
      <path
         d="m 222.57521,187.70174 h -1.426 v -0.847 h 3.821 v 0.847 h -1.426 v 3.565 h -0.969 z"
         fill="rgb(254,254,254)"
         id="path75"
         inkscape:connector-curvature="0"
         style="opacity:1;stop-opacity:1" />
      <path
         d="m 226.47421,186.85474 h 2.724 v 0.847 h -1.755 v 0.865 h 1.511 v 0.805 h -1.511 v 1.048 h 1.822 v 0.847 h -2.791 z"
         fill="rgb(254,254,254)"
         id="path77"
         inkscape:connector-curvature="0"
         style="opacity:1;stop-opacity:1" />
      <path
         d="m 232.48221,189.34174 c -0.219,-0.311 -0.439,-0.634 -0.646,-0.944 l -0.012,0.005 c 0.006,0.317 0.012,0.732 0.012,1.098 v 1.767 h -0.932 v -4.412 h 0.932 l 1.31,1.864 1.311,-1.864 h 0.92 v 4.412 h -0.969 v -1.767 c 0,-0.366 0.006,-0.781 0.012,-1.098 l -0.012,-0.005 c -0.207,0.31 -0.427,0.633 -0.646,0.944 l -0.64,0.908 z"
         fill="rgb(254,254,254)"
         id="path79"
         inkscape:connector-curvature="0"
         style="opacity:1;stop-opacity:1" />
      <path
         d="m 237.19221,186.85474 h 2.724 v 0.847 h -1.755 v 0.865 h 1.511 v 0.805 h -1.511 v 1.048 h 1.822 v 0.847 h -2.791 z"
         fill="rgb(254,254,254)"
         id="path81"
         inkscape:connector-curvature="0"
         style="opacity:1;stop-opacity:1" />
      <path
         d="m 243.38221,189.48774 c -0.287,-0.384 -0.555,-0.755 -0.829,-1.139 l -0.012,0.005 c 0.006,0.421 0.012,0.848 0.012,1.274 v 1.639 h -0.932 v -4.412 h 0.914 l 1.322,1.78 c 0.287,0.384 0.555,0.755 0.829,1.139 l 0.012,-0.006 c -0.006,-0.42 -0.012,-0.847 -0.012,-1.273 v -1.64 h 0.932 v 4.412 h -0.914 z"
         fill="rgb(254,254,254)"
         id="path83"
         inkscape:connector-curvature="0"
         style="opacity:1;stop-opacity:1" />
      <path
         d="m 248.54921,187.70174 h -1.426 v -0.847 h 3.821 v 0.847 h -1.426 v 3.565 h -0.969 z"
         fill="rgb(254,254,254)"
         id="path85"
         inkscape:connector-curvature="0"
         style="opacity:1;stop-opacity:1" />
    </g>
    <g
       id="g492">
      <path
         inkscape:connector-curvature="0"
         transform="scale(0.75)"
         d="m 276.04102,201.16992 c -0.268,0.02 -0.55898,-0.0144 -0.82032,0.043 -0.26133,0.0573 -0.50767,0.24048 -0.76367,0.25781 -0.652,0.048 -1.12524,0.39323 -1.64258,0.72657 -0.86266,0.55466 -1.54022,1.08329 -2.32422,1.77929 -1.212,1.076 -2.43651,2.30366 -3.58984,3.48633 -0.08,0.0813 -0.17561,0.18125 -0.23828,0.28125 -0.72533,1.16133 -1.55139,2.2442 -2.27539,3.4082 -0.33067,0.532 -0.705,1.03552 -0.98633,1.60352 -0.4,0.80667 -0.75073,1.59992 -1.16406,2.41992 -0.41334,0.81867 -0.76175,1.69103 -1.09375,2.56836 -0.45867,1.21867 -0.9556,2.43193 -1.32227,3.69727 -0.0773,0.26266 -0.16181,0.54822 -0.25781,0.82421 -0.332,0.95068 -0.73211,1.88539 -0.91211,2.88672 -0.20533,0.30267 -0.18948,0.68686 -0.38281,0.99219 -0.19467,0.30533 -0.16039,0.66631 -0.40039,0.93164 -0.028,0.0307 -0.005,0.059 0.01,0.0684 0.22134,0.136 0.0229,0.42145 -0.004,0.55078 -0.028,0.13067 0.1218,0.0852 0.0937,0.17188 -0.0293,0.088 -0.23567,0.14237 -0.26368,0.23437 -0.028,0.0907 0.18116,0.12362 0.14649,0.23828 -0.0813,0.268 -0.24871,0.59663 -0.49805,0.7793 0.0773,0.128 0.16219,0.25029 0.24219,0.37695 -0.212,0.38534 -0.42143,0.76692 -0.63477,1.15625 0.0987,0.11334 0.14324,0.35484 0.25391,0.4375 0.112,0.0827 0.28811,-0.012 0.41211,0.0293 -0.0427,0.0653 -0.0914,0.14356 -0.13672,0.21289 0.376,0.032 0.50556,0.23475 0.60156,0.58008 0.16134,-0.0253 0.32171,-0.0477 0.48438,-0.0703 0.10267,0.164 0.19492,0.33928 0.29492,0.50195 0.21067,-0.076 0.50127,-0.32347 0.69727,-0.35547 0.248,-0.0413 0.41057,0.10104 0.64257,0.0957 -0.088,0.11867 -0.1699,0.22323 -0.2539,0.3379 0.224,0.0733 0.45383,0.14203 0.67383,0.2207 0,0.0747 -0.12505,0.26174 -0.0957,0.3164 0.028,0.0547 0.17028,0.16825 0.23828,0.15625 0.20934,-0.0387 0.30286,-0.34555 0.49219,-0.0723 -0.005,-0.001 -0.01,-0.003 -0.0137,0 -0.012,0.008 -0.0923,0.098 -0.0977,0.11133 -0.004,0.0133 0.0368,0.0431 0.0488,0.0351 0.012,-0.008 0.0767,-0.11033 0.082,-0.125 0.001,-0.005 -0.004,-0.0103 -0.008,-0.0156 0.10133,-0.0187 0.20078,-0.0308 0.30078,-0.0508 -0.0587,-0.0747 -0.11711,-0.14995 -0.17578,-0.22461 0.396,-0.20134 0.54464,0.1739 0.91797,0.11523 -0.0293,0.16267 -0.1805,0.41602 -0.17383,0.55469 0.004,0.072 0.20119,0.0384 0.25586,0.0664 0.0547,0.0293 0.14703,0.0573 0.20703,0.0547 0.0587,-0.003 0.17805,-0.17454 0.2207,-0.17187 0.0747,0.007 0.038,0.24885 0.11133,0.24219 0.47067,-0.0413 0.63651,-0.56388 1.08985,-0.67188 0.007,-0.188 0.0122,-0.37131 0.0176,-0.55664 0.13065,0.0533 0.26457,0.11144 0.39257,0.16211 0.0253,-0.12533 -0.0206,-0.33155 0.0234,-0.43555 0.044,-0.10266 0.19109,-0.0433 0.23242,-0.16992 0.04,-0.12667 0.012,-0.34323 -0.0293,-0.47656 -0.0853,0.0827 -0.26794,0.36758 -0.33594,0.40625 -0.0627,0.036 -0.19745,-0.12692 -0.18946,-0.15625 0.0307,-0.11334 0.37773,-0.41467 0.4004,-0.5 0.332,-1.28534 0.76749,-2.44623 1.04882,-3.71289 0.18934,-0.0867 0.42966,-0.16963 0.59766,-0.26563 0.0267,-0.016 0.0444,-0.0949 -0.008,-0.10156 -0.0507,-0.008 -0.33121,0.0443 -0.42188,0.043 -0.0387,-0.16933 -0.0453,-0.47852 0,-0.61719 0.0453,-0.13867 0.27802,-0.22072 0.30469,-0.27539 0.0493,-0.10133 0.0115,-0.40002 0.0195,-0.41602 0.14133,-0.30398 0.27078,-0.50047 0.41211,-0.75781 0.0213,0.0333 0.0652,0.22071 0.0879,0.22071 0.12,10e-4 0.39256,-0.24514 0.47656,-0.23047 0.17334,0.028 0.22514,0.19471 0.36914,0.24804 0.0787,-0.13733 0.11299,-0.43382 0.20899,-0.53515 0.0787,-0.084 0.23088,0.09 0.32422,0.0312 0.092,-0.06 0.16234,-0.30561 0.26367,-0.34961 0.10133,-0.0453 0.2306,0.0402 0.33594,-0.004 0.392,-0.16266 0.71992,-0.40251 1.14257,-0.47851 0.0547,-0.009 0.10745,-0.0853 0.16211,-0.11328 0.0547,-0.028 0.17442,0.0673 0.20508,0.0312 0.0587,-0.072 0.11991,-0.31267 0.14258,-0.38867 0.0227,-0.0773 -0.15309,-0.10577 -0.12109,-0.14843 0.0613,-0.08 0.30433,-0.0805 0.375,-0.14454 0.072,-0.0653 0.0366,-0.1961 0.0859,-0.27343 0.21734,-0.009 0.4454,-0.0147 0.66407,-0.0254 -0.009,-0.0573 -0.0511,-0.22253 -0.0645,-0.25586 -0.024,-0.0627 -0.39633,0.0436 -0.375,0.008 0.11467,-0.19733 0.45015,-0.22108 0.63282,-0.34375 0.18,0.0773 0.35534,0.16352 0.52734,0.24219 -0.0613,0.06 -0.24472,0.0798 -0.27539,0.14648 -0.032,0.068 0.13771,0.0665 0.12305,0.17578 -0.0133,0.108 -0.0958,0.3712 -0.1211,0.50586 0.37334,-0.21866 0.80192,-0.37914 1.03125,-0.75781 0.0387,-0.0627 0.18318,0.0177 0.22852,-0.0156 0.28133,-0.204 0.54775,-0.48267 0.84375,-0.63867 0.29733,-0.15733 0.45084,-0.27703 0.57617,-0.5957 0.0173,-0.044 0.26422,-0.0918 0.32422,-0.0918 -0.056,0.17734 -0.17027,0.40985 -0.18359,0.58985 -0.06,0.85066 0.0894,1.65504 -0.11329,2.48437 0.0627,1.644 -0.18211,3.26482 -0.16211,4.91016 0.009,0.768 -0.007,1.52007 -0.0332,2.30273 -0.0107,0.27734 0.0316,0.53988 -0.14844,0.81055 -0.0587,0.088 -0.0805,0.28163 0.0195,0.4043 0.0987,0.12266 0.10022,0.29489 0.10156,0.46289 0.005,0.85466 -0.0257,1.60112 0.23828,2.45312 0.21333,0.68667 0.62772,1.52558 1.15039,2.01758 0.0907,0.0853 0.19422,0.12243 0.21289,0.12109 0.43733,-0.0253 0.80799,-0.11553 1.22266,-0.1582 0.0267,0.316 0.083,0.67656 0.0976,0.97656 0.001,0.0293 -0.11876,0.0366 -0.13476,0.002 -0.0453,-0.10534 -0.20818,-0.34218 -0.21485,-0.46485 -0.008,-0.12266 0.15631,-0.2076 0.18164,-0.32226 -0.42933,0.10666 -0.81985,0.10642 -1.11718,0.48242 0.34533,0.26933 0.66095,0.62514 1.01562,0.86914 0.116,0.08 0.33632,0.16115 0.45899,0.14648 0.12266,-0.0133 0.36221,-0.15905 0.43554,-0.26172 0.0987,-0.14 0.0213,-0.42841 0.084,-0.59375 0.184,0.0493 0.37902,0.10878 0.56836,0.16211 10e-4,-0.376 0.002,-0.7569 0.006,-1.1289 0.068,-0.0573 0.17704,0.0125 0.23437,-0.0742 0.056,-0.0867 0.0266,-0.32798 0.0879,-0.44531 0.024,-0.0467 0.22362,-0.0973 0.23828,-0.13868 0.0187,-0.0547 -0.13033,-0.15334 -0.125,-0.19336 0.0347,-0.216 0.13148,-0.34026 0.13282,-0.57226 9.9e-4,-0.232 0.14624,-0.49426 0.26757,-0.68359 0.12,-0.18934 0.22295,-0.30528 0.34961,-0.47461 -10e-4,0.284 -0.0102,0.54598 -0.0195,0.83398 -10e-4,0.0507 -0.14571,0.0639 -0.12305,0.11719 0.0227,0.0533 0.24469,0.19238 0.30469,0.26172 -0.032,-0.42134 0.17306,-0.74645 0.15039,-1.17578 -0.007,-0.12934 0.22163,-0.29968 0.26563,-0.40235 0.02,-0.0453 -0.11188,-0.14124 -0.17188,-0.14258 -0.0587,0 -0.28431,0.12882 -0.32031,0.13282 -0.0373,0.005 -0.0937,-0.0652 -0.0684,-0.0879 0.15467,-0.14534 0.38393,-0.30256 0.55859,-0.44922 -0.25066,-0.48534 -0.35185,-0.67499 0.0215,-1.09766 0.12,0.26133 0.29731,0.46696 0.30664,0.76563 0.14133,-0.064 0.28311,-0.12803 0.42578,-0.19336 0.001,-0.12667 0.003,-0.25224 0.006,-0.37891 -0.0827,0.0387 -0.16476,0.0825 -0.24609,0.11719 -0.0227,-0.364 -0.47971,-0.49414 -0.23438,-0.85547 0.0533,-0.08 0.0915,-0.0192 0.1582,-0.002 0.0667,0.0173 0.10224,0.21715 0.12891,0.28515 0.19333,-0.35866 -0.12098,-0.63972 -0.0156,-1.01172 0.104,0.0573 0.20654,0.11454 0.31054,0.17188 -0.13866,-0.304 -0.27992,-0.60482 -0.41992,-0.91016 0.008,-0.0507 0.0213,-0.10168 0.0293,-0.15234 0.0547,-0.0187 0.16464,-0.0155 0.19531,-0.0781 0.0307,-0.0613 -0.008,-0.16265 -0.0469,-0.22265 -0.0373,-0.06 -0.0863,-0.22296 -0.0703,-0.26563 0.0147,-0.0413 0.0632,-0.025 0.0899,-0.0117 0.0267,0.0133 0.0126,0.23152 0.0566,0.24219 0.056,0.0133 0.21815,-0.0834 0.27148,-0.10742 0.0533,-0.0227 0.0715,-0.10404 0.10352,-0.10938 0.0333,-0.008 0.0234,0.11019 0.0527,0.10352 0.0293,-0.008 0.14872,-0.13588 0.13672,-0.17188 -0.14667,-0.44933 -0.11291,-0.88117 -0.12891,-1.33984 -0.005,-0.156 -0.0875,-0.28116 -0.13281,-0.42383 0.26133,-0.484 0.0562,-0.96208 0.29883,-1.46875 0.0707,-0.148 0.0232,-0.39038 -0.13281,-0.51172 -0.0107,-0.008 -0.005,-0.0485 0,-0.0605 0.26266,-0.55867 0.0443,-1.14561 0.26562,-1.71094 -0.04,-0.0467 -0.24539,-0.0442 -0.24804,-0.10156 -0.004,-0.092 0.24785,-0.1895 0.25585,-0.29883 0.068,-0.892 -0.0119,-1.77073 0.13477,-2.66406 0.0213,-0.12934 -0.0981,-0.28817 -0.0781,-0.4375 0.02,-0.15067 0.086,-0.23986 0.14062,-0.39454 0.0533,-0.15333 -0.21068,-0.15332 -0.0547,-0.36132 0.052,-0.0707 -0.0396,-0.2692 -0.008,-0.39453 0.088,-0.344 0.13501,-0.61709 -0.0156,-0.98243 -0.0653,-0.156 -0.0135,-0.47829 0.004,-0.65429 0.0413,0.0813 0.15036,0.34591 0.17969,0.39257 0.028,0.0467 0.0724,0.0265 0.0684,0.004 -0.068,-0.432 -0.0627,-0.86617 -0.16406,-1.32617 -0.0413,-0.19067 -0.42528,-0.35242 -0.47461,-0.59375 -0.0307,-0.15467 -0.0521,-0.42962 0.0879,-0.62695 0.14,-0.19734 0.0293,-0.42852 0,-0.64454 -0.0307,-0.21466 0.20237,-0.41399 0.23437,-0.61132 0.004,-0.0227 0.0617,0.0257 0.0684,0.0137 -0.04,0.50267 -0.0723,1.00124 -0.0977,1.50391 0.13334,0.30532 0.2644,0.61992 0.4004,0.91992 0,-0.248 0.0288,-0.66896 0.0488,-0.87696 0.0213,-0.208 0.15154,-0.35994 0.15821,-0.47461 0.007,-0.116 -0.11924,-0.14027 -0.11524,-0.21093 0.0573,-1.52267 0.31043,-2.9801 0.25977,-4.4961 0.13866,-0.86933 0.0791,-1.6785 -0.0195,-2.5625 -0.0147,-0.12933 -0.15928,-0.35194 -0.22461,-0.47461 -0.04,0.19467 -0.13149,0.57543 -0.0781,0.7461 0.14667,0.46933 0.0304,0.85359 -0.01,1.29492 -0.0707,0.75733 -0.17295,1.47332 -0.23828,2.22266 -0.005,0.0453 0.008,0.0962 0.043,0.13085 0.036,0.0347 0.14598,0.0384 0.19532,0.0664 -0.0293,0.33067 -0.0618,0.66348 -0.0898,0.99414 -0.21066,-0.22533 -0.35962,-0.4789 -0.51562,-0.74023 0.19066,-0.48 0.33488,-0.81885 0.18554,-1.35352 -0.0533,-0.19333 -0.0122,-0.45587 0.1211,-0.67187 0.13333,-0.216 0.11142,-0.55793 0.1914,-0.8086 -0.0933,-0.084 -0.18853,-0.15828 -0.2832,-0.23828 0.224,-0.53466 0.31648,-1.11026 0.25781,-1.68359 -10e-4,-0.008 -0.0389,-0.0409 -0.0723,0.006 -0.0333,0.048 -0.15668,0.20459 -0.16602,0.30859 -0.0413,0.452 -0.11069,0.89904 -0.19336,1.3457 0.005,-0.52666 -0.0966,-1.04243 -0.39257,-1.53711 -0.008,-0.0133 -0.0175,0.003 -0.0215,-0.004 -0.056,-0.1 -0.20882,-0.30332 -0.27148,-0.33399 -0.0627,-0.0293 -0.0175,-0.0393 -0.0215,-0.0566 -0.0627,-0.308 -0.17913,-0.56964 -0.34179,-0.82031 -0.0173,-0.0267 0.0551,0.0614 0.0937,-0.0293 0.0387,-0.092 0.10391,-0.42621 0.0586,-0.57421 -0.152,-0.0213 -0.3147,-0.0294 -0.4707,-0.0508 -0.028,-0.216 -0.0358,-0.47454 -0.1211,-0.67187 -0.0853,-0.19733 0.0376,-0.46357 -0.0371,-0.62891 -0.0747,-0.16533 -0.0434,-0.42824 -0.082,-0.51758 -0.096,-0.22265 -0.27066,-0.27455 -0.36133,-0.44921 -0.0133,-0.0267 0.0213,-0.0308 0.0586,-0.0508 0.0373,-0.0187 0.31113,-0.005 0.34179,-0.0254 0.0307,-0.0213 0.0465,-0.0507 0.004,-0.0801 -0.0413,-0.0293 -0.2697,-0.0754 -0.3457,-0.10743 -0.0253,-0.27733 -0.0689,-0.41938 -0.24219,-0.63671 -0.009,0.0907 -0.0206,0.17886 -0.0312,0.26953 -0.292,-0.032 -0.58629,-0.0579 -0.87695,-0.0899 0.0267,-0.0653 0.0952,-0.18423 0.11523,-0.24023 0.0213,-0.056 0.11037,-0.16812 0.0957,-0.18945 -0.116,-0.18134 -0.36099,-0.43326 -0.48632,-0.5586 -0.12534,-0.12533 -0.16063,-0.0564 -0.2793,-0.12304 0.0373,0.17198 0.0669,0.33395 0.10156,0.50195 -0.63066,-0.60134 -1.2229,-1.23907 -1.8789,-1.81641 z m -1.00977,7.1543 c 0.0213,0.16533 0.038,0.33414 0.0605,0.49414 0.128,-0.0773 0.33145,-0.26903 0.43945,-0.31836 0.0667,-0.0293 0.13867,0.0807 0.13867,0.11133 0.008,1.512 -0.0487,2.91397 -0.35937,4.41797 -0.23334,1.13333 -0.29636,2.36191 -0.42969,3.53125 -0.0173,0.15066 -0.0551,0.2845 -0.0937,0.45117 -0.0373,0.16667 -0.15406,0.4982 -0.082,0.6582 0.16,0.36 0.0886,0.64967 0.14062,1.01367 -0.188,0.12267 -0.37512,0.24976 -0.56445,0.3711 -0.72533,0.0213 -1.42434,0.22954 -2.15234,0.18554 -0.604,0.244 -1.25327,0.24607 -1.83594,0.55274 -0.02,0.012 -0.0476,0.009 -0.0742,0.006 -0.82533,-0.005 -1.59292,0.33483 -2.40625,0.4375 0.29333,-0.62934 0.64311,-1.35489 0.92578,-1.96289 0.284,-0.604 0.59292,-1.06519 0.90625,-1.61719 0.43467,-0.76133 0.79214,-1.50039 1.24414,-2.26172 0.452,-0.76267 0.89634,-1.5075 1.51367,-2.1875 0.21734,-0.23733 0.53922,-0.51447 0.56055,-0.86914 10e-4,-0.0213 0.002,-0.0351 -0.0566,-0.006 -0.0573,0.0307 -0.33021,0.16545 -0.43555,0.18945 0.144,-0.0667 0.30379,-0.13174 0.45313,-0.20507 -0.23867,-0.004 -0.25325,-0.21303 -0.14258,-0.31836 0.06,-0.0533 0.10896,0.16821 0.1543,0.18554 0.044,0.0187 -0.01,0.13434 0.002,0.125 0.0533,-0.0533 0.32028,-0.10517 0.34961,-0.20117 0.096,-0.31466 -0.16487,-0.5315 0.0937,-0.82617 0.0187,0.152 0.0398,0.31232 0.0625,0.45898 0.056,-0.0893 0.17351,-0.35887 0.21484,-0.4082 0.0413,-0.048 -0.0315,-0.0466 -0.0195,-0.0586 0.23334,-0.244 0.57397,-0.41083 0.7793,-0.66016 0.12267,-0.148 0.16319,-0.40404 -0.0234,-0.4707 -0.0267,-0.0107 -0.0505,0.0429 -0.0625,0.0723 -0.0133,0.0267 0.025,0.10949 0.008,0.16016 -0.0173,0.0507 -0.14936,0.13411 -0.19336,0.16211 0.0267,-0.0653 0.13068,-0.24382 0.13868,-0.28516 0.007,-0.0427 0.0225,-0.1018 0.0332,-0.11914 0.012,-0.0147 0.002,0.0419 0.006,0.0312 0.0747,-0.17066 0.12354,-0.34787 0.1582,-0.5332 0.10934,0.16667 0.21879,0.33467 0.32813,0.5 0.076,-0.268 0.1487,-0.53864 0.2207,-0.80664 z"
         style="opacity:1;fill:#ffffff;stroke-width:1.33333;stop-opacity:1"
         id="path235" />
      <path
         inkscape:connector-curvature="0"
         transform="scale(0.75)"
         d="m 343.8418,196.11914 c -0.18934,0.092 -0.35315,0.20789 -0.50782,0.36524 -0.33066,0.33999 -0.67615,0.71157 -1.02148,1.1289 -0.34533,0.41867 -0.6942,0.88873 -1.01953,1.41406 -0.20267,0.32667 -0.44279,0.6826 -0.68945,1.0586 -0.248,0.37733 -0.50052,0.77559 -0.72852,1.18359 -0.22933,0.40933 -0.42438,0.83034 -0.62305,1.26367 -0.19866,0.43334 -0.39938,0.87622 -0.63672,1.32422 -0.25733,0.48534 -0.50051,0.97675 -0.72851,1.46875 -0.22667,0.492 -0.44249,0.98094 -0.64649,1.46094 -0.204,0.48 -0.39617,0.94901 -0.57617,1.40234 -0.17866,0.45334 -0.3471,0.88993 -0.50976,1.3086 -0.248,0.64 -0.47479,1.25193 -0.68946,1.83593 -0.21333,0.584 -0.41886,1.1436 -0.63086,1.6836 -0.13066,0.332 -0.26119,0.66109 -0.39453,0.98242 -0.13466,0.32133 -0.27397,0.63855 -0.41797,0.94922 -0.28933,0.62 -0.51862,1.29068 -0.75195,1.91601 -0.23333,0.62534 -0.4831,1.09986 -0.64844,1.75586 -0.164,0.65467 -0.41643,1.35234 -0.64843,2.01368 -0.15734,0.44933 -0.39561,0.89674 -0.59961,1.33007 -0.076,-0.0947 -0.15057,-0.20035 -0.22657,-0.29101 -0.007,0.116 -0.0271,0.41033 -0.0391,0.48633 -0.012,0.0773 -0.12214,0.0971 -0.13281,0.0664 -0.02,-0.052 0.009,-0.26365 -0.002,-0.34765 -0.47867,-0.20534 -0.44708,-0.72421 -0.81641,-1.04688 0.13067,-0.0267 0.50532,-0.0802 0.58398,-0.10156 0.076,-0.0213 0.0369,-0.0644 0.0195,-0.0684 -0.13867,-0.0333 -0.34267,-0.0444 -0.5,-0.0684 -0.256,-0.56533 -0.5003,-1.07526 -0.76563,-1.66992 -0.009,-0.0187 0.0747,-0.24075 0,-0.33008 -0.0947,-0.112 -0.41016,-0.32255 -0.54883,-0.44922 0.007,-0.35733 -0.25237,-0.54668 -0.48437,-0.77734 0.012,-0.0373 0.16175,-0.12887 0.14844,-0.15821 -0.104,-0.24 -0.27258,-0.4555 -0.39258,-0.6875 0.0707,0.004 0.24559,-0.001 0.29492,0.004 0.048,0.005 -0.0227,9.9e-4 0,0.0156 0.0227,0.0133 0.0784,0.10208 0.0957,0.10742 0.0187,0.005 0.0516,-0.025 0.0449,-0.041 -0.005,-0.016 -0.094,-0.0777 -0.11132,-0.0937 -0.016,-0.0187 -0.002,0.0285 -0.0176,0.002 -0.016,-0.0267 0.04,-0.15292 0,-0.18359 -0.288,-0.232 -0.62116,-0.43944 -0.92383,-0.66211 0.0587,-0.0787 0.11907,-0.16023 0.17773,-0.24023 -0.19066,-0.308 -0.40694,-0.5616 -0.34961,-0.9336 0.092,0.08 0.18278,0.16157 0.27344,0.24024 -0.0813,-0.216 -0.15357,-0.44363 -0.24023,-0.6543 -0.0533,-0.003 -0.22439,0.15967 -0.26172,0.125 -0.10267,-0.0987 -0.30908,-0.27939 -0.34375,-0.41406 -0.0267,-0.104 0.2229,-0.24747 0.24023,-0.35547 -0.112,-0.10933 -0.38537,-0.19588 -0.4707,-0.31055 -0.0893,-0.12266 0.0426,-0.31697 -0.0254,-0.43164 -0.068,-0.116 -0.24339,-0.22561 -0.27539,-0.34961 -0.16533,-0.63333 -0.50694,-1.09014 -0.84961,-1.63281 -0.068,-0.10667 -0.23894,-0.15804 -0.34961,-0.2207 0,-0.476 -0.22708,-0.74877 -0.59375,-1.02344 0.008,-0.032 0.0965,-0.0899 0.0898,-0.11523 -0.0653,-0.244 -0.19864,-0.4153 -0.30664,-0.64063 -0.10666,-0.22533 -0.14072,-0.15268 -0.082,-0.52734 0.0573,-0.37467 0.77155,-1.69223 0.93555,-1.96289 0.164,-0.272 0.10388,-0.18092 0.0879,-0.26758 -0.0253,-0.14134 -0.36268,0.0133 -0.41602,-0.10938 -0.0627,-0.14266 -0.0205,-0.40312 -0.0605,-0.56445 -0.064,0.005 -0.16337,0.20326 -0.22071,0.16992 -0.0853,-0.0493 0.01,-0.34082 -0.10742,-0.41015 -0.12133,-0.072 -0.41403,0.0196 -0.58203,-0.0606 -0.0427,-0.0213 -0.14145,-0.25979 -0.18945,-0.31445 -0.0533,0.11866 -0.095,0.26547 -0.15235,0.38281 -0.0293,-0.0413 -0.20365,-0.31107 -0.20898,-0.31641 -0.32667,-0.28533 -0.58268,-0.41529 -0.91602,-0.14062 -0.18666,-0.072 -0.41446,-0.25145 -0.59179,-0.30078 -0.176,-0.048 -0.29161,0.008 -0.46094,-0.0137 -0.16933,-0.0213 -0.35401,-0.0223 -0.52734,-0.0449 0.064,-0.12133 0.1274,-0.24452 0.1914,-0.36719 h -0.58789 c 0.0453,0.0733 0.0894,0.14871 0.13477,0.22071 -0.47067,-0.184 -0.86816,-0.19382 -1.29883,0.10351 -0.43067,0.296 -0.67653,0.64822 -0.64453,1.18555 -0.26,0.25467 -0.4348,0.47947 -0.4668,0.85547 -0.009,0.10667 -0.0796,0.20983 -0.12891,0.3125 -0.40933,0.85867 -0.81118,1.73322 -1.22851,2.58789 -0.12933,0.26533 -0.33949,0.50454 -0.41016,0.7832 -0.16266,0.63734 -0.42273,1.19616 -0.66406,1.79883 -0.24133,0.60267 -0.45565,1.1673 -0.70898,1.7793 -0.25467,0.61333 -0.52621,1.25214 -0.79688,1.88281 -0.26933,0.63067 -0.61596,1.27611 -0.89062,1.91211 -0.27334,0.63733 -0.51282,1.32894 -0.77149,1.96094 -0.19467,0.47466 -0.31036,1.05156 -0.45703,1.49023 -0.14667,0.43867 -0.34745,0.75173 -0.43945,1.15039 -0.232,1.01067 -0.65188,1.89416 -0.81055,2.91016 -0.46667,1.064 -0.63333,2.18245 -0.86133,3.31445 -0.012,0.0587 -0.0193,0.11588 -0.0273,0.17188 -10e-4,0.009 0.015,-0.009 0.0137,0.002 -0.028,0.18533 -0.0676,0.37255 -0.0996,0.56055 -0.0693,0.40266 -0.002,0.83242 -0.0234,1.23242 -0.003,0.0373 -0.009,0.072 -0.0117,0.10937 -0.36,-0.17866 -0.72687,-0.3834 -1.04687,-0.55273 -0.60133,-0.31867 -1.38901,-0.74325 -1.90234,-1.03125 -0.51467,-0.288 -1.1985,-0.54784 -1.5625,-0.70117 -0.92,-0.39067 -1.56999,-0.67229 -2.33399,-1.12696 -0.996,-0.592 -1.87689,-1.20388 -2.85156,-1.81054 -0.128,-0.08 -0.26272,-0.19573 -0.38672,-0.28907 0.08,-0.0867 0.19564,-0.23449 0.29297,-0.28515 0.35733,-0.18667 0.64473,-0.44151 0.91406,-0.71485 0.68667,-0.69466 1.3891,-1.32298 2.12109,-1.95898 0.60668,-0.53067 1.13143,-1.12354 1.7461,-1.6582 0.47333,-0.412 0.8686,-0.89212 1.44726,-1.18946 0.13867,-0.072 0.26295,-0.21156 0.34961,-0.35156 0.252,-0.412 0.57753,-0.74588 0.76953,-1.19922 0.0773,-0.18266 0.21095,-0.34995 0.34961,-0.50195 0.65734,-0.71867 1.32338,-1.4321 1.99805,-2.13477 0.0493,-0.052 0.1143,-0.0937 0.1543,-0.15234 0.43733,-0.66267 0.96556,-1.2369 1.46289,-1.85156 0.35733,-0.44267 0.76934,-0.84011 1.13867,-1.27344 0.19067,-0.22267 0.36351,-0.47152 0.46484,-0.74219 0.22667,-0.60266 0.52708,-1.13308 0.81641,-1.70508 0.0827,-0.164 0.1734,-0.32557 0.16406,-0.51757 -0.009,-0.19334 0.11396,-0.35516 0.14063,-0.53516 -0.04,0.14 -0.69428,0.28016 -0.73828,0.29883 -0.012,0.005 -0.0276,-0.18027 0.006,-0.21094 0.36666,-0.33867 0.42824,-0.86621 0.51757,-1.29687 0.088,-0.42934 0.25895,-0.77006 0.34961,-1.13672 0.0253,-0.10134 -0.16595,-0.22467 -0.14062,-0.25 0.0267,-0.024 -0.14429,-0.077 -0.12695,-0.0957 0.0173,-0.0187 0.0222,-0.0456 0.0449,-0.043 0.0213,0.003 0.0824,0.10404 0.0957,0.10937 0.005,0.001 1.8e-4,0.007 -0.004,0.0137 0.15867,-0.16533 0.14085,-0.42055 0.10352,-0.56054 -0.064,-0.23467 -0.2427,-0.24365 -0.33203,-0.43165 -0.33333,0.22267 -0.17868,0.53739 -0.27735,0.88672 -0.008,0.028 -0.19565,0.0958 -0.20898,0.14649 -0.0187,0.0707 0.16286,0.19548 0.13086,0.27148 -0.1,0.22267 -0.29983,0.4383 -0.42383,0.6543 -0.0213,-0.26267 -0.046,-0.639 0.002,-0.875 0.0467,-0.236 0.17001,-0.308 0.25,-0.5 -0.19198,-0.37467 -0.5434,-0.69713 -0.6914,-1.0918 -0.0627,-0.16933 0.52089,-0.0819 0.21289,-0.36328 -0.14533,0.0413 -0.31942,0.0954 -0.46875,0.13672 0.0307,-0.10933 0.1986,-0.30582 0.19726,-0.39648 1e-5,-0.092 -0.13568,-0.14332 -0.17968,-0.19532 -0.0453,-0.052 -0.24482,0.006 -0.27149,-0.0352 -0.132,-0.20267 -0.33158,-0.36513 -0.40625,-0.5918 -0.048,-0.152 0.12528,-0.41279 0.11328,-0.57813 -0.0933,10e-4 -0.22493,0.12352 -0.32226,0.10352 -0.0973,-0.02 -0.25684,-0.0633 -0.32617,-0.14062 -0.0693,-0.076 -0.0611,-0.28086 -0.1211,-0.38086 -0.06,-0.1 -0.19961,-0.23722 -0.23828,-0.31055 -0.036,-0.0653 0.14696,-0.1333 0.12695,-0.16797 -0.13864,-0.23733 -0.24621,-0.42197 -0.43554,-0.64062 -0.18934,-0.21869 -0.4097,-0.45698 -0.70703,-0.57032 -0.63334,-0.23866 -1.29647,-0.47557 -1.98047,-0.49023 -1.184,-0.0253 -2.35553,-0.0908 -3.51953,0.0879 -0.648,0.1 -1.36804,0.18442 -1.97071,0.3164 -0.60266,0.13202 -1.02736,0.2619 -1.58203,0.47657 -0.55466,0.21333 -1.1194,0.44105 -1.6914,0.65039 -0.736,0.27066 -1.46588,0.57771 -2.14453,0.98437 -0.876,0.524 -1.76085,0.97752 -2.60352,1.57617 -0.29467,0.21068 -0.58937,0.41877 -0.9707,0.4961 -0.38134,0.0787 -0.66402,0.36813 -1.05469,0.4668 -0.21467,0.0547 -0.42777,0.21789 -0.62109,0.33789 -0.005,0.17333 -0.004,0.34486 -0.01,0.51953 -0.17733,0.13066 -0.4065,0.27167 -0.5625,0.40234 -0.024,0.02 0.005,0.0939 0.041,0.0859 0.18667,-0.044 0.44125,-0.15051 0.64258,-0.20117 -0.276,0.23066 -0.60328,0.67918 -0.86328,0.86718 -0.26,0.18934 -0.45317,0.12172 -0.70117,0.26172 0,-0.11333 -0.003,-0.20912 -0.006,-0.31445 -0.11867,0.092 -0.23875,0.18339 -0.35742,0.27539 0.22133,0.0773 0.44273,0.1518 0.66406,0.23047 -0.15467,0.18533 -0.36272,0.32719 -0.52539,0.50586 -0.16267,0.18 -0.47693,0.28226 -0.68359,0.32226 -0.10134,0.0187 -0.17775,-0.18455 -0.23243,-0.19921 -0.0547,-0.0147 0.005,-0.077 -0.0137,-0.0703 -0.27466,0.12 -0.43047,0.15073 -0.73047,0.0801 0.38267,0.40133 0.77438,0.79851 1.1504,1.20117 0.0453,-0.02 0.0517,-0.0662 0.0664,-0.0449 0.0467,0.0773 0.36734,0.15732 0.38867,0.22266 0.0293,0.0907 -0.0908,0.23054 -0.0762,0.31054 0.092,0.528 -0.0345,0.94207 -0.23047,1.41407 -0.0347,0.0853 -0.0561,0.17452 -0.0801,0.25586 -0.24,0.82933 -0.51433,1.79803 -0.76367,2.58203 -0.248,0.784 -0.44017,1.40614 -0.71484,2.13281 -0.17733,0.47067 -0.32412,0.8747 -0.55078,1.33203 -0.22534,0.45867 -0.46932,0.92398 -0.58399,1.44531 -0.11466,0.52267 -0.20792,1.07813 -0.41992,1.57813 -0.36933,0.87467 -0.64687,1.74281 -0.9082,2.66016 -0.17067,0.60265 -0.40101,1.16182 -0.40235,1.8125 0,0.22665 -0.11745,0.45506 -0.18945,0.67773 -0.168,0.516 -0.34259,1.01655 -0.41992,1.56055 -0.0467,0.33066 -0.0636,0.69376 -0.18359,1.00976 -0.264,0.69734 -0.36876,1.36861 -0.60743,2.08594 -0.176,0.52533 -0.21789,1.09392 -0.33789,1.66992 -0.12,0.57467 -0.28826,1.22707 -0.43359,1.81641 -0.0107,0.0427 -0.006,0.0893 -0.01,0.13867 -0.0213,0.29067 -0.0584,0.55804 -0.0664,0.85937 -0.009,0.3 0.0219,0.58901 0.0605,0.90235 0.0667,0.544 0.10072,0.9983 0.63672,1.29297 0.0853,0.0467 0.16685,0.14575 0.21485,0.23242 0.32,0.572 0.80998,0.73636 1.33398,1.06836 0.78,-0.14534 1.3595,-0.16822 1.96485,-0.68555 0.42133,-0.35867 0.57159,-0.57699 0.90624,-0.84766 0.52135,-0.41999 0.70516,-1.27824 0.64649,-1.76757 -0.28667,0.168 -0.41065,0.78567 -1.08399,0.51367 0.032,-0.0973 0.12459,-0.32272 0.16993,-0.38672 0.50933,-0.71067 0.8409,-1.2286 0.99023,-2.08594 0.036,-0.20533 0.0889,-0.47931 0.12891,-0.69531 -0.0853,0.0467 -0.1725,0.0965 -0.25781,0.14453 0.0693,-0.704 0.34611,-1.16412 0.80078,-1.68945 0.0293,-0.0333 0.0588,-0.0622 0.10546,-0.0488 0.048,0.0133 0.1387,0.14697 0.19336,0.18164 0.0253,-0.22 0.039,-0.44663 0.0684,-0.66797 0.22667,-0.0333 0.60097,-0.0923 0.79297,-0.12695 0.192,-0.036 0.22657,0.0224 0.36524,-0.0723 0.13866,-0.0947 0.2269,-0.0872 0.3789,-0.0312 0.15334,0.056 0.29741,-0.11728 0.44141,-0.11328 0.52,0.0147 0.79319,-0.17819 1.25586,-0.38086 0.236,-0.10266 0.57718,0.0764 0.83984,-0.0996 0.26134,-0.17733 0.55686,-0.20781 0.88086,-0.14648 0.32267,0.06 0.93787,-0.26986 1.14453,0.0781 0.004,0.007 -0.0396,-0.0273 -0.0156,0.0273 0.0227,0.0547 0.19901,0.0106 0.29101,0.0293 0.308,0.06 0.6255,0.19635 0.9375,0.29102 0.60534,0.18533 1.21632,0.37627 1.82032,0.57227 1.06,0.344 2.05757,0.79413 3.01757,1.35546 0.82267,0.48 1.63629,0.95038 2.48829,1.37305 0.0227,0.012 0.0457,0.0225 0.0684,0.0332 0.35599,0.172 0.70497,0.35901 1.07031,0.51368 0.656,0.27466 1.32373,0.50538 1.92773,0.88671 0.152,0.096 0.40812,0.1264 0.55078,0.1504 0.144,0.024 0.29243,0.0336 0.3711,0.043 0.0787,0.009 0.0446,0.0116 0.0566,0.0156 0.224,0.0627 0.39371,0.1023 0.62304,0.1543 0.22934,0.052 0.50495,0.1115 0.73829,0.1875 0.0333,0.012 0.0625,0.0525 0.0879,0.0645 0.0147,0.008 0.0245,0.006 0.0351,0.006 0.016,0.072 0.0321,0.1447 0.0508,0.2207 0.12267,0.49734 0.28911,0.9526 0.39844,1.44727 0.009,0.04 0.0265,0.0799 0.0332,0.11328 0.007,0.032 -0.0251,-0.0344 -0.0117,0.0176 0.0133,0.0507 0.0848,0.27736 0.10351,0.33203 0.0187,0.0533 0.0234,0.0594 0.0312,0.082 0.008,0.0227 0.004,0.0154 0.008,0.0234 v 0.002 c 0.41734,0.97467 0.88011,1.76601 1.77344,2.38867 0.31067,0.216 0.66703,0.39463 1.06836,0.5293 0.25067,0.0827 0.61962,0.0392 0.87695,-0.1875 0.472,-0.416 0.89738,-0.88067 1.10938,-1.52735 0.14533,-0.44399 0.31519,-0.87246 0.50586,-1.34179 0.18933,-0.468 0.35673,-1.02797 0.55273,-1.5293 0.19467,-0.5 0.19769,-1.08736 0.42969,-1.58203 -0.003,-0.87333 -0.003,-1.74261 -0.006,-2.61328 -0.152,0.18 -0.24416,0.40305 -0.29883,0.62305 -0.18133,0.72266 -0.40438,1.39301 -0.76172,2.04101 -0.18,0.324 -0.42584,0.60621 -0.58984,0.93555 -0.37733,0.74933 -0.84993,1.40857 -1.30859,2.11523 -0.0133,0.0213 -0.18223,0.0127 -0.21289,-0.002 -0.0147,-0.22533 -0.0353,-0.63597 0.0527,-0.80664 0.0893,-0.17067 0.0806,-0.3012 0.0859,-0.39453 0.007,-0.0933 0.024,-0.0115 0.0254,-0.0488 0,-0.036 0.006,-0.047 0.002,-0.0684 -0.088,-0.41733 0.23286,-0.71262 0.38086,-1.00195 0.0147,-0.028 0.018,-0.0579 0.0273,-0.0859 0.13867,-0.1 0.27773,-0.21746 0.4004,-0.32813 0.024,-0.0213 0.0521,-0.0417 0.0801,-0.0684 0.0267,-0.028 0.005,-0.01 0.0527,-0.0605 0.048,-0.0507 0.20857,-0.23359 0.2539,-0.29492 0.0453,-0.06 -0.0162,0.0238 0.0371,-0.0469 0.052,-0.0707 0.26336,-0.3393 0.30469,-0.41797 0.0413,-0.0787 0.13809,-0.13063 0.10742,-0.16797 -0.004,-0.003 0,-0.003 0,-0.006 -0.012,0.003 -0.0348,0.006 -0.0762,0.006 -0.12667,0 -0.53625,0.0271 -0.79492,-0.0742 0.28667,-0.91202 0.47856,-1.83534 0.72656,-2.75 0.12,-0.44268 0.22418,-0.91765 0.35352,-1.32032 0.12933,-0.404 0.27239,-0.72832 0.40039,-1.09765 0.31866,-0.93067 0.63121,-1.84275 1.06054,-2.71875 0.22934,-0.46934 0.58471,-0.89206 0.72071,-1.38672 0.20266,-0.72667 0.52249,-1.35035 0.78515,-2.04102 0.45067,-1.19066 0.92258,-2.32218 1.50391,-3.46484 0.38933,-0.76667 0.79095,-1.46462 0.98828,-2.36328 0.0453,-0.21067 0.0597,-0.63065 0.45703,-0.58399 0.32934,0.84134 0.64857,1.67978 0.97657,2.53711 0.23066,0.60667 0.42992,1.11096 0.66992,1.76563 0.24133,0.65333 0.45341,1.44896 0.71875,2.15429 0.324,0.85867 0.6325,1.7743 0.95117,2.6543 0.216,0.59333 0.41989,1.19969 0.58789,1.81836 0.23467,0.868 0.51864,1.72789 0.80664,2.58789 0.232,0.692 0.48557,1.36969 0.74023,2.06836 0.0307,0.084 0.0651,0.11291 0.0918,0.26758 0.0267,0.15466 0.0866,0.43473 0.0879,0.66406 0,0.228 -0.0385,0.57755 -0.0625,0.82422 0.228,0.37333 0.45693,0.73737 0.6836,1.10937 l 0.65234,-0.14062 c 0.148,0.224 0.29074,0.45907 0.44141,0.67773 0.0773,-0.0107 0.24282,-0.17705 0.29882,-0.15039 0.0693,0.0347 -0.0165,0.34939 0.0488,0.38672 0.06,0.0333 0.20978,-0.10218 0.28711,-0.10351 0.27867,0.312 0.54555,0.63907 0.82422,0.95507 0.29467,0.032 0.67269,0.0184 0.94336,0.0664 0.136,0.024 0.14733,0.23738 0.25,0.24805 0.10133,0.012 0.23346,-0.0967 0.32812,-0.082 0.38,0.056 0.86602,0.0699 1.16602,0.2539 0.29867,0.184 0.46669,0.022 0.69336,0.0312 0.176,0.008 0.20769,0.28212 0.31836,0.30078 0.092,0.0147 0.15112,-0.12748 0.20312,-0.13281 0.052,-0.005 0.10057,0.10637 0.11524,0.0957 0.19466,-0.16266 0.37245,-0.38111 0.56445,-0.53711 0.19333,-0.15599 0.39546,-0.2601 0.57813,-0.4121 0.18133,-0.152 0.29534,-0.34855 0.52734,-0.42188 0.0947,-0.35067 0.21263,-0.62205 0.2793,-0.99805 0.0667,-0.37466 0.0384,-0.81729 0.25976,-1.16797 0.0533,-0.74798 0.26233,-1.43581 0.48633,-2.14648 0.0853,-0.27067 0.17856,-0.53631 0.22656,-0.82031 0.10534,-0.61067 0.10655,-1.19092 0.31055,-1.79492 0.14133,-0.41867 0.15058,-0.88999 0.28125,-1.33399 0.12933,-0.444 0.1322,-0.87894 0.26953,-1.34961 0.13467,-0.46933 0.19586,-1.05007 0.25586,-1.55273 0.007,-0.0667 0.0122,-0.16117 0.0469,-0.20117 0.18666,-0.21334 0.0732,-0.45194 0.14257,-0.69727 0.0693,-0.24667 0.16531,-0.50538 0.16797,-0.74805 10e-4,-0.24266 0.0258,-0.35636 0.0937,-0.56836 0.12667,-0.39866 0.17819,-0.73283 0.24219,-1.1875 0.0653,-0.45466 0.0816,-1.02304 0.24023,-1.48437 0.11334,-0.32667 0.19096,-0.65752 0.26563,-0.99219 0.0747,-0.33466 0.14795,-0.67472 0.25195,-1.02539 0.12667,-0.42933 0.22387,-0.79145 0.39453,-1.30078 0.172,-0.51067 0.43308,-1.25158 0.56641,-1.90625 0.068,-0.328 0.1518,-0.6498 0.23047,-0.98047 0.0787,-0.332 0.15246,-0.67549 0.20312,-1.04883 0.0253,-0.18133 0.0892,-0.30017 0.17188,-0.57617 0.084,-0.276 0.21537,-0.79225 0.35937,-1.15625 0.13334,-0.34 0.2581,-0.7157 0.38477,-1.0957 0.128,-0.38 0.26154,-0.76448 0.4082,-1.11914 0.132,-0.32 0.26759,-0.64609 0.40625,-0.96875 0.13867,-0.32267 0.27983,-0.64503 0.42383,-0.95703 0.096,-0.21067 0.19049,-0.40743 0.28516,-0.60743 z m -35.63672,7.84375 c 0.18906,0.008 0.38059,0.11453 0.55859,0.14453 -10e-4,0.32267 -0.004,0.64094 -0.004,0.96094 -0.344,0.61067 -0.67401,1.21888 -1.02735,1.82422 -0.54133,0.92266 -1.10675,1.82632 -1.71875,2.70898 -0.25466,0.368 -0.57472,0.6942 -0.88672,1.01953 -0.93733,0.97867 -1.86478,1.94426 -2.80078,2.9336 -0.22666,0.23866 -0.42057,0.5041 -0.7539,0.63476 -0.0733,0.0293 -0.1316,0.13237 -0.1836,0.20703 -0.52,0.764 -1.16525,1.42674 -1.91992,1.94141 -0.89467,0.612 -1.7332,1.26503 -2.5332,1.95703 -0.608,0.52534 -1.30272,1.03128 -1.88672,1.50196 -0.584,0.47066 -1.10912,0.69467 -1.67578,1.13867 -0.0507,0.04 -0.16123,0.0536 -0.22657,0.0723 -0.0173,-0.54533 0.22128,-1.03311 0.33594,-1.53711 0.0187,-0.0813 -0.12162,-0.074 -0.12695,-0.14062 0.47067,-0.37734 0.63337,-0.80163 0.60937,-1.4043 -0.0947,0.0587 -0.1872,0.11712 -0.2832,0.17578 0.0267,-0.14933 -0.0212,-0.3277 0.0762,-0.45703 0.0973,-0.13067 0.30336,-0.16299 0.44336,-0.23633 0.14,-0.36266 0.6132,-0.69189 0.39453,-1.08789 -0.009,-0.0173 -0.0393,0.008 -0.0273,0 0.26133,-0.19733 0.30082,-0.42504 0.27148,-0.73437 -0.0853,-0.001 -0.17052,0.009 -0.25586,0 -0.044,-0.20267 -0.10809,-0.65198 -0.0508,-0.80664 0.0573,-0.156 0.0938,-0.17503 0.20313,-0.20703 0.108,-0.032 0.32832,0.15676 0.45898,0.16211 -0.0107,-0.24268 -0.0263,-0.50005 -0.041,-0.74805 -0.10934,0.0587 -0.21879,0.12564 -0.32813,0.18164 0.0827,-0.132 0.14771,-0.39557 0.23438,-0.49024 0.048,-0.052 0.1283,0.16196 0.18164,0.14063 0.0533,-0.0213 0.19478,-0.14446 0.18945,-0.20313 -0.0347,-0.392 0.16867,-0.69868 0.25,-1.05468 0.0813,-0.356 0.10867,-0.72421 0.25,-1.04688 0.31333,-0.72 0.43697,-1.5408 0.79297,-2.21679 0.356,-0.67467 0.68982,-1.01253 1.39648,-1.36719 0.70667,-0.35334 1.56922,-0.77535 2.31055,-1.16602 0.38133,-0.2 0.83054,-0.33647 1.17188,-0.61914 -0.0173,0.02 -0.0354,0.0398 -0.0527,0.0625 0.34133,-0.152 0.71793,-0.16428 0.94727,-0.48828 -0.35734,0.11333 -0.63358,0.1362 -0.87891,0.4082 h -0.38867 c -0.10267,-0.30533 0.20786,-0.33484 0.25586,-0.57617 0.008,-0.04 -0.0385,-0.0329 -0.0625,-0.0449 -0.024,-0.012 -0.0986,0.0425 -0.14258,0.0332 -0.0453,-0.009 -0.12248,-0.12611 -0.14648,-0.16211 0.0627,0.016 0.20262,0.0761 0.25195,0.0801 0.048,0.003 0.0875,0.0115 0.10351,0.0195 0.016,0.008 -0.0196,0.008 -0.0156,0.008 0.11067,0.0253 0.29596,0.0787 0.39062,0.0547 0.096,-0.0253 0.0881,-0.27034 0.16407,-0.26367 0.092,0.009 0.19439,0.21896 0.28906,0.26563 0.26667,-0.164 0.52097,-0.38316 0.79297,-0.53516 0.0387,-0.0213 0.0761,0.10617 0.13476,0.10352 0.392,-0.0213 0.49983,-0.40194 0.78516,-0.58594 0.0853,-0.0547 0.13924,0.14261 0.25391,0.11328 0.20933,-0.0533 0.47369,-0.18762 0.70703,-0.23828 0.0493,-0.0107 0.14436,0.15272 0.20703,0.13672 0.0573,-0.012 0.10592,-0.24848 0.16992,-0.25782 0.33467,-0.0507 0.59769,0.004 0.92969,-0.15429 0.0973,-0.0467 0.23276,0.10647 0.38476,0.004 0.15067,-0.104 0.22922,-0.008 0.44922,-0.0215 0.22134,-0.0133 0.63677,-0.004 0.88477,-0.10938 0.0623,-0.026 0.12448,-0.0357 0.1875,-0.0332 z"
         style="fill:#ffffff;fill-opacity:1;stroke-width:1.07663"
         id="path468" />
      <path
         inkscape:connector-curvature="0"
         id="rect440"
         transform="scale(0.75)"
         d="m 287.97852,186.59961 c -0.10667,-0.001 -0.20903,0.004 -0.31836,0.008 -0.104,0.004 -0.2085,0.0203 -0.3125,0.043 -0.156,0.0347 -0.31471,0.0847 -0.47071,0.13672 -0.156,0.052 -0.31089,0.10267 -0.46289,0.13867 -0.172,0.0427 -0.34609,0.0591 -0.52344,0.0644 -0.0587,0.003 -0.11773,0.002 -0.17773,0.002 -0.0587,-0.001 -0.11711,0 -0.17578,0 -0.0573,0.001 -0.11464,0.002 -0.16797,0.008 -0.0547,0.005 -0.1062,0.0121 -0.1582,0.0215 -0.0507,0.009 -0.10106,0.0212 -0.15039,0.0332 -0.0507,0.0133 -0.0997,0.0257 -0.15039,0.0391 -0.0493,0.0133 -0.10097,0.0257 -0.1543,0.0391 -0.052,0.0133 -0.10416,0.0251 -0.16016,0.0371 -0.056,0.0107 -0.11382,0.0219 -0.17382,0.0312 -0.064,0.0107 -0.12493,0.0244 -0.1836,0.0391 -0.0587,0.0147 -0.11525,0.0321 -0.16992,0.0508 -0.0547,0.02 -0.1062,0.0398 -0.1582,0.0625 -0.052,0.0227 -0.1023,0.0463 -0.1543,0.0703 -0.0533,0.0227 -0.10806,0.047 -0.16406,0.0684 -0.0547,0.0213 -0.11374,0.0413 -0.17774,0.0547 -0.0467,0.012 -0.0908,0.0263 -0.13476,0.041 -0.0453,0.016 -0.0888,0.0309 -0.13282,0.0469 -0.044,0.016 -0.0894,0.0328 -0.13476,0.0488 -0.044,0.016 -0.0875,0.0322 -0.13281,0.0469 -0.0453,0.0147 -0.0914,0.0277 -0.13672,0.041 -0.13734,0.0387 -0.28088,0.0714 -0.43555,0.082 -0.20533,0.0147 -0.38693,0.0669 -0.57226,0.12695 -0.18667,0.06 -0.37642,0.1253 -0.59376,0.16797 -0.10932,0.0213 -0.22003,0.0513 -0.33203,0.0859 -0.33466,0.104 -0.6799,0.25753 -1.0039,0.4082 -0.432,0.20133 -0.93977,0.20781 -1.39844,0.36914 -0.9,0.31333 -1.8008,0.61558 -2.7168,0.90625 -0.916,0.292 -1.85266,0.50334 -2.75,0.88867 -0.45066,0.192 -0.96131,0.26895 -1.44531,0.37695 -0.25467,0.0573 -0.51744,0.11926 -0.77344,0.16993 0.44934,-0.21334 0.92911,-0.42294 1.39844,-0.57227 0.468,-0.14933 0.92601,-0.23919 1.38867,-0.36719 0.10267,-0.0293 0.25241,-0.087 0.31641,-0.12304 0.0333,-0.0213 -0.0726,-0.0626 -0.0859,-0.0586 -0.44267,0.10934 -0.88146,0.21985 -1.32812,0.33985 -0.44534,0.12 -0.89694,0.23964 -1.32227,0.43164 -0.42533,0.19066 -0.88394,0.23355 -1.33594,0.32421 -0.0213,0.004 -0.0466,0.003 -0.0586,0.0137 -0.25333,0.24133 -0.51104,0.26006 -0.8457,0.30273 -0.336,0.0427 -0.56473,0.24608 -0.91407,0.33008 -0.34933,0.084 -0.81777,0.17913 -1.14843,0.3418 -0.33067,0.16266 -0.69092,0.14985 -1.01758,0.22851 -0.32667,0.0787 -0.6566,0.21697 -0.94727,0.29297 -0.29066,0.0747 -0.49785,0.0359 -0.72851,0.19727 -0.22934,0.16 -0.49695,0.12938 -0.73828,0.24804 -0.24134,0.11867 -0.66849,0.2547 -0.89649,0.19336 -0.11467,-0.0213 -0.21477,0.0848 -0.41211,0.10742 -0.19733,0.0213 -0.39668,0.0498 -0.52734,0.0937 -0.132,0.044 -0.15103,0.10367 -0.56836,0.125 -0.41733,0.0227 -0.93696,0.27615 -1.1543,0.24415 -0.1,-0.0133 -0.71272,0.28202 -0.99804,0.30468 -0.28535,0.0213 -0.2614,0.0754 -0.5254,0.0527 -0.26266,-0.0213 -0.68142,0.0574 -0.85742,0.0801 -0.176,0.0213 -0.23753,0.10381 -0.4082,0.14648 -0.16533,0.0413 -0.11712,0.0937 -0.31445,0.0937 h -0.28516 c -0.15333,0 -0.26371,0.0224 -0.37305,0.0664 -0.10933,0.044 -0.52742,0.19726 -0.74609,0.19726 -0.0307,0 -0.054,-0.005 -0.082,-0.008 -0.0453,0.0427 -0.0956,0.0845 -0.12891,0.11914 -0.43466,0.005 -0.82705,0.18267 -1.26172,0.13867 -0.22266,0.148 -0.48275,0.0718 -0.71875,0.14649 -0.23733,0.0747 -0.4364,0.0854 -0.67773,0.10937 -0.24,0.024 -0.4164,0.1077 -0.67774,0.0957 -0.26266,-0.012 -0.57184,0.028 -0.83984,0.11328 -0.26667,0.084 -0.53969,0.12974 -0.81836,0.17774 -0.43333,0.0733 -0.85697,0.066 -1.29297,0.16602 -0.70133,0.15999 -1.30997,0.25357 -2.05664,0.3789 -0.74666,0.12533 -1.63973,0.28787 -2.42773,0.39453 -0.20934,0.028 -0.42525,0.14078 -0.64258,0.16211 -0.71467,0.072 -1.401,0.27 -2.125,0.25 -0.98933,0.288 -2.04226,0.35463 -3.04492,0.5293 -0.48267,0.084 -0.95955,0.14074 -1.43555,0.1914 v 3.68946 c 1.22533,0.0253 2.41914,-0.22092 3.61914,-0.40625 0.24933,-0.0387 0.53789,-0.0615 0.69922,-0.13086 0.14533,-0.0613 0.61415,-7e-5 0.63281,0.0586 0.0267,0.08 -0.54361,0.21079 -0.59961,0.32813 -0.012,0.0213 -0.097,0.12707 -0.041,0.17773 0.056,0.0507 0.14684,0.0533 0.21484,0.0293 0.0693,-0.0227 0.0578,-0.21255 0.0898,-0.19922 0.0733,0.0293 0.13741,0.347 0.21874,0.375 0.0773,0.0267 0.18892,-0.19088 0.26758,-0.18555 0.0787,0.007 0.0366,0.10829 0.14063,0.12696 0.10266,0.0213 0.28559,-0.1257 0.43359,-0.0684 0.14934,0.0587 0.30564,0.43896 0.54297,0.26562 0.13733,-0.1 0.14377,-0.37724 0.25977,-0.5039 0.24133,0.0133 0.5885,0.20768 0.8125,0.17968 0.208,-0.0253 0.33918,-0.2885 0.22851,-0.45117 -0.0747,-0.11067 -0.34965,-0.14947 -0.45898,-0.24414 -0.40534,0.4 -0.82847,0.27023 -1.3418,0.35156 0.36933,-0.26933 0.75565,-0.39021 1.20899,-0.43554 0.28133,-0.028 0.55516,0.0875 0.8125,-0.0605 0.25866,-0.148 0.5303,-0.0587 0.79296,-0.10938 0.264,-0.052 0.49233,-0.10672 0.73633,-0.16406 0.244,-0.0587 0.48904,-0.005 0.73438,-0.0742 0.244,-0.0693 0.47168,0.10377 0.67968,-0.10156 0.36267,0.0373 0.69798,-0.11482 1.05665,-0.0215 0.0347,0.009 0.0652,0.008 0.0879,0.0625 0.0227,0.0533 -8.7e-4,0.20605 -0.0195,0.27539 -0.24666,-0.0347 -0.41221,-0.14957 -0.68554,-0.10157 -0.272,0.0493 -0.59972,0.25647 -0.87305,0.3418 -0.0507,0.016 -0.0566,-0.10609 -0.14062,-0.10742 -0.084,-0.003 -0.24704,-0.0198 -0.34571,-0.008 0.064,0.10933 0.15299,0.24223 0.20899,0.35156 0.0573,0.10933 0.0861,0.19607 0.13281,0.30273 0.48533,-0.22133 0.9717,-0.44077 1.45703,-0.66211 0.0813,0.132 0.15943,0.26058 0.24609,0.39258 0.29734,-0.0733 0.64082,-0.12702 0.77149,-0.42968 0.0507,-0.11734 -0.1844,-0.29645 -0.17774,-0.42579 0.508,-0.0893 1.05922,-0.1983 1.56055,-0.29297 0.0267,-0.005 0.0506,0.0583 0.0293,0.0703 -0.18534,0.104 -0.42429,0.21178 -0.62695,0.31445 0.17999,0.15867 0.30039,0.18288 0.53906,0.18555 0.132,-0.18 0.18138,-0.39082 0.38672,-0.52149 0.204,-0.12933 0.58682,-0.21176 0.79882,-0.25976 0.21334,-0.048 0.28795,0.0143 0.47461,0.0156 -0.12,0.17867 -0.22303,0.37168 -0.3457,0.54102 -0.012,0.016 -0.0666,0.046 -0.084,-0.002 -0.0187,-0.048 -0.0276,-0.26314 -0.0449,-0.3418 -0.0653,0.0573 -0.13512,0.12359 -0.20312,0.18359 -0.0107,0.32134 -0.0252,0.63889 -0.0332,0.96289 0.23733,-0.108 0.59616,-0.14596 0.79882,-0.27929 0.13067,-0.0853 0.0639,-0.291 0.19727,-0.375 0.13333,-0.084 0.28683,-0.0885 0.4375,-0.11915 -0.076,0.28934 -0.14194,0.58053 -0.22461,0.86719 -0.10133,0.0333 -0.3957,0.009 -0.45703,0.0547 -0.0707,0.0533 -0.0531,0.1336 -0.0117,0.21094 -0.36,-0.0827 -0.61591,-0.22211 -1.00391,-0.0234 -0.11066,0.0573 -0.38039,-0.0437 -0.53906,-0.0664 -0.032,-0.004 -0.0959,0.15254 -0.19726,0.14453 -0.10134,-0.008 -0.45379,-8.2e-4 -0.56446,0.0898 -0.0147,0.012 -0.0479,0.1391 0.0254,0.14844 0.26,0.0347 0.61739,0.0739 0.88672,-0.0781 0.024,0.0107 0.1392,0.10352 0.14453,0.10352 0.44667,-0.076 0.85964,-0.18392 1.29297,-0.28125 0.0813,0.0467 0.24298,0.0654 0.32031,0.0801 -0.2,0.56668 -0.15703,1.16581 -0.5957,1.61915 0.0253,0.0653 0.0973,0.1899 0.084,0.2539 -0.0813,0.404 -0.17735,0.77597 -0.27735,1.16797 -0.14266,0.56 -0.28373,1.10654 -0.42773,1.67188 -0.144,0.56533 -0.31055,1.16051 -0.44922,1.72851 -0.14,0.568 -0.25143,1.13913 -0.38477,1.70313 -0.132,0.56533 -0.29344,1.19694 -0.41211,1.73828 -0.11733,0.54133 -0.27321,0.97066 -0.31054,1.5 -0.02,0.276 -0.062,0.55597 -0.14063,0.80664 -0.128,0.41066 -0.28298,0.81261 -0.32031,1.22461 -0.0373,0.41333 -0.19148,0.89152 -0.27148,1.24219 -0.08,0.35065 -0.0376,0.59933 -0.12696,0.88867 -0.14666,0.47466 -0.19255,0.88951 -0.33789,1.35351 -0.084,0.26534 -0.0223,0.53545 -0.1543,0.80078 -0.13066,0.26534 -0.0132,0.59799 -0.22656,0.83399 -0.009,0.47866 -0.15357,0.91614 -0.24023,1.38281 -0.0467,0.25333 -0.0146,0.51381 -0.11328,0.75781 -0.0973,0.244 -0.0606,0.498 -0.11524,0.75 -0.0533,0.25334 -0.16258,0.4781 -0.14258,0.7461 0.0187,0.268 -0.13557,0.54726 -0.1289,0.80859 0.007,0.26 -0.094,0.51533 -0.11133,0.75 -0.0333,0.42267 -0.14264,0.91697 -0.16797,1.29297 -0.024,0.37733 -0.0264,0.69085 -0.12109,0.99219 -0.0933,0.30266 -0.0668,0.49353 -0.10547,0.76953 -0.0373,0.276 -0.0931,0.46981 -0.12109,0.75781 -0.028,0.288 -0.016,0.64231 -0.10938,0.93164 -0.0933,0.288 -0.0106,0.56347 -0.0293,0.85547 -0.02,0.29067 -0.10128,0.57909 -0.11328,0.87109 -0.0227,0.536 -0.0225,1.06361 -0.008,1.59961 0.0347,1.324 -0.0976,2.63703 0.0957,3.95703 0.096,0.65067 0.20009,1.29989 0.35742,1.94922 0.20267,0.832 0.46886,1.60024 0.88086,2.37891 0.41067,0.77867 1.07082,1.27867 1.88282,1.63867 0.44666,-0.144 0.71378,-0.43308 0.92578,-0.84375 0.072,-0.14 0.007,-0.24075 -0.0586,-0.46875 -0.064,-0.228 -0.24695,-0.65175 -0.26562,-0.98242 -0.048,-0.832 0.0801,-1.70492 0.13476,-2.54492 0,-0.02 -0.008,-0.0499 0,-0.0606 0.2,-0.264 0.0881,-0.51445 0.13477,-0.81445 0.0467,-0.3 0.15433,-0.49079 0.125,-0.82813 -0.0293,-0.33733 0.10591,-0.72411 0.25391,-1.05078 0.0307,-0.0667 0.10518,-0.12793 0.11718,-0.19726 0.13467,-0.76667 0.31768,-1.50386 0.51368,-2.25586 0.11066,-0.428 0.19627,-0.84935 0.34961,-1.27735 0.152,-0.428 0.31623,-0.99059 0.3789,-1.41992 0.0627,-0.43067 0.1667,-0.76128 0.33203,-1.11328 0.164,-0.35067 0.27781,-0.76246 0.25781,-1.0918 -0.02,-0.32933 -0.0544,-0.47471 -0.0371,-0.74804 0.001,-0.0227 0.046,-0.0335 0.0566,0.008 0.0107,0.0427 0.0259,0.27342 0.0312,0.35742 0.007,0.084 -0.002,0.29504 0.002,0.3457 0.004,0.0507 0.054,0.0171 0.0566,0.0117 0.22,-0.57466 0.29202,-1.17995 0.55469,-1.75195 0.0267,-0.0573 -0.0693,-0.19781 -0.084,-0.25781 -0.0147,-0.0613 -0.0415,-0.12564 -0.0215,-0.18164 0.02,-0.056 0.1706,0.0234 0.19726,-0.0566 0.16534,-0.49866 0.3037,-1.04426 0.45704,-1.57226 0.0133,-0.0427 0.0348,-0.0445 0.0215,-0.14453 -0.0133,-0.0987 -0.0613,-0.38682 -0.084,-0.52149 0.27733,-0.35066 0.32537,-0.67478 0.10937,-1.05078 -0.0547,-0.096 -0.11936,-0.26574 -0.082,-0.3164 0.20267,-0.28534 0.0817,-0.60272 0.17773,-0.88672 0.0307,-0.092 0.14803,-0.0451 0.19336,-0.1211 -0.0347,-0.17333 -0.0332,-0.47104 -0.004,-0.62304 0.0307,-0.152 0.20141,-0.14743 0.21875,-0.2461 0.044,-0.26533 -0.0119,-0.59083 0.13476,-0.79882 0.14667,-0.208 0.1202,-0.31082 0.13086,-0.52149 0.0107,-0.212 -0.0208,-0.47944 0.006,-0.66211 0.008,-0.0533 0.11672,0.14352 0.13672,0.10352 0.0213,-0.04 0.0171,-0.25573 0.0371,-0.28907 0.02,-0.0347 0.12019,0.13419 0.13086,0.10352 0.0453,-0.128 0.16325,-0.40077 0.16992,-0.52344 0.005,-0.124 -0.13234,-0.13499 -0.15234,-0.23633 0.268,-0.264 0.30801,-0.55778 0.27734,-0.92578 -0.012,-0.14133 -0.10742,-0.2381 -0.10742,-0.38476 0,-0.14667 0.0734,-0.29803 0.10937,-0.44336 0.112,-0.45467 0.25104,-0.92895 0.34571,-1.37696 0.0173,-0.0827 -0.1371,-0.13388 -0.1211,-0.19921 0.0173,-0.0667 0.1282,-0.14427 0.13086,-0.21094 0.02,-0.492 0.16277,-0.88725 0.13477,-1.39258 -0.007,-0.10667 0.0447,-0.16722 0.10742,-0.33789 0.064,-0.17067 0.19481,-0.506 0.24414,-0.75 0.0493,-0.24533 0.23732,-0.55045 0.22266,-0.81445 -0.016,-0.26534 0.0599,-0.52411 0.0332,-0.77344 -0.028,-0.248 -0.0623,-0.36817 0.12305,-0.57617 0.184,-0.20667 0.24484,-0.50302 0.32617,-0.79102 0.0827,-0.28666 0.16767,-0.59267 0.26367,-0.88867 0.096,-0.29467 0.054,-0.70038 0.13672,-0.98437 0.0813,-0.28402 0.065,-0.56417 0.17969,-0.79883 0.11333,-0.236 0.21174,-0.5611 0.20508,-0.75977 -0.007,-0.19733 0.20817,-0.28636 0.21484,-0.31836 0.108,-0.49066 0.13094,-0.87665 0.21094,-1.33398 0.004,-0.02 0.0171,-0.0255 0.0371,-0.0469 0.02,-0.0227 -0.02,0.0568 0.0293,-0.006 0.048,-0.0613 0.20659,-0.29596 0.28125,-0.39062 0.004,0.22933 0.10337,0.44493 0.082,0.68359 -0.02,0.23867 -0.0795,0.49351 -0.21289,0.71485 -0.132,0.22133 -0.0984,0.43869 -0.12109,0.69336 -0.0213,0.25599 -0.17067,0.48661 -0.13867,0.75195 0.0333,0.264 0.0164,0.52435 0.01,0.79101 -0.28133,0.34534 -0.27642,0.68271 -0.23242,1.10938 0.17333,-0.088 0.35349,-0.17496 0.52149,-0.26563 -0.007,-0.0587 -0.15477,-0.14783 -0.13477,-0.20117 0.0933,-0.26666 0.2498,-0.44752 0.3418,-0.74219 0.092,-0.29333 0.18234,-0.75816 0.26367,-1.04882 0.0813,-0.292 0.15747,-0.46319 0.24414,-0.72852 -0.13733,-0.148 -0.11317,-0.30961 -0.0625,-0.48828 0.0227,-0.028 0.3457,0.1166 0.3457,0.0859 -0.001,-0.032 0.0416,0.33678 -0.0117,0.43945 -0.27866,0.53467 -0.36539,1.26771 -0.52539,1.87305 -0.072,0.276 -0.16355,0.57603 -0.21289,0.83203 -0.0147,0.084 0.0715,0.14235 0.0781,0.17969 0.007,0.0373 0.0559,0.0145 0.0586,0.008 0.23867,-0.688 0.47423,-1.38551 0.71289,-2.07617 0.0933,-0.27467 0.20367,-0.53818 0.26367,-0.82618 0.0587,-0.28933 0.065,-0.7156 0.17969,-0.96093 0.11333,-0.24667 0.0111,-0.4482 0.14844,-0.63086 0.136,-0.18267 0.0457,-0.41717 0.12305,-0.5625 0.248,-0.46 0.63168,-0.73372 0.67968,-1.26172 0.30134,-0.412 0.43385,-0.88852 0.58985,-1.36719 0.24666,-0.18533 0.54872,-0.26952 0.77539,-0.49219 0.12533,-0.12266 0.14476,-0.43384 0.24609,-0.58984 0.0107,0.08 0.0488,0.20925 0.0781,0.28125 0.0293,0.072 0.0928,0.0373 0.10351,0.11328 0.0107,0.076 -0.0675,0.24394 -0.0781,0.33594 0.33333,-0.18267 0.68501,-0.13943 1.04101,-0.24609 -0.012,-0.20667 0.0316,-0.34624 0.1836,-0.49024 0.012,-0.012 0.005,-0.0252 0.0332,-0.0332 0.0293,-0.008 0.006,0.0127 0.0762,-0.002 0.0707,-0.0133 0.29143,-0.0491 0.38477,-0.0664 -0.0587,0.0627 -0.23087,0.19276 -0.26953,0.24609 -0.04,0.052 -0.0428,0.15321 0.004,0.17188 0.0613,0.0227 0.22946,-0.0986 0.32813,-0.084 0.52133,0.0733 0.90827,-0.20283 1.34961,-0.4375 -0.007,-0.012 -0.15753,-0.0271 -0.13086,-0.0391 0.0253,-0.0133 0.24344,-0.0423 0.30078,-0.0449 0.0573,-0.001 0.10658,-0.0259 0.14258,-0.0312 0.036,-0.004 -0.0514,0.0699 0.002,0.0605 0.0547,-0.008 0.21092,-0.044 0.29492,-0.0547 0.0853,-0.0107 0.21573,0.0849 0.28906,0.0449 0.0747,-0.04 0.0974,-0.2667 0.16407,-0.33203 0.076,0.036 0.21067,0.28063 0.27734,0.2793 0.088,-2e-5 0.19396,-0.18208 0.2793,-0.19141 0.464,-0.0547 0.76866,-0.33291 1.25,-0.26758 0.11733,0.016 0.29087,-0.0796 0.4082,-0.12891 0.116,-0.048 0.22242,-0.10791 0.34375,-0.14257 0.56933,-0.15734 1.12369,-0.26305 1.67969,-0.48438 0.55733,-0.22267 1.15347,-0.3153 1.74414,-0.41797 0.592,-0.104 1.02115,-0.35932 1.64648,-0.47265 0.624,-0.112 1.35097,-0.2362 1.9043,-0.63086 0.048,-0.0347 0.14759,-0.0707 0.18359,-0.0547 0.26134,0.11867 0.4587,-0.0272 0.69336,-0.0898 0.23334,-0.0627 0.43244,-0.12589 0.64844,-0.19922 0.216,-0.0733 0.42534,-0.15094 0.63867,-0.21094 0.212,-0.0613 0.37189,-0.0614 0.58789,-0.13477 0.216,-0.072 0.34895,-0.1601 0.59961,-0.27343 0.12534,-0.056 0.28736,-0.0994 0.44336,-0.16211 0.156,-0.0627 0.30492,-0.14401 0.40625,-0.27735 0.0293,-0.0373 0.13169,-0.0718 0.17969,-0.0625 0.224,0.0427 0.40179,0.002 0.56445,-0.0684 0.16267,-0.072 0.31309,-0.17886 0.48242,-0.26953 0.048,-0.0253 0.0984,-0.0496 0.15039,-0.0723 -0.003,-0.009 -0.15814,-0.0121 -0.13281,-0.0254 0.0293,-0.0147 0.0839,-0.0411 0.14258,-0.0664 0.06,-0.0253 0.12397,-0.0479 0.16797,-0.0586 0.044,-0.012 0.10983,0.0157 0.17383,0.041 0.0627,0.0267 0.12415,0.0493 0.16015,0.0293 0.0253,-0.0133 0.0501,-0.0333 0.0781,-0.0586 0.0267,-0.024 0.054,-0.0514 0.082,-0.082 0.0267,-0.0307 0.0534,-0.0643 0.0801,-0.0977 0.0267,-0.0333 0.0522,-0.065 0.0762,-0.0957 0.0507,-0.0627 0.0981,-0.11715 0.13672,-0.14648 0.0413,-0.0307 0.11125,-0.0263 0.16992,-0.0156 0.0573,0.0107 0.10538,0.0267 0.10938,0.0254 0.044,-0.0213 0.0888,-0.0444 0.13281,-0.0684 0.044,-0.0253 0.0876,-0.0483 0.1289,-0.0723 0.0427,-0.024 0.0844,-0.0464 0.12305,-0.0664 0.0387,-0.02 0.076,-0.0394 0.10938,-0.0527 0.068,-0.0267 0.13335,-0.0408 0.19336,-0.0488 0.0587,-0.008 0.1141,-0.0104 0.1621,-0.0117 0.0933,-10e-4 0.0416,0.0594 0.10157,0.082 -0.0427,0.0133 -0.083,0.0264 -0.12305,0.041 -0.0387,0.0147 -0.0785,0.0289 -0.11719,0.0449 -0.0387,0.016 -0.076,0.0315 -0.11328,0.0488 -0.0373,0.0173 -0.0746,0.036 -0.11328,0.0547 -0.0147,0.048 -0.0315,0.0934 -0.0488,0.13476 -0.0173,0.0413 -0.0374,0.0799 -0.0547,0.11719 -0.036,0.076 -0.071,0.14728 -0.0976,0.22461 -0.0147,0.0387 -0.0303,0.079 -0.041,0.12305 -0.012,0.0427 -0.0226,0.0912 -0.0293,0.14453 0.032,-0.044 0.0618,-0.0908 0.0898,-0.13477 0.028,-0.044 0.0535,-0.0862 0.0762,-0.1289 0.024,-0.044 0.0445,-0.0882 0.0645,-0.13086 0.02,-0.0427 0.0392,-0.0869 0.0605,-0.13086 0.007,0.044 0.0773,0.0772 0.14258,0.11719 0.0653,0.0387 0.12556,0.0834 0.10156,0.13671 -0.0227,0.0493 -0.0652,0.0966 -0.11719,0.14063 -0.0507,0.0453 -0.11125,0.0893 -0.16992,0.13867 -0.06,0.048 -0.11739,0.10273 -0.16406,0.16406 -0.0453,0.06 -0.0817,0.12765 -0.0977,0.20899 0.0627,-0.009 0.12298,-0.0212 0.18164,-0.0332 0.06,-0.012 0.11836,-0.0276 0.17969,-0.0449 0.06,-0.0173 0.1196,-0.0372 0.1836,-0.0625 0.064,-0.024 0.12855,-0.0526 0.19921,-0.0859 0.0653,-0.0307 0.12874,-0.0648 0.19141,-0.10352 0.0627,-0.04 0.12421,-0.083 0.18555,-0.12695 0.0613,-0.044 0.12288,-0.0875 0.18554,-0.13282 0.0507,-0.0373 0.10363,-0.0766 0.1543,-0.11523 0.052,-0.0373 0.10558,-0.076 0.15625,-0.11328 0.0507,-0.0373 0.0985,-0.0747 0.14649,-0.10938 0.048,-0.036 0.0965,-0.0683 0.14453,-0.0976 0.096,-0.0573 0.19173,-0.0997 0.28906,-0.125 0.17467,-0.0427 0.23437,-0.39844 0.23437,-0.39844 0,0 0.0985,-0.12724 0.20118,-0.25391 0.10266,-0.12666 0.2109,-0.25167 0.24023,-0.26367 0.0573,-0.024 0.2424,0.0379 0.28906,0.006 0.0453,-0.032 -0.042,-0.28354 -0.002,-0.29687 0.0467,-0.0147 0.1607,0.20641 0.2207,0.20507 0.06,-0.003 0.23466,-0.18094 0.22266,-0.23828 -0.064,-0.296 0.17447,-0.31692 0.23047,-0.54492 0.0547,-0.22933 0.14953,-0.37521 0.26953,-0.56055 0.11733,-0.184 0.18247,-0.35399 0.36914,-0.47265 0.048,-0.0307 0.0811,-0.15596 0.0918,-0.25196 0.0213,-0.21066 0.10827,-0.36266 0.21093,-0.5 0.10134,-0.13866 0.21759,-0.26001 0.29493,-0.41601 0.0667,-0.13733 0.12316,-0.28426 0.17382,-0.4336 0.052,-0.152 0.0998,-0.30689 0.14649,-0.46289 0.0467,-0.15733 0.0925,-0.31355 0.14453,-0.46289 0.052,-0.14933 0.10973,-0.29058 0.17773,-0.41992 -0.0387,-0.10666 -0.0574,-0.21374 -0.0801,-0.3164 -0.0213,-0.10267 -0.0464,-0.20107 -0.0957,-0.28907 -0.0507,-0.0893 -0.0932,-0.18615 -0.14258,-0.27148 -0.0493,-0.0867 -0.10678,-0.16285 -0.18945,-0.21485 -0.12133,-0.0747 -0.29541,-0.13444 -0.46875,-0.17578 -0.17466,-0.0413 -0.34865,-0.0679 -0.47265,-0.0879 -0.12534,-0.0213 -0.23709,-0.0273 -0.34375,-0.0273 z"
         style="fill:#ffffff;fill-opacity:1;stroke-width:1.07663" />
    </g>
  </g>
</svg>
