<?xml version="1.0" encoding="UTF-8" standalone="no"?>
<!-- Created with Inkscape (http://www.inkscape.org/) -->

<svg
   xmlns:dc="http://purl.org/dc/elements/1.1/"
   xmlns:cc="http://creativecommons.org/ns#"
   xmlns:rdf="http://www.w3.org/1999/02/22-rdf-syntax-ns#"
   xmlns:svg="http://www.w3.org/2000/svg"
   xmlns="http://www.w3.org/2000/svg"
   xmlns:sodipodi="http://sodipodi.sourceforge.net/DTD/sodipodi-0.dtd"
   xmlns:inkscape="http://www.inkscape.org/namespaces/inkscape"
   id="svg2"
   version="1.1"
   inkscape:version="0.91 r13725"
   xml:space="preserve"
   width="600"
   height="222"
   viewBox="0 0 600.00001 222"
   sodipodi:docname="Logo Alpes Hte Provence.svg"><metadata
     id="metadata8"><rdf:RDF><cc:Work
         rdf:about=""><dc:format>image/svg+xml</dc:format><dc:type
           rdf:resource="http://purl.org/dc/dcmitype/StillImage" /><dc:title></dc:title></cc:Work></rdf:RDF></metadata><defs
     id="defs6"><clipPath
       clipPathUnits="userSpaceOnUse"
       id="clipPath18"><path
         d="m 0,0 583.937,0 0,751.181 L 0,751.181 0,0 Z"
         id="path20"
         inkscape:connector-curvature="0" /></clipPath><clipPath
       clipPathUnits="userSpaceOnUse"
       id="clipPath24"><path
         d="M 0,0 584,0 584,752 0,752 0,0 Z"
         id="path26"
         inkscape:connector-curvature="0" /></clipPath><clipPath
       clipPathUnits="userSpaceOnUse"
       id="clipPath28"><path
         d="M 0,0 584,0 584,752 0,752 0,0 Z"
         id="path30"
         inkscape:connector-curvature="0" /></clipPath><clipPath
       clipPathUnits="userSpaceOnUse"
       id="clipPath32"><path
         d="m 0,0 583.937,0 0,751.181 L 0,751.181 0,0 Z"
         id="path34"
         inkscape:connector-curvature="0" /></clipPath><clipPath
       clipPathUnits="userSpaceOnUse"
       id="clipPath36"><path
         d="M 0,0 584,0 584,752 0,752 0,0 Z"
         id="path38"
         inkscape:connector-curvature="0" /></clipPath><clipPath
       clipPathUnits="userSpaceOnUse"
       id="clipPath40"><path
         d="m 434.702,0 103.881,0 0,62.078 -103.881,0 0,-62.078 z"
         id="path42"
         inkscape:connector-curvature="0" /></clipPath><clipPath
       clipPathUnits="userSpaceOnUse"
       id="clipPath44"><path
         d="m 0,0 583.937,0 0,751.181 L 0,751.181 0,0 Z"
         id="path46"
         inkscape:connector-curvature="0" /></clipPath><clipPath
       clipPathUnits="userSpaceOnUse"
       id="clipPath48"><path
         d="M 0,0 584,0 584,752 0,752 0,0 Z"
         id="path50"
         inkscape:connector-curvature="0" /></clipPath><clipPath
       clipPathUnits="userSpaceOnUse"
       id="clipPath52"><path
         d="m 0,0 583.937,0 0,751.181 L 0,751.181 0,0 Z"
         id="path54"
         inkscape:connector-curvature="0" /></clipPath><clipPath
       clipPathUnits="userSpaceOnUse"
       id="clipPath56"><path
         d="M 0,0 584,0 584,752 0,752 0,0 Z"
         id="path58"
         inkscape:connector-curvature="0" /></clipPath><clipPath
       clipPathUnits="userSpaceOnUse"
       id="clipPath60"><path
         d="m 0,0 583.937,0 0,751.181 L 0,751.181 0,0 Z"
         id="path62"
         inkscape:connector-curvature="0" /></clipPath><clipPath
       clipPathUnits="userSpaceOnUse"
       id="clipPath64"><path
         d="m 38,187 340,0 0,49 -340,0 0,-49 z"
         id="path66"
         inkscape:connector-curvature="0" /></clipPath><clipPath
       clipPathUnits="userSpaceOnUse"
       id="clipPath68"><path
         d="m 37.2677,186.087 341.5153,0 0,50.189 -341.5153,0 0,-50.189 z"
         id="path70"
         inkscape:connector-curvature="0" /></clipPath><clipPath
       clipPathUnits="userSpaceOnUse"
       id="clipPath72"><path
         d="M 0,0 584,0 584,752 0,752 0,0 Z"
         id="path74"
         inkscape:connector-curvature="0" /></clipPath></defs><sodipodi:namedview
     pagecolor="#ffffff"
     bordercolor="#666666"
     borderopacity="1"
     objecttolerance="10"
     gridtolerance="10"
     guidetolerance="10"
     inkscape:pageopacity="0"
     inkscape:pageshadow="2"
     inkscape:window-width="1280"
     inkscape:window-height="692"
     id="namedview4"
     showgrid="false"
     inkscape:zoom="4.4638137"
     inkscape:cx="57.331249"
     inkscape:cy="27.471762"
     inkscape:window-x="0"
     inkscape:window-y="1"
     inkscape:window-maximized="1"
     inkscape:current-layer="g10" /><g
     id="g10"
     inkscape:groupmode="layer"
     inkscape:label="Logo Alpes Hte Provence"
     transform="matrix(1.25,0,0,-1.25,-546.24175,238.91508)"><g
       id="g5043"
       transform="matrix(5.7617595,0,0,5.7617595,-2120.6874,-96.774581)"><path
         inkscape:connector-curvature="0"
         id="path106"
         style="fill:#003576;fill-opacity:1;fill-rule:nonzero;stroke:none"
         d="m 498.1453,41.6884 c -0.216,0.237 -0.503,0.345 -0.87,0.345 l -0.941,0 0,-3.723 0.941,0 c 0.367,0 0.654,0.108 0.87,0.345 0.266,0.295 0.273,0.848 0.273,1.553 0,0.704 -0.007,1.185 -0.273,1.48 m 0.532,-3.594 c -0.324,-0.323 -0.791,-0.481 -1.323,-0.481 l -1.796,0 0,5.117 1.796,0 c 0.532,0 0.999,-0.158 1.323,-0.481 0.553,-0.554 0.517,-1.301 0.517,-2.041 0,-0.741 0.036,-1.56 -0.517,-2.114" /><path
         inkscape:connector-curvature="0"
         id="path108"
         style="fill:#003576;fill-opacity:1;fill-rule:nonzero;stroke:none"
         d="m 508.8958,37.6134 0,2.235 -2.077,0 0,-2.235 -0.776,0 0,5.117 0.776,0 0,-2.185 2.077,0 0,2.185 0.776,0 0,-5.117 -0.776,0 z" /><path
         inkscape:connector-curvature="0"
         id="path110"
         style="fill:#003576;fill-opacity:1;fill-rule:nonzero;stroke:none"
         d="m 512.4233,42.9695 -2.206,-5.356 0.827,0 1.38,3.464 1.344,-3.464 0.826,0 -2.171,5.356 z" /><path
         inkscape:connector-curvature="0"
         id="path112"
         style="fill:#003576;fill-opacity:1;fill-rule:nonzero;stroke:none"
         d="m 516.894,37.5703 c -1.042,0 -1.833,0.711 -1.833,1.768 l 0,3.392 0.777,0 0,-3.356 c 0,-0.683 0.416,-1.107 1.056,-1.107 0.64,0 1.064,0.424 1.064,1.107 l 0,3.356 0.776,0 0,-3.392 c 0,-1.057 -0.798,-1.768 -1.84,-1.768" /><path
         inkscape:connector-curvature="0"
         id="path114"
         style="fill:#003576;fill-opacity:1;fill-rule:nonzero;stroke:none"
         d="m 521.5435,42.0334 0,-4.42 -0.776,0 0,4.42 -1.409,0 0,0.697 3.594,0 0,-0.697 -1.409,0 z" /><path
         inkscape:connector-curvature="0"
         id="path116"
         style="fill:#003576;fill-opacity:1;fill-rule:nonzero;stroke:none"
         d="m 523.6561,37.6134 0,5.117 3.27,0 -0.351,-0.697 -2.143,0 0,-1.495 1.403,0 -0.344,-0.69 -1.059,0 0,-1.538 2.494,0 0,-0.697 -3.27,0 z" /><path
         inkscape:connector-curvature="0"
         id="path118"
         style="fill:#003576;fill-opacity:1;fill-rule:nonzero;stroke:none"
         d="m 499.9561,37.6134 0,5.117 3.27,0 -0.351,-0.697 -2.143,0 0,-1.495 1.403,0 -0.344,-0.69 -1.059,0 0,-1.538 2.494,0 0,-0.697 -3.27,0 z" /></g><g
       id="g5052"
       transform="matrix(5.7617595,0,0,5.7617595,-2120.6874,-96.774581)"><path
         inkscape:connector-curvature="0"
         id="path132"
         style="fill:#009ee0;fill-opacity:1;fill-rule:nonzero;stroke:none"
         d="m 475.1323,19.4511 0,2.558 0.427,0 0,-2.21 1.356,0 0,-0.348 -1.783,0 z" /><path
         inkscape:connector-curvature="0"
         id="path134"
         style="fill:#009ee0;fill-opacity:1;fill-rule:nonzero;stroke:none"
         d="m 478.8628,19.4511 0,2.558 1.798,0 0,-0.348 -1.371,0 0,-0.747 1.17,0 0,-0.345 -1.17,0 0,-0.77 1.371,0 0,-0.348 -1.798,0 z" /><path
         inkscape:connector-curvature="0"
         id="path136"
         style="fill:#009ee0;fill-opacity:1;fill-rule:nonzero;stroke:none"
         d="m 486.5414,21.4887 c -0.119,0.119 -0.277,0.173 -0.478,0.173 l -0.518,0 0,-1.862 0.518,0 c 0.201,0 0.359,0.054 0.478,0.173 0.146,0.147 0.15,0.424 0.15,0.776 0,0.352 -0.004,0.593 -0.15,0.74 m 0.292,-1.797 c -0.177,-0.161 -0.434,-0.241 -0.727,-0.241 l -0.988,0 0,2.559 0.988,0 c 0.293,0 0.55,-0.079 0.727,-0.241 0.305,-0.276 0.285,-0.65 0.285,-1.02 0,-0.37 0.02,-0.78 -0.285,-1.057" /><path
         inkscape:connector-curvature="0"
         id="path138"
         style="fill:#009ee0;fill-opacity:1;fill-rule:nonzero;stroke:none"
         d="m 490.1732,22.2576 -0.304,0 0.296,0.582 0.447,0 -0.439,-0.582 z m -0.961,-2.806 0,2.558 1.799,0 0,-0.348 -1.372,0 0,-0.748 1.17,0 0,-0.345 -1.17,0 0,-0.769 1.372,0 0,-0.348 -1.799,0 z" /><path
         inkscape:connector-curvature="0"
         id="path140"
         style="fill:#009ee0;fill-opacity:1;fill-rule:nonzero;stroke:none"
         d="m 494.1013,21.6612 -0.617,0 0,-0.852 0.617,0 c 0.296,0 0.498,0.155 0.498,0.424 0,0.27 -0.202,0.428 -0.498,0.428 m 0.024,-1.204 -0.641,0 0,-1.006 -0.427,0 0,2.558 1.068,0 c 0.549,0 0.901,-0.33 0.901,-0.776 0,-0.445 -0.352,-0.776 -0.901,-0.776" /><path
         inkscape:connector-curvature="0"
         id="path142"
         style="fill:#009ee0;fill-opacity:1;fill-rule:nonzero;stroke:none"
         d="m 497.6858,21.4311 -0.439,-1.136 0.866,0 -0.427,1.136 z m 0.739,-1.98 -0.194,0.514 -1.11,0 -0.194,-0.514 -0.455,0 1.032,2.559 0.344,0 1.032,-2.559 -0.455,0 z" /><path
         inkscape:connector-curvature="0"
         id="path144"
         style="fill:#009ee0;fill-opacity:1;fill-rule:nonzero;stroke:none"
         d="m 501.7997,21.6612 -0.632,0 0,-0.801 0.632,0 c 0.285,0 0.478,0.147 0.478,0.398 0,0.252 -0.193,0.403 -0.478,0.403 m 0.494,-2.21 -0.593,1.078 -0.533,0 0,-1.078 -0.427,0 0,2.558 1.091,0 c 0.533,0 0.873,-0.312 0.873,-0.747 0,-0.367 -0.245,-0.6 -0.561,-0.679 l 0.648,-1.132 -0.498,0 z" /><path
         inkscape:connector-curvature="0"
         id="path146"
         style="fill:#009ee0;fill-opacity:1;fill-rule:nonzero;stroke:none"
         d="m 505.7436,21.6612 0,-2.21 -0.427,0 0,2.21 -0.775,0 0,0.348 1.977,0 0,-0.348 -0.775,0 z" /><path
         inkscape:connector-curvature="0"
         id="path148"
         style="fill:#009ee0;fill-opacity:1;fill-rule:nonzero;stroke:none"
         d="m 508.4662,19.4511 0,2.558 1.799,0 0,-0.348 -1.372,0 0,-0.747 1.17,0 0,-0.345 -1.17,0 0,-0.77 1.372,0 0,-0.348 -1.799,0 z" /><path
         inkscape:connector-curvature="0"
         id="path150"
         style="fill:#009ee0;fill-opacity:1;fill-rule:nonzero;stroke:none"
         d="m 514.3669,19.4511 0,1.71 -0.648,-1.246 -0.316,0 -0.665,1.246 0,-1.71 -0.426,0 0,2.558 0.426,0 0.823,-1.591 0.806,1.591 0.427,0 0,-2.558 -0.427,0 z" /><path
         inkscape:connector-curvature="0"
         id="path152"
         style="fill:#009ee0;fill-opacity:1;fill-rule:nonzero;stroke:none"
         d="m 516.9865,19.4511 0,2.558 1.799,0 0,-0.348 -1.372,0 0,-0.747 1.17,0 0,-0.345 -1.17,0 0,-0.77 1.372,0 0,-0.348 -1.799,0 z" /><path
         inkscape:connector-curvature="0"
         id="path154"
         style="fill:#009ee0;fill-opacity:1;fill-rule:nonzero;stroke:none"
         d="m 522.559,19.4511 -1.3,1.8 0,-1.8 -0.427,0 0,2.558 0.391,0 1.3,-1.796 0,1.796 0.427,0 0,-2.558 -0.391,0 z" /><path
         inkscape:connector-curvature="0"
         id="path156"
         style="fill:#009ee0;fill-opacity:1;fill-rule:nonzero;stroke:none"
         d="m 526.0997,21.6612 0,-2.21 -0.427,0 0,2.21 -0.775,0 0,0.348 1.977,0 0,-0.348 -0.775,0 z" /></g><g
       id="g5067"
       transform="matrix(5.7617595,0,0,5.7617595,-2120.6874,-96.774581)"><path
         inkscape:connector-curvature="0"
         id="path120"
         style="fill:#003576;fill-opacity:1;fill-rule:nonzero;stroke:none"
         d="m 457.1846,33.1126 0.031,0.071 -0.037,-0.063 0.006,-0.008 z" /><path
         inkscape:connector-curvature="0"
         id="path122"
         style="fill:#003576;fill-opacity:1;fill-rule:nonzero;stroke:none"
         d="m 456.7607,37.4978 0,10.482 2.078,0 0,-8.524 4.709,0 0,-1.958 -6.787,0 z" /><path
         inkscape:connector-curvature="0"
         id="path124"
         style="fill:#003576;fill-opacity:1;fill-rule:nonzero;stroke:none"
         d="m 488.325,37.3465 c -1.67,0 -3.114,0.516 -4.406,1.631 l 0.977,1.839 0.297,-0.249 c 1.02,-0.859 2.089,-1.295 3.177,-1.295 0.53,0 0.951,0.109 1.254,0.325 0.29,0.205 0.431,0.47 0.431,0.809 0,0.338 -0.131,0.592 -0.399,0.779 -0.295,0.204 -0.822,0.396 -1.565,0.568 -0.785,0.183 -1.365,0.347 -1.77,0.501 -0.413,0.154 -0.787,0.361 -1.107,0.613 -0.656,0.482 -0.99,1.228 -0.99,2.218 0,0.989 0.377,1.763 1.121,2.301 0.729,0.527 1.642,0.795 2.712,0.795 0.682,0 1.37,-0.11 2.043,-0.328 0.673,-0.218 1.324,-0.578 1.817,-0.977 l -0.913,-1.765 -0.233,0.203 c -0.29,0.256 -0.77,0.536 -1.273,0.702 -0.51,0.168 -1.017,0.252 -1.508,0.252 -0.479,0 -0.872,-0.093 -1.173,-0.278 -0.279,-0.173 -0.414,-0.428 -0.414,-0.782 0,-0.357 0.137,-0.62 0.418,-0.807 0.311,-0.205 0.999,-0.434 2.046,-0.68 1.094,-0.256 1.932,-0.625 2.494,-1.094 0.579,-0.486 0.873,-1.204 0.873,-2.134 0,-0.934 -0.367,-1.7 -1.093,-2.283 -0.716,-0.574 -1.663,-0.864 -2.816,-0.864" /><path
         inkscape:connector-curvature="0"
         id="path126"
         style="fill:#003576;fill-opacity:1;fill-rule:nonzero;stroke:none"
         d="m 475.0919,37.4973 0,10.483 7.685,0 -0.992,-1.943 -4.588,0 0,-2.355 3.416,0 -0.949,-1.857 -2.467,0 0,-2.384 5.759,0 0,-1.944 -7.864,0 z" /><path
         inkscape:connector-curvature="0"
         id="path128"
         style="fill:#003576;fill-opacity:1;fill-rule:nonzero;stroke:none"
         d="m 449.6679,33.1433 -3.478,0 0,-2.863 3.478,0 c 1.149,0 1.879,0.573 1.879,1.424 0,0.851 -0.73,1.439 -1.879,1.439 m 0.128,-4.698 -3.606,0 0,-3.934 -2.006,0 0,10.453 5.612,0 c 2.681,0 3.888,-1.483 3.888,-3.26 0,-1.776 -1.207,-3.259 -3.888,-3.259" /><path
         inkscape:connector-curvature="0"
         id="path130"
         style="fill:#003576;fill-opacity:1;fill-rule:nonzero;stroke:none"
         d="m 470.1118,46.1446 -3.329,0 0,-2.863 3.329,0 c 1.1,0 1.799,0.573 1.799,1.424 0,0.852 -0.699,1.439 -1.799,1.439 m 0.122,-4.698 -3.451,0 0,-3.934 -1.92,0 0,10.452 5.371,0 c 2.567,0 3.722,-1.482 3.722,-3.259 0,-1.776 -1.155,-3.259 -3.722,-3.259" /><path
         inkscape:connector-curvature="0"
         id="path158"
         style="fill:#003576;fill-opacity:1;fill-rule:nonzero;stroke:none"
         d="m 498.8116,30.2718 0,-5.779 -2.161,0 0,10.484 7.688,-6.216 0,6.216 2.161,0 0.003,-10.484 -7.691,5.779 z" /><path
         inkscape:connector-curvature="0"
         id="path160"
         style="fill:#003576;fill-opacity:1;fill-rule:nonzero;stroke:none"
         d="m 480.5812,24.4928 -5.583,10.484 2.402,0 3.182,-5.991 3.181,5.991 2.4,0 -5.582,-10.484 z" /><path
         inkscape:connector-curvature="0"
         id="path162"
         style="fill:#003576;fill-opacity:1;fill-rule:nonzero;stroke:none"
         d="m 517.297,25.97 -0.793,1.68 -0.05,0.048 -0.121,-0.108 c -0.459,-0.405 -0.903,-0.703 -1.319,-0.886 -0.41,-0.18 -0.909,-0.271 -1.484,-0.271 -0.917,0 -1.723,0.32 -2.393,0.953 -0.669,0.631 -1.01,1.431 -1.01,2.375 0,0.942 0.342,1.726 1.014,2.33 0.677,0.607 1.524,0.914 2.521,0.914 0.567,0 1.066,-0.085 1.482,-0.252 0.419,-0.169 0.874,-0.474 1.351,-0.905 l 0.085,-0.076 0.863,1.827 c -1.034,0.893 -2.291,1.347 -3.744,1.347 -1.643,0 -3.023,-0.505 -4.105,-1.5 -1.08,-0.996 -1.627,-2.258 -1.627,-3.749 0,-1.491 0.538,-2.743 1.6,-3.72 1.058,-0.976 2.41,-1.47 4.014,-1.47 1.433,0 2.69,0.474 3.742,1.408 l -0.026,0.055 z" /><path
         inkscape:connector-curvature="0"
         id="path164"
         style="fill:#003576;fill-opacity:1;fill-rule:nonzero;stroke:none"
         d="m 470.0332,33.1289 c -0.973,0 -1.807,-0.333 -2.475,-0.992 -0.67,-0.659 -1.009,-1.47 -1.009,-2.41 0,-0.941 0.339,-1.753 1.009,-2.413 0.668,-0.657 1.502,-0.991 2.475,-0.991 0.973,0 1.805,0.334 2.474,0.991 0.67,0.659 1.009,1.47 1.009,2.413 0,0.94 -0.339,1.752 -1.009,2.41 -0.669,0.659 -1.501,0.992 -2.474,0.992 m 0,-8.644 c -1.577,0 -2.919,0.505 -3.992,1.5 -1.074,0.997 -1.619,2.255 -1.619,3.742 0,1.485 0.545,2.743 1.619,3.74 1.073,0.996 2.415,1.501 3.992,1.501 1.576,0 2.918,-0.505 3.991,-1.501 1.074,-0.997 1.618,-2.255 1.618,-3.74 0,-1.487 -0.544,-2.745 -1.618,-3.742 -1.073,-0.995 -2.416,-1.5 -3.991,-1.5" /><path
         inkscape:connector-curvature="0"
         id="path166"
         style="fill:#003576;fill-opacity:1;fill-rule:nonzero;stroke:none"
         d="m 472.726,19.9776 c -3.958,-0.488 -9.185,2.884 -12.615,8.471 2.176,0.037 3.476,1.501 3.476,3.253 0,1.773 -1.333,3.254 -3.559,3.254 l -3.057,0 -6.738,14.696 -6.049,-12.14 2.433,0 3.514,7.406 6.177,-13.326 0.683,1.568 2.932,0 c 0.954,0 1.559,-0.608 1.559,-1.458 0,-0.851 -0.605,-1.422 -1.559,-1.422 l -3.223,0 -2.105,-10e-4 0,-5.759 2.018,0 0,3.928 1.311,0 c 3.869,-6.533 10.466,-10.177 14.817,-8.698 l -0.015,0.228 z" /><path
         inkscape:connector-curvature="0"
         id="path168"
         style="fill:#003576;fill-opacity:1;fill-rule:nonzero;stroke:none"
         d="m 487.1803,24.496 0,10.483 7.685,0 -0.992,-1.943 -4.588,0 0,-2.355 3.416,0 -0.949,-1.857 -2.467,0 0,-2.385 5.759,0 0,-1.943 -7.864,0 z" /><path
         inkscape:connector-curvature="0"
         id="path170"
         style="fill:#003576;fill-opacity:1;fill-rule:nonzero;stroke:none"
         d="m 519.0724,24.496 0,10.483 7.685,0 -0.992,-1.943 -4.588,0 0,-2.355 3.416,0 -0.949,-1.857 -2.467,0 0,-2.385 5.759,0 0,-1.943 -7.864,0 z" /></g></g></svg>