<?xml version="1.0" encoding="UTF-8" standalone="no"?>
<!-- Created with Inkscape (http://www.inkscape.org/) -->

<svg
   xmlns:dc="http://purl.org/dc/elements/1.1/"
   xmlns:cc="http://creativecommons.org/ns#"
   xmlns:rdf="http://www.w3.org/1999/02/22-rdf-syntax-ns#"
   xmlns:svg="http://www.w3.org/2000/svg"
   xmlns="http://www.w3.org/2000/svg"
   xmlns:sodipodi="http://sodipodi.sourceforge.net/DTD/sodipodi-0.dtd"
   xmlns:inkscape="http://www.inkscape.org/namespaces/inkscape"
   id="svg2"
   version="1.1"
   inkscape:version="0.91 r13725"
   xml:space="preserve"
   width="800"
   height="328"
   viewBox="0 0 800 328"
   sodipodi:docname="Logo Département Vosges.svg"><metadata
     id="metadata8"><rdf:RDF><cc:Work
         rdf:about=""><dc:format>image/svg+xml</dc:format><dc:type
           rdf:resource="http://purl.org/dc/dcmitype/StillImage" /><dc:title></dc:title></cc:Work></rdf:RDF></metadata><defs
     id="defs6" /><sodipodi:namedview
     pagecolor="#ffffff"
     bordercolor="#666666"
     borderopacity="1"
     objecttolerance="10"
     gridtolerance="10"
     guidetolerance="10"
     inkscape:pageopacity="0"
     inkscape:pageshadow="2"
     inkscape:window-width="1440"
     inkscape:window-height="790"
     id="namedview4"
     showgrid="false"
     inkscape:zoom="0.41863532"
     inkscape:cx="539.34093"
     inkscape:cy="191.13123"
     inkscape:window-x="0"
     inkscape:window-y="1"
     inkscape:window-maximized="1"
     inkscape:current-layer="g10" /><g
     id="g10"
     inkscape:groupmode="layer"
     inkscape:label="Logo Département Vosges"
     transform="matrix(1.25,0,0,-1.25,-620.07875,327.99998)"><g
       id="g5552"><path
         inkscape:connector-curvature="0"
         id="path368"
         style="fill:#ffffff;fill-opacity:1;fill-rule:nonzero;stroke:none"
         d="m 758.12169,0 377.94131,0 0,262.4616 -377.94131,0 0,-262.4616 z" /><g
         id="g5533"><path
           d="m 970.9329,115.10904 c 0,-2.4573 0.7753,-3.23259 2.9829,-3.23259 l 6.8638,0 0,-1.53745 c 0,-3.29829 -2.9391,-5.23434 -7.7179,-5.23434 -5.6373,0 -7.8537,2.62812 -7.8537,8.01139 l 0,14.00788 c 0,5.37888 2.2164,7.99386 7.8537,7.99386 3.9947,0 6.141,-1.53307 7.4288,-4.9978 0.7841,-2.38721 1.6426,-2.84713 3.8633,-2.08498 l 7.6435,2.93036 c 2.1375,0.76214 2.6325,1.92728 1.9054,4.15242 -2.9829,8.61585 -9.8379,13.46912 -20.841,13.46912 -14.0648,0 -21.9842,-8.22602 -21.9842,-21.54182 l 0,-13.8502 c 0,-13.315811 7.9194,-21.554967 21.9842,-21.554967 14.078,0 21.9098,8.239156 21.9098,19.080157 l 0,10.16644 c 0,2.4573 -0.7009,3.30705 -2.9742,3.30705 l -16.4039,0 -1.6776,0 -2.9829,0 0,-9.08453 z"
           style="fill:#000000;fill-opacity:1;fill-rule:nonzero;stroke:none"
           id="path374"
           inkscape:connector-curvature="0" /><path
           d="m 999.4498,95.001289 c 0,-2.483574 0.8059,-3.359613 3.1888,-3.359613 l 31.8572,0 c 2.3039,0 3.1274,0.876039 3.1274,3.359613 l 0,7.306171 c 0,2.5668 -0.8235,3.36399 -3.1274,3.36399 l -20.3154,0 0,7.7004 15.6943,0 c 2.3828,0 3.2063,0.8848 3.2063,3.45598 l 0,7.20981 c 0,2.49671 -0.8235,3.36837 -3.2063,3.36837 l -15.6943,0 0,7.1441 19.6408,0 c 2.3872,0 3.1932,0.89794 3.1932,3.45598 l 0,7.21857 c 0,2.48796 -0.806,3.35962 -3.1932,3.35962 l -26.2856,0 -4.897,0 -3.1888,0 0,-53.582991 z"
           style="fill:#000000;fill-opacity:1;fill-rule:nonzero;stroke:none"
           id="path376"
           inkscape:connector-curvature="0" /><path
           d="m 850.4975,148.55975 c -3.8852,0 -5.081,-0.88042 -5.7205,-3.36399 l -9.6584,-34.58169 -7.60838,27.45072 -1.96233,7.13097 c -0.63951,2.48357 -1.91415,3.36399 -5.95708,3.36399 l -12.56679,0.0263 1.25273,-3.46912 15.78187,-45.637305 c 0.70959,-2.080595 3.5173,-7.840558 9.91678,-7.840558 l 5.9615,0 c 0.1445,0 0.2715,0.0088 0.4073,0.0088 l 0.01,0 c 1.0337,0.03504 1.717,0.219009 2.1813,0.494962 l 0,0 c 0.035,0.01314 0.061,0.03942 0.088,0.05694 0,0.0044 0.01,0.0044 0.013,0.0088 0.1665,0.09636 0.3154,0.23215 0.4468,0.407358 0.022,0.02628 0.048,0.06132 0.079,0.118266 0.3635,0.525624 0.565,1.191415 0.565,1.191415 l 0.026,0.0657 c 0.3197,0.801576 0.7621,2.028032 1.371,3.95094 l 0,-0.0044 15.8738,45.505892 1.8485,5.11608 -12.3522,0 z"
           style="fill:#01a4de;fill-opacity:1;fill-rule:nonzero;stroke:none"
           id="path378"
           inkscape:connector-curvature="0" /><path
           d="m 902.3543,128.5856 c 0,12.22952 -7.4245,19.99999 -20.3548,19.99999 -12.926,0 -20.3504,-7.77047 -20.3504,-19.99999 l 0,-16.85939 c 0,-12.395969 7.4244,-20.08322 20.3504,-20.08322 12.9303,0 20.3548,7.687251 20.3548,20.08322 l 0,16.85939 z M 888.215,111.11298 c 0,-3.8502 -2.3609,-6.00964 -6.2155,-6.00964 -3.8502,0 -6.2068,2.15944 -6.2068,6.00964 l 0,18.08147 c 0,3.7801 2.3566,5.92202 6.2068,5.92202 3.8546,0 6.2155,-2.14192 6.2155,-5.92202 l 0,-18.08147 z"
           style="fill:#000000;fill-opacity:1;fill-rule:nonzero;stroke:none"
           id="path380"
           inkscape:connector-curvature="0" /><path
           d="m 930.1427,127.12568 c -5.1511,0.68331 -9.3517,1.37977 -9.3517,4.67805 0,2.71134 1.9185,4.0035 6.7849,4.0035 3.272,0 5.8432,-1.07315 7.2011,-4.0035 1.1476,-2.22076 1.9273,-2.53613 3.8677,-1.61191 l 7.1266,3.31143 c 2.1463,0.92422 2.7201,2.08497 1.7214,4.31449 -3.3552,7.38502 -9.3605,10.77092 -19.9168,10.77092 -13.6443,0 -21.2133,-7.07841 -21.2133,-17.24047 0,-14.92772 11.7127,-16.5484 20.0569,-17.77485 4.7175,-0.69645 8.3575,-1.54183 8.3575,-4.54227 0,-3.31143 -2.8559,-4.38458 -7.6391,-4.38458 -3.9991,0 -6.7893,1.38852 -8.0683,4.07359 -1.0732,2.23828 -2.0675,2.46605 -4.205,1.70389 l -6.7236,-2.62812 c -2.0719,-0.84976 -2.707,-1.91853 -1.9142,-4.22689 2.7114,-7.993865 10.1314,-11.927284 20.7709,-11.927284 12.6413,0 22.1244,6.228644 22.1244,17.547084 0,14.54227 -10.7008,16.69732 -18.9794,17.93692"
           style="fill:#000000;fill-opacity:1;fill-rule:nonzero;stroke:none"
           id="path382"
           inkscape:connector-curvature="0" /><path
           d="m 1066.6705,127.12568 c -5.1379,0.68331 -9.3429,1.37977 -9.3429,4.67805 0,2.71134 1.9141,4.0035 6.7718,4.0035 3.2851,0 5.8563,-1.07315 7.2185,-4.0035 1.1301,-2.22076 1.9229,-2.53613 3.859,-1.61191 l 7.1353,3.31143 c 2.1463,0.92422 2.7158,2.08497 1.7127,4.31449 -3.3552,7.38502 -9.3561,10.77092 -19.9255,10.77092 -13.6312,0 -21.2046,-7.07841 -21.2046,-17.24047 0,-14.92772 11.7127,-16.5484 20.0701,-17.77485 4.7087,-0.69645 8.353,-1.54183 8.353,-4.54227 0,-3.31143 -2.8646,-4.38458 -7.6478,-4.38458 -3.9904,0 -6.7762,1.38852 -8.0683,4.07359 -1.0732,2.23828 -2.0719,2.46605 -4.2094,1.70389 l -6.7105,-2.62812 c -2.0762,-0.84976 -2.7201,-1.91853 -1.9404,-4.22689 2.7201,-7.993865 10.1533,-11.927284 20.7884,-11.927284 12.6413,0 22.1332,6.228644 22.1332,17.547084 0,14.54227 -10.7052,16.69732 -18.9926,17.93692"
           style="fill:#000000;fill-opacity:1;fill-rule:nonzero;stroke:none"
           id="path384"
           inkscape:connector-curvature="0" /><path
           d="m 808.4708,162.31183 26.9514,0 c 0.219,0 0.3635,0.0526 0.5212,0.10074 0.7271,0.2234 0.8673,0.86728 0.8673,1.39729 l 0,1.3272 c 0,0.96802 -0.4555,1.43671 -1.3754,1.43671 l -0.013,0 -24.14807,0 0,47.31929 c 0,0.61323 -0.15769,1.40605 -1.23522,1.48051 l 0,0.0263 -0.14017,0 -1.41918,0 -1.44985,0 0,-1.51117 0,-0.9286 0,-49.15022 c 0,-1.03811 0.43802,-1.49803 1.44109,-1.49803"
           style="fill:#7e8588;fill-opacity:1;fill-rule:nonzero;stroke:none"
           id="path386"
           inkscape:connector-curvature="0" /><path
           d="m 841.2636,162.31183 1.5681,0 c 0.9812,0 1.4367,0.47744 1.4367,1.49803 l 0,16.90757 30.0351,0 0,-16.90757 c 0,-1.02059 0.4511,-1.49803 1.4323,-1.49803 l 1.5024,0 c 1.0337,0 1.498,0.45992 1.498,1.49803 l 0,32.75076 c 0,11.96232 -7.0959,18.82609 -19.4568,18.83485 l -19.4262,0 0,-17.97633 0.044,0 c -0.01,-0.29348 -0.057,-0.55629 -0.057,-0.85852 l 0,-12.22953 0,-3.61366 0,-16.90757 c 0,-1.02059 0.4468,-1.49803 1.4236,-1.49803 m 3.0048,33.42531 0,0.82348 0,14.6211 14.9803,0 c 9.6978,0 15.0548,-5.19053 15.0548,-14.6211 l 0,-12.22953 -30.0351,0 0,11.40605 z"
           style="fill:#7e8588;fill-opacity:1;fill-rule:nonzero;stroke:none"
           id="path388"
           inkscape:connector-curvature="0" /><path
           d="m 1066.2062,215.39766 -19.4262,0 0,-17.97633 0.053,0 c -0.013,-0.29348 -0.061,-0.55629 -0.061,-0.85852 l 0,-32.75076 c 0,-1.02497 0.4424,-1.50241 1.4192,-1.50241 l 1.5768,0 c 0.9724,0 1.428,0.47744 1.428,1.50241 l 0,31.9229 0,0.82786 0,14.62548 14.9847,0 c 9.7109,0 15.0503,-5.19491 15.0503,-14.62548 l 0,-32.75076 c 0,-1.02497 0.4468,-1.50241 1.4323,-1.50241 l 1.5025,0 c 1.0424,0 1.498,0.4643 1.498,1.50241 l 0,32.75076 c 0,11.95794 -7.0828,18.82171 -19.4569,18.83485"
           style="fill:#7e8588;fill-opacity:1;fill-rule:nonzero;stroke:none"
           id="path390"
           inkscape:connector-curvature="0" /><path
           d="m 1010.8225,163.81205 c 0,-1.03811 0.4512,-1.49803 1.4499,-1.49803 l 28.664,0 c 0.9374,0 1.4236,0.49934 1.4236,1.49803 l 0,1.3272 c 0,0.64827 -0.2453,1.43233 -1.4236,1.43233 l -25.8782,0 0,20.48181 21.9886,0 c 1.2396,0 1.3841,0.8629 1.3841,1.51555 l 0,1.30968 c 0,0.96364 -0.4599,1.43232 -1.3841,1.43232 l -21.9886,0 0,19.83355 24.9189,0 c 0.9768,0 1.4368,0.46868 1.4368,1.43232 l 0,1.30968 c 0,1.03373 -0.4556,1.51117 -1.4368,1.51117 l -26.9163,0 0,0.004 -2.2383,0 0,-51.58999 z"
           style="fill:#7e8588;fill-opacity:1;fill-rule:nonzero;stroke:none"
           id="path392"
           inkscape:connector-curvature="0" /><path
           d="m 942.9425,165.29869 c 0,-2.23828 0.7009,-2.9873 2.7815,-2.9873 l 8.1909,0 c 2.0675,0 2.7683,0.74902 2.7683,2.9873 l 0,47.10905 c 0,2.24704 -0.7008,2.99167 -2.7683,2.99167 l -3.6793,0 -4.5116,0 -2.7815,0 0,-50.10072 z"
           style="fill:#000000;fill-opacity:1;fill-rule:nonzero;stroke:none"
           id="path394"
           inkscape:connector-curvature="0" /><path
           d="m 961.9027,165.44849 c 0,-2.3215 0.7578,-3.13622 2.9785,-3.13622 l 29.6846,0 c 2.1551,0 2.9129,0.81472 2.9129,3.13622 l 0,6.80683 c 0,2.39159 -0.7578,3.14498 -2.9129,3.14498 l -18.9312,0 0,7.17039 14.6386,0 c 2.2121,0 2.983,0.8191 2.983,3.21507 l 0,6.73675 c 0,2.30836 -0.7709,3.13184 -2.983,3.13184 l -14.6386,0 0,6.65791 18.3093,0 c 2.2295,0 2.9829,0.82786 2.9829,3.21507 l 0,6.73236 c 0,2.31712 -0.7534,3.13622 -2.9829,3.13622 l -24.7482,0 -4.3145,0 -2.9785,0 0,-49.94742 z"
           style="fill:#000000;fill-opacity:1;fill-rule:nonzero;stroke:none"
           id="path396"
           inkscape:connector-curvature="0" /><path
           d="m 927.5356,215.37576 c -3.6268,0 -4.7394,-0.82348 -5.3351,-3.13622 l -9.0013,-32.23828 -7.0959,25.58914 -1.8309,6.64914 c -0.5914,2.31274 -1.7828,3.13622 -5.5497,3.13622 l -11.7127,0.0219 1.1651,-3.23259 14.7087,-42.5405 c 0.6702,-1.94042 3.2808,-7.31055 9.251,-7.31055 l 5.5541,0 c 0.1358,0 0.2541,0.009 0.3767,0.009 l 0.01,0 c 0.968,0.0307 1.6031,0.20149 2.0324,0.45992 l 0.01,0 c 0.031,0.0131 0.057,0.0394 0.083,0.0526 0,0 0,0.004 0.01,0.009 0.1534,0.0832 0.2935,0.21901 0.4205,0.3767 0.013,0.0263 0.044,0.0569 0.074,0.11389 0.3373,0.49058 0.5213,1.11257 0.5213,1.11257 l 0.022,0.0569 c 0.3022,0.74902 0.7139,1.89225 1.2834,3.67937 l 0,0 14.7963,42.42223 1.7258,4.77004 -11.5156,0 z"
           style="fill:#000000;fill-opacity:1;fill-rule:nonzero;stroke:none"
           id="path398"
           inkscape:connector-curvature="0" /></g><g
         id="g5518"><path
           d="m 815.44802,48.088029 c -1.87473,0 -3.22383,0.508103 -4.06045,1.533071 -0.82786,1.020586 -1.24835,2.41349 -1.24835,4.16119 l 0,22.798943 c 0,0.407357 0.11826,0.722732 0.35041,0.963643 0.23653,0.232151 0.55629,0.350416 0.96803,0.350416 l 1.31406,0 c 0.41174,0 0.72711,-0.118265 0.96364,-0.350416 0.23653,-0.240911 0.35042,-0.556286 0.35042,-0.963643 l 0,-23.232583 c 0,-0.473062 0.1314,-0.845379 0.39422,-1.121332 0.26719,-0.275952 0.64388,-0.416119 1.13885,-0.416119 l 0.43802,0 c 0.41174,0 0.73587,-0.109505 0.96364,-0.346036 0.24091,-0.23653 0.3548,-0.560665 0.3548,-0.968023 l 0,-1.09067 c 0,-0.416119 -0.11389,-0.735874 -0.3548,-0.972405 -0.22777,-0.227771 -0.5519,-0.346036 -0.96364,-0.346036 l -0.60885,0 z"
           style="fill:#7e8588;fill-opacity:1;fill-rule:nonzero;stroke:none"
           id="path400"
           inkscape:connector-curvature="0" /><path
           d="m 836.0034,52.382816 c 0.2628,-0.262812 0.3855,-0.551906 0.3723,-0.880421 -0.013,-0.319755 -0.1357,-0.621989 -0.3723,-0.919841 -0.5869,-0.722733 -1.4454,-1.397284 -2.5887,-2.014893 -1.1388,-0.613228 -2.49668,-0.919842 -4.07794,-0.919842 -1.22207,0 -2.32588,0.197109 -3.30705,0.595707 -0.97678,0.389838 -1.81778,0.941744 -2.51862,1.642576 -0.70083,0.696452 -1.23959,1.515548 -1.62067,2.452912 -0.3767,0.937363 -0.57381,1.927288 -0.57381,2.982916 l 0,5.173017 c 0,1.046868 0.16645,2.054313 0.50373,3.000437 0.33727,0.946123 0.83224,1.778362 1.49365,2.479193 0.65703,0.696452 1.4586,1.252737 2.40911,1.660096 0.9505,0.411739 2.04117,0.613228 3.26763,0.613228 1.22645,0 2.32147,-0.201489 3.28517,-0.613228 0.968,-0.407359 1.7915,-0.963644 2.4792,-1.660096 0.6833,-0.700831 1.2133,-1.53307 1.5768,-2.479193 0.368,-0.946124 0.5476,-1.953569 0.5476,-3.000437 l 0,-2.6325 c 0,-0.411739 -0.1183,-0.731494 -0.3504,-0.959264 -0.2322,-0.240912 -0.5563,-0.354797 -0.9637,-0.354797 l -9.8642,0 c -0.29348,0 -0.43802,-0.148927 -0.43802,-0.43802 l 0,-0.788436 c 0,-1.116951 0.32851,-2.045553 0.98992,-2.807708 0.65265,-0.762155 1.682,-1.138853 3.08366,-1.138853 1.11257,0 1.97544,0.197109 2.58874,0.586947 0.6132,0.402979 1.0819,0.775296 1.4016,1.121332 0.3242,0.324135 0.6439,0.477442 0.9681,0.459921 0.3197,-0.01314 0.6132,-0.148927 0.8716,-0.416119 l 0.8366,-0.744634 z m -3.0661,8.112131 c 0,1.112571 -0.311,2.058693 -0.9242,2.84713 -0.6133,0.788436 -1.62071,1.182654 -3.02237,1.182654 -1.37101,0 -2.34341,-0.394218 -2.89532,-1.182654 -0.55628,-0.788437 -0.83223,-1.734559 -0.83223,-2.84713 l 0,-0.223391 c 0,-0.293473 0.14454,-0.43802 0.43802,-0.43802 l 6.7937,0 c 0.2978,0 0.4424,0.144547 0.4424,0.43802 l 0,0.223391 z"
           style="fill:#7e8588;fill-opacity:1;fill-rule:nonzero;stroke:none"
           id="path402"
           inkscape:connector-curvature="0" /><path
           d="m 857.4822,48.088029 c -0.4118,0 -0.7315,0.118265 -0.968,0.346036 -0.2278,0.236531 -0.3505,0.560666 -0.3505,0.972405 l 0,27.174763 c 0,0.407357 0.1227,0.722732 0.3505,0.963643 0.2365,0.232151 0.5562,0.350416 0.968,0.350416 l 7.6741,0 c 1.6075,0 3.0705,-0.271572 4.4021,-0.810337 1.3316,-0.543144 2.4617,-1.283398 3.399,-2.216381 0.9374,-0.932983 1.6558,-2.045553 2.1682,-3.328952 0.5125,-1.287779 0.771,-2.671922 0.771,-4.165571 l 0,-8.769161 c 0,-1.489268 -0.2585,-2.877792 -0.771,-4.161191 -0.5124,-1.287778 -1.2308,-2.395969 -2.1682,-3.333332 -0.9373,-0.932982 -2.0674,-1.668856 -3.399,-2.212001 -1.3316,-0.538764 -2.7946,-0.810337 -4.4021,-0.810337 l -7.6741,0 z m 14.2444,19.286022 c 0,1.020587 -0.1621,1.94481 -0.4818,2.763906 -0.3198,0.814718 -0.7709,1.50679 -1.3579,2.080596 -0.5869,0.569426 -1.279,0.998685 -2.0806,1.287778 -0.8103,0.297854 -1.6864,0.442401 -2.65,0.442401 l -4.389,0 c -0.2934,0 -0.438,-0.144547 -0.438,-0.442401 l 0,-21.038101 c 0,-0.289094 0.1446,-0.43364 0.438,-0.43364 l 4.389,0 c 0.9636,0 1.8397,0.144546 2.65,0.43364 0.8016,0.293473 1.4937,0.718353 2.0806,1.270258 0.587,0.560666 1.0381,1.243976 1.3579,2.063074 0.3197,0.819098 0.4818,1.756461 0.4818,2.803328 l 0,8.769161 z"
           style="fill:#7e8588;fill-opacity:1;fill-rule:nonzero;stroke:none"
           id="path404"
           inkscape:connector-curvature="0" /><path
           d="m 896.2763,52.382816 c 0.2672,-0.262812 0.3855,-0.551906 0.3723,-0.880421 -0.013,-0.319755 -0.1358,-0.626369 -0.3723,-0.919841 -0.5826,-0.727114 -1.4498,-1.397284 -2.5843,-2.014893 -1.1432,-0.613228 -2.5011,-0.924222 -4.078,-0.924222 -1.2264,0 -2.3302,0.201489 -3.3114,0.600087 -0.9768,0.389838 -1.8178,0.941744 -2.5186,1.642576 -0.7052,0.696452 -1.2396,1.515548 -1.6207,2.452912 -0.3811,0.937363 -0.5738,1.931668 -0.5738,2.982916 l 0,5.173017 c 0,1.046868 0.1664,2.054313 0.5081,3.000437 0.3373,0.946123 0.8322,1.778362 1.4937,2.479193 0.657,0.696452 1.4586,1.252737 2.4047,1.660096 0.9505,0.411739 2.0412,0.613228 3.2676,0.613228 1.2265,0 2.3215,-0.201489 3.2852,-0.613228 0.968,-0.407359 1.7915,-0.963644 2.4792,-1.660096 0.6877,-0.700831 1.2133,-1.53307 1.5768,-2.479193 0.368,-0.946124 0.5519,-1.953569 0.5519,-3.000437 l 0,-2.6325 c 0,-0.411739 -0.1182,-0.731494 -0.3548,-0.963645 -0.2365,-0.236531 -0.5519,-0.350416 -0.9636,-0.350416 l -9.8642,0 c -0.2935,0 -0.438,-0.148927 -0.438,-0.43802 l 0,-0.788436 c 0,-1.116951 0.3329,-2.045553 0.9899,-2.807708 0.657,-0.762155 1.6864,-1.138853 3.088,-1.138853 1.1082,0 1.9711,0.197109 2.5843,0.586947 0.6133,0.398599 1.0863,0.770916 1.4017,1.121332 0.3241,0.324135 0.6439,0.473062 0.968,0.459921 0.3242,-0.01314 0.6133,-0.148927 0.8717,-0.416119 l 0.8366,-0.744634 z m -3.0661,8.112131 c 0,1.108191 -0.311,2.058693 -0.9199,2.84713 -0.6132,0.788436 -1.625,1.182654 -3.0267,1.182654 -1.371,0 -2.339,-0.394218 -2.8953,-1.182654 -0.5519,-0.788437 -0.8322,-1.738939 -0.8322,-2.84713 l 0,-0.223391 c 0,-0.293473 0.1445,-0.43802 0.438,-0.43802 l 6.7937,0 c 0.2934,0 0.4424,0.144547 0.4424,0.43802 l 0,0.223391 z m -2.9829,10.779673 c -0.2366,-0.293474 -0.5169,-0.455541 -0.8498,-0.481823 -0.3417,-0.03066 -0.6702,0.07446 -0.9899,0.306615 l -0.8804,0.700832 c -0.3198,0.236531 -0.4862,0.516864 -0.5038,0.854139 -0.01,0.337276 0.096,0.66579 0.3285,0.989925 l 3.1582,3.854576 c 0.2628,0.319755 0.565,0.494963 0.8979,0.525624 0.3373,0.03066 0.6527,-0.08322 0.9461,-0.350416 l 0.8761,-0.65703 c 0.3197,-0.262811 0.4949,-0.565045 0.5256,-0.897941 0.026,-0.332895 -0.088,-0.66141 -0.3504,-0.985545 l -3.1581,-3.858956 z"
           style="fill:#7e8588;fill-opacity:1;fill-rule:nonzero;stroke:none"
           id="path406"
           inkscape:connector-curvature="0" /><path
           d="m 904.3845,38.005684 c -0.4117,0 -0.7315,0.118266 -0.9636,0.350416 -0.2366,0.236531 -0.3548,0.560666 -0.3548,0.963645 l 0,27.174762 c 0,0.411739 0.1182,0.731493 0.3548,0.968024 0.2321,0.232151 0.5519,0.350416 0.9636,0.350416 l 7.2317,0 c 1.1389,0 2.1857,-0.192728 3.1362,-0.573806 0.9462,-0.381078 1.7565,-0.893561 2.4311,-1.550591 0.6701,-0.66141 1.1914,-1.445466 1.5549,-2.369688 0.368,-0.919843 0.5476,-1.905387 0.5476,-2.956635 l 0,-4.822601 c 0,-1.055629 -0.1928,-2.036793 -0.5695,-2.956635 -0.3767,-0.924223 -0.8935,-1.717039 -1.5549,-2.369688 -0.6571,-0.65703 -1.4499,-1.173894 -2.3654,-1.554972 -0.9198,-0.381077 -1.9185,-0.573806 -3.0048,-0.573806 l -4.3364,0 c -0.2978,0 -0.438,-0.144547 -0.438,-0.43802 l 0,-8.32676 c 0,-0.402979 -0.1183,-0.727114 -0.3548,-0.963645 -0.2365,-0.23215 -0.5519,-0.350416 -0.9593,-0.350416 l -1.3184,0 z m 10.9593,22.356543 c 0,1.108191 -0.3636,2.006131 -1.0951,2.693823 -0.7315,0.687691 -1.6075,1.029347 -2.6325,1.029347 l -4.1612,0 c -0.2978,0 -0.438,-0.144547 -0.438,-0.4424 l 0,-11.392901 c 0,-0.293474 0.1402,-0.438021 0.438,-0.438021 l 4.1612,0 c 1.1126,0 2.0105,0.346036 2.6982,1.029348 0.6877,0.687691 1.0294,1.590012 1.0294,2.698203 l 0,4.822601 z"
           style="fill:#7e8588;fill-opacity:1;fill-rule:nonzero;stroke:none"
           id="path408"
           inkscape:connector-curvature="0" /><path
           d="m 938.5759,48.088029 c -0.4117,0 -0.7315,0.131406 -0.968,0.398598 -0.2322,0.258432 -0.3504,0.547526 -0.3504,0.87166 0,0.175209 -0.066,0.284714 -0.1971,0.328516 -0.1271,0.0438 -0.2541,-0.0088 -0.3723,-0.153307 -0.4074,-0.551906 -1.0163,-1.007447 -1.8178,-1.357863 -0.8016,-0.350416 -1.774,-0.530004 -2.9172,-0.530004 -1.025,0 -1.958,0.192729 -2.8034,0.573806 -0.8454,0.376697 -1.5768,0.924223 -2.1901,1.625055 -0.6176,0.700832 -1.095,1.53745 -1.4498,2.518615 -0.3504,0.972404 -0.5256,2.054313 -0.5256,3.219447 l 0,3.902758 c 0,1.138853 0.2058,2.216382 0.6132,3.241348 0.4117,1.024968 0.9899,1.905388 1.7345,2.650022 0.7447,0.749014 1.6295,1.340341 2.6501,1.778361 1.0249,0.43802 2.1463,0.65703 3.3771,0.65703 l 6.5309,0 c 0.4117,0 0.7271,-0.118265 0.9636,-0.350416 0.2366,-0.23215 0.3504,-0.556285 0.3504,-0.968024 l 0,-17.087161 c 0,-0.416119 -0.1138,-0.735874 -0.3504,-0.972405 -0.2365,-0.227771 -0.5519,-0.346036 -0.9636,-0.346036 l -1.3141,0 z m -1.3184,15.558472 c 0,0.293473 -0.1446,0.43802 -0.438,0.43802 l -3.2852,0 c -1.463,0 -2.5931,-0.451161 -3.399,-1.357863 -0.8016,-0.9067 -1.2046,-1.98423 -1.2046,-3.241348 l 0,-4.340778 c 0,-1.112571 0.3285,-2.019272 0.9899,-2.720104 0.6527,-0.700833 1.5682,-1.046869 2.7377,-1.046869 0.784,0 1.463,0.131406 2.0411,0.411739 0.5695,0.280333 1.0425,0.657031 1.4192,1.121332 0.3811,0.464301 0.6658,0.985545 0.8542,1.55497 0.1927,0.569427 0.2847,1.160754 0.2847,1.778362 l 0,7.402539 z"
           style="fill:#7e8588;fill-opacity:1;fill-rule:nonzero;stroke:none"
           id="path410"
           inkscape:connector-curvature="0" /><path
           d="m 948.6556,48.088029 c -0.4117,0 -0.7315,0.118265 -0.9592,0.346036 -0.2366,0.236531 -0.3592,0.556286 -0.3592,0.972405 l 0,11.173891 c 0,2.133157 0.6176,3.867717 1.8441,5.212437 1.2264,1.349103 2.9391,2.019273 5.1292,2.019273 l 1.5769,0 c 0.4073,0 0.7314,-0.118265 0.968,-0.350416 0.2321,-0.236531 0.346,-0.556285 0.346,-0.963644 l 0,-1.095049 c 0,-0.411739 -0.1139,-0.731494 -0.346,-0.968025 -0.2366,-0.232151 -0.5607,-0.346036 -0.968,-0.346036 l -1.3141,0 c -1.1126,0 -1.9361,-0.346036 -2.4748,-1.033727 -0.5388,-0.687692 -0.8147,-1.585632 -0.8147,-2.693823 l 0,-10.954881 c 0,-0.416119 -0.1183,-0.735874 -0.3461,-0.972405 -0.2365,-0.227771 -0.5563,-0.346036 -0.9636,-0.346036 l -1.3185,0 z"
           style="fill:#7e8588;fill-opacity:1;fill-rule:nonzero;stroke:none"
           id="path412"
           inkscape:connector-curvature="0" /><path
           d="m 969.0783,48.088029 c -2.1901,0 -3.8064,0.600088 -4.8401,1.800263 -1.0381,1.195794 -1.5593,2.86027 -1.5593,4.993428 l 0,8.764781 c 0,0.289093 -0.1446,0.4424 -0.4337,0.4424 l -1.3184,0 c -0.4118,0 -0.7271,0.113885 -0.9637,0.346036 -0.2321,0.236531 -0.3548,0.556286 -0.3548,0.968025 l 0,1.095049 c 0,0.407359 0.1227,0.727113 0.3548,0.963644 0.2366,0.232151 0.5519,0.350416 0.9637,0.350416 l 1.3184,0 c 0.2891,0 0.4337,0.144547 0.4337,0.438021 l 0,3.07052 c 0,0.402978 0.1182,0.727113 0.3548,0.963644 0.2277,0.232151 0.5519,0.346036 0.9636,0.346036 l 1.3141,0 c 0.4073,0 0.7315,-0.113885 0.9636,-0.346036 0.2322,-0.236531 0.3504,-0.560666 0.3504,-0.963644 l 0,-3.07052 c 0,-0.293474 0.1446,-0.438021 0.4337,-0.438021 l 3.2939,0 c 0.4073,0 0.7271,-0.118265 0.9636,-0.350416 0.2322,-0.236531 0.3504,-0.556285 0.3504,-0.963644 l 0,-1.095049 c 0,-0.411739 -0.1182,-0.731494 -0.3504,-0.968025 -0.2365,-0.232151 -0.5563,-0.346036 -0.9636,-0.346036 l -3.2939,0 c -0.2891,0 -0.4337,-0.153307 -0.4337,-0.4424 l 0,-8.550152 c 0,-1.020586 0.1971,-1.822162 0.5913,-2.409109 0.3986,-0.582567 1.1477,-0.876041 2.2602,-0.876041 l 0.8761,0 c 0.4073,0 0.7271,-0.109505 0.9636,-0.346036 0.2322,-0.23653 0.3504,-0.560665 0.3504,-0.968023 l 0,-1.09067 c 0,-0.416119 -0.1182,-0.735874 -0.3504,-0.972405 -0.2365,-0.227771 -0.5563,-0.346036 -0.9636,-0.346036 l -1.2747,0 z"
           style="fill:#7e8588;fill-opacity:1;fill-rule:nonzero;stroke:none"
           id="path414"
           inkscape:connector-curvature="0" /><path
           d="m 990.7367,52.382816 c 0.2628,-0.262812 0.3898,-0.551906 0.3723,-0.880421 -0.013,-0.319755 -0.1402,-0.621989 -0.3723,-0.919841 -0.5826,-0.722733 -1.4455,-1.397284 -2.5843,-2.014893 -1.1433,-0.613228 -2.5011,-0.919842 -4.078,-0.919842 -1.2265,0 -2.3303,0.197109 -3.3071,0.595707 -0.9811,0.389838 -1.8221,0.941744 -2.5186,1.642576 -0.7052,0.696452 -1.244,1.515548 -1.625,2.452912 -0.3767,0.937363 -0.5738,1.927288 -0.5738,2.982916 l 0,5.173017 c 0,1.046868 0.1664,2.054313 0.5081,3.000437 0.3372,0.946123 0.8322,1.778362 1.4936,2.479193 0.657,0.696452 1.4542,1.252737 2.4047,1.660096 0.9505,0.411739 2.0412,0.613228 3.2677,0.613228 1.2264,0 2.3259,-0.201489 3.2851,-0.613228 0.9637,-0.407359 1.7915,-0.963644 2.4792,-1.660096 0.6877,-0.700831 1.2177,-1.53307 1.5769,-2.479193 0.3635,-0.946124 0.5519,-1.953569 0.5519,-3.000437 l 0,-2.6325 c 0,-0.411739 -0.1183,-0.731494 -0.3548,-0.959264 -0.2365,-0.240912 -0.5519,-0.354797 -0.9636,-0.354797 l -9.8599,0 c -0.2935,0 -0.4424,-0.148927 -0.4424,-0.43802 l 0,-0.788436 c 0,-1.116951 0.3329,-2.045553 0.9899,-2.807708 0.6571,-0.762155 1.6864,-1.138853 3.0881,-1.138853 1.1082,0 1.9755,0.197109 2.5843,0.586947 0.6132,0.402979 1.0863,0.775296 1.4017,1.121332 0.3241,0.324135 0.6439,0.477442 0.968,0.459921 0.3241,-0.01314 0.6132,-0.148927 0.8717,-0.416119 l 0.8366,-0.744634 z m -3.0662,8.112131 c 0,1.112571 -0.3066,2.058693 -0.9198,2.84713 -0.6132,0.788436 -1.6251,1.182654 -3.0267,1.182654 -1.371,0 -2.3391,-0.394218 -2.8953,-1.182654 -0.5519,-0.788437 -0.8323,-1.734559 -0.8323,-2.84713 l 0,-0.223391 c 0,-0.293473 0.1489,-0.43802 0.4424,-0.43802 l 6.7893,0 c 0.2979,0 0.4424,0.144547 0.4424,0.43802 l 0,0.223391 z"
           style="fill:#7e8588;fill-opacity:1;fill-rule:nonzero;stroke:none"
           id="path416"
           inkscape:connector-curvature="0" /><path
           d="m 1020.9846,48.088029 c -0.4117,0 -0.7315,0.118265 -0.968,0.346036 -0.2278,0.236531 -0.3504,0.556286 -0.3504,0.972405 l 0,11.392901 c 0,0.464301 -0.07,0.924222 -0.2147,1.357861 -0.1489,0.43802 -0.3679,0.832239 -0.6658,1.182655 -0.2891,0.354796 -0.6614,0.635129 -1.1125,0.858519 -0.4556,0.21463 -1.0031,0.328515 -1.6426,0.328515 -0.6439,0 -1.1914,-0.113885 -1.6426,-0.328515 -0.4555,-0.22339 -0.8278,-0.503723 -1.1213,-0.858519 -0.2891,-0.350416 -0.5037,-0.744635 -0.6351,-1.182655 -0.1315,-0.433639 -0.1972,-0.89356 -0.1972,-1.357861 l 0,-11.392901 c 0,-0.416119 -0.1138,-0.735874 -0.3504,-0.972405 -0.2321,-0.227771 -0.5519,-0.346036 -0.9636,-0.346036 l -1.3141,0 c -0.4073,0 -0.7359,0.118265 -0.968,0.346036 -0.2322,0.236531 -0.346,0.556286 -0.346,0.972405 l 0,11.392901 c 0,0.464301 -0.074,0.924222 -0.2234,1.357861 -0.1446,0.43802 -0.3592,0.832239 -0.6571,1.182655 -0.2934,0.354796 -0.6614,0.635129 -1.1169,0.858519 -0.4512,0.21463 -0.9812,0.328515 -1.5988,0.328515 -0.6132,0 -1.152,-0.113885 -1.625,-0.328515 -0.4643,-0.22339 -0.841,-0.503723 -1.1345,-0.858519 -0.2935,-0.350416 -0.5125,-0.744635 -0.657,-1.182655 -0.149,-0.433639 -0.2234,-0.89356 -0.2234,-1.357861 l 0,-11.392901 c 0,-0.416119 -0.1183,-0.735874 -0.3504,-0.972405 -0.2366,-0.227771 -0.5563,-0.346036 -0.9593,-0.346036 l -1.3185,0 c -0.4073,0 -0.7314,0.118265 -0.9636,0.346036 -0.2321,0.236531 -0.3504,0.556286 -0.3504,0.972405 l 0,11.392901 c 0,1.051248 0.1796,2.036792 0.5475,2.956635 0.3636,0.919842 0.8761,1.708278 1.5331,2.369688 0.657,0.65703 1.4498,1.173894 2.3872,1.554971 0.9374,0.376698 1.9755,0.569427 3.1143,0.569427 1.1082,0 2.0938,-0.20587 2.961,-0.613229 0.8586,-0.411739 1.5857,-0.858519 2.1682,-1.357862 0.2935,-0.262812 0.5695,-0.262812 0.8279,0 0.5607,0.556285 1.2702,1.020587 2.1288,1.401664 0.8672,0.376698 1.8791,0.569427 3.0486,0.569427 1.1388,0 2.1726,-0.192729 3.1143,-0.569427 0.933,-0.381077 1.7302,-0.897941 2.3828,-1.554971 0.6614,-0.66141 1.1696,-1.449846 1.5331,-2.369688 0.3679,-0.919843 0.5519,-1.905387 0.5519,-2.956635 l 0,-11.392901 c 0,-0.416119 -0.1183,-0.735874 -0.3504,-0.972405 -0.2365,-0.227771 -0.5607,-0.346036 -0.968,-0.346036 l -1.3097,0 z"
           style="fill:#7e8588;fill-opacity:1;fill-rule:nonzero;stroke:none"
           id="path418"
           inkscape:connector-curvature="0" /><path
           d="m 1043.9903,52.382816 c 0.2628,-0.262812 0.3854,-0.551906 0.3723,-0.880421 -0.013,-0.319755 -0.1402,-0.621989 -0.3723,-0.919841 -0.587,-0.722733 -1.4455,-1.397284 -2.5843,-2.014893 -1.1433,-0.613228 -2.5011,-0.919842 -4.078,-0.919842 -1.2265,0 -2.3303,0.197109 -3.3114,0.595707 -0.9768,0.389838 -1.8134,0.941744 -2.5143,1.642576 -0.7052,0.696452 -1.2439,1.515548 -1.625,2.452912 -0.3767,0.937363 -0.5738,1.927288 -0.5738,2.982916 l 0,5.173017 c 0,1.046868 0.1664,2.054313 0.5081,3.000437 0.3373,0.946123 0.8322,1.778362 1.4936,2.479193 0.6571,0.696452 1.4543,1.252737 2.4048,1.660096 0.9505,0.411739 2.0411,0.613228 3.2632,0.613228 1.2308,0 2.3303,-0.201489 3.2895,-0.613228 0.9681,-0.407359 1.7872,-0.963644 2.4792,-1.660096 0.6877,-0.700831 1.2177,-1.53307 1.5769,-2.479193 0.3636,-0.946124 0.5519,-1.953569 0.5519,-3.000437 l 0,-2.6325 c 0,-0.411739 -0.1226,-0.731494 -0.3548,-0.959264 -0.2321,-0.240912 -0.5519,-0.354797 -0.9636,-0.354797 l -9.8599,0 c -0.2934,0 -0.4424,-0.148927 -0.4424,-0.43802 l 0,-0.788436 c 0,-1.116951 0.3285,-2.045553 0.99,-2.807708 0.657,-0.762155 1.6863,-1.138853 3.088,-1.138853 1.1082,0 1.9755,0.197109 2.5887,0.586947 0.6132,0.402979 1.0819,0.775296 1.3973,1.121332 0.3241,0.324135 0.6439,0.477442 0.968,0.459921 0.3241,-0.01314 0.6132,-0.148927 0.8717,-0.416119 l 0.8366,-0.744634 z m -3.0662,8.112131 c 0,1.112571 -0.3066,2.058693 -0.9198,2.84713 -0.6132,0.788436 -1.625,1.182654 -3.0311,1.182654 -1.3666,0 -2.3346,-0.394218 -2.8909,-1.182654 -0.5519,-0.788437 -0.8323,-1.734559 -0.8323,-2.84713 l 0,-0.223391 c 0,-0.293473 0.149,-0.43802 0.4424,-0.43802 l 6.7893,0 c 0.2979,0 0.4424,0.144547 0.4424,0.43802 l 0,0.223391 z"
           style="fill:#7e8588;fill-opacity:1;fill-rule:nonzero;stroke:none"
           id="path420"
           inkscape:connector-curvature="0" /><path
           d="m 1064.1541,48.088029 c -0.4117,0 -0.7271,0.118265 -0.9636,0.346036 -0.2322,0.236531 -0.3505,0.556286 -0.3505,0.972405 l 0,10.954881 c 0,1.108191 -0.3416,2.080594 -1.0293,2.912833 -0.6833,0.832238 -1.7302,1.252737 -3.1318,1.252737 -1.4061,0 -2.453,-0.420499 -3.1406,-1.252737 -0.6834,-0.832239 -1.0294,-1.804642 -1.0294,-2.912833 l 0,-10.954881 c 0,-0.416119 -0.1139,-0.735874 -0.346,-0.972405 -0.2366,-0.227771 -0.5563,-0.346036 -0.9637,-0.346036 l -1.314,0 c -0.4118,0 -0.7359,0.118265 -0.9681,0.346036 -0.2321,0.236531 -0.3504,0.556286 -0.3504,0.972405 l 0,10.954881 c 0,1.055628 0.2015,2.058693 0.5914,3.026718 0.3942,0.959264 0.9417,1.800263 1.6469,2.518615 0.7008,0.713973 1.5462,1.283399 2.5405,1.703898 0.9943,0.42488 2.1025,0.63951 3.3334,0.63951 1.222,0 2.3346,-0.21463 3.3245,-0.63951 0.9987,-0.420499 1.8485,-0.989925 2.5449,-1.703898 0.7052,-0.718352 1.2484,-1.559351 1.647,-2.518615 0.3942,-0.968025 0.5913,-1.97109 0.5913,-3.026718 l 0,-10.954881 c 0,-0.416119 -0.1183,-0.735874 -0.3504,-0.972405 -0.2365,-0.227771 -0.5563,-0.346036 -0.968,-0.346036 l -1.3141,0 z"
           style="fill:#7e8588;fill-opacity:1;fill-rule:nonzero;stroke:none"
           id="path422"
           inkscape:connector-curvature="0" /><path
           d="m 1080.8541,48.088029 c -2.1858,0 -3.8064,0.600088 -4.8402,1.800263 -1.0381,1.195794 -1.5593,2.86027 -1.5593,4.993428 l 0,8.764781 c 0,0.289093 -0.1489,0.4424 -0.438,0.4424 l -1.3141,0 c -0.4117,0 -0.7271,0.113885 -0.9636,0.346036 -0.2322,0.236531 -0.3505,0.556286 -0.3505,0.968025 l 0,1.095049 c 0,0.407359 0.1183,0.727113 0.3505,0.963644 0.2365,0.232151 0.5519,0.350416 0.9636,0.350416 l 1.3141,0 c 0.2891,0 0.438,0.144547 0.438,0.438021 l 0,3.07052 c 0,0.402978 0.1183,0.727113 0.3548,0.963644 0.2278,0.232151 0.5519,0.346036 0.9636,0.346036 l 1.3141,0 c 0.4073,0 0.7315,-0.113885 0.9636,-0.346036 0.2366,-0.236531 0.3505,-0.560666 0.3505,-0.963644 l 0,-3.07052 c 0,-0.293474 0.1489,-0.438021 0.4336,-0.438021 l 3.2895,0 c 0.4118,0 0.7315,-0.118265 0.968,-0.350416 0.2366,-0.236531 0.3461,-0.556285 0.3461,-0.963644 l 0,-1.095049 c 0,-0.411739 -0.1095,-0.731494 -0.3461,-0.968025 -0.2365,-0.232151 -0.5562,-0.346036 -0.968,-0.346036 l -3.2895,0 c -0.2847,0 -0.4336,-0.153307 -0.4336,-0.4424 l 0,-8.550152 c 0,-1.020586 0.1971,-1.822162 0.5913,-2.409109 0.3986,-0.582567 1.152,-0.876041 2.2602,-0.876041 l 0.8716,0 c 0.4118,0 0.7315,-0.109505 0.968,-0.346036 0.2366,-0.23653 0.3461,-0.560665 0.3461,-0.968023 l 0,-1.09067 c 0,-0.416119 -0.1095,-0.735874 -0.3461,-0.972405 -0.2365,-0.227771 -0.5562,-0.346036 -0.968,-0.346036 l -1.2702,0 z"
           style="fill:#7e8588;fill-opacity:1;fill-rule:nonzero;stroke:none"
           id="path424"
           inkscape:connector-curvature="0" /></g><path
         inkscape:connector-curvature="0"
         id="path430"
         style="fill:#01a4de;fill-opacity:1;fill-rule:nonzero;stroke:none"
         d="m 496.063,0 262.2339,0 0,262.4616 -262.2339,0 0,-262.4616 z" /><g
         id="g5548"><path
           d="m 673.10987,215.32802 c -11.47613,0 -14.99781,-2.60622 -16.89006,-9.93429 l -22.91283,-82.08934 c 0,0 4.74814,-31.603144 25.33508,-46.105988 0.68769,-0.4643 1.36663,-0.937362 2.08498,-1.366622 l 43.38589,124.38893 5.45774,15.10731 -36.4608,0 z"
           style="fill:#ffffff;fill-opacity:1;fill-rule:nonzero;stroke:none"
           id="path436"
           inkscape:connector-curvature="0" /><path
           d="m 605.25967,184.34161 -5.79939,21.05124 c -1.8791,7.32807 -5.6417,9.93429 -17.58212,9.93429 l -37.08717,0.0745 3.70127,-10.2409 46.57468,-134.708682 c 2.11126,-6.145421 10.38108,-23.149359 29.26413,-23.149359 l 17.60403,0 c 0.42488,0 0.81034,0.02628 1.20455,0.03066 l 0.0307,-0.0044 0,0.0044 c 3.05301,0.105125 5.0679,0.64389 6.43452,1.458607 l 0.0131,0 c 0.092,0.03942 0.17959,0.118266 0.26281,0.166448 0.0131,0.0044 0.0263,0.01314 0.035,0.01752 0.49058,0.280333 0.9286,0.696452 1.31844,1.208936 0.0657,0.07884 0.14016,0.179588 0.24529,0.341655 1.05563,1.568111 1.66009,3.530442 1.66009,3.530442 l 0.0613,0.201489 c 0.9286,2.295224 2.20324,5.830046 3.95532,11.296537 -21.66448,11.896623 -29.53132,37.836167 -30.57819,41.620667 l -21.31844,77.16599 z"
           style="fill:#ffffff;fill-opacity:1;fill-rule:nonzero;stroke:none"
           id="path438"
           inkscape:connector-curvature="0" /></g></g></g></svg>