<?xml version="1.0" encoding="UTF-8" standalone="no"?>
<!-- Created with Inkscape (http://www.inkscape.org/) -->

<svg
   xmlns:dc="http://purl.org/dc/elements/1.1/"
   xmlns:cc="http://creativecommons.org/ns#"
   xmlns:rdf="http://www.w3.org/1999/02/22-rdf-syntax-ns#"
   xmlns:svg="http://www.w3.org/2000/svg"
   xmlns="http://www.w3.org/2000/svg"
   xmlns:sodipodi="http://sodipodi.sourceforge.net/DTD/sodipodi-0.dtd"
   xmlns:inkscape="http://www.inkscape.org/namespaces/inkscape"
   id="svg2"
   version="1.1"
   inkscape:version="0.91 r13725"
   xml:space="preserve"
   width="700"
   height="285"
   viewBox="0 0 700 285"
   sodipodi:docname="Logo Haute Marne 2018.svg"><metadata
     id="metadata8"><rdf:RDF><cc:Work
         rdf:about=""><dc:format>image/svg+xml</dc:format><dc:type
           rdf:resource="http://purl.org/dc/dcmitype/StillImage" /><dc:title></dc:title></cc:Work></rdf:RDF></metadata><defs
     id="defs6" /><sodipodi:namedview
     pagecolor="#ffffff"
     bordercolor="#666666"
     borderopacity="1"
     objecttolerance="10"
     gridtolerance="10"
     guidetolerance="10"
     inkscape:pageopacity="0"
     inkscape:pageshadow="2"
     inkscape:window-width="1440"
     inkscape:window-height="790"
     id="namedview4"
     showgrid="false"
     inkscape:zoom="0.49336647"
     inkscape:cx="653.12176"
     inkscape:cy="483.26431"
     inkscape:window-x="0"
     inkscape:window-y="1"
     inkscape:window-maximized="1"
     inkscape:current-layer="g10" /><g
     id="g10"
     inkscape:groupmode="layer"
     inkscape:label="Logo Haute Marne 2018"
     transform="matrix(1.25,0,0,-1.25,0,285)"><g
       id="g4941"
       transform="matrix(7.839503,0,0,7.839254,-3971.1104,-5072.0232)"><g
         id="g4936"><path
           d="m 554.1822,671.309 c 0,0 8.342,-3.779 13.458,-8.344 -0.525,-0.517 -0.831,-0.823 -1.412,-1.444 0,0 -4.515,4.39 -12.122,7.734 l 0.076,2.054 z"
           style="fill:#14aace;fill-opacity:1;fill-rule:nonzero;stroke:none"
           id="path444"
           inkscape:connector-curvature="0" /><path
           d="m 575.1964,669.9397 c 1.38,0 2.499,1.082 2.499,2.417 0,1.336 -1.119,2.419 -2.499,2.419 -1.382,0 -2.501,-1.083 -2.501,-2.419 0,-1.335 1.119,-2.417 2.501,-2.417"
           style="fill:#14aace;fill-opacity:1;fill-rule:nonzero;stroke:none"
           id="path446"
           inkscape:connector-curvature="0" /><path
           d="m 572.1953,668.9077 c -0.537,0.793 -1.352,1.377 -2.305,1.604 l -0.007,-0.031 c 0.255,0.522 0.401,1.107 0.401,1.728 0,2.144 -1.727,3.879 -3.857,3.879 -2.129,0 -3.855,-1.735 -3.855,-3.879 0,-0.144 0.008,-0.286 0.023,-0.426 l -0.039,0.017 c -0.069,0.002 -0.139,0.002 -0.208,0.002 -2.494,0 -4.591,-1.696 -5.209,-4.005 l 1.414,-0.771 c 0.006,0.028 0.012,0.099 0.017,0.128 0.361,1.766 1.913,3.098 3.778,3.098 0.317,0 0.588,-0.091 0.882,-0.161 0,0 0.409,-0.127 0.84,-0.361 0.308,-0.04 0.719,0.324 0.719,0.726 0,0.23 -0.107,0.437 -0.275,0.568 l 0.106,-0.12 c -0.083,0.119 -0.17,0.232 -0.242,0.359 -0.161,0.277 -0.264,0.603 -0.264,0.946 0,1.287 1.034,2.328 2.313,2.328 1.279,0 2.314,-1.041 2.314,-2.328 0,-0.917 -0.53,-1.714 -1.302,-2.091 -0.036,-0.018 -0.074,-0.036 -0.114,-0.052 l 0.064,0.016 c -0.247,-0.086 -0.425,-0.327 -0.425,-0.608 0,-0.357 0.288,-0.647 0.643,-0.647 0.211,0 0.537,0.177 0.706,0.278 0.171,0.041 0.347,0.064 0.53,0.064 1.276,0 2.311,-1.043 2.311,-2.329 0,-0.241 -0.076,-0.573 -0.142,-0.792 4.686,3.784 4.72,3.726 5.214,4.09 l -1.819,0.552 -2.212,-1.782 z"
           style="fill:#14aace;fill-opacity:1;fill-rule:nonzero;stroke:none"
           id="path448"
           inkscape:connector-curvature="0" /></g><g
         id="g4909"><path
           d="m 532.099,648.686 0.653,0 0,5.01 -0.653,0 0,-5.01 z"
           style="fill:#14aace;fill-opacity:1;fill-rule:nonzero;stroke:none"
           id="path450"
           inkscape:connector-curvature="0" /><path
           d="m 536.433,650.278 -2.32,0 c 0.016,-0.316 0.122,-0.567 0.317,-0.753 0.195,-0.187 0.446,-0.28 0.755,-0.28 0.43,0 0.827,0.134 1.191,0.402 l 0,-0.639 c -0.201,-0.134 -0.4,-0.229 -0.597,-0.287 -0.198,-0.057 -0.429,-0.086 -0.694,-0.086 -0.364,0 -0.658,0.076 -0.883,0.226 -0.225,0.151 -0.404,0.353 -0.54,0.608 -0.135,0.255 -0.202,0.549 -0.202,0.884 0,0.502 0.142,0.91 0.427,1.225 0.284,0.314 0.654,0.472 1.108,0.472 0.437,0 0.786,-0.153 1.047,-0.46 0.261,-0.305 0.391,-0.716 0.391,-1.23 l 0,-0.082 z m -2.306,0.391 1.66,0 c -0.016,0.26 -0.094,0.461 -0.233,0.602 -0.138,0.142 -0.325,0.212 -0.559,0.212 -0.234,0 -0.426,-0.07 -0.576,-0.212 -0.149,-0.141 -0.247,-0.342 -0.292,-0.602"
           style="fill:#14aace;fill-opacity:1;fill-rule:nonzero;stroke:none"
           id="path452"
           inkscape:connector-curvature="0" /><path
           d="m 539.1304,648.6926 0,5.003 1.689,0 c 0.682,0 1.221,-0.102 1.618,-0.306 0.397,-0.205 0.712,-0.506 0.947,-0.903 0.234,-0.396 0.351,-0.829 0.351,-1.298 0,-0.335 -0.065,-0.655 -0.194,-0.961 -0.129,-0.306 -0.313,-0.575 -0.552,-0.807 -0.244,-0.239 -0.527,-0.419 -0.85,-0.542 -0.189,-0.074 -0.362,-0.123 -0.52,-0.148 -0.158,-0.026 -0.459,-0.038 -0.904,-0.038 l -1.585,0 z m 1.614,4.365 -0.897,0 0,-3.727 0.918,0 c 0.359,0 0.638,0.025 0.836,0.074 0.198,0.049 0.364,0.111 0.497,0.186 0.132,0.076 0.254,0.168 0.364,0.278 0.354,0.359 0.531,0.812 0.531,1.36 0,0.538 -0.182,0.976 -0.545,1.316 -0.134,0.127 -0.288,0.231 -0.461,0.312 -0.174,0.081 -0.338,0.135 -0.494,0.161 -0.155,0.027 -0.405,0.04 -0.749,0.04"
           style="fill:#14aace;fill-opacity:1;fill-rule:nonzero;stroke:none"
           id="path454"
           inkscape:connector-curvature="0" /><path
           d="m 547.2805,650.278 -2.32,0 c 0.016,-0.316 0.122,-0.567 0.317,-0.753 0.195,-0.187 0.447,-0.28 0.755,-0.28 0.43,0 0.827,0.134 1.191,0.402 l 0,-0.639 c -0.201,-0.134 -0.4,-0.229 -0.597,-0.287 -0.198,-0.057 -0.429,-0.086 -0.694,-0.086 -0.364,0 -0.658,0.076 -0.883,0.226 -0.224,0.151 -0.404,0.353 -0.539,0.608 -0.136,0.255 -0.203,0.549 -0.203,0.884 0,0.502 0.142,0.91 0.427,1.225 0.284,0.314 0.654,0.472 1.108,0.472 0.437,0 0.786,-0.153 1.047,-0.46 0.261,-0.305 0.391,-0.716 0.391,-1.23 l 0,-0.082 z m -2.306,0.391 1.661,0 c -0.017,0.26 -0.095,0.461 -0.234,0.602 -0.138,0.142 -0.325,0.212 -0.559,0.212 -0.235,0 -0.426,-0.07 -0.576,-0.212 -0.149,-0.141 -0.247,-0.342 -0.292,-0.602 m 1.596,3.106 -0.811,-1.076 -0.401,0 0.484,1.076 0.728,0 z"
           style="fill:#14aace;fill-opacity:1;fill-rule:nonzero;stroke:none"
           id="path456"
           inkscape:connector-curvature="0" /><path
           d="m 547.871,647.0033 0,4.982 1.143,0 c 0.585,0 1.04,-0.146 1.366,-0.438 0.326,-0.291 0.489,-0.699 0.489,-1.223 0,-0.495 -0.153,-0.901 -0.46,-1.219 -0.307,-0.318 -0.698,-0.477 -1.173,-0.477 -0.21,0 -0.443,0.046 -0.698,0.14 l 0,-1.765 -0.667,0 z m 1.129,4.372 -0.462,0 0,-2.03 c 0.2,-0.103 0.41,-0.154 0.63,-0.154 0.305,0 0.555,0.106 0.75,0.319 0.194,0.213 0.291,0.487 0.291,0.821 0,0.216 -0.046,0.406 -0.137,0.571 -0.092,0.164 -0.218,0.285 -0.376,0.36 -0.159,0.075 -0.391,0.113 -0.696,0.113"
           style="fill:#14aace;fill-opacity:1;fill-rule:nonzero;stroke:none"
           id="path458"
           inkscape:connector-curvature="0" /><path
           d="m 553.5859,650.6689 0,-1.403 c 0,-0.112 0.038,-0.168 0.115,-0.168 0.079,0 0.202,0.058 0.369,0.176 l 0,-0.398 c -0.148,-0.096 -0.267,-0.161 -0.357,-0.196 -0.089,-0.034 -0.183,-0.052 -0.281,-0.052 -0.28,0 -0.445,0.11 -0.495,0.33 -0.278,-0.215 -0.573,-0.323 -0.886,-0.323 -0.23,0 -0.421,0.076 -0.574,0.228 -0.153,0.152 -0.23,0.343 -0.23,0.572 0,0.208 0.075,0.394 0.225,0.558 0.149,0.164 0.361,0.293 0.636,0.389 l 0.836,0.287 0,0.176 c 0,0.397 -0.198,0.595 -0.595,0.595 -0.357,0 -0.703,-0.184 -1.04,-0.552 l 0,0.713 c 0.253,0.299 0.618,0.449 1.093,0.449 0.357,0 0.642,-0.093 0.858,-0.28 0.071,-0.06 0.136,-0.139 0.193,-0.239 0.058,-0.099 0.094,-0.198 0.11,-0.297 0.015,-0.1 0.023,-0.288 0.023,-0.565 m -0.642,-1.331 0,0.979 -0.437,-0.168 c -0.223,-0.089 -0.38,-0.178 -0.472,-0.267 -0.092,-0.09 -0.138,-0.202 -0.138,-0.336 0,-0.136 0.043,-0.247 0.131,-0.333 0.087,-0.086 0.2,-0.129 0.339,-0.129 0.208,0 0.4,0.084 0.577,0.254"
           style="fill:#14aace;fill-opacity:1;fill-rule:nonzero;stroke:none"
           id="path460"
           inkscape:connector-curvature="0" /><path
           d="m 555.2738,651.985 0,-0.757 0.036,0.058 c 0.315,0.509 0.631,0.764 0.947,0.764 0.246,0 0.503,-0.125 0.771,-0.373 l -0.345,-0.574 c -0.227,0.215 -0.437,0.323 -0.631,0.323 -0.21,0 -0.393,-0.101 -0.547,-0.302 -0.154,-0.2 -0.231,-0.439 -0.231,-0.713 l 0,-1.726 -0.656,0 0,3.3 0.656,0 z"
           style="fill:#14aace;fill-opacity:1;fill-rule:nonzero;stroke:none"
           id="path462"
           inkscape:connector-curvature="0" /><path
           d="m 557.0939,651.4613 1.227,1.205 0,-0.681 1.043,0 0,-0.588 -1.043,0 0,-1.615 c 0,-0.378 0.156,-0.566 0.469,-0.566 0.235,0 0.482,0.078 0.743,0.233 l 0,-0.61 c -0.251,-0.141 -0.525,-0.211 -0.822,-0.211 -0.298,0 -0.547,0.087 -0.746,0.261 -0.062,0.053 -0.113,0.112 -0.154,0.178 -0.04,0.066 -0.075,0.152 -0.102,0.258 -0.027,0.107 -0.041,0.309 -0.041,0.608 l 0,1.464 -0.574,0 0,0.064 z"
           style="fill:#14aace;fill-opacity:1;fill-rule:nonzero;stroke:none"
           id="path464"
           inkscape:connector-curvature="0" /><path
           d="m 562.741,650.278 -2.321,0 c 0.017,-0.316 0.123,-0.567 0.318,-0.753 0.195,-0.187 0.446,-0.28 0.755,-0.28 0.43,0 0.827,0.134 1.191,0.402 l 0,-0.639 c -0.201,-0.134 -0.4,-0.229 -0.598,-0.287 -0.197,-0.057 -0.428,-0.086 -0.694,-0.086 -0.363,0 -0.657,0.076 -0.882,0.226 -0.225,0.151 -0.405,0.353 -0.54,0.608 -0.135,0.255 -0.202,0.549 -0.202,0.884 0,0.502 0.142,0.91 0.426,1.225 0.285,0.314 0.654,0.472 1.109,0.472 0.437,0 0.786,-0.153 1.047,-0.46 0.26,-0.305 0.391,-0.716 0.391,-1.23 l 0,-0.082 z m -2.306,0.391 1.66,0 c -0.016,0.26 -0.094,0.461 -0.233,0.602 -0.139,0.142 -0.325,0.212 -0.559,0.212 -0.235,0 -0.427,-0.07 -0.576,-0.212 -0.149,-0.141 -0.247,-0.342 -0.292,-0.602"
           style="fill:#14aace;fill-opacity:1;fill-rule:nonzero;stroke:none"
           id="path466"
           inkscape:connector-curvature="0" /><path
           d="m 566.0784,651.0812 0,-2.396 -0.656,0 0,1.837 c 0,0.365 -0.049,0.621 -0.147,0.765 -0.098,0.145 -0.269,0.217 -0.513,0.217 -0.136,0 -0.261,-0.031 -0.375,-0.093 -0.114,-0.062 -0.243,-0.172 -0.389,-0.33 l 0,-2.396 -0.653,0 0,3.3 0.653,0 0,-0.434 c 0.332,0.332 0.657,0.499 0.975,0.499 0.419,0 0.743,-0.199 0.972,-0.596 0.35,0.402 0.714,0.603 1.094,0.603 0.321,0 0.584,-0.117 0.791,-0.352 0.207,-0.234 0.31,-0.592 0.31,-1.072 l 0,-1.948 -0.653,0 0,1.955 c 0,0.275 -0.056,0.485 -0.168,0.631 -0.113,0.146 -0.274,0.219 -0.484,0.219 -0.27,0 -0.523,-0.136 -0.757,-0.409"
           style="fill:#14aace;fill-opacity:1;fill-rule:nonzero;stroke:none"
           id="path468"
           inkscape:connector-curvature="0" /><path
           d="m 571.7759,650.278 -2.321,0 c 0.017,-0.316 0.123,-0.567 0.318,-0.753 0.195,-0.187 0.446,-0.28 0.755,-0.28 0.43,0 0.827,0.134 1.19,0.402 l 0,-0.639 c -0.2,-0.134 -0.399,-0.229 -0.597,-0.287 -0.197,-0.057 -0.428,-0.086 -0.694,-0.086 -0.363,0 -0.657,0.076 -0.882,0.226 -0.225,0.151 -0.405,0.353 -0.54,0.608 -0.135,0.255 -0.202,0.549 -0.202,0.884 0,0.502 0.142,0.91 0.426,1.225 0.285,0.314 0.654,0.472 1.109,0.472 0.437,0 0.786,-0.153 1.047,-0.46 0.26,-0.305 0.391,-0.716 0.391,-1.23 l 0,-0.082 z m -2.306,0.391 1.66,0 c -0.016,0.26 -0.094,0.461 -0.233,0.602 -0.139,0.142 -0.325,0.212 -0.559,0.212 -0.235,0 -0.427,-0.07 -0.576,-0.212 -0.149,-0.141 -0.247,-0.342 -0.292,-0.602"
           style="fill:#14aace;fill-opacity:1;fill-rule:nonzero;stroke:none"
           id="path470"
           inkscape:connector-curvature="0" /><path
           d="m 573.0615,651.985 0,-0.419 c 0.292,0.322 0.623,0.484 0.994,0.484 0.205,0 0.396,-0.054 0.573,-0.16 0.177,-0.106 0.312,-0.252 0.404,-0.438 0.092,-0.185 0.138,-0.478 0.138,-0.88 l 0,-1.887 -0.653,0 0,1.88 c 0,0.337 -0.051,0.578 -0.154,0.722 -0.103,0.145 -0.275,0.217 -0.517,0.217 -0.308,0 -0.57,-0.154 -0.785,-0.462 l 0,-2.357 -0.667,0 0,3.3 0.667,0 z"
           style="fill:#14aace;fill-opacity:1;fill-rule:nonzero;stroke:none"
           id="path472"
           inkscape:connector-curvature="0" /><path
           d="m 575.5454,651.4613 1.226,1.205 0,-0.681 1.044,0 0,-0.588 -1.044,0 0,-1.615 c 0,-0.378 0.157,-0.566 0.47,-0.566 0.235,0 0.482,0.078 0.743,0.233 l 0,-0.61 c -0.251,-0.141 -0.525,-0.211 -0.822,-0.211 -0.298,0 -0.547,0.087 -0.746,0.261 -0.062,0.053 -0.113,0.112 -0.154,0.178 -0.04,0.066 -0.075,0.152 -0.102,0.258 -0.027,0.107 -0.041,0.309 -0.041,0.608 l 0,1.464 -0.574,0 0,0.064 z"
           style="fill:#14aace;fill-opacity:1;fill-rule:nonzero;stroke:none"
           id="path474"
           inkscape:connector-curvature="0" /></g><g
         id="g4924"><path
           d="m 525.9197,669.7092 0,-3.191 c 0,-0.256 0.087,-0.384 0.261,-0.384 0.18,0 0.46,0.134 0.841,0.4 l 0,-0.906 c -0.338,-0.217 -0.608,-0.366 -0.812,-0.444 -0.204,-0.079 -0.418,-0.119 -0.641,-0.119 -0.636,0 -1.012,0.25 -1.126,0.751 -0.631,-0.49 -1.303,-0.734 -2.016,-0.734 -0.522,0 -0.957,0.172 -1.306,0.518 -0.348,0.345 -0.522,0.779 -0.522,1.302 0,0.473 0.17,0.896 0.51,1.269 0.34,0.372 0.823,0.667 1.449,0.885 l 1.901,0.653 0,0.4 c 0,0.903 -0.452,1.354 -1.355,1.354 -0.81,0 -1.599,-0.419 -2.366,-1.256 l 0,1.624 c 0.576,0.68 1.406,1.02 2.489,1.02 0.811,0 1.461,-0.212 1.95,-0.637 0.164,-0.136 0.31,-0.317 0.441,-0.542 0.131,-0.226 0.214,-0.452 0.249,-0.678 0.035,-0.225 0.053,-0.654 0.053,-1.285 m -1.461,-3.028 0,2.228 -0.995,-0.383 c -0.506,-0.202 -0.864,-0.405 -1.074,-0.608 -0.209,-0.204 -0.314,-0.459 -0.314,-0.764 0,-0.31 0.099,-0.562 0.298,-0.758 0.199,-0.196 0.456,-0.294 0.771,-0.294 0.474,0 0.912,0.193 1.314,0.579"
           style="fill:#231f20;fill-opacity:1;fill-rule:nonzero;stroke:none"
           id="path476"
           inkscape:connector-curvature="0" /><path
           d="m 533.1176,665.1961 0,0.963 c -0.315,-0.345 -0.676,-0.614 -1.081,-0.806 -0.406,-0.191 -0.81,-0.288 -1.212,-0.288 -0.474,0 -0.91,0.119 -1.31,0.355 -0.4,0.237 -0.702,0.558 -0.906,0.963 -0.204,0.406 -0.306,1.079 -0.306,2.02 l 0,4.301 1.485,0 0,-4.279 c 0,-0.788 0.113,-1.338 0.339,-1.65 0.226,-0.313 0.622,-0.469 1.187,-0.469 0.708,0 1.309,0.345 1.804,1.036 l 0,5.362 1.485,0 0,-7.508 -1.485,0 z"
           style="fill:#231f20;fill-opacity:1;fill-rule:nonzero;stroke:none"
           id="path478"
           inkscape:connector-curvature="0" /><path
           d="m 535.6394,671.5128 2.791,2.742 0,-1.551 2.375,0 0,-1.338 -2.375,0 0,-3.675 c 0,-0.858 0.356,-1.287 1.069,-1.287 0.533,0 1.096,0.177 1.689,0.531 l 0,-1.388 c -0.571,-0.321 -1.194,-0.481 -1.868,-0.481 -0.681,0 -1.246,0.198 -1.698,0.595 -0.141,0.12 -0.258,0.255 -0.351,0.404 -0.092,0.15 -0.17,0.346 -0.232,0.588 -0.063,0.242 -0.094,0.703 -0.094,1.383 l 0,3.33 -1.306,0 0,0.147 z"
           style="fill:#231f20;fill-opacity:1;fill-rule:nonzero;stroke:none"
           id="path480"
           inkscape:connector-curvature="0" /><path
           d="m 548.656,668.8195 -5.28,0 c 0.038,-0.718 0.279,-1.289 0.722,-1.714 0.443,-0.424 1.016,-0.636 1.718,-0.636 0.979,0 1.882,0.304 2.709,0.914 l 0,-1.453 c -0.457,-0.305 -0.909,-0.522 -1.358,-0.653 -0.449,-0.13 -0.975,-0.196 -1.579,-0.196 -0.828,0 -1.497,0.172 -2.008,0.514 -0.512,0.343 -0.921,0.804 -1.228,1.384 -0.308,0.579 -0.461,1.25 -0.461,2.012 0,1.142 0.323,2.071 0.971,2.786 0.647,0.716 1.488,1.074 2.522,1.074 0.995,0 1.789,-0.349 2.383,-1.045 0.592,-0.696 0.889,-1.629 0.889,-2.799 l 0,-0.188 z m -5.248,0.89 3.779,0 c -0.038,0.593 -0.215,1.05 -0.53,1.371 -0.316,0.321 -0.74,0.481 -1.273,0.481 -0.534,0 -0.97,-0.16 -1.31,-0.481 -0.34,-0.321 -0.562,-0.778 -0.666,-1.371"
           style="fill:#231f20;fill-opacity:1;fill-rule:nonzero;stroke:none"
           id="path482"
           inkscape:connector-curvature="0" /><path
           d="m 537.6552,659.925 0,-3.191 c 0,-0.256 0.087,-0.384 0.261,-0.384 0.18,0 0.46,0.134 0.841,0.4 l 0,-0.905 c -0.338,-0.218 -0.608,-0.367 -0.812,-0.445 -0.204,-0.079 -0.418,-0.119 -0.641,-0.119 -0.636,0 -1.012,0.25 -1.126,0.751 -0.631,-0.49 -1.303,-0.734 -2.016,-0.734 -0.522,0 -0.957,0.172 -1.306,0.518 -0.348,0.345 -0.522,0.779 -0.522,1.302 0,0.473 0.17,0.896 0.51,1.269 0.34,0.372 0.823,0.668 1.449,0.885 l 1.901,0.653 0,0.4 c 0,0.903 -0.451,1.355 -1.355,1.355 -0.81,0 -1.599,-0.419 -2.366,-1.257 l 0,1.624 c 0.576,0.68 1.406,1.02 2.489,1.02 0.811,0 1.461,-0.212 1.95,-0.637 0.164,-0.136 0.311,-0.317 0.441,-0.542 0.131,-0.226 0.214,-0.452 0.249,-0.678 0.035,-0.225 0.053,-0.654 0.053,-1.285 m -1.461,-3.028 0,2.228 -0.995,-0.383 c -0.506,-0.202 -0.864,-0.404 -1.074,-0.608 -0.209,-0.204 -0.314,-0.459 -0.314,-0.764 0,-0.31 0.099,-0.562 0.298,-0.758 0.199,-0.196 0.456,-0.294 0.771,-0.294 0.474,0 0.912,0.193 1.314,0.579"
           style="fill:#231f20;fill-opacity:1;fill-rule:nonzero;stroke:none"
           id="path484"
           inkscape:connector-curvature="0" /><path
           d="m 541.6624,662.9202 0,-1.722 0.082,0.13 c 0.718,1.159 1.436,1.739 2.154,1.739 0.561,0 1.145,-0.283 1.755,-0.849 l -0.784,-1.306 c -0.517,0.49 -0.995,0.735 -1.436,0.735 -0.479,0 -0.894,-0.229 -1.245,-0.686 -0.35,-0.457 -0.526,-0.998 -0.526,-1.624 l 0,-3.925 -1.493,0 0,7.508 1.493,0 z"
           style="fill:#231f20;fill-opacity:1;fill-rule:nonzero;stroke:none"
           id="path486"
           inkscape:connector-curvature="0" /><path
           d="m 548.1747,662.9202 0,-0.955 c 0.664,0.735 1.417,1.102 2.261,1.102 0.467,0 0.903,-0.121 1.305,-0.363 0.403,-0.242 0.709,-0.575 0.919,-0.996 0.209,-0.422 0.314,-1.09 0.314,-2.003 l 0,-4.293 -1.486,0 0,4.276 c 0,0.767 -0.117,1.315 -0.35,1.644 -0.235,0.33 -0.626,0.494 -1.176,0.494 -0.702,0 -1.297,-0.35 -1.787,-1.052 l 0,-5.362 -1.518,0 0,7.508 1.518,0 z"
           style="fill:#231f20;fill-opacity:1;fill-rule:nonzero;stroke:none"
           id="path488"
           inkscape:connector-curvature="0" /><path
           d="m 561.4446,659.0354 -5.28,0 c 0.038,-0.718 0.279,-1.29 0.722,-1.714 0.443,-0.424 1.016,-0.636 1.718,-0.636 0.979,0 1.882,0.304 2.709,0.914 l 0,-1.453 c -0.457,-0.305 -0.909,-0.522 -1.358,-0.653 -0.449,-0.13 -0.975,-0.196 -1.579,-0.196 -0.828,0 -1.497,0.172 -2.008,0.514 -0.512,0.343 -0.921,0.804 -1.228,1.384 -0.308,0.579 -0.461,1.25 -0.461,2.012 0,1.142 0.323,2.071 0.971,2.786 0.647,0.716 1.488,1.074 2.522,1.074 0.995,0 1.789,-0.349 2.383,-1.045 0.592,-0.696 0.889,-1.629 0.889,-2.799 l 0,-0.188 z m -5.248,0.89 3.779,0 c -0.038,0.593 -0.215,1.05 -0.53,1.371 -0.316,0.321 -0.74,0.481 -1.273,0.481 -0.534,0 -0.97,-0.16 -1.31,-0.481 -0.34,-0.321 -0.562,-0.778 -0.666,-1.371"
           style="fill:#231f20;fill-opacity:1;fill-rule:nonzero;stroke:none"
           id="path490"
           inkscape:connector-curvature="0" /><path
           d="m 527.9941,662.9525 1.908,0 0,-14.252 -2.05,0 0,11.089 -4.384,-5.508 -0.376,0 -4.433,5.508 0,-11.089 -2.059,0 0,14.252 1.951,0 4.734,-5.854 4.709,5.854 z"
           style="fill:#14aace;fill-opacity:1;fill-rule:nonzero;stroke:none"
           id="path492"
           inkscape:connector-curvature="0" /><path
           d="m 516.6003,675.8489 2.04,0 0,-14.251 -2.04,0 0,6.202 -8.008,0 0,-6.202 -2.041,0 0,14.251 2.041,0 0,-6.162 8.008,0 0,6.162 z"
           style="fill:#14aace;fill-opacity:1;fill-rule:nonzero;stroke:none"
           id="path494"
           inkscape:connector-curvature="0" /></g></g></g></svg>