<?xml version="1.0" encoding="UTF-8" standalone="no"?>
<!-- Created with Inkscape (http://www.inkscape.org/) -->

<svg
   xmlns:dc="http://purl.org/dc/elements/1.1/"
   xmlns:cc="http://creativecommons.org/ns#"
   xmlns:rdf="http://www.w3.org/1999/02/22-rdf-syntax-ns#"
   xmlns:svg="http://www.w3.org/2000/svg"
   xmlns="http://www.w3.org/2000/svg"
   xmlns:sodipodi="http://sodipodi.sourceforge.net/DTD/sodipodi-0.dtd"
   xmlns:inkscape="http://www.inkscape.org/namespaces/inkscape"
   id="svg2"
   version="1.1"
   inkscape:version="0.91 r13725"
   xml:space="preserve"
   width="700"
   height="220.5"
   viewBox="0 0 700 220.49999"
   sodipodi:docname="Logo Département Ardèche.svg"><metadata
     id="metadata8"><rdf:RDF><cc:Work
         rdf:about=""><dc:format>image/svg+xml</dc:format><dc:type
           rdf:resource="http://purl.org/dc/dcmitype/StillImage" /><dc:title></dc:title></cc:Work></rdf:RDF></metadata><defs
     id="defs6" /><sodipodi:namedview
     pagecolor="#ffffff"
     bordercolor="#666666"
     borderopacity="1"
     objecttolerance="10"
     gridtolerance="10"
     guidetolerance="10"
     inkscape:pageopacity="0"
     inkscape:pageshadow="2"
     inkscape:window-width="1440"
     inkscape:window-height="790"
     id="namedview4"
     showgrid="false"
     inkscape:zoom="1.7940585"
     inkscape:cx="138.24705"
     inkscape:cy="778.42965"
     inkscape:window-x="0"
     inkscape:window-y="1"
     inkscape:window-maximized="1"
     inkscape:current-layer="g10" /><g
     id="g10"
     inkscape:groupmode="layer"
     inkscape:label="charte_2018_web"
     transform="matrix(1.25,0,0,-1.25,0,220.49995)"><g
       id="g4468"
       transform="matrix(4.6545493,0,0,4.6545493,566.908,-3564.2405)"><g
         id="g4453"><path
           inkscape:connector-curvature="0"
           id="path78"
           style="fill:#2f95d9;fill-opacity:1;fill-rule:nonzero;stroke:none"
           d="m -86.34074,768.84466 -4.369,0 0,6.237 c 0,0.24 0.182,0.422 0.422,0.422 l 0.197,0 c 0.224,0 0.42,-0.182 0.42,-0.422 l 0,-5.296 3.33,0 c 0.239,0 0.421,-0.155 0.421,-0.393 l 0,-0.155 c 0,-0.239 -0.182,-0.393 -0.421,-0.393" /><path
           inkscape:connector-curvature="0"
           id="path82"
           style="fill:#2f95d9;fill-opacity:1;fill-rule:nonzero;stroke:none"
           d="m -80.23034,768.84466 -4.327,0 c -0.225,0 -0.393,0.168 -0.393,0.393 l 0,5.872 c 0,0.239 0.182,0.394 0.408,0.394 l 4.116,0 c 0.238,0 0.421,-0.155 0.421,-0.394 l 0,-0.154 c 0,-0.239 -0.183,-0.394 -0.421,-0.394 l -3.485,0 0,-1.938 3.203,0 c 0.239,0 0.422,-0.155 0.422,-0.394 l 0,-0.154 c 0,-0.239 -0.183,-0.394 -0.422,-0.394 l -3.203,0 0,-1.896 3.681,0 c 0.239,0 0.422,-0.155 0.422,-0.393 l 0,-0.155 c 0,-0.239 -0.183,-0.393 -0.422,-0.393" /><path
           inkscape:connector-curvature="0"
           id="path86"
           style="fill:#2f95d9;fill-opacity:1;fill-rule:nonzero;stroke:none"
           d="m -71.16984,768.84466 -4.004,0 0,6.308 c 0,0.224 0.169,0.351 0.379,0.351 l 0.197,0 c 0.112,0 0.211,-0.099 0.239,-0.155 l 0.168,-0.295 c 0.057,-0.084 0.127,-0.154 0.211,-0.154 0.646,0 0.955,0.646 2.318,0.646 l 0.323,0 c 1.11,0 1.728,-0.633 1.728,-1.588 l 0,-3.568 c 0,-0.857 -0.674,-1.545 -1.559,-1.545 m 0.52,4.944 c 0,0.436 -0.338,0.773 -0.759,0.773 l -1.939,0 c -0.435,0 -0.786,-0.337 -0.786,-0.773 l 0,-4.003 2.641,0 c 0.435,0 0.843,0.379 0.843,0.801 l 0,3.202 z" /><path
           inkscape:connector-curvature="0"
           id="path90"
           style="fill:#2f95d9;fill-opacity:1;fill-rule:nonzero;stroke:none"
           d="m -63.03694,768.84466 -4.327,0 c -0.225,0 -0.393,0.168 -0.393,0.393 l 0,5.872 c 0,0.239 0.182,0.394 0.407,0.394 l 4.116,0 c 0.239,0 0.422,-0.155 0.422,-0.394 l 0,-0.154 c 0,-0.239 -0.183,-0.394 -0.422,-0.394 l -3.484,0 0,-1.938 3.203,0 c 0.239,0 0.421,-0.155 0.421,-0.394 l 0,-0.154 c 0,-0.239 -0.182,-0.394 -0.421,-0.394 l -3.203,0 0,-1.896 3.681,0 c 0.239,0 0.421,-0.155 0.421,-0.393 l 0,-0.155 c 0,-0.239 -0.182,-0.393 -0.421,-0.393" /><path
           inkscape:connector-curvature="0"
           id="path94"
           style="fill:#2f95d9;fill-opacity:1;fill-rule:nonzero;stroke:none"
           d="m -57.64294,768.80216 -0.211,0 c -1.067,0 -1.714,0.618 -2.178,0.618 -0.111,0 -0.196,-0.141 -0.196,-0.267 l 0,-2.978 c 0,-0.239 -0.197,-0.421 -0.422,-0.421 l -0.197,0 c -0.238,0 -0.421,0.182 -0.421,0.421 l 0,8.977 c 0,0.182 0.127,0.351 0.31,0.351 l 0.224,0 c 0.155,0 0.281,-0.126 0.309,-0.182 l 0.154,-0.295 c 0.043,-0.071 0.128,-0.127 0.239,-0.127 0.464,0 1.111,0.647 2.178,0.647 l 0.211,0 c 1.096,0 1.812,-0.633 1.812,-1.659 l 0,-3.427 c 0,-1.04 -0.716,-1.658 -1.812,-1.658 m 0.772,4.917 c 0,0.477 -0.379,0.843 -0.843,0.843 l -1.672,0 c -0.463,0 -0.842,-0.366 -0.842,-0.843 l 0,-3.091 c 0,-0.463 0.379,-0.842 0.842,-0.842 l 1.672,0 c 0.464,0 0.843,0.379 0.843,0.842 l 0,3.091 z" /><path
           inkscape:connector-curvature="0"
           id="path98"
           style="fill:#2f95d9;fill-opacity:1;fill-rule:nonzero;stroke:none"
           d="m -48.34364,768.91496 -0.197,-0.085 c -0.056,-0.028 -0.126,-0.028 -0.182,-0.028 -0.155,0 -0.253,0.098 -0.324,0.253 l -0.744,1.784 -3.063,0 -0.744,-1.784 c -0.071,-0.155 -0.169,-0.253 -0.324,-0.253 -0.056,0 -0.126,0 -0.182,0.028 l -0.197,0.085 c -0.169,0.07 -0.253,0.182 -0.253,0.323 0,0.07 0.028,0.14 0.057,0.21 l 2.332,5.606 c 0.126,0.309 0.351,0.449 0.59,0.449 l 0.506,0 c 0.238,0 0.463,-0.14 0.589,-0.449 l 2.333,-5.606 c 0.028,-0.07 0.055,-0.14 0.055,-0.21 0,-0.141 -0.084,-0.253 -0.252,-0.323 m -2.979,5.619 -1.137,-2.753 2.275,0 -1.138,2.753 z" /><path
           inkscape:connector-curvature="0"
           id="path102"
           style="fill:#2f95d9;fill-opacity:1;fill-rule:nonzero;stroke:none"
           d="m -41.74204,768.91496 -0.154,-0.07 c -0.239,-0.113 -0.45,0 -0.549,0.182 l -1.32,2.655 -2.009,0 0,-2.416 c 0,-0.239 -0.197,-0.421 -0.421,-0.421 l -0.197,0 c -0.239,0 -0.422,0.182 -0.422,0.421 l 0,5.886 c 0,0.211 0.155,0.351 0.38,0.351 l 0.183,0 c 0.126,0 0.224,-0.098 0.266,-0.169 l 0.155,-0.28 c 0.042,-0.084 0.112,-0.155 0.21,-0.155 0.534,0 1.026,0.647 1.954,0.647 l 0.168,0 c 1.18,0 1.7,-0.717 1.7,-1.574 l 0,-0.66 c 0,-0.745 -0.323,-1.167 -0.956,-1.475 l 1.167,-2.346 c 0.028,-0.056 0.055,-0.141 0.055,-0.211 0,-0.14 -0.07,-0.295 -0.21,-0.365 m -1.096,4.874 c 0,0.436 -0.337,0.773 -0.758,0.773 l -1.391,0 c -0.436,0 -0.787,-0.337 -0.787,-0.773 l 0,-1.165 2.093,0 c 0.436,0 0.843,0.379 0.843,0.8 l 0,0.365 z" /><path
           inkscape:connector-curvature="0"
           id="path106"
           style="fill:#2f95d9;fill-opacity:1;fill-rule:nonzero;stroke:none"
           d="m -35.82894,774.56186 -1.854,0 0,-5.296 c 0,-0.239 -0.197,-0.421 -0.421,-0.421 l -0.197,0 c -0.239,0 -0.422,0.182 -0.422,0.421 l 0,5.296 -1.84,0 c -0.239,0 -0.435,0.155 -0.435,0.393 l 0,0.155 c 0,0.239 0.196,0.393 0.421,0.393 l 4.735,0 c 0.238,0 0.435,-0.154 0.435,-0.393 l 0,-0.155 c 0,-0.238 -0.197,-0.393 -0.422,-0.393" /><path
           inkscape:connector-curvature="0"
           id="path110"
           style="fill:#2f95d9;fill-opacity:1;fill-rule:nonzero;stroke:none"
           d="m -29.54924,768.84466 -4.327,0 c -0.225,0 -0.393,0.168 -0.393,0.393 l 0,5.872 c 0,0.239 0.182,0.394 0.407,0.394 l 4.116,0 c 0.24,0 0.422,-0.155 0.422,-0.394 l 0,-0.154 c 0,-0.239 -0.182,-0.394 -0.422,-0.394 l -3.484,0 0,-1.938 3.204,0 c 0.238,0 0.421,-0.155 0.421,-0.394 l 0,-0.154 c 0,-0.239 -0.183,-0.394 -0.421,-0.394 l -3.204,0 0,-1.896 3.681,0 c 0.239,0 0.421,-0.155 0.421,-0.393 l 0,-0.155 c 0,-0.239 -0.182,-0.393 -0.421,-0.393" /><path
           inkscape:connector-curvature="0"
           id="path114"
           style="fill:#2f95d9;fill-opacity:1;fill-rule:nonzero;stroke:none"
           d="m -22.27334,768.84466 -0.197,0 c -0.224,0 -0.421,0.183 -0.421,0.421 l 0,4.439 -1.405,-1.967 c -0.126,-0.168 -0.239,-0.308 -0.45,-0.308 l -0.14,0 c -0.21,0 -0.323,0.14 -0.45,0.308 l -1.404,1.967 0,-4.439 c 0,-0.238 -0.197,-0.421 -0.422,-0.421 l -0.196,0 c -0.239,0 -0.422,0.183 -0.422,0.421 l 0,5.844 c 0,0.225 0.154,0.394 0.393,0.394 l 0.254,0 c 0.182,0 0.336,-0.169 0.435,-0.309 l 1.882,-2.655 1.897,2.655 c 0.098,0.14 0.239,0.309 0.421,0.309 l 0.253,0 c 0.239,0 0.394,-0.169 0.394,-0.394 l 0,-5.844 c 0,-0.238 -0.183,-0.421 -0.422,-0.421" /><path
           inkscape:connector-curvature="0"
           id="path118"
           style="fill:#2f95d9;fill-opacity:1;fill-rule:nonzero;stroke:none"
           d="m -15.27774,768.84466 -4.327,0 c -0.225,0 -0.394,0.168 -0.394,0.393 l 0,5.872 c 0,0.239 0.183,0.394 0.408,0.394 l 4.116,0 c 0.239,0 0.422,-0.155 0.422,-0.394 l 0,-0.154 c 0,-0.239 -0.183,-0.394 -0.422,-0.394 l -3.484,0 0,-1.938 3.203,0 c 0.239,0 0.421,-0.155 0.421,-0.394 l 0,-0.154 c 0,-0.239 -0.182,-0.394 -0.421,-0.394 l -3.203,0 0,-1.896 3.681,0 c 0.238,0 0.421,-0.155 0.421,-0.393 l 0,-0.155 c 0,-0.239 -0.183,-0.393 -0.421,-0.393" /><path
           inkscape:connector-curvature="0"
           id="path122"
           style="fill:#2f95d9;fill-opacity:1;fill-rule:nonzero;stroke:none"
           d="m -8.63364,768.84466 -0.197,0 c -0.239,0 -0.422,0.183 -0.422,0.421 l 0,1.236 -3.217,3.414 0,-4.65 c 0,-0.238 -0.196,-0.421 -0.421,-0.421 l -0.196,0 c -0.239,0 -0.422,0.183 -0.422,0.421 l 0,5.844 c 0,0.225 0.155,0.394 0.393,0.394 l 0.197,0 c 0.183,0 0.309,-0.085 0.422,-0.211 l 3.244,-3.442 0,3.231 c 0,0.24 0.183,0.422 0.422,0.422 l 0.197,0 c 0.225,0 0.421,-0.182 0.421,-0.422 l 0,-5.816 c 0,-0.238 -0.196,-0.421 -0.421,-0.421" /><path
           inkscape:connector-curvature="0"
           id="path126"
           style="fill:#2f95d9;fill-opacity:1;fill-rule:nonzero;stroke:none"
           d="m -1.90614,774.56186 -1.854,0 0,-5.296 c 0,-0.239 -0.197,-0.421 -0.421,-0.421 l -0.197,0 c -0.239,0 -0.421,0.182 -0.421,0.421 l 0,5.296 -1.841,0 c -0.239,0 -0.435,0.155 -0.435,0.393 l 0,0.155 c 0,0.239 0.196,0.393 0.421,0.393 l 4.735,0 c 0.238,0 0.435,-0.154 0.435,-0.393 l 0,-0.155 c 0,-0.238 -0.197,-0.393 -0.422,-0.393" /></g><g
         id="g4441"><path
           inkscape:connector-curvature="0"
           id="path130"
           style="fill:#fab20b;fill-opacity:1;fill-rule:nonzero;stroke:none"
           d="m -69.17714,803.63126 c 1.745,0 3.274,-1.145 3.779,-2.794 -0.265,0 -6.046,10e-4 -6.186,10e-4 l 0,2.793 2.407,0 z" /><path
           inkscape:connector-curvature="0"
           id="path134"
           style="fill:#20337f;fill-opacity:1;fill-rule:nonzero;stroke:none"
           d="m -53.96324,779.26116 -4.042,0 c -1.923,0 -3.483,1.56 -3.483,3.484 l 0,5.868 c 0,1.924 1.56,3.484 3.483,3.484 l 7.517,0 0,-3.707 c 0,-0.473 -0.474,-0.892 -1.031,-0.892 l -1.839,0 0,2.035 -4.005,0 c -0.698,0 -1.255,-0.557 -1.255,-1.254 l 0,-5.2 c 0,-0.696 0.557,-1.254 1.255,-1.254 l 2.703,0 c 0.835,0 1.282,0.641 1.282,1.254 l 0,0.78 2.87,0 0,-1.114 c 0,-1.868 -1.533,-3.484 -3.455,-3.484" /><path
           inkscape:connector-curvature="0"
           id="path138"
           style="fill:#20337f;fill-opacity:1;fill-rule:nonzero;stroke:none"
           d="m -82.47054,779.26116 -0.669,0.975 c -0.139,0.223 -0.334,0.251 -0.502,0.251 -0.668,0 -2.117,-1.31 -4.013,-1.31 l -0.418,0 c -2.731,0 -3.985,1.589 -3.985,3.735 l 0,5.534 c 0,2.146 1.254,3.735 3.985,3.735 l 0.418,0 c 1.896,0 3.345,-1.366 4.013,-1.366 0.168,0 0.252,0.111 0.252,0.335 l 0,3.512 -2.286,0 0,2.565 3.902,0 c 0.724,0 1.254,-0.419 1.254,-1.199 l 0,-6.854 0,-7.349 2.285,0 0,-2.564 -4.236,0 z m -0.919,9.018 c 0,0.697 -0.558,1.254 -1.254,1.254 l -3.289,0 c -0.697,0 -1.254,-0.557 -1.254,-1.254 l 0,-5.2 c 0,-0.696 0.557,-1.254 1.254,-1.254 l 3.289,0 c 0.696,0 1.254,0.558 1.254,1.254 l 0,5.2 z" /><path
           inkscape:connector-curvature="0"
           id="path142"
           style="fill:#20337f;fill-opacity:1;fill-rule:nonzero;stroke:none"
           d="m -100.03844,789.53306 c -0.696,0 -1.254,-0.557 -1.254,-1.254 l 0,-6.454 2.285,0 0,-2.564 -7.441,0 0,2.564 2.286,0 0,7.708 -2.286,0 0,2.564 4.236,0 0.725,-1.031 c 0.139,-0.196 0.251,-0.251 0.418,-0.251 0.251,0 0.53,0.167 0.753,0.28 l 1.142,0.556 c 0.474,0.223 1.254,0.446 1.728,0.446 l 2.062,0 c 0.614,0 1.004,-0.474 1.004,-0.975 l 0,-1.589 -5.658,0 z" /><path
           inkscape:connector-curvature="0"
           id="path146"
           style="fill:#20337f;fill-opacity:1;fill-rule:nonzero;stroke:none"
           d="m -38.04524,779.26116 0,2.564 1.533,0 0,6.454 c 0,0.697 -0.558,1.254 -1.254,1.254 l -3.289,0 c -0.697,0 -1.255,-0.557 -1.255,-1.254 l 0,-6.454 1.533,0 0,-2.564 -6.688,0 0,2.564 2.285,0 0,7.349 0,5.488 -2.285,0 0,2.565 3.957,0 c 0.725,0 1.198,-0.53 1.198,-1.143 l 0,-4.934 c 0,-0.224 0.085,-0.335 0.252,-0.335 0.668,0 2.118,1.366 4.013,1.366 l 0.418,0 c 2.731,0 3.985,-1.589 3.985,-3.735 l 0,-6.621 2.285,0 0,-2.564 -6.688,0 z" /><path
           inkscape:connector-curvature="0"
           id="path150"
           style="fill:#20337f;fill-opacity:1;fill-rule:nonzero;stroke:none"
           d="m -71.65074,790.32956 6.24,0 0,-3.366 -5.543,0 c 0,0 -4.958,-10e-4 -5.227,-10e-4 0.595,1.988 2.434,3.367 4.53,3.367" /><path
           inkscape:connector-curvature="0"
           id="path154"
           style="fill:#20337f;fill-opacity:1;fill-rule:nonzero;stroke:none"
           d="m -70.86124,797.23466 5.457,0 0,-3.366 -4.76,0 c 0,0 -4.958,-10e-4 -5.227,-10e-4 0.596,1.987 2.434,3.367 4.53,3.367" /><path
           inkscape:connector-curvature="0"
           id="path158"
           style="fill:#20337f;fill-opacity:1;fill-rule:nonzero;stroke:none"
           d="m -70.70254,782.62876 c -0.978,0 -1.689,0.711 -1.689,1.689 l 0,0.087 -3.792,0 0,-0.397 c 0,-2.617 2.129,-4.744 4.745,-4.744 l 6.034,0 0,3.365 -5.298,0 z" /><path
           inkscape:connector-curvature="0"
           id="path162"
           style="fill:#20337f;fill-opacity:1;fill-rule:nonzero;stroke:none"
           d="m -113.74154,792.08386 -5.017,0 c -0.613,0 -1.114,-0.39 -1.114,-1.003 l 0,-1.525 5.601,0 c 0.304,0 0.574,-0.126 0.777,-0.315 0.106,-0.094 0.193,-0.21 0.255,-0.344 0.059,-0.12 0.095,-0.246 0.102,-0.371 0.002,-0.02 0.004,-0.038 0.004,-0.057 0.002,-0.03 0.005,-0.06 0.005,-0.091 l 0,-1.796 -0.005,0 0,-0.02 c 0,-0.224 -0.135,-0.335 -0.302,-0.335 -0.542,0 -1.594,0.615 -2.98,0.713 l -3.652,0 c -0.949,0 -1.729,-0.78 -1.729,-1.728 l 0,-2.48 c 0,-1.662 1.166,-3.05 2.723,-3.398 0.273,-0.045 0.568,-0.074 0.884,-0.086 l 2.662,0 c 0.949,0.008 1.673,0.02 2.092,0.02 0.017,0 0.035,0 0.053,-0.001 1.755,0.177 3.124,1.637 3.124,3.465 l 0,5.869 c 0,1.95 -1.56,3.483 -3.483,3.483 m 0.613,-9.157 c 0,-0.614 -0.502,-1.115 -1.115,-1.115 l -3.567,0 c -0.613,0 -1.115,0.501 -1.115,1.115 l 0,1.699 5.797,0 0,-1.699 z" /><path
           inkscape:connector-curvature="0"
           id="path166"
           style="fill:#20337f;fill-opacity:1;fill-rule:nonzero;stroke:none"
           d="m -25.33634,779.24736 5.017,0 c 0.613,0 1.114,0.391 1.114,1.004 l 0,1.524 -5.6,0 c -0.305,0 -0.575,0.127 -0.777,0.315 -0.106,0.095 -0.194,0.21 -0.256,0.345 -0.059,0.119 -0.094,0.246 -0.103,0.372 0,0.018 -0.002,0.037 -0.002,0.055 -0.002,0.031 -0.005,0.061 -0.005,0.093 l 0,1.796 0.005,0 0,0.019 c 0,0.223 0.135,0.334 0.302,0.334 0.541,0 1.593,-0.615 2.979,-0.712 l 3.653,0 c 0.947,0 1.728,0.78 1.728,1.728 l 0,2.48 c 0,1.661 -1.166,3.049 -2.722,3.398 -0.274,0.045 -0.568,0.074 -0.884,0.085 l -2.662,0 c -0.949,-0.008 -1.673,-0.02 -2.092,-0.02 -0.018,0 -0.036,10e-4 -0.054,0.002 -1.755,-0.177 -3.124,-1.638 -3.124,-3.465 l 0,-5.869 c 0,-1.951 1.56,-3.484 3.483,-3.484 m -0.612,9.158 c 0,0.613 0.502,1.115 1.115,1.115 l 3.567,0 c 0.613,0 1.115,-0.502 1.115,-1.115 l 0,-1.7 -5.797,0 0,1.7 z" /></g></g></g></svg>