<?xml version="1.0" encoding="utf-8"?>
<!-- Generator: Adobe Illustrator 15.1.0, SVG Export Plug-In . SVG Version: 6.00 Build 0)  -->
<!DOCTYPE svg PUBLIC "-//W3C//DTD SVG 1.1//EN" "http://www.w3.org/Graphics/SVG/1.1/DTD/svg11.dtd">
<svg version="1.1" id="Calque_1" xmlns="http://www.w3.org/2000/svg" xmlns:xlink="http://www.w3.org/1999/xlink" x="0px" y="0px"
	 width="300px" height="150px" viewBox="0 0 300 150" enable-background="new 0 0 300 150" xml:space="preserve">
<g>
	<path fill="#7AB41D" d="M11.451,123.261v-18.724h4.318v15.2h6.45v3.523H11.451z"/>
	<path fill="#7AB41D" d="M28.443,123.261v-18.724h11.251l-1.051,3.495H32.79v3.921h5.882v3.522H32.79v4.29h6.848v3.495H28.443z"/>
	<path fill="#7AB41D" d="M63.934,123.261h-6.308v-18.724h6.762c6.563,0,10.484,3.523,10.484,9.206
		C74.872,119.652,70.27,123.261,63.934,123.261z M63.962,108.089h-1.988v11.648h2.073c4.348,0,6.138-2.784,6.138-5.853
		C70.185,110.248,67.996,108.089,63.962,108.089z"/>
	<path fill="#7AB41D" d="M81.779,123.261v-18.724H93.03l-1.051,3.495h-5.854v3.921h5.882v3.522h-5.882v4.29h6.848v3.495H81.779z
		 M88.172,103.486h-3.268l2.33-4.177h4.574L88.172,103.486z"/>
	<path fill="#7AB41D" d="M105.714,116.925h-0.482v6.336h-4.348v-18.724h5.427c4.177,0,7.018,2.074,7.018,6.137
		C113.329,112.919,111.539,116.925,105.714,116.925z M105.857,108.089h-0.625v5.597h0.625c2.159,0,3.182-1.022,3.182-2.812
		C109.039,109.367,107.988,108.089,105.857,108.089z"/>
	<path fill="#7AB41D" d="M131.42,123.261l-1.79-4.461h-6.08l-1.705,4.461h-4.262l7.358-18.809h3.41l7.756,18.809H131.42z
		 M127.3,112.379c-0.312-0.909-0.568-1.705-0.682-2.301h-0.028c-0.113,0.625-0.369,1.42-0.682,2.244l-1.137,3.012h3.552
		L127.3,112.379z"/>
	<path fill="#7AB41D" d="M152.305,123.261c-2.812-4.887-3.807-6.762-4.432-7.018h-1.308v7.018h-4.347v-18.724h5.853
		c5.143,0,6.961,2.529,6.961,5.455c0,2.387-1.676,4.035-3.324,4.802v0.028c1.023,0.597,2.757,3.665,5.513,8.438H152.305z
		 M148.186,108.089h-1.62v5.058h1.592c1.506,0,2.613-1.137,2.613-2.671C150.771,109.111,149.748,108.089,148.186,108.089z"/>
	<path fill="#7AB41D" d="M176.913,108.032h-4.943v15.229h-4.404v-15.229h-5.483v-3.495h15.74L176.913,108.032z"/>
	<path fill="#7AB41D" d="M183.876,123.261v-18.724h11.251l-1.051,3.495h-5.853v3.921h5.881v3.522h-5.881v4.29h6.847v3.495H183.876z"
		/>
	<path fill="#7AB41D" d="M217.349,123.261v-9.546c0-0.683,0-1.449,0.028-2.018h-0.028c-0.171,0.397-0.938,1.506-1.25,1.988
		l-3.069,4.604h-1.903l-3.494-4.773c-0.398-0.54-0.853-1.108-1.25-1.818h-0.058c0.028,0.625,0.028,1.363,0.028,1.875v9.688h-4.318
		v-18.724h3.921l4.688,6.535c0.567,0.795,1.022,1.478,1.448,2.216h0.058c0.341-0.682,0.795-1.478,1.363-2.358l4.205-6.393h3.949
		v18.724H217.349z"/>
	<path fill="#7AB41D" d="M229.284,123.261v-18.724h11.251l-1.051,3.495h-5.853v3.921h5.881v3.522h-5.881v4.29h6.847v3.495H229.284z"
		/>
	<path fill="#7AB41D" d="M261.279,123.261l-7.785-9.859c-0.597-0.767-1.137-1.505-1.762-2.329h-0.057
		c0.085,0.625,0.085,1.875,0.085,2.671v9.518h-4.318v-18.724h4.348l7.528,9.461c0.597,0.768,1.137,1.478,1.677,2.273h0.057
		c-0.057-0.966-0.057-2.33-0.057-3.068v-8.666h4.318v18.724H261.279z"/>
	<path fill="#7AB41D" d="M286.483,108.032h-4.943v15.229h-4.404v-15.229h-5.483v-3.495h15.74L286.483,108.032z"/>
</g>
<path fill="#172982" d="M35.351,82.223c-10.459,2.857-15.344,4.429-18.293,3.919c-5.891-1.011-5.605-4.592-5.605-9.811V18.673h18.1
	v44.06c0,4.417,1.049,7.245,4.824,7.196c3.062-0.038,16.025-3.638,20.084-4.938l4.516,9.495
	C58.976,74.486,44.753,79.651,35.351,82.223z"/>
<path fill="#172982" d="M175.726,85.335h18.098V46.838c1.278-5.363,6.129-9.065,13.726-9.065c2.261,0,5.428,0.377,8.45,1.893
	l12.537-12.625c-1.7-1.026-6.129-1.85-10.051-2.321c-16.834,2.283-30.481,6.432-42.76,11.516V85.335z"/>
<polygon fill="#172982" points="143.907,49.675 143.907,85.335 162.003,85.335 162.003,41.068 "/>
<polygon fill="#172982" points="162.003,22.173 143.907,22.173 143.907,41.177 162.003,32.764 "/>
<path fill="#172982" d="M123.251,78.017c-6.328,5.425-15.076,8.581-25.786,8.581c-9.95,0-18.395-2.648-24.583-7.444
	C65.801,73.6,61.876,65.403,61.876,55.81c0-9.332,3.769-17.404,10.412-23.084c6.332-5.294,14.92-8.445,25.336-8.445
	c11.004,0,19.9,3.151,26.234,8.576c6.182,5.549,9.502,13.37,9.502,22.455C133.36,64.391,129.89,72.468,123.251,78.017z
	 M97.319,36.261c-11.461,0-17.041,8.072-17.041,19.174c0,11.614,6.484,19.425,17.49,19.425c11.311,0,17.041-8.195,17.041-19.425
	C114.81,43.953,108.473,36.261,97.319,36.261z"/>
<path fill="#172982" d="M286.544,44.701c-0.455-1.419-0.844-2.562-1.35-3.46c-4.979-10.492-15.302-16.961-29.266-16.961
	c-20.354,0-32.416,14.125-32.416,31.154c0,16.02,10.551,31.163,35.436,31.163c8.441,0,17.948-1.896,25.935-6.567l-4.37-9.707
	c-6.176,2.777-11.763,4.163-18.547,4.163c-7.055,0-13.139-2.651-16.702-6.874c-1.256-1.441-2.396-3.287-3.196-5.674
	c-2.011-6.02-1.599-11.445-0.706-14.906c1.174-5.488,6.35-11.404,14.119-11.404c5.755,0,9.566,2.62,11.688,6.16l0.069,0.185
	c0,0,1.528,2.918-2.576,4.439c-4.11,1.53-14.189,3.573-14.189,3.573l-0.974,7.939l35.674-6.799c0,0,0.986-0.188,1.415-0.984
	c0.296-0.547,0.567-1.391,0.508-2.658C287.058,46.716,286.896,45.798,286.544,44.701z"/>
</svg>
