<?xml version="1.0" encoding="UTF-8" standalone="no"?>
<!-- Created with Inkscape (http://www.inkscape.org/) -->

<svg
   xmlns:dc="http://purl.org/dc/elements/1.1/"
   xmlns:cc="http://creativecommons.org/ns#"
   xmlns:rdf="http://www.w3.org/1999/02/22-rdf-syntax-ns#"
   xmlns:svg="http://www.w3.org/2000/svg"
   xmlns="http://www.w3.org/2000/svg"
   xmlns:sodipodi="http://sodipodi.sourceforge.net/DTD/sodipodi-0.dtd"
   xmlns:inkscape="http://www.inkscape.org/namespaces/inkscape"
   id="svg2"
   version="1.1"
   inkscape:version="0.91 r13725"
   xml:space="preserve"
   width="700"
   height="480"
   viewBox="0 0 700 479.99998"
   sodipodi:docname="Logo Deux Sèvres.svg"><metadata
     id="metadata8"><rdf:RDF><cc:Work
         rdf:about=""><dc:format>image/svg+xml</dc:format><dc:type
           rdf:resource="http://purl.org/dc/dcmitype/StillImage" /><dc:title></dc:title></cc:Work></rdf:RDF></metadata><defs
     id="defs6" /><sodipodi:namedview
     pagecolor="#ffffff"
     bordercolor="#666666"
     borderopacity="1"
     objecttolerance="10"
     gridtolerance="10"
     guidetolerance="10"
     inkscape:pageopacity="0"
     inkscape:pageshadow="2"
     inkscape:window-width="1440"
     inkscape:window-height="790"
     id="namedview4"
     showgrid="false"
     inkscape:zoom="0.44851463"
     inkscape:cx="468.88147"
     inkscape:cy="306.45792"
     inkscape:window-x="0"
     inkscape:window-y="1"
     inkscape:window-maximized="1"
     inkscape:current-layer="g10"
     showguides="false" /><g
     id="g10"
     inkscape:groupmode="layer"
     inkscape:label="Magazine-79-N22-Colleges-sept2018"
     transform="matrix(1.25,0,0,-1.25,0,479.99995)"><g
       id="g6726"><path
         inkscape:connector-curvature="0"
         id="path566"
         style="fill:#8bc53f;fill-opacity:1;fill-rule:nonzero;stroke:none"
         d="m 289.0534,154.7062 c 6.52313,1.26921 13.00692,2.43019 19.46119,3.50262 l 28.54242,28.27678 -48.00361,-31.7794 z" /><path
         inkscape:connector-curvature="0"
         id="path572"
         style="fill:#8ec644;fill-opacity:1;fill-rule:nonzero;stroke:none"
         d="m 372.64305,210.04761 -30.31342,-30.01824 217.22153,143.81406 -4.5849,6.92653 -182.32321,-120.72235 z" /><path
         inkscape:connector-curvature="0"
         id="path578"
         style="fill:#99cc57;fill-opacity:1;fill-rule:nonzero;stroke:none"
         d="m 265.04077,154.14342 -6.1591,-5.92297 c 5.22441,1.22985 10.42914,2.39083 15.60436,3.50262 l 29.89035,28.75887 -39.33561,-26.33852 z" /><path
         inkscape:connector-curvature="0"
         id="path584"
         style="fill:#99cc57;fill-opacity:1;fill-rule:nonzero;stroke:none"
         d="m 449.35929,320.05647 -5.76554,5.97216 -144.46344,-139.06192 39.34545,26.34837 110.88353,106.74139 z" /><path
         inkscape:connector-curvature="0"
         id="path596"
         style="fill:#c5e29e;fill-opacity:1;fill-rule:nonzero;stroke:none"
         d="m 426.12787,383.99996 -140.55742,-185.63891 5.22442,3.49279 3.66988,-5.49007 138.29449,182.62823 -6.63137,5.00796 z" /><path
         inkscape:connector-curvature="0"
         id="path598"
         style="fill:#c5e29e;fill-opacity:1;fill-rule:nonzero;stroke:none"
         d="m 254.1059,156.80483 21.12395,14.15806 16.12583,21.29121 -21.13379,-14.15806 -16.11599,-21.29121 z" /><path
         inkscape:connector-curvature="0"
         id="path604"
         style="fill:#8bc53f;fill-opacity:1;fill-rule:nonzero;stroke:none"
         d="m 194.40983,166.57379 -57.4784,-56.92743 c 6.43458,2.5581 12.86918,5.03748 19.29393,7.42831 l 44.02873,43.60567 -5.84426,5.89345 z" /><path
         inkscape:connector-curvature="0"
         id="path606"
         style="fill:#b7da87;fill-opacity:1;fill-rule:nonzero;stroke:none"
         d="m 130.98091,107.26241 138.03868,136.73012 1.46598,2.11534 -5.4999,5.57862 L 110.46696,98.633766 c 2.70568,1.180663 5.41135,2.351484 8.13671,3.512464 4.12247,1.74147 8.24493,3.44359 12.37724,5.11618" /><path
         inkscape:connector-curvature="0"
         id="path608"
         style="fill:#3c551b;fill-opacity:1;fill-rule:nonzero;stroke:none"
         d="m 337.05701,186.48855 -28.54242,-28.27677 c 4.68328,0.7871 9.36655,1.51517 14.02032,2.20389 l 19.78587,19.60877 30.31342,30.01825 50.36493,49.88283 -36.43317,-24.39044 -49.50895,-49.04653 z" /><path
         inkscape:connector-curvature="0"
         id="path614"
         style="fill:#3c551b;fill-opacity:1;fill-rule:nonzero;stroke:none"
         d="m 432.9875,269.82731 99.3721,98.41774 -5.83442,5.89345 -108.80754,-107.75478 12.1411,8.11703 3.12876,-4.67344 z" /><path
         inkscape:connector-curvature="0"
         id="path620"
         style="fill:#3f5a1d;fill-opacity:1;fill-rule:nonzero;stroke:none"
         d="m 382.95413,166.58757 -3.13858,7.67427 -9.12059,-3.72891 -9.34688,-5.50974 c 7.27089,0.64936 14.48274,1.18066 21.60605,1.56438" /><path
         inkscape:connector-curvature="0"
         id="path622"
         style="fill:#507124;fill-opacity:1;fill-rule:nonzero;stroke:none"
         d="m 361.35005,165.02024 9.34688,5.50974 36.15767,21.32072 -4.21102,7.143 -61.13844,-36.04945 c 6.66088,0.79694 13.27257,1.48566 19.84491,2.07599" /><path
         inkscape:connector-curvature="0"
         id="path628"
         style="fill:#648c2d;fill-opacity:1;fill-rule:nonzero;stroke:none"
         d="m 246.95405,162.5143 13.06596,18.73311 -38.96173,-26.09256 -13.04628,-18.72327 38.94205,26.08272 z" /><path
         inkscape:connector-curvature="0"
         id="path634"
         style="fill:#668f2e;fill-opacity:1;fill-rule:nonzero;stroke:none"
         d="m 173.46396,123.29084 c 4.99812,1.74147 9.9864,3.43375 14.96485,5.07684 l 6.4641,9.278 -21.42895,-14.35484 z" /><path
         inkscape:connector-curvature="0"
         id="path640"
         style="fill:#61892b;fill-opacity:1;fill-rule:nonzero;stroke:none"
         d="m 270.21992,178.09801 21.13379,14.14822 4.0536,2.71551 -0.93469,1.40695 -3.67972,5.49007 -5.22442,-3.49278 -6.59201,-4.41764 -13.04628,-18.73311 4.28973,2.88278 z" /><path
         inkscape:connector-curvature="0"
         id="path648"
         style="fill:#78a936;fill-opacity:1;fill-rule:nonzero;stroke:none"
         d="m 252.21291,155.54644 -7.50702,-10.78336 c 3.3452,0.84615 6.70023,1.67261 10.0356,2.48923 l 5.1457,3.43375 5.15555,3.45342 39.32576,26.33854 82.20337,55.0482 36.42332,24.40028 11.4819,7.68413 -1.48566,2.21373 -3.13858,4.68327 -12.14111,-8.12686 -79.24187,-53.06077 -39.34545,-26.34836 -23.88867,-16.00777 -21.14362,-14.15807 -1.87922,-1.25936 z" /><path
         inkscape:connector-curvature="0"
         id="path650"
         style="fill:#2b3c15;fill-opacity:1;fill-rule:nonzero;stroke:none"
         d="m 194.89291,137.64175 -6.4641,-9.27801 c 1.65292,0.55098 3.30585,1.07243 4.94893,1.59389 l 97.17804,139.42594 -2.57777,1.81035 -17.48359,-25.07915 -1.48566,-2.12519 -74.11585,-106.34783 z" /><path
         inkscape:connector-curvature="0"
         id="path652"
         style="fill:#78a936;fill-opacity:1;fill-rule:nonzero;stroke:none"
         d="m 193.38462,129.96354 c 4.32908,1.3971 8.63848,2.75487 12.9479,4.06343 l 1.6726,2.4105 13.05611,18.72328 100.70035,144.49295 -6.80847,4.74231 -24.40028,-35.00653 -97.16821,-139.42594 z" /><path
         inkscape:connector-curvature="0"
         id="path654"
         style="fill:#a8d36f;fill-opacity:1;fill-rule:nonzero;stroke:none"
         d="m 233.24267,142.84157 -0.915,-1.31841 c 4.1323,1.12163 8.25477,2.19406 12.37724,3.23698 l 7.50702,10.78335 13.71532,19.67764 13.06595,18.73312 111.2574,159.67424 -6.79862,4.74232 -123.42803,-177.12832 -13.06596,-18.72328 -13.71532,-19.67764 z" /></g><g
       id="g6491"
       transform="matrix(0.99919853,0,0,0.99919853,0,6.0042456e-4)"
       style="fill:#707070;fill-opacity:1"><path
         inkscape:connector-curvature="0"
         id="path656"
         style="fill:#707070;fill-opacity:1;fill-rule:nonzero;stroke:none"
         d="m 13.707234,54.872741 c 0,-3.45619 0.23632,-5.5437 1.62471,-7.10932 1.7921,-2.01858 4.87412,-2.66846 9.99441,-2.66846 15.76459,0 22.82469,8.28108 22.82469,20.3827 0,7.1684 -4.30302,19.28971 -25.59161,19.28971 -4.78551,0 -7.39489,-0.53172 -8.03492,-0.91575 -0.65973,-0.38402 -0.81728,-2.01857 -0.81728,-4.95289 l 0,-24.02599 z m -6.6662304,23.23825 c 0,4.56887 -0.40371,5.93757 -3.81067,6.33144 l -1.79211,0.19693 c -0.65972999,0.3151 -0.72864999,1.36869 0.0788,1.62471 6.91239,0.31509 13.4900004,0.52187 20.3925404,0.52187 6.82378,0 12.59395,-0.40371 17.88164,-1.95949 10.96924,-3.19034 16.49324,-10.61476 16.49324,-19.21094 0,-8.27124 -4.96274,-15.38057 -14.2285,-19.40787 -5.27784,-2.28444 -11.93422,-3.13126 -18.19673,-3.13126 -5.18922,0 -10.38828,0.51203 -13.24383,0.51203 -3.4168104,0 -6.3314404,-0.0591 -10.15196039,-0.18709 -0.49234,0.18709 -0.65973,1.24069 -0.16739,1.62471 l 1.87086999,0.19693 c 4.71658,0.52188 4.87412,1.30962 4.87412,8.15308 l 0,24.73495 z" /><path
         inkscape:connector-curvature="0"
         id="path658"
         style="fill:#707070;fill-opacity:1;fill-rule:nonzero;stroke:none"
         d="m 70.415444,76.815161 c 0,6.77454 -0.16739,7.74937 -4.9529,8.21216 l -1.29976,0.12801 c -0.49234,0.26586 -0.32494,1.43762 0.15755,1.63455 3.49558,-0.13785 6.25266,-0.19693 9.59069,-0.19693 l 15.27226,0 c 5.19906,0 9.99441,0 10.969236,0.19693 0.49233,-1.11268 0.97482,-5.79971 1.29976,-8.67495 -0.32494,-0.38402 -1.624696,-0.52188 -2.038266,-0.12801 -1.21114,3.07218 -1.9398,5.33692 -6.17389,6.19358 -1.70348,0.32495 -4.30301,0.38403 -7.87737,0.38403 l -5.84894,0 c -2.43214,0 -2.43214,-0.11816 -2.43214,-2.59954 l 0,-13.0272 c 0,-1.82164 0.23632,-1.82164 2.6783,-1.82164 l 4.70673,0 c 3.41681,0 5.93757,0.12801 6.9124,0.38402 0.97482,0.26586 1.54593,0.64988 1.94965,2.28444 l 0.64988,2.6783 c 0.40371,0.38403 1.78225,0.38403 2.1072,-0.0689 0,-1.57548 -0.32495,-4.11593 -0.32495,-6.58745 0,-2.34352 0.32495,-4.81505 0.32495,-6.24282 -0.32495,-0.4628 -1.70349,-0.4628 -2.1072,-0.0689 l -0.73851,2.53061 c -0.31509,1.1816 -0.8862,2.14658 -2.52075,2.48137 -1.13238,0.25601 -3.08203,0.32494 -6.25267,0.32494 l -4.70673,0 c -2.44198,0 -2.6783,-0.0689 -2.6783,-1.76256 l 0,-9.18699 c 0,-3.45619 0.23632,-5.66186 1.54593,-6.76469 0.96498,-0.78774 2.66846,-1.50655 9.82702,-1.50655 6.25267,0 8.60603,0.25602 10.38828,0.98468 1.477006,0.64988 3.662976,2.92447 5.780026,6.31174 0.57111,0.32494 1.69363,0.12801 2.02842,-0.45295 -0.57111,-2.28444 -2.59953,-7.29641 -3.65313,-9.04913 -7.316106,0.12801 -14.543596,0.18709 -21.771086,0.18709 l -7.31611,0 c -3.49558,0 -6.26251,-0.0591 -11.04801,-0.18709 -0.49233,0.18709 -0.65973,1.23084 -0.15755,1.62471 l 2.67831,0.19693 c 4.62796,0.33479 5.03167,1.29977 5.03167,8.14324 l 0,23.44502 z" /><path
         inkscape:connector-curvature="0"
         id="path660"
         style="fill:#707070;fill-opacity:1;fill-rule:nonzero;stroke:none"
         d="m 156.61752,70.234601 c 0,4.047 -0.1674,11.54035 -1.54594,13.49 -0.57111,0.77789 -2.02842,1.23084 -4.05684,1.35885 l -2.03827,0.13785 c -0.48249,0.45295 -0.32495,1.30961 0.16739,1.56563 3.08202,-0.13785 6.08527,-0.19694 9.25591,-0.19694 3.41681,0 5.61263,0.0591 8.5371,0.19694 0.64004,-0.33479 0.56126,-1.18161 0.1674,-1.56563 l -1.9595,-0.13785 c -2.02842,-0.12801 -3.57436,-0.70897 -4.05685,-1.55578 -1.14222,-2.14659 -1.14222,-9.63994 -1.14222,-13.29307 l 0,-7.35549 c 0,-5.67171 -1.13237,-11.66836 -5.6914,-15.55781 -3.48573,-3.08202 -9.50208,-4.76581 -15.50857,-4.76581 -5.61263,0 -11.21541,0.84682 -15.20333,3.5842 -4.30301,2.8654 -6.33143,7.62136 -6.33143,15.37072 l 0,15.37072 c 0,6.77454 -0.15755,7.88722 -4.87413,8.20232 l -2.02842,0.13785 c -0.49234,0.25602 -0.32494,1.36869 0.15755,1.56563 4.06669,-0.13785 6.82377,-0.19694 10.07318,-0.19694 3.32819,0 6.01635,0.0591 10.00427,0.19694 0.47264,-0.19694 0.64003,-1.30961 0.15754,-1.56563 l -1.95949,-0.13785 c -4.70673,-0.3151 -4.87413,-1.42778 -4.87413,-8.20232 l 0,-14.07095 c 0,-10.4966 4.07654,-17.3893 16.49325,-17.3893 11.78652,0 16.25693,7.42443 16.25693,17.32037 l 0,7.49335 z" /><path
         inkscape:connector-curvature="0"
         id="path662"
         style="fill:#707070;fill-opacity:1;fill-rule:nonzero;stroke:none"
         d="m 222.17989,45.029971 c 0.57111,-0.38402 0.49234,-1.30961 -0.0788,-1.62471 -3.74175,0.12801 -6.91239,0.19693 -10.24058,0.19693 -3.66298,0 -7.55243,-0.0689 -10.48675,-0.19693 -0.48249,0.38402 -0.56127,1.24069 -0.15755,1.62471 l 2.36321,0.19693 c 1.87087,0.13786 2.75708,0.38402 2.75708,0.84682 0,0.38402 -0.15755,1.03391 -1.7921,2.86539 -3.49559,3.96823 -8.04477,9.37408 -11.61913,13.08629 -2.18597,-2.20567 -8.19246,-9.30515 -11.45172,-13.87402 -0.64989,-0.9059 -1.0536,-1.62471 -1.0536,-2.07766 0,-0.39387 0.72865,-0.70896 2.35336,-0.84682 l 2.18597,-0.19693 c 0.58096,-0.38402 0.41356,-1.30961 -0.0689,-1.62471 -2.92448,0.12801 -6.0065,0.19693 -8.78327,0.19693 -2.75708,0 -5.76033,-0.0689 -8.35986,-0.19693 -0.72866,0.25602 -0.81728,1.24069 -0.24617,1.62471 l 2.02842,0.19693 c 4.39164,0.38402 7.22749,3.19034 9.66948,5.78987 0.98467,1.0536 6.5776,6.78439 11.05786,11.9933 0.56126,0.64988 0.71881,1.10283 0.71881,1.29976 0,0.19694 -0.32495,0.79759 -0.97483,1.50655 l -12.18038,14.00203 c -2.67831,3.05248 -4.22425,4.36209 -7.07979,4.87412 l -2.58969,0.4628 c -0.40371,0.39387 -0.33479,1.42777 0.15755,1.62471 3.82052,-0.12801 6.50868,-0.19694 9.43315,-0.19694 3.1608,0 6.82377,0.0689 9.18699,0.19694 0.56126,-0.19694 0.64003,-1.17176 0.15754,-1.62471 l -2.28443,-0.12801 c -1.45732,-0.0689 -2.43214,-0.46279 -2.43214,-0.84682 0,-0.5908 0.80743,-1.69363 2.43214,-3.5842 2.68815,-3.13126 7.4835,-8.9802 10.39813,-11.91452 2.12689,2.07765 9.43315,11.32372 10.89046,13.28321 0.64988,0.83697 1.14222,1.69364 1.14222,2.14659 0,0.33479 -1.22099,0.71881 -2.68815,0.84681 l -2.1072,0.19694 c -0.48249,0.45295 -0.48249,1.37854 0.15755,1.62471 2.85554,-0.12801 5.45508,-0.19694 8.61587,-0.19694 3.00325,0 5.27784,0.0689 7.7986,0.19694 0.57111,-0.32495 0.65973,-1.23084 0.16739,-1.62471 l -1.94964,-0.12801 c -2.43214,-0.19693 -5.36646,-2.15643 -8.69465,-5.5437 -3.17065,-3.25926 -6.66623,-7.15856 -10.56553,-11.5305 -0.49233,-0.58096 -0.80743,-1.03391 -0.80743,-1.23084 0,-0.19693 0.0788,-0.65973 1.0536,-1.69364 l 13.72632,-15.49872 c 2.76693,-3.07218 4.87412,-4.10608 7.39488,-4.30302 l 2.8457,-0.19693 z" /><path
         inkscape:connector-curvature="0"
         id="path664"
         style="fill:#707070;fill-opacity:1;fill-rule:nonzero;stroke:none"
         d="m 258.82444,42.556471 c -6.82377,0 -11.13663,1.68379 -12.68257,2.4026 -0.96498,1.43762 -2.02842,6.06558 -2.19582,9.11806 0.41357,0.46279 1.62471,0.5908 1.9595,0.19693 1.21115,-3.31834 4.54918,-9.69901 13.96264,-9.69901 6.83362,0 10.17166,3.5842 10.17166,7.49335 0,2.86539 -0.73851,6.06558 -6.66623,9.10821 l -7.71982,4.047 c -4.0667,2.14658 -8.77343,5.85879 -8.77343,11.20556 0,6.19358 6.0065,11.20556 16.57202,11.20556 2.51092,0 5.43539,-0.39387 7.55243,-0.84682 1.0536,-0.26586 2.19582,-0.39386 2.8457,-0.39386 0.72866,-1.56563 1.45732,-5.21876 1.45732,-7.9463 -0.32494,-0.38402 -1.61486,-0.59081 -2.01858,-0.20678 -1.06344,3.1411 -3.24941,7.37518 -11.05786,7.37518 -7.95614,0 -9.66947,-4.23408 -9.66947,-7.23733 0,-3.77129 3.8993,-6.50868 6.91239,-8.00538 l 6.48899,-3.25926 c 5.13013,-2.54045 10.16181,-6.32159 10.16181,-12.50533 0,-7.16841 -6.745,-12.05238 -17.30068,-12.05238" /><path
         inkscape:connector-curvature="0"
         id="path666"
         style="fill:#707070;fill-opacity:1;fill-rule:nonzero;stroke:none"
         d="m 293.91124,94.205441 c -1.13238,0.39387 -1.77241,0.71881 -2.02843,1.0536 -0.32494,0.51203 -0.32494,1.42778 0.48249,2.65861 0.65973,1.04376 1.71333,1.49671 2.28444,1.49671 0.48249,0 1.21114,-0.3151 2.19582,-0.84682 l 11.45172,-7.4835 c 0.23633,-0.70897 -0.25601,-1.43763 -0.81727,-1.55579 l -13.56877,4.67719 z m -3.1608,-17.38929 c 0,6.76469 -0.15755,7.74936 -4.9529,8.21216 l -1.29976,0.11816 c -0.49234,0.2757 -0.32494,1.43762 0.16739,1.6444 3.47589,-0.13786 6.25266,-0.20678 9.58085,-0.20678 l 15.27226,0 c 5.19906,0 9.99441,0 10.95939,0.20678 0.49234,-1.11268 0.98467,-5.79972 1.30961,-8.67496 -0.32494,-0.38402 -1.6247,-0.52187 -2.03827,-0.128 -1.22099,3.07217 -1.9398,5.33691 -6.17389,6.18373 -1.70348,0.33479 -4.29316,0.39387 -7.87737,0.39387 l -5.8391,0 c -2.45183,0 -2.45183,-0.11816 -2.45183,-2.59953 l 0,-13.0272 c 0,-1.82165 0.25601,-1.82165 2.68815,-1.82165 l 4.71658,0 c 3.39711,0 5.92772,0.12801 6.90254,0.38402 0.96498,0.26587 1.54594,0.64989 1.94965,2.2746 l 0.64989,2.68815 c 0.40371,0.37417 1.78225,0.37417 2.11704,-0.0689 0,-1.57547 -0.33479,-4.11592 -0.33479,-6.58745 0,-2.34352 0.33479,-4.81504 0.33479,-6.24282 -0.33479,-0.46279 -1.71333,-0.46279 -2.11704,-0.0689 l -0.73851,2.5306 c -0.31509,1.17176 -0.89605,2.14659 -2.52076,2.48137 -1.13237,0.25602 -3.08202,0.32495 -6.24281,0.32495 l -4.71658,0 c -2.43214,0 -2.68815,-0.0689 -2.68815,-1.76257 l 0,-9.18698 c 0,-3.4562 0.25601,-5.66186 1.54593,-6.77454 0.98467,-0.77789 2.67831,-1.4967 9.83687,-1.4967 6.25266,0 8.61588,0.25601 10.39813,0.98467 1.45731,0.64988 3.65313,2.92447 5.77018,6.31174 0.5711,0.32495 1.69363,0.12801 2.02842,-0.45294 -0.58096,-2.28444 -2.59953,-7.29642 -3.65313,-9.04913 -7.31611,0.128 -14.5436,0.18708 -21.78093,0.18708 l -7.30627,0 c -3.49558,0 -6.26251,-0.0591 -11.05786,-0.18708 -0.48249,0.18708 -0.64988,1.23083 -0.15754,1.6247 l 2.6783,0.19694 c 4.6378,0.33479 5.04152,1.29976 5.04152,8.13338 l 0,23.45488 z" /><path
         inkscape:connector-curvature="0"
         id="path668"
         style="fill:#707070;fill-opacity:1;fill-rule:nonzero;stroke:none"
         d="m 334.9484,79.690401 c -1.87087,3.64329 -3.09187,5.00213 -6.58745,5.33692 l -1.45731,0.12801 c -0.56127,0.38402 -0.49234,1.29976 0.15754,1.63455 2.36321,-0.13785 4.9529,-0.19693 8.45833,-0.19693 3.56451,0 6.41021,0.0591 9.82702,0.19693 0.57111,-0.25601 0.72866,-1.25053 0.15755,-1.63455 l -1.21115,-0.12801 c -3.09187,-0.33479 -3.74175,-0.72866 -3.82052,-1.24068 0.16739,-0.64004 1.54593,-4.16516 4.06669,-9.11806 3.73191,-7.56228 7.47366,-15.04578 11.5305,-22.4702 2.52076,4.29316 5.92773,11.00862 7.7986,14.45497 2.36321,4.43102 6.18374,11.79637 7.56228,14.59283 0.64003,1.3687 0.72865,2.08751 0.72865,2.54046 0,0.45294 -0.80743,0.97482 -3.65313,1.24068 l -1.46716,0.12801 c -0.57111,0.38402 -0.40371,1.37854 0.15755,1.63455 2.28444,-0.13785 5.36646,-0.19693 8.44848,-0.19693 2.68815,0 5.19907,0.0591 7.89707,0.19693 0.56126,-0.25601 0.56126,-1.30961 0.15754,-1.63455 l -2.44198,-0.12801 c -1.94965,-0.12801 -3.1608,-0.9059 -4.22424,-2.27459 -2.27459,-3.06233 -5.43539,-8.34017 -9.09837,-14.9867 l -4.39163,-8.01522 c -3.24942,-5.99665 -7.06994,-13.54908 -8.43863,-17.00528 -0.25602,-0.12801 -0.58096,-0.18709 -0.89606,-0.18709 -0.41356,0 -0.81727,0.0591 -1.23084,0.18709 -0.8862,2.74723 -2.34351,5.93757 -3.7319,8.66511 l -14.29743,28.27976 z" /><path
         inkscape:connector-curvature="0"
         id="path670"
         style="fill:#707070;fill-opacity:1;fill-rule:nonzero;stroke:none"
         d="m 398.80237,67.435181 c 0,-1.17176 0,-1.89057 0.24617,-2.14658 0.24617,-0.18709 1.45731,-0.32494 5.60278,-0.32494 2.93432,0 6.01634,0.25601 8.36971,1.69363 2.18597,1.36869 4.05684,3.64329 4.05684,8.07431 0,5.14983 -3.97807,10.0338 -12.99766,10.0338 -5.03167,0 -5.27784,-0.26586 -5.27784,-2.0875 l 0,-15.24272 z m -6.65638,9.31499 c 0,6.19359 -0.24616,7.29642 -3.57435,7.63121 l -2.60938,0.25601 c -0.56126,0.3151 -0.56126,1.36869 0.0788,1.62471 4.54918,0.32494 10.17166,0.52188 18.1278,0.52188 5.04152,0 9.82702,-0.32495 13.55893,-1.94965 3.90914,-1.63456 6.75484,-4.55903 6.75484,-9.11806 0,-6.19358 -6.09511,-9.58085 -10.17165,-10.88062 -0.39387,-0.39387 0,-1.0536 0.42341,-1.56563 6.48898,-8.39925 10.80184,-13.618 16.32585,-17.33022 1.37854,-0.97482 3.41681,-1.69363 5.60278,-1.82164 0.41356,-0.128 0.49233,-0.64988 0.0886,-0.91574 -0.72866,-0.19694 -2.03827,-0.32494 -3.5842,-0.32494 -6.90255,0 -11.04802,1.63455 -16.80835,8.21216 -2.11704,2.41244 -5.44523,6.90254 -7.97583,9.83686 -1.221,1.42778 -2.50107,2.07766 -5.76033,2.07766 -3.65313,0 -3.82053,-0.0591 -3.82053,-1.42777 l 0,-8.21216 c 0,-6.83362 0.1674,-7.62136 4.88397,-8.14324 l 1.70348,-0.18708 c 0.49234,-0.33479 0.3151,-1.43762 -0.16739,-1.63456 -3.65313,0.13786 -6.42006,0.19694 -9.66947,0.19694 -3.40697,0 -6.34129,-0.0591 -10.15196,-0.19694 -0.48249,0.19694 -0.64004,1.17176 -0.15755,1.63456 l 2.01857,0.18708 c 4.71658,0.45295 4.88397,1.30962 4.88397,8.14324 l 0,23.38594 z" /><path
         inkscape:connector-curvature="0"
         id="path672"
         style="fill:#707070;fill-opacity:1;fill-rule:nonzero;stroke:none"
         d="m 444.53741,76.815161 c 0,6.77454 -0.1477,7.74937 -4.9529,8.21216 l -1.28992,0.12801 c -0.49234,0.26586 -0.33479,1.43762 0.15755,1.63455 3.48573,-0.13785 6.25266,-0.19693 9.58085,-0.19693 l 15.2821,0 c 5.19907,0 9.99441,0 10.96924,0.19693 0.48249,-1.11268 0.96498,-5.79971 1.28992,-8.67495 -0.32494,-0.38402 -1.61486,-0.52188 -2.02842,-0.12801 -1.21115,3.07218 -1.94965,5.33692 -6.16405,6.19358 -1.71333,0.32495 -4.31286,0.38403 -7.88721,0.38403 l -5.83911,0 c -2.45183,0 -2.45183,-0.11816 -2.45183,-2.59954 l 0,-13.0272 c 0,-1.82164 0.24617,-1.82164 2.68815,-1.82164 l 4.70673,0 c 3.41681,0 5.93757,0.12801 6.90255,0.38402 0.97483,0.26586 1.54593,0.64988 1.9595,2.28444 l 0.64003,2.6783 c 0.41357,0.38403 1.79211,0.38403 2.11705,-0.0689 0,-1.57548 -0.32494,-4.11593 -0.32494,-6.58745 0,-2.34352 0.32494,-4.81505 0.32494,-6.24282 -0.32494,-0.4628 -1.70348,-0.4628 -2.11705,-0.0689 l -0.71881,2.53061 c -0.33479,1.1816 -0.90589,2.14658 -2.5306,2.48137 -1.12253,0.25601 -3.08202,0.32494 -6.25267,0.32494 l -4.70673,0 c -2.44198,0 -2.68815,-0.0689 -2.68815,-1.76256 l 0,-9.18699 c 0,-3.45619 0.24617,-5.66186 1.54594,-6.76469 0.97482,-0.78774 2.6783,-1.50655 9.83686,-1.50655 6.24282,0 8.60603,0.25602 10.39813,0.98468 1.45732,0.64988 3.64329,2.92447 5.76033,6.31174 0.58096,0.32494 1.70348,0.12801 2.03827,-0.45295 -0.57111,-2.28444 -2.59953,-7.29641 -3.65313,-9.04913 -7.31611,0.12801 -14.5436,0.18709 -21.78093,0.18709 l -7.31611,0 c -3.49558,0 -6.25266,-0.0591 -11.04801,-0.18709 -0.48249,0.18709 -0.64989,1.23084 -0.15755,1.62471 l 2.68815,0.19693 c 4.62796,0.33479 5.02183,1.29977 5.02183,8.14324 l 0,23.44502 z" /><path
         inkscape:connector-curvature="0"
         id="path674"
         style="fill:#707070;fill-opacity:1;fill-rule:nonzero;stroke:none"
         d="m 499.78437,42.556471 c -6.81393,0 -11.11694,1.68379 -12.66288,2.4026 -0.98467,1.43762 -2.03827,6.06558 -2.19582,9.11806 0.41357,0.46279 1.62471,0.5908 1.9595,0.19693 1.21115,-3.31834 4.53933,-9.69901 13.96264,-9.69901 6.82377,0 10.16181,3.5842 10.16181,7.49335 0,2.86539 -0.7385,6.06558 -6.66623,9.10821 l -7.71982,4.047 c -4.06669,2.14658 -8.78327,5.85879 -8.78327,11.20556 0,6.19358 6.01634,11.20556 16.58187,11.20556 2.52076,0 5.44523,-0.39387 7.55243,-0.84682 1.0536,-0.26586 2.19581,-0.39386 2.8457,-0.39386 0.72865,-1.56563 1.46716,-5.21876 1.46716,-7.9463 -0.32494,-0.38402 -1.62471,-0.59081 -2.03827,-0.20678 -1.0536,3.1411 -3.23957,7.37518 -11.04801,7.37518 -7.95615,0 -9.65963,-4.23408 -9.65963,-7.23733 0,-3.77129 3.88945,-6.50868 6.90255,-8.00538 l 6.49883,-3.25926 c 5.12029,-2.54045 10.15196,-6.32159 10.15196,-12.50533 0,-7.16841 -6.745,-12.05238 -17.31052,-12.05238" /><path
         inkscape:connector-curvature="0"
         id="path680"
         style="fill:#707070;fill-opacity:1;fill-rule:nonzero;stroke:none"
         d="m 215.29113,65.383131 21.15074,0 0,2.35336 -21.15074,0 0,-2.35336 z" /><path
         inkscape:connector-curvature="0"
         id="path682"
         style="fill:#707070;fill-opacity:1;fill-rule:nonzero;stroke:none"
         d="m 215.29113,64.624931 21.15074,0 0,2.35336 -21.15074,0 0,-2.35336 z" /></g><g
       id="g6549"
       transform="matrix(0.99919853,0,0,0.99919853,0,6.0042456e-4)"
       style="fill:#707070;fill-opacity:1"><path
         id="path6529"
         transform="matrix(0.8,0,0,-0.8,0,841.89)"
         d="m 321.64453,1023.0078 0,29.3555 5.82031,0 0,-13.6016 0.11133,0 13.15821,13.6016 7.27343,0 -11.15039,-10.9434 c 2.58476,0 11.4336,-1.2308 11.4336,-9.0097 0,-2.4617 -1.13244,-5.1567 -3.66797,-6.9414 -2.10474,-1.4647 -5.00847,-2.461 -10.6211,-2.461 l -12.35742,0 z m 5.82031,3.9258 6.1543,0 c 6.58499,0 8.84961,3.0149 8.84961,5.4766 0,5.6741 -8.64011,5.748 -11.01563,5.748 l -3.98828,0 0,-11.2246 z"
         style="fill:#707070;fill-opacity:1;fill-rule:nonzero;stroke:none"
         inkscape:connector-curvature="0" /><path
         id="path6543"
         d="m 509.35143,-3.90625e-5 0,20.3433110625 6.13451,0 0,3.141102 -16.92651,0 0,-3.141102 6.13451,0 0,-20.3433110625 4.65749,0 z"
         style="fill:#707070;fill-opacity:1;fill-rule:nonzero;stroke:none"
         inkscape:connector-curvature="0" /><path
         id="path6541"
         d="m 481.21937,-3.90625e-5 0,23.4844130625 -4.6575,0 0,-17.8717861 -0.0886,0 -15.53811,17.8717861 -5.09075,0 0,-23.4844130625 4.64765,0 0,18.1573410625 0.0886,0 15.80397,-18.1573410625 4.83474,0 z"
         style="fill:#707070;fill-opacity:1;fill-rule:nonzero;stroke:none"
         inkscape:connector-curvature="0" /><path
         id="path6539"
         d="m 436.36759,-3.90625e-5 0,3.1411019625 -12.55456,0 0,7.1388681 12.55456,0 0,3.141101 -12.55456,0 0,6.92224 12.55456,0 0,3.141102 -17.21206,0 0,-23.4844130625 17.21206,0 z"
         style="fill:#707070;fill-opacity:1;fill-rule:nonzero;stroke:none"
         inkscape:connector-curvature="0" /><path
         id="path6537"
         d="m 399.34394,-3.90625e-5 0,23.4844130625 -7.3358,0 -9.63009,-17.9997931 -9.58085,17.9997931 -7.32595,0 0,-23.4844130625 4.64764,0 0,19.8312820625 0.0886,0 10.79199,-19.8312820625 2.80632,0 10.75261,19.8312820625 0.12801,0 0,-19.8312820625 4.65749,0 z"
         style="fill:#707070;fill-opacity:1;fill-rule:nonzero;stroke:none"
         inkscape:connector-curvature="0" /><path
         id="path6535"
         d="m 345.99445,-3.90625e-5 0,3.1411019625 -12.55457,0 0,7.1388681 12.55457,0 0,3.141101 -12.55457,0 0,6.92224 12.55457,0 0,3.141102 -17.21206,0 0,-23.4844130625 17.21206,0 z"
         style="fill:#707070;fill-opacity:1;fill-rule:nonzero;stroke:none"
         inkscape:connector-curvature="0" /><path
         id="path6533"
         d="m 305.69184,-3.90625e-5 0,20.3433110625 6.12466,0 0,3.141102 -16.91665,0 0,-3.141102 6.1345,0 0,-20.3433110625 4.65749,0 z"
         style="fill:#707070;fill-opacity:1;fill-rule:nonzero;stroke:none"
         inkscape:connector-curvature="0" /><path
         id="path6525"
         transform="matrix(0.8,0,0,-0.8,0,841.89)"
         d="m 279.83203,1023.0078 -15.16406,29.3555 6.1543,0 4.41796,-8.6543 14.35157,0 4.43164,8.6543 6.1914,0 -15.15234,-29.3555 -5.23047,0 z m 2.58399,5.5625 0.11132,0 5.07227,11.2246 -10.30273,0 5.11914,-11.2246 z"
         style="fill:#707070;fill-opacity:1;fill-rule:nonzero;stroke:none"
         inkscape:connector-curvature="0" /><path
         id="path6521"
         transform="matrix(0.8,0,0,-0.8,0,841.89)"
         d="m 225.44141,1023.0078 0,29.3555 5.82226,0 0,-11.5821 5.72266,0 c 9.55131,0 14.08008,-3.6433 14.08008,-8.8867 0,-5.231 -4.52877,-8.8867 -14.08008,-8.8867 l -11.54492,0 z m 5.82226,3.9258 5.72266,0 c 6.63422,0 8.25976,2.7823 8.25976,4.9609 0,2.1909 -1.62554,4.959 -8.25976,4.959 l -5.72266,0 0,-9.9199 z"
         style="fill:#707070;fill-opacity:1;fill-rule:nonzero;stroke:none"
         inkscape:connector-curvature="0" /><path
         id="path6519"
         d="m 161.31932,-3.90625e-5 0,3.1411019625 -12.56441,0 0,7.1388681 12.56441,0 0,3.141101 -12.56441,0 0,6.92224 12.56441,0 0,3.141102 -17.2219,0 0,-23.4844130625 17.2219,0 z"
         style="fill:#707070;fill-opacity:1;fill-rule:nonzero;stroke:none"
         inkscape:connector-curvature="0" /><path
         id="path6517"
         d="m 149.44418,24.656133 9.71871,3.879606 -1.90041,2.560145 -9.62024,-4.056846 1.80194,-2.382905 z"
         style="fill:#707070;fill-opacity:1;fill-rule:nonzero;stroke:none"
         inkscape:connector-curvature="0" /><path
         id="path6513"
         transform="matrix(0.8,0,0,-0.8,0,841.89)"
         d="m 123.36719,1023.0078 0,29.3555 12.74023,0 c 5.60031,0 11.00271,-0.9125 15.59375,-4.2481 2.96631,-2.1416 5.00977,-6.3863 5.00977,-10.3496 0,-2.8555 -1.24211,-6.4255 -4.09766,-9.3672 -3.01555,-3.0401 -7.98871,-5.3906 -16.29687,-5.3906 l -12.94922,0 z m 5.82226,3.9258 7.07813,0 c 10.89292,0 14.62109,6.3887 14.62109,10.832 0,8.0989 -7.71665,10.6699 -14.73242,10.6699 l -6.9668,0 0,-21.5019 z"
         style="fill:#707070;fill-opacity:1;fill-rule:nonzero;stroke:none"
         inkscape:connector-curvature="0" /><path
         id="path6511"
         d="m 53.891674,-3.90625e-5 0,3.1411019625 -12.55456,0 0,7.1388681 12.55456,0 0,3.141101 -12.55456,0 0,6.92224 12.55456,0 0,3.141102 -17.21206,0 0,-23.4844130625 17.21206,0 z"
         style="fill:#707070;fill-opacity:1;fill-rule:nonzero;stroke:none"
         inkscape:connector-curvature="0" /><path
         id="path688"
         d="m 20.058364,-3.90625e-5 0,3.1411019625 -11.0972504,0 0,20.3433111 -4.64765,0 0,-23.4844130625 15.7449004,0 z"
         style="fill:#707070;fill-opacity:1;fill-rule:nonzero;stroke:none"
         inkscape:connector-curvature="0" /></g></g></svg>