<?xml version="1.0" encoding="UTF-8" standalone="no"?>
<svg
   xmlns:dc="http://purl.org/dc/elements/1.1/"
   xmlns:cc="http://creativecommons.org/ns#"
   xmlns:rdf="http://www.w3.org/1999/02/22-rdf-syntax-ns#"
   xmlns:svg="http://www.w3.org/2000/svg"
   xmlns="http://www.w3.org/2000/svg"
   xmlns:xlink="http://www.w3.org/1999/xlink"
   viewBox="0 0 800 338.2"
   height="338.20001"
   width="800"
   xml:space="preserve"
   version="1.1"
   id="svg2"><metadata
     id="metadata8"><rdf:RDF><cc:Work
         rdf:about=""><dc:format>image/svg+xml</dc:format><dc:type
           rdf:resource="http://purl.org/dc/dcmitype/StillImage" /><dc:title></dc:title></cc:Work></rdf:RDF></metadata><defs
     id="defs6"><linearGradient
       id="linearGradient8252"><stop
         id="stop8254"
         offset="0"
         style="stop-color:#c8da2c;stop-opacity:1" /><stop
         style="stop-color:#c3d82e;stop-opacity:1"
         offset="0.27827269"
         id="stop8262" /><stop
         style="stop-color:#afd136;stop-opacity:1"
         offset="0.68387324"
         id="stop8260" /><stop
         id="stop8256"
         offset="1"
         style="stop-color:#a5ce39;stop-opacity:1" /></linearGradient><radialGradient
       gradientUnits="userSpaceOnUse"
       gradientTransform="matrix(1.0564641,0.00314235,0.00237827,-0.79957438,94.804126,1032.1424)"
       r="50.654499"
       fy="71.447655"
       fx="490.73093"
       cy="71.447655"
       cx="490.73093"
       id="radialGradient8258"
       xlink:href="#linearGradient8252" /></defs><g
     transform="matrix(1.25,0,0,-1.25,0,338.19995)"
     id="g10"><g
       transform="matrix(5.0146393,0,0,5.0146393,-2200.7841,-106.17199)"
       id="g8295"><path
         style="fill:#8c9ba7;fill-opacity:1;fill-rule:nonzero;stroke:none"
         d="m 645.5332,968.66602 c -1.13875,0 -2.29132,0.0584 -3.45508,0.17968 -8.85999,1.02 -24.60445,10.03258 -41.87695,21.17383 -11.82,7.61625 -24.37789,16.22507 -36.02539,23.95507 -5.0275,3.3363 -9.88516,6.5097 -14.4414,9.3672 -0.385,0.385 -0.76579,0.7686 -1.14454,1.1523 5.0775,-3.1637 10.55508,-6.7432 16.23633,-10.5195 28.50375,-18.94499 62.21445,-42.88085 77.22071,-44.63085 1.38875,-0.1425 2.74632,-0.2168 4.08007,-0.2168 4.99375,0 9.61618,1.02172 13.91993,3.16797 -4.52251,-2.4 -9.36993,-3.62765 -14.51368,-3.6289 z"
         transform="matrix(0.8,0,0,-0.8,0,841.89)"
         id="path602" /><path
         style="fill:url(#radialGradient8258);fill-opacity:1"
         d="m 641.90625,958.59766 c -8.5,0 -24.69602,9.06492 -42.22852,21.76367 -16.76625,12.13375 -34.82984,27.57257 -48.87109,41.54887 14.81875,-9.3763 32.63438,-21.8542 49.04688,-32.43168 17.31625,-11.14625 33.01734,-20.19149 42.15234,-21.27149 l 0.0371,0.31836 -0.0312,-0.31836 c 1.1875,-0.1225 2.35828,-0.17969 3.51953,-0.17969 11,-0.005 20.67031,5.5211 28.66406,15.90235 -3.0575,-7.73875 -8.70265,-13.86766 -14.66015,-18.16016 -6.46375,-4.66125 -13.30875,-7.13812 -17.5,-7.17187 l -0.10157,0 -0.0273,0 z"
         id="path8222"
         transform="matrix(0.8,0,0,-0.8,0,841.89)" /><path
         style="fill:#ffffff;fill-opacity:0.25806454;fill-rule:nonzero;stroke:none"
         d="m 639.58398,958.46875 c -12.12125,1.83375 -34.71195,16.61281 -56.5957,34.28906 0.3325,-0.13125 0.67016,-0.26664 1.00391,-0.40039 0.05,-0.04 0.0958,-0.0765 0.14453,-0.11523 l 0,0.002 c -0.048,0.0381 -0.0953,0.0739 -0.14453,0.11328 0.05,-0.02 0.0984,-0.0386 0.14843,-0.0586 0.2575,-0.10375 0.51008,-0.2075 0.76758,-0.3125 -0.005,-0.11625 -0.009,-0.23211 -0.0137,-0.34961 -0.25085,0.20093 -0.50376,0.40329 -0.75586,0.60547 0.25211,-0.20218 0.50501,-0.40649 0.75586,-0.60742 0.25625,-0.205 0.51133,-0.40829 0.76758,-0.61329 0.2625,-0.2075 0.52266,-0.41554 0.78516,-0.62304 0.1339,-0.10575 0.26663,-0.21082 0.40039,-0.31641 -0.1336,0.10575 -0.26711,0.21261 -0.40039,0.31836 -0.26125,0.20625 -0.52266,0.41234 -0.78516,0.62109 -0.2575,0.20375 -0.51133,0.41024 -0.76758,0.61524 0.005,0.11625 0.0106,0.23406 0.0156,0.35156 0.255,-0.10375 0.51328,-0.21015 0.76953,-0.3164 -0.003,-0.0816 -0.005,-0.16436 -0.008,-0.2461 0.003,0.0817 0.007,0.16451 0.01,0.2461 0.25875,-0.10626 0.51539,-0.21547 0.77539,-0.32422 0.26,-0.10875 0.5193,-0.21618 0.7793,-0.32618 0,0 0,-0.002 0,-0.002 0.26125,-0.11 0.52195,-0.22148 0.7832,-0.33398 -0.001,-0.525 0.0144,-1.04625 0.0469,-1.5625 0,0 0.002,0 0.002,0 -0.0337,0.51685 -0.05,1.03816 -0.0488,1.5625 0,0 0,0.002 0,0.002 0.2625,-0.1125 0.52336,-0.22484 0.78711,-0.33984 0.265,-0.11375 0.53047,-0.22946 0.79297,-0.34571 0,0 0,-0.002 0,-0.002 0.2675,-0.1175 0.53383,-0.23281 0.79883,-0.35156 0.27,-0.12 0.53859,-0.24008 0.80859,-0.36133 0.2725,-0.1225 0.54391,-0.24539 0.81641,-0.36914 0.275,-0.125 0.55187,-0.2507 0.82812,-0.37695 0.27875,-0.12875 0.5586,-0.25743 0.83985,-0.38868 0.285,-0.1325 0.57046,-0.26539 0.85547,-0.40039 0.29071,-0.136 0.58427,-0.2768 0.875,-0.41406 0,0 0.002,0 0.002,0 0,0 0,-0.002 0,-0.002 0.29922,-0.14214 0.60117,-0.28436 0.90039,-0.42774 0.31125,-0.15 0.61984,-0.29992 0.93359,-0.45117 0.32625,-0.15875 0.65031,-0.31851 0.97657,-0.47851 0.34625,-0.17 0.69156,-0.34118 1.03906,-0.51368 0,0 0,0.002 0,0.002 0.37375,-0.18625 0.7539,-0.37766 1.1289,-0.56641 0.42625,-0.215 0.8518,-0.42969 1.2793,-0.64844 0.5325,-0.27125 1.0632,-0.54281 1.5957,-0.82031 1.44875,-0.7525 2.90454,-1.52641 4.36328,-2.31641 0.852,-0.46222 1.69495,-0.92817 2.53321,-1.40039 0,0 0.002,0 0.002,0 0.51576,-0.28973 1.02955,-0.58543 1.53906,-0.8789 0.41125,-0.2375 0.82297,-0.47805 1.23047,-0.7168 0.36125,-0.2125 0.72133,-0.42492 1.08008,-0.63867 -0.7825,-0.1425 -1.58961,-0.21875 -2.41211,-0.21875 0.8225,0 1.62961,0.0743 2.41211,0.2168 0.32875,-0.19625 0.65297,-0.3911 0.98047,-0.58985 0.30875,-0.18625 0.61687,-0.37375 0.92187,-0.5625 0.29125,-0.18 0.58305,-0.36172 0.87305,-0.54297 0.28125,-0.17625 0.56109,-0.35109 0.83984,-0.52734 0,0 0.002,0 0.002,0 0.27125,-0.1725 0.53984,-0.34313 0.80859,-0.51563 0,0 0.002,0 0.002,0 0.2625,-0.16875 0.52782,-0.33906 0.78907,-0.50781 0,0 -0.002,-0.002 -0.002,-0.002 0.2575,-0.16625 0.51329,-0.3325 0.76954,-0.5 -0.29532,-0.14719 -0.59471,-0.28806 -0.89844,-0.41992 0.30373,0.13178 0.60312,0.27093 0.89844,0.41797 0.2525,-0.165 0.50265,-0.3286 0.7539,-0.4961 0.2475,-0.165 0.49328,-0.32719 0.73828,-0.49219 -0.53906,-0.29906 -1.09285,-0.57414 -1.66015,-0.82421 0.5673,0.25002 1.12109,0.52351 1.66015,0.82226 0.2425,-0.16375 0.48532,-0.32648 0.72657,-0.49023 -0.33993,-0.19694 -0.6935,-0.3706 -1.04493,-0.54883 0.35099,0.17789 0.70542,0.35038 1.04493,0.54687 0.23955,-0.16219 0.47849,-0.32483 0.71679,-0.48828 0,0 0.002,0 0.002,0 0.23581,-0.1622 0.47301,-0.32804 0.70507,-0.49023 0.235,-0.1625 0.46602,-0.32383 0.69727,-0.48633 -0.46344,-0.29844 -0.93729,-0.5818 -1.42188,-0.84766 -0.96918,-0.53171 -1.97832,-0.99765 -3.02343,-1.39062 1.04511,0.39297 2.05425,0.85891 3.02343,1.39062 0.48459,0.26586 0.95844,0.54727 1.42188,0.84571 0.23125,-0.1625 0.46266,-0.32578 0.69141,-0.48828 0.22875,-0.1625 0.45539,-0.32579 0.68164,-0.48829 0.22582,-0.16343 0.45244,-0.32484 0.67578,-0.48828 0,0 0.002,0 0.002,0 0.2258,-0.16344 0.4473,-0.32874 0.67188,-0.49218 0.21927,-0.16197 0.44086,-0.32702 0.66015,-0.49024 0,0 0.002,0 0.002,0 0.22125,-0.165 0.43624,-0.32789 0.65624,-0.49414 0,0 0.002,0 0.002,0 0.2175,-0.16375 0.43484,-0.32914 0.65234,-0.49414 0.2175,-0.16625 0.43149,-0.32984 0.64649,-0.49609 0.21375,-0.165 0.42812,-0.3318 0.64062,-0.49805 0,0 0.002,0.002 0.002,0.002 0.21375,-0.16625 0.42618,-0.33375 0.63868,-0.5 -0.61438,-0.48125 -1.24696,-0.94015 -1.89649,-1.375 0.64953,0.43485 1.28211,0.89242 1.89649,1.37305 0.2125,-0.1675 0.42281,-0.33445 0.63281,-0.50195 0.21,-0.1675 0.42141,-0.33641 0.62891,-0.50391 0.21085,-0.16968 0.41789,-0.33814 0.625,-0.50781 0,0 0.002,0 0.002,0 0.2071,-0.16844 0.41187,-0.33938 0.61523,-0.50782 0,0 0.002,0 0.002,0 0.2075,-0.17 0.41273,-0.34046 0.61523,-0.51171 0.205,-0.17125 0.41008,-0.34243 0.61133,-0.51368 0,0 0.002,0 0.002,0 0.20305,-0.1719 0.40368,-0.34372 0.60547,-0.51562 0,0 0.002,0 0.002,0 0.2025,-0.1725 0.40352,-0.34774 0.60352,-0.52149 0.2025,-0.17499 0.39961,-0.34648 0.59961,-0.52148 0.19963,-0.17468 0.39732,-0.35071 0.5957,-0.52539 0,0 0.002,0 0.002,0 0.19555,-0.17437 0.3943,-0.35492 0.58985,-0.5293 0,0 0.002,0 0.002,0 0.19589,-0.17717 0.39254,-0.35407 0.58594,-0.53125 0.19625,-0.17875 0.39023,-0.3564 0.58398,-0.53515 3.8e-4,3.2e-4 0.002,-3.3e-4 0.002,0 0.0962,-0.09 0.18961,-0.17688 0.28711,-0.26563 0.13875,-0.12875 0.27921,-0.25992 0.41796,-0.38867 z m -0.91015,0.48047 c -0.31631,0.0623 -0.63933,0.13447 -0.9668,0.21289 0,0 -0.002,0 -0.002,0 0,0 0,-0.002 0,-0.002 0.32812,-0.0786 0.65183,-0.14853 0.96875,-0.21094 z m -1.91211,0.45312 c 0.21909,0.177 0.43288,0.35971 0.64844,0.54102 -0.21544,-0.18114 -0.43069,-0.36227 -0.65039,-0.53906 -0.30375,0.0825 -0.61204,0.17258 -0.92579,0.26758 0.31375,-0.0962 0.62274,-0.18579 0.92774,-0.26954 z m -8.82813,3.42774 c -0.285,0.135 -0.56992,0.27281 -0.85742,0.41406 -0.285,0.13875 -0.56867,0.28008 -0.85742,0.42383 0.2875,-0.14375 0.57367,-0.28703 0.85742,-0.42578 0.28875,-0.14 0.57367,-0.27711 0.85742,-0.41211 z m -5.1582,2.64062 c 0.43882,0.19542 0.87041,0.40386 1.29688,0.6211 -0.427,-0.21743 -0.85946,-0.42383 -1.29883,-0.61914 0,0 0.002,-0.002 0.002,-0.002 z m -11.16211,7.07422 c 0.68031,0 1.3524,0.0378 2.01367,0.11133 -0.66129,-0.0735 -1.33336,-0.11133 -2.01367,-0.11133 z m -1.95898,0.89649 c -0.52506,0.34795 -1.05006,0.69927 -1.58008,1.05468 -10e-4,2.7e-4 -0.003,-2.7e-4 -0.004,0 0.53125,-0.35625 1.05649,-0.70718 1.58399,-1.05468 z m 1.95703,1.46289 c -0.11375,0 -0.2268,10e-4 -0.3418,0.004 -0.47344,0.01 -0.9426,0.041 -1.4043,0.0918 0.4617,-0.051 0.93086,-0.0834 1.4043,-0.0937 0.11375,-10e-4 0.22805,-0.002 0.3418,-0.002 z m -0.29102,2.36132 c -1.3625,0.0291 -2.67213,0.26077 -3.90234,0.66602 1.23029,-0.40525 2.53953,-0.63695 3.90234,-0.66602 z m -7.94531,0.89454 c -0.64946,0.42962 -1.26332,0.90891 -1.83594,1.43164 0.57259,-0.52273 1.18653,-1.00202 1.83594,-1.43164 z m 1.96484,0.66796 c -0.46386,0.24675 -0.91472,0.5129 -1.34375,0.81055 0.42864,-0.29738 0.88034,-0.56398 1.34375,-0.81055 z m -10.54882,5.13477 c 0,0 0,0.002 0,0.002 -0.21808,0.16321 -0.43669,0.32622 -0.6543,0.49024 0.21797,-0.16431 0.43656,-0.32799 0.6543,-0.49219 z"
         transform="matrix(0.8,0,0,-0.8,0,841.89)"
         id="path754" /></g><g
       transform="matrix(5.0146393,0,0,5.0146393,-2200.7841,-106.17199)"
       id="g8300"><g
         id="g8280"><path
           id="path576"
           style="fill:#e31837;fill-opacity:1;fill-rule:nonzero;stroke:none"
           d="m 480.5655,21.1728 0,6.879 0.734,0 0,-6.221 3.517,0 0,-0.658 -4.251,0 z" /><path
           id="path578"
           style="fill:#e31837;fill-opacity:1;fill-rule:nonzero;stroke:none"
           d="m 486.4866,21.1728 0,6.879 4.268,0 0,-0.657 -3.534,0 0,-2.425 3.016,0 0,-0.656 -3.016,0 0,-2.483 3.534,0 0,-0.658 -4.268,0 z" /><path
           id="path580"
           style="fill:#e31837;fill-opacity:1;fill-rule:nonzero;stroke:none"
           d="m 500.2416,26.892 c -0.36,0.368 -0.824,0.503 -1.356,0.503 l -1.497,0 0,-5.564 1.497,0 c 0.532,0 0.996,0.135 1.356,0.502 0.471,0.493 0.452,1.517 0.452,2.357 0,0.84 0.019,1.709 -0.452,2.202 m 0.509,-5.081 c -0.414,-0.415 -1.023,-0.638 -1.739,-0.638 l -2.357,0 0,6.879 2.357,0 c 0.716,0 1.325,-0.223 1.739,-0.637 0.714,-0.715 0.676,-1.768 0.676,-2.725 0,-0.957 0.038,-2.165 -0.676,-2.879" /><path
           id="path582"
           style="fill:#e31837;fill-opacity:1;fill-rule:nonzero;stroke:none"
           d="m 505.7352,28.7194 -0.637,0 0.849,1.476 0.831,0 -1.043,-1.476 z m -2.193,-7.547 0,6.88 4.269,0 0,-0.657 -3.533,0 0,-2.425 3.013,0 0,-0.656 -3.013,0 0,-2.484 3.533,0 0,-0.658 -4.269,0 z" /><path
           id="path584"
           style="fill:#e31837;fill-opacity:1;fill-rule:nonzero;stroke:none"
           d="m 512.2153,27.3952 -1.757,0 0,-2.734 1.757,0 c 0.86,0 1.459,0.463 1.459,1.371 0,0.908 -0.599,1.363 -1.459,1.363 m 0.068,-3.391 -1.825,0 0,-2.831 -0.735,0 0,6.879 2.56,0 c 1.257,0 2.127,-0.781 2.127,-2.02 0,-1.236 -0.87,-2.028 -2.127,-2.028" /><path
           id="path586"
           style="fill:#e31837;fill-opacity:1;fill-rule:nonzero;stroke:none"
           d="m 517.6807,26.998 -1.292,-3.632 2.569,0 -1.277,3.632 z m 2.04,-5.825 -0.552,1.556 -3.004,0 -0.55,-1.556 -0.781,0 2.531,6.879 0.617,0 2.521,-6.879 -0.782,0 z" /><path
           id="path588"
           style="fill:#e31837;fill-opacity:1;fill-rule:nonzero;stroke:none"
           d="m 524.5685,27.3952 -1.835,0 0,-2.523 1.835,0 c 0.801,0 1.372,0.418 1.372,1.257 0,0.84 -0.571,1.266 -1.372,1.266 m 1.382,-6.222 -1.566,3.053 -1.651,0 0,-3.053 -0.735,0 0,6.879 2.639,0 c 1.198,0 2.037,-0.724 2.037,-1.913 0,-1.005 -0.607,-1.662 -1.497,-1.846 l 1.631,-3.12 -0.858,0 z" /><path
           id="path590"
           style="fill:#e31837;fill-opacity:1;fill-rule:nonzero;stroke:none"
           d="m 530.741,27.3952 0,-6.222 -0.734,0 0,6.222 -1.991,0 0,0.657 4.714,0 0,-0.657 -1.989,0 z" /><path
           id="path592"
           style="fill:#e31837;fill-opacity:1;fill-rule:nonzero;stroke:none"
           d="m 534.401,21.1728 0,6.879 4.27,0 0,-0.657 -3.536,0 0,-2.425 3.014,0 0,-0.656 -3.014,0 0,-2.483 3.536,0 0,-0.658 -4.27,0 z" /><path
           id="path594"
           style="fill:#e31837;fill-opacity:1;fill-rule:nonzero;stroke:none"
           d="m 545.7415,21.1728 0,5.226 -1.883,-4.144 -0.629,0 -1.912,4.144 0,-5.226 -0.735,0 0,6.879 0.735,0 2.241,-4.88 2.183,4.88 0.734,0 0,-6.879 -0.734,0 z" /><path
           id="path596"
           style="fill:#e31837;fill-opacity:1;fill-rule:nonzero;stroke:none"
           d="m 548.8507,21.1728 0,6.879 4.269,0 0,-0.657 -3.534,0 0,-2.425 3.015,0 0,-0.656 -3.015,0 0,-2.483 3.534,0 0,-0.658 -4.269,0 z" /><path
           id="path598"
           style="fill:#e31837;fill-opacity:1;fill-rule:nonzero;stroke:none"
           d="m 559.4173,21.1728 -3.651,5.518 0,-5.518 -0.732,0 0,6.879 0.693,0 3.654,-5.497 0,5.497 0.733,0 0,-6.879 -0.697,0 z" /><path
           id="path600"
           style="fill:#e31837;fill-opacity:1;fill-rule:nonzero;stroke:none"
           d="m 564.5082,27.3952 0,-6.222 -0.734,0 0,6.222 -1.99,0 0,0.657 4.714,0 0,-0.657 -1.99,0 z" /></g><g
         id="g8272"><path
           id="path842"
           style="fill:#e31837;fill-opacity:1;fill-rule:nonzero;stroke:none"
           d="m 490.426,41.655 c -0.052,0.58 -0.247,1.046 -0.606,1.352 -0.331,0.303 -0.801,0.469 -1.38,0.469 -2.098,0 -2.403,-1.821 -2.403,-3.563 0,-1.739 0.305,-3.533 2.403,-3.533 1.186,0 2.014,0.968 2.126,2.1 l 5.218,0 c -0.525,-3.893 -3.59,-6.074 -7.454,-6.074 -4.307,0 -7.758,2.981 -7.758,7.507 0,4.529 3.451,7.539 7.758,7.539 3.753,0 6.956,-1.851 7.287,-5.797 l -5.191,0 z" /><path
           id="path844"
           style="fill:#e31837;fill-opacity:1;fill-rule:nonzero;stroke:none"
           d="m 506.7698,39.1962 c -0.66,-0.33 -1.406,-0.524 -2.153,-0.689 -1.214,-0.277 -1.849,-0.58 -1.849,-1.548 0,-0.662 0.718,-1.324 1.712,-1.324 1.242,0 2.207,0.745 2.29,2.238 l 0,1.323 z m 5.247,-3.23 c 0,-1.077 0.054,-2.291 0.66,-3.202 l -5.575,0 c -0.138,0.387 -0.221,0.967 -0.193,1.351 l -0.056,0 c -1.158,-1.323 -2.843,-1.71 -4.609,-1.71 -2.761,0 -5.053,1.326 -5.053,4.334 0,4.527 5.301,4.363 8.09,4.886 0.744,0.139 1.489,0.36 1.489,1.271 0,0.966 -0.911,1.326 -1.794,1.326 -1.682,0 -2.013,-0.857 -2.043,-1.465 l -5.08,0 c 0.166,4.03 3.976,4.694 7.372,4.694 6.846,0 6.792,-2.843 6.792,-5.605 l 0,-5.88 z" /><path
           id="path846"
           style="fill:#e31837;fill-opacity:1;fill-rule:nonzero;stroke:none"
           d="m 514.9146,47.093 5.274,0 0,-1.823 0.055,0 c 1.022,1.435 2.483,2.182 4.665,2.182 2.569,0 4.915,-1.574 4.915,-4.858 l 0,-9.83 -5.467,0 0,7.51 c 0,1.656 -0.195,2.816 -1.794,2.816 -0.939,0 -2.182,-0.468 -2.182,-2.761 l 0,-7.565 -5.466,0 0,14.329 z" /><path
           id="path848"
           style="fill:#e31837;fill-opacity:1;fill-rule:nonzero;stroke:none"
           d="m 539.375,47.093 2.927,0 0,-3.368 -2.927,0 0,-4.997 c 0,-1.325 0.303,-1.906 1.682,-1.906 0.415,0 0.83,0.028 1.245,0.083 l 0,-4.141 c -1.105,0 -2.346,-0.166 -3.508,-0.166 -2.318,0 -4.885,0.358 -4.885,4.28 l 0,6.847 -2.431,0 0,3.368 2.431,0 0,4.362 5.466,0 0,-4.362 z" /><path
           id="path850"
           style="fill:#e31837;fill-opacity:1;fill-rule:nonzero;stroke:none"
           d="m 552.7651,39.1962 c -0.664,-0.33 -1.409,-0.524 -2.154,-0.689 -1.215,-0.277 -1.849,-0.58 -1.849,-1.548 0,-0.662 0.717,-1.324 1.711,-1.324 1.242,0 2.209,0.745 2.292,2.238 l 0,1.323 z m 5.245,-3.23 c 0,-1.077 0.056,-2.291 0.661,-3.202 l -5.574,0 c -0.138,0.387 -0.223,0.967 -0.194,1.351 l -0.056,0 c -1.16,-1.323 -2.843,-1.71 -4.611,-1.71 -2.759,0 -5.053,1.326 -5.053,4.334 0,4.527 5.301,4.363 8.092,4.886 0.744,0.139 1.49,0.36 1.49,1.271 0,0.966 -0.912,1.326 -1.796,1.326 -1.681,0 -2.015,-0.857 -2.043,-1.465 l -5.079,0 c 0.164,4.03 3.975,4.694 7.371,4.694 6.848,0 6.792,-2.843 6.792,-5.605 l 0,-5.88 z" /><path
           id="path852"
           style="fill:#e31837;fill-opacity:1;fill-rule:nonzero;stroke:none"
           d="m 561.017,32.764 5.469,0 0,19.711 -5.469,0 0,-19.711 z" /></g></g></g></svg>