<?xml version="1.0" encoding="UTF-8" standalone="no"?>
<!-- Created with Inkscape (http://www.inkscape.org/) -->

<svg
   xmlns:dc="http://purl.org/dc/elements/1.1/"
   xmlns:cc="http://creativecommons.org/ns#"
   xmlns:rdf="http://www.w3.org/1999/02/22-rdf-syntax-ns#"
   xmlns:svg="http://www.w3.org/2000/svg"
   xmlns="http://www.w3.org/2000/svg"
   xmlns:sodipodi="http://sodipodi.sourceforge.net/DTD/sodipodi-0.dtd"
   xmlns:inkscape="http://www.inkscape.org/namespaces/inkscape"
   id="svg2"
   version="1.1"
   inkscape:version="0.91 r13725"
   xml:space="preserve"
   width="800"
   height="323"
   viewBox="0 0 800 323"
   sodipodi:docname="Logo Département Dordogne.svg"><metadata
     id="metadata8"><rdf:RDF><cc:Work
         rdf:about=""><dc:format>image/svg+xml</dc:format><dc:type
           rdf:resource="http://purl.org/dc/dcmitype/StillImage" /><dc:title></dc:title></cc:Work></rdf:RDF></metadata><defs
     id="defs6" /><sodipodi:namedview
     pagecolor="#ffffff"
     bordercolor="#666666"
     borderopacity="1"
     objecttolerance="10"
     gridtolerance="10"
     guidetolerance="10"
     inkscape:pageopacity="0"
     inkscape:pageshadow="2"
     inkscape:window-width="1440"
     inkscape:window-height="790"
     id="namedview4"
     showgrid="false"
     inkscape:zoom="0.73017618"
     inkscape:cx="326.29695"
     inkscape:cy="217.41931"
     inkscape:window-x="0"
     inkscape:window-y="1"
     inkscape:window-maximized="1"
     inkscape:current-layer="g10" /><g
     id="g10"
     inkscape:groupmode="layer"
     inkscape:label="Logo Département Dordogne"
     transform="matrix(0,1.25,1.25,0,0,-591.17499)"><g
       id="g5087"
       transform="matrix(4.2262522,0,0,4.2262522,-1656.151,-1582.2328)"><path
         inkscape:connector-curvature="0"
         id="path610"
         style="fill:#c0273f;fill-opacity:1;fill-rule:nonzero;stroke:none"
         d="m 529.44,381.096 c 0,3.5568 -2.094,5.3352 -6.2832,5.3352 -3.564,0 -5.346,-1.7784 -5.346,-5.3352 l 0,-3.5376 11.6292,0 0,3.5376 z m 2.7576,-6.714 -17.1444,0 0,6.714 c 0,5.6748 2.7012,8.5116 8.1036,8.5116 6.0276,0 9.0408,-2.8368 9.0408,-8.5116 l 0,-6.714" /><path
         inkscape:connector-curvature="0"
         id="path612"
         style="fill:#c0273f;fill-opacity:1;fill-rule:nonzero;stroke:none"
         d="m 529.8,397.6416 c 0,2.0376 -1.3152,3.0564 -3.9444,3.0564 -2.5656,0 -3.8496,-1.0188 -3.8496,-3.0564 0,-2.0388 1.284,-3.0576 3.8496,-3.0576 2.6292,0 3.9444,1.0188 3.9444,3.0576 z m -3.8976,-6.2352 c -4.2192,0 -6.33,2.0784 -6.33,6.2352 0,4.1556 2.1108,6.234 6.33,6.234 4.2132,0 6.3192,-2.0784 6.3192,-6.234 0,-4.1412 -2.106,-6.2184 -6.3192,-6.2352" /><path
         inkscape:connector-curvature="0"
         id="path614"
         style="fill:#c0273f;fill-opacity:1;fill-rule:nonzero;stroke:none"
         d="m 532.1976,406.2732 -12.5892,0 0,2.4576 1.6068,0.396 c -1.0704,1.1028 -1.6068,2.2692 -1.6068,3.5004 l 2.5656,0 c 0,-1.1832 0.492,-2.2416 1.476,-3.1764 l 8.5476,0 0,-3.1776" /><path
         inkscape:connector-curvature="0"
         id="path616"
         style="fill:#c0273f;fill-opacity:1;fill-rule:nonzero;stroke:none"
         d="m 522.894,422.3988 c -0.4308,-0.6552 -0.648,-1.4796 -0.648,-2.4696 0,-1.974 1.1076,-2.9616 3.3216,-2.9616 2.6292,0 3.9444,1.0272 3.9444,3.0816 0,0.8304 -0.1164,1.614 -0.348,2.3496 l -6.27,0 z m 8.5476,3.1764 c 0.504,-1.926 0.756,-3.8076 0.756,-5.646 0,-4.0692 -2.1816,-6.1032 -6.546,-6.1032 -4.0284,0 -6.0432,1.9908 -6.0432,5.9712 0,0.8472 0.2004,1.7136 0.6,2.6016 l -5.1552,0 0,3.1764 16.3884,0" /><path
         inkscape:connector-curvature="0"
         id="path618"
         style="fill:#c0273f;fill-opacity:1;fill-rule:nonzero;stroke:none"
         d="m 529.8,434.208 c 0,2.0376 -1.3152,3.0576 -3.9444,3.0576 -2.5656,0 -3.8496,-1.02 -3.8496,-3.0576 0,-2.0376 1.284,-3.0576 3.8496,-3.0576 2.6292,0 3.9444,1.02 3.9444,3.0576 z m -3.8976,-6.234 c -4.2192,0 -6.33,2.0772 -6.33,6.234 0,4.1568 2.1108,6.2352 6.33,6.2352 4.2132,0 6.3192,-2.0784 6.3192,-6.2352 0,-4.1412 -2.106,-6.2184 -6.3192,-6.234" /><path
         inkscape:connector-curvature="0"
         id="path620"
         style="fill:#c0273f;fill-opacity:1;fill-rule:nonzero;stroke:none"
         d="m 522.4632,450.8964 c -0.1932,-0.5196 -0.2892,-1.2588 -0.2892,-2.2164 0,-2.1984 1.212,-3.2976 3.6336,-3.2976 2.3412,0 3.5124,0.9468 3.5124,2.8404 0,0.912 -0.216,1.8024 -0.6468,2.6736 l -6.21,0 z m 8.7756,3.1776 c 3.6768,0 5.5152,-2.2092 5.5152,-6.63 0,-1.5504 -0.2004,-2.9256 -0.6,-4.1244 l -2.5188,0 c 0.4008,1.2228 0.6,2.6064 0.6,4.1484 0,2.286 -0.9588,3.4284 -2.8776,3.4284 0.4008,-0.9432 0.6,-1.9572 0.6,-3.0444 0,-3.7404 -2.0424,-5.6112 -6.126,-5.6112 -4.1484,0 -6.2232,2.178 -6.2232,6.534 0,1.4628 0.1716,3.2292 0.516,5.2992 l 11.1144,0" /><path
         inkscape:connector-curvature="0"
         id="path622"
         style="fill:#c0273f;fill-opacity:1;fill-rule:nonzero;stroke:none"
         d="m 532.1976,457.0716 -12.5892,0 0,2.4576 1.8468,0.396 c -1.2312,1.2072 -1.8468,2.5812 -1.8468,4.1244 0,2.9808 1.5516,4.4712 4.6524,4.4712 l 7.9368,0 0,-3.1764 -7.9368,0 c -1.3908,0 -2.0868,-0.6912 -2.0868,-2.0748 0,-1.0308 0.4128,-2.0376 1.236,-3.0216 l 8.7876,0 0,-3.1764" /><path
         inkscape:connector-curvature="0"
         id="path624"
         style="fill:#c0273f;fill-opacity:1;fill-rule:nonzero;stroke:none"
         d="m 524.8116,474.096 0,5.3712 -0.0948,0 c -1.7424,0 -2.6136,-0.8796 -2.6136,-2.6376 0,-1.6788 0.9024,-2.5896 2.7084,-2.7336 z m -5.2032,2.7336 c 0,3.8208 1.95,5.7312 5.8512,5.7312 0.5196,0 1.0392,-0.036 1.5588,-0.108 l 0,-8.3568 c 1.7748,0 2.6616,1.3032 2.6616,3.9084 0,1.2708 -0.12,2.5416 -0.36,3.8124 l 2.5176,0 c 0.24,-1.1112 0.36,-2.4612 0.36,-4.0524 0,-4.5636 -2.1468,-6.846 -6.438,-6.846 -4.1004,0 -6.1512,1.9704 -6.1512,5.9112" /></g><g
       id="g5077"
       transform="matrix(4.2262522,0,0,4.2262522,-1656.151,-1582.2328)"><path
         inkscape:connector-curvature="0"
         id="path626"
         style="fill:#5a5758;fill-opacity:1;fill-rule:nonzero;stroke:none"
         d="m 550.8276,402.2016 -11.6064,0 0,5.4576 c 0,2.49 1.0908,3.7344 3.2712,3.7344 2.3652,0 3.7956,-1.7028 4.2936,-5.1072 l -1.9152,-0.324 c -0.3516,2.046 -1.1232,3.0696 -2.3136,3.0696 -0.9624,0 -1.4448,-0.5064 -1.4448,-1.518 l 0,-3.0528 9.7152,0 0,-2.2596" /><path
         inkscape:connector-curvature="0"
         id="path628"
         style="fill:#5a5758;fill-opacity:1;fill-rule:nonzero;stroke:none"
         d="m 536.1372,417.7332 0,2.7204 2.1024,-2.0388 0,-1.9092 -2.1024,1.2276 z m 3.084,4.374 1.8504,0 0,-6.1056 2.9232,0 0,5.8164 1.9236,0 0,-5.8416 3.0432,0 0,6.2508 1.866,0 0,-8.4672 -11.6064,0 0,8.3472" /><path
         inkscape:connector-curvature="0"
         id="path630"
         style="fill:#5a5758;fill-opacity:1;fill-rule:nonzero;stroke:none"
         d="m 550.812,425.1888 -11.5908,0 0,5.5428 c 0,2.49 1.0368,3.7344 3.1092,3.7344 1.4016,0 2.562,-0.9684 3.4812,-2.9076 l 5.016,3.864 0,-2.8488 -5.0556,-3.7092 -0.9828,0 c -0.3516,2.16 -1.1496,3.24 -2.394,3.24 -0.8544,0 -1.2828,-0.5052 -1.2828,-1.5168 l 0,-3.096 9.6996,0 0,-2.3028" /><path
         inkscape:connector-curvature="0"
         id="path632"
         style="fill:#5a5758;fill-opacity:1;fill-rule:nonzero;stroke:none"
         d="m 539.2212,437.3616 11.60672,0 0,2.25984 -11.60672,0 0,-2.25984 z" /><path
         inkscape:connector-curvature="0"
         id="path634"
         style="fill:#5a5758;fill-opacity:1;fill-rule:nonzero;stroke:none"
         d="m 550.2924,452.7732 c 0.4116,-0.984 0.6168,-2.214 0.6168,-3.6924 0,-4.3032 -2.0148,-6.4548 -6.0468,-6.4548 -3.8148,0 -5.7216,2.1888 -5.7216,6.5652 0,1.3368 0.1884,2.5296 0.5676,3.582 l 1.9476,0 c -0.432,-1.0524 -0.6492,-2.1888 -0.6492,-3.4116 0,-2.9268 1.2864,-4.3908 3.8556,-4.3908 2.7876,0 4.1808,1.3812 4.1808,4.1448 0,0.4092 -0.0648,0.8748 -0.1956,1.398 l -3.3756,0 0,2.2596 4.8204,0" /><path
         inkscape:connector-curvature="0"
         id="path636"
         style="fill:#5a5758;fill-opacity:1;fill-rule:nonzero;stroke:none"
         d="m 549.0432,461.4744 c 0,2.4552 -1.35,3.684 -4.05,3.684 -2.658,0 -3.9864,-1.2288 -3.9864,-3.684 0,-2.5188 1.3284,-3.7776 3.9864,-3.7776 2.7,0 4.05,1.2588 4.05,3.7776 z m -4.002,-6.1224 c -3.9336,0 -5.9004,2.0412 -5.9004,6.1224 0,4.0188 1.9668,6.0288 5.9004,6.0288 3.912,0 5.868,-2.01 5.868,-6.0288 0,-3.9 -1.956,-5.94 -5.868,-6.1224" /><path
         inkscape:connector-curvature="0"
         id="path638"
         style="fill:#5a5758;fill-opacity:1;fill-rule:nonzero;stroke:none"
         d="m 550.812,470.508 -11.5908,0 0,5.5428 c 0,2.49 1.0368,3.7344 3.1092,3.7344 1.4016,0 2.562,-0.9684 3.4812,-2.9076 l 5.016,3.8628 0,-2.8476 -5.0556,-3.7092 -0.9828,0 c -0.3516,2.16 -1.1496,3.24 -2.394,3.24 -0.8544,0 -1.2828,-0.5052 -1.2828,-1.518 l 0,-3.0948 9.6996,0 0,-2.3028" /><path
         inkscape:connector-curvature="0"
         id="path640"
         style="fill:#5a5758;fill-opacity:1;fill-rule:nonzero;stroke:none"
         d="m 548.9616,487.4556 c 0,2.5284 -1.4172,3.7944 -4.254,3.7944 -2.412,0 -3.6192,-1.266 -3.6192,-3.7944 l 0,-2.5164 7.8732,0 0,2.5164 z m 1.866,-4.776 -11.6064,0 0,4.776 c 0,4.0356 1.8288,6.054 5.4864,6.054 4.08,0 6.12,-2.0184 6.12,-6.054 l 0,-4.776" /></g><g
       id="g5060"
       transform="matrix(4.2262522,0,0,4.2262522,-1656.151,-1582.2328)"><path
         inkscape:connector-curvature="0"
         id="path642"
         style="fill:#89a320;fill-opacity:1;fill-rule:nonzero;stroke:none"
         d="m 564.9192,454.314 0,-79.6944 -10.2276,0 0,77.4888 10.2276,2.2056" /><path
         inkscape:connector-curvature="0"
         id="path644"
         style="fill:#89a320;fill-opacity:1;fill-rule:nonzero;stroke:none"
         d="m 564.9192,456.7272 0,-1.44 -10.2276,-2.148 0,1.3848 10.2276,2.2032" /></g><g
       id="g5045"
       transform="matrix(4.2262522,0,0,4.2262522,-1656.151,-1582.2328)"><path
         inkscape:connector-curvature="0"
         id="path646"
         style="fill:#ffffff;fill-opacity:1;fill-rule:nonzero;stroke:none"
         d="m 557.1672,379.6968 4.3668,0 0,2.3316 0.8364,0 0,-3.4188 -5.2032,0 0,1.0872" /><path
         inkscape:connector-curvature="0"
         id="path648"
         style="fill:#ffffff;fill-opacity:1;fill-rule:nonzero;stroke:none"
         d="m 557.1672,387.0744 0.8292,0 0,-2.9388 1.3104,0 0,2.7996 0.8616,0 0,-2.8128 1.3656,0 0,3.0096 0.8364,0 0,-4.0764 -5.2032,0 0,4.0188" /><path
         inkscape:connector-curvature="0"
         id="path650"
         style="fill:#ffffff;fill-opacity:1;fill-rule:nonzero;stroke:none"
         d="m 561.534,392.2836 c 0,1.218 -0.636,1.8264 -1.908,1.8264 -1.0812,0 -1.6224,-0.6084 -1.6224,-1.8264 l 0,-1.2108 3.5304,0 0,1.2108 z m 0.8364,-2.298 -5.2032,0 0,2.298 c 0,1.9428 0.8196,2.9148 2.4588,2.9148 1.8288,0 2.7444,-0.972 2.7444,-2.9148 l 0,-2.298" /><path
         inkscape:connector-curvature="0"
         id="path652"
         style="fill:#ffffff;fill-opacity:1;fill-rule:nonzero;stroke:none"
         d="m 555.7836,398.0352 0,1.3104 0.9432,-0.9816 0,-0.9192 -0.9432,0.5904 z m 1.3836,2.106 0.8292,0 0,-2.9388 1.3104,0 0,2.7996 0.8616,0 0,-2.8128 1.3656,0 0,3.0096 0.8364,0 0,-4.0764 -5.2032,0 0,4.0188" /><path
         inkscape:connector-curvature="0"
         id="path654"
         style="fill:#ffffff;fill-opacity:1;fill-rule:nonzero;stroke:none"
         d="m 562.3704,401.2044 -5.2032,0 0,2.628 c 0,1.1976 0.4884,1.7976 1.4652,1.7976 1.0608,0 1.7028,-0.8196 1.926,-2.46 l -0.8592,-0.1548 c -0.1572,0.9852 -0.504,1.4772 -1.0368,1.4772 -0.432,0 -0.648,-0.2436 -0.648,-0.7308 l 0,-1.47 4.356,0 0,-1.0872" /><path
         inkscape:connector-curvature="0"
         id="path656"
         style="fill:#ffffff;fill-opacity:1;fill-rule:nonzero;stroke:none"
         d="m 562.3704,406.3356 0,-1.1172 -5.2032,2.4924 0,1.17 5.2032,2.5452 0,-1.17 -1.4196,-0.6684 0,-1.9512 -0.8364,0.3744 0,1.182 -1.9548,-0.924 4.2108,-1.9332" /><path
         inkscape:connector-curvature="0"
         id="path658"
         style="fill:#ffffff;fill-opacity:1;fill-rule:nonzero;stroke:none"
         d="m 562.3632,412.1448 -5.196,0 0,2.6676 c 0,1.2 0.4644,1.7988 1.3932,1.7988 0.6288,0 1.1484,-0.4668 1.5612,-1.4004 l 2.2488,1.86 0,-1.3716 -2.2668,-1.7844 -0.4404,0 c -0.1584,1.0392 -0.516,1.5588 -1.074,1.5588 -0.3828,0 -0.5748,-0.2436 -0.5748,-0.7296 l 0,-1.4904 4.3488,0 0,-1.1088" /><path
         inkscape:connector-curvature="0"
         id="path660"
         style="fill:#ffffff;fill-opacity:1;fill-rule:nonzero;stroke:none"
         d="m 557.1672,421.4232 0.8364,0 0,-1.6836 4.3668,0 0,-1.0884 -4.3668,0 0,-1.6836 -0.8364,0 0,4.4556" /><path
         inkscape:connector-curvature="0"
         id="path662"
         style="fill:#ffffff;fill-opacity:1;fill-rule:nonzero;stroke:none"
         d="m 557.1672,426.0576 0.8292,0 0,-2.94 1.3104,0 0,2.8008 0.8616,0 0,-2.8128 1.3656,0 0,3.0096 0.8364,0 0,-4.0776 -5.2032,0 0,4.02" /><path
         inkscape:connector-curvature="0"
         id="path664"
         style="fill:#ffffff;fill-opacity:1;fill-rule:nonzero;stroke:none"
         d="m 562.3704,427.1208 -5.2032,0 0,1.128 3.948,1.992 -3.948,1.95 0,1.0872 5.2032,0 0,-1.0056 -3.6252,0 3.6252,-1.5924 0,-0.9276 -3.6252,-1.626 3.6252,0 0,-1.0056" /><path
         inkscape:connector-curvature="0"
         id="path666"
         style="fill:#ffffff;fill-opacity:1;fill-rule:nonzero;stroke:none"
         d="m 557.1672,438.5292 0.8292,0 0,-2.94 1.3104,0 0,2.7996 0.8616,0 0,-2.8116 1.3656,0 0,3.0096 0.8364,0 0,-4.0764 -5.2032,0 0,4.0188" /><path
         inkscape:connector-curvature="0"
         id="path668"
         style="fill:#ffffff;fill-opacity:1;fill-rule:nonzero;stroke:none"
         d="m 562.3704,439.5924 -5.2032,0 0,1.0884 3.792,3.0984 -3.792,0 0,1.0476 5.2032,0 0,-1.0884 -3.8724,-3.0996 3.8724,0 0,-1.0464" /><path
         inkscape:connector-curvature="0"
         id="path670"
         style="fill:#ffffff;fill-opacity:1;fill-rule:nonzero;stroke:none"
         d="m 557.1672,449.8968 0.8364,0 0,-1.6836 4.3668,0 0,-1.0884 -4.3668,0 0,-1.6824 -0.8364,0 0,4.4544" /></g><g
       id="g5064"
       transform="matrix(4.2262522,0,0,4.2262522,-1656.151,-1582.2328)"><path
         inkscape:connector-curvature="0"
         id="path672"
         style="fill:#231f20;fill-opacity:1;fill-rule:nonzero;stroke:none"
         d="m 558.8448,459.3684 c -0.12,-0.1872 -0.18,-0.4236 -0.18,-0.7092 0,-0.5688 0.3084,-0.8532 0.9228,-0.8532 0.7308,0 1.098,0.2964 1.098,0.888 0,0.2388 -0.0324,0.4644 -0.0972,0.6744 l -1.7436,0 z m 2.3772,0.9156 c 0.1404,-0.5544 0.21,-1.0968 0.21,-1.6248 0,-1.1712 -0.6072,-1.7556 -1.8204,-1.7556 -1.1196,0 -1.68,0.5724 -1.68,1.7172 0,0.2436 0.054,0.4932 0.1668,0.7476 l -1.4352,0 0,0.9156 4.5588,0" /><path
         inkscape:connector-curvature="0"
         id="path674"
         style="fill:#231f20;fill-opacity:1;fill-rule:nonzero;stroke:none"
         d="m 560.7648,462.7668 c 0,0.5868 -0.366,0.8796 -1.0968,0.8796 -0.714,0 -1.0704,-0.2928 -1.0704,-0.8796 0,-0.5868 0.3564,-0.8796 1.0704,-0.8796 0.7308,0 1.0968,0.2928 1.0968,0.8796 z m -1.0836,-1.794 c -1.1736,0 -1.7604,0.5988 -1.7604,1.794 0,1.1964 0.5868,1.794 1.7604,1.794 1.1712,0 1.7568,-0.5976 1.7568,-1.794 0,-1.1916 -0.5856,-1.7892 -1.7568,-1.794" /><path
         inkscape:connector-curvature="0"
         id="path676"
         style="fill:#231f20;fill-opacity:1;fill-rule:nonzero;stroke:none"
         d="m 561.432,465.2508 -3.5004,0 0,0.7068 0.4464,0.114 c -0.2988,0.3168 -0.4464,0.654 -0.4464,1.0068 l 0.7128,0 c 0,-0.3396 0.1356,-0.6444 0.4104,-0.9132 l 2.3772,0 0,-0.9144" /><path
         inkscape:connector-curvature="0"
         id="path678"
         style="fill:#231f20;fill-opacity:1;fill-rule:nonzero;stroke:none"
         d="m 558.8448,469.89 c -0.12,-0.1884 -0.18,-0.426 -0.18,-0.7104 0,-0.5688 0.3084,-0.852 0.9228,-0.852 0.7308,0 1.098,0.2952 1.098,0.8856 0,0.24 -0.0324,0.4644 -0.0972,0.6768 l -1.7436,0 z m 2.3772,0.9132 c 0.1404,-0.5532 0.21,-1.0944 0.21,-1.6236 0,-1.1712 -0.6072,-1.7556 -1.8204,-1.7556 -1.1196,0 -1.68,0.5724 -1.68,1.7184 0,0.2424 0.054,0.4932 0.1668,0.7476 l -1.4352,0 0,0.9132 4.5588,0" /><path
         inkscape:connector-curvature="0"
         id="path680"
         style="fill:#231f20;fill-opacity:1;fill-rule:nonzero;stroke:none"
         d="m 560.7648,473.2872 c 0,0.5868 -0.366,0.8796 -1.0968,0.8796 -0.714,0 -1.0704,-0.2928 -1.0704,-0.8796 0,-0.5856 0.3564,-0.8796 1.0704,-0.8796 0.7308,0 1.0968,0.294 1.0968,0.8796 z m -1.0836,-1.794 c -1.1736,0 -1.7604,0.5976 -1.7604,1.794 0,1.1952 0.5868,1.7928 1.7604,1.7928 1.1712,0 1.7568,-0.5976 1.7568,-1.7928 0,-1.1904 -0.5856,-1.7892 -1.7568,-1.794" /><path
         inkscape:connector-curvature="0"
         id="path682"
         style="fill:#231f20;fill-opacity:1;fill-rule:nonzero;stroke:none"
         d="m 558.7248,478.0884 c -0.054,-0.1488 -0.0804,-0.3624 -0.0804,-0.6372 0,-0.6324 0.336,-0.9492 1.0104,-0.9492 0.6504,0 0.9768,0.2736 0.9768,0.8172 0,0.2628 -0.06,0.5196 -0.18,0.7692 l -1.7268,0 z m 2.4396,0.9144 c 1.0224,0 1.5348,-0.636 1.5348,-1.908 0,-0.4452 -0.0564,-0.8412 -0.1668,-1.1856 l -0.7008,0 c 0.1116,0.3516 0.1668,0.7488 0.1668,1.194 0,0.6564 -0.2664,0.9852 -0.7992,0.9852 0.1104,-0.2712 0.1656,-0.5628 0.1656,-0.876 0,-1.0764 -0.5676,-1.614 -1.704,-1.614 -1.1532,0 -1.7292,0.6264 -1.7292,1.8792 0,0.4212 0.0468,0.93 0.1428,1.5252 l 3.09,0" /><path
         inkscape:connector-curvature="0"
         id="path684"
         style="fill:#231f20;fill-opacity:1;fill-rule:nonzero;stroke:none"
         d="m 561.432,479.8656 -3.5004,0 0,0.7068 0.5124,0.114 c -0.342,0.3468 -0.5124,0.7416 -0.5124,1.1868 0,0.8568 0.4308,1.2852 1.2924,1.2852 l 2.208,0 0,-0.9132 -2.208,0 c -0.3864,0 -0.5796,-0.1992 -0.5796,-0.5976 0,-0.2952 0.114,-0.5856 0.3432,-0.8688 l 2.4444,0 0,-0.9132" /><path
         inkscape:connector-curvature="0"
         id="path686"
         style="fill:#231f20;fill-opacity:1;fill-rule:nonzero;stroke:none"
         d="m 559.3776,484.764 0,1.5444 -0.0264,0 c -0.4848,0 -0.7272,-0.2532 -0.7272,-0.7584 0,-0.4836 0.252,-0.7452 0.7536,-0.786 z m -1.446,0.786 c 0,1.0992 0.5412,1.6476 1.626,1.6476 0.1452,0 0.2892,-0.01 0.4332,-0.03 l 0,-2.4036 c 0.4944,0 0.7404,0.3744 0.7404,1.1232 0,0.366 -0.0336,0.732 -0.0996,1.098 l 0.7008,0 c 0.066,-0.3204 0.0996,-0.7092 0.0996,-1.1664 0,-1.3128 -0.5976,-1.9692 -1.7904,-1.9692 -1.14,0 -1.71,0.5664 -1.71,1.7004" /><path
         inkscape:connector-curvature="0"
         id="path688"
         style="fill:#231f20;fill-opacity:1;fill-rule:nonzero;stroke:none"
         d="m 560.6148,487.7988 0.81703,0 0,0.91406 -0.81703,0 0,-0.91406 z" /><path
         inkscape:connector-curvature="0"
         id="path690"
         style="fill:#231f20;fill-opacity:1;fill-rule:nonzero;stroke:none"
         d="m 561.432,489.4884 -3.5004,0 c -0.9612,0 -1.4412,0.5436 -1.4412,1.6284 0,0.2976 0.0444,0.5664 0.1344,0.8076 l 0.6996,0 c -0.0888,-0.2268 -0.1344,-0.4752 -0.1344,-0.7416 0,-0.5196 0.2472,-0.78 0.7416,-0.78 l 0,1.0872 0.6996,0 0,-1.0872 2.8008,0 0,-0.9144" /><path
         inkscape:connector-curvature="0"
         id="path692"
         style="fill:#231f20;fill-opacity:1;fill-rule:nonzero;stroke:none"
         d="m 561.432,491.8044 -3.5004,0 0,0.7056 0.4464,0.1152 c -0.2988,0.3168 -0.4464,0.6516 -0.4464,1.0068 l 0.7128,0 c 0,-0.3396 0.1356,-0.6456 0.4104,-0.9144 l 2.3772,0 0,-0.9132" /></g><g
       id="g5109"
       transform="matrix(4.2262522,0,0,4.2262522,-1656.151,-1582.2328)"><path
         inkscape:connector-curvature="0"
         id="path694"
         style="fill:#c0273f;fill-opacity:1;fill-rule:nonzero;stroke:none"
         d="m 522.24,485.9016 c 0,0 2.7432,35.8752 33.4248,38.2176 1.8012,0.1368 3.6492,0.2004 6.1812,-0.06 0.3996,-0.0408 0.9852,0.2664 1.3908,0.2124 0,0 -1.6164,2.076 -10.0764,1.4148 -6.2352,-0.4872 -16.992,-1.3836 -28.3164,-7.9752 0,0 -8.8884,7.6176 -20.946,4.3356 0,0 20.5176,-5.3928 19.6716,-14.0676 0,0 -3.3432,-22.9476 -1.3296,-22.0776" /><path
         inkscape:connector-curvature="0"
         id="path696"
         style="fill:#c0273f;fill-opacity:1;fill-rule:nonzero;stroke:none"
         d="m 546.5712,511.6992 c 0,0 -7.1916,6.1356 -5.1828,-1.2684 0,0 5.5932,-10.2036 21.9924,-17.1612 0,0 -9.9804,10.4088 -16.8096,18.4296" /><path
         inkscape:connector-curvature="0"
         id="path698"
         style="fill:#5a5758;fill-opacity:1;fill-rule:nonzero;stroke:none"
         d="m 518.4504,510.8676 c 1.578,-0.612 2.172,-2.898 1.3176,-5.106 -0.8532,-2.2068 -2.8224,-3.4992 -4.4064,-2.8884 -1.578,0.6108 -2.166,2.892 -1.3116,5.0988 0.8448,2.2128 2.8176,3.5064 4.4004,2.8956" /><path
         inkscape:connector-curvature="0"
         id="path700"
         style="fill:#89a320;fill-opacity:1;fill-rule:nonzero;stroke:none"
         d="m 528.9792,490.5612 c 1.2996,6.072 2.7924,13.2048 6.1908,18.948 3.8664,7.6488 11.3148,10.6632 18.9384,11.0184 -2.5692,0.306 -4.9392,-0.1392 -7.2468,-0.5892 -13.5,-3.4032 -16.8468,-17.7168 -19.7304,-29.3652 l 1.848,-0.012" /><path
         inkscape:connector-curvature="0"
         id="path702"
         style="fill:#c0273f;fill-opacity:1;fill-rule:nonzero;stroke:none"
         d="m 528.678,489.1344 c 2.3196,11.6256 5.1672,26.478 18.6336,30.4344 2.1672,0.4476 4.3032,1.0272 6.6252,0.924 -7.7652,-0.3396 -15.6072,-5.3376 -18.5568,-12.6996 -2.5176,-5.7408 -3.942,-12.0192 -4.8852,-18.654 l -1.8168,-0.005" /></g></g></svg>