<?xml version="1.0" encoding="UTF-8" standalone="no"?>
<!-- Created with Inkscape (http://www.inkscape.org/) -->

<svg
   xmlns:dc="http://purl.org/dc/elements/1.1/"
   xmlns:cc="http://creativecommons.org/ns#"
   xmlns:rdf="http://www.w3.org/1999/02/22-rdf-syntax-ns#"
   xmlns:svg="http://www.w3.org/2000/svg"
   xmlns="http://www.w3.org/2000/svg"
   xmlns:xlink="http://www.w3.org/1999/xlink"
   xmlns:sodipodi="http://sodipodi.sourceforge.net/DTD/sodipodi-0.dtd"
   xmlns:inkscape="http://www.inkscape.org/namespaces/inkscape"
   id="svg2"
   version="1.1"
   inkscape:version="0.91 r13725"
   xml:space="preserve"
   width="600"
   height="172.3"
   viewBox="0 0 600 172.3"
   sodipodi:docname="Logo Département Allier.svg"><metadata
     id="metadata8"><rdf:RDF><cc:Work
         rdf:about=""><dc:format>image/svg+xml</dc:format><dc:type
           rdf:resource="http://purl.org/dc/dcmitype/StillImage" /><dc:title></dc:title></cc:Work></rdf:RDF></metadata><defs
     id="defs6"><linearGradient
       inkscape:collect="always"
       id="linearGradient4674"><stop
         style="stop-color:#fcfcfc;stop-opacity:1"
         offset="0"
         id="stop4676" /><stop
         style="stop-color:#292526;stop-opacity:1"
         offset="1"
         id="stop4678" /></linearGradient><linearGradient
       inkscape:collect="always"
       id="linearGradient4656"><stop
         style="stop-color:#fbfbfb;stop-opacity:1"
         offset="0"
         id="stop4658" /><stop
         style="stop-color:#272324;stop-opacity:1"
         offset="1"
         id="stop4660" /></linearGradient><clipPath
       clipPathUnits="userSpaceOnUse"
       id="clipPath96"><path
         d="m 407.198,36.789 149.384,0 0,42.925 -149.384,0 0,-42.925 z"
         id="path98"
         inkscape:connector-curvature="0" /></clipPath><linearGradient
       inkscape:collect="always"
       xlink:href="#linearGradient4656"
       id="linearGradient4662"
       x1="509.38406"
       y1="57.701775"
       x2="556.3653"
       y2="57.544121"
       gradientUnits="userSpaceOnUse" /><linearGradient
       inkscape:collect="always"
       xlink:href="#linearGradient4674"
       id="linearGradient4680"
       x1="511.11826"
       y1="72.206055"
       x2="539.81152"
       y2="72.048401"
       gradientUnits="userSpaceOnUse" /></defs><sodipodi:namedview
     pagecolor="#ffffff"
     bordercolor="#666666"
     borderopacity="1"
     objecttolerance="10"
     gridtolerance="10"
     guidetolerance="10"
     inkscape:pageopacity="0"
     inkscape:pageshadow="2"
     inkscape:window-width="1440"
     inkscape:window-height="790"
     id="namedview4"
     showgrid="false"
     inkscape:zoom="1.7940585"
     inkscape:cx="385.57217"
     inkscape:cy="90.620591"
     inkscape:window-x="0"
     inkscape:window-y="1"
     inkscape:window-maximized="1"
     inkscape:current-layer="g10" /><g
     id="g10"
     inkscape:groupmode="layer"
     inkscape:label="Logo Département Allier"
     transform="matrix(1.25,0,0,-1.25,0,172.29995)"><g
       id="g4728"
       transform="matrix(3.2132003,0,0,3.2132003,-1308.4081,-118.21046)"><path
         inkscape:connector-curvature="0"
         id="path60"
         style="fill:#a5937f;fill-opacity:1;fill-rule:nonzero;stroke:none"
         d="m 407.1978,76.7736 0,-34.258 114.933,0 11.271,34.258 -126.204,0 z" /><g
         id="g4704"><g
           id="g4581"><path
             id="path4569"
             d="m 414.6747,48.7719 c 0,-0.569 0.355,-0.948 0.853,-0.948 0.498,0 0.853,0.379 0.853,0.948 l 0,7.307 c 0,0.568 -0.355,0.948 -0.853,0.948 -0.498,0 -0.853,-0.38 -0.853,-0.948 l 0,-7.307 z"
             style="fill:#ffffff;fill-opacity:1;fill-rule:nonzero;stroke:none"
             inkscape:connector-curvature="0" /><path
             id="path4567"
             transform="matrix(0.8,0,0,-0.8,0,841.89)"
             d="m 525.62305,984.42969 c -2.255,0 -3.82617,1.97297 -3.82617,4.13672 0,2.3575 1.59945,4.10546 4.00195,4.10547 1.58625,0 3.48633,-0.88719 3.48633,-1.80469 0,-0.46125 -0.41625,-0.92188 -0.875,-0.92188 -0.5625,0 -1.31977,0.86133 -2.41602,0.86133 -0.995,0 -1.86953,-0.49047 -2.01953,-1.54297 l 4.55273,0 c 0.6525,0 0.9336,-0.31047 0.9336,-0.94922 0,-1.78125 -1.52414,-3.88476 -3.83789,-3.88476 z m 0,1.77734 c 0.99375,0 1.58507,0.69781 1.70507,1.63281 l -3.39648,0 c 0.10375,-0.905 0.74141,-1.63281 1.69141,-1.63281 z"
             style="fill:#ffffff;fill-opacity:1;fill-rule:nonzero;stroke:none"
             inkscape:connector-curvature="0" /><path
             id="path4563"
             transform="matrix(0.8,0,0,-0.8,0,841.89)"
             d="m 536.57812,981.93945 c -0.6675,0 -1.14062,0.45938 -1.14062,1.14063 l 0,8.30273 c 0,0.845 0.68117,1.11133 1.16992,1.11133 l 2.58008,0 c 3.055,0 5.06836,-2.01391 5.06836,-5.12891 0,-3.29125 -1.89555,-5.42578 -5.2168,-5.42578 l -2.46094,0 z m 1.08204,2.04493 1.34961,0 c 2.04625,0 2.9375,1.37859 2.9375,3.27734 0,1.78 -0.87657,3.18945 -2.78907,3.18945 l -1.49804,0 0,-6.46679 z"
             style="fill:#ffffff;fill-opacity:1;fill-rule:nonzero;stroke:none"
             inkscape:connector-curvature="0" /><path
             id="path4559"
             transform="matrix(0.8,0,0,-0.8,0,841.89)"
             d="m 550.26367,981.03516 c -0.16375,0 -0.34195,0.0591 -0.56445,0.15039 l -1.74805,0.70898 -0.11914,0.0586 c -0.25125,0.135 -0.41601,0.37126 -0.41601,0.59376 0,0.51875 0.34086,1.08007 0.7871,1.08007 0.295,0 0.16055,10e-4 0.5918,-0.14648 l 1.66016,-0.65235 c 0.415,-0.1475 0.60742,-0.44375 0.60742,-0.875 0,-0.39874 -0.35633,-0.91796 -0.79883,-0.91796 z m -1.03906,3.39453 c -2.25375,0 -3.82422,1.97297 -3.82422,4.13672 0,2.3575 1.60141,4.10545 4.00391,4.10547 1.58625,0 3.48242,-0.88719 3.48242,-1.80469 0,-0.46125 -0.415,-0.92188 -0.875,-0.92188 -0.5625,0 -1.31852,0.86133 -2.41602,0.86133 -0.99375,0 -1.87007,-0.49047 -2.01758,-1.54297 l 4.55274,0 c 0.6525,0 0.93359,-0.31047 0.93359,-0.94922 0,-1.78125 -1.52609,-3.88476 -3.83984,-3.88476 z m 0,1.77734 c 0.99375,0 1.58883,0.69781 1.70508,1.63281 l -3.39649,0 c 0.105,-0.905 0.74266,-1.63281 1.69141,-1.63281 z"
             style="fill:#ffffff;fill-opacity:1;fill-rule:nonzero;stroke:none"
             inkscape:connector-curvature="0" /><path
             id="path4553"
             transform="matrix(0.8,0,0,-0.8,0,841.89)"
             d="m 558.58008,984.42969 c -0.8025,0 -1.63,0.32851 -2.03125,0.97851 -0.13375,-0.5625 -0.47516,-0.89062 -1.06641,-0.89062 -0.6225,0 -1.06836,0.4775 -1.06836,1.1875 l 0,8.83594 c 0,0.7125 0.44586,1.18554 1.06836,1.18554 0.62125,0 1.06641,-0.47304 1.06641,-1.18554 l 0,-2.60743 c 0.5625,0.4875 1.28953,0.73828 1.95703,0.73829 2.14875,0 3.51367,-1.99938 3.51367,-4.01563 0,-2.0775 -1.14195,-4.22656 -3.43945,-4.22656 z m -0.35547,1.95703 c 1.1125,0 1.66211,1.17094 1.66211,2.17969 0,0.9925 -0.54961,2.15039 -1.66211,2.15039 -1.1725,0 -1.67578,-1.18586 -1.67578,-2.22461 0,-1.0375 0.53328,-2.10547 1.67578,-2.10547 z"
             style="fill:#ffffff;fill-opacity:1;fill-rule:nonzero;stroke:none"
             inkscape:connector-curvature="0" /><path
             id="path4549"
             transform="matrix(0.8,0,0,-0.8,0,841.89)"
             d="m 566.73438,984.42969 c -1.95876,0 -3.52735,1.79172 -3.52735,4.13672 0,2.40375 1.52485,4.10547 3.52735,4.10547 0.81499,0 1.48054,-0.34024 2.02929,-0.99024 0.15,0.56125 0.40289,0.90039 1.02539,0.90039 1.02125,0 1.02149,-0.84508 1.02149,-1.39258 l 0,-5.27929 c 0,-0.5475 -2.4e-4,-1.39258 -1.02149,-1.39258 -0.52,0 -0.96343,0.37187 -1.02344,0.89062 -0.475,-0.66625 -1.2475,-0.97851 -2.03124,-0.97851 z m 0.29687,1.95703 c 1.1275,0 1.64648,1.15469 1.64648,2.17969 0,1.02375 -0.53398,2.15039 -1.64648,2.15039 -1.1575,0 -1.69141,-1.12664 -1.69141,-2.15039 0,-1.025 0.52016,-2.17969 1.69141,-2.17969 z"
             style="fill:#ffffff;fill-opacity:1;fill-rule:nonzero;stroke:none"
             inkscape:connector-curvature="0" /><path
             id="path4545"
             d="m 458.0737,48.7719 c 0,-0.569 0.356,-0.948 0.852,-0.948 0.498,0 0.854,0.379 0.854,0.948 l 0,2.62 c 0,0.677 0.521,0.903 1.032,1.139 0.509,0.237 1.02,0.274 1.02,0.83 0,0.618 -0.415,0.915 -0.83,0.915 -0.533,0 -0.878,-0.238 -1.199,-0.714 l -0.023,0 c 0,0.546 -0.38,0.714 -0.83,0.714 -0.426,0 -0.876,-0.286 -0.876,-0.855 l 0,-4.649 z"
             style="fill:#ffffff;fill-opacity:1;fill-rule:nonzero;stroke:none"
             inkscape:connector-curvature="0" /><path
             id="path4543"
             d="m 462.9357,48.7719 c 0,-0.569 0.356,-0.948 0.854,-0.948 0.498,0 0.852,0.379 0.852,0.948 l 0,3.938 0.487,0 c 0.44,0 0.818,0.214 0.818,0.746 0,0.546 -0.378,0.747 -0.818,0.747 l -0.487,0 0,1.021 c 0,0.569 -0.354,0.948 -0.852,0.948 -0.498,0 -0.854,-0.379 -0.854,-0.948 l 0,-1.021 -0.378,0 c -0.428,0 -0.749,-0.32 -0.749,-0.747 0,-0.462 0.285,-0.746 0.749,-0.746 l 0.378,0 0,-3.938 z"
             style="fill:#ffffff;fill-opacity:1;fill-rule:nonzero;stroke:none"
             inkscape:connector-curvature="0" /><path
             id="path4541"
             transform="matrix(0.8,0,0,-0.8,0,841.89)"
             d="m 586.49805,984.42969 c -2.25375,0 -3.82618,1.97297 -3.82617,4.13672 0,2.3575 1.60195,4.10546 4.00195,4.10547 1.58875,0 3.48437,-0.88719 3.48437,-1.80469 0,-0.46125 -0.41429,-0.92188 -0.87304,-0.92188 -0.56375,0 -1.31727,0.86133 -2.41602,0.86133 -0.9925,0 -1.87133,-0.49047 -2.01758,-1.54297 l 4.55274,0 c 0.65,0 0.93164,-0.31047 0.93164,-0.94922 0,-1.78125 -1.52539,-3.88476 -3.83789,-3.88476 z m 0,1.77734 c 0.9925,0 1.58633,0.69781 1.70507,1.63281 l -3.39648,0 c 0.1025,-0.905 0.74141,-1.63281 1.69141,-1.63281 z"
             style="fill:#ffffff;fill-opacity:1;fill-rule:nonzero;stroke:none"
             inkscape:connector-curvature="0" /><path
             id="path4537"
             d="m 473.3497,48.7719 c 0,-0.569 0.355,-0.948 0.854,-0.948 0.498,0 0.852,0.379 0.852,0.948 l 0,2.977 c 0,0.689 0.309,1.175 1.01,1.175 0.618,0 0.996,-0.486 0.996,-1.175 l 0,-2.977 c 0,-0.569 0.356,-0.948 0.855,-0.948 0.496,0 0.853,0.379 0.853,0.948 l 0,2.977 c 0,0.689 0.378,1.175 1.008,1.175 0.617,0 0.997,-0.486 0.997,-1.175 l 0,-2.977 c 0,-0.569 0.356,-0.948 0.854,-0.948 0.498,0 0.852,0.379 0.852,0.948 l 0,3.274 c 0,1.494 -0.948,2.3 -2.335,2.3 -0.582,0 -1.329,-0.321 -1.803,-0.865 -0.45,0.569 -1.056,0.865 -1.767,0.865 -0.63,0 -1.175,-0.262 -1.59,-0.711 -0.06,0.403 -0.344,0.641 -0.782,0.641 -0.499,0 -0.854,-0.382 -0.854,-0.95 l 0,-4.554 z"
             style="fill:#ffffff;fill-opacity:1;fill-rule:nonzero;stroke:none"
             inkscape:connector-curvature="0" /><path
             id="path4535"
             transform="matrix(0.8,0,0,-0.8,0,841.89)"
             d="m 608.27734,984.42969 c -2.25375,0 -3.82422,1.97297 -3.82422,4.13672 0,2.3575 1.59946,4.10546 4.00196,4.10547 1.5875,0 3.48242,-0.88719 3.48242,-1.80469 0,-0.46125 -0.41234,-0.92188 -0.87109,-0.92188 -0.565,0 -1.32172,0.86133 -2.41797,0.86133 -0.99375,0 -1.86883,-0.49047 -2.01758,-1.54297 l 4.55078,0 c 0.65125,0 0.93359,-0.31047 0.93359,-0.94922 0,-1.78125 -1.52664,-3.88476 -3.83789,-3.88476 z m 0,1.77734 c 0.99375,0 1.58703,0.69781 1.70704,1.63281 l -3.39844,0 c 0.10375,-0.905 0.74015,-1.63281 1.6914,-1.63281 z"
             style="fill:#ffffff;fill-opacity:1;fill-rule:nonzero;stroke:none"
             inkscape:connector-curvature="0" /><path
             id="path4531"
             d="m 490.7717,48.7719 c 0,-0.569 0.359,-0.948 0.857,-0.948 0.495,0 0.852,0.379 0.852,0.948 l 0,2.977 c 0,0.666 0.391,1.175 1.09,1.175 0.618,0 1.116,-0.38 1.116,-1.175 l 0,-2.977 c 0,-0.569 0.358,-0.948 0.853,-0.948 0.498,0 0.854,0.379 0.854,0.948 l 0,3.274 c 0,1.446 -0.995,2.3 -2.336,2.3 -0.807,0 -1.317,-0.238 -1.649,-0.701 -0.059,0.393 -0.343,0.631 -0.78,0.631 -0.498,0 -0.857,-0.382 -0.857,-0.95 l 0,-4.554 z"
             style="fill:#ffffff;fill-opacity:1;fill-rule:nonzero;stroke:none"
             inkscape:connector-curvature="0" /><path
             id="path70"
             d="m 498.2577,48.7719 c 0,-0.569 0.357,-0.948 0.853,-0.948 0.498,0 0.854,0.379 0.854,0.948 l 0,3.938 0.486,0 c 0.44,0 0.819,0.214 0.819,0.746 0,0.546 -0.379,0.747 -0.819,0.747 l -0.486,0 0,1.021 c 0,0.569 -0.356,0.948 -0.854,0.948 -0.496,0 -0.853,-0.379 -0.853,-0.948 l 0,-1.021 -0.379,0 c -0.428,0 -0.747,-0.32 -0.747,-0.747 0,-0.462 0.284,-0.746 0.747,-0.746 l 0.379,0 0,-3.938 z"
             style="fill:#ffffff;fill-opacity:1;fill-rule:nonzero;stroke:none"
             inkscape:connector-curvature="0" /></g><g
           id="g4596"><path
             id="path4527"
             transform="matrix(0.8,0,0,-0.8,0,841.89)"
             d="m 578.72852,961.02539 c -1.15125,0 -2.03157,0.83555 -2.41407,1.87305 l -4.53515,12.27344 c -0.045,0.115 -0.15821,0.38289 -0.15821,0.74414 0,0.9025 0.76743,1.58007 1.66993,1.58007 0.925,0 1.39804,-0.49656 1.62304,-1.19531 l 0.67774,-2.09766 6.27148,0 0.67774,2.11915 c 0.22625,0.6775 0.69898,1.17382 1.64648,1.17382 0.83625,0 1.55664,-0.60828 1.55664,-1.48828 0,-0.1575 -0.0434,-0.47344 -0.17969,-0.83593 l -4.42187,-12.27344 c -0.385,-1.0825 -1.22031,-1.87305 -2.41406,-1.87305 z m -0.0234,3.51953 0.0449,0 2.09766,6.54102 -4.28516,0 2.14258,-6.54102 z"
             style="fill:#ffffff;fill-opacity:1;fill-rule:nonzero;stroke:none"
             inkscape:connector-curvature="0" /><path
             id="path4523"
             d="m 470.2371,61.3375 c 0,-0.867 0.542,-1.445 1.301,-1.445 0.757,0 1.299,0.578 1.299,1.445 l 0,11.118 c 0,0.866 -0.542,1.443 -1.299,1.443 -0.759,0 -1.301,-0.577 -1.301,-1.443 l 0,-11.118 z"
             style="fill:#ffffff;fill-opacity:1;fill-rule:nonzero;stroke:none"
             inkscape:connector-curvature="0" /><path
             id="path4521"
             d="m 475.1471,61.3375 c 0,-0.867 0.541,-1.445 1.299,-1.445 0.758,0 1.3,0.578 1.3,1.445 l 0,11.118 c 0,0.866 -0.542,1.443 -1.3,1.443 -0.758,0 -1.299,-0.577 -1.299,-1.443 l 0,-11.118 z"
             style="fill:#ffffff;fill-opacity:1;fill-rule:nonzero;stroke:none"
             inkscape:connector-curvature="0" /><path
             id="path4519"
             d="m 480.0561,61.3375 c 0,-0.867 0.542,-1.445 1.299,-1.445 0.76,0 1.301,0.578 1.301,1.445 l 0,6.931 c 0,0.866 -0.541,1.443 -1.301,1.443 -0.757,0 -1.299,-0.577 -1.299,-1.443 l 0,-6.931 z"
             style="fill:#ffffff;fill-opacity:1;fill-rule:nonzero;stroke:none"
             inkscape:connector-curvature="0" /><path
             id="path4517"
             d="m 481.3551,73.6115 c -0.775,0 -1.461,-0.686 -1.461,-1.426 0,-0.795 0.686,-1.498 1.461,-1.498 0.813,0 1.463,0.686 1.463,1.498 0,0.758 -0.686,1.426 -1.463,1.426"
             style="fill:#ffffff;fill-opacity:1;fill-rule:nonzero;stroke:none"
             inkscape:connector-curvature="0" /><path
             id="path4515"
             transform="matrix(0.8,0,0,-0.8,0,841.89)"
             d="m 611.37109,965.08594 c -3.42625,0 -5.81836,3.00312 -5.81836,6.29687 0,3.58625 2.43555,6.24805 6.0918,6.24805 2.41375,0 5.30274,-1.35445 5.30274,-2.75195 0,-0.70125 -0.63133,-1.40039 -1.33008,-1.40039 -0.85875,0 -2.00969,1.31054 -3.67969,1.31054 -1.5125,0 -2.84016,-0.74445 -3.06641,-2.3457 l 6.92383,0 c 0.99375,0 1.42188,-0.47531 1.42188,-1.44531 0,-2.7075 -2.32446,-5.91211 -5.84571,-5.91211 z m 0,2.70703 c 1.5125,0 2.41321,1.06187 2.59571,2.48437 l -5.16602,0 c 0.15625,-1.37875 1.12906,-2.48437 2.57031,-2.48437 z"
             style="fill:#ffffff;fill-opacity:1;fill-rule:nonzero;stroke:none"
             inkscape:connector-curvature="0" /><path
             id="path72"
             d="m 495.5601,61.3375 c 0,-0.867 0.542,-1.445 1.299,-1.445 0.759,0 1.3,0.578 1.3,1.445 l 0,3.987 c 0,1.03 0.793,1.374 1.57,1.734 0.776,0.361 1.552,0.416 1.552,1.265 0,0.938 -0.632,1.388 -1.261,1.388 -0.813,0 -1.337,-0.361 -1.825,-1.082 l -0.036,0 c 0,0.83 -0.577,1.082 -1.263,1.082 -0.651,0 -1.336,-0.433 -1.336,-1.299 l 0,-7.075 z"
             style="fill:#ffffff;fill-opacity:1;fill-rule:nonzero;stroke:none"
             inkscape:connector-curvature="0" /></g></g><g
         id="g4694"><path
           inkscape:connector-curvature="0"
           id="path4654"
           d="M 520.062,72.19 C 508.959,63.531 505.63,50.122 512.634,42.243 l 0,0 c 3.266,-3.651 8.209,-5.453 13.681,-5.454 l 0,0 0.014,0 c 6.248,10e-4 13.181,2.349 19.097,6.963 l 0,0 c 11.1,8.659 14.517,22.07 7.515,29.891 l 0,0 c -3.277,3.687 -8.236,5.503 -13.734,5.503 l 0,0 c -6.249,-0.002 -13.193,-2.348 -19.145,-6.956"
           style="fill:url(#linearGradient4662);fill-opacity:1" /><g
           clip-path="url(#clipPath96)"
           id="g94"><path
             inkscape:connector-curvature="0"
             id="path100"
             style="fill:#ffffff;fill-opacity:1;fill-rule:nonzero;stroke:none"
             d="m 552.2562,74.0354 c 7.004,-7.879 3.759,-21.175 -7.172,-29.67 -10.932,-8.546 -25.533,-9.052 -32.537,-1.174 -6.916,7.879 -3.757,21.121 7.259,29.67 10.931,8.492 25.448,8.995 32.45,1.174" /></g><path
           inkscape:connector-curvature="0"
           id="path4672"
           d="m 535.677,79.682 c -10.41,-0.51 -20.572,-7.591 -24.326,-16.876 l 0,0 c 4.271,8.827 13.664,13.855 18.018,15.252 l 0,0 c 4.443,1.397 8.627,1.621 10.59,1.453 l 0,0 c -0.63,0.083 -1.261,0.14 -1.895,0.171 l 0,0 -2.387,0 z"
           style="fill:url(#linearGradient4680);fill-opacity:1" /><g
           id="g4685"><path
             inkscape:connector-curvature="0"
             id="path128"
             style="fill:#59c134;fill-opacity:1;fill-rule:nonzero;stroke:none"
             d="m 526.5518,69.6765 c 0,0 -11.784,-24.751 -11.784,-24.863 -0.171,-0.224 -0.171,-0.671 0.085,-0.839 0.258,-0.167 1.793,-1.174 2.136,-1.284 0.257,-0.169 0.596,-0.225 0.854,0.055 1.879,2.348 14.858,17.545 35.355,24.64 -5.552,0.449 -14.263,-4.469 -32.11,-15.533 2.562,7.319 7.172,20.115 5.464,17.824" /><path
             inkscape:connector-curvature="0"
             id="path130"
             style="fill:#ed1443;fill-opacity:1;fill-rule:nonzero;stroke:none"
             d="m 543.3755,45.0364 c 0,-0.167 0.084,-0.446 -0.341,-0.615 -1.025,-0.39 -3.845,-1.452 -4.098,-1.621 -0.342,-0.11 -0.771,-0.11 -0.771,0.448 0,0.281 -1.622,14.584 -1.622,14.584 0,0 6.063,-8.439 6.832,-12.796" /><path
             inkscape:connector-curvature="0"
             id="path132"
             style="fill:#176fc1;fill-opacity:1;fill-rule:nonzero;stroke:none"
             d="m 528.8584,74.3136 c 0,0.167 -0.084,0.449 0.257,0.615 1.025,0.447 3.757,1.677 4.013,1.788 0.342,0.169 0.769,0.169 0.854,-0.39 0,-0.281 2.135,-14.529 2.135,-14.529 0,0 -6.319,8.159 -7.259,12.516" /></g></g></g></g></svg>