<?xml version="1.0" encoding="UTF-8" standalone="no"?>
<!-- Created with Inkscape (http://www.inkscape.org/) -->

<svg
   xmlns:dc="http://purl.org/dc/elements/1.1/"
   xmlns:cc="http://creativecommons.org/ns#"
   xmlns:rdf="http://www.w3.org/1999/02/22-rdf-syntax-ns#"
   xmlns:svg="http://www.w3.org/2000/svg"
   xmlns="http://www.w3.org/2000/svg"
   xmlns:sodipodi="http://sodipodi.sourceforge.net/DTD/sodipodi-0.dtd"
   xmlns:inkscape="http://www.inkscape.org/namespaces/inkscape"
   id="svg2"
   version="1.1"
   inkscape:version="0.91 r13725"
   xml:space="preserve"
   width="780"
   height="800"
   viewBox="0 0 780 800"
   sodipodi:docname="Logo Département Indre.svg"><metadata
     id="metadata8"><rdf:RDF><cc:Work
         rdf:about=""><dc:format>image/svg+xml</dc:format><dc:type
           rdf:resource="http://purl.org/dc/dcmitype/StillImage" /><dc:title></dc:title></cc:Work></rdf:RDF></metadata><defs
     id="defs6"><clipPath
       clipPathUnits="userSpaceOnUse"
       id="clipPath72"><path
         d="m 6.827,6.827 566.93,0 0,737.008 -566.93,0 0,-737.008 z"
         id="path74"
         inkscape:connector-curvature="0" /></clipPath></defs><sodipodi:namedview
     pagecolor="#ffffff"
     bordercolor="#666666"
     borderopacity="1"
     objecttolerance="10"
     gridtolerance="10"
     guidetolerance="10"
     inkscape:pageopacity="0"
     inkscape:pageshadow="2"
     inkscape:window-width="1440"
     inkscape:window-height="790"
     id="namedview4"
     showgrid="false"
     inkscape:zoom="0.53317044"
     inkscape:cx="597.51097"
     inkscape:cy="611.5707"
     inkscape:window-x="0"
     inkscape:window-y="1"
     inkscape:window-maximized="1"
     inkscape:current-layer="g10" /><g
     id="g10"
     inkscape:groupmode="layer"
     inkscape:label="Logo Département Indre"
     transform="matrix(1.25,0,0,-1.25,-26.72725,826.32836)"><g
       id="g4829"
       transform="matrix(10.286637,0,0,10.293002,-4985.275,-384.74082)"><g
         id="g68"><g
           clip-path="url(#clipPath72)"
           id="g70"><path
             inkscape:connector-curvature="0"
             id="path76"
             style="fill:#1a6ec0;fill-opacity:1;fill-rule:nonzero;stroke:none"
             d="m 545.3661,41.4162 c -2.633,-2.699 -54.112,-2.61 -56.659,0 -2.547,2.611 -2.764,55.245 0,58.077 2.763,2.833 53.934,2.794 56.659,0 2.725,-2.793 2.634,-55.378 0,-58.077" /></g></g><g
         id="g4691"><path
           d="m 494.539,52.053 2.458,0 0,11.234 -2.458,0 0,-11.234 z"
           style="fill:#ffffff;fill-opacity:1;fill-rule:nonzero;stroke:none"
           id="path86"
           inkscape:connector-curvature="0" /><path
           d="m 499.5195,52.0534 0,11.234 2.878,0 2.264,-4.117 c 0.647,-1.183 1.278,-2.583 1.779,-3.85 l 0.032,0 c -0.145,1.483 -0.194,3 -0.194,4.7 l 0,3.267 2.264,0 0,-11.234 -2.587,0 -2.329,4.334 c -0.647,1.2 -1.374,2.65 -1.892,3.967 l -0.064,0 c 0.08,-1.5 0.113,-3.084 0.113,-4.917 l 0,-3.384 -2.264,0 z"
           style="fill:#ffffff;fill-opacity:1;fill-rule:nonzero;stroke:none"
           id="path96"
           inkscape:connector-curvature="0" /><path
           d="m 511.0644,63.1212 c 0.906,0.15 2.086,0.25 3.315,0.25 2.086,0 3.444,-0.4 4.479,-1.2 1.132,-0.867 1.843,-2.25 1.843,-4.234 0,-2.15 -0.759,-3.634 -1.795,-4.55 -1.148,-0.984 -2.91,-1.45 -5.045,-1.45 -1.277,0 -2.199,0.083 -2.797,0.166 l 0,11.018 z m 2.458,-9.151 c 0.21,-0.05 0.566,-0.05 0.857,-0.05 2.248,-0.016 3.719,1.25 3.719,3.934 0,2.333 -1.326,3.567 -3.46,3.567 -0.534,0 -0.906,-0.05 -1.116,-0.1 l 0,-7.351 z"
           style="fill:#ffffff;fill-opacity:1;fill-rule:nonzero;stroke:none"
           id="path98"
           inkscape:connector-curvature="0" /><path
           d="m 522.7059,63.1379 c 0.792,0.133 1.957,0.233 3.283,0.233 1.617,0 2.749,-0.25 3.525,-0.883 0.663,-0.534 1.018,-1.334 1.018,-2.367 0,-1.417 -0.986,-2.4 -1.924,-2.75 l 0,-0.051 c 0.76,-0.316 1.181,-1.05 1.455,-2.083 0.34,-1.283 0.663,-2.75 0.874,-3.183 l -2.523,0 c -0.162,0.333 -0.436,1.233 -0.744,2.616 -0.307,1.417 -0.776,1.784 -1.795,1.801 l -0.727,0 0,-4.417 -2.442,0 0,11.084 z m 2.442,-4.834 0.97,0 c 1.229,0 1.957,0.633 1.957,1.617 0,1.017 -0.679,1.55 -1.811,1.55 -0.599,0 -0.938,-0.033 -1.116,-0.084 l 0,-3.083 z"
           style="fill:#ffffff;fill-opacity:1;fill-rule:nonzero;stroke:none"
           id="path100"
           inkscape:connector-curvature="0" /><path
           d="m 539.1661,56.8037 -4.01,0 0,-2.667 4.479,0 0,-2.083 -6.936,0 0,11.234 6.709,0 0,-2.083 -4.252,0 0,-2.334 4.01,0 0,-2.067 z"
           style="fill:#ffffff;fill-opacity:1;fill-rule:nonzero;stroke:none"
           id="path110"
           inkscape:connector-curvature="0" /></g><g
         id="g4783"><path
           d="m 494.9432,45.2557 0.001,4.099 -0.097,0.002 c -0.098,0.003 -0.197,0.005 -0.295,0.007 l -0.101,10e-4 -10e-4,-4.52 0.09,-0.01 c 0.722,-0.079 1.445,-0.155 2.169,-0.226 l 0.11,-0.011 0,0.473 -0.091,0.009 c -0.595,0.056 -1.19,0.115 -1.785,0.176"
           style="fill:#ffffff;fill-opacity:1;fill-rule:nonzero;stroke:none"
           id="path120"
           inkscape:connector-curvature="0" /><path
           d="m 497.8616,44.976 0.003,1.806 c 0.526,-0.03 1.053,-0.058 1.579,-0.086 l 0.105,-0.005 10e-4,0.485 -0.096,0.005 c -0.529,0.024 -1.059,0.051 -1.589,0.078 l 0.002,1.561 c 0.561,-0.013 1.123,-0.026 1.684,-0.037 l 0.102,-0.002 0,0.485 -0.098,0.002 c -0.693,0.011 -1.386,0.023 -2.079,0.036 l -0.102,0.002 -0.005,-4.762 0.091,-0.009 c 0.725,-0.069 1.451,-0.134 2.177,-0.196 l 0.108,-0.009 0.001,0.486 -0.093,0.007 c -0.597,0.049 -1.194,0.099 -1.791,0.153"
           style="fill:#ffffff;fill-opacity:1;fill-rule:nonzero;stroke:none"
           id="path122"
           inkscape:connector-curvature="0" /><path
           d="m 502.9475,49.2533 -0.067,0 c -0.331,0 -0.667,-0.029 -1.025,-0.088 l -0.084,-0.014 -0.01,-4.964 0.082,-0.015 c 0.325,-0.064 0.659,-0.093 0.942,-0.112 l 0.239,-0.009 c 0.722,0 1.297,0.24 1.664,0.693 0.376,0.469 0.575,1.143 0.577,1.95 0.001,0.76 -0.177,1.354 -0.544,1.815 -0.373,0.476 -0.986,0.733 -1.774,0.744 m -0.683,-0.541 c 0.19,0.029 0.382,0.044 0.584,0.044 l 0.077,-0.001 c 1.192,-0.015 1.843,-0.751 1.834,-2.073 -0.003,-1.452 -0.673,-2.22 -1.917,-2.129 -0.256,0.017 -0.445,0.037 -0.586,0.064 l 0.008,4.095 z"
           style="fill:#ffffff;fill-opacity:1;fill-rule:nonzero;stroke:none"
           id="path124"
           inkscape:connector-curvature="0" /><path
           d="m 507.1799,49.4868 c 0.273,0.285 0.547,0.571 0.82,0.858 l 0.166,0.174 -0.744,10e-4 -0.03,-0.042 c -0.205,-0.287 -0.409,-0.572 -0.614,-0.856 l -0.116,-0.163 0.489,-0.003 0.029,0.031 z"
           style="fill:#ffffff;fill-opacity:1;fill-rule:nonzero;stroke:none"
           id="path126"
           inkscape:connector-curvature="0" /><path
           d="m 506.4244,44.3834 0.004,2.025 c 0.528,-0.017 1.056,-0.032 1.585,-0.046 l 0.102,-0.002 10e-4,0.511 -0.098,0.002 c -0.529,0.012 -1.059,0.027 -1.589,0.042 l 0.003,1.752 1.787,-0.02 10e-4,0.511 -0.099,10e-4 c -0.694,0.006 -1.387,0.012 -2.081,0.02 l -0.1,10e-4 -0.01,-5.279 0.094,-0.005 c 0.728,-0.038 1.455,-0.073 2.183,-0.105 l 0.104,-0.004 0,0.511 -0.096,0.004 c -0.597,0.025 -1.194,0.052 -1.791,0.081"
           style="fill:#ffffff;fill-opacity:1;fill-rule:nonzero;stroke:none"
           id="path128"
           inkscape:connector-curvature="0" /><path
           d="m 511.1657,48.6955 c -0.252,0.316 -0.663,0.485 -1.188,0.488 l -0.036,0 c -0.327,0 -0.626,-0.032 -0.888,-0.096 l -0.076,-0.019 -0.009,-5.309 0.494,-0.018 0.003,2.192 c 0.137,-0.031 0.281,-0.037 0.411,-0.041 l 0.047,0 c 0.539,0 1.004,0.221 1.273,0.606 0.212,0.286 0.315,0.647 0.315,1.102 10e-4,0.441 -0.119,0.82 -0.346,1.095 m -1.696,-0.063 c 0.087,0.016 0.239,0.036 0.459,0.036 l 0.034,0 c 0.678,-0.004 1.05,-0.394 1.05,-1.096 -10e-4,-0.752 -0.381,-1.167 -1.07,-1.167 l -0.036,10e-4 c -0.176,0.004 -0.32,0.024 -0.44,0.06 l 0.003,2.166 z"
           style="fill:#ffffff;fill-opacity:1;fill-rule:nonzero;stroke:none"
           id="path130"
           inkscape:connector-curvature="0" /><path
           d="m 513.3036,49.0549 -0.021,0.074 -0.437,10e-4 -0.021,-0.074 c -0.51,-1.758 -1.02,-3.508 -1.531,-5.244 l -0.038,-0.129 0.515,-0.013 0.521,1.832 c 0.507,-0.008 1.013,-0.015 1.52,-0.021 l 0.53,-1.861 0.073,-0.001 c 0.103,-0.002 0.205,-0.003 0.308,-0.004 l 0.134,-10e-4 -0.037,0.132 c -0.506,1.774 -1.012,3.545 -1.516,5.309 m 0.355,-3.053 c -0.405,0.005 -0.809,0.01 -1.214,0.016 l 0.484,1.644 c 0.049,0.187 0.09,0.348 0.127,0.502 0.036,-0.158 0.077,-0.327 0.13,-0.525 l 0.473,-1.637 z"
           style="fill:#ffffff;fill-opacity:1;fill-rule:nonzero;stroke:none"
           id="path132"
           inkscape:connector-curvature="0" /><path
           d="m 517.7628,45.1576 c -0.093,0.549 -0.276,0.922 -0.545,1.114 0.467,0.274 0.721,0.763 0.721,1.399 0,0.393 -0.118,0.771 -0.318,1.013 -0.272,0.325 -0.657,0.477 -1.212,0.477 -0.318,0 -0.684,-0.044 -0.932,-0.113 l -0.074,-0.021 -0.002,-5.418 0.494,-0.004 10e-4,2.436 0.55,-0.002 c 0.493,-0.028 0.731,-0.325 0.851,-1.058 0.122,-0.726 0.212,-1.156 0.275,-1.314 l 0.026,-0.064 0.531,0.003 -0.059,0.141 c -0.089,0.216 -0.177,0.663 -0.307,1.411 m -1.867,3.443 c 0.117,0.025 0.294,0.048 0.506,0.048 0.473,0 1.037,-0.181 1.037,-1.041 10e-4,-0.317 -0.091,-0.584 -0.265,-0.772 -0.173,-0.186 -0.417,-0.285 -0.709,-0.285 l -0.569,0.002 0,2.048 z"
           style="fill:#ffffff;fill-opacity:1;fill-rule:nonzero;stroke:none"
           id="path134"
           inkscape:connector-curvature="0" /><path
           d="m 518.2966,49.1217 -0.1,0 0,-0.52 1.374,0.002 0.003,-4.883 0.004,-0.103 0.496,0.007 -0.003,4.982 1.375,0.005 0,0.519 -0.101,0 c -1.016,-0.005 -2.032,-0.007 -3.048,-0.009"
           style="fill:#ffffff;fill-opacity:1;fill-rule:nonzero;stroke:none"
           id="path136"
           inkscape:connector-curvature="0" /><path
           d="m 524.0873,44.2369 c -0.595,-0.019 -1.19,-0.036 -1.786,-0.051 l -0.002,2.098 c 0.53,0.008 1.06,0.018 1.589,0.028 l 0.099,0.002 -0.002,0.515 -0.101,-0.002 c -0.528,-0.01 -1.057,-0.019 -1.586,-0.026 l -0.002,1.816 c 0.563,0.004 1.126,0.009 1.688,0.013 l 0.099,10e-4 0,0.514 -0.1,-10e-4 c -0.693,-0.004 -1.388,-0.008 -2.081,-0.011 l -0.1,-10e-4 0.006,-5.475 0.102,0.003 c 0.728,0.017 1.456,0.038 2.184,0.063 l 0.096,0.003 -10e-4,0.514 -0.102,-0.003 z"
           style="fill:#ffffff;fill-opacity:1;fill-rule:nonzero;stroke:none"
           id="path138"
           inkscape:connector-curvature="0" /><path
           d="m 528.7201,49.0892 -0.006,0.097 -0.523,-0.005 -0.022,-0.07 c -0.311,-0.979 -0.622,-1.966 -0.932,-2.959 -0.158,-0.514 -0.284,-0.936 -0.384,-1.32 -0.102,0.381 -0.225,0.794 -0.376,1.298 -0.304,0.978 -0.608,1.963 -0.911,2.954 l -0.022,0.073 -0.51,-0.006 -0.311,-5.407 0.495,0.02 0.133,2.482 c 0.031,0.561 0.056,1.159 0.07,1.685 0.105,-0.39 0.232,-0.82 0.384,-1.326 0.278,-0.907 0.557,-1.808 0.836,-2.704 l 0.023,-0.075 0.353,0.018 0.021,0.067 c 0.294,0.944 0.588,1.883 0.882,2.815 0.156,0.504 0.283,0.927 0.392,1.307 0.017,-0.489 0.049,-1.072 0.082,-1.614 0.043,-0.799 0.086,-1.597 0.13,-2.394 l 0.006,-0.103 0.493,0.029 -0.006,0.103 c -0.099,1.673 -0.198,3.352 -0.297,5.035"
           style="fill:#ffffff;fill-opacity:1;fill-rule:nonzero;stroke:none"
           id="path140"
           inkscape:connector-curvature="0" /><path
           d="m 532.11,44.6482 c -0.593,-0.042 -1.186,-0.081 -1.779,-0.117 l -0.005,1.97 c 0.531,0.02 1.061,0.042 1.59,0.065 l 0.096,0.004 0,0.495 -0.104,-0.004 c -0.528,-0.021 -1.055,-0.042 -1.583,-0.061 l -0.003,1.706 c 0.563,0.009 1.126,0.018 1.688,0.028 l 0.099,0.002 -0.001,0.494 -0.101,-0.002 c -0.694,-0.01 -1.387,-0.019 -2.081,-0.028 l -0.099,-0.001 0.011,-5.2 0.106,0.007 c 0.727,0.045 1.454,0.095 2.18,0.148 l 0.093,0.007 0,0.494 -0.107,-0.007 z"
           style="fill:#ffffff;fill-opacity:1;fill-rule:nonzero;stroke:none"
           id="path142"
           inkscape:connector-curvature="0" /><path
           d="m 535.5363,49.285 0.004,-2.406 c 10e-4,-0.515 0.004,-0.968 0.026,-1.445 -0.17,0.318 -0.365,0.647 -0.59,1.022 -0.53,0.86 -1.083,1.783 -1.646,2.742 l -0.029,0.051 -0.437,-0.009 0.009,-5.028 0.487,0.037 -0.005,2.524 c -0.001,0.594 -0.005,1.031 -0.02,1.462 0.192,-0.374 0.412,-0.751 0.627,-1.118 0.565,-0.945 1.092,-1.803 1.61,-2.626 l 0.033,-0.051 0.431,0.039 -0.006,4.815 -0.494,-0.009 z"
           style="fill:#ffffff;fill-opacity:1;fill-rule:nonzero;stroke:none"
           id="path144"
           inkscape:connector-curvature="0" /><path
           d="m 539.5377,49.3634 c -1.016,-0.022 -2.031,-0.042 -3.046,-0.061 l -0.099,-0.002 10e-4,-0.372 0.017,-0.104 1.356,0.032 0.004,-4.096 0.022,-0.111 0.477,0.053 -0.003,4.167 c 0.425,0.01 0.851,0.021 1.276,0.033 l 0.097,0.003 0,0.46 -0.102,-0.002 z"
           style="fill:#ffffff;fill-opacity:1;fill-rule:nonzero;stroke:none"
           id="path146"
           inkscape:connector-curvature="0" /></g><g
         id="g4799"><path
           d="m 534.2859,96.763 c 0.113,0.063 0.251,0.05 0.203,0.197 -0.086,0.27 -0.37,-0.044 -0.361,-0.034 -0.756,-0.78 -1.414,-1.098 -2.228,-1.767 -1.361,-1.119 -3.207,-2.108 -4.751,-3.052 -0.017,-0.011 -0.063,0.348 -0.16,0.259 -2.518,-2.301 -5.086,-4.353 -8.175,-5.601 0.057,1.395 -1.277,1.731 -1.911,1.444 -0.949,-0.429 -1.092,-1.576 -1.824,-2.333 -0.477,-0.493 -1.546,-0.61 -2.061,-0.698 -1.12,-0.191 -2.322,0.398 -3.396,0.144 -0.49,-0.114 -1.27,-0.413 -1.543,-0.615 -0.107,-0.08 -0.482,0.185 -0.68,-0.112 l -0.395,-0.224 c -0.625,-0.051 -0.762,-0.167 -1.216,-0.249 -0.58,-0.106 -1.417,0.224 -1.93,0.041 -0.883,-0.314 -2.21,0.075 -2.867,-0.359 0.35,-0.396 1.182,-0.234 1.138,-0.426 -0.014,-0.521 -1.831,-0.064 -2.624,-0.583 -0.081,-0.054 -0.087,-0.207 0.136,-0.265 0.441,-0.116 1.245,-0.197 1.287,-0.318 0.159,-0.497 -1.971,-0.467 -1.822,-1.115 0.07,-0.305 1.428,-0.045 1.529,-0.251 0.138,-0.237 -1.18,-0.615 -0.973,-0.818 0.312,-0.311 1.354,0.011 1.475,-0.168 0.243,-0.229 -0.967,-0.945 -0.39,-1.063 0.497,-0.102 1.095,0.273 1.628,0.054 -0.268,-0.144 -0.454,-0.648 -0.327,-0.867 0.051,-0.264 1.352,0.124 1.202,0.034 0.057,0.033 0.058,-0.558 0.219,-0.706 0.62,-0.566 1.163,0.75 1.515,-0.396 0.116,-0.167 0.928,0.627 1.358,0.003 0.133,-0.146 0.706,0.538 0.918,0.284 0.291,-0.346 0.772,0.125 0.926,0.039 0.927,-0.515 1.7,0.03 2.019,-0.032 0.713,-0.139 0.922,0.646 1.647,0.718 0.807,0.078 0.182,0.427 0.322,0.789 0.109,0.212 0.14,-0.048 0.184,0.099 l 0.103,-0.536 c 0.687,0.306 -0.323,0.443 -0.045,0.594 0.536,0.302 0.32,-0.185 0.434,-0.24 l 0.245,0.015 c 0.256,0.279 -0.189,0.454 -0.031,0.629 0.251,-0.065 0.28,-0.281 0.441,-0.31 0.206,0.047 0.014,0.301 0.151,0.449 0.39,0.007 0.975,0.257 1.077,0.071 0.289,-0.528 -0.826,-1.125 -0.703,-1.382 0.042,-0.168 0.169,-0.037 0.202,-0.163 0.048,-0.18 -0.109,-0.424 -0.016,-0.598 0.309,-0.583 1.333,-1.296 1.017,-1.67 -0.165,-0.058 -0.28,0.431 -0.493,0.686 -0.089,0.106 -0.325,-0.013 -0.469,-0.018 0.126,0.232 0.06,0.46 -0.019,0.624 -0.057,0.073 -0.298,0.162 -0.397,-0.057 -0.142,-0.316 0.354,-0.536 0.177,-0.769 -0.062,-0.08 -0.317,0.081 -0.425,-0.133 -0.138,-0.272 0.36,-0.716 0.146,-0.881 -0.173,-0.136 -0.588,0.339 -0.704,0.147 -0.369,-0.605 0.648,-1.077 0.87,-1.365 0.094,-0.121 0.257,0.025 0.251,0.122 -0.026,0.391 -0.505,0.925 -0.198,1.162 0.367,-0.006 0.28,-0.555 0.428,-0.638 0.368,-0.208 0.889,-0.815 0.78,-0.939 -0.254,-0.254 -0.586,0.466 -0.954,0.235 -0.081,-0.051 -0.262,-0.382 -0.148,-0.532 0.416,-0.199 0.606,0.139 0.976,-0.477 0.065,-0.107 0.024,-0.492 -0.039,-0.514 -0.27,-0.099 -0.413,0.395 -0.673,0.384 -0.378,-0.015 -0.765,-0.19 -0.473,-0.545 0.415,-0.505 1.392,-0.031 1.135,-1.044 -0.059,-0.072 0.917,-0.696 1.513,-0.382 0.155,0.081 0.065,0.205 0.031,0.28 -0.231,0.527 -1.354,0.331 -1.232,1.008 0.019,0.297 0.901,-0.586 1.313,-0.215 l 0.035,0.259 c -0.364,0.165 -0.928,0.297 -1.1,0.641 -0.11,0.221 -0.047,0.456 0.035,0.486 0.107,-0.119 0.126,-0.375 0.174,-0.4 0.339,-0.174 1.215,-0.044 1.102,-0.254 -0.298,-0.192 0.677,-0.996 0.336,-1.122 -0.14,0.057 -0.254,-0.009 -0.304,-0.126 -0.156,-0.377 0.692,-0.453 0.48,-0.837 -0.065,-0.119 -0.475,0.194 -0.413,-0.148 0.16,-0.87 -0.088,-2.307 0.497,-2.032 0.402,0.189 1.076,0.049 1.35,0.521 0.307,0.529 0.132,1.32 0.168,1.99 0.017,0.343 -0.547,0.31 -0.111,0.639 0.204,0.153 0.791,0.275 0.76,0.036 -0.369,-0.236 -0.514,-0.519 -0.411,-1.003 0.138,-0.65 0.602,-0.839 0.852,-0.209 0.382,0.965 -0.449,1.796 -0.229,2.838 0.07,0.334 -0.209,0.575 -0.368,0.778 0.102,0.07 0.012,0.327 0.162,0.37 -0.074,0.24 -0.623,0.668 -0.209,0.905 0.65,0.286 -0.012,-0.541 0.254,-0.609 0.057,-0.015 0.116,0.199 0.323,0.07 0.107,0.121 0.018,0.379 0.146,0.476 0.079,0.169 0.308,0.268 0.345,0.388 0.078,0.25 -0.039,0.274 -0.133,0.48 l -0.431,0.156 c -0.203,0.757 0.643,0.463 1.075,0.787 0.138,0.103 0.105,0.418 0.012,0.624 l -0.444,0.052 c -0.148,0.466 -0.179,0.588 -0.679,0.668 -0.048,0.007 0.104,0.402 0.225,0.427 0.239,0.048 0.143,-0.391 0.446,-0.282 0.121,0.043 0.277,0.142 0.252,0.296 0.145,-0.35 -0.172,-0.837 0.329,-1.025 0.057,0.416 0.672,0.71 0.39,1.036 -0.423,0.495 -1.24,0.555 -1.015,1.192 0.156,0.445 -0.022,0.34 -0.157,0.268 -0.11,-0.059 -0.21,-0.131 -0.253,-0.027 -0.044,0.103 -0.044,0.242 -0.155,0.298 -0.087,0.042 -0.398,0.18 -0.498,0.192 0.401,0.364 1.027,0.243 1.386,0.673 -0.058,-0.145 0.108,-0.17 0.18,-0.152 2.509,0.644 4.98,1.9 6.451,4.193 l 0.367,-0.005 c 0.224,0.532 0.433,0.974 0.88,1.126 0.548,0.185 0.138,0.661 1.458,1.482 0.569,0.355 0.04,1.641 -0.897,1.497 0.01,0.101 0.005,0.244 0.016,0.347 1.061,-0.68 1.854,-0.525 2.396,0.348 0.351,0.565 -1,0.827 -1.388,0.967 -0.209,0.404 1.144,0.006 1.165,-0.149 -0.016,0.115 1.766,0.602 1.602,1.727 -0.373,-0.025 -0.908,0.312 -1.03,0.287 0.595,0.108 1.379,0.707 1.902,1.146 0.208,0.175 0.574,0.416 0.358,0.772 -0.051,0.084 -0.413,0.081 -0.564,0.098 0.171,0.579 0.863,0.942 1.157,1.402 0.325,0.502 -0.358,0.051 -0.62,0.391 m -15.706,-11.299 c -0.078,0.125 -0.172,0.283 -0.282,0.387 -0.171,0.098 -0.389,0.058 -0.668,-0.057 0,0 0.612,0.769 0.736,0.718 0.131,-0.051 0.211,-0.191 0.219,-0.277 l 0.005,-0.084 c 0.108,-0.321 -0.01,-0.687 -0.01,-0.687"
           style="fill:#ffffff;fill-opacity:1;fill-rule:nonzero;stroke:none"
           id="path148"
           inkscape:connector-curvature="0" /><path
           d="m 523.2915,78.6531 c -0.181,-0.237 0.038,-0.551 0.216,-0.572 0.487,-0.057 0.793,0.867 0.319,1.191 -0.503,0.344 -0.306,-0.315 -0.535,-0.619"
           style="fill:#ffffff;fill-opacity:1;fill-rule:nonzero;stroke:none"
           id="path150"
           inkscape:connector-curvature="0" /><path
           d="m 522.983,76.9844 c -0.146,-0.366 -0.353,-0.964 -0.114,-1.119 0.689,-0.454 1.137,0.465 0.958,1.183 -0.141,0.563 -0.696,0.303 -0.844,-0.064"
           style="fill:#ffffff;fill-opacity:1;fill-rule:nonzero;stroke:none"
           id="path152"
           inkscape:connector-curvature="0" /><path
           d="m 522.2027,77.0581 c -0.448,-1.026 -0.282,-1.908 -1.048,-2.469 -0.16,-0.118 0.069,-0.341 0.296,-0.294 0.107,0.022 0.137,1.048 0.773,1.312 0.261,0.107 -0.318,0.506 -0.139,0.545 0.739,0.168 0.301,1.178 0.882,1.155 0.11,0.198 0.25,0.415 -0.072,0.68 l -0.265,0.028 c -0.084,-0.104 -0.055,-0.287 -0.07,-0.441 -0.182,0.035 -0.184,-0.12 -0.357,-0.516"
           style="fill:#ffffff;fill-opacity:1;fill-rule:nonzero;stroke:none"
           id="path154"
           inkscape:connector-curvature="0" /><path
           d="m 522.9755,78.7056 c 10e-4,-0.156 -0.115,-0.293 -0.17,-0.258 -0.325,0.203 -0.13,0.814 -0.154,1.127 0.1,-0.011 0.353,-0.147 0.369,-0.19 0.063,-0.175 -0.048,-0.472 -0.045,-0.679"
           style="fill:#ffffff;fill-opacity:1;fill-rule:nonzero;stroke:none"
           id="path156"
           inkscape:connector-curvature="0" /><path
           d="m 522.2917,79.1676 c -0.058,0.114 -0.159,0.187 -0.103,0.331 -0.141,0.058 -0.251,-0.01 -0.306,-0.125 -0.111,-0.24 0.175,-0.316 0.242,-0.489 0.113,0.064 0.238,0.146 0.167,0.283"
           style="fill:#ffffff;fill-opacity:1;fill-rule:nonzero;stroke:none"
           id="path158"
           inkscape:connector-curvature="0" /><path
           d="m 521.3572,79.6003 0.146,0.136 c -0.004,0.12 -0.12,0.234 -0.259,0.177 -0.245,-0.102 -0.271,-0.313 -0.043,-0.43 l 0.156,0.117 z"
           style="fill:#ffffff;fill-opacity:1;fill-rule:nonzero;stroke:none"
           id="path160"
           inkscape:connector-curvature="0" /><path
           d="m 513.2677,75.7373 c 0.023,0.047 -0.032,0.197 -0.15,0.271 -0.132,0.077 -0.215,0.04 -0.269,-0.076 -0.113,-0.238 0.071,-0.322 0.205,-0.386 0.121,0.056 0.171,0.103 0.214,0.191"
           style="fill:#ffffff;fill-opacity:1;fill-rule:nonzero;stroke:none"
           id="path162"
           inkscape:connector-curvature="0" /><path
           d="m 513.1874,76.518 c -0.033,0.223 -0.205,0.213 -0.239,0.166 -0.063,-0.093 -0.151,-0.158 -0.199,-0.281 -0.056,-0.143 0.008,-0.226 0.105,-0.311 0.068,0.343 0.407,-0.093 0.333,0.426"
           style="fill:#ffffff;fill-opacity:1;fill-rule:nonzero;stroke:none"
           id="path164"
           inkscape:connector-curvature="0" /><path
           d="m 513.8806,77.5364 c -0.052,-0.082 -0.012,0.278 -0.198,0.104 -0.151,-0.139 -0.189,-0.25 -0.09,-0.466 0.105,-0.097 0.326,-0.141 0.322,-0.019 -0.005,0.112 -0.117,0.249 -0.034,0.381"
           style="fill:#ffffff;fill-opacity:1;fill-rule:nonzero;stroke:none"
           id="path166"
           inkscape:connector-curvature="0" /><path
           d="m 512.3474,75.8208 -0.258,0.025 c -0.056,-0.045 -0.059,-0.188 -0.036,-0.284 0.028,-0.124 0.117,-0.149 0.203,-0.054 0.087,0.093 0.152,0.192 0.091,0.313"
           style="fill:#ffffff;fill-opacity:1;fill-rule:nonzero;stroke:none"
           id="path168"
           inkscape:connector-curvature="0" /><path
           d="m 511.3965,74.9815 0.034,-0.357 c 0.102,-0.087 0.27,-0.159 0.313,-0.096 0.183,0.265 0.039,0.644 -0.184,0.912 -0.049,0.057 -0.182,0.038 -0.282,0.048 -0.104,-0.103 -0.063,-0.275 0.119,-0.507"
           style="fill:#ffffff;fill-opacity:1;fill-rule:nonzero;stroke:none"
           id="path170"
           inkscape:connector-curvature="0" /><path
           d="m 510.9419,74.6489 c -0.125,0.09 -0.147,0.247 -0.334,0.122 -0.374,-0.248 -0.505,-0.706 -0.23,-1.001 0.066,-0.072 0.536,-0.034 0.584,0.258 0.038,0.232 0.169,0.486 -0.02,0.621"
           style="fill:#ffffff;fill-opacity:1;fill-rule:nonzero;stroke:none"
           id="path172"
           inkscape:connector-curvature="0" /><path
           d="m 511.759,73.1284 c 0.508,-0.326 0.411,-0.712 0.79,-1.105 0.114,-0.116 0.571,-0.579 0.774,-0.349 0.056,0.064 -1.297,2.49 -1.52,2.461 -0.252,-0.034 -0.561,-0.676 -0.044,-1.007"
           style="fill:#ffffff;fill-opacity:1;fill-rule:nonzero;stroke:none"
           id="path174"
           inkscape:connector-curvature="0" /><path
           d="m 512.7329,74.8631 c 0.059,0.355 -0.197,0.159 -0.33,0.172 -0.422,-0.166 0.057,-0.83 0.136,-0.79 0.343,0.099 0.139,0.288 0.194,0.618"
           style="fill:#ffffff;fill-opacity:1;fill-rule:nonzero;stroke:none"
           id="path176"
           inkscape:connector-curvature="0" /><path
           d="m 513.4637,73.644 c 0.046,0.521 -0.519,0.58 -0.721,0.546 -0.516,-0.09 0.602,-1.455 1.018,-1.272 0.301,0.133 -0.333,0.309 -0.297,0.726"
           style="fill:#ffffff;fill-opacity:1;fill-rule:nonzero;stroke:none"
           id="path178"
           inkscape:connector-curvature="0" /><path
           d="m 511.5507,72.5944 c -0.275,0.158 -0.254,0.646 -0.491,0.54 -0.381,-0.172 -0.808,-1.4 -0.501,-1.43 0.256,-0.025 0.33,-0.226 0.447,-0.269 0.477,0.176 1.15,0.811 0.545,1.159"
           style="fill:#ffffff;fill-opacity:1;fill-rule:nonzero;stroke:none"
           id="path180"
           inkscape:connector-curvature="0" /><path
           d="m 512.7101,70.5242 c 0.071,0.192 0.113,0.422 0.053,0.599 -0.146,0.426 -0.607,0.769 -0.919,0.516 -0.45,-0.361 -0.711,-1.185 -0.062,-1.609 0.355,-0.23 0.779,0.086 0.928,0.494"
           style="fill:#ffffff;fill-opacity:1;fill-rule:nonzero;stroke:none"
           id="path182"
           inkscape:connector-curvature="0" /><path
           d="m 513.145,69.2069 c 0.13,-0.378 0.386,-0.363 0.672,-0.252 0.628,0.242 0.957,0.805 0.604,1.171 -0.363,0.375 -0.845,0.356 -1.145,0.254 -0.195,-0.067 -0.201,-0.967 -0.131,-1.173"
           style="fill:#ffffff;fill-opacity:1;fill-rule:nonzero;stroke:none"
           id="path184"
           inkscape:connector-curvature="0" /><path
           d="m 514.2117,70.9741 c 0.192,-0.022 0.282,-0.348 0.53,-0.268 0.204,0.065 0.094,0.297 0.042,0.42 -0.188,0.429 -0.681,0.53 -1.166,0.33 -0.218,-0.09 -0.196,-0.278 -0.065,-0.478 0.133,-0.2 0.443,0.02 0.659,-0.004"
           style="fill:#ffffff;fill-opacity:1;fill-rule:nonzero;stroke:none"
           id="path186"
           inkscape:connector-curvature="0" /><path
           d="m 514.8928,69.5059 c -0.049,-0.555 0.128,-1.178 0.627,-1.236 0.094,-0.012 0.33,-0.021 0.436,0.06 0.508,0.378 0.807,1.326 0.425,1.674 -0.393,0.358 -0.81,0.418 -1.347,0.376 -0.243,-0.02 -0.114,-0.567 -0.141,-0.874"
           style="fill:#ffffff;fill-opacity:1;fill-rule:nonzero;stroke:none"
           id="path188"
           inkscape:connector-curvature="0" /><path
           d="m 520.6157,72.136 c -0.016,-0.153 -0.089,-0.367 -0.019,-0.427 0.223,-0.197 0.505,0.016 0.735,0.056 0.538,0.097 0.41,1.128 0.302,1.434 -0.164,0.469 -0.97,-0.622 -1.018,-1.063"
           style="fill:#ffffff;fill-opacity:1;fill-rule:nonzero;stroke:none"
           id="path190"
           inkscape:connector-curvature="0" /><path
           d="m 521.101,73.4011 c 0.362,0.147 0.08,0.466 0.172,0.681 -0.659,0.43 -1.242,-1.176 -1.229,-1.407 0.019,-0.293 0.323,0.129 0.486,0.247 0.194,0.141 0.022,0.256 0.571,0.479"
           style="fill:#ffffff;fill-opacity:1;fill-rule:nonzero;stroke:none"
           id="path192"
           inkscape:connector-curvature="0" /><path
           d="m 520.7561,74.4591 c 0.143,0.21 0.225,0.411 0.122,0.641 l -0.367,-0.025 c 0.123,-0.666 -0.728,-0.861 -0.657,-1.298 0.016,-0.101 0.651,0.316 0.902,0.682"
           style="fill:#ffffff;fill-opacity:1;fill-rule:nonzero;stroke:none"
           id="path194"
           inkscape:connector-curvature="0" /><path
           d="m 521.0499,75.8422 c -0.01,-0.103 -0.003,-0.273 -0.242,-0.411 -0.016,10e-4 0.533,-0.056 0.513,0.344 -0.025,0.501 0.664,0.598 0.216,1.04 -0.094,0.091 -0.357,0.147 -0.421,-0.082 -0.097,-0.352 -0.028,-0.533 -0.066,-0.891"
           style="fill:#ffffff;fill-opacity:1;fill-rule:nonzero;stroke:none"
           id="path196"
           inkscape:connector-curvature="0" /><path
           d="m 520.6717,75.9472 c 0.227,0.06 0.201,0.27 0.182,0.436 -0.015,0.124 -0.116,0.214 -0.267,0.189 0.076,-0.214 -0.203,-0.275 -0.182,-0.442 0.016,-0.126 0.119,-0.225 0.267,-0.183"
           style="fill:#ffffff;fill-opacity:1;fill-rule:nonzero;stroke:none"
           id="path198"
           inkscape:connector-curvature="0" /><path
           d="m 522.6152,73.5804 c 0.528,0.337 0.325,1.55 0.129,1.707 -0.11,0.087 -0.391,0.136 -0.412,-0.081 -0.052,-0.507 -0.468,-0.669 -0.469,-1.171 0.32,-0.084 0.252,-0.774 0.752,-0.455"
           style="fill:#ffffff;fill-opacity:1;fill-rule:nonzero;stroke:none"
           id="path200"
           inkscape:connector-curvature="0" /><path
           d="m 521.6656,77.9162 c 0.004,-0.207 -0.034,-0.409 -0.056,-0.614 0.164,-0.006 0.364,-0.114 0.456,0.109 0.138,0.344 0.382,0.75 0.085,1.03 -0.314,0.297 -0.488,-0.213 -0.485,-0.525"
           style="fill:#ffffff;fill-opacity:1;fill-rule:nonzero;stroke:none"
           id="path202"
           inkscape:connector-curvature="0" /></g></g></g></svg>