<?xml version="1.0" encoding="UTF-8" standalone="no"?>
<!-- Created with Inkscape (http://www.inkscape.org/) -->

<svg
   xmlns:dc="http://purl.org/dc/elements/1.1/"
   xmlns:cc="http://creativecommons.org/ns#"
   xmlns:rdf="http://www.w3.org/1999/02/22-rdf-syntax-ns#"
   xmlns:svg="http://www.w3.org/2000/svg"
   xmlns="http://www.w3.org/2000/svg"
   xmlns:sodipodi="http://sodipodi.sourceforge.net/DTD/sodipodi-0.dtd"
   xmlns:inkscape="http://www.inkscape.org/namespaces/inkscape"
   width="84.666664mm"
   height="86.153236mm"
   viewBox="0 0 299.99999 305.26737"
   id="svg17622"
   version="1.1"
   inkscape:version="0.91 r13725"
   sodipodi:docname="Hautes-Pyrénées (65) logo 2017.svg">
  <defs
     id="defs17624" />
  <sodipodi:namedview
     id="base"
     pagecolor="#ffffff"
     bordercolor="#666666"
     borderopacity="1.0"
     inkscape:pageopacity="0.0"
     inkscape:pageshadow="2"
     inkscape:zoom="1.4771654"
     inkscape:cx="160"
     inkscape:cy="144.28571"
     inkscape:document-units="px"
     inkscape:current-layer="layer1"
     showgrid="false"
     fit-margin-top="0"
     fit-margin-left="0"
     fit-margin-right="0"
     fit-margin-bottom="0"
     inkscape:window-width="1366"
     inkscape:window-height="705"
     inkscape:window-x="-8"
     inkscape:window-y="-8"
     inkscape:window-maximized="1" />
  <metadata
     id="metadata17627">
    <rdf:RDF>
      <cc:Work
         rdf:about="">
        <dc:format>image/svg+xml</dc:format>
        <dc:type
           rdf:resource="http://purl.org/dc/dcmitype/StillImage" />
        <dc:title></dc:title>
      </cc:Work>
    </rdf:RDF>
  </metadata>
  <g
     inkscape:label="Calque 1"
     inkscape:groupmode="layer"
     id="layer1"
     transform="translate(-512.56536,-493.15734)">
    <path
       d="m 794.90774,798.4247 -264.68476,0 c -9.75215,0 -17.65762,-7.90547 -17.65762,-17.6554 l 0,-269.95655 c 0,-9.74994 7.90547,-17.65541 17.65762,-17.65541 l 264.68476,0 c 9.75215,0 17.65762,7.90547 17.65762,17.65541 l 0,269.95655 c 0,9.74993 -7.90547,17.6554 -17.65762,17.6554"
       style="fill:#306db5;fill-opacity:1;fill-rule:nonzero;stroke:none"
       id="path616"
       inkscape:connector-curvature="0" />
    <path
       d="m 788.4601,629.24029 0,0.22391 c -2.04398,-0.10872 -3.63128,-2.08167 -6.22062,-1.99743 -3.66454,0.11315 -6.75712,4.55795 -10.21105,5.9945 -6.22728,2.57382 -9.57702,-0.37244 -13.54306,-3.7776 -6.15633,-5.28288 -11.65646,-10.28199 -17.09896,-16.20999 -9.69673,6.66179 -16.37403,16.343 -27.75561,21.31551 l -1.33014,0 c -3.73769,-1.38334 -7.31134,-4.64662 -10.21548,-7.54855 -6.21398,-6.21175 -11.37936,-11.43034 -17.31844,-17.76181 -3.16573,-3.37191 -8.53285,-7.59067 -7.99414,-13.32136 0.54314,-5.79277 7.10295,-11.82496 10.88055,-15.99052 13.00213,-14.31231 23.98909,-31.10978 36.19314,-45.07182 11.98457,9.84969 23.23091,20.43983 32.86113,32.63944 -3.4628,4.67545 -7.22932,9.05161 -10.88055,13.54527 3.38299,3.87293 7.06526,7.51086 10.88055,11.32615 4.37616,4.3673 9.84748,8.07396 11.32393,14.87319 7.11404,6.94999 14.26355,13.86229 20.42875,21.76111"
       style="fill:#bed000;fill-opacity:1;fill-rule:nonzero;stroke:none"
       id="path620"
       inkscape:connector-curvature="0" />
    <path
       d="m 728.06418,520.44141 0.66729,0 c -10.35293,11.80056 -19.38459,24.73619 -29.53135,37.07768 -5.13656,6.24723 -9.86743,12.39469 -14.21256,19.10082 -3.2278,4.97916 -6.32038,10.10907 -10.21326,14.6515 -1.2725,1.48311 -2.31223,3.19899 -3.55148,4.66215 -1.23703,1.45872 -3.25219,2.59599 -4.88605,3.99707 -4.62889,3.96604 -9.61692,8.31117 -14.43203,12.21513 -6.55538,5.30948 -12.82478,11.51902 -20.87434,14.42981 -1.87994,-2.76226 -2.24129,-7.52859 -1.77353,-11.989 -5.4957,2.66472 -10.8606,9.47947 -17.31843,12.4346 -2.42529,1.11067 -6.16299,1.64716 -8.21584,0 -2.64033,-2.11714 -2.69797,-7.48426 -4.66214,-10.87834 -0.97544,-1.69149 -2.78,-3.66232 -4.88384,-3.55812 -1.5607,0.0819 -4.53578,3.10588 -6.21841,4.44267 -2.26567,1.80456 -4.22541,3.25219 -5.99672,4.65993 -3.935,3.14134 -8.57719,7.7525 -13.76696,7.33351 -6.52434,-0.53428 -6.58641,-9.45952 -8.65921,-14.65816 -2.15261,0.6296 -3.57587,2.69797 -5.32722,4.2232 -1.69149,1.46537 -3.49827,2.94626 -5.32721,4.43602 -3.52931,2.87754 -7.92321,6.2561 -12.21291,7.77467 l 0,-0.22612 c 8.60157,-8.90973 18.07218,-17.04354 27.5317,-25.08868 9.36419,-7.96089 18.97889,-16.48488 30.8637,-21.75889 1.2193,2.56718 1.5075,5.89475 2.66472,9.10039 0.97765,2.71792 2.99725,6.39132 5.77281,6.22062 1.56513,-0.0975 4.41385,-3.42955 5.9945,-4.66214 2.18365,-1.70702 4.3939,-3.34309 6.21619,-4.66215 4.38725,-3.17903 9.26665,-7.96754 14.43425,-7.10738 4.78408,0.79808 5.325,6.37359 7.32686,10.87833 8.73238,-6.43788 17.4182,-14.74683 27.31001,-20.42431 0.86016,2.81546 1.11067,6.7416 0.66729,10.21326 9.45065,-10.5857 17.6554,-23.18657 27.9773,-34.1957 9.73885,-10.38175 22.91833,-20.63714 34.63687,-28.64237"
       style="fill:#ffffff;fill-opacity:1;fill-rule:nonzero;stroke:none"
       id="path624"
       inkscape:connector-curvature="0" />
    <path
       d="m 700.1813,525.82073 c -2.27232,-1.72032 -7.92542,-6.01667 -18.2451,-7.94538 -0.65398,-0.11084 -32.90768,-5.41589 -54.65106,17.3007 -0.44116,0.49881 -0.88897,1.01313 -1.33679,1.54518 -2.95291,3.57365 -9.7322,12.65629 -12.10428,23.31737 -0.84686,4.33183 -1.32127,9.06935 0.27268,18.18968 0.0222,0.11759 0.042,0.23721 0.0642,0.35692 0.002,0.0124 0.005,0.0289 0.007,0.042 0.002,0.005 0.0488,0.11971 0.0975,0 -0.0106,-0.13515 -0.0222,-0.2749 -0.0355,-0.42787 -0.0355,-0.4722 -0.0731,-1.03751 -0.0997,-1.67376 l -0.002,-0.84242 c -0.007,0.50767 0,0.79587 0,0.83577 -0.0601,-1.34344 -0.0821,-3.01055 -0.002,-4.86166 l 0.002,4.02589 c 0.0576,-3.05711 0.7494,-13.93323 7.45553,-24.68963 2.67802,-4.00151 6.34699,-8.35772 11.3328,-12.37253 6.33591,-4.78851 14.80004,-8.71464 26.12175,-10.7165 4.35843,-0.68946 12.37253,-1.37448 20.66596,0.85794 0.59635,0.1973 1.19269,0.40569 1.79569,0.63625 0.30815,0.0642 0.61408,0.13088 0.91558,0.1973 4.23207,0.92223 7.84783,1.75135 9.51716,-1.00204 0.71606,-0.9843 1.07298,-1.25255 3.66676,-1.16387 2.59377,0.0908 6.88791,1.07298 4.56238,-1.60947"
       style="fill:#f9b000;fill-opacity:1;fill-rule:nonzero;stroke:none"
       id="path628"
       inkscape:connector-curvature="0" />
    <path
       d="m 788.50689,678.78428 -53.52931,0 0,-10.2576 53.52931,0 0,10.2576 z"
       style="fill:#f9b000;fill-opacity:1;fill-rule:nonzero;stroke:none"
       id="path630"
       inkscape:connector-curvature="0" />
    <path
       d="m 546.6152,718.95298 3.64902,0 c 0.95105,0 2.53613,0 3.85962,-0.58083 1.32128,-0.58083 2.37874,-1.79791 2.37874,-4.12565 0,-2.32553 -1.11067,-3.4362 -2.48515,-4.01703 -1.37448,-0.58083 -3.01277,-0.58083 -4.12344,-0.58083 l -3.27879,0 0,9.30434 z m 2.80216,-18.08105 c 7.24483,0 9.94059,1.10845 12.05551,2.85537 3.06598,2.53613 4.60007,6.39576 4.60007,10.3618 0,3.96603 -1.63829,8.14268 -4.12344,10.2576 -2.69796,2.27232 -5.34051,3.38299 -11.42147,3.38299 l -3.91283,0 0,12.26612 -9.9938,0 0,-39.12388 12.79596,0 z"
       style="fill:#ffffff;fill-opacity:1;fill-rule:nonzero;stroke:none"
       id="path634"
       inkscape:connector-curvature="0" />
    <path
       d="m 578.86957,725.77373 -11.68529,-24.90467 10.83844,0 5.81715,15.70453 5.86813,-15.70453 10.73424,0 -11.57888,24.90467 0,14.22142 -9.99379,0 0,-14.22142 z"
       style="fill:#ffffff;fill-opacity:1;fill-rule:nonzero;stroke:none"
       id="path638"
       inkscape:connector-curvature="0" />
    <path
       d="m 604.4606,700.87039 12.79595,0 c 6.13195,0 9.94059,1.11066 12.10872,2.80216 3.27658,2.53835 4.75747,6.39798 4.75747,10.68103 0,3.01277 -0.84685,5.3383 -1.95752,7.08522 -1.31906,2.06172 -3.22559,3.38299 -5.07449,4.17664 l 8.08947,14.38104 -10.31081,0 -10.20439,-18.8747 1.6405,0 c 2.53614,0 4.70427,-0.21282 6.02554,-1.05968 1.21708,-0.79143 2.22134,-2.64254 2.22134,-4.81067 0,-2.06172 -1.00426,-3.70001 -2.32553,-4.54687 -1.11067,-0.68724 -2.69797,-1.05746 -4.07245,-1.05746 l -3.70001,0 0,30.34938 -9.99379,0 0,-39.12609 z"
       style="fill:#ffffff;fill-opacity:1;fill-rule:nonzero;stroke:none"
       id="path642"
       inkscape:connector-curvature="0" />
    <path
       d="m 690.54177,724.71604 -0.2106,-23.845 9.57036,0 0,39.1261 -8.67252,0 -14.96187,-23.58118 0.21061,23.58118 -9.57037,0 0,-39.1261 8.6171,0 15.01729,23.845 z"
       style="fill:#ffffff;fill-opacity:1;fill-rule:nonzero;stroke:none"
       id="path646"
       inkscape:connector-curvature="0" />
    <path
       d="m 734.95851,700.87039 22.1535,0 0,8.77671 -12.1597,0 0,6.08096 11.7917,0 0,8.77671 -11.7917,0 0,6.715 12.1597,0 0,8.77671 -22.1535,0 0,-39.12609 z"
       style="fill:#ffffff;fill-opacity:1;fill-rule:nonzero;stroke:none"
       id="path650"
       inkscape:connector-curvature="0" />
    <path
       d="m 770.59675,727.04268 c 0,4.54687 2.80217,5.34052 4.07023,5.34052 2.37874,0 3.80864,-1.95752 3.80864,-3.75321 0,-2.06394 -1.64051,-2.69797 -7.66826,-5.23633 -2.74896,-1.11066 -9.57037,-3.85741 -9.57037,-11.20865 0,-7.87887 7.13843,-12.05551 13.6938,-12.05551 5.39373,0 13.00657,2.75117 13.16618,12.16192 l -9.88738,0 c -0.21282,-1.32127 -0.52762,-3.80642 -3.59581,-3.80642 -1.7447,0 -3.4362,1.21486 -3.4362,3.06597 0,1.79791 1.05746,2.27455 8.08947,5.44472 7.29583,3.27879 9.14694,6.664 9.14694,11.21087 0,6.23836 -3.27658,12.52993 -13.6406,12.52993 -10.2576,0 -14.38325,-6.02776 -14.11723,-13.69381 l 9.94059,0 z"
       style="fill:#ffffff;fill-opacity:1;fill-rule:nonzero;stroke:none"
       id="path654"
       inkscape:connector-curvature="0" />
    <path
       d="m 638.98884,700.87039 22.1535,0 0,8.77671 -12.15971,0 0,6.08096 11.7917,0 0,8.77671 -11.7917,0 0,6.715 12.15971,0 0,8.77671 -22.1535,0 0,-39.12609 z"
       style="fill:#ffffff;fill-opacity:1;fill-rule:nonzero;stroke:none"
       id="path658"
       inkscape:connector-curvature="0" />
    <path
       d="m 657.82497,696.80326 -14.84438,0 0,-5.90583 14.84438,0 0,5.90583 z"
       style="fill:#ffffff;fill-opacity:1;fill-rule:nonzero;stroke:none"
       id="path660"
       inkscape:connector-curvature="0" />
    <path
       d="m 707.03974,700.87039 22.1535,0 0,8.77671 -12.15971,0 0,6.08096 11.7917,0 0,8.77671 -11.7917,0 0,6.715 12.15971,0 0,8.77671 -22.1535,0 0,-39.12609 z"
       style="fill:#ffffff;fill-opacity:1;fill-rule:nonzero;stroke:none"
       id="path664"
       inkscape:connector-curvature="0" />
    <path
       d="m 725.87498,696.80326 -14.84437,0 0,-5.90583 14.84437,0 0,5.90583 z"
       style="fill:#ffffff;fill-opacity:1;fill-rule:nonzero;stroke:none"
       id="path666"
       inkscape:connector-curvature="0" />
    <path
       d="m 536.62252,685.96814 0,-39.12609 9.99379,0 0,14.69805 12.79374,0 0,-14.69805 9.9938,0 0,39.12609 -9.9938,0 0,-15.65132 -12.79374,0 0,15.65132 -9.99379,0 z"
       style="fill:#ffffff;fill-opacity:1;fill-rule:nonzero;stroke:none"
       id="path670"
       inkscape:connector-curvature="0" />
    <path
       d="m 592.7762,658.73794 -4.22985,13.64281 8.61931,0 -4.38946,-13.64281 z m -8.51291,27.2302 -10.83843,0 15.49171,-39.12609 8.6171,0 15.01729,39.12609 -10.94484,0 -1.85112,-5.65753 -13.6938,0 -1.79791,5.65753 z"
       style="fill:#ffffff;fill-opacity:1;fill-rule:nonzero;stroke:none"
       id="path674"
       inkscape:connector-curvature="0" />
    <path
       d="m 624.34332,646.84183 0,23.63439 c 0,1.32127 0.0509,3.17017 0.68723,4.70648 0.68724,1.53188 1.95753,2.74896 4.38725,2.74896 2.48515,0 3.75543,-1.11067 4.33626,-2.53835 0.63625,-1.48089 0.63625,-3.38521 0.63625,-4.91709 l 0,-23.63439 9.99158,0 0,23.63439 c 0,6.55538 -1.42769,9.46395 -3.91283,12.00231 -2.53835,2.58934 -6.07875,4.22763 -10.94485,4.22763 -2.85537,0 -8.03626,-0.68502 -11.26186,-4.17443 -3.22559,-3.54261 -3.91283,-6.29378 -3.91283,-12.05551 l 0,-23.63439 9.9938,0 z"
       style="fill:#ffffff;fill-opacity:1;fill-rule:nonzero;stroke:none"
       id="path678"
       inkscape:connector-curvature="0" />
    <path
       d="m 656.06851,655.6181 -7.71925,0 0,-8.77449 25.37909,0 0,8.77449 -7.66605,0 0,30.34939 -9.99379,0 0,-30.34939 z"
       style="fill:#ffffff;fill-opacity:1;fill-rule:nonzero;stroke:none"
       id="path682"
       inkscape:connector-curvature="0" />
    <path
       d="m 677.74782,646.84183 22.1535,0 0,8.7745 -12.15971,0 0,6.08318 11.7917,0 0,8.77671 -11.7917,0 0,6.715 12.15971,0 0,8.77671 -22.1535,0 0,-39.1261 z"
       style="fill:#ffffff;fill-opacity:1;fill-rule:nonzero;stroke:none"
       id="path686"
       inkscape:connector-curvature="0" />
    <path
       d="m 713.38694,673.01392 c 0,4.54686 2.80217,5.34051 4.07024,5.34051 2.37873,0 3.80863,-1.95752 3.80863,-3.75321 0,-2.06394 -1.6405,-2.69797 -7.66826,-5.23411 -2.74896,-1.11288 -9.57037,-3.86184 -9.57037,-11.21087 0,-7.87665 7.13843,-12.05551 13.69381,-12.05551 5.39372,0 13.00656,2.74896 13.16618,12.16192 l -9.88739,0 c -0.21282,-1.32349 -0.52762,-3.80642 -3.59581,-3.80642 -1.7447,0 -3.4362,1.21487 -3.4362,3.06376 0,1.80013 1.05746,2.27454 8.08948,5.44693 7.29582,3.2788 9.14693,6.66401 9.14693,11.20865 0,6.24058 -3.27658,12.53215 -13.64059,12.53215 -10.25761,0 -14.38326,-6.02776 -14.11723,-13.6938 l 9.94058,0 z"
       style="fill:#ffffff;fill-opacity:1;fill-rule:nonzero;stroke:none"
       id="path690"
       inkscape:connector-curvature="0" />
    <path
       d="m 536.62341,754.67503 3.23889,0 0,16.64228 5.60211,0 0,3.00391 -8.841,0 0,-19.64619 z"
       style="fill:#ffffff;fill-opacity:1;fill-rule:nonzero;stroke:none"
       id="path694"
       inkscape:connector-curvature="0" />
    <path
       d="m 553.23486,754.67503 9.42405,0 0,2.99725 -6.18294,0 0,4.96586 6.18294,0 0,2.97287 -6.18294,0 0,5.7063 6.18294,0 0,3.00391 -9.42405,0 0,-19.64619 z"
       style="fill:#ffffff;fill-opacity:1;fill-rule:nonzero;stroke:none"
       id="path698"
       inkscape:connector-curvature="0" />
    <path
       d="m 586.93443,771.31797 2.01738,0 c 3.79755,0 4.70205,-3.60912 4.70205,-6.82362 0,-2.20139 -0.34584,-3.89953 -1.0885,-5.04124 -0.74488,-1.16831 -1.88658,-1.78017 -3.71774,-1.78017 l -1.91319,0 0,13.64503 z m -3.23889,-16.64228 5.20528,0 c 2.81325,0 4.85723,0.92888 6.23615,2.86424 1.19712,1.70036 1.83337,4.11678 1.83337,6.95442 0,6.18737 -3.02607,9.8253 -7.96311,9.8253 l -5.31169,0 0,-19.64396 z"
       style="fill:#ffffff;fill-opacity:1;fill-rule:nonzero;stroke:none"
       id="path702"
       inkscape:connector-curvature="0" />
    <path
       d="m 613.0216,748.83327 1.1151,2.31001 -6.07874,2.89084 -0.98431,-1.91097 5.94795,-3.28988 z m -7.93873,5.84153 9.42627,0 0,2.99725 -6.18737,0 0,4.96586 6.18737,0 0,2.97287 -6.18737,0 0,5.7063 6.18737,0 0,3.0039 -9.42627,0 0,-19.64618 z"
       style="fill:#ffffff;fill-opacity:1;fill-rule:nonzero;stroke:none"
       id="path706"
       inkscape:connector-curvature="0" />
    <path
       d="m 626.62983,764.07003 1.59395,0 c 1.16609,0 1.88437,-0.15962 2.46741,-0.74044 0.50545,-0.47664 0.79809,-1.33014 0.79809,-2.44303 0,-1.14392 -0.29264,-2.01738 -0.82469,-2.49401 -0.55644,-0.53428 -1.27472,-0.7205 -2.44081,-0.7205 l -1.59395,0 0,6.39798 z m 1.62055,-9.39523 c 2.01738,0 3.55813,0.47664 4.72422,1.54075 1.14392,1.00647 1.85776,2.67802 1.85776,4.64441 0,2.0196 -0.71384,3.63572 -1.85776,4.67323 -1.16609,1.06189 -2.73344,1.53853 -4.72422,1.53853 l -1.62055,0 0,7.24926 -3.24111,0 0,-19.64618 4.86166,0 z"
       style="fill:#ffffff;fill-opacity:1;fill-rule:nonzero;stroke:none"
       id="path710"
       inkscape:connector-curvature="0" />
    <path
       d="m 646.13413,759.21324 -1.69815,7.59289 3.39851,0 -1.70036,-7.59289 z m -3.71553,15.10819 -3.2921,0 5.4425,-19.64618 3.05267,0 5.60211,19.64618 -3.2921,0 -1.24811,-4.54243 -5.04346,0 -1.22151,4.54243 z"
       style="fill:#ffffff;fill-opacity:1;fill-rule:nonzero;stroke:none"
       id="path714"
       inkscape:connector-curvature="0" />
    <path
       d="m 660.27553,754.67503 4.56682,0 c 2.83985,0 4.3806,0.63625 5.20307,1.50971 1.1151,1.14392 1.75135,2.65807 1.75135,4.62003 0,1.1151 -0.18622,2.25902 -0.68946,3.1879 -0.66285,1.27472 -1.59173,2.07059 -2.73565,2.46741 l 3.79755,7.86114 -3.63794,0 -4.32739,-9.6657 c 0.37244,0 0.58526,0 0.87568,-0.0266 0.95548,-0.0245 1.80677,-0.26603 2.41864,-0.84686 0.71384,-0.71827 0.97987,-1.70036 0.97987,-2.68466 0,-1.06412 -0.23943,-2.1238 -1.13949,-2.83985 -0.60965,-0.47664 -1.51414,-0.58527 -2.60264,-0.58527 l -1.22152,0 0,16.64894 -3.23889,0 0,-19.64619 z"
       style="fill:#ffffff;fill-opacity:1;fill-rule:nonzero;stroke:none"
       id="path718"
       inkscape:connector-curvature="0" />
    <path
       d="m 681.63715,757.67294 -3.56034,0 0,-2.99725 10.35515,0 0,2.99725 -3.55813,0 0,16.64671 -3.23668,0 0,-16.64671 z"
       style="fill:#ffffff;fill-opacity:1;fill-rule:nonzero;stroke:none"
       id="path722"
       inkscape:connector-curvature="0" />
    <path
       d="m 696.15009,754.67503 9.42405,0 0,2.99725 -6.18516,0 0,4.96586 6.18516,0 0,2.97287 -6.18516,0 0,5.7063 6.18516,0 0,3.00391 -9.42405,0 0,-19.64619 z"
       style="fill:#ffffff;fill-opacity:1;fill-rule:nonzero;stroke:none"
       id="path726"
       inkscape:connector-curvature="0" />
    <path
       d="m 714.37746,774.32077 0,-19.64618 4.80402,0 3.45615,14.23029 3.31649,-14.23029 4.80402,0 0,19.64618 -2.89305,0 0,-16.22107 -3.98156,16.22107 -2.52283,0 -4.08797,-16.22107 0,16.22107 -2.89527,0 z"
       style="fill:#ffffff;fill-opacity:1;fill-rule:nonzero;stroke:none"
       id="path730"
       inkscape:connector-curvature="0" />
    <path
       d="m 739.6927,754.67503 9.42405,0 0,2.99725 -6.18516,0 0,4.96586 6.18516,0 0,2.97287 -6.18516,0 0,5.7063 6.18516,0 0,3.00391 -9.42405,0 0,-19.64619 z"
       style="fill:#ffffff;fill-opacity:1;fill-rule:nonzero;stroke:none"
       id="path734"
       inkscape:connector-curvature="0" />
    <path
       d="m 767.53211,768.07886 0,-13.40338 2.86867,0 0,19.64396 -3.05489,0 -6.531,-14.20369 0,14.20369 -2.89305,0 0,-19.64396 3.4495,0 6.16077,13.40338 z"
       style="fill:#ffffff;fill-opacity:1;fill-rule:nonzero;stroke:none"
       id="path738"
       inkscape:connector-curvature="0" />
    <path
       d="m 781.61741,757.67294 -3.55812,0 0,-2.99725 10.35514,0 0,2.99725 -3.55812,0 0,16.64671 -3.2389,0 0,-16.64671 z"
       style="fill:#ffffff;fill-opacity:1;fill-rule:nonzero;stroke:none"
       id="path742"
       inkscape:connector-curvature="0" />
  </g>
</svg>
