<?xml version="1.0" encoding="UTF-8" standalone="no"?>
<!-- Created with Inkscape (http://www.inkscape.org/) -->

<svg
   xmlns:dc="http://purl.org/dc/elements/1.1/"
   xmlns:cc="http://creativecommons.org/ns#"
   xmlns:rdf="http://www.w3.org/1999/02/22-rdf-syntax-ns#"
   xmlns:svg="http://www.w3.org/2000/svg"
   xmlns="http://www.w3.org/2000/svg"
   xmlns:sodipodi="http://sodipodi.sourceforge.net/DTD/sodipodi-0.dtd"
   xmlns:inkscape="http://www.inkscape.org/namespaces/inkscape"
   width="84.666664mm"
   height="53.056507mm"
   viewBox="0 0 299.99999 187.9955"
   id="svg4328"
   version="1.1"
   inkscape:version="0.91 r13725"
   sodipodi:docname="Cher (18) logo 2016.svg">
  <defs
     id="defs4330">
    <clipPath
       clipPathUnits="userSpaceOnUse"
       id="clipPath24">
      <path
         d="m 270.796,10.345 67.856,0 0,42.523 -67.856,0 0,-42.523 z"
         id="path26"
         inkscape:connector-curvature="0" />
    </clipPath>
  </defs>
  <sodipodi:namedview
     id="base"
     pagecolor="#ffffff"
     bordercolor="#666666"
     borderopacity="1.0"
     inkscape:pageopacity="0.0"
     inkscape:pageshadow="2"
     inkscape:zoom="2.1318182"
     inkscape:cx="172.85714"
     inkscape:cy="82.857143"
     inkscape:document-units="px"
     inkscape:current-layer="layer1"
     showgrid="false"
     fit-margin-top="0"
     fit-margin-left="0"
     fit-margin-right="0"
     fit-margin-bottom="0"
     inkscape:window-width="1366"
     inkscape:window-height="705"
     inkscape:window-x="-8"
     inkscape:window-y="-8"
     inkscape:window-maximized="1" />
  <metadata
     id="metadata4333">
    <rdf:RDF>
      <cc:Work
         rdf:about="">
        <dc:format>image/svg+xml</dc:format>
        <dc:type
           rdf:resource="http://purl.org/dc/dcmitype/StillImage" />
        <dc:title></dc:title>
      </cc:Work>
    </rdf:RDF>
  </metadata>
  <g
     inkscape:label="Calque 1"
     inkscape:groupmode="layer"
     id="layer1"
     transform="translate(-583.30366,-556.65768)">
    <g
       id="g16"
       transform="matrix(4.4210619,0,0,-4.4210619,705.98813,556.65768)">
      <path
         d="M 0,0 -27.75,-32.671 0.04,-5.769 40.107,-42.34 0,0 Z"
         style="fill:#213a8f;fill-opacity:1;fill-rule:nonzero;stroke:none"
         id="path18"
         inkscape:connector-curvature="0" />
    </g>
    <g
       transform="matrix(4.4210619,0,0,-4.4210619,-613.90311,790.3895)"
       id="g20">
      <g
         id="g22"
         clip-path="url(#clipPath24)">
        <g
           id="g28"
           transform="translate(271.3656,11.0346)">
          <path
             d="M 0,0 0.194,0 C 1.326,0 2.305,0.424 2.305,1.715 2.305,3.012 1.326,3.43 0.194,3.43 L 0,3.43 0,0 Z m -0.554,3.937 0.919,0 c 1.362,0 2.494,-0.719 2.494,-2.198 0,-1.515 -1.108,-2.246 -2.511,-2.246 l -0.902,0 0,4.444 z"
             style="fill:#213a8f;fill-opacity:1;fill-rule:nonzero;stroke:none"
             id="path30"
             inkscape:connector-curvature="0" />
        </g>
        <g
           id="g32"
           transform="translate(277.5368,16.1331)">
          <path
             d="M 0,0 -0.967,-0.878 -1.226,-0.719 -0.489,0.259 0,0 Z m -1.963,-1.161 2.387,0 0,-0.507 -1.833,0 0,-1.244 1.78,0 0,-0.507 -1.78,0 0,-1.679 1.833,0 0,-0.508 -2.387,0 0,4.445 z"
             style="fill:#213a8f;fill-opacity:1;fill-rule:nonzero;stroke:none"
             id="path34"
             inkscape:connector-curvature="0" />
        </g>
        <g
           id="g36"
           transform="translate(279.9947,12.8854)">
          <path
             d="m 0,0 0.177,0 c 0.566,0 1.179,0.106 1.179,0.813 0,0.696 -0.66,0.779 -1.209,0.779 L 0,1.592 0,0 Z m 0,-2.358 -0.554,0 0,4.445 0.636,0 c 1.368,0 1.792,-0.472 1.792,-1.285 0,-0.938 -0.713,-1.297 -1.556,-1.297 l -0.318,0 0,-1.863 z"
             style="fill:#213a8f;fill-opacity:1;fill-rule:nonzero;stroke:none"
             id="path38"
             inkscape:connector-curvature="0" />
        </g>
        <g
           id="g40"
           transform="translate(284.3337,13.9463)">
          <path
             d="m 0,0 -0.79,-1.798 1.58,0 L 0,0 Z m -1.02,-2.305 -0.507,-1.114 -0.595,0 2.122,4.633 2.122,-4.633 -0.595,0 -0.507,1.114 -2.04,0 z"
             style="fill:#213a8f;fill-opacity:1;fill-rule:nonzero;stroke:none"
             id="path42"
             inkscape:connector-curvature="0" />
        </g>
        <g
           id="g44"
           transform="translate(288.1768,12.8677)">
          <path
             d="m 0,0 0.177,0 c 0.566,0 1.178,0.106 1.178,0.813 0,0.696 -0.66,0.796 -1.208,0.796 L 0,1.609 0,0 Z m 2.21,-2.34 -0.672,0 -1.308,1.88 -0.23,0 0,-1.88 -0.554,0 0,4.444 0.672,0 C 0.513,2.104 0.937,2.098 1.291,1.898 1.662,1.68 1.874,1.261 1.874,0.837 1.874,0.2 1.45,-0.33 0.807,-0.407 L 2.21,-2.34 Z"
             style="fill:#213a8f;fill-opacity:1;fill-rule:nonzero;stroke:none"
             id="path46"
             inkscape:connector-curvature="0" />
        </g>
        <g
           id="g48"
           transform="translate(292.699,10.5275)">
          <path
             d="m 0,0 -0.554,0 0,3.937 -1.055,0 0,0.508 2.664,0 0,-0.508 L 0,3.937 0,0 Z"
             style="fill:#213a8f;fill-opacity:1;fill-rule:nonzero;stroke:none"
             id="path50"
             inkscape:connector-curvature="0" />
        </g>
        <g
           id="g52"
           transform="translate(294.9857,14.9721)">
          <path
             d="m 0,0 2.387,0 0,-0.507 -1.833,0 0,-1.244 1.78,0 0,-0.507 -1.78,0 0,-1.679 1.833,0 0,-0.508 L 0,-4.445 0,0 Z"
             style="fill:#213a8f;fill-opacity:1;fill-rule:nonzero;stroke:none"
             id="path54"
             inkscape:connector-curvature="0" />
        </g>
        <g
           id="g56"
           transform="translate(299.6068,13.4632)">
          <path
             d="m 0,0 -0.012,0 -0.518,-2.936 -0.572,0 0.908,4.634 1.526,-3.502 1.527,3.502 0.908,-4.634 -0.572,0 L 2.676,0 2.664,0 1.332,-3.03 0,0 Z"
             style="fill:#213a8f;fill-opacity:1;fill-rule:nonzero;stroke:none"
             id="path58"
             inkscape:connector-curvature="0" />
        </g>
        <g
           id="g60"
           transform="translate(304.6641,14.9721)">
          <path
             d="m 0,0 2.387,0 0,-0.507 -1.833,0 0,-1.244 1.78,0 0,-0.507 -1.78,0 0,-1.679 1.833,0 0,-0.508 L 0,-4.445 0,0 Z"
             style="fill:#213a8f;fill-opacity:1;fill-rule:nonzero;stroke:none"
             id="path62"
             inkscape:connector-curvature="0" />
        </g>
        <g
           id="g64"
           transform="translate(308.4776,15.1841)">
          <path
             d="m 0,0 3.336,-3.495 0,3.283 0.555,0 0,-4.627 -3.337,3.495 0,-3.313 L 0,-4.657 0,0 Z"
             style="fill:#213a8f;fill-opacity:1;fill-rule:nonzero;stroke:none"
             id="path66"
             inkscape:connector-curvature="0" />
        </g>
        <g
           id="g68"
           transform="translate(315.15,10.5275)">
          <path
             d="m 0,0 -0.554,0 0,3.937 -1.055,0 0,0.508 2.664,0 0,-0.508 L 0,3.937 0,0 Z"
             style="fill:#213a8f;fill-opacity:1;fill-rule:nonzero;stroke:none"
             id="path70"
             inkscape:connector-curvature="0" />
        </g>
        <g
           id="g72"
           transform="translate(289.6967,28.1656)">
          <path
             d="m 0,0 c -0.77,0.943 -2.125,1.58 -3.36,1.58 -2.497,0 -4.555,-2.151 -4.555,-4.608 0,-1.169 0.504,-2.271 1.341,-3.095 0.837,-0.797 2.032,-1.381 3.214,-1.381 1.155,0 2.616,0.625 3.36,1.527 l 0,-0.876 c -0.943,-0.784 -2.098,-1.248 -3.334,-1.248 -2.788,0 -5.219,2.324 -5.219,5.126 0,2.842 2.391,5.153 5.233,5.153 1.209,0 2.43,-0.478 3.32,-1.301 L 0,0 Z"
             style="fill:#213a8f;fill-opacity:1;fill-rule:nonzero;stroke:none"
             id="path74"
             inkscape:connector-curvature="0" />
        </g>
        <g
           id="g76"
           transform="translate(298.2766,25.9609)">
          <path
             d="m 0,0 0,4.25 0.637,0 0,-10.014 -0.637,0 0,5.166 -6.083,0 0,-5.166 -0.637,0 0,10.014 0.637,0 0,-4.25 L 0,0 Z"
             style="fill:#213a8f;fill-opacity:1;fill-rule:nonzero;stroke:none"
             id="path78"
             inkscape:connector-curvature="0" />
        </g>
        <g
           id="g80"
           transform="translate(312.5344,25.5359)">
          <path
             d="m 0,0 c 0.624,0 1.248,0.026 1.753,0.465 0.478,0.385 0.704,0.983 0.704,1.58 0,0.744 -0.345,1.488 -1.063,1.806 -0.531,0.253 -1.208,0.226 -1.792,0.226 l -0.412,0 L -0.81,0 0,0 Z m 3.506,-5.339 -0.73,0 -3.267,4.741 -0.319,0 0,-4.741 -0.638,0 0,10.014 1.249,0 c 0.81,0 1.607,-0.013 2.284,-0.505 0.717,-0.505 1.009,-1.301 1.009,-2.151 0,-1.74 -1.208,-2.643 -2.868,-2.617 l 3.28,-4.741 z"
             style="fill:#213a8f;fill-opacity:1;fill-rule:nonzero;stroke:none"
             id="path82"
             inkscape:connector-curvature="0" />
        </g>
        <g
           id="g84"
           transform="translate(322.0872,14.465)">
          <path
             d="m 0,0 0.307,0.507 0.996,0 0,-4.444 -0.531,0 L 0.772,0 0,0 Z"
             style="fill:#52ae32;fill-opacity:1;fill-rule:nonzero;stroke:none"
             id="path86"
             inkscape:connector-curvature="0" />
        </g>
        <g
           id="g88"
           transform="translate(326.5138,13.8284)">
          <path
             d="m 0,0 c 0,-0.354 0.383,-0.754 0.755,-0.754 0.371,0 0.754,0.4 0.754,0.754 0,0.425 -0.354,0.766 -0.754,0.766 C 0.354,0.766 0,0.425 0,0 m -0.106,-2.063 c 0,-0.448 0.424,-0.837 0.861,-0.837 0.436,0 0.86,0.389 0.86,0.837 0,0.472 -0.413,0.837 -0.86,0.837 -0.448,0 -0.861,-0.365 -0.861,-0.837 m 0.171,1.067 c -0.366,0.206 -0.584,0.56 -0.584,0.996 0,0.725 0.566,1.238 1.274,1.238 0.707,0 1.273,-0.513 1.273,-1.238 0,-0.436 -0.219,-0.79 -0.584,-0.996 0.46,-0.159 0.701,-0.589 0.701,-1.067 0,-0.825 -0.636,-1.332 -1.39,-1.332 -0.755,0 -1.392,0.507 -1.392,1.332 0,0.478 0.242,0.908 0.702,1.067"
             style="fill:#52ae32;fill-opacity:1;fill-rule:nonzero;stroke:none"
             id="path90"
             inkscape:connector-curvature="0" />
        </g>
        <g
           id="g92"
           transform="translate(306.4722,26.3837)">
          <path
             d="M 0,0 C 0.882,0.781 1.323,1.556 1.323,2.326 1.323,2.605 1.257,2.827 1.124,2.992 0.992,3.157 0.797,3.239 0.54,3.239 0.062,3.239 -0.406,3.036 -0.865,2.629 -1.325,2.222 -1.738,1.762 -2.106,1.248 -2.495,0.647 -2.804,0.071 -3.032,-0.479 -3.157,-0.772 -3.289,-1.105 -3.429,-1.479 -2.025,-1.274 -0.882,-0.781 0,0 m -3.572,1.478 c 1.455,1.527 2.958,2.29 4.509,2.29 0.573,0 1.029,-0.132 1.367,-0.396 C 2.642,3.108 2.811,2.716 2.811,2.195 2.811,1.139 2.192,0.234 0.954,-0.518 -0.285,-1.27 -1.588,-1.73 -2.954,-1.898 l -0.629,-0.077 c -0.095,-0.302 -0.162,-0.542 -0.198,-0.723 -0.037,-0.18 -0.056,-0.406 -0.056,-0.678 0,-0.646 0.212,-1.15 0.634,-1.51 0.423,-0.36 0.925,-0.54 1.505,-0.54 0.551,0 1.136,0.183 1.753,0.551 0.353,0.213 0.864,0.595 1.533,1.147 l 0.286,-0.254 c -0.331,-0.419 -0.805,-0.849 -1.422,-1.29 -1.095,-0.786 -2.194,-1.179 -3.296,-1.179 -0.779,0 -1.463,0.275 -2.051,0.826 -0.588,0.55 -0.882,1.34 -0.882,2.367 0,1.63 0.735,3.209 2.205,4.736"
             style="fill:#52ae32;fill-opacity:1;fill-rule:nonzero;stroke:none"
             id="path94"
             inkscape:connector-curvature="0" />
        </g>
      </g>
    </g>
  </g>
</svg>
