<?xml version="1.0" encoding="UTF-8" standalone="no"?>
<svg
   xmlns:dc="http://purl.org/dc/elements/1.1/"
   xmlns:cc="http://creativecommons.org/ns#"
   xmlns:rdf="http://www.w3.org/1999/02/22-rdf-syntax-ns#"
   xmlns:svg="http://www.w3.org/2000/svg"
   xmlns="http://www.w3.org/2000/svg"
   xmlns:xlink="http://www.w3.org/1999/xlink"
   viewBox="0 0 800 797.00002"
   height="797"
   width="800"
   xml:space="preserve"
   version="1.1"
   id="svg2"><metadata
     id="metadata8"><rdf:RDF><cc:Work
         rdf:about=""><dc:format>image/svg+xml</dc:format><dc:type
           rdf:resource="http://purl.org/dc/dcmitype/StillImage" /><dc:title></dc:title></cc:Work></rdf:RDF></metadata><defs
     id="defs6"><linearGradient
       id="linearGradient5077"><stop
         id="stop5079"
         offset="0"
         style="stop-color:#144390;stop-opacity:1" /><stop
         id="stop5081"
         offset="1"
         style="stop-color:#101323;stop-opacity:1" /></linearGradient><linearGradient
       id="linearGradient5069"><stop
         id="stop5071"
         offset="0"
         style="stop-color:#70b62c;stop-opacity:1" /><stop
         id="stop5073"
         offset="1"
         style="stop-color:#006e35;stop-opacity:1" /></linearGradient><linearGradient
       id="linearGradient5063"><stop
         style="stop-color:#f28e18;stop-opacity:1"
         offset="0"
         id="stop5065" /><stop
         style="stop-color:#ffdd00;stop-opacity:1"
         offset="1"
         id="stop5067" /></linearGradient><linearGradient
       id="linearGradient5053"><stop
         id="stop5055"
         offset="0"
         style="stop-color:#f28e18;stop-opacity:1" /><stop
         id="stop5057"
         offset="1"
         style="stop-color:#ffdd00;stop-opacity:1" /></linearGradient><linearGradient
       gradientUnits="userSpaceOnUse"
       y2="218.89825"
       x2="479.16306"
       y1="220.62186"
       x1="220.62184"
       id="linearGradient5059"
       xlink:href="#linearGradient5053" /><linearGradient
       gradientUnits="userSpaceOnUse"
       y2="218.89825"
       x2="479.16306"
       y1="220.62186"
       x1="220.62184"
       id="linearGradient5061"
       xlink:href="#linearGradient5063" /><linearGradient
       gradientUnits="userSpaceOnUse"
       y2="248.19958"
       x2="518.80603"
       y1="442.96729"
       x1="208.55658"
       id="linearGradient5075"
       xlink:href="#linearGradient5069" /><linearGradient
       gradientUnits="userSpaceOnUse"
       y2="313.69669"
       x2="529.14771"
       y1="634.28778"
       x1="58.602676"
       id="linearGradient5083"
       xlink:href="#linearGradient5077" /></defs><g
     transform="matrix(1.25,0,0,-1.25,0,797.00003)"
     id="g10"><g
       id="g5147"><g
         id="g5085"><path
           id="path162"
           style="fill:url(#linearGradient5061);fill-opacity:1;fill-rule:nonzero;stroke:none"
           d="m 250.08844,178.75383 c -10.92095,-2.90481 -21.73717,-5.14626 -32.35088,-6.85702 111.54874,-10.92794 219.99716,12.86214 266.14587,59.01085 15.64127,45.28286 -16.96798,70.41362 -28.27298,80.96449 C 442.65753,253.23138 338.42667,201.99926 250.08844,178.75383" /><path
           id="path164"
           style="fill:url(#linearGradient5075);fill-opacity:1;fill-rule:nonzero;stroke:none"
           d="m 309.36185,345.87654 c 98.79133,-4.57368 174.72129,-44.72424 174.44896,-95.31395 -0.0489,-9.20321 -2.69532,-18.20392 -7.48546,-26.72282 19.5446,16.47919 37.69265,35.63275 42.02895,57.46767 7.4854,80.80389 -128.02098,163.98888 -292.12856,185.04174 -7.44357,0.94266 -14.88015,1.7736 -22.20501,2.45093 L 309.36185,345.87654 Z" /><path
           id="path166"
           style="fill:url(#linearGradient5083);fill-opacity:1;fill-rule:nonzero;stroke:none"
           d="M 54.07548,637.40455 172.09719,498.12049 C 355.6935,475.71997 511.6872,397.82089 526.0855,306.927 c 2.0739,9.6082 4.0989,26.26894 2.0739,46.34422 -14.126,139.96836 -171.48134,250.45573 -400.99593,278.74268 -24.78861,3.07239 -49.2211,4.83901 -73.06704,5.40461 l -0.0209,-0.014 z" /><path
           id="path168"
           style="fill:url(#linearGradient5059);fill-opacity:1;fill-rule:nonzero;stroke:none"
           d="m 320.13127,301.22352 -0.37008,0 0,-10.43216 c 0,-1.47335 -4.036,-4.69238 -4.036,-8.90295 l 0,-12.70155 c 0,0 -5.6141,0.27233 -6.96176,-0.39801 -2.97464,-1.4943 -10.39725,-7.24805 -11.57035,-8.00917 -0.41896,-0.27931 0.51672,-8.70045 -3.99411,-8.70045 l -9.68501,0 c -0.32819,2.02499 -0.8868,6.36125 -0.8868,6.36125 l -1.11025,-6.3822 c 0,0 -19.69124,-43.65588 -65.42797,-72.20119 18.56702,-2.89084 134.36125,34.30604 165.05723,63.46583 -0.32819,0.25836 -1.34766,0.014 -2.95369,-0.23742 -3.54721,-0.55163 -9.89449,-1.10326 -17.63133,3.82653 -4.02902,2.5836 -6.78719,8.03011 -6.78719,8.03011 l -3.86842,0 c 0,0 0.13267,9.25907 -0.007,11.13742 -0.11172,1.36163 -1.89231,1.20801 -1.89231,1.20801 l -18.37848,0.0349 0,14.56593 c 0,4.2804 -3.98713,7.5902 -3.98713,8.83312 l 0,10.50199 -0.43991,0 c 0,0 -1.61999,25.52878 -2.54171,25.52878 -0.90076,0 -2.52774,-25.52878 -2.52774,-25.52878" /></g><g
         id="g5091"><g
           style="fill:#003f73;fill-opacity:1"
           id="g4935"><g
             style="fill:#003f73;fill-opacity:1"
             id="g4930"><path
               id="path4894"
               d="m 621.5217,128.64802 c 2.6743,0 5.0275,0.22344 7.0385,0.6424 2.025,0.4469 3.7218,1.22198 5.0904,2.33223 1.3756,1.12421 2.3811,2.65343 3.0305,4.60858 0.6424,1.9412 0.9357,4.39213 0.8659,7.3528 l -17.7501,0 c -2.0948,0 -3.8614,-0.79603 -5.3068,-2.38111 -1.4315,-1.58507 -2.1577,-3.75669 -2.1577,-6.49392 l 0,-6.06098 9.1893,0 z"
               style="fill:#003f73;fill-opacity:1;fill-rule:nonzero;stroke:none" /><path
               id="path4892"
               d="m 612.3324,81.465862 0,-4.98565 c 0,-2.66041 -0.5167,-4.92979 -1.5152,-6.80115 -1.0125,-1.88534 -1.9901,-2.93274 -2.9188,-3.15619 l 29.6486,0 c 0.07,2.96765 -0.2235,5.4116 -0.8659,7.36676 -0.6494,1.94817 -1.6549,3.47739 -3.0305,4.59462 -1.3686,1.12421 -3.0654,1.90628 -5.0904,2.33222 -2.011,0.43293 -4.3642,0.64939 -7.0385,0.64939 l -9.1893,0 z"
               style="fill:#003f73;fill-opacity:1;fill-rule:nonzero;stroke:none" /><path
               id="path4890"
               d="m 609.9583,112.84615 0,20.78054 c 0,2.31127 0.2793,4.34324 0.8589,6.12383 0.5865,1.75964 1.8015,3.03748 3.6729,3.83351 l -10.928,0 c -1.1521,0 -2.3252,-0.29328 -3.5192,-0.85888 -1.1801,-0.57956 -2.2415,-1.34766 -3.1981,-2.27636 -0.9287,-0.94267 -1.6829,-2.03895 -2.2694,-3.30282 -0.5656,-1.26387 -0.8659,-2.54171 -0.8659,-3.84049 l 0,-66.782608 9.0985,0 c 1.5851,0 2.849,0.47483 3.7916,1.41749 0.9357,0.93568 1.6549,2.07387 2.1647,3.41455 0.5027,1.32671 0.8239,2.73722 0.9636,4.21057 0.1536,1.47335 0.2304,2.72325 0.2304,3.74273 l 0,18.60891 17.7431,0 c 2.6604,0 4.6435,0.77508 5.9492,2.325238 1.2988,1.54318 1.9412,3.26093 1.9412,5.13229 0,1.88533 -0.6633,3.5961 -1.997,5.13928 -1.3337,1.55714 -3.2959,2.33222 -5.8934,2.33222 l -17.7431,0 z"
               style="fill:#003f73;fill-opacity:1;fill-rule:nonzero;stroke:none" /></g><g
             style="fill:#003f73;fill-opacity:1"
             id="g4925"><path
               id="path4888"
               d="m 560.0599,95.536022 0,-19.69822 c 0,-1.38257 0.2863,-2.64644 0.8658,-3.84049 0.5796,-1.20102 1.3617,-2.24144 2.3253,-3.14221 0.9776,-0.90776 2.0808,-1.63396 3.3098,-2.16464 1.215,-0.54465 2.4788,-0.80301 3.7846,-0.80301 l 5.9493,0 0,11.47258 c 0,3.74273 -0.4749,6.82211 -1.4175,9.18226 -0.9287,2.39507 -2.1228,4.24549 -3.5472,5.58617 -1.4594,1.31973 -3.0724,2.22748 -4.8251,2.70231 -1.7666,0.46784 -3.4913,0.70525 -5.1462,0.70525 l -1.2988,0 z"
               style="fill:#003f73;fill-opacity:1;fill-rule:nonzero;stroke:none" /><path
               id="path4886"
               d="m 570.0172,144.34514 c -1.1591,0 -2.3182,-0.29327 -3.5123,-0.86586 -1.201,-0.58654 -2.2624,-1.33369 -3.205,-2.27636 -0.9287,-0.94266 -1.6899,-2.04593 -2.2624,-3.29584 -0.5796,-1.27085 -0.8659,-2.54868 -0.8659,-3.84747 l 0,-21.21346 -30.9474,0 0,-14.929028 32.4557,0 c 1.3756,0 2.7791,-0.14663 4.2245,-0.43991 1.4454,-0.28629 2.814,-0.77508 4.1128,-1.45938 1.3128,-0.68431 2.5068,-1.57111 3.624,-2.63947 1.1173,-1.08232 2.046,-2.38808 2.7582,-3.91031 l 0,54.877088 -6.3822,0 z"
               style="fill:#003f73;fill-opacity:1;fill-rule:nonzero;stroke:none" /><path
               id="path4884"
               d="m 510.4966,83.846972 0,-4.32928 c 0,-1.44542 0.1536,-2.87688 0.4888,-4.27342 0.3212,-1.40352 0.8659,-2.76515 1.62,-4.05695 0.7541,-1.30577 1.8923,-2.49283 3.4145,-3.58213 0.7193,-0.49577 1.5781,-0.87284 2.5836,-1.1312 1.0265,-0.25137 2.053,-0.40499 3.1004,-0.48879 1.0334,-0.0698 1.997,-0.0978 2.8699,-0.0978 l 2.1506,0 0,68.172158 c 0,1.29879 -0.2863,2.57662 -0.8519,3.84747 -0.5865,1.24991 -1.3476,2.35318 -2.2763,3.29584 -0.9497,0.94267 -2.0041,1.68982 -3.2051,2.27636 -1.1801,0.57259 -2.3462,0.86586 -3.5193,0.86586 l -6.3752,0 0,-60.498168 z"
               style="fill:#003f73;fill-opacity:1;fill-rule:nonzero;stroke:none" /></g><g
             style="fill:#003f73;fill-opacity:1"
             id="g4921"><path
               id="path4882"
               d="m 479.43754,81.954652 c -1.22197,-0.47482 -2.63946,-0.78206 -4.21755,-0.92171 -1.66189,-0.27931 -3.57515,-0.43293 -5.7328,-0.43293 -4.11282,0 -8.08598,0.50275 -11.9125,1.51525 -3.82653,1.00551 -7.30391,2.54868 -10.44613,4.60858 -3.12127,2.04594 -5.85151,4.66445 -8.16977,7.8346 -2.30429,3.17713 -3.99411,6.933828 -5.07643,11.249138 l -0.0559,-0.75413 -0.0628,-0.75413 c 0,-5.621078 0.98456,-10.851128 2.91877,-15.634278 1.94817,-4.80411 4.60859,-8.93089 7.96028,-12.40129 3.36567,-3.44946 7.30392,-6.15875 11.85664,-8.10692 4.54574,-1.94818 9.4476,-2.93274 14.71955,-2.93274 4.74824,0 8.86803,0.67732 12.33844,1.99705 3.46342,1.34767 6.3403,2.85593 8.65157,4.48988 2.6674,1.89232 4.87393,4.04997 6.60564,6.50789 -1.30576,1.94817 -2.75816,3.53325 -4.32927,4.7622 -1.3756,1.01249 -2.9886,1.76663 -4.82505,2.26938 -1.83646,0.50974 -3.7986,0.14664 -5.89341,-1.06835 -1.66188,-1.01948 -3.10032,-1.77361 -4.32928,-2.22749"
               style="fill:#003f73;fill-opacity:1;fill-rule:nonzero;stroke:none" /><path
               id="path4880"
               d="m 453.24541,92.666132 c -1.87137,3.85445 -2.66739,7.988208 -2.36714,12.387318 0,3.25394 0.42595,6.3403 1.28482,9.25209 0.86586,2.93273 2.17162,5.48142 3.89635,7.68796 1.73171,2.19955 3.86144,3.95221 6.39616,5.24401 2.52076,1.30576 5.43953,1.94817 8.7633,1.94817 1.36162,0 2.59058,-0.0559 3.6729,-0.15362 1.07534,-0.11172 2.07386,-0.29327 2.96765,-0.54465 0.90775,-0.25836 1.82947,-0.57956 2.77214,-0.97758 0.94266,-0.39103 1.99007,-0.91473 3.13523,-1.56412 2.09481,-1.22896 4.05695,-1.60602 5.89341,-1.13818 1.83645,0.46784 3.44945,1.208 4.82505,2.2205 1.57111,1.22895 3.02351,2.81403 4.32927,4.7622 -1.73171,2.45093 -3.93824,4.61557 -6.60564,6.48694 -2.31127,1.6549 -5.18815,3.17015 -8.65157,4.55272 -3.47041,1.36861 -7.5902,2.05292 -12.33844,2.05292 -1.73171,0 -3.72877,-0.1606 -6.01211,-0.48879 -2.26938,-0.32819 -4.60859,-0.90775 -7.03159,-1.73171 -2.423,-0.83094 -4.82505,-1.98309 -7.25503,-3.46342 -2.423,-1.47336 -4.69238,-3.3517 -6.81512,-5.62807 -2.12973,-2.27636 -4.00808,-5.02755 -5.62807,-8.28149 -1.613,-3.23997 -2.86989,-7.03857 -3.72876,-11.36086 -0.14664,-2.37412 0.30026,-5.17419 1.35464,-8.39321 1.04043,-3.20507 2.6674,-6.319348 4.85997,-9.363808 2.20653,-3.02352 4.95772,-5.69091 8.28149,-7.98822 3.32377,-2.32524 7.25503,-3.76368 11.80077,-4.33626 -3.32377,2.01102 -5.91435,4.95772 -7.79968,8.81916"
               style="fill:#003f73;fill-opacity:1;fill-rule:nonzero;stroke:none" /></g><g
             style="fill:#003f73;fill-opacity:1"
             id="g4916"><path
               id="path4878"
               d="m 369.92077,121.83289 c 0,0.71922 0.021,1.82249 0.0559,3.30282 0.0349,1.47335 0.16758,3.00955 0.38405,4.60161 0.22345,1.57809 0.5656,3.07937 1.07534,4.48988 0.50275,1.39654 1.25688,2.35317 2.26938,2.86291 -1.06836,2.018 -2.71628,3.63799 -4.92281,4.87393 -2.19956,1.22197 -4.42006,1.80154 -6.64754,1.72473 -2.24145,-0.0698 -4.21756,-0.90077 -5.90039,-2.48585 -1.6968,-1.58507 -2.54869,-4.14773 -2.54869,-7.68796 l 0,-67.529758 5.95625,0 c 1.30577,0 2.56266,0.27931 3.79161,0.82396 1.22198,0.53767 2.31826,1.26387 3.30282,2.15766 0.9706,0.90775 1.74568,1.94817 2.31128,3.12825 0.57956,1.20801 0.87284,2.48585 0.87284,3.84747 l 0,45.890348 z"
               style="fill:#003f73;fill-opacity:1;fill-rule:nonzero;stroke:none" /><path
               id="path4876"
               d="m 372.19713,122.14712 c 0,4.69936 0.39103,8.01614 1.18706,9.95734 0.78905,1.95515 1.66188,3.00256 2.60455,3.1492 0.35612,-0.43293 1.3337,-1.86439 2.91877,-4.2804 1.57809,-2.423 3.53325,-5.36971 5.83754,-8.86804 2.3043,-3.49834 4.82506,-7.25503 7.52038,-11.26311 2.70929,-3.99411 5.32781,-7.78572 7.84856,-11.360858 2.53473,-3.56816 4.83204,-6.67547 6.91987,-9.30097 2.09481,-2.63248 3.68686,-4.2804 4.76918,-4.92979 1.14517,-0.70525 2.34619,-1.34068 3.58213,-1.83645 1.20801,-0.50275 2.5836,-0.76112 4.09885,-0.76112 l 0,-6.49391 c 0,-1.36861 -0.15362,-2.66041 -0.48181,-3.88937 -0.3212,-1.24292 -0.87283,-2.32524 -1.61998,-3.24696 -0.76112,-0.94266 -1.80852,-1.67585 -3.1492,-2.21352 -1.32672,-0.54465 -2.96765,-0.77508 -4.91583,-0.71223 -1.31275,0 -2.45093,0.20948 -3.4704,0.64939 -1.0125,0.43991 -1.88534,0.97059 -2.64645,1.56412 -0.76112,0.61448 -1.41051,1.26387 -1.94818,1.95516 -0.54465,0.68431 -1.03344,1.31973 -1.45938,1.89232 -0.3631,0.43991 -1.20801,1.66188 -2.54171,3.67988 -1.34068,2.01801 -2.96066,4.45497 -4.86694,7.29693 -1.92025,2.85593 -3.96618,5.89341 -6.12384,9.09847 -2.15067,3.20506 -4.21755,6.24254 -6.16573,9.091478 -1.94817,2.84196 -3.65195,5.26496 -5.08341,7.24805 -1.43844,1.97611 -2.37412,3.1911 -2.81403,3.62403 l 0,9.95036 z"
               style="fill:#003f73;fill-opacity:1;fill-rule:nonzero;stroke:none" /><path
               id="path4874"
               d="m 408.55609,91.639672 c -0.94267,1.22896 -1.80154,2.41602 -2.59757,3.56816 -0.94267,1.29879 -1.84344,2.6674 -2.70231,4.11282 l 0,34.194308 c 0,1.59206 0.32121,3.01653 0.96361,4.2804 0.65638,1.25689 1.50129,2.28335 2.54869,3.08636 1.05439,0.78904 2.17861,1.40352 3.41455,1.84343 1.21499,0.41896 2.41601,0.63543 3.56816,0.63543 l 5.84452,0 -0.11172,-58.326548 c -1.29878,0 -2.7442,0.30025 -4.33626,0.9287 -1.57809,0.60051 -2.86989,1.4524 -3.88238,2.5417 -0.87284,0.85189 -1.76663,1.8993 -2.70929,3.13524"
               style="fill:#003f73;fill-opacity:1;fill-rule:nonzero;stroke:none" /></g><g
             style="fill:#003f73;fill-opacity:1"
             id="g4911"><path
               id="path4872"
               d="m 305.53323,126.69984 c 0.43293,1.15215 0.92172,2.36714 1.45938,3.62402 0.53767,1.26387 1.24293,2.47188 2.10878,3.63101 1.01249,1.22198 2.2205,2.28335 3.62403,3.1911 1.4105,0.89379 3.12127,1.52921 5.14625,1.89231 -0.73318,1.22198 -1.613,2.27637 -2.65343,3.13524 -1.05439,0.86585 -2.40205,1.55016 -4.05695,2.0599 -1.58507,0.57956 -3.46342,0.86585 -5.62806,0.86585 -1.08232,0 -2.07387,-0.0698 -2.96765,-0.21646 -0.92172,-0.14664 -1.75964,-0.37008 -2.54869,-0.64939 -1.80852,-0.57957 -3.28886,-1.38956 -4.44798,-2.44395 -1.15215,-1.04042 -2.10878,-2.19955 -2.86291,-3.45644 -0.75414,-1.26387 -1.35465,-2.5836 -1.78758,-3.95221 -0.42594,-1.36861 -0.85887,-2.6674 -1.2918,-3.89635 l -20.56407,-63.961598 5.84453,0 c 3.02351,0 5.46047,0.50276 7.29692,1.46637 1.84344,0.97758 3.33076,2.18559 4.44799,3.63799 1.11025,1.43146 1.9761,2.99558 2.59058,4.69936 0.61448,1.6968 1.1731,3.30981 1.67585,4.81109 l 14.61481,45.562158 z"
               style="fill:#003f73;fill-opacity:1;fill-rule:nonzero;stroke:none" /><path
               id="path4870"
               d="m 331.01313,94.334992 c -2.05292,1.51525 -4.91583,2.27637 -8.6027,2.27637 l -23.90879,0 -4.87393,-14.92205 26.29688,0 c 0.64939,-1.74568 1.29878,-3.49833 1.94817,-5.29987 0.64241,-1.80852 1.52921,-3.44946 2.65343,-4.92979 1.11723,-1.48732 2.59757,-2.66042 4.43402,-3.56817 1.84343,-0.90077 4.28738,-1.36861 7.30391,-1.36861 l 5.84453,0 c -1.23594,3.76368 -2.3043,7.12236 -3.23998,10.06907 -0.43991,1.31274 -0.83094,2.54868 -1.19404,3.79859 -0.3631,1.22197 -0.70526,2.32524 -1.03344,3.28885 -0.32819,0.98456 -0.58655,1.76663 -0.80301,2.38111 l -0.32819,1.14516 c -0.93568,3.23998 -2.42998,5.62108 -4.49686,7.12934"
               style="fill:#003f73;fill-opacity:1;fill-rule:nonzero;stroke:none" /><path
               id="path4868"
               d="m 309.42958,129.84206 c -0.50276,-1.0893 -0.94267,-2.13671 -1.29879,-3.14222 -0.43292,-1.23594 -0.87283,-2.47886 -1.29878,-3.78463 l 7.56926,-24.236968 c 1.44542,0 3.03747,0.014 4.76918,0.0489 1.72473,0.0349 3.44248,0 5.13229,-0.10474 1.68982,-0.11173 3.28886,-0.405 4.76919,-0.87284 1.47335,-0.46784 2.72326,-1.16611 3.73575,-2.11576 l -11.1444,34.850688 c -0.37008,1.01947 -0.74017,2.07386 -1.14516,3.19808 -0.39802,1.11723 -0.88681,2.21351 -1.45939,3.30282 -1.95516,-0.3631 -3.5542,-0.9287 -4.8041,-1.68284 -1.27085,-0.75413 -2.33223,-1.71076 -3.21205,-2.86989 -0.5656,-0.64241 -1.11723,-1.50826 -1.613,-2.59058"
               style="fill:#003f73;fill-opacity:1;fill-rule:nonzero;stroke:none" /></g><g
             style="fill:#003f73;fill-opacity:1"
             id="g4905"><path
               id="path4866"
               d="m 234.75651,122.80351 c 0.43991,2.45093 0.9706,4.60859 1.61999,6.44504 0.64939,1.82947 1.52921,3.40756 2.59757,4.70634 1.0893,1.29879 2.40903,2.31826 4.01505,3.07239 1.57809,0.7681 3.56118,1.36163 5.94229,1.78758 -1.65491,2.23446 -3.52627,3.80557 -5.62108,4.71332 -2.1018,0.90077 -4.40609,1.35465 -6.93383,1.35465 -2.59757,0 -4.75522,-0.34215 -6.49392,-1.02646 -1.72473,-0.6843 -3.13523,-1.68283 -4.21057,-2.97463 -1.0893,-1.29879 -1.95516,-2.85593 -2.59059,-4.65049 -0.65637,-1.80852 -1.208,-3.82652 -1.63395,-6.06797 L 206.295,69.127422 c 0.21646,-0.43293 0.99852,-1.08232 2.33222,-1.94119 1.3337,-0.87982 3.03748,-1.29878 5.13229,-1.29878 2.31128,0 4.12678,0.29327 5.47444,0.92171 1.32672,0.6075 2.41602,1.52223 3.24696,2.75119 0.83094,1.23594 1.45241,2.75119 1.8993,4.59462 0.41896,1.85042 0.85189,3.93825 1.2918,6.33332 l 9.0845,42.315198 z"
               style="fill:#003f73;fill-opacity:1;fill-rule:nonzero;stroke:none" /><path
               id="path4864"
               d="m 251.31251,130.27501 c -0.3631,1.86438 -0.61448,3.28187 -0.76112,4.21755 -0.13965,0.94267 -0.28629,1.58508 -0.41896,1.94818 l -0.33517,0.64939 c -2.09481,-0.20948 -3.94523,-0.80301 -5.56522,-1.73171 -1.63395,-0.93569 -2.93972,-1.99007 -3.95919,-3.14222 -0.64241,-0.79603 -1.20103,-1.67585 -1.67585,-2.64645 -0.47482,-0.97758 -0.85189,-1.94817 -1.13818,-2.92575 -0.27931,-0.9706 -0.48879,-1.89232 -0.60051,-2.75817 -0.10475,-0.86586 -0.15362,-1.55016 -0.15362,-2.05292 l 6.60564,-40.262278 c 0.20948,-1.58508 0.60749,-3.23998 1.18007,-4.97867 0.58655,-1.73172 1.47336,-3.30981 2.65343,-4.76221 1.19405,-1.43844 2.75817,-2.63248 4.72031,-3.56816 1.9412,-0.93569 4.42006,-1.40353 7.46452,-1.40353 l 2.69532,0 -10.71147,63.416948 z"
               style="fill:#003f73;fill-opacity:1;fill-rule:nonzero;stroke:none" /><path
               id="path4862"
               d="m 191.03778,122.80351 c 0.21647,1.44542 0.4469,3.14222 0.70526,5.09039 0.25137,1.94818 0.94964,3.81954 2.10877,5.62108 0.85888,1.36861 2.12973,2.51378 3.78463,3.42153 1.66887,0.89378 3.53325,1.52921 5.63505,1.87835 -1.66189,2.23446 -3.54722,3.80557 -5.63505,4.71332 -2.08783,0.90077 -4.40609,1.35465 -6.91986,1.35465 -2.59757,0 -4.76919,-0.34215 -6.5009,-1.02646 -1.73171,-0.6843 -3.14222,-1.68283 -4.21057,-2.97463 -1.09629,-1.29879 -1.96214,-2.85593 -2.60455,-4.65049 -0.65638,-1.80852 -1.18008,-3.82652 -1.61999,-6.06797 l -11.25613,-63.640388 5.95625,0 c 3.02352,0 5.36971,0.47483 7.03159,1.41749 1.6549,0.93568 2.89782,2.13671 3.72877,3.56816 0.83094,1.45241 1.38955,3.03748 1.67584,4.75523 0.2863,1.74567 0.54466,3.40058 0.76112,4.98565 l 7.35977,41.554088 z"
               style="fill:#003f73;fill-opacity:1;fill-rule:nonzero;stroke:none" /><path
               id="path4860"
               d="m 206.83965,130.27501 c -0.58655,2.45093 -1.11723,4.14772 -1.61999,5.08341 l -0.87284,1.40352 c -2.08783,-0.21646 -3.82652,-0.71922 -5.19513,-1.50826 -1.36861,-0.80302 -2.48585,-1.80154 -3.3517,-3.03748 -0.64939,-1.00551 -1.1731,-2.03895 -1.57111,-3.08636 -0.405,-1.04042 -0.69129,-2.03895 -0.85887,-2.96765 -0.18854,-0.94965 -0.29328,-1.78757 -0.33517,-2.5417 -0.0349,-0.76112 -0.0489,-1.35465 -0.0489,-1.78758 1.80154,-6.93382 3.32377,-12.91102 4.54574,-17.95952 1.22197,-5.062458 2.2205,-9.349838 2.97463,-12.883088 0.76112,-3.54024 1.34767,-6.44504 1.78758,-8.7214 0.43292,-2.2624 0.77508,-4.10584 1.02645,-5.50936 0.25138,-1.41749 0.46086,-2.47188 0.59353,-3.1911 0.14664,-0.7262 0.36311,-1.34766 0.6494,-1.8574 l 8.1139,34.208278 -5.83754,24.35569 z"
               style="fill:#003f73;fill-opacity:1;fill-rule:nonzero;stroke:none" /></g><g
             style="fill:#003f73;fill-opacity:1"
             id="g4900"><path
               id="path4858"
               d="m 91.15016,126.69986 c 0.43991,1.15215 0.91474,2.36714 1.46637,3.62402 0.53069,1.26387 1.2499,2.47188 2.10878,3.63101 1.00551,1.22198 2.2205,2.28335 3.631,3.1911 1.39655,0.89379 3.11429,1.52921 5.13229,1.89231 -0.7262,1.22198 -1.60602,2.27637 -2.66041,3.13524 -1.03344,0.86585 -2.38808,1.55016 -4.04298,2.0599 -1.59206,0.57956 -3.47041,0.86585 -5.63505,0.86585 -1.07534,0 -2.07386,-0.0698 -2.96765,-0.21646 -0.90775,-0.14664 -1.75964,-0.37008 -2.55567,-0.64939 -1.79456,-0.57957 -3.27489,-1.38956 -4.42704,-2.44395 -1.15913,-1.04042 -2.10877,-2.19955 -2.86989,-3.45644 -0.75413,-1.26387 -1.34766,-2.5836 -1.78757,-3.95221 -0.42595,-1.36861 -0.85887,-2.6674 -1.2918,-3.89635 l -20.57106,-63.961598 5.84453,0 c 3.03748,0 5.46746,0.50276 7.31788,1.46637 1.83645,0.97758 3.3098,2.18559 4.42703,3.63799 1.11723,1.43146 1.99007,2.99558 2.59757,4.69936 0.60749,1.6968 1.16611,3.30981 1.67585,4.81109 l 14.60782,45.562158 z"
               style="fill:#003f73;fill-opacity:1;fill-rule:nonzero;stroke:none" /><path
               id="path4856"
               d="m 116.63704,94.335012 c -2.05291,1.51525 -4.91582,2.27637 -8.60269,2.27637 l -23.91577,0 -4.87393,-14.92205 26.29687,0 c 0.64939,-1.74568 1.2918,-3.49833 1.94818,-5.29987 0.66335,-1.80852 1.53619,-3.44946 2.65342,-4.92979 1.12422,-1.48732 2.59757,-2.66042 4.44101,-3.56817 1.85041,-0.90077 4.26643,-1.36861 7.30391,-1.36861 l 5.84452,0 c -1.22895,3.76368 -2.31127,7.12236 -3.24696,10.06907 -0.43292,1.31274 -0.82396,2.54868 -1.19404,3.79859 -0.35612,1.22197 -0.70525,2.32524 -1.01947,3.28885 -0.32819,0.98456 -0.6075,1.76663 -0.81698,2.38111 l -0.33517,1.14516 c -0.9287,3.23998 -2.42998,5.62108 -4.4829,7.12934"
               style="fill:#003f73;fill-opacity:1;fill-rule:nonzero;stroke:none" /><path
               id="path4854"
               d="m 95.04651,129.84208 c -0.50275,-1.0893 -0.9287,-2.13671 -1.29878,-3.14222 -0.43293,-1.23594 -0.85888,-2.47886 -1.2918,-3.78463 l 7.56925,-24.236968 c 1.44542,0 3.0305,0.014 4.76919,0.0489 1.72473,0.0349 3.44247,0 5.13229,-0.10474 1.68981,-0.11173 3.28187,-0.405 4.76919,-0.87284 1.47335,-0.46784 2.71627,-1.16611 3.73575,-2.11576 l -11.15837,34.850688 c -0.35612,1.01947 -0.7262,2.07386 -1.1312,3.19808 -0.39801,1.11723 -0.8868,2.21351 -1.45938,3.30282 -1.95516,-0.3631 -3.5542,-0.9287 -4.81807,-1.68284 -1.26387,-0.75413 -2.33222,-1.71076 -3.18412,-2.86989 -0.58654,-0.64241 -1.11723,-1.50826 -1.63395,-2.59058"
               style="fill:#003f73;fill-opacity:1;fill-rule:nonzero;stroke:none" /></g><g
             style="fill:#003f73;fill-opacity:1"
             id="g4896"><path
               id="path4852"
               d="m 22.64981,127.99866 c 0,1.2918 -0.007,2.55567 -0.0559,3.79161 -0.0349,1.22198 -0.21646,2.41602 -0.53766,3.56817 -0.32819,1.14516 -0.85888,2.29032 -1.61999,3.41454 -0.76112,1.11025 -1.89232,2.21352 -3.41455,3.29584 -0.79602,0.57258 -1.67585,0.99154 -2.65342,1.24292 -0.96362,0.25138 -1.94818,0.43293 -2.91878,0.54465 -0.97059,0.10474 -1.91326,0.1606 -2.81403,0.1606 l -2.10877,0 -0.11871,0 -0.0978,-46.428018 c 0,-4.53177 1.42447,-7.96726 4.27342,-10.29949 2.84894,-2.29731 6.87797,-3.44247 12.06612,-3.44247 l 0,44.151648 z"
               style="fill:#003f73;fill-opacity:1;fill-rule:nonzero;stroke:none" /><path
               id="path170"
               d="m 49.81254,66.522912 c 0.0628,2.96765 -0.21647,5.4116 -0.86586,7.36676 -0.64939,1.94817 -1.66887,3.47739 -3.02351,4.59462 -1.37559,1.12421 -3.07239,1.90628 -5.09039,2.33222 -2.01801,0.43293 -4.3642,0.64939 -7.03159,0.64939 l -12.98784,0 c -2.7442,0 -5.37668,0.48879 -7.89744,1.46637 -2.52774,0.96362 -4.72729,2.92576 -6.60564,5.89341 l 0,-6.59866 c 0,-0.93568 0.13267,-2.28335 0.37707,-4.00807 0.25138,-1.7387 0.83792,-3.45644 1.73171,-5.2091 0.90077,-1.71775 2.20654,-3.233 3.89635,-4.5248 1.6968,-1.29878 3.94523,-1.96214 6.76624,-1.96214 l 30.7309,0 z"
               style="fill:#003f73;fill-opacity:1;fill-rule:nonzero;stroke:none" /></g></g><g
           style="fill:#003f73;fill-opacity:1"
           id="g5028"><path
             style="fill:#003f73;fill-opacity:1;fill-rule:nonzero;stroke:none"
             d="M 744.45312 749.31641 L 724.83203 795.99609 L 731.68359 795.99609 L 736.6582 784.08203 L 754.55078 784.08203 L 759.52734 795.99609 L 766.58789 795.99609 L 746.97461 749.31641 L 744.45312 749.31641 z M 745.53516 761.64062 L 745.68359 761.64062 C 746.25097 763.60451 746.97428 765.75275 747.62891 767.27148 L 752.16797 778.53125 L 739.0332 778.53125 L 743.58008 767.27148 C 744.22595 765.75275 745.02891 763.60451 745.53516 761.64062 z "
             transform="matrix(0.8,0,0,-0.8,0,637.60002)"
             id="path5016" /><path
             style="fill:#003f73;fill-opacity:1;fill-rule:nonzero;stroke:none"
             d="M 445.26172 749.95312 L 445.26172 795.99609 L 452.18359 795.99609 L 452.18359 775.78906 L 458.67578 775.78906 L 473.17383 795.99609 L 481.33594 795.99609 L 465.60742 774.72461 C 470.06762 772.90911 473.67969 768.99842 473.67969 762.87109 C 473.67969 754.15144 466.31333 749.95312 459.82812 749.95312 L 445.26172 749.95312 z M 452.18359 755.88086 L 458.60742 755.88086 C 462.70976 755.88086 466.54883 758.12285 466.54883 762.87109 C 466.54883 767.70662 462.70976 769.88086 458.60742 769.88086 L 452.18359 769.88086 L 452.18359 755.88086 z "
             transform="matrix(0.8,0,0,-0.8,0,637.60002)"
             id="path5000" /><path
             style="fill:#003f73;fill-opacity:1;fill-rule:nonzero;stroke:none"
             d="M 416.97266 749.31641 L 397.3418 795.99609 L 404.20312 795.99609 L 409.17773 784.08203 L 427.0625 784.08203 L 432.05469 795.99609 L 439.125 795.99609 L 419.50391 749.31641 L 416.97266 749.31641 z M 418.0625 761.64062 L 418.20312 761.64062 C 418.77919 763.60451 419.50437 765.75275 420.13281 767.27148 L 424.67969 778.53125 L 411.55273 778.53125 L 416.10742 767.27148 C 416.75332 765.75275 417.55625 763.60451 418.0625 761.64062 z "
             transform="matrix(0.8,0,0,-0.8,0,637.60002)"
             id="path4996" /><path
             style="fill:#003f73;fill-opacity:1;fill-rule:nonzero;stroke:none"
             d="M 371.89062 749.95312 L 371.89062 795.99609 L 378.82031 795.99609 L 378.82031 775.78906 L 385.75 775.78906 C 392.22646 775.78906 399.59375 771.60821 399.59375 762.87109 C 399.59375 754.15144 392.22646 749.95312 385.75 749.95312 L 371.89062 749.95312 z M 378.82031 755.88086 L 384.51172 755.88086 C 388.62278 755.88086 392.45508 758.12285 392.45508 762.87109 C 392.45508 767.70662 388.62278 769.88086 384.51172 769.88086 L 378.82031 769.88086 L 378.82031 755.88086 z "
             transform="matrix(0.8,0,0,-0.8,0,637.60002)"
             id="path4992" /><path
             style="fill:#003f73;fill-opacity:1;fill-rule:nonzero;stroke:none"
             d="M 291.73828 749.95312 L 291.73828 795.99609 L 305.87695 795.99609 C 318.72513 795.99609 330.76172 787.84399 330.76172 772.98828 C 330.76172 758.12385 318.72513 749.95313 305.87695 749.95312 L 291.73828 749.95312 z M 298.66797 755.88086 L 304.64648 755.88086 C 315.04198 755.88086 323.63086 761.29225 323.63086 772.98828 C 323.63086 784.66686 315.04198 790.07031 304.64648 790.07031 L 298.66797 790.07031 L 298.66797 755.88086 z "
             transform="matrix(0.8,0,0,-0.8,0,637.60002)"
             id="path4984" /><path
             style="fill:#003f73;fill-opacity:1;fill-rule:nonzero;stroke:none"
             d="M 66.597656 749.01953 C 54.334281 749.01953 42.21875 758.12428 42.21875 772.91016 C 42.21875 787.84442 54.334281 796.85937 66.597656 796.85938 C 78.869769 796.85938 90.994141 787.84442 90.994141 772.91016 C 90.994141 758.12428 78.869769 749.01953 66.597656 749.01953 z M 66.597656 755.08594 C 74.976906 755.08594 83.914063 761.50216 83.914062 772.91016 C 83.914062 784.31815 74.976906 790.79492 66.597656 790.79492 C 58.096219 790.79492 49.298828 784.31815 49.298828 772.91016 C 49.298828 761.50216 58.096219 755.08594 66.597656 755.08594 z "
             transform="matrix(0.8,0,0,-0.8,0,637.60002)"
             id="path4970" /><path
             style="fill:#003f73;fill-opacity:1;fill-rule:nonzero;stroke:none"
             d="m 640,0.80303342 0,4.79711998 -16.2138,0 0,32.0366586 -5.6002,0 0,-36.83377858 21.814,0 z"
             id="path5020" /><path
             style="fill:#003f73;fill-opacity:1;fill-rule:nonzero;stroke:none"
             d="m 582.7418,32.83271 0,4.804102 -29.2575,0 0,-4.804102 11.8287,0 0,-32.02967658 5.6001,0 0,32.02967658 11.8287,0 z"
             id="path5014" /><path
             style="fill:#003f73;fill-opacity:1;fill-rule:nonzero;stroke:none"
             d="m 549.4413,2.2421875e-5 0,37.636789578125 -5.6002,0 0,-17.435819 c 0,-2.653429 0,-5.823578 0.1118,-8.665539 l -0.1118,-0.05586 c -2.2554,2.7861 -5.6001,6.465987 -7.7368,8.833124 l -15.8088,17.324096 -3.8685,0 0,-36.83377858 5.6002,0 0,18.46925958 c 0,2.779117 0,5.886422 -0.1187,9.238121 l 0.1187,0.05586 c 2.5347,-3.002564 5.7048,-6.682451 8.484,-9.69898 L 547.7724,2.2421875e-5 l 1.6689,0 z"
             id="path5012" /><path
             style="fill:#003f73;fill-opacity:1;fill-rule:nonzero;stroke:none"
             d="m 511.4553,0.80303342 0,4.79711998 -16.26268,0 0,11.3050016 11.94043,0 0,4.790137 -11.94043,0 0,11.137418 14.24468,0 0,4.804102 -19.84481,0 0,-36.83377858 21.86281,0 z"
             id="path5010" /><path
             style="fill:#003f73;fill-opacity:1;fill-rule:nonzero;stroke:none"
             d="m 483.24521,0.80303342 -3.28187,36.83377858 -3.4704,0 -9.70597,-18.937101 c -1.55714,-3.058426 -3.3517,-6.640554 -4.49686,-9.4685496 l -0.11871,0 c -1.21499,2.8279956 -3.11428,6.5916746 -4.61557,9.4685496 l -9.8107,18.937101 -3.46342,0 -3.17713,-36.83377858 4.9647,0 1.44542,16.62582458 c 0.17457,2.199553 0.46086,5.432546 0.57258,8.25356 l 0.11871,0 c 1.27784,-2.702308 2.82101,-5.998145 4.10583,-8.421145 l 8.64459,-16.73754758 2.08085,0 8.53985,16.73754758 c 1.21499,2.367138 3.00955,5.935301 4.16169,8.546834 l 0.11871,0 c 0.11172,-2.716273 0.34913,-5.893405 0.57258,-8.379249 l 1.50128,-16.62582458 5.31384,0 z"
             id="path5008" /><path
             style="fill:#003f73;fill-opacity:1;fill-rule:nonzero;stroke:none"
             d="m 436.72642,0.80303342 0,4.79711998 -16.27669,0 0,11.3050016 11.94741,0 0,4.790137 -11.94741,0 0,11.137418 14.2517,0 0,4.804102 -19.85183,0 0,-36.83377858 21.87682,0 z"
             id="path5006" /><path
             style="fill:#003f73;fill-opacity:1;fill-rule:nonzero;stroke:none"
             d="m 410.80661,32.83271 0,4.804102 -29.26452,0 0,-4.804102 11.84267,0 0,-32.02967658 5.59315,0 0,32.02967658 11.8287,0 z"
             id="path5004" /><path
             style="fill:#003f73;fill-opacity:1;fill-rule:nonzero;stroke:none"
             d="m 292.54749,0.80303342 0,4.79711998 -16.27669,0 0,11.3050016 11.94741,0 0,4.790137 -11.94741,0 0,11.137418 14.25869,0 0,4.804102 -19.85882,0 0,-36.83377858 21.87682,0 z"
             id="path4990" /><path
             style="fill:#003f73;fill-opacity:1;fill-rule:nonzero;stroke:none"
             d="m 289.32148,46.176663 -1.10327,4.727292 c -3.17713,-2.939719 -7.78572,-5.027549 -11.42371,-6.054007 l 2.87688,-2.827996 c 3.64497,0.984562 6.35426,1.899296 9.6501,4.154711"
             id="path4988" /><path
             style="fill:#003f73;fill-opacity:1;fill-rule:nonzero;stroke:none"
             d="m 210.38896,0.80303342 0,4.79711998 -16.22083,0 0,32.0366586 -5.60013,0 0,-36.83377858 21.82096,0 z"
             id="path4982" /><path
             style="fill:#003f73;fill-opacity:1;fill-rule:nonzero;stroke:none"
             d="m 180.2097,37.636812 -5.6141,0 0,-36.83377858 5.6141,0 0,36.83377858 z"
             id="path4980" /><path
             style="fill:#003f73;fill-opacity:1;fill-rule:nonzero;stroke:none"
             d="m 168.77901,0.80303342 0,4.79711998 -16.27669,0 0,11.3050016 11.94043,0 0,4.790137 -11.94043,0 0,11.137418 14.2517,0 0,4.804102 -19.85183,0 0,-36.83377858 21.87682,0 z"
             id="path4978" /><path
             style="fill:#003f73;fill-opacity:1;fill-rule:nonzero;stroke:none"
             d="m 140.89008,11.193301 c 0,6.235557 -4.32928,9.643118 -10.73242,11.835688 -3.86842,1.326715 -5.9353,3.295838 -5.9353,5.711855 0,2.70929 2.29731,5.020566 6.054,5.020566 2.99558,0 5.88642,-1.208008 7.15728,-2.129726 l 1.0893,4.601604 c -1.31973,0.998527 -4.37118,2.150674 -8.01615,2.150674 -7.84158,0 -11.66112,-4.908843 -11.66112,-10.041133 0,-5.076428 3.47041,-8.777262 10.0551,-10.913971 4.43402,-1.438437 6.39616,-3.568163 6.39616,-6.75926 0,-3.3935946 -2.71627,-5.7048706 -6.81512,-5.7048706 -3.97316,0 -7.55529,1.270852 -11.06759,3.749713 l 1.26387,-6.109868 c 1.90628,-1.284818 5.54427,-2.49282698 9.51743,-2.49282698 8.30942,0 12.69456,4.50384598 12.69456,11.08155558"
             id="path4976" /><path
             style="fill:#003f73;fill-opacity:1;fill-rule:nonzero;stroke:none"
             d="m 111.86995,2.2421875e-5 0,37.636789578125 -5.60712,0 0,-17.435819 c 0,-2.653429 0,-5.823578 0.11871,-8.665539 l -0.11871,-0.05586 c -2.24843,2.7861 -5.60013,6.465987 -7.72287,8.833124 l -15.81583,17.324096 -3.8754,0 0,-36.83377858 5.60013,0 0,18.46925958 c 0,2.779117 0,5.886422 -0.11871,9.238121 l 0.11871,0.05586 c 2.5417,-3.002564 5.71185,-6.682451 8.48399,-9.69898 L 110.18711,2.2421875e-5 l 1.68284,0 z"
             id="path4974" /><path
             style="fill:#003f73;fill-opacity:1;fill-rule:nonzero;stroke:none"
             d="m 30.70994,35.960962 c -2.25541,1.270853 -5.76771,2.423 -10.85112,2.423 C 10.67656,38.383962 0,31.973837 0,19.209449 0,6.6266114 10.56484,0.11174542 19.85882,0.11174542 c 4.72729,0 7.33184,0.579565 9.63613,1.79455598 l 1.15913,5.369702 c -2.31127,-1.389559 -5.7747,-2.311276 -10.15984,-2.311276 -7.39468,0 -14.83126,4.734275 -14.83126,14.2447216 0,9.650101 7.62511,14.321531 14.83126,14.321531 3.81256,0 7.45055,-1.263869 9.23114,-2.429982 l 0.98456,4.859964 z"
             id="path172" /></g></g></g></g></svg>