<?xml version="1.0" encoding="UTF-8" standalone="no"?>
<!-- Created with Inkscape (http://www.inkscape.org/) -->

<svg
   xmlns:dc="http://purl.org/dc/elements/1.1/"
   xmlns:cc="http://creativecommons.org/ns#"
   xmlns:rdf="http://www.w3.org/1999/02/22-rdf-syntax-ns#"
   xmlns:svg="http://www.w3.org/2000/svg"
   xmlns="http://www.w3.org/2000/svg"
   xmlns:sodipodi="http://sodipodi.sourceforge.net/DTD/sodipodi-0.dtd"
   xmlns:inkscape="http://www.inkscape.org/namespaces/inkscape"
   id="svg2"
   version="1.1"
   inkscape:version="0.91 r13725"
   xml:space="preserve"
   width="800"
   height="875"
   viewBox="0 0 800 875"
   sodipodi:docname="Logo Saône Loire.svg"><metadata
     id="metadata8"><rdf:RDF><cc:Work
         rdf:about=""><dc:format>image/svg+xml</dc:format><dc:type
           rdf:resource="http://purl.org/dc/dcmitype/StillImage" /><dc:title></dc:title></cc:Work></rdf:RDF></metadata><defs
     id="defs6" /><sodipodi:namedview
     pagecolor="#ffffff"
     bordercolor="#666666"
     borderopacity="1"
     objecttolerance="10"
     gridtolerance="10"
     guidetolerance="10"
     inkscape:pageopacity="0"
     inkscape:pageshadow="2"
     inkscape:window-width="1280"
     inkscape:window-height="691"
     id="namedview4"
     showgrid="false"
     inkscape:zoom="0.3739617"
     inkscape:cx="542.34859"
     inkscape:cy="737.34542"
     inkscape:window-x="0"
     inkscape:window-y="1"
     inkscape:window-maximized="1"
     inkscape:current-layer="g10" /><g
     id="g10"
     inkscape:groupmode="layer"
     inkscape:label="Logo Saône Loire"
     transform="matrix(1.25,0,0,-1.25,0,875.00003)"><g
       id="g94035"
       transform="matrix(14.289035,0,0,14.289035,-5689.4146,-7952.5421)"><g
         transform="matrix(1.0001229,0,0,1.0001229,0.04552231,0.11785004)"
         style="fill:#a8c831;fill-opacity:1"
         id="g93962"><path
           d="m 405.43844,588.5739 33.52139,0 c 0.3728,0.64886 0.77527,1.31577 1.21129,2.00462 l -33.67619,0 c -0.28766,-0.59726 -0.63467,-1.26418 -1.05649,-2.00462"
           style="fill:#a8c831;fill-opacity:1;fill-rule:nonzero;stroke:none"
           id="path12928"
           inkscape:connector-curvature="0" /><path
           d="m 441.06056,591.9281 c 0.40892,0.605 0.84622,1.22161 1.30932,1.84983 l -34.6385,0 c -0.0903,-0.35991 -0.27477,-0.97781 -0.63209,-1.84983 l 33.96127,0 z"
           style="fill:#a8c831;fill-opacity:1;fill-rule:nonzero;stroke:none"
           id="path12930"
           inkscape:connector-curvature="0" /><path
           d="m 403.47677,585.45499 33.83743,0 c 0.29669,0.61532 0.6179,1.25644 0.97909,1.92593 l -33.56266,0 c -0.3728,-0.60242 -0.79076,-1.24612 -1.25386,-1.92593"
           style="fill:#a8c831;fill-opacity:1;fill-rule:nonzero;stroke:none"
           id="path12932"
           inkscape:connector-curvature="0" /><path
           d="m 400.37566,581.30564 c -0.5018,-0.61919 -1.03843,-1.26289 -1.60989,-1.92594 l 36.23034,0 c 0.1419,0.52502 0.33668,1.1713 0.59855,1.92594 l -35.219,0 z"
           style="fill:#a8c831;fill-opacity:1;fill-rule:nonzero;stroke:none"
           id="path12934"
           inkscape:connector-curvature="0" /><path
           d="m 401.21905,582.37065 34.76492,0 c 0.22575,0.59468 0.48891,1.23709 0.79463,1.92594 l -34.11606,0 c -0.44247,-0.61532 -0.92234,-1.25644 -1.44349,-1.92594"
           style="fill:#a8c831;fill-opacity:1;fill-rule:nonzero;stroke:none"
           id="path12936"
           inkscape:connector-curvature="0" /></g><g
         id="g94031"><path
           style="fill:#029de0;fill-opacity:1;fill-rule:evenodd;stroke:none;stroke-width:0.08;stroke-linecap:butt;stroke-linejoin:miter;stroke-miterlimit:4;stroke-dasharray:none;stroke-opacity:1"
           d="m 398.16647,569.76145 c 3.81629,4.85591 9.88276,11.54326 13.78431,17.01099 3.06442,4.29455 4.85161,8.21582 3.35968,11.17872 -1.17831,2.34737 -4.28319,3.11345 -7.35963,3.52332 -4.11416,0.54812 -7.61726,-0.62223 -7.8215,1.97764 -0.11147,1.41908 4.61038,1.93408 9.94704,2.06327 2.00331,0.0485 4.77505,-0.19542 7.14151,-0.74494 5.18911,-1.2218 7.17644,-3.52399 7.31315,-6.38728 0.10349,-2.16749 -1.06808,-4.80351 -3.10603,-7.4987 -2.12508,-2.81042 -5.03771,-5.80601 -8.10107,-8.64534 -6.18555,-5.7332 -5.8004,-5.27496 -15.15746,-12.47768 z"
           id="path93872"
           inkscape:connector-curvature="0"
           sodipodi:nodetypes="cscssscsssc" /><path
           style="fill:#029de0;fill-opacity:1;fill-rule:evenodd;stroke:none;stroke-width:0.08;stroke-linecap:butt;stroke-linejoin:miter;stroke-miterlimit:4;stroke-dasharray:none;stroke-opacity:1"
           d="m 442.95606,605.4513 c -2.67808,-1.59182 -5.20179,-3.0988 -7.29142,-4.86607 -7.70418,-6.51568 -12.38029,-12.40746 -15.08877,-17.22391 -1.94973,-3.46715 -2.27147,-7.04133 -1.4741,-9.31821 0.52927,-1.66907 1.7957,-2.58749 2.72411,-3.26524 2.1494,-1.56907 3.7955,-1.07386 5.07303,0.15913 0.84809,0.81852 1.2052,2.04374 0.40527,3.62244 -0.40083,0.76037 -0.65651,2.09178 -0.61022,2.90732 0.17087,3.01045 1.11761,5.76085 2.33633,8.36885 3.29362,7.04816 8.87979,13.69991 13.92577,19.61569 z"
           id="path93874"
           inkscape:connector-curvature="0"
           sodipodi:nodetypes="csscsscssc" /></g><g
         id="g94000"><g
           id="g93985"
           transform="translate(0,0.37817069)"><path
             inkscape:connector-curvature="0"
             id="path12938"
             style="fill:#00abe3;fill-opacity:1;fill-rule:nonzero;stroke:none"
             d="m 398.8522,556.23039 0,4.37948 0.56114,0 0,-3.84156 1.85886,0 0,-0.53792 -2.42,0 z" /><path
             inkscape:connector-curvature="0"
             id="path12940"
             style="fill:#00abe3;fill-opacity:1;fill-rule:nonzero;stroke:none"
             d="m 402.32508,560.07246 0,-1.21645 1.35835,0 0,-0.51083 -1.35835,0 0,-1.57635 1.86402,0 0,-0.53921 -2.42516,0 0,4.38077 2.45612,0 0,-0.53793 -1.89498,0 z" /><path
             inkscape:connector-curvature="0"
             id="path12942"
             style="fill:#00abe3;fill-opacity:1;fill-rule:nonzero;stroke:none"
             d="m 407.13709,560.07246 0,-3.27525 c 0.12641,-0.0181 0.28121,-0.0284 0.46697,-0.0284 0.39344,0 0.70175,0.15738 0.9262,0.47084 0.22317,0.31476 0.33669,0.74819 0.33669,1.30804 0,1.03714 -0.43731,1.55313 -1.31191,1.55313 -0.0516,0 -0.19092,-0.009 -0.41795,-0.0284 m 0.26702,-3.84284 -0.82817,0 0,4.38077 c 0.52761,0.0193 0.86687,0.0297 1.01264,0.0297 0.57533,0 1.03069,-0.18575 1.36609,-0.55727 0.3341,-0.3728 0.50051,-0.86686 0.50051,-1.48347 0,-1.57894 -0.6824,-2.36969 -2.05107,-2.36969" /><path
             inkscape:connector-curvature="0"
             id="path12944"
             style="fill:#00abe3;fill-opacity:1;fill-rule:nonzero;stroke:none"
             d="m 411.93439,561.9646 -0.63596,-0.99457 -0.39345,0 0.47472,0.99457 0.55469,0 z m -1.26934,-1.89239 0,-1.21774 1.35835,0 0,-0.50826 -1.35835,0 0,-1.57764 1.86273,0 0,-0.53792 -2.42516,0 0,4.37948 2.45741,0 0,-0.53792 -1.89498,0 z" /><path
             inkscape:connector-curvature="0"
             id="path12946"
             style="fill:#00abe3;fill-opacity:1;fill-rule:nonzero;stroke:none"
             d="m 413.7441,560.07246 0,-1.61763 c 0.23735,-0.0194 0.36377,-0.031 0.37538,-0.031 0.69788,0 1.04488,0.29283 1.04488,0.87719 0,0.53405 -0.37151,0.79978 -1.11325,0.79978 -0.0748,0 -0.17801,-0.009 -0.30701,-0.0284 m 0,-2.15555 0,-1.68729 -0.56114,0 0,4.38077 c 0.4244,0.0193 0.68111,0.0297 0.76882,0.0297 1.19452,0 1.79178,-0.4244 1.79178,-1.27578 0,-0.98426 -0.52889,-1.47703 -1.58409,-1.47703 -0.0645,0 -0.20124,0.0103 -0.41537,0.0297" /><path
             inkscape:connector-curvature="0"
             id="path12948"
             style="fill:#00abe3;fill-opacity:1;fill-rule:nonzero;stroke:none"
             d="m 417.05728,559.52139 -0.63725,-1.92723 1.22161,0 -0.58436,1.92723 z m 1.02811,-3.29074 -0.28379,0.92491 -1.53121,0 -0.30314,-0.92491 -0.62822,0 1.67181,4.43882 0.14706,0 1.55055,-4.43882 -0.62306,0 z" /><path
             inkscape:connector-curvature="0"
             id="path12950"
             style="fill:#00abe3;fill-opacity:1;fill-rule:nonzero;stroke:none"
             d="m 419.73115,560.07246 0,-1.42413 c 0.13286,-0.0181 0.26444,-0.0284 0.39215,-0.0284 0.33668,0 0.58178,0.0568 0.73529,0.17286 0.15351,0.11609 0.2309,0.3212 0.2309,0.61918 0,0.2451 -0.0826,0.42054 -0.24767,0.52761 -0.16383,0.10835 -0.4244,0.16124 -0.78044,0.16124 -0.0555,0 -0.16641,-0.009 -0.33023,-0.0284 m 1.69245,-3.84284 -1.09777,1.88079 c -0.12642,0 -0.32379,0.0116 -0.59468,0.031 l 0,-1.91175 -0.56243,0 0,4.38077 c 0.0206,0 0.1664,0.008 0.4373,0.0232 0.2696,0.0142 0.46697,0.0219 0.59081,0.0219 0.98683,0 1.48218,-0.41795 1.48218,-1.25643 0,-0.27477 -0.08,-0.52245 -0.23864,-0.74174 -0.15996,-0.22059 -0.3483,-0.35862 -0.56759,-0.41151 l 1.19323,-2.01623 -0.64241,0 z" /><path
             inkscape:connector-curvature="0"
             id="path12952"
             style="fill:#00abe3;fill-opacity:1;fill-rule:nonzero;stroke:none"
             d="m 423.75072,560.07246 0,-3.84284 -0.56114,0 0,3.84284 -1.30804,0 0,0.53793 3.23656,0 0,-0.53793 -1.36738,0 z" /><path
             inkscape:connector-curvature="0"
             id="path12954"
             style="fill:#00abe3;fill-opacity:1;fill-rule:nonzero;stroke:none"
             d="m 426.15124,560.07246 0,-1.21645 1.35964,0 0,-0.51083 -1.35964,0 0,-1.57635 1.86402,0 0,-0.53921 -2.42516,0 0,4.38077 2.45612,0 0,-0.53793 -1.89498,0 z" /><path
             inkscape:connector-curvature="0"
             id="path12956"
             style="fill:#00abe3;fill-opacity:1;fill-rule:nonzero;stroke:none"
             d="m 431.76626,556.23039 -0.48761,2.81345 -0.89783,-2.87279 -0.1406,0 -0.92492,2.87279 -0.47729,-2.81345 -0.53147,0 0.76753,4.37948 0.25542,0 0.98038,-3.19657 0.90428,3.19657 0.25154,0 0.83333,-4.37948 -0.53276,0 z" /><path
             inkscape:connector-curvature="0"
             id="path12958"
             style="fill:#00abe3;fill-opacity:1;fill-rule:nonzero;stroke:none"
             d="m 433.31062,560.07246 0,-1.21645 1.35964,0 0,-0.51083 -1.35964,0 0,-1.57635 1.86531,0 0,-0.53921 -2.42645,0 0,4.38077 2.45612,0 0,-0.53793 -1.89498,0 z" /><path
             inkscape:connector-curvature="0"
             id="path12960"
             style="fill:#00abe3;fill-opacity:1;fill-rule:nonzero;stroke:none"
             d="m 438.48885,556.17041 -2.12588,3.20172 0,-3.14238 -0.53405,0 0,4.38076 0.22445,0 2.07042,-3.02887 0,3.02887 0.53276,0 0,-4.4401 -0.1677,0 z" /><path
             inkscape:connector-curvature="0"
             id="path12962"
             style="fill:#00abe3;fill-opacity:1;fill-rule:nonzero;stroke:none"
             d="m 440.99928,560.07246 0,-3.84284 -0.56114,0 0,3.84284 -1.30933,0 0,0.53793 3.23656,0 0,-0.53793 -1.36609,0 z" /></g><g
           id="g93969"
           transform="translate(0,0.37817069)"><path
             inkscape:connector-curvature="0"
             id="path12964"
             style="fill:#6b6b6d;fill-opacity:1;fill-rule:nonzero;stroke:none"
             d="m 398.733,562.84489 0.29154,0.7972 c 0.2451,-0.23735 0.52244,-0.35603 0.82817,-0.35603 0.31991,0 0.47987,0.13803 0.47987,0.41537 0,0.16254 -0.0477,0.2967 -0.14448,0.40248 -0.0955,0.10319 -0.28251,0.22703 -0.55985,0.36764 -0.60629,0.30701 -0.90815,0.73787 -0.90815,1.29127 0,0.37022 0.11481,0.66047 0.34701,0.86686 0.2309,0.20769 0.5276,0.31089 0.8875,0.31089 0.36507,0 0.7082,-0.0993 1.02941,-0.30057 l -0.23478,-0.77785 c -0.17931,0.18704 -0.42956,0.28121 -0.74819,0.28121 -0.28508,0 -0.42956,-0.13932 -0.42956,-0.41795 0,-0.10836 0.0464,-0.20898 0.14061,-0.2967 0.0942,-0.089 0.2954,-0.20639 0.60371,-0.35474 0.3083,-0.14706 0.53018,-0.32637 0.66563,-0.53792 0.13544,-0.21156 0.20381,-0.46568 0.20381,-0.76625 0,-0.39731 -0.12125,-0.71078 -0.36377,-0.94039 -0.23994,-0.22833 -0.56888,-0.34314 -0.98425,-0.34314 -0.23349,0 -0.42183,0.0245 -0.56244,0.071 -0.13931,0.0464 -0.3212,0.1419 -0.54179,0.28767" /><path
             inkscape:connector-curvature="0"
             id="path12966"
             style="fill:#6b6b6d;fill-opacity:1;fill-rule:nonzero;stroke:none"
             d="m 403.71503,564.58726 c -0.14061,0.0348 -0.24639,0.0529 -0.31475,0.0529 -0.64628,0 -0.97007,-0.26058 -0.97007,-0.77915 0,-0.38312 0.18189,-0.57533 0.54824,-0.57533 0.49019,0 0.73658,0.29799 0.73658,0.90041 l 0,0.40118 z m 0.0787,-1.59183 c -0.0748,-0.14964 -0.20382,-0.2709 -0.38828,-0.36636 -0.18576,-0.0942 -0.37797,-0.1419 -0.5792,-0.1419 -0.37797,0 -0.67466,0.1161 -0.89138,0.34701 -0.21672,0.23091 -0.32378,0.55856 -0.32378,0.98425 0,0.49535 0.15221,0.88493 0.45665,1.16614 0.30443,0.28122 0.73916,0.42054 1.29901,0.42054 0.0967,0 0.21026,-0.0206 0.34184,-0.0593 0,0.50438 -0.26187,0.75721 -0.78302,0.75721 -0.30959,0 -0.5663,-0.0632 -0.77398,-0.18833 l -0.17802,0.77786 c 0.2825,0.1664 0.6179,0.24896 1.00747,0.24896 0.53534,0 0.9275,-0.14964 1.17517,-0.44762 0.25155,-0.29799 0.3741,-0.86171 0.3741,-1.69374 l 0,-0.91847 c 0,-0.57017 0.0955,-0.93136 0.2825,-1.07842 -0.0671,-0.14448 -0.1419,-0.23349 -0.22574,-0.26703 -0.0838,-0.0323 -0.17802,-0.049 -0.28509,-0.049 -0.11868,0 -0.22446,0.0529 -0.31733,0.15996 -0.0942,0.10707 -0.15867,0.22317 -0.19092,0.3483" /><path
             inkscape:connector-curvature="0"
             id="path12968"
             style="fill:#6b6b6d;fill-opacity:1;fill-rule:nonzero;stroke:none"
             d="m 406.03957,564.72361 c 0,-0.94555 0.27735,-1.41898 0.83462,-1.41898 0.25541,0 0.45794,0.12255 0.60887,0.36894 0.14964,0.24638 0.22445,0.59597 0.22445,1.05004 0,0.93266 -0.27863,1.39834 -0.83332,1.39834 -0.25542,0 -0.45923,-0.12255 -0.61016,-0.36636 -0.14964,-0.24638 -0.22446,-0.58952 -0.22446,-1.03198 m 1.30804,2.71541 -0.5147,0.59597 -0.45665,-0.59597 -0.87461,0 1.16356,1.26159 0.35088,0 1.20613,-1.26159 -0.87461,0 z m -2.16071,-2.71541 c 0,0.65531 0.1535,1.18807 0.4631,1.59957 0.30959,0.4128 0.71723,0.61919 1.22419,0.61919 0.53405,0 0.94813,-0.19865 1.24225,-0.59339 0.2954,-0.39602 0.44375,-0.93781 0.44375,-1.62537 0,-0.68369 -0.15093,-1.22806 -0.45149,-1.63182 -0.30057,-0.40377 -0.71078,-0.605 -1.23451,-0.605 -0.53276,0 -0.94814,0.2051 -1.24354,0.61274 -0.29541,0.40634 -0.44375,0.94813 -0.44375,1.62408" /><path
             inkscape:connector-curvature="0"
             id="path12970"
             style="fill:#6b6b6d;fill-opacity:1;fill-rule:nonzero;stroke:none"
             d="m 411.4727,562.56638 0,2.48192 c 0,0.36635 -0.0568,0.63467 -0.17156,0.80237 -0.1161,0.16769 -0.30186,0.25283 -0.56243,0.25283 -0.11997,0 -0.24768,-0.0413 -0.38571,-0.12513 -0.13545,-0.0826 -0.24251,-0.18446 -0.31862,-0.3083 l 0,-3.10369 -0.82043,0 0,4.29434 0.59081,0 0.15093,-0.39989 c 0.22317,0.31991 0.55211,0.48116 0.98683,0.48116 0.41667,0 0.74561,-0.15351 0.98813,-0.45924 0.24122,-0.3083 0.36119,-0.73399 0.36119,-1.28223 l 0,-2.63414 -0.81914,0 z" /><path
             inkscape:connector-curvature="0"
             id="path12972"
             style="fill:#6b6b6d;fill-opacity:1;fill-rule:nonzero;stroke:none"
             d="m 413.83375,565.16104 1.72341,0 c -0.0568,0.62822 -0.34055,0.94169 -0.85267,0.94169 -0.46698,0 -0.75722,-0.31347 -0.87074,-0.94169 m 2.47805,-0.75334 -2.50772,0 c 0.0142,-0.34314 0.11094,-0.61016 0.28767,-0.79721 0.17672,-0.19092 0.41537,-0.28638 0.71465,-0.28638 0.37409,0 0.65788,0.11997 0.85138,0.35733 l 0.31863,-0.76625 c -0.28896,-0.28509 -0.71852,-0.42827 -1.29127,-0.42827 -0.53534,0 -0.95846,0.19091 -1.27063,0.57404 -0.31089,0.38441 -0.46568,0.91846 -0.46568,1.60602 0,0.67724 0.17027,1.22548 0.51212,1.64472 0.34184,0.42054 0.75206,0.62951 1.23064,0.62951 0.50954,0 0.91846,-0.18575 1.22677,-0.55856 0.3083,-0.37022 0.46181,-0.84364 0.46181,-1.41768 0,-0.12384 -0.0219,-0.3096 -0.0684,-0.55727" /><path
             inkscape:connector-curvature="0"
             id="path12974"
             style="fill:#6b6b6d;fill-opacity:1;fill-rule:nonzero;stroke:none"
             d="m 416.94957,564.47581 1.73373,0 0,0.94168 -1.73373,0 0,-0.94168 z" /><path
             inkscape:connector-curvature="0"
             id="path12976"
             style="fill:#6b6b6d;fill-opacity:1;fill-rule:nonzero;stroke:none"
             d="m 420.15568,565.16104 1.72341,0 c -0.0555,0.62822 -0.34055,0.94169 -0.85139,0.94169 -0.46826,0 -0.7585,-0.31347 -0.87202,-0.94169 m 2.47805,-0.75334 -2.50772,0 c 0.0155,-0.34314 0.11223,-0.61016 0.28766,-0.79721 0.17802,-0.19092 0.41538,-0.28638 0.71465,-0.28638 0.37539,0 0.65789,0.11997 0.85268,0.35733 l 0.31862,-0.76625 c -0.28895,-0.28509 -0.71981,-0.42827 -1.29256,-0.42827 -0.53405,0 -0.95716,0.19091 -1.26933,0.57404 -0.31218,0.38441 -0.46827,0.91846 -0.46827,1.60602 0,0.67724 0.17286,1.22548 0.5147,1.64472 0.34056,0.42054 0.75077,0.62951 1.23064,0.62951 0.50826,0 0.91718,-0.18575 1.22419,-0.55856 0.3096,-0.37022 0.46311,-0.84364 0.46311,-1.41768 0,-0.12384 -0.0219,-0.3096 -0.0684,-0.55727" /><path
             inkscape:connector-curvature="0"
             id="path12978"
             style="fill:#6b6b6d;fill-opacity:1;fill-rule:nonzero;stroke:none"
             d="m 423.48305,566.055 -0.40763,0 0,0.80494 0.40763,0 0,0.87461 0.81914,0.36893 0,-1.24354 0.96232,0 0,-0.80494 -0.96232,0 0,-1.8795 c 0,-0.30831 0.04,-0.52502 0.11738,-0.65273 0.0787,-0.12642 0.21672,-0.18963 0.4128,-0.18963 0.19478,0 0.38054,0.0645 0.55082,0.19608 l 0,-0.92234 c -0.18963,-0.08 -0.46052,-0.11996 -0.81269,-0.11996 -0.35087,0 -0.61919,0.11996 -0.80624,0.36377 -0.18833,0.23994 -0.28121,0.58565 -0.28121,1.03069 l 0,2.17362 z" /><path
             inkscape:connector-curvature="0"
             id="path12980"
             style="fill:#6b6b6d;fill-opacity:1;fill-rule:nonzero;stroke:none"
             d="m 425.93298,564.47581 1.73373,0 0,0.94168 -1.73373,0 0,-0.94168 z" /><path
             inkscape:connector-curvature="0"
             id="path12982"
             style="fill:#6b6b6d;fill-opacity:1;fill-rule:nonzero;stroke:none"
             d="m 428.62361,568.46003 0.82043,0.24123 0,-4.8271 c 0,-0.52889 0.129,-0.84494 0.38699,-0.94684 -0.12641,-0.29412 -0.34313,-0.43989 -0.64886,-0.43989 -0.37151,0 -0.55856,0.31476 -0.55856,0.94556 l 0,5.02704 z" /><path
             inkscape:connector-curvature="0"
             id="path12984"
             style="fill:#6b6b6d;fill-opacity:1;fill-rule:nonzero;stroke:none"
             d="m 431.0858,564.72361 c 0,-0.94555 0.27863,-1.41898 0.8359,-1.41898 0.25671,0 0.45794,0.12255 0.60758,0.36894 0.14964,0.24638 0.22575,0.59597 0.22575,1.05004 0,0.93266 -0.27864,1.39834 -0.83333,1.39834 -0.25541,0 -0.45923,-0.12255 -0.60887,-0.36636 -0.15093,-0.24638 -0.22703,-0.58952 -0.22703,-1.03198 m -0.85268,0 c 0,0.65531 0.15609,1.18807 0.46439,1.59957 0.3096,0.4128 0.71723,0.61919 1.22419,0.61919 0.53276,0 0.94814,-0.19865 1.24225,-0.59339 0.29541,-0.39602 0.44375,-0.93781 0.44375,-1.62537 0,-0.68369 -0.15221,-1.22806 -0.45278,-1.63182 -0.29927,-0.40377 -0.71078,-0.605 -1.23322,-0.605 -0.53276,0 -0.94684,0.2051 -1.24483,0.61274 -0.29411,0.40634 -0.44375,0.94813 -0.44375,1.62408" /><path
             inkscape:connector-curvature="0"
             id="path12986"
             style="fill:#6b6b6d;fill-opacity:1;fill-rule:nonzero;stroke:none"
             d="m 434.90426,568.52556 c 0.13158,0 0.24381,-0.058 0.3354,-0.17156 0.0942,-0.11481 0.1406,-0.25026 0.1406,-0.41022 0,-0.16253 -0.0464,-0.29669 -0.1406,-0.4115 -0.0916,-0.11352 -0.20382,-0.17028 -0.3354,-0.17028 -0.13029,0 -0.2438,0.0568 -0.33539,0.17028 -0.0942,0.11481 -0.14061,0.24897 -0.14061,0.4115 0,0.15996 0.0464,0.29541 0.14061,0.41022 0.0916,0.11352 0.2051,0.17156 0.33539,0.17156 m -0.42311,-5.9597 0,3.47263 -0.44891,0 0,0.82171 1.27708,0 0,-4.29434 -0.82817,0 z" /><path
             inkscape:connector-curvature="0"
             id="path12988"
             style="fill:#6b6b6d;fill-opacity:1;fill-rule:nonzero;stroke:none"
             d="m 438.29329,565.92716 c -0.14447,0.11739 -0.3083,0.17544 -0.48116,0.17544 -0.19092,0 -0.3599,-0.10449 -0.50696,-0.31605 -0.14706,-0.21026 -0.22059,-0.46826 -0.22059,-0.77527 l 0,-2.44451 -0.82042,0 0,4.29434 0.82042,0 0,-0.39345 c 0.22833,0.31605 0.53405,0.47342 0.91331,0.47342 0.27992,0 0.49277,-0.0529 0.64241,-0.15608 l -0.34701,-0.85784 z" /><path
             inkscape:connector-curvature="0"
             id="path12990"
             style="fill:#6b6b6d;fill-opacity:1;fill-rule:nonzero;stroke:none"
             d="m 439.78915,565.16104 1.72341,0 c -0.0568,0.62822 -0.34184,0.94169 -0.85267,0.94169 -0.46697,0 -0.75851,-0.31347 -0.87074,-0.94169 m 2.47805,-0.75334 -2.50901,0 c 0.0155,-0.34314 0.11223,-0.61016 0.28896,-0.79721 0.17802,-0.19092 0.41408,-0.28638 0.71336,-0.28638 0.3728,0 0.65789,0.11997 0.85396,0.35733 l 0.31605,-0.76625 c -0.28767,-0.28509 -0.71852,-0.42827 -1.28998,-0.42827 -0.53534,0 -0.95846,0.19091 -1.27192,0.57404 -0.3096,0.38441 -0.46568,0.91846 -0.46568,1.60602 0,0.67724 0.17156,1.22548 0.5147,1.64472 0.34055,0.42054 0.74948,0.62951 1.22806,0.62951 0.50954,0 0.91975,-0.18575 1.22677,-0.55856 0.30959,-0.37022 0.46181,-0.84364 0.46181,-1.41768 0,-0.12384 -0.0219,-0.3096 -0.0671,-0.55727" /></g></g></g></g></svg>