<?xml version="1.0" encoding="UTF-8" standalone="no"?>
<svg
   xmlns:dc="http://purl.org/dc/elements/1.1/"
   xmlns:cc="http://creativecommons.org/ns#"
   xmlns:rdf="http://www.w3.org/1999/02/22-rdf-syntax-ns#"
   xmlns:svg="http://www.w3.org/2000/svg"
   xmlns="http://www.w3.org/2000/svg"
   viewBox="0 0 800 182.89999"
   height="182.89999"
   width="800"
   xml:space="preserve"
   version="1.1"
   id="svg2"><metadata
     id="metadata8"><rdf:RDF><cc:Work
         rdf:about=""><dc:format>image/svg+xml</dc:format><dc:type
           rdf:resource="http://purl.org/dc/dcmitype/StillImage" /><dc:title></dc:title></cc:Work></rdf:RDF></metadata><defs
     id="defs6" /><g
     transform="matrix(1.25,0,0,-1.25,0,182.90008)"
     id="g10"><g
       transform="translate(-69.446399,-118.49994)"
       id="g5319"><g
         id="g5248"
         transform="matrix(3.7262922,0,0,3.7262922,-189.33118,-323.06562)"
         style="fill:#c48a0c;fill-opacity:1"><path
           id="path228"
           style="fill:#c48a0c;fill-opacity:1;fill-rule:nonzero;stroke:none"
           d="m 91.729,125.7416 1.932,0 0,-5.809 2.988,0 0,-1.432 -4.92,0 0,7.241 z" /><path
           id="path230"
           style="fill:#c48a0c;fill-opacity:1;fill-rule:nonzero;stroke:none"
           d="m 100.1104,125.7416 5.106,0 0,-1.369 -3.176,0 0,-1.494 2.998,0 0,-1.371 -2.998,0 0,-1.638 3.29,0 0,-1.369 -5.22,0 0,7.241 z" /><path
           id="path240"
           style="fill:#c48a0c;fill-opacity:1;fill-rule:nonzero;stroke:none"
           d="m 116.5961,119.9323 0.746,0 c 1.442,0 2.252,0.746 2.252,2.188 0,1.444 -0.84,2.19 -2.252,2.19 l -0.746,0 0,-4.378 z m -1.93,5.809 2.636,0 c 2.522,0 4.284,-0.787 4.284,-3.589 0,-2.708 -1.815,-3.652 -4.284,-3.652 l -2.636,0 0,7.241 z" /><path
           id="path242"
           style="fill:#c48a0c;fill-opacity:1;fill-rule:nonzero;stroke:none"
           d="m 127.7802,127.6207 1.942,0 -1.34,-1.494 -1.307,0 0.705,1.494 z m -2.407,-1.879 5.105,0 0,-1.369 -3.175,0 0,-1.494 2.999,0 0,-1.371 -2.999,0 0,-1.638 3.29,0 0,-1.369 -5.22,0 0,7.241 z" /><path
           id="path244"
           style="fill:#c48a0c;fill-opacity:1;fill-rule:nonzero;stroke:none"
           d="m 136.3612,122.4002 0.498,0 c 0.664,0 1.194,0.24 1.194,0.996 0,0.737 -0.53,0.976 -1.194,0.976 l -0.498,0 0,-1.972 z m -1.93,3.341 2.304,0 c 2.211,0 3.247,-0.747 3.247,-2.375 0,-1.462 -1.067,-2.335 -2.874,-2.335 l -0.747,0 0,-2.531 -1.93,0 0,7.241 z" /><path
           id="path246"
           style="fill:#c48a0c;fill-opacity:1;fill-rule:nonzero;stroke:none"
           d="m 146.3707,124.2488 -0.022,0 -0.932,-2.833 1.815,0 -0.861,2.833 z m -1.182,1.493 2.364,0 2.792,-7.241 -2.117,0 -0.538,1.545 -2.72,0 -0.57,-1.545 -1.961,0 2.75,7.241 z" /><path
           id="path248"
           style="fill:#c48a0c;fill-opacity:1;fill-rule:nonzero;stroke:none"
           d="m 155.7002,122.7322 0.507,0 c 0.623,0 1.411,0.022 1.411,0.842 0,0.675 -0.674,0.798 -1.411,0.798 l -0.507,0 0,-1.64 z m -1.931,3.009 3.446,0 c 1.285,0 2.335,-0.581 2.335,-1.825 0,-0.966 -0.456,-1.608 -1.392,-1.827 l 0,-0.021 c 0.624,-0.164 0.664,-0.715 1.027,-1.597 l 0.706,-1.971 -2.012,0 -0.415,1.307 c -0.395,1.244 -0.644,1.556 -1.361,1.556 l -0.403,0 0,-2.863 -1.931,0 0,7.241 z" /><path
           id="path250"
           style="fill:#c48a0c;fill-opacity:1;fill-rule:nonzero;stroke:none"
           d="m 164.7137,124.31 -1.785,0 0,1.432 5.5,0 0,-1.432 -1.784,0 0,-5.81 -1.931,0 0,5.81 z" /><path
           id="path252"
           style="fill:#c48a0c;fill-opacity:1;fill-rule:nonzero;stroke:none"
           d="m 171.8677,125.7416 5.105,0 0,-1.369 -3.173,0 0,-1.494 2.998,0 0,-1.371 -2.998,0 0,-1.638 3.288,0 0,-1.369 -5.22,0 0,7.241 z" /><path
           id="path254"
           style="fill:#c48a0c;fill-opacity:1;fill-rule:nonzero;stroke:none"
           d="m 180.9555,125.7416 3.042,0 1.535,-4.814 0.021,0 1.607,4.814 2.927,0 0,-7.241 -1.888,0 0.03,5.561 -0.02,0 -1.847,-5.561 -1.775,0 -1.765,5.561 -0.02,0 0.041,-5.561 -1.888,0 0,7.241 z" /><path
           id="path256"
           style="fill:#c48a0c;fill-opacity:1;fill-rule:nonzero;stroke:none"
           d="m 194.1307,125.7416 5.105,0 0,-1.369 -3.177,0 0,-1.494 3.002,0 0,-1.371 -3.002,0 0,-1.638 3.291,0 0,-1.369 -5.219,0 0,7.241 z" /><path
           id="path258"
           style="fill:#c48a0c;fill-opacity:1;fill-rule:nonzero;stroke:none"
           d="m 203.2599,125.7416 2.459,0 2.448,-4.918 0.023,0 -0.032,4.918 1.764,0 0,-7.241 -2.396,0 -2.532,4.948 -0.022,0 0.062,-4.948 -1.774,0 0,7.241 z" /><path
           id="path260"
           style="fill:#c48a0c;fill-opacity:1;fill-rule:nonzero;stroke:none"
           d="m 215.2003,124.31 -1.784,0 0,1.432 5.501,0 0,-1.432 -1.785,0 0,-5.81 -1.932,0 0,5.81 z" /></g><g
         id="g5263"
         transform="matrix(3.7262922,0,0,3.7262922,-189.33118,-323.06562)"
         style="fill:#511105;fill-opacity:1"><path
           id="path262"
           style="fill:#511105;fill-opacity:1;fill-rule:nonzero;stroke:none"
           d="m 81.1634,157.6725 c -3.1,0 -6.258,-1.343 -8.449,-3.593 -2.106,-2.165 -3.268,-5.05 -3.268,-8.118 0,-3.435 1.197,-6.254 3.554,-8.38 2.321,-2.115 5.284,-3.276 8.347,-3.276 l 6.291,0 0,5.316 -6.169,0 c -3.986,0 -6.273,2.299 -6.273,6.307 0,3.963 2.369,6.428 6.184,6.428 l 6.258,0 0,5.316 -6.475,0 z" /><path
           id="path264"
           style="fill:#511105;fill-opacity:1;fill-rule:nonzero;stroke:none"
           d="m 131.2567,142.3695 -6.686,0 2.976,8.803 0.776,0 2.934,-8.803 z m 2.974,-8.151 5.74,0 -8.868,23.539 -6.277,0 -9.055,-23.539 5.709,0 1.69,4.263 9.467,0 1.594,-4.263 z" /><path
           id="path266"
           style="fill:#511105;fill-opacity:1;fill-rule:nonzero;stroke:none"
           d="m 149.6674,146.7582 -1.115,0 0,7.112 1.115,0 c 1.217,0 4.919,0 4.919,-3.552 0,-3.56 -3.702,-3.56 -4.919,-3.56 m -1.115,-3.104 0.755,0 0.212,-0.213 5.539,-7.955 c 1.175,-1.543 3.498,-2.097 5.127,-2.097 0.885,0 1.661,0.157 2.122,0.415 l -7.834,10.318 0.798,0.143 c 3.013,0.535 4.96,3.063 4.96,6.438 0,4.481 -2.925,7.054 -8.03,7.054 l -9.033,0 0,-23.539 5.384,0 0,9.436 z" /><path
           id="path268"
           style="fill:#511105;fill-opacity:1;fill-rule:nonzero;stroke:none"
           d="m 107.5435,134.2181 5.383,0 0,23.539 -2.69,0 c -1.484,0 -2.693,-1.205 -2.693,-2.69 l 0,-6.777 -10.2,0 0,9.467 -5.384,0 0,-23.539 2.69,0 c 1.484,0 2.694,1.205 2.694,2.691 l 0,7.365 10.2,0 0,-10.056 z" /><path
           id="path270"
           style="fill:#511105;fill-opacity:1;fill-rule:nonzero;stroke:none"
           d="m 214.2785,134.2181 2.689,0 c 1.488,0 2.692,1.205 2.692,2.691 l 0,16.442 5.274,0 0,4.406 -15.927,0 0,-4.406 5.272,0 0,-19.133 z" /><path
           id="path272"
           style="fill:#511105;fill-opacity:1;fill-rule:nonzero;stroke:none"
           d="m 200.1001,134.2181 5.637,0 0,23.539 -2.689,0 c -1.489,0 -2.695,-1.205 -2.695,-2.69 l 0,-12.308 -0.741,0 -0.215,0.188 -11.531,14.81 -5.639,0 0,-23.539 2.694,0 c 1.484,0 2.691,1.205 2.691,2.691 l 0,12.342 0.739,0 0.213,-0.191 11.536,-14.842 z" /><path
           id="path274"
           style="fill:#511105;fill-opacity:1;fill-rule:nonzero;stroke:none"
           d="m 164.8142,157.7571 0,-20.848 c 0,-1.486 1.206,-2.691 2.689,-2.691 l 10.276,0 0,4.406 -7.581,0 0,5.224 7.191,0 0,4.408 -7.191,0 0,5.095 7.581,0 0,4.406 -12.965,0 z" /><path
           id="path276"
           style="fill:#511105;fill-opacity:1;fill-rule:nonzero;stroke:none"
           d="m 228.2379,157.7571 0,-20.848 c 0,-1.486 1.206,-2.691 2.691,-2.691 l 10.27,0 0,4.406 -7.582,0 0,5.224 7.194,0 0,4.408 -7.194,0 0,5.095 7.582,0 0,4.406 -12.961,0 z" /></g></g></g></svg>