<svg height="660" width="600" xmlns="http://www.w3.org/2000/svg" xmlns:xlink="http://www.w3.org/1999/xlink"><radialGradient id="a" cx="221.44487" cy="226.33101" gradientTransform="matrix(1.353218 0 0 1.348928 -78.747626 -85.877341)" gradientUnits="userSpaceOnUse" r="300"><stop offset="0" stop-color="#fff" stop-opacity=".313726"/><stop offset=".19" stop-color="#fff" stop-opacity=".25098"/><stop offset=".60000002" stop-color="#6b6b6b" stop-opacity=".12549"/><stop offset="1" stop-opacity=".12549"/></radialGradient><g><path d="m299.99999 658.5s-298.49999-112.32036-298.49999-397.772c0-285.451609 0-258.5517793 0-258.5517793h596.99999v258.5517793c0 285.45164-298.5 397.772-298.5 397.772z" fill="#e20909" fill-rule="evenodd"/><g id="b" stroke="#000" stroke-linecap="round" stroke-linejoin="round" stroke-width="1.999217" transform="matrix(-1.0003916 0 0 -1.0003916 432.79285 393.86586)"><rect height="19.456861" rx="7.984423" ry="5.553947" style="fill:#fcef3c;fill-rule:evenodd;stroke:#000;stroke-width:1.999354;stroke-linecap:round;stroke-linejoin:round" transform="matrix(.7086217 .7055886 -.71721838 .69684848 0 0)" width="98.043961" x="247.24832" y="-158.90585"/><g fill="#fcef3c" stroke="#000" stroke-linecap="round" stroke-linejoin="round" stroke-width=".454862" transform="matrix(-.26039 -4.3917818 -4.3832491 .259884 -68.805764 759.26089)"><path d="m140.191-105.8351c1.4592-.059 2.3286-.6729 2.7137-1.8693.2343-.7181-.2086-1.8415-.9159-2.1404-2.2087-.9381-3.9861 2.7737-4.2249 3.7561.094.0365.5597.2076.6733.2575.2607-.5774.3687-1.3674 1.2445-1.7264.8758-.3589 1.0649.2499 1.0525.6771-.0123.4271-.6336 1.0539-.5432 1.0454z" style="fill:#fcef3c;fill-rule:evenodd;stroke:#000;stroke-width:.454862;stroke-linecap:round;stroke-linejoin:round"/><path d="m139.5103-115.9567c-1.9603 1.1426-2.5867 8.239-2.9048 9.4108.1454.0611.7706.2973.9212.3436.2873-1.1683.7781-2.3239 1.3705-3.1487 1.9128-2.4291 1.5765-4.7166.6533-6.5901l-.0201-.008-.0201-.008z" style="fill:#fcef3c;fill-rule:evenodd;stroke:#000;stroke-width:.454862;stroke-linecap:round;stroke-linejoin:round"/></g><g fill="#fcef3c" stroke="#000" stroke-linecap="round" stroke-linejoin="round" stroke-width=".454862" transform="matrix(4.3562053 .5535779 -.5515088 4.3644987 -363.20594 448.22398)"><path d="m140.191-105.8351c1.4592-.059 2.3286-.6729 2.7137-1.8693.2343-.7181-.2086-1.8415-.9159-2.1404-2.2087-.9381-3.9861 2.7737-4.2249 3.7561.094.0365.5597.2076.6733.2575.2607-.5774.3687-1.3674 1.2445-1.7264.8758-.3589 1.0649.2499 1.0525.6771-.0123.4271-.6336 1.0539-.5432 1.0454z" style="fill:#fcef3c;fill-rule:evenodd;stroke:#000;stroke-width:.454862;stroke-linecap:round;stroke-linejoin:round"/><path d="m139.5103-115.9567c-1.9603 1.1426-2.5867 8.239-2.9048 9.4108.1454.0611.7706.2973.9212.3436.2873-1.1683.7781-2.3239 1.3705-3.1487 1.9128-2.4291 1.5765-4.7166.6533-6.5901l-.0201-.008-.0201-.008z" style="fill:#fcef3c;fill-rule:evenodd;stroke:#000;stroke-width:.454862;stroke-linecap:round;stroke-linejoin:round"/></g><path d="m337.14773 99.755684-14.41411-14.773387c-10.58688-2.92408-20.5347-12.634386-24.96914-23.026363-1.38366.08204-5.70232-2.503684-7.12782-3.129609l-.3646 5.618346 67.57682 67.868069 4.79187-.68297c-1.46774-1.33386-2.45363-6.24764-3.98343-8.64305-9.54967-2.98557-19.51814-13.04944-21.50959-23.231036z" style="fill:#fcef3c;fill-rule:evenodd;stroke:#000;stroke-width:1.999217;stroke-linecap:round;stroke-linejoin:round"/><rect height="19.535906" rx="8.016863" ry="5.576509" style="fill:#fcef3c;fill-rule:evenodd;stroke:#000;stroke-width:1.999353;stroke-linecap:round;stroke-linejoin:round" transform="matrix(.70861098 .70559938 -.71720773 .69685943 0 0)" width="98.442291" x="247.13898" y="-150.37743"/><rect height="19.535906" rx="8.016863" ry="5.57651" style="fill:#fcef3c;fill-rule:evenodd;stroke:#000;stroke-width:1.999353;stroke-linecap:round;stroke-linejoin:round" transform="matrix(.70861098 .70559938 -.71720773 .69685943 0 0)" width="98.442291" x="247.07713" y="-154.67416"/><ellipse cx="280.79208" cy="76.111916" fill="#fcef3c" rx="5.116279" ry="5.276163" stroke="#000" stroke-linecap="round" stroke-linejoin="round" stroke-width="1.999217"/><ellipse cx="312.44907" cy="106.32994" fill="#fcef3c" rx="5.116279" ry="5.276163" stroke="#000" stroke-linecap="round" stroke-linejoin="round" stroke-width="1.999217"/><ellipse cx="346.98395" cy="140.54506" fill="#fcef3c" rx="5.116279" ry="5.276163" stroke="#000" stroke-linecap="round" stroke-linejoin="round" stroke-width="1.999217"/><path d="m260.26611-151.67351h23.343021v8.63372h-23.343021z" fill="#fcef3c" stroke="#000" stroke-linecap="round" stroke-linejoin="round" stroke-width="1.999217" transform="matrix(.70055894 .71359454 -.71359454 .70055894 0 0)"/><path d="m307.05637-153.46155h23.343018v8.633719h-23.343018z" fill="#fcef3c" stroke="#000" stroke-linecap="round" stroke-linejoin="round" stroke-width="1.999217" transform="matrix(.70055894 .71359454 -.71359454 .70055894 0 0)"/><path d="m346.96664 101.5217c7.50362 3.83951 13.10565 3.82625 17.39556.1452 2.59093-2.200808 2.5458-7.903308-.45093-11.066726-9.34818-9.896044-25.60722-.102354-28.73755 3.136421.4048.407705 2.42771 2.388114 2.9053 2.903638 2.44933-1.567353 4.54139-4.406792 9.6777-3.388574 5.13626 1.018178 4.90265 3.966767 4.00476 5.630343-.89784 1.663548-5.26904 2.421378-4.79487 2.639738z" style="fill:#fcef3c;fill-rule:evenodd;stroke:#000;stroke-width:1.999217;stroke-linecap:round;stroke-linejoin:round"/><path d="m321.41997 75.667878c-3.76727-7.566888-3.71385-13.195532-.0197-17.47945 2.20885-2.587476 7.88368-2.50118 11.01047.532486 9.7815 9.463687-.0819 25.729896-3.32763 28.851894-.40278-.40965-2.35927-2.456479-2.86885-2.940003 1.57742-2.44967 4.41823-4.531359 3.44179-9.699379-.97649-5.168061-3.91263-4.954497-5.57465-4.06431-1.66205.890219-2.44757 5.276755-2.66148 4.798762z" style="fill:#fcef3c;fill-rule:evenodd;stroke:#000;stroke-width:1.999217;stroke-linecap:round;stroke-linejoin:round"/><path d="m363.47532 59.542764c.83902 12.22423-3.17271 19.733604-16.72796 24.547977-4.56669 1.5685-8.89179 4.618995-12.6724 8.513283-.64126-.62451-3.29392-3.360423-3.89063-4.04014 3.85077-3.729559 7.09351-8.474159 8.74377-13.096947 4.39938-14.473512 14.40406-17.186366 24.3747-16.098769l.0863.08732.0862.08728z" style="fill:#fcef3c;fill-rule:evenodd;stroke:#000;stroke-width:1.999217;stroke-linecap:round;stroke-linejoin:round"/><path d="m287.67935-172.42166h21.910152v2.710136h-21.910152z" style="fill:#fcef3c;fill-rule:evenodd;stroke:#000;stroke-width:1.999229;stroke-linecap:round;stroke-linejoin:round" transform="matrix(.70286901 .71131931 -.70795487 .70625767 0 0)"/></g><path d="m1.5 1.5v116.46875l448.1543 448.1543c39.15266-33.55005 78.26155-76.93446 106.5625-131.25196l-433.37305-433.37109z" fill="#fcef3c" stroke="#000" stroke-width="3"/><use id="c" height="100%" transform="translate(38.000003 167)" width="100%" xlink:href="#b"/><use id="d" height="100%" transform="translate(168 38.000001)" width="100%" xlink:href="#c"/><use height="100%" transform="matrix(-1 0 0 -1 432.5 393.82762)" width="100%" xlink:href="#b"/><use height="100%" transform="matrix(-1 0 0 -1 647.5 560.82762)" width="100%" xlink:href="#c"/><use height="100%" transform="matrix(-1 0 0 -1 815.5 776.32762)" width="100%" xlink:href="#d"/></g><path d="m300.00006 658.5s298.5-112.32031 298.5-397.77183c0-285.451506 0-258.5516862 0-258.5516862h-597.00006v258.5516862c0 285.45152 298.50006 397.77183 298.50006 397.77183z" fill="url(#a)" fill-rule="evenodd"/><path d="m299.99999 658.39715s-298.49999-112.41841-298.49999-398.11925c0-285.700818 0-258.7775027 0-258.7775027h596.99999v258.7775027c0 285.70084-298.5 398.11925-298.5 398.11925z" fill="none" stroke="#000" stroke-width="3"/></svg>