<?xml version="1.0" encoding="UTF-8" standalone="no"?>
<!-- Created with Inkscape (http://www.inkscape.org/) -->

<svg
   xmlns:dc="http://purl.org/dc/elements/1.1/"
   xmlns:cc="http://creativecommons.org/ns#"
   xmlns:rdf="http://www.w3.org/1999/02/22-rdf-syntax-ns#"
   xmlns:svg="http://www.w3.org/2000/svg"
   xmlns="http://www.w3.org/2000/svg"
   xmlns:sodipodi="http://sodipodi.sourceforge.net/DTD/sodipodi-0.dtd"
   xmlns:inkscape="http://www.inkscape.org/namespaces/inkscape"
   id="svg2"
   version="1.1"
   inkscape:version="0.48.2 r9819"
   width="425.19625"
   height="212.59875"
   xml:space="preserve"
   sodipodi:docname="Aube-Departement-logo-quadri.ai"><metadata
     id="metadata8"><rdf:RDF><cc:Work
         rdf:about=""><dc:format>image/svg+xml</dc:format><dc:type
           rdf:resource="http://purl.org/dc/dcmitype/StillImage" /><dc:title></dc:title></cc:Work></rdf:RDF></metadata><defs
     id="defs6"><clipPath
       clipPathUnits="userSpaceOnUse"
       id="clipPath16"><path
         d="m 0,170.079 340.157,0 L 340.157,0 0,0 0,170.079 z"
         id="path18" /></clipPath></defs><sodipodi:namedview
     pagecolor="#ffffff"
     bordercolor="#666666"
     borderopacity="1"
     objecttolerance="10"
     gridtolerance="10"
     guidetolerance="10"
     inkscape:pageopacity="0"
     inkscape:pageshadow="2"
     inkscape:window-width="1366"
     inkscape:window-height="706"
     id="namedview4"
     showgrid="false"
     inkscape:zoom="1.055983"
     inkscape:cx="212.59813"
     inkscape:cy="106.29938"
     inkscape:window-x="-8"
     inkscape:window-y="-8"
     inkscape:window-maximized="1"
     inkscape:current-layer="g10" /><g
     id="g10"
     inkscape:groupmode="layer"
     inkscape:label="Aube-Departement-logo-quadri"
     transform="matrix(1.25,0,0,-1.25,0,212.59875)"><g
       id="g12"><g
         id="g14"
         clip-path="url(#clipPath16)"><g
           id="g20"
           transform="translate(134.0688,64.8594)"><path
             d="M 0,0 C -0.178,1.802 -1.313,2.888 -2.981,2.888 -4.682,2.888 -5.785,1.831 -5.964,0 L 0,0 z m 3.579,-6.607 c -2.475,-1.747 -5.07,-1.747 -6.142,-1.747 -4.833,0 -7.964,2.691 -7.964,6.81 0,4.032 3.012,6.893 7.246,6.893 3.997,0 7.307,-2.716 7.099,-7.523 l -9.872,0 c 0.15,-2.346 1.82,-3.718 4.533,-3.718 1.73,0 3.072,0.485 5.1,1.887 l 0,-2.602 z"
             style="fill:#2d2c2e;fill-opacity:1;fill-rule:nonzero;stroke:none"
             id="path22" /></g><g
           id="g24"
           transform="translate(144.4175,68.0625)"><path
             d="m 0,0 c 1.372,1.517 2.714,2.146 4.473,2.146 2.147,0 5.01,-1.174 5.01,-5.064 l 0,-8.38 -4.324,0 0,8.037 c 0,1.86 -0.925,2.633 -2.147,2.633 -1.074,0 -1.879,-0.546 -3.012,-2.177 l 0,-8.493 -4.324,0 0,13.186 L 0,1.888 0,0 z"
             style="fill:#2d2c2e;fill-opacity:1;fill-rule:nonzero;stroke:none"
             id="path26" /></g><g
           id="g28"
           transform="translate(184.0205,58.4521)"><path
             d="m 0,0 c -2.833,-1.403 -4.979,-1.946 -7.992,-1.946 -7.903,0 -11.84,4.921 -11.84,9.955 0,5.207 4.443,10.069 12.227,10.069 2.834,0 5.369,-0.572 7.367,-1.718 l 0,-4.348 c -2.238,1.204 -4.503,2.003 -7.009,2.003 -4.323,0 -7.366,-2.458 -7.366,-5.921 0,-3.489 3.011,-5.977 7.246,-5.977 2.655,0 4.445,0.799 7.367,2.146 L 0,0 z"
             style="fill:#2d2c2e;fill-opacity:1;fill-rule:nonzero;stroke:none"
             id="path30" /></g><g
           id="g32"
           transform="translate(191.3564,68.0068)"><path
             d="m 0,0 0.061,0 c 1.252,1.515 2.653,2.201 4.353,2.201 2.504,0 5.04,-1.459 5.04,-5.035 l 0,-8.408 -4.325,0 0,7.521 c 0,1.975 -0.895,2.89 -2.236,2.89 -1.014,0 -1.879,-0.601 -2.893,-2.003 l 0,-8.408 -4.325,0 0,19.507 L 0,8.265 0,0 z"
             style="fill:#2d2c2e;fill-opacity:1;fill-rule:nonzero;stroke:none"
             id="path34" /></g><g
           id="g36"
           transform="translate(211.1279,63.1426)"><path
             d="m 0,0 c -2.564,-0.886 -3.787,-1.457 -3.787,-2.773 0,-0.775 0.627,-1.402 1.402,-1.402 0.805,0 1.669,0.372 2.385,1.001 L 0,0 z M 6.682,-5.435 C 5.488,-6.119 3.787,-6.637 2.625,-6.637 c -1.432,0 -2.117,0.43 -2.416,1.489 -1.67,-1.086 -3.042,-1.489 -4.532,-1.489 -2.207,0 -3.849,1.574 -3.849,3.234 0,3.146 2.417,3.775 8.172,5.492 0.09,1.229 -0.506,2.203 -2.385,2.203 -1.73,0 -3.697,-0.859 -5.07,-2.203 l 0,3.375 c 1.791,1.057 3.787,1.601 5.965,1.601 3.459,0 5.814,-1.114 5.814,-4.003 l 0,-6.006 c 0,-0.659 0.269,-0.917 0.717,-0.917 0.299,0 0.626,0.058 1.641,0.742 l 0,-2.316 z"
             style="fill:#2d2c2e;fill-opacity:1;fill-rule:nonzero;stroke:none"
             id="path38" /></g><g
           id="g40"
           transform="translate(223.4141,68.2627)"><path
             d="m 0,0 c 0.746,0.658 1.521,1.145 2.298,1.487 0.805,0.315 1.609,0.458 2.475,0.458 2.385,0 3.996,-0.915 4.95,-2.803 1.79,1.974 3.37,2.803 5.428,2.803 3.131,0 5.368,-1.972 5.368,-4.976 l 0,-8.467 -4.324,0 0,7.724 c 0,1.886 -0.954,2.946 -2.536,2.946 -1.252,0 -2.414,-0.774 -3.398,-2.233 l 0,-8.437 -4.324,0 0,7.81 c 0,2.143 -1.343,2.86 -2.625,2.86 -1.133,0 -2.268,-0.63 -3.312,-1.832 l 0,-8.838 -4.323,0 0,13.186 L 0,1.688 0,0 z"
             style="fill:#2d2c2e;fill-opacity:1;fill-rule:nonzero;stroke:none"
             id="path42" /></g><g
           id="g44"
           transform="translate(251.209,60.1396)"><path
             d="m 0,0 c 0.865,-0.6 1.641,-0.858 2.505,-0.858 2.117,0 3.43,1.545 3.43,4.004 0,2.517 -1.192,3.977 -3.25,3.977 C 1.759,7.123 1.073,6.865 0,6.064 L 0,0 z m 0,8.667 c 1.223,0.973 2.445,1.401 3.937,1.401 3.578,0 6.382,-2.917 6.382,-6.693 0,-4.233 -2.685,-7.009 -6.771,-7.009 -1.221,0 -2.533,0.343 -3.548,0.915 l 0,-7.235 -4.323,0 0,19.765 4.323,0 0,-1.144 z"
             style="fill:#2d2c2e;fill-opacity:1;fill-rule:nonzero;stroke:none"
             id="path46" /></g><g
           id="g48"
           transform="translate(271.1299,63.1426)"><path
             d="m 0,0 c -2.564,-0.886 -3.788,-1.457 -3.788,-2.773 0,-0.775 0.627,-1.402 1.402,-1.402 0.805,0 1.67,0.372 2.386,1.001 L 0,0 z M 6.68,-5.435 C 5.487,-6.119 3.789,-6.637 2.624,-6.637 c -1.431,0 -2.117,0.43 -2.415,1.489 -1.67,-1.086 -3.043,-1.489 -4.533,-1.489 -2.208,0 -3.848,1.574 -3.848,3.234 0,3.146 2.416,3.775 8.172,5.492 0.09,1.229 -0.508,2.203 -2.386,2.203 -1.729,0 -3.698,-0.859 -5.07,-2.203 l 0,3.375 c 1.79,1.057 3.788,1.601 5.966,1.601 3.458,0 5.814,-1.114 5.814,-4.003 l 0,-6.006 c 0,-0.659 0.27,-0.917 0.715,-0.917 0.299,0 0.627,0.058 1.641,0.742 l 0,-2.316 z"
             style="fill:#2d2c2e;fill-opacity:1;fill-rule:nonzero;stroke:none"
             id="path50" /></g><g
           id="g52"
           transform="translate(285.2354,62.7148)"><path
             d="M 0,0 C 1.373,0 2.475,1.144 2.475,2.517 2.475,3.719 1.492,4.777 0,4.777 -1.431,4.777 -2.505,3.719 -2.505,2.373 -2.505,1.085 -1.371,0 0,0 m 0.09,-6.951 c -2.028,0 -3.281,-0.601 -3.281,-1.574 0,-1.001 1.253,-1.543 3.549,-1.543 1.91,0 3.102,0.771 3.102,1.659 0,0.943 -1.224,1.458 -3.37,1.458 m 7.694,11.412 -1.968,0 C 6.293,3.66 6.502,3.03 6.502,2.258 6.502,1.085 5.995,0.084 5.249,-0.63 2.805,-2.976 -1.193,-1.604 -1.193,-3.146 c 0,-1.518 5.25,-0.202 7.515,-2.405 0.895,-0.857 1.106,-1.887 1.106,-2.547 0,-3.059 -2.834,-4.431 -7.278,-4.431 -5.785,0 -7.338,2.087 -7.338,3.834 0,1.113 0.627,2.545 3.669,3.289 l 0,0.055 c -0.924,0.26 -1.669,0.774 -1.669,1.716 0,1.404 1.7,1.775 2.504,1.947 l 0,0.057 C -4.443,-1.375 -6.531,0 -6.531,2.43 c 0,1.631 1.193,4.805 6.144,4.805 l 8.171,0 0,-2.774 z"
             style="fill:#2d2c2e;fill-opacity:1;fill-rule:nonzero;stroke:none"
             id="path54" /></g><g
           id="g56"
           transform="translate(298.8936,68.0625)"><path
             d="m 0,0 c 1.373,1.517 2.715,2.146 4.474,2.146 2.147,0 5.01,-1.174 5.01,-5.064 l 0,-8.38 -4.324,0 0,8.037 c 0,1.86 -0.925,2.633 -2.147,2.633 -1.075,0 -1.88,-0.546 -3.013,-2.177 l 0,-8.493 -4.325,0 0,13.186 L 0,1.888 0,0 z"
             style="fill:#2d2c2e;fill-opacity:1;fill-rule:nonzero;stroke:none"
             id="path58" /></g><g
           id="g60"
           transform="translate(321.2021,64.8594)"><path
             d="M 0,0 C -0.181,1.802 -1.313,2.888 -2.984,2.888 -4.684,2.888 -5.787,1.831 -5.965,0 L 0,0 z m 3.577,-6.607 c -2.474,-1.747 -5.069,-1.747 -6.143,-1.747 -4.83,0 -7.962,2.691 -7.962,6.81 0,4.032 3.012,6.893 7.247,6.893 3.996,0 7.306,-2.716 7.097,-7.523 l -9.873,0 c 0.15,-2.346 1.821,-3.718 4.535,-3.718 1.729,0 3.071,0.485 5.099,1.887 l 0,-2.602 z"
             style="fill:#2d2c2e;fill-opacity:1;fill-rule:nonzero;stroke:none"
             id="path62" /></g><g
           id="g64"
           transform="translate(256.0107,84.1992)"><path
             d="m 0,0 c 7.529,0 13.633,7.606 13.633,16.989 0,9.38 -6.104,16.988 -13.633,16.988 -7.527,0 -13.632,-7.608 -13.632,-16.988 C -13.632,7.606 -7.527,0 0,0 m -14.135,1.766 0,-7.672 -7.763,0 0,67.411 7.759,0 0,-29.309 c 3.731,5.311 9.369,8.679 15.825,8.679 11.471,0 20.773,-8.765 20.773,-23.886 0,-14.274 -9.302,-23.888 -20.773,-23.888 -6.445,0 -12.09,3.368 -15.821,8.665"
             style="fill:#2d2c2e;fill-opacity:1;fill-rule:nonzero;stroke:none"
             id="path66" /></g><g
           id="g68"
           transform="translate(145.6025,101.6099)"><path
             d="m 0,0 10.988,29.538 19.256,-52.855 9.892,0 -24.909,64.197 1.802,4.912 -9.115,0 -26.852,-69.109 10.292,0 5.927,15.978 L 0,0 z"
             style="fill:#2d2c2e;fill-opacity:1;fill-rule:nonzero;stroke:none"
             id="path70" /></g><g
           id="g72"
           transform="translate(290.0068,105.3491)"><path
             d="M 0,0 24.449,0 C 23.813,6.933 20.139,13.08 12.578,13.08 4.381,13.08 0,4.248 0,0 m 15.971,-20.98 c 6.783,0 10.033,2.262 13.283,3.887 l 0,-8.127 c -1.766,-0.636 -7.842,-2.825 -14.697,-2.825 -6.431,0 -23.037,2.967 -23.037,24.308 0,11.87 7.349,23.312 21.329,23.312 20.151,0 20.434,-19.78 20.434,-26.209 l -33.213,0 C 0.494,-14.479 5.371,-20.98 15.971,-20.98"
             style="fill:#2d2c2e;fill-opacity:1;fill-rule:nonzero;stroke:none"
             id="path74" /></g><g
           id="g76"
           transform="translate(72.5107,118.7847)"><path
             d="M 0,0 C -0.845,-0.47 -0.721,-0.898 0.298,-0.539 16.642,3.786 40.172,9.545 58.934,-1.451 L 62.893,9.23 C 39.788,19.16 15.126,7.918 0.032,-0.004"
             style="fill:#696a6c;fill-opacity:1;fill-rule:nonzero;stroke:none"
             id="path78" /></g><g
           id="g80"
           transform="translate(116.9028,78.4414)"><path
             d="m 0,0 6.843,18.402 c -6.137,4.473 -14.658,6.286 -24.451,6.286 -16.683,0 -38.563,-6.649 -45.817,-9.067 -6.889,-2.297 -28.45,-7.266 -38.313,-3.665 -0.929,0.4 -1.514,0.211 -0.323,-0.524 14.157,-8.807 50.805,-1.207 61.605,0.021 10.742,1.221 38.413,5.861 40.084,-10.639 C -0.351,0.057 -0.313,-0.403 0,0"
             style="fill:#696a6c;fill-opacity:1;fill-rule:nonzero;stroke:none"
             id="path82" /></g><g
           id="g84"
           transform="translate(51.5488,104.2544)"><path
             d="m 0,0 c 9.07,-1.626 25.369,3.649 42.375,3.649 15.594,0 29.617,-6.408 47.75,-6.408 12.558,0 37.015,5.824 43.897,9.221 0.531,0.271 0.408,0.693 -0.229,0.53 -7.929,-1.544 -13.028,-1.226 -15.742,-1.226 -25.084,0 -48.96,8.461 -65.401,8.461 C 32.846,14.227 16.989,1.727 0.277,0.744 -1.054,0.838 -1.485,0.34 0,0"
             style="fill:#e31b3c;fill-opacity:1;fill-rule:nonzero;stroke:none"
             id="path86" /></g><g
           id="g88"
           transform="translate(187.4727,124.2241)"><path
             d="m 0,0 0,-28.196 c 0,-9.963 4.735,-18.937 15.899,-18.937 7.845,0 13.91,4.947 15.324,7.347 l 0,-6.145 8.067,0 0,45.931 -8.35,0 0,-23.674 c 0,-8.124 -5.147,-16.252 -13.273,-16.252 -2.062,0 -9.894,1.555 -9.894,10.461 L 7.773,0 0,0 z"
             style="fill:#2d2c2e;fill-opacity:1;fill-rule:nonzero;stroke:none"
             id="path90" /></g><g
           id="g92"
           transform="translate(37.7417,19.3945)"><path
             d="m 0,0 -17.178,0 0,22.53 5.615,0 0,-18.4 L 0,4.13 0,0 z"
             style="fill:#2d2c2e;fill-opacity:1;fill-rule:nonzero;stroke:none"
             id="path94" /></g><g
           id="g96"
           transform="translate(57.562,19.3945)"><path
             d="m 0,0 -16.617,0 0,22.53 16.386,0 0,-4.13 -10.769,0 0,-4.723 10.273,0 0,-4.13 -10.273,0 0,-5.417 11,0 L 0,0 z"
             style="fill:#2d2c2e;fill-opacity:1;fill-rule:nonzero;stroke:none"
             id="path98" /></g><g
           id="g100"
           transform="translate(76.6226,23.5244)"><path
             d="M 0,0 3.667,0 C 9.316,0 11,3.832 11,7.135 11,11 8.919,14.271 3.601,14.271 L 0,14.271 0,0 z M 4.328,18.4 C 12.553,18.4 16.782,13.279 16.782,7.103 16.782,0.627 12.686,-4.13 3.7,-4.13 l -9.316,0 0,22.53 9.944,0 z"
             style="fill:#2d2c2e;fill-opacity:1;fill-rule:nonzero;stroke:none"
             id="path102" /></g><g
           id="g104"
           transform="translate(105.3291,44.1045)"><path
             d="M 0,0 -2.445,0 0,4.823 5.451,4.823 0,0 z m 8.886,-24.71 -16.616,0 0,22.53 16.385,0 0,-4.13 -10.769,0 0,-4.723 10.274,0 0,-4.13 -10.274,0 0,-5.417 11,0 0,-4.13 z"
             style="fill:#2d2c2e;fill-opacity:1;fill-rule:nonzero;stroke:none"
             id="path106" /></g><g
           id="g108"
           transform="translate(124.3564,32.5752)"><path
             d="m 0,0 2.61,0 c 2.577,0 3.501,0.926 3.501,2.61 0,1.916 -1.09,2.61 -4.129,2.61 L 0,5.22 0,0 z m 4.427,9.35 c 5.153,0 7.466,-3.601 7.466,-6.674 0,-3.171 -2.247,-6.805 -7.433,-6.805 l -4.46,0 0,-9.052 -5.616,0 0,22.531 10.043,0 z"
             style="fill:#2d2c2e;fill-opacity:1;fill-rule:nonzero;stroke:none"
             id="path110" /></g><g
           id="g112"
           transform="translate(146.5601,36.54)"><path
             d="m 0,0 -3.304,-8.755 6.938,0 L 0,0 z m 13.181,-17.146 -6.046,0 -1.849,4.46 -10.076,0 -1.685,-4.46 -5.946,0 9.084,22.531 6.508,0 10.01,-22.531 z"
             style="fill:#2d2c2e;fill-opacity:1;fill-rule:nonzero;stroke:none"
             id="path114" /></g><g
           id="g116"
           transform="translate(167.9648,32.6748)"><path
             d="m 0,0 2.974,0 c 1.552,0 3.072,0.66 3.072,2.576 0,1.686 -1.09,2.544 -3.205,2.544 L 0,5.12 0,0 z m 4.46,9.25 c 4.625,0 7.367,-3.105 7.367,-6.476 0,-2.477 -1.289,-4.327 -3.865,-5.516 2.312,-1.156 3.006,-3.931 6.178,-10.538 l -6.178,0 C 5.55,-8.457 4.658,-4.13 1.619,-4.13 l -1.619,0 0,-9.15 -5.616,0 0,22.53 10.076,0 z"
             style="fill:#2d2c2e;fill-opacity:1;fill-rule:nonzero;stroke:none"
             id="path118" /></g><g
           id="g120"
           transform="translate(203.0869,37.7949)"><path
             d="m 0,0 -8.16,0 0,-18.4 -5.615,0 0,18.4 -8.161,0 0,4.13 L 0,4.13 0,0 z"
             style="fill:#2d2c2e;fill-opacity:1;fill-rule:nonzero;stroke:none"
             id="path122" /></g><g
           id="g124"
           transform="translate(223.1709,19.3945)"><path
             d="m 0,0 -16.616,0 0,22.53 16.386,0 0,-4.13 -10.77,0 0,-4.723 10.273,0 0,-4.13 -10.273,0 0,-5.417 11,0 L 0,0 z"
             style="fill:#2d2c2e;fill-opacity:1;fill-rule:nonzero;stroke:none"
             id="path126" /></g><g
           id="g128"
           transform="translate(246.8232,41.9248)"><path
             d="m 0,0 4.891,0 0,-22.53 -5.618,0 0,14.073 -6.078,-7.069 -0.859,0 -6.078,7.069 0,-14.073 -5.615,0 0,22.53 4.888,0 7.235,-8.358 L 0,0 z"
             style="fill:#2d2c2e;fill-opacity:1;fill-rule:nonzero;stroke:none"
             id="path130" /></g><g
           id="g132"
           transform="translate(273.3838,19.3945)"><path
             d="m 0,0 -16.617,0 0,22.53 16.386,0 0,-4.13 -10.77,0 0,-4.723 10.274,0 0,-4.13 -10.274,0 0,-5.417 L 0,4.13 0,0 z"
             style="fill:#2d2c2e;fill-opacity:1;fill-rule:nonzero;stroke:none"
             id="path134" /></g><g
           id="g136"
           transform="translate(300.5049,19.3945)"><path
             d="m 0,0 -4.725,0 -12.454,14.437 0,-14.437 -5.616,0 0,22.53 5.154,0 12.025,-13.776 0,13.776 L 0,22.53 0,0 z"
             style="fill:#2d2c2e;fill-opacity:1;fill-rule:nonzero;stroke:none"
             id="path138" /></g><g
           id="g140"
           transform="translate(325.9072,37.7949)"><path
             d="m 0,0 -8.159,0 0,-18.4 -5.616,0 0,18.4 -8.161,0 0,4.13 L 0,4.13 0,0 z"
             style="fill:#2d2c2e;fill-opacity:1;fill-rule:nonzero;stroke:none"
             id="path142" /></g></g></g></g></svg>