<?xml version="1.0" encoding="UTF-8" standalone="no"?>
<!-- Created with Inkscape (http://www.inkscape.org/) -->

<svg
   xmlns:dc="http://purl.org/dc/elements/1.1/"
   xmlns:cc="http://creativecommons.org/ns#"
   xmlns:rdf="http://www.w3.org/1999/02/22-rdf-syntax-ns#"
   xmlns:svg="http://www.w3.org/2000/svg"
   xmlns="http://www.w3.org/2000/svg"
   xmlns:sodipodi="http://sodipodi.sourceforge.net/DTD/sodipodi-0.dtd"
   xmlns:inkscape="http://www.inkscape.org/namespaces/inkscape"
   id="svg2"
   version="1.1"
   inkscape:version="0.91 r13725"
   xml:space="preserve"
   width="800"
   height="574"
   viewBox="0 0 800 573.99999"
   sodipodi:docname="Logo Puy Dôme 2015.svg"><metadata
     id="metadata8"><rdf:RDF><cc:Work
         rdf:about=""><dc:format>image/svg+xml</dc:format><dc:type
           rdf:resource="http://purl.org/dc/dcmitype/StillImage" /><dc:title></dc:title></cc:Work></rdf:RDF></metadata><defs
     id="defs6" /><sodipodi:namedview
     pagecolor="#ffffff"
     bordercolor="#666666"
     borderopacity="1"
     objecttolerance="10"
     gridtolerance="10"
     guidetolerance="10"
     inkscape:pageopacity="0"
     inkscape:pageshadow="2"
     inkscape:window-width="1440"
     inkscape:window-height="790"
     id="namedview4"
     showgrid="false"
     inkscape:zoom="0.91868229"
     inkscape:cx="356.12015"
     inkscape:cy="320.10593"
     inkscape:window-x="0"
     inkscape:window-y="1"
     inkscape:window-maximized="1"
     inkscape:current-layer="g806" /><g
     id="g10"
     inkscape:groupmode="layer"
     inkscape:label="Couv_PDDM-Septembre2018-Web"
     transform="matrix(1.25,0,0,-1.25,0,574.00008)"><g
       id="g806"><g
         id="g5356"
         transform="matrix(17.367707,0,0,17.367707,-1731.7184,-247.80238)"><g
           id="g5342"><path
             style="fill:#009641;fill-opacity:1;fill-rule:nonzero;stroke:none"
             d="m 124.7651,29.078 c 0.047,0.624 0.078,1.275 0.094,1.949 l 0,1.687 c -2.61,-2.256 -5.891,-3.844 -5.891,-3.844 -0.269,-0.68 -0.572,-1.374 -0.908,-2.083 0,0 3.279,0.427 6.705,2.291"
             id="path5217"
             inkscape:connector-curvature="0" /><path
             style="fill:#d0332c;fill-opacity:1;fill-rule:nonzero;stroke:none"
             d="m 119.2171,29.508 c 0,0 3.3,1.638 5.63,3.755 -0.022,0.689 -0.061,1.352 -0.116,1.981 -0.07,0.814 -0.132,1.608 -0.249,2.288 -1.517,-3.555 -4.357,-5.299 -4.357,-5.299 -0.249,-0.861 -0.548,-1.773 -0.908,-2.725"
             id="path5215"
             inkscape:connector-curvature="0" /><path
             style="fill:#d0332c;fill-opacity:1;fill-rule:nonzero;stroke:none"
             d="m 123.9881,37.631 c 0.067,0.163 0.135,0.339 0.181,0.51 l -0.203,0.034 c -0.671,0.122 -1.709,0.591 -2.611,1.214 0,-0.21 -0.021,-0.619 -0.037,-0.842 -0.015,-0.226 -0.036,-0.442 -0.054,-0.608 -0.117,-1.108 -0.385,-2.922 -0.971,-5.111 0,0 2.406,1.771 3.695,4.803"
             id="path5213"
             inkscape:connector-curvature="0" /><path
             style="fill:#009641;fill-opacity:1;fill-rule:nonzero;stroke:none"
             d="m 120.1671,34.792 c 0,0 0.477,1.87 0.403,3.809 -0.024,0.63 -0.159,1.507 -0.336,2.094 -0.313,-0.371 -1.033,-0.724 -1.904,-1.038 0.127,-0.235 0.344,-0.651 0.499,-0.989 0.405,-0.875 0.953,-2.235 1.338,-3.876"
             id="path5211"
             inkscape:connector-curvature="0" /><path
             style="fill:#009641;fill-opacity:1;fill-rule:nonzero;stroke:none"
             d="m 118.5201,38.163 c -0.087,0.182 -0.289,0.557 -0.289,0.557 -0.146,0.269 -0.288,0.509 -0.444,0.748 l -0.009,-0.002 c 0.042,-0.235 0.08,-0.778 0.081,-0.793 0.022,-0.386 0.016,-0.796 -0.006,-1.206 -0.106,-1.967 -0.669,-3.996 -0.669,-3.996 0.406,-0.932 1.021,-2.79 1.252,-3.504 0.76,1.551 1.252,2.983 1.571,4.228 l -0.011,0.03 0.003,10e-4 c 0,0 -0.554,2.066 -1.479,3.937"
             id="path5209"
             inkscape:connector-curvature="0" /><path
             style="fill:#8cbd3a;fill-opacity:1;fill-rule:nonzero;stroke:none"
             d="m 116.7721,34.098 c 0,0 0.751,2.64 0.607,4.568 -0.015,0.188 -0.053,0.461 -0.087,0.652 -0.92,-0.275 -1.888,-0.505 -2.671,-0.676 l 0.074,-0.12 c 1.069,-1.784 2.077,-4.424 2.077,-4.424"
             id="path5207"
             inkscape:connector-curvature="0" /><path
             style="fill:#009641;fill-opacity:1;fill-rule:nonzero;stroke:none"
             d="m 115.0371,36.67 c -0.063,0.165 -0.299,0.637 -0.555,1.129 -0.075,0.147 -0.149,0.29 -0.221,0.427 l -0.125,0.239 -0.035,0.068 c -0.202,-0.043 -0.383,-0.08 -0.537,-0.108 l -0.003,-0.029 c -0.071,-0.582 -0.1,-1.304 -0.111,-1.751 -0.076,-2.619 0.209,-5.206 0.268,-5.702 0.752,-1.12 1.881,-2.581 3.069,-3.896 0.523,0.786 0.992,1.591 1.381,2.338 -0.4,1.003 -1.824,4.535 -3.131,7.285"
             id="path5205"
             inkscape:connector-curvature="0" /><path
             style="fill:#009641;fill-opacity:1;fill-rule:nonzero;stroke:none"
             d="m 113.1351,31.865 c 0,0 -0.212,3.392 -0.147,5.582 0,0 0.022,0.417 0.064,0.878 -0.382,-0.058 -0.742,-0.123 -1.08,-0.193 -0.172,-0.833 -0.309,-1.808 -0.402,-2.885 -0.012,-0.134 -0.023,-0.272 -0.033,-0.41 0.249,-0.566 0.703,-1.513 1.421,-2.702 0.056,-0.084 0.115,-0.174 0.177,-0.27"
             id="path5203"
             inkscape:connector-curvature="0" /><path
             style="fill:#009641;fill-opacity:1;fill-rule:nonzero;stroke:none"
             d="m 114.4831,28.987 c -1.098,1.595 -2.349,3.573 -2.991,5.148 -0.038,-0.696 -0.058,-1.424 -0.058,-2.175 0,-0.651 0.014,-1.284 0.043,-1.897 1.371,-0.687 2.536,-0.977 3.006,-1.076"
             id="path5201"
             inkscape:connector-curvature="0" /><path
             style="fill:#009641;fill-opacity:1;fill-rule:nonzero;stroke:none"
             d="m 111.5011,29.646 c 0.019,-0.336 0.042,-0.664 0.07,-0.984 0.093,-1.076 0.232,-2.054 0.403,-2.886 l 0.008,-0.036 0.02,-0.081 c 0.877,-0.153 1.913,-0.265 3.044,-0.327 0.154,-0.008 0.312,-0.016 0.469,-0.021 l 0.013,0.01 c 0.286,0.364 0.558,0.726 0.812,1.084 l 0.007,0.013 c -0.139,0.182 -0.342,0.45 -0.586,0.78 -0.216,0.292 -0.465,0.634 -0.732,1.011 -0.564,0.131 -2.3,0.588 -3.528,1.437"
             id="path5177"
             inkscape:connector-curvature="0" /><path
             style="fill:#009641;fill-opacity:1;fill-rule:nonzero;stroke:none"
             d="m 121.4381,25.371 c 1.076,0.093 2.051,0.231 2.885,0.4 -1.157,0.314 -2.347,0.944 -2.897,1.256 -1.293,-0.406 -2.569,-0.723 -3.245,-0.884 -0.228,-0.055 -0.208,-0.055 -0.492,-0.112 -0.035,-0.068 -0.188,-0.364 -0.411,-0.785 -0.285,-0.541 -0.687,-1.289 -1.106,-2.043 l 1.127,0 c 0.47,1.099 0.857,2.027 0.857,2.027 l 0.001,0.005 c 1.158,0 2.264,0.047 3.281,0.136"
             id="path5153"
             inkscape:connector-curvature="0" /><path
             style="fill:#009641;fill-opacity:1;fill-rule:nonzero;stroke:none"
             d="m 124.7071,28.385 c -0.601,-0.392 -1.53,-0.773 -2.518,-1.109 0.166,-0.143 1.074,-0.879 2.21,-1.159 0.126,0.678 0.231,1.443 0.308,2.268"
             id="path5151"
             inkscape:connector-curvature="0" /></g><g
           id="g5328"><path
             style="fill:#181717;fill-opacity:1;fill-rule:nonzero;stroke:none"
             d="m 127.0091,23.265 c 0.309,-0.122 0.737,-0.312 1.171,-0.569 0,0 -0.436,0.777 -1.171,1.162 l -0.003,0 c -0.736,-0.385 -1.17,-1.162 -1.17,-1.162 0.434,0.257 0.861,0.447 1.173,0.569"
             id="path5219"
             inkscape:connector-curvature="0" /><path
             inkscape:connector-curvature="0"
             style="fill:#181717;fill-opacity:1;fill-rule:nonzero;stroke:none"
             d="m 135.0881,18.872 0,1.362 1.05,0 c 0.201,0.218 0.246,0.437 0.255,0.528 l -1.305,0 0,1.237 1.216,0 c 0.185,0.2 0.237,0.403 0.251,0.504 l -2.377,0 0,-0.436 0,-0.068 0,-3.127 0,-0.523 0.91,0 1.216,0 c 0.198,0.216 0.243,0.432 0.254,0.523 l -1.47,0 z"
             id="path5229" /><path
             inkscape:connector-curvature="0"
             style="fill:#181717;fill-opacity:1;fill-rule:nonzero;stroke:none"
             d="m 132.9171,18.347 0.861,0 -0.552,4.211 c -0.362,-0.039 -0.753,-0.138 -1.042,-0.234 l -0.738,-2.155 -0.796,2.386 c -0.369,-0.039 -0.764,-0.143 -1.05,-0.239 l -0.517,-3.969 0.821,0 c 0.008,0.122 0.315,2.568 0.315,2.568 0.03,0.26 0.023,0.494 0.023,0.494 l 0.013,0 c 0,0 0.059,-0.234 0.146,-0.494 0,0 0.881,-2.446 0.93,-2.568 l 0.154,0 c 0.057,0.14 0.938,2.563 0.938,2.563 0.094,0.265 0.143,0.499 0.143,0.499 l 0.015,0 c 0,0 -0.01,-0.239 0.02,-0.499 0,0 0.31,-2.459 0.316,-2.563"
             id="path5225" /><path
             inkscape:connector-curvature="0"
             style="fill:#181717;fill-opacity:1;fill-rule:nonzero;stroke:none"
             d="m 127.04062,22.589224 c -1.326,0 -1.85624,-0.959464 -1.85624,-2.137464 0,-1.182 0.53024,-2.136 1.85624,-2.136 1.325,0 1.84688,0.954 1.84688,2.136 0,1.178 -0.52188,2.137464 -1.84688,2.137464 z m 0,-0.507808 c 0.759,0 0.92188,-0.824696 0.92188,-1.604696 0,-0.772 -0.14288,-1.59528 -0.92188,-1.59528 -0.781,0 -0.9328,0.82328 -0.9328,1.59528 0,0.78 0.1718,1.604696 0.9328,1.604696 z"
             id="path5223" /><path
             inkscape:connector-curvature="0"
             style="fill:#181717;fill-opacity:1;fill-rule:nonzero;stroke:none"
             d="m 110.7601,20.811 c -0.365,-0.057 -0.611,-0.257 -0.553,-0.447 0.061,-0.19 0.405,-0.296 0.77,-0.239 0.364,0.057 0.612,0.257 0.552,0.447 -0.06,0.19 -0.405,0.296 -0.769,0.239"
             id="path5199" /><path
             inkscape:connector-curvature="0"
             style="fill:#181717;fill-opacity:1;fill-rule:nonzero;stroke:none"
             d="m 108.8811,20.14 1.345,2.402 c -0.357,-0.036 -0.692,-0.117 -0.971,-0.208 l -0.783,-1.554 -0.015,0 -0.843,1.773 c -0.314,-0.031 -0.612,-0.099 -0.871,-0.177 l 1.227,-2.236 0,-1.793 0.911,0 0,1.793 z"
             id="path5197" /><path
             inkscape:connector-curvature="0"
             style="fill:#181717;fill-opacity:1;fill-rule:nonzero;stroke:none"
             d="m 106.4861,19.556 0,2.992 -0.004,0 c -0.302,-0.032 -0.59,-0.094 -0.841,-0.167 l 0,-2.82 c 0,-0.445 -0.33,-0.689 -0.746,-0.689 -0.408,0 -0.752,0.244 -0.752,0.689 l 0,2.987 -0.005,0 c -0.327,-0.034 -0.639,-0.104 -0.904,-0.188 l 0,-2.804 c 0,-0.754 0.658,-1.274 1.626,-1.274 0.967,0 1.626,0.52 1.626,1.274"
             id="path5191" /><path
             inkscape:connector-curvature="0"
             style="fill:#181717;fill-opacity:1;fill-rule:nonzero;stroke:none"
             d="m 101.6375,22.579856 c -0.13248,0.0064 -0.27819,0.0024 -0.43594,-0.01408 -0.606,-0.06304 -1.15574,-0.249936 -1.468744,-0.410936 l 0,-3.806216 0.889054,0 0,1.40776 0.19375,0.0168 c 1.559,0.174 2.07656,0.77192 2.07656,1.53592 0,0.65536 -0.32732,1.225256 -1.25468,1.270336 z m -0.29844,-0.515632 c 0.49268,-0.008 0.67969,-0.363024 0.67969,-0.860944 0,-0.56696 -0.29,-0.8264 -1.15,-0.95936 l -0.24688,-0.0312 0,0.0344 0,1.67032 c 0.085,0.032 0.25851,0.09208 0.48751,0.12808 0.0832,0.01368 0.1593,0.01992 0.22968,0.0188 z"
             id="path5189" /><path
             inkscape:connector-curvature="0"
             style="fill:#181717;fill-opacity:1;fill-rule:nonzero;stroke:none"
             d="m 113.94062,22.584544 c -0.594,-0.026 -1.24024,-0.255568 -1.60624,-0.426568 l 0,-3.745336 c 0.378,-0.102 0.86118,-0.13376 1.46718,-0.0688 1.595,0.164 2.04375,1.16512 2.04375,2.30312 0,1.20096 -0.41669,1.999504 -1.90469,1.937504 z m 0.025,-0.542224 c 0.61863,8e-4 0.95625,-0.41312 0.95625,-1.38432 0,-0.998 -0.28125,-1.67712 -1.20625,-1.82816 -0.191,-0.028 -0.34968,-0.0184 -0.47968,0 l 0,3.04216 c 0.129,0.0536 0.25744,0.11432 0.44844,0.14536 0.0998,0.0168 0.19287,0.0248 0.28124,0.0248 z"
             id="path5171" /><path
             inkscape:connector-curvature="0"
             style="fill:#181717;fill-opacity:1;fill-rule:nonzero;stroke:none"
             d="m 116.2781,18.349 0.909,0 1.215,0 c 0.2,0.216 0.245,0.432 0.256,0.523 l -1.471,0 0,1.362 1.05,0 c 0.201,0.218 0.246,0.437 0.256,0.528 l -1.306,0 0,1.237 1.215,0 c 0.187,0.2 0.239,0.403 0.253,0.504 l -2.377,0 0,-0.436 0,-0.068 0,-3.127 0,-0.523 z"
             id="path5163" /><path
             inkscape:connector-curvature="0"
             style="fill:#181717;fill-opacity:1;fill-rule:nonzero;stroke:none"
             d="m 119.1561,20.364 c 0.06,-0.19 0.404,-0.296 0.769,-0.239 0.364,0.057 0.611,0.257 0.551,0.447 -0.06,0.19 -0.403,0.296 -0.769,0.239 -0.363,-0.057 -0.611,-0.257 -0.551,-0.447"
             id="path5157" /><path
             inkscape:connector-curvature="0"
             style="fill:#181717;fill-opacity:1;fill-rule:nonzero;stroke:none"
             d="m 122.91562,22.584544 c -0.592,-0.026 -1.23824,-0.255568 -1.60624,-0.426568 l 0,-3.745336 c 0.378,-0.102 0.86118,-0.13376 1.46718,-0.0688 1.596,0.164 2.04531,1.16512 2.04531,2.30312 0,1.20096 -0.41825,1.999504 -1.90625,1.937504 z m 0.0266,-0.542224 c 0.61864,8e-4 0.95469,-0.41312 0.95469,-1.38432 0,-0.998 -0.28125,-1.67712 -1.20625,-1.82816 -0.193,-0.028 -0.34912,-0.0184 -0.47812,0 l 0,3.04216 c 0.127,0.0536 0.25588,0.11432 0.44688,0.14536 0.0998,0.0168 0.19444,0.0248 0.2828,0.0248 z"
             id="path5149" /></g><g
           style="fill:#181717;fill-opacity:1"
           id="g5288"><path
             style="fill:#181717;fill-opacity:1;fill-rule:nonzero;stroke:none"
             d="m 136.5591,16.704 0,0.377 -1.781,0 0,-0.377 0.671,0 0,-2.275 0.439,0 0,2.275 0.671,0 z"
             id="path5231"
             inkscape:connector-curvature="0" /><path
             style="fill:#181717;fill-opacity:1;fill-rule:nonzero;stroke:none"
             d="m 131.8721,16.285 2.128,-2.017 0,2.813 -0.441,0 0,-1.843 -2.126,2.022 0,-2.831 0.439,0 0,1.856 z"
             id="path5227"
             inkscape:connector-curvature="0" /><path
             style="fill:#181717;fill-opacity:1;fill-rule:nonzero;stroke:none"
             d="m 132.45508,1006.207 0,3.3164 0.75586,0 c 0.36875,0 0.65617,-0.033 0.85742,-0.092 0.21625,-0.062 0.42094,-0.1732 0.61719,-0.332 0.39,-0.315 0.58789,-0.7244 0.58789,-1.2344 0,-0.5075 -0.18625,-0.916 -0.5625,-1.2285 -0.1875,-0.1562 -0.39235,-0.2669 -0.6211,-0.3281 -0.2125,-0.065 -0.50289,-0.1016 -0.86914,-0.1016 l -0.76562,0 z m 0.55078,0.4727 0.24805,0 c 0.4675,0 0.8232,0.099 1.06445,0.3008 0.26625,0.2275 0.40234,0.521 0.40234,0.8847 0,0.36 -0.1375,0.652 -0.40625,0.877 -0.1325,0.1075 -0.28086,0.1888 -0.44336,0.2363 -0.16375,0.049 -0.37093,0.072 -0.61718,0.072 l -0.24805,0 0,-2.3711 z"
             transform="matrix(0.8,0,0,-0.8,0,822.04704)"
             id="path5195"
             inkscape:connector-curvature="0" /><path
             style="fill:#181717;fill-opacity:1;fill-rule:nonzero;stroke:none"
             d="m 100.1481,17.081 -0.439,0 0,-2.652 1.297,0 0,0.377 -0.858,0 0,2.275 z"
             id="path5185"
             inkscape:connector-curvature="0" /><path
             style="fill:#181717;fill-opacity:1;fill-rule:nonzero;stroke:none"
             d="m 103.4201,17.081 -1.61,0 0,-2.652 1.61,0 0,0.377 -1.17,0 0,0.887 1.136,0 0,0.377 -1.136,0 0,0.634 1.17,0 0,0.377 z"
             id="path5183"
             inkscape:connector-curvature="0" /><path
             style="fill:#181717;fill-opacity:1;fill-rule:nonzero;stroke:none"
             d="m 109.6461,17.479 0.21,-0.162 0.771,0.476 -0.375,0.239 -0.606,-0.553 z"
             id="path5181"
             inkscape:connector-curvature="0" /><path
             style="fill:#181717;fill-opacity:1;fill-rule:nonzero;stroke:none"
             d="m 110.7681,17.081 -1.608,0 0,-2.652 1.608,0 0,0.377 -1.168,0 0,0.887 1.133,0 0,0.377 -1.133,0 0,0.634 1.168,0 0,0.377 z"
             id="path5179"
             inkscape:connector-curvature="0" /><path
             style="fill:#181717;fill-opacity:1;fill-rule:nonzero;stroke:none"
             d="m 139.66602,1006.207 0,3.3164 0.55078,0 0,-1.3476 0.2539,0 c 0.37875,0 0.68125,-0.087 0.90625,-0.2656 0.2225,-0.1788 0.33399,-0.4182 0.33399,-0.7207 0,-0.2825 -0.105,-0.5162 -0.3125,-0.7012 -0.12,-0.1113 -0.26172,-0.1839 -0.41797,-0.2227 -0.15625,-0.039 -0.3857,-0.059 -0.68945,-0.059 l -0.625,0 z m 0.55078,0.461 0.18164,0 c 0.52125,0 0.78125,0.1724 0.78125,0.5136 0,0.3538 -0.25352,0.5313 -0.75977,0.5313 l -0.20312,0 0,-1.0449 z"
             transform="matrix(0.8,0,0,-0.8,0,822.04704)"
             id="path5175"
             inkscape:connector-curvature="0" /><path
             style="fill:#181717;fill-opacity:1;fill-rule:nonzero;stroke:none"
             d="m 143.88086,1006 -1.80664,3.5234 0.59375,0 0.40625,-0.8066 1.5625,0 0.3789,0.8066 0.60352,0 -1.73828,-3.5234 z m -0.01,1.1211 0.54102,1.123 -1.10938,0 0.56836,-1.123 z"
             transform="matrix(0.8,0,0,-0.8,0,822.04704)"
             id="path5167"
             inkscape:connector-curvature="0" /><path
             style="fill:#181717;fill-opacity:1;fill-rule:nonzero;stroke:none"
             d="m 146.55859,1006.207 0,3.3125 0.55079,0 0,-1.3515 0.0977,0 1.04102,1.3515 0.67383,0 -1.12891,-1.4101 c 0.2425,-0.046 0.43719,-0.1537 0.58594,-0.3262 0.1475,-0.1662 0.2207,-0.3703 0.2207,-0.6016 0,-0.3025 -0.11727,-0.5415 -0.35352,-0.7265 -0.2125,-0.1625 -0.56117,-0.2481 -1.04492,-0.2481 l -0.64258,0 z m 0.55079,0.4727 0.19531,0 c 0.5075,0 0.75976,0.1671 0.75976,0.5058 0,0.3638 -0.26,0.545 -0.78125,0.545 l -0.17382,0 0,-1.0508 z"
             transform="matrix(0.8,0,0,-0.8,0,822.04704)"
             id="path5161"
             inkscape:connector-curvature="0" /><path
             style="fill:#181717;fill-opacity:1;fill-rule:nonzero;stroke:none"
             d="m 121.4011,17.081 -1.78,0 0,-0.377 0.672,0 0,-2.275 0.438,0 0,2.275 0.67,0 0,0.377 z"
             id="path5155"
             inkscape:connector-curvature="0" /><path
             style="fill:#181717;fill-opacity:1;fill-rule:nonzero;stroke:none"
             d="m 123.7891,17.081 -1.609,0 0,-2.652 1.609,0 0,0.377 -1.17,0 0,0.887 1.138,0 0,0.377 -1.138,0 0,0.634 1.17,0 0,0.377 z"
             id="path5145"
             inkscape:connector-curvature="0" /><path
             style="fill:#181717;fill-opacity:1;fill-rule:nonzero;stroke:none"
             d="m 125.2671,17.278 -0.614,-2.846 0.455,0 0.312,1.599 0.84,-1.724 0.863,1.721 0.281,-1.596 0.452,0 -0.551,2.846 -1.037,-2.058 -1.001,2.058 z"
             id="path5143"
             inkscape:connector-curvature="0" /><path
             style="fill:#181717;fill-opacity:1;fill-rule:nonzero;stroke:none"
             d="m 130.4691,17.081 -1.61,0 0,-2.652 1.61,0 0,0.377 -1.17,0 0,0.887 1.136,0 0,0.377 -1.136,0 0,0.634 1.17,0 0,0.377 z"
             id="path814"
             inkscape:connector-curvature="0" /></g></g></g></g></svg>