<?xml version="1.0" encoding="UTF-8" standalone="no"?>
<!-- Created with Inkscape (http://www.inkscape.org/) -->

<svg
   xmlns:dc="http://purl.org/dc/elements/1.1/"
   xmlns:cc="http://creativecommons.org/ns#"
   xmlns:rdf="http://www.w3.org/1999/02/22-rdf-syntax-ns#"
   xmlns:svg="http://www.w3.org/2000/svg"
   xmlns="http://www.w3.org/2000/svg"
   xmlns:sodipodi="http://sodipodi.sourceforge.net/DTD/sodipodi-0.dtd"
   xmlns:inkscape="http://www.inkscape.org/namespaces/inkscape"
   id="svg2"
   version="1.1"
   inkscape:version="0.91 r13725"
   xml:space="preserve"
   width="800"
   height="800"
   viewBox="0 0 800 799.99996"
   sodipodi:docname="Logo Département Vienne.svg"><metadata
     id="metadata8"><rdf:RDF><cc:Work
         rdf:about=""><dc:format>image/svg+xml</dc:format><dc:type
           rdf:resource="http://purl.org/dc/dcmitype/StillImage" /><dc:title></dc:title></cc:Work></rdf:RDF></metadata><defs
     id="defs6" /><sodipodi:namedview
     pagecolor="#ffffff"
     bordercolor="#666666"
     borderopacity="1"
     objecttolerance="10"
     gridtolerance="10"
     guidetolerance="10"
     inkscape:pageopacity="0"
     inkscape:pageshadow="2"
     inkscape:window-width="1440"
     inkscape:window-height="790"
     id="namedview4"
     showgrid="false"
     inkscape:zoom="0.44851463"
     inkscape:cx="461.23075"
     inkscape:cy="816.02689"
     inkscape:window-x="0"
     inkscape:window-y="1"
     inkscape:window-maximized="1"
     inkscape:current-layer="g10" /><g
     id="g10"
     inkscape:groupmode="layer"
     inkscape:label="Logo-Departement-Charte"
     transform="matrix(1.25,0,0,-1.25,0,799.99995)"><g
       id="g4845"
       transform="matrix(5.3292476,0,0,5.3292032,-1945.9801,-3121.4742)"><path
         inkscape:connector-curvature="0"
         id="path36"
         style="fill:#00accf;fill-opacity:1;fill-rule:nonzero;stroke:none"
         d="m 365.151,705.823 120.092,0 0,-120.093 -120.092,0 0,120.093 z" /><g
         id="g4818"><path
           inkscape:connector-curvature="0"
           id="path40"
           style="fill:#ffffff;fill-opacity:1;fill-rule:nonzero;stroke:none"
           d="m 374.8262,635.1172 4.352,0 4.598,-13.935 0.071,0 4.422,13.935 4.143,0 -6.494,-18.147 -4.492,0 -6.6,18.147 z" /><path
           d="m 394.061,635.117 4.003,0 0,-18.147 -4.003,0 0,18.147 z"
           style="fill:#ffffff;fill-opacity:1;fill-rule:nonzero;stroke:none"
           id="path42"
           inkscape:connector-curvature="0" /><path
           inkscape:connector-curvature="0"
           id="path54"
           style="fill:#ffffff;fill-opacity:1;fill-rule:nonzero;stroke:none"
           d="m 404.6621,625.0078 c 0,-0.702 0.1,-1.38 0.298,-2.036 0.198,-0.655 0.497,-1.229 0.895,-1.719 0.398,-0.492 0.901,-0.884 1.51,-1.175 0.609,-0.294 1.334,-0.44 2.176,-0.44 1.17,0 2.112,0.25 2.826,0.755 0.713,0.502 1.246,1.257 1.598,2.263 l 3.791,0 c -0.212,-0.982 -0.574,-1.859 -1.089,-2.632 -0.515,-0.772 -1.136,-1.422 -1.86,-1.948 -0.727,-0.526 -1.54,-0.924 -2.44,-1.194 -0.901,-0.267 -1.843,-0.403 -2.826,-0.403 -1.428,0 -2.691,0.234 -3.791,0.702 -1.1,0.468 -2.03,1.122 -2.79,1.965 -0.762,0.842 -1.335,1.849 -1.72,3.019 -0.387,1.171 -0.58,2.458 -0.58,3.861 0,1.287 0.205,2.511 0.615,3.669 0.408,1.157 0.993,2.177 1.755,3.054 0.759,0.878 1.678,1.573 2.755,2.087 1.076,0.515 2.293,0.773 3.65,0.773 1.428,0 2.708,-0.298 3.845,-0.895 1.134,-0.596 2.076,-1.386 2.825,-2.37 0.749,-0.982 1.292,-2.112 1.632,-3.386 0.339,-1.276 0.427,-2.593 0.263,-3.95 l -13.338,0 z m 9.337,2.632 c -0.048,0.633 -0.182,1.241 -0.403,1.826 -0.224,0.585 -0.528,1.094 -0.913,1.528 -0.386,0.432 -0.855,0.783 -1.404,1.052 -0.55,0.27 -1.165,0.404 -1.844,0.404 -0.701,0 -1.338,-0.122 -1.912,-0.369 -0.574,-0.245 -1.066,-0.585 -1.474,-1.017 -0.409,-0.434 -0.738,-0.943 -0.983,-1.527 -0.246,-0.585 -0.381,-1.218 -0.404,-1.897 l 9.337,0 z" /><path
           inkscape:connector-curvature="0"
           id="path58"
           style="fill:#ffffff;fill-opacity:1;fill-rule:nonzero;stroke:none"
           d="m 420.1768,635.1172 3.791,0 0,-2.668 0.071,-0.07 c 0.608,1.006 1.404,1.796 2.387,2.37 0.982,0.572 2.07,0.859 3.265,0.859 1.987,0 3.555,-0.515 4.702,-1.544 1.146,-1.029 1.721,-2.575 1.721,-4.633 l 0,-12.461 -4.002,0 0,11.408 c -0.046,1.426 -0.352,2.462 -0.913,3.107 -0.561,0.643 -1.439,0.964 -2.631,0.964 -0.68,0 -1.289,-0.122 -1.827,-0.369 -0.538,-0.245 -0.995,-0.585 -1.369,-1.017 -0.374,-0.433 -0.667,-0.942 -0.878,-1.526 -0.21,-0.586 -0.315,-1.206 -0.315,-1.862 l 0,-10.705 -4.002,0 0,18.147 z" /><path
           inkscape:connector-curvature="0"
           id="path62"
           style="fill:#ffffff;fill-opacity:1;fill-rule:nonzero;stroke:none"
           d="m 439.4473,635.1172 3.791,0 0,-2.668 0.069,-0.07 c 0.609,1.006 1.405,1.796 2.389,2.37 0.981,0.572 2.07,0.859 3.263,0.859 1.989,0 3.556,-0.515 4.704,-1.544 1.146,-1.029 1.72,-2.575 1.72,-4.633 l 0,-12.461 -4.001,0 0,11.408 c -0.048,1.426 -0.352,2.462 -0.914,3.107 -0.56,0.643 -1.438,0.964 -2.632,0.964 -0.678,0 -1.286,-0.122 -1.826,-0.369 -0.539,-0.245 -0.994,-0.585 -1.369,-1.017 -0.375,-0.433 -0.666,-0.942 -0.877,-1.526 -0.211,-0.586 -0.315,-1.206 -0.315,-1.862 l 0,-10.705 -4.002,0 0,18.147 z" /><path
           inkscape:connector-curvature="0"
           id="path66"
           style="fill:#ffffff;fill-opacity:1;fill-rule:nonzero;stroke:none"
           d="m 461.8408,625.0078 c 0,-0.702 0.1,-1.38 0.299,-2.036 0.198,-0.655 0.497,-1.229 0.895,-1.719 0.398,-0.492 0.901,-0.884 1.509,-1.175 0.608,-0.294 1.334,-0.44 2.176,-0.44 1.17,0 2.113,0.25 2.826,0.755 0.714,0.502 1.246,1.257 1.597,2.263 l 3.79,0 c -0.21,-0.982 -0.573,-1.859 -1.087,-2.632 -0.515,-0.772 -1.135,-1.422 -1.861,-1.948 -0.725,-0.526 -1.539,-0.924 -2.439,-1.194 -0.901,-0.267 -1.842,-0.403 -2.826,-0.403 -1.427,0 -2.691,0.234 -3.791,0.702 -1.1,0.468 -2.03,1.122 -2.79,1.965 -0.761,0.842 -1.334,1.849 -1.721,3.019 -0.387,1.171 -0.579,2.458 -0.579,3.861 0,1.287 0.205,2.511 0.614,3.669 0.41,1.157 0.994,2.177 1.756,3.054 0.76,0.878 1.679,1.573 2.756,2.087 1.075,0.515 2.292,0.773 3.649,0.773 1.428,0 2.708,-0.298 3.845,-0.895 1.134,-0.596 2.076,-1.386 2.824,-2.37 0.749,-0.982 1.294,-2.112 1.633,-3.386 0.34,-1.276 0.428,-2.593 0.264,-3.95 l -13.339,0 z m 9.337,2.632 c -0.047,0.633 -0.181,1.241 -0.403,1.826 -0.223,0.585 -0.527,1.094 -0.913,1.528 -0.387,0.432 -0.854,0.783 -1.404,1.052 -0.551,0.27 -1.164,0.404 -1.844,0.404 -0.701,0 -1.339,-0.122 -1.912,-0.369 -0.573,-0.245 -1.065,-0.585 -1.474,-1.017 -0.41,-0.434 -0.739,-0.943 -0.984,-1.527 -0.244,-0.585 -0.381,-1.218 -0.403,-1.897 l 9.337,0 z" /></g><g
         id="g4826"><path
           d="m 376.27,639.281 -1.336,0 0,15.146 1.336,0 0,-15.146 z"
           style="fill:#ffffff;fill-opacity:1;fill-rule:nonzero;stroke:none"
           id="path68"
           inkscape:connector-curvature="0" /><path
           inkscape:connector-curvature="0"
           id="path80"
           style="fill:#ffffff;fill-opacity:1;fill-rule:nonzero;stroke:none"
           d="m 378.582,648.5298 c 0.227,0.466 0.534,0.848 0.923,1.145 0.39,0.297 0.846,0.516 1.368,0.658 0.523,0.141 1.104,0.212 1.739,0.212 0.482,0 0.962,-0.046 1.444,-0.138 0.479,-0.092 0.911,-0.265 1.294,-0.519 0.381,-0.255 0.692,-0.613 0.932,-1.072 0.241,-0.459 0.362,-1.057 0.362,-1.793 l 0,-5.812 c 0,-0.538 0.26,-0.806 0.785,-0.806 0.154,0 0.297,0.029 0.424,0.085 l 0,-1.124 c -0.157,-0.029 -0.293,-0.05 -0.415,-0.065 -0.12,-0.014 -0.273,-0.02 -0.456,-0.02 -0.338,0 -0.611,0.045 -0.817,0.138 -0.205,0.092 -0.363,0.223 -0.476,0.392 -0.114,0.169 -0.188,0.371 -0.223,0.605 -0.035,0.233 -0.053,0.491 -0.053,0.774 l -0.043,0 c -0.241,-0.353 -0.483,-0.668 -0.731,-0.944 -0.248,-0.276 -0.524,-0.505 -0.828,-0.689 -0.304,-0.185 -0.651,-0.326 -1.04,-0.425 -0.389,-0.099 -0.852,-0.147 -1.389,-0.147 -0.509,0 -0.986,0.059 -1.432,0.18 -0.445,0.119 -0.834,0.31 -1.166,0.573 -0.333,0.26 -0.594,0.593 -0.785,0.996 -0.19,0.403 -0.286,0.88 -0.286,1.432 0,0.764 0.169,1.36 0.509,1.792 0.339,0.431 0.789,0.76 1.346,0.988 0.558,0.224 1.188,0.383 1.888,0.477 0.7,0.091 1.411,0.179 2.132,0.264 0.283,0.028 0.531,0.063 0.743,0.106 0.212,0.042 0.39,0.117 0.53,0.223 0.141,0.106 0.251,0.251 0.329,0.434 0.079,0.184 0.118,0.425 0.118,0.722 0,0.453 -0.076,0.823 -0.224,1.113 -0.148,0.29 -0.354,0.521 -0.615,0.69 -0.262,0.17 -0.566,0.287 -0.911,0.35 -0.348,0.064 -0.72,0.096 -1.115,0.096 -0.848,0 -1.542,-0.202 -2.079,-0.605 -0.538,-0.403 -0.821,-1.05 -0.848,-1.941 l -1.336,0 c 0.042,0.636 0.176,1.188 0.402,1.655 m 6.683,-3.267 c -0.085,-0.156 -0.247,-0.269 -0.489,-0.34 -0.241,-0.071 -0.453,-0.12 -0.635,-0.148 -0.567,-0.1 -1.151,-0.187 -1.75,-0.266 -0.602,-0.078 -1.151,-0.195 -1.646,-0.349 -0.494,-0.156 -0.9,-0.379 -1.219,-0.669 -0.318,-0.289 -0.477,-0.703 -0.477,-1.241 0,-0.338 0.067,-0.639 0.201,-0.901 0.135,-0.262 0.315,-0.487 0.541,-0.678 0.227,-0.191 0.488,-0.336 0.785,-0.435 0.297,-0.1 0.602,-0.149 0.912,-0.149 0.509,0 0.997,0.078 1.464,0.234 0.466,0.155 0.873,0.381 1.22,0.677 0.347,0.298 0.622,0.658 0.827,1.083 0.205,0.424 0.309,0.905 0.309,1.443 l 0,1.739 -0.043,0 z" /></g><g
         id="g4830"><path
           inkscape:connector-curvature="0"
           id="path84"
           style="fill:#ffffff;fill-opacity:1;fill-rule:nonzero;stroke:none"
           d="m 411.377,645.1421 0.699,0 0,-5.061 2.31,0 0,-0.621 -3.009,0 0,5.682 z" /><path
           inkscape:connector-curvature="0"
           id="path88"
           style="fill:#ffffff;fill-opacity:1;fill-rule:nonzero;stroke:none"
           d="m 415.708,645.1421 2.938,0 0,-0.62 -2.237,0 0,-1.783 2.11,0 0,-0.62 -2.11,0 0,-2.038 2.332,0 0,-0.621 -3.033,0 0,5.682 z" /><path
           inkscape:connector-curvature="0"
           id="path100"
           style="fill:#ffffff;fill-opacity:1;fill-rule:nonzero;stroke:none"
           d="m 422.9707,645.1421 1.521,0 c 1.765,0 1.989,-1.273 1.989,-2.841 0,-1.432 -0.358,-2.841 -1.918,-2.841 l -1.592,0 0,5.682 z m 0.7,-5.109 0.733,0 c 1.209,0 1.344,1.241 1.344,2.261 0,1.098 -0.071,2.276 -1.344,2.276 l -0.733,0 0,-4.537 z" /><path
           inkscape:connector-curvature="0"
           id="path104"
           style="fill:#ffffff;fill-opacity:1;fill-rule:nonzero;stroke:none"
           d="m 428.123,645.1421 2.938,0 0,-0.62 -2.238,0 0,-1.783 2.11,0 0,-0.62 -2.11,0 0,-2.038 2.333,0 0,-0.621 -3.033,0 0,5.682 z m 1.64,1.442 0.779,0 -0.858,-1.131 -0.478,0 0.557,1.131 z" /><path
           inkscape:connector-curvature="0"
           id="path116"
           style="fill:#ffffff;fill-opacity:1;fill-rule:nonzero;stroke:none"
           d="m 432.6064,645.1421 1.449,0 c 0.494,0 1.758,0 1.758,-1.631 0,-1.059 -0.676,-1.647 -1.639,-1.647 l -0.868,0 0,-2.404 -0.7,0 0,5.682 z m 0.7,-2.706 0.836,0 c 0.51,0 0.941,0.351 0.941,1.106 0,0.621 -0.296,1.028 -0.989,1.028 l -0.788,0 0,-2.134 z" /><path
           inkscape:connector-curvature="0"
           id="path120"
           style="fill:#ffffff;fill-opacity:1;fill-rule:nonzero;stroke:none"
           d="m 438.3467,645.1421 0.939,0 1.529,-5.682 -0.733,0 -0.406,1.56 -1.813,0 -0.424,-1.56 -0.732,0 1.64,5.682 z m -0.342,-3.549 1.529,0 -0.725,2.746 -0.016,0 -0.788,-2.746 z" /><path
           inkscape:connector-curvature="0"
           id="path132"
           style="fill:#ffffff;fill-opacity:1;fill-rule:nonzero;stroke:none"
           d="m 442.0107,645.1421 1.839,0 c 0.89,0 1.456,-0.524 1.456,-1.423 0,-0.622 -0.214,-1.275 -0.876,-1.434 l 0,-0.015 c 0.494,-0.056 0.771,-0.462 0.805,-0.948 l 0.047,-0.971 c 0.033,-0.629 0.136,-0.788 0.302,-0.891 l -0.844,0 c -0.12,0.119 -0.174,0.54 -0.19,0.819 l -0.048,0.884 c -0.055,0.779 -0.485,0.827 -0.844,0.827 l -0.947,0 0,-2.53 -0.7,0 0,5.682 z m 0.7,-2.578 0.693,0 c 0.414,0 1.169,0 1.169,1.099 0,0.557 -0.374,0.907 -1.025,0.907 l -0.837,0 0,-2.006 z" /><path
           inkscape:connector-curvature="0"
           id="path136"
           style="fill:#ffffff;fill-opacity:1;fill-rule:nonzero;stroke:none"
           d="m 448.667,639.46 -0.7,0 0,5.062 -1.426,0 0,0.62 3.559,0 0,-0.62 -1.433,0 0,-5.062 z" /><path
           inkscape:connector-curvature="0"
           id="path140"
           style="fill:#ffffff;fill-opacity:1;fill-rule:nonzero;stroke:none"
           d="m 451.4229,645.1421 2.938,0 0,-0.62 -2.238,0 0,-1.783 2.111,0 0,-0.62 -2.111,0 0,-2.038 2.333,0 0,-0.621 -3.033,0 0,5.682 z" /><path
           inkscape:connector-curvature="0"
           id="path144"
           style="fill:#ffffff;fill-opacity:1;fill-rule:nonzero;stroke:none"
           d="m 455.9219,645.1421 1.179,0 1.137,-4.504 0.016,0 1.139,4.504 1.177,0 0,-5.682 -0.699,0 0,4.966 -0.017,0 -1.257,-4.966 -0.7,0 -1.258,4.966 -0.017,0 0,-4.966 -0.7,0 0,5.682 z" /><path
           inkscape:connector-curvature="0"
           id="path148"
           style="fill:#ffffff;fill-opacity:1;fill-rule:nonzero;stroke:none"
           d="m 462.3096,645.1421 2.938,0 0,-0.62 -2.238,0 0,-1.783 2.11,0 0,-0.62 -2.11,0 0,-2.038 2.332,0 0,-0.621 -3.032,0 0,5.682 z" /><path
           inkscape:connector-curvature="0"
           id="path152"
           style="fill:#ffffff;fill-opacity:1;fill-rule:nonzero;stroke:none"
           d="m 466.793,645.1421 0.907,0 1.877,-4.743 0.017,0 0,4.743 0.702,0 0,-5.682 -0.965,0 -1.823,4.601 -0.016,0 0,-4.601 -0.699,0 0,5.682 z" /><path
           inkscape:connector-curvature="0"
           id="path156"
           style="fill:#ffffff;fill-opacity:1;fill-rule:nonzero;stroke:none"
           d="m 473.7441,639.46 -0.7,0 0,5.062 -1.425,0 0,0.62 3.559,0 0,-0.62 -1.434,0 0,-5.062 z" /></g><path
         d="m 421.7744,674.0176 c -2.37,5.368 -9.542,4.943 -10.958,4.574 -1.142,-0.298 -2.134,-1.142 -2.879,-2.63 -1.807,-3.614 -5.212,-11.502 -7.215,-16.805 l 0.001,0.033 c -0.005,-0.018 -0.44,-0.942 -0.444,-0.96 -0.729,3.301 -5.803,17.255 -8.286,22.223 -0.744,1.489 -1.738,2.333 -2.878,2.63 -1.415,0.369 -8.586,0.794 -10.958,-4.574 -1.543,-3.496 0.073,-10.058 1.799,-13.35 2.533,-4.835 10.49,-12.174 12.967,-15.204 2.48,-3.03 3.314,-5.813 2.743,-8.364 -0.574,-2.544 -2.172,-6.933 1.198,-4.591 0,0 1.208,1.218 3.517,3.453 l 0.002,-0.028 c 0.042,0.052 0.094,0.111 0.142,0.167 0.026,0.026 0.052,0.05 0.078,0.076 l 0,0.017 c 2.887,3.33 14.254,13.487 17.787,19.455 1.895,3.198 4.928,10.382 3.384,13.878"
         style="fill:#f14624;fill-opacity:1;fill-rule:nonzero;stroke:none"
         id="path168"
         inkscape:connector-curvature="0" /></g></g></svg>